<svg width="115" height="23" viewBox="0 0 115 23" fill="none" xmlns="http://www.w3.org/2000/svg">
<path d="M0.69 17V0.499999H2.21L11.07 14.41V0.499999H12.59V17H11.07L2.21 3.11V17H0.69ZM21.8052 17.32C20.8452 17.32 19.9785 17.0867 19.2052 16.62C18.4385 16.1467 17.8285 15.5 17.3752 14.68C16.9285 13.86 16.7052 12.9233 16.7052 11.87C16.7052 10.83 16.9252 9.90333 17.3652 9.09C17.8118 8.27 18.4185 7.62333 19.1852 7.15C19.9585 6.67667 20.8318 6.44 21.8052 6.44C22.7318 6.44 23.5718 6.65667 24.3252 7.09C25.0785 7.52333 25.6518 8.12333 26.0452 8.89V6.76H27.5052V17H26.0452V14.84C25.6052 15.6133 25.0152 16.22 24.2752 16.66C23.5352 17.1 22.7118 17.32 21.8052 17.32ZM22.1652 16.05C22.9318 16.05 23.6085 15.8733 24.1952 15.52C24.7885 15.16 25.2552 14.6667 25.5952 14.04C25.9352 13.4067 26.1052 12.6867 26.1052 11.88C26.1052 11.0667 25.9352 10.3467 25.5952 9.72C25.2618 9.09333 24.7985 8.60333 24.2052 8.25C23.6118 7.89 22.9318 7.71 22.1652 7.71C21.3985 7.71 20.7185 7.89 20.1252 8.25C19.5318 8.60333 19.0652 9.09333 18.7252 9.72C18.3852 10.3467 18.2152 11.0667 18.2152 11.88C18.2152 12.6867 18.3852 13.4067 18.7252 14.04C19.0652 14.6667 19.5318 15.16 20.1252 15.52C20.7185 15.8733 21.3985 16.05 22.1652 16.05ZM31.8102 22.2V6.76H33.2702V8.88C33.6835 8.11333 34.2602 7.51667 35.0002 7.09C35.7468 6.65667 36.5735 6.44 37.4802 6.44C38.4602 6.44 39.3368 6.67667 40.1102 7.15C40.8835 7.62333 41.4935 8.27 41.9402 9.09C42.3868 9.90333 42.6102 10.8333 42.6102 11.88C42.6102 12.9133 42.3868 13.8433 41.9402 14.67C41.5002 15.49 40.8935 16.1367 40.1202 16.61C39.3535 17.0833 38.4802 17.32 37.5002 17.32C36.6068 17.32 35.7868 17.1 35.0402 16.66C34.2935 16.22 33.7035 15.6133 33.2702 14.84V22.2H31.8102ZM37.1602 16.05C37.9268 16.05 38.6068 15.8733 39.2002 15.52C39.7935 15.16 40.2568 14.6667 40.5902 14.04C40.9302 13.4133 41.1002 12.6967 41.1002 11.89C41.1002 11.0767 40.9302 10.3567 40.5902 9.73C40.2502 9.09667 39.7835 8.60333 39.1902 8.25C38.6035 7.89 37.9268 7.71 37.1602 7.71C36.3935 7.71 35.7135 7.89 35.1202 8.25C34.5268 8.60333 34.0602 9.09333 33.7202 9.72C33.3802 10.3467 33.2102 11.0667 33.2102 11.88C33.2102 12.6867 33.3802 13.4067 33.7202 14.04C34.0602 14.6667 34.5268 15.16 35.1202 15.52C35.7202 15.8733 36.4002 16.05 37.1602 16.05ZM48.618 17.32C47.8513 17.32 47.2546 17.0633 46.828 16.55C46.408 16.03 46.198 15.3 46.198 14.36V7.86H45.158V6.76H46.198V2.93H47.658V6.76H50.208V7.86H47.658V14.28C47.658 14.8467 47.768 15.28 47.988 15.58C48.208 15.88 48.5213 16.03 48.928 16.03C49.3213 16.03 49.668 15.92 49.968 15.7L50.338 16.86C50.1113 17 49.8446 17.11 49.538 17.19C49.2313 17.2767 48.9246 17.32 48.618 17.32ZM57.8598 17.32C56.8998 17.32 56.0332 17.0867 55.2598 16.62C54.4932 16.1467 53.8832 15.5 53.4298 14.68C52.9832 13.86 52.7598 12.9233 52.7598 11.87C52.7598 10.83 52.9798 9.90333 53.4198 9.09C53.8665 8.27 54.4732 7.62333 55.2398 7.15C56.0132 6.67667 56.8865 6.44 57.8598 6.44C58.7865 6.44 59.6265 6.65667 60.3798 7.09C61.1332 7.52333 61.7065 8.12333 62.0998 8.89V6.76H63.5598V17H62.0998V14.84C61.6598 15.6133 61.0698 16.22 60.3298 16.66C59.5898 17.1 58.7665 17.32 57.8598 17.32ZM58.2198 16.05C58.9865 16.05 59.6632 15.8733 60.2498 15.52C60.8432 15.16 61.3098 14.6667 61.6498 14.04C61.9898 13.4067 62.1598 12.6867 62.1598 11.88C62.1598 11.0667 61.9898 10.3467 61.6498 9.72C61.3165 9.09333 60.8532 8.60333 60.2598 8.25C59.6665 7.89 58.9865 7.71 58.2198 7.71C57.4532 7.71 56.7732 7.89 56.1798 8.25C55.5865 8.60333 55.1198 9.09333 54.7798 9.72C54.4398 10.3467 54.2698 11.0667 54.2698 11.88C54.2698 12.6867 54.4398 13.4067 54.7798 14.04C55.1198 14.6667 55.5865 15.16 56.1798 15.52C56.7732 15.8733 57.4532 16.05 58.2198 16.05ZM73.5416 17V0.499999H75.0616V8.06H84.0716V0.499999H85.5816V17H84.0716V9.4H75.0616V17H73.5416ZM94.7934 17.32C93.8334 17.32 92.9668 17.0867 92.1934 16.62C91.4268 16.1467 90.8168 15.5 90.3634 14.68C89.9168 13.86 89.6934 12.9233 89.6934 11.87C89.6934 10.83 89.9134 9.90333 90.3534 9.09C90.8001 8.27 91.4068 7.62333 92.1734 7.15C92.9468 6.67667 93.8201 6.44 94.7934 6.44C95.7201 6.44 96.5601 6.65667 97.3134 7.09C98.0668 7.52333 98.6401 8.12333 99.0334 8.89V6.76H100.493V17H99.0334V14.84C98.5934 15.6133 98.0034 16.22 97.2634 16.66C96.5234 17.1 95.7001 17.32 94.7934 17.32ZM95.1534 16.05C95.9201 16.05 96.5968 15.8733 97.1834 15.52C97.7768 15.16 98.2434 14.6667 98.5834 14.04C98.9234 13.4067 99.0934 12.6867 99.0934 11.88C99.0934 11.0667 98.9234 10.3467 98.5834 9.72C98.2501 9.09333 97.7868 8.60333 97.1934 8.25C96.6001 7.89 95.9201 7.71 95.1534 7.71C94.3868 7.71 93.7068 7.89 93.1134 8.25C92.5201 8.60333 92.0534 9.09333 91.7134 9.72C91.3734 10.3467 91.2034 11.0667 91.2034 11.88C91.2034 12.6867 91.3734 13.4067 91.7134 14.04C92.0534 14.6667 92.5201 15.16 93.1134 15.52C93.7068 15.8733 94.3868 16.05 95.1534 16.05ZM109.318 22.5C108.025 22.5 106.932 22.2467 106.038 21.74C105.145 21.2333 104.482 20.4933 104.048 19.52L105.278 18.95C105.592 19.6567 106.112 20.2167 106.838 20.63C107.565 21.05 108.392 21.26 109.318 21.26C110.098 21.26 110.795 21.1033 111.408 20.79C112.028 20.4833 112.515 20.0367 112.868 19.45C113.228 18.8633 113.408 18.16 113.408 17.34V14.84C112.982 15.6133 112.395 16.22 111.648 16.66C110.908 17.1 110.082 17.32 109.168 17.32C108.215 17.32 107.352 17.0867 106.578 16.62C105.812 16.1533 105.202 15.51 104.748 14.69C104.302 13.87 104.078 12.9333 104.078 11.88C104.078 10.8333 104.302 9.90333 104.748 9.09C105.195 8.27 105.802 7.62333 106.568 7.15C107.342 6.67667 108.218 6.44 109.198 6.44C110.105 6.44 110.928 6.65667 111.668 7.09C112.415 7.52333 112.995 8.12333 113.408 8.89V6.76H114.868V17.28C114.868 18.4133 114.645 19.3667 114.198 20.14C113.752 20.92 113.112 21.5067 112.278 21.9C111.452 22.3 110.465 22.5 109.318 22.5ZM109.518 16.05C110.292 16.05 110.975 15.8733 111.568 15.52C112.162 15.16 112.628 14.6667 112.968 14.04C113.308 13.4067 113.478 12.69 113.478 11.89C113.478 11.0767 113.308 10.3567 112.968 9.73C112.628 9.09667 112.162 8.60333 111.568 8.25C110.975 7.89 110.295 7.71 109.528 7.71C108.762 7.71 108.082 7.89 107.488 8.25C106.895 8.60333 106.428 9.09667 106.088 9.73C105.748 10.3567 105.578 11.0767 105.578 11.89C105.578 12.69 105.745 13.4067 106.078 14.04C106.418 14.6667 106.885 15.16 107.478 15.52C108.078 15.8733 108.758 16.05 109.518 16.05Z" fill="#9C8194"/>
</svg>
