<svg width="52" height="24" viewBox="0 0 52 24" fill="none" xmlns="http://www.w3.org/2000/svg">
<path d="M0.370198 24V0.824704H3.71406L19.7381 19.7953L19.3408 20.0933C19.2305 19.4974 19.1422 18.8573 19.076 18.1731C19.0098 17.4668 18.9435 16.7384 18.8773 15.988C18.8332 15.2155 18.789 14.4209 18.7449 13.6042C18.7228 12.7655 18.7008 11.9157 18.6787 11.0549C18.6787 10.1941 18.6787 9.32231 18.6787 8.43944V0.824704H22.2543V24H18.8442L3.05191 5.72462L3.28366 5.26112C3.34988 6.23227 3.41609 7.11514 3.48231 7.90972C3.54852 8.68223 3.61474 9.38853 3.68095 10.0286C3.74717 10.6687 3.79131 11.2536 3.81339 11.7833C3.85753 12.291 3.89064 12.7655 3.91271 13.2069C3.93478 13.6263 3.94582 14.0126 3.94582 14.3657V24H0.370198ZM47.9401 24V0.824704H51.5157V24H47.9401ZM30.9559 24V0.824704H34.5315V24H30.9559ZM32.512 14.2333V10.7901H49.5292V14.2333H32.512Z" fill="black"/>
</svg>
