<svg width="32" height="14" viewBox="0 0 32 14" fill="none" xmlns="http://www.w3.org/2000/svg">
<path d="M0.622119 14V0.0948223H2.62844L12.2429 11.4772L12.0045 11.656C11.9383 11.2984 11.8853 10.9144 11.8456 10.5038C11.8059 10.0801 11.7661 9.64304 11.7264 9.19278C11.6999 8.72928 11.6734 8.25253 11.6469 7.76253C11.6337 7.2593 11.6205 6.74944 11.6072 6.23296C11.6072 5.71649 11.6072 5.19339 11.6072 4.66367V0.0948223H13.7526V14H11.7065L2.23115 3.03477L2.3702 2.75667C2.40993 3.33936 2.44966 3.86909 2.48939 4.34583C2.52912 4.80934 2.56884 5.23312 2.60857 5.61716C2.6483 6.00121 2.67479 6.35215 2.68803 6.66999C2.71452 6.97457 2.73438 7.2593 2.74762 7.52416C2.76087 7.77578 2.76749 8.00753 2.76749 8.21942V14H0.622119ZM29.164 14V0.0948223H31.3094V14H29.164ZM18.9735 14V0.0948223H21.1189V14H18.9735ZM19.9072 8.13996V6.07405H30.1175V8.13996H19.9072Z" fill="#9C8194"/>
</svg>
