<svg width="19" height="9" viewBox="0 0 19 9" fill="none" xmlns="http://www.w3.org/2000/svg">
<path d="M0.542423 9V0.820483H1.72261L7.37816 7.516L7.23794 7.62117C7.19899 7.41084 7.16783 7.18493 7.14446 6.94344C7.12109 6.69416 7.09772 6.43708 7.07435 6.17222C7.05877 5.89957 7.04319 5.61913 7.02761 5.3309C7.01982 5.03488 7.01203 4.73497 7.00424 4.43116C7.00424 4.12735 7.00424 3.81964 7.00424 3.50804V0.820483H8.26622V9H7.06267L1.48891 2.54987L1.57071 2.38628C1.59408 2.72904 1.61745 3.04064 1.64082 3.32108C1.66419 3.59373 1.68756 3.84301 1.71093 4.06892C1.7343 4.29483 1.74988 4.50127 1.75767 4.68823C1.77325 4.8674 1.78493 5.03488 1.79272 5.19068C1.80051 5.33869 1.80441 5.47502 1.80441 5.59966V9H0.542423ZM17.3318 9V0.820483H18.5938V9H17.3318ZM11.3374 9V0.820483H12.5994V9H11.3374ZM11.8866 5.55292V4.33768H17.8927V5.55292H11.8866Z" fill="black" fill-opacity="0.8"/>
</svg>
