<svg xmlns="http://www.w3.org/2000/svg" xmlns:xlink="http://www.w3.org/1999/xlink" width="1024" zoomAndPan="magnify" viewBox="0 0 768 576" height="768" preserveAspectRatio="xMidYMid meet" version="1.0"><defs><g/></defs><rect x="-76.8" width="921.6" fill="#ffffff" y="-57.6" height="691.2" fill-opacity="1"/><rect x="-76.8" width="921.6" fill="#ffffff" y="-57.6" height="691.2" fill-opacity="1"/><rect x="-76.8" width="921.6" fill="#e49b89" y="-57.6" height="691.2" fill-opacity="1"/><g fill="#000000" fill-opacity="1"><g transform="translate(207.465049, 264.214162)"><g><path d="M 43.375 -37.484375 C 43.445312 -37.484375 43.484375 -37.363281 43.484375 -37.125 C 43.484375 -36.882812 43.445312 -36.765625 43.375 -36.765625 C 41.769531 -36.765625 40.503906 -36.132812 39.578125 -34.875 C 38.660156 -33.613281 38.203125 -31.925781 38.203125 -29.8125 L 38.203125 0.90625 C 38.203125 1.019531 38.113281 1.097656 37.9375 1.140625 C 37.757812 1.179688 37.628906 1.160156 37.546875 1.078125 L 9.421875 -30.953125 L 9.421875 -7.625 C 9.421875 -5.5 9.859375 -3.816406 10.734375 -2.578125 C 11.617188 -1.335938 12.835938 -0.71875 14.390625 -0.71875 C 14.472656 -0.71875 14.515625 -0.597656 14.515625 -0.359375 C 14.515625 -0.117188 14.472656 0 14.390625 0 C 13.273438 0 12.414062 -0.0195312 11.8125 -0.0625 L 8.578125 -0.125 L 4.859375 -0.0625 C 4.179688 -0.0195312 3.203125 0 1.921875 0 C 1.796875 0 1.734375 -0.117188 1.734375 -0.359375 C 1.734375 -0.597656 1.796875 -0.71875 1.921875 -0.71875 C 3.679688 -0.71875 5.070312 -1.335938 6.09375 -2.578125 C 7.113281 -3.816406 7.625 -5.5 7.625 -7.625 L 7.625 -32.984375 C 6.300781 -34.429688 5.164062 -35.421875 4.21875 -35.953125 C 3.28125 -36.492188 2.3125 -36.765625 1.3125 -36.765625 C 1.238281 -36.765625 1.203125 -36.882812 1.203125 -37.125 C 1.203125 -37.363281 1.238281 -37.484375 1.3125 -37.484375 L 3.84375 -37.4375 C 4.363281 -37.394531 5.125 -37.375 6.125 -37.375 L 10.671875 -37.4375 C 11.234375 -37.46875 11.914062 -37.484375 12.71875 -37.484375 C 13.039062 -37.484375 13.28125 -37.40625 13.4375 -37.25 C 13.59375 -37.09375 13.875 -36.753906 14.28125 -36.234375 C 14.957031 -35.304688 15.4375 -34.6875 15.71875 -34.375 L 36.46875 -10.4375 L 36.46875 -29.8125 C 36.46875 -31.96875 36.023438 -33.664062 35.140625 -34.90625 C 34.265625 -36.144531 33.046875 -36.765625 31.484375 -36.765625 C 31.410156 -36.765625 31.375 -36.882812 31.375 -37.125 C 31.375 -37.363281 31.410156 -37.484375 31.484375 -37.484375 L 34.078125 -37.4375 C 35.347656 -37.351562 36.425781 -37.3125 37.3125 -37.3125 C 38.113281 -37.3125 39.234375 -37.351562 40.671875 -37.4375 Z M 43.375 -37.484375 "/></g></g></g><g fill="#000000" fill-opacity="1"><g transform="translate(251.546528, 264.214162)"><g><path d="M 21.953125 0.71875 C 18.234375 0.71875 14.921875 -0.148438 12.015625 -1.890625 C 9.117188 -3.628906 6.878906 -5.988281 5.296875 -8.96875 C 3.722656 -11.945312 2.9375 -15.195312 2.9375 -18.71875 C 2.9375 -22.832031 3.972656 -26.359375 6.046875 -29.296875 C 8.128906 -32.242188 10.800781 -34.457031 14.0625 -35.9375 C 17.320312 -37.414062 20.648438 -38.15625 24.046875 -38.15625 C 27.847656 -38.15625 31.1875 -37.265625 34.0625 -35.484375 C 36.945312 -33.703125 39.160156 -31.347656 40.703125 -28.421875 C 42.242188 -25.503906 43.015625 -22.410156 43.015625 -19.140625 C 43.015625 -15.492188 42.050781 -12.148438 40.125 -9.109375 C 38.207031 -6.078125 35.640625 -3.679688 32.421875 -1.921875 C 29.203125 -0.160156 25.710938 0.71875 21.953125 0.71875 Z M 23.9375 -0.78125 C 26.175781 -0.78125 28.179688 -1.425781 29.953125 -2.71875 C 31.734375 -4.019531 33.125 -5.921875 34.125 -8.421875 C 35.125 -10.921875 35.625 -13.910156 35.625 -17.390625 C 35.625 -21.066406 35.0625 -24.351562 33.9375 -27.25 C 32.820312 -30.15625 31.203125 -32.425781 29.078125 -34.0625 C 26.960938 -35.707031 24.488281 -36.53125 21.65625 -36.53125 C 18.019531 -36.53125 15.21875 -35.160156 13.25 -32.421875 C 11.289062 -29.679688 10.3125 -25.851562 10.3125 -20.9375 C 10.3125 -17.050781 10.898438 -13.578125 12.078125 -10.515625 C 13.265625 -7.460938 14.882812 -5.078125 16.9375 -3.359375 C 19 -1.640625 21.332031 -0.78125 23.9375 -0.78125 Z M 23.9375 -0.78125 "/></g></g></g><g fill="#000000" fill-opacity="1"><g transform="translate(297.487241, 264.214162)"><g><path d="M 13.3125 -36.109375 C 8.550781 -36.109375 5.132812 -33.007812 3.0625 -26.8125 C 3.019531 -26.695312 2.898438 -26.644531 2.703125 -26.65625 C 2.503906 -26.675781 2.40625 -26.75 2.40625 -26.875 C 2.5625 -28.46875 2.738281 -30.535156 2.9375 -33.078125 C 3.132812 -35.617188 3.234375 -37.53125 3.234375 -38.8125 C 3.234375 -39.007812 3.34375 -39.109375 3.5625 -39.109375 C 3.789062 -39.109375 3.90625 -39.007812 3.90625 -38.8125 C 3.90625 -37.925781 5.039062 -37.484375 7.3125 -37.484375 C 10.757812 -37.367188 14.78125 -37.3125 19.375 -37.3125 C 21.726562 -37.3125 24.226562 -37.351562 26.875 -37.4375 L 30.953125 -37.484375 C 32.472656 -37.484375 33.582031 -37.582031 34.28125 -37.78125 C 34.976562 -37.988281 35.425781 -38.390625 35.625 -38.984375 C 35.664062 -39.148438 35.796875 -39.234375 36.015625 -39.234375 C 36.234375 -39.234375 36.34375 -39.148438 36.34375 -38.984375 C 36.226562 -37.785156 36.097656 -35.863281 35.953125 -33.21875 C 35.816406 -30.582031 35.75 -28.46875 35.75 -26.875 C 35.75 -26.75 35.648438 -26.6875 35.453125 -26.6875 C 35.253906 -26.6875 35.132812 -26.75 35.09375 -26.875 C 34.488281 -29.945312 33.363281 -32.253906 31.71875 -33.796875 C 30.082031 -35.335938 28.066406 -36.109375 25.671875 -36.109375 C 24.515625 -36.109375 23.742188 -35.859375 23.359375 -35.359375 C 22.984375 -34.859375 22.796875 -33.910156 22.796875 -32.515625 L 22.796875 -4.859375 C 22.796875 -3.617188 22.914062 -2.71875 23.15625 -2.15625 C 23.394531 -1.59375 23.851562 -1.210938 24.53125 -1.015625 C 25.207031 -0.816406 26.285156 -0.71875 27.765625 -0.71875 C 27.890625 -0.71875 27.953125 -0.597656 27.953125 -0.359375 C 27.953125 -0.117188 27.890625 0 27.765625 0 C 26.328125 0 25.191406 -0.0195312 24.359375 -0.0625 L 19.375 -0.125 L 14.515625 -0.0625 C 13.671875 -0.0195312 12.507812 0 11.03125 0 C 10.914062 0 10.859375 -0.117188 10.859375 -0.359375 C 10.859375 -0.597656 10.914062 -0.71875 11.03125 -0.71875 C 12.476562 -0.71875 13.550781 -0.816406 14.25 -1.015625 C 14.945312 -1.210938 15.425781 -1.601562 15.6875 -2.1875 C 15.945312 -2.769531 16.078125 -3.660156 16.078125 -4.859375 L 16.078125 -32.625 C 16.078125 -33.988281 15.894531 -34.910156 15.53125 -35.390625 C 15.175781 -35.867188 14.4375 -36.109375 13.3125 -36.109375 Z M 13.3125 -36.109375 "/></g></g></g><g fill="#000000" fill-opacity="1"><g transform="translate(336.051056, 264.214162)"><g><path d="M 43.015625 -0.71875 C 43.210938 -0.71875 43.3125 -0.597656 43.3125 -0.359375 C 43.3125 -0.117188 43.210938 0 43.015625 0 C 42.210938 0 40.972656 -0.0390625 39.296875 -0.125 C 37.535156 -0.195312 36.273438 -0.234375 35.515625 -0.234375 C 34.515625 -0.234375 33.296875 -0.195312 31.859375 -0.125 C 30.492188 -0.0390625 29.410156 0 28.609375 0 C 28.453125 0 28.375 -0.117188 28.375 -0.359375 C 28.375 -0.597656 28.453125 -0.71875 28.609375 -0.71875 C 29.648438 -0.71875 30.398438 -0.828125 30.859375 -1.046875 C 31.316406 -1.265625 31.546875 -1.65625 31.546875 -2.21875 C 31.546875 -2.894531 31.148438 -4.035156 30.359375 -5.640625 L 26.265625 -13.734375 L 11.515625 -13.734375 L 9.171875 -8.515625 C 8.648438 -7.359375 8.390625 -6.28125 8.390625 -5.28125 C 8.390625 -3.84375 8.898438 -2.722656 9.921875 -1.921875 C 10.941406 -1.117188 12.3125 -0.71875 14.03125 -0.71875 C 14.238281 -0.71875 14.34375 -0.597656 14.34375 -0.359375 C 14.34375 -0.117188 14.238281 0 14.03125 0 C 13.3125 0 12.273438 -0.0390625 10.921875 -0.125 C 9.398438 -0.195312 8.078125 -0.234375 6.953125 -0.234375 C 5.878906 -0.234375 4.582031 -0.195312 3.0625 -0.125 C 1.695312 -0.0390625 0.597656 0 -0.234375 0 C -0.398438 0 -0.484375 -0.117188 -0.484375 -0.359375 C -0.484375 -0.597656 -0.398438 -0.71875 -0.234375 -0.71875 C 0.878906 -0.71875 1.816406 -0.945312 2.578125 -1.40625 C 3.335938 -1.863281 4.097656 -2.679688 4.859375 -3.859375 C 5.617188 -5.046875 6.519531 -6.800781 7.5625 -9.125 L 20.578125 -37.734375 C 20.648438 -37.847656 20.828125 -37.90625 21.109375 -37.90625 C 21.429688 -37.90625 21.613281 -37.847656 21.65625 -37.734375 L 36.65625 -8.21875 C 38.050781 -5.375 39.207031 -3.410156 40.125 -2.328125 C 41.050781 -1.253906 42.015625 -0.71875 43.015625 -0.71875 Z M 12.296875 -15.421875 L 25.375 -15.421875 L 18.46875 -29.09375 Z M 12.296875 -15.421875 "/></g></g></g><g fill="#000000" fill-opacity="1"><g transform="translate(378.993031, 264.214162)"><g><path d="M 21.59375 -21.046875 C 24.957031 -20.648438 27.628906 -19.53125 29.609375 -17.6875 C 31.585938 -15.851562 32.578125 -13.578125 32.578125 -10.859375 C 32.578125 -8.773438 31.972656 -6.894531 30.765625 -5.21875 C 29.566406 -3.539062 27.90625 -2.210938 25.78125 -1.234375 C 23.664062 -0.253906 21.3125 0.234375 18.71875 0.234375 C 17.59375 0.234375 16.3125 0.175781 14.875 0.0625 C 14.3125 0.0195312 13.617188 -0.0195312 12.796875 -0.0625 C 11.984375 -0.101562 11.078125 -0.125 10.078125 -0.125 L 5.703125 -0.0625 C 4.898438 -0.0195312 3.816406 0 2.453125 0 C 2.335938 0 2.28125 -0.117188 2.28125 -0.359375 C 2.28125 -0.597656 2.335938 -0.71875 2.453125 -0.71875 C 3.617188 -0.71875 4.5 -0.828125 5.09375 -1.046875 C 5.695312 -1.265625 6.128906 -1.664062 6.390625 -2.25 C 6.648438 -2.832031 6.78125 -3.703125 6.78125 -4.859375 L 6.78125 -32.625 C 6.78125 -34.3125 6.5 -35.421875 5.9375 -35.953125 C 5.375 -36.492188 4.234375 -36.765625 2.515625 -36.765625 C 2.441406 -36.765625 2.40625 -36.882812 2.40625 -37.125 C 2.40625 -37.363281 2.441406 -37.484375 2.515625 -37.484375 L 5.703125 -37.4375 C 7.535156 -37.351562 8.992188 -37.3125 10.078125 -37.3125 C 11.191406 -37.3125 12.351562 -37.367188 13.5625 -37.484375 C 13.957031 -37.523438 14.554688 -37.566406 15.359375 -37.609375 C 16.160156 -37.648438 16.859375 -37.671875 17.453125 -37.671875 C 21.085938 -37.671875 23.90625 -37.007812 25.90625 -35.6875 C 27.90625 -34.375 28.90625 -32.457031 28.90625 -29.9375 C 28.90625 -28.007812 28.273438 -26.265625 27.015625 -24.703125 C 25.765625 -23.148438 23.957031 -21.929688 21.59375 -21.046875 Z M 16.5625 -36.34375 C 15.394531 -36.34375 14.59375 -36.070312 14.15625 -35.53125 C 13.71875 -35 13.5 -33.992188 13.5 -32.515625 L 13.5 -21.109375 L 15.890625 -21.046875 C 17.972656 -21.046875 19.570312 -21.828125 20.6875 -23.390625 C 21.8125 -24.953125 22.375 -26.953125 22.375 -29.390625 C 22.375 -31.671875 21.875 -33.398438 20.875 -34.578125 C 19.875 -35.753906 18.4375 -36.34375 16.5625 -36.34375 Z M 17.703125 -1.265625 C 22.929688 -1.265625 25.546875 -3.984375 25.546875 -9.421875 C 25.546875 -12.492188 24.804688 -14.929688 23.328125 -16.734375 C 21.847656 -18.535156 19.609375 -19.4375 16.609375 -19.4375 C 15.453125 -19.4375 14.414062 -19.394531 13.5 -19.3125 L 13.5 -4.859375 C 13.5 -3.535156 13.757812 -2.601562 14.28125 -2.0625 C 14.800781 -1.53125 15.941406 -1.265625 17.703125 -1.265625 Z M 17.703125 -1.265625 "/></g></g></g><g fill="#000000" fill-opacity="1"><g transform="translate(414.678055, 264.214162)"><g><path d="M 12.78125 -5.09375 C 12.78125 -4.0625 12.859375 -3.3125 13.015625 -2.84375 C 13.171875 -2.382812 13.476562 -2.070312 13.9375 -1.90625 C 14.40625 -1.75 15.160156 -1.671875 16.203125 -1.671875 L 18.234375 -1.671875 C 21.347656 -1.671875 24.046875 -2.5 26.328125 -4.15625 C 28.609375 -5.820312 30.128906 -8.078125 30.890625 -10.921875 C 30.890625 -10.992188 30.96875 -11.03125 31.125 -11.03125 C 31.207031 -11.03125 31.296875 -11 31.390625 -10.9375 C 31.492188 -10.882812 31.546875 -10.835938 31.546875 -10.796875 C 31.191406 -6.835938 31.015625 -3.539062 31.015625 -0.90625 C 31.015625 -0.582031 30.941406 -0.347656 30.796875 -0.203125 C 30.660156 -0.0664062 30.429688 0 30.109375 0 L 1.796875 0 C 1.710938 0 1.671875 -0.117188 1.671875 -0.359375 C 1.671875 -0.597656 1.710938 -0.71875 1.796875 -0.71875 C 3.078125 -0.71875 4.003906 -0.816406 4.578125 -1.015625 C 5.160156 -1.210938 5.5625 -1.601562 5.78125 -2.1875 C 6.007812 -2.769531 6.125 -3.660156 6.125 -4.859375 L 6.125 -32.625 C 6.125 -33.832031 6.007812 -34.710938 5.78125 -35.265625 C 5.5625 -35.828125 5.148438 -36.21875 4.546875 -36.4375 C 3.953125 -36.65625 3.035156 -36.765625 1.796875 -36.765625 C 1.710938 -36.765625 1.671875 -36.882812 1.671875 -37.125 C 1.671875 -37.363281 1.710938 -37.484375 1.796875 -37.484375 L 4.859375 -37.4375 C 6.703125 -37.351562 8.222656 -37.3125 9.421875 -37.3125 C 10.617188 -37.3125 12.132812 -37.351562 13.96875 -37.4375 L 17.03125 -37.484375 C 17.15625 -37.484375 17.21875 -37.363281 17.21875 -37.125 C 17.21875 -36.882812 17.15625 -36.765625 17.03125 -36.765625 C 15.789062 -36.765625 14.867188 -36.65625 14.265625 -36.4375 C 13.671875 -36.21875 13.273438 -35.816406 13.078125 -35.234375 C 12.878906 -34.660156 12.78125 -33.773438 12.78125 -32.578125 Z M 12.78125 -5.09375 "/></g></g></g><g fill="#000000" fill-opacity="1"><g transform="translate(447.36434, 264.214162)"><g><path d="M 29.75 -9.53125 C 29.75 -9.613281 29.832031 -9.65625 30 -9.65625 C 30.113281 -9.65625 30.21875 -9.625 30.3125 -9.5625 C 30.414062 -9.507812 30.46875 -9.460938 30.46875 -9.421875 C 30.070312 -6.296875 29.875 -3.457031 29.875 -0.90625 C 29.875 -0.582031 29.8125 -0.347656 29.6875 -0.203125 C 29.570312 -0.0664062 29.332031 0 28.96875 0 L 2.453125 0 C 2.335938 0 2.28125 -0.117188 2.28125 -0.359375 C 2.28125 -0.597656 2.335938 -0.71875 2.453125 -0.71875 C 3.734375 -0.71875 4.664062 -0.816406 5.25 -1.015625 C 5.832031 -1.210938 6.222656 -1.601562 6.421875 -2.1875 C 6.617188 -2.769531 6.71875 -3.660156 6.71875 -4.859375 L 6.71875 -32.625 C 6.71875 -33.832031 6.617188 -34.710938 6.421875 -35.265625 C 6.222656 -35.828125 5.820312 -36.21875 5.21875 -36.4375 C 4.613281 -36.65625 3.691406 -36.765625 2.453125 -36.765625 C 2.335938 -36.765625 2.28125 -36.882812 2.28125 -37.125 C 2.28125 -37.363281 2.335938 -37.484375 2.453125 -37.484375 L 27.890625 -37.484375 C 28.296875 -37.484375 28.5 -37.304688 28.5 -36.953125 L 28.609375 -28.96875 C 28.609375 -28.894531 28.5 -28.835938 28.28125 -28.796875 C 28.0625 -28.753906 27.929688 -28.789062 27.890625 -28.90625 C 27.253906 -31.226562 26.175781 -32.945312 24.65625 -34.0625 C 23.132812 -35.1875 21.132812 -35.75 18.65625 -35.75 L 16.859375 -35.75 C 15.660156 -35.75 14.78125 -35.488281 14.21875 -34.96875 C 13.65625 -34.445312 13.375 -33.648438 13.375 -32.578125 L 13.375 -20.328125 L 18.359375 -20.328125 C 20.671875 -20.328125 22.445312 -20.726562 23.6875 -21.53125 C 24.925781 -22.332031 25.546875 -23.453125 25.546875 -24.890625 C 25.546875 -25.015625 25.65625 -25.078125 25.875 -25.078125 C 26.101562 -25.078125 26.21875 -25.015625 26.21875 -24.890625 L 26.15625 -19.5 L 26.21875 -16.609375 C 26.289062 -15.253906 26.328125 -14.175781 26.328125 -13.375 C 26.328125 -13.289062 26.207031 -13.25 25.96875 -13.25 C 25.726562 -13.25 25.609375 -13.289062 25.609375 -13.375 C 25.609375 -15.007812 24.976562 -16.296875 23.71875 -17.234375 C 22.457031 -18.179688 20.648438 -18.65625 18.296875 -18.65625 L 13.375 -18.65625 L 13.375 -5.09375 C 13.375 -3.9375 13.59375 -3.078125 14.03125 -2.515625 C 14.476562 -1.953125 15.179688 -1.671875 16.140625 -1.671875 L 18.109375 -1.671875 C 21.234375 -1.671875 23.734375 -2.3125 25.609375 -3.59375 C 27.492188 -4.875 28.875 -6.851562 29.75 -9.53125 Z M 29.75 -9.53125 "/></g></g></g><g fill="#000000" fill-opacity="1"><g transform="translate(207.465049, 322.98091)"><g><path d="M 12.953125 -5.09375 C 12.953125 -3.8125 13.09375 -2.878906 13.375 -2.296875 C 13.65625 -1.722656 14.1875 -1.316406 14.96875 -1.078125 C 15.75 -0.835938 17 -0.71875 18.71875 -0.71875 C 18.832031 -0.71875 18.890625 -0.597656 18.890625 -0.359375 C 18.890625 -0.117188 18.832031 0 18.71875 0 C 17.070312 0 15.789062 -0.0195312 14.875 -0.0625 L 9.65625 -0.125 L 5.28125 -0.0625 C 4.476562 -0.0195312 3.398438 0 2.046875 0 C 1.921875 0 1.859375 -0.117188 1.859375 -0.359375 C 1.859375 -0.597656 1.921875 -0.71875 2.046875 -0.71875 C 3.316406 -0.71875 4.242188 -0.816406 4.828125 -1.015625 C 5.410156 -1.210938 5.800781 -1.601562 6 -2.1875 C 6.195312 -2.769531 6.296875 -3.660156 6.296875 -4.859375 L 6.296875 -32.625 C 6.296875 -33.832031 6.195312 -34.710938 6 -35.265625 C 5.800781 -35.828125 5.398438 -36.21875 4.796875 -36.4375 C 4.203125 -36.65625 3.285156 -36.765625 2.046875 -36.765625 C 1.921875 -36.765625 1.859375 -36.882812 1.859375 -37.125 C 1.859375 -37.363281 1.921875 -37.484375 2.046875 -37.484375 L 5.21875 -37.4375 C 7.0625 -37.351562 8.519531 -37.3125 9.59375 -37.3125 C 10.550781 -37.3125 11.691406 -37.367188 13.015625 -37.484375 C 13.535156 -37.523438 14.195312 -37.566406 15 -37.609375 C 15.800781 -37.648438 16.71875 -37.671875 17.75 -37.671875 C 21.832031 -37.671875 25.050781 -36.820312 27.40625 -35.125 C 29.769531 -33.425781 30.953125 -30.796875 30.953125 -27.234375 C 30.953125 -24.753906 30.3125 -22.65625 29.03125 -20.9375 C 27.75 -19.21875 26.097656 -17.914062 24.078125 -17.03125 C 22.054688 -16.15625 19.988281 -15.71875 17.875 -15.71875 C 16.789062 -15.71875 15.851562 -15.816406 15.0625 -16.015625 C 14.976562 -16.015625 14.9375 -16.113281 14.9375 -16.3125 C 14.9375 -16.4375 14.960938 -16.554688 15.015625 -16.671875 C 15.078125 -16.796875 15.148438 -16.835938 15.234375 -16.796875 C 15.835938 -16.640625 16.519531 -16.5625 17.28125 -16.5625 C 19.113281 -16.5625 20.640625 -17.421875 21.859375 -19.140625 C 23.078125 -20.859375 23.6875 -23.296875 23.6875 -26.453125 C 23.6875 -29.609375 23.015625 -32.046875 21.671875 -33.765625 C 20.335938 -35.484375 18.390625 -36.34375 15.828125 -36.34375 C 14.710938 -36.34375 13.953125 -36.082031 13.546875 -35.5625 C 13.148438 -35.050781 12.953125 -34.035156 12.953125 -32.515625 Z M 12.953125 -5.09375 "/></g></g></g><g fill="#000000" fill-opacity="1"><g transform="translate(240.631121, 322.98091)"><g><path d="M 42.46875 -0.71875 C 42.550781 -0.71875 42.59375 -0.597656 42.59375 -0.359375 C 42.59375 -0.117188 42.550781 0 42.46875 0 L 31.796875 0 C 30.910156 0 29.269531 -1.585938 26.875 -4.765625 C 24.476562 -7.941406 21.578125 -12.390625 18.171875 -18.109375 C 17.859375 -18.078125 17.398438 -18.0625 16.796875 -18.0625 C 15.234375 -18.0625 14.132812 -18.078125 13.5 -18.109375 L 13.5 -4.859375 C 13.5 -3.617188 13.597656 -2.71875 13.796875 -2.15625 C 13.992188 -1.59375 14.378906 -1.210938 14.953125 -1.015625 C 15.535156 -0.816406 16.46875 -0.71875 17.75 -0.71875 C 17.832031 -0.71875 17.875 -0.597656 17.875 -0.359375 C 17.875 -0.117188 17.832031 0 17.75 0 C 16.4375 0 15.398438 -0.0195312 14.640625 -0.0625 L 10.078125 -0.125 L 5.703125 -0.0625 C 4.898438 -0.0195312 3.816406 0 2.453125 0 C 2.335938 0 2.28125 -0.117188 2.28125 -0.359375 C 2.28125 -0.597656 2.335938 -0.71875 2.453125 -0.71875 C 3.734375 -0.71875 4.664062 -0.816406 5.25 -1.015625 C 5.832031 -1.210938 6.234375 -1.601562 6.453125 -2.1875 C 6.671875 -2.769531 6.78125 -3.660156 6.78125 -4.859375 L 6.78125 -32.625 C 6.78125 -33.832031 6.675781 -34.710938 6.46875 -35.265625 C 6.269531 -35.828125 5.867188 -36.21875 5.265625 -36.4375 C 4.671875 -36.65625 3.753906 -36.765625 2.515625 -36.765625 C 2.441406 -36.765625 2.40625 -36.882812 2.40625 -37.125 C 2.40625 -37.363281 2.441406 -37.484375 2.515625 -37.484375 L 5.703125 -37.4375 C 7.535156 -37.351562 8.992188 -37.3125 10.078125 -37.3125 C 11.429688 -37.3125 12.851562 -37.367188 14.34375 -37.484375 C 14.851562 -37.523438 15.5 -37.566406 16.28125 -37.609375 C 17.0625 -37.648438 17.929688 -37.671875 18.890625 -37.671875 C 22.535156 -37.671875 25.359375 -37 27.359375 -35.65625 C 29.359375 -34.320312 30.359375 -32.453125 30.359375 -30.046875 C 30.359375 -27.847656 29.753906 -25.859375 28.546875 -24.078125 C 27.347656 -22.304688 25.75 -20.878906 23.75 -19.796875 C 26.945312 -14.992188 29.625 -11.234375 31.78125 -8.515625 C 33.945312 -5.796875 35.867188 -3.816406 37.546875 -2.578125 C 39.222656 -1.335938 40.863281 -0.71875 42.46875 -0.71875 Z M 13.5 -19.796875 C 14.457031 -19.640625 15.613281 -19.5625 16.96875 -19.5625 C 19.289062 -19.5625 20.960938 -20.207031 21.984375 -21.5 C 23.003906 -22.800781 23.515625 -24.890625 23.515625 -27.765625 C 23.515625 -31.046875 23.035156 -33.304688 22.078125 -34.546875 C 21.117188 -35.785156 19.738281 -36.40625 17.9375 -36.40625 C 16.332031 -36.40625 15.191406 -36.101562 14.515625 -35.5 C 13.835938 -34.90625 13.5 -33.910156 13.5 -32.515625 Z M 13.5 -19.796875 "/></g></g></g><g fill="#000000" fill-opacity="1"><g transform="translate(282.493553, 322.98091)"><g><path d="M 21.953125 0.71875 C 18.234375 0.71875 14.921875 -0.148438 12.015625 -1.890625 C 9.117188 -3.628906 6.878906 -5.988281 5.296875 -8.96875 C 3.722656 -11.945312 2.9375 -15.195312 2.9375 -18.71875 C 2.9375 -22.832031 3.972656 -26.359375 6.046875 -29.296875 C 8.128906 -32.242188 10.800781 -34.457031 14.0625 -35.9375 C 17.320312 -37.414062 20.648438 -38.15625 24.046875 -38.15625 C 27.847656 -38.15625 31.1875 -37.265625 34.0625 -35.484375 C 36.945312 -33.703125 39.160156 -31.347656 40.703125 -28.421875 C 42.242188 -25.503906 43.015625 -22.410156 43.015625 -19.140625 C 43.015625 -15.492188 42.050781 -12.148438 40.125 -9.109375 C 38.207031 -6.078125 35.640625 -3.679688 32.421875 -1.921875 C 29.203125 -0.160156 25.710938 0.71875 21.953125 0.71875 Z M 23.9375 -0.78125 C 26.175781 -0.78125 28.179688 -1.425781 29.953125 -2.71875 C 31.734375 -4.019531 33.125 -5.921875 34.125 -8.421875 C 35.125 -10.921875 35.625 -13.910156 35.625 -17.390625 C 35.625 -21.066406 35.0625 -24.351562 33.9375 -27.25 C 32.820312 -30.15625 31.203125 -32.425781 29.078125 -34.0625 C 26.960938 -35.707031 24.488281 -36.53125 21.65625 -36.53125 C 18.019531 -36.53125 15.21875 -35.160156 13.25 -32.421875 C 11.289062 -29.679688 10.3125 -25.851562 10.3125 -20.9375 C 10.3125 -17.050781 10.898438 -13.578125 12.078125 -10.515625 C 13.265625 -7.460938 14.882812 -5.078125 16.9375 -3.359375 C 19 -1.640625 21.332031 -0.78125 23.9375 -0.78125 Z M 23.9375 -0.78125 "/></g></g></g><g fill="#000000" fill-opacity="1"><g transform="translate(328.434265, 322.98091)"><g><path d="M 17.875 -37.484375 C 18 -37.484375 18.0625 -37.363281 18.0625 -37.125 C 18.0625 -36.882812 18 -36.765625 17.875 -36.765625 C 16.832031 -36.765625 16.0625 -36.644531 15.5625 -36.40625 C 15.0625 -36.164062 14.734375 -35.753906 14.578125 -35.171875 C 14.421875 -34.597656 14.34375 -33.710938 14.34375 -32.515625 L 14.34375 0.234375 C 14.34375 4.710938 13.226562 8.210938 11 10.734375 C 8.78125 13.253906 5.691406 14.515625 1.734375 14.515625 C 0.210938 14.515625 -1.023438 14.191406 -1.984375 13.546875 C -2.941406 12.910156 -3.421875 12.035156 -3.421875 10.921875 C -3.421875 10.117188 -3.160156 9.40625 -2.640625 8.78125 C -2.117188 8.164062 -1.335938 7.859375 -0.296875 7.859375 C 0.703125 7.859375 1.46875 8.15625 2 8.75 C 2.539062 9.351562 3.035156 10.195312 3.484375 11.28125 C 3.722656 11.914062 3.960938 12.398438 4.203125 12.734375 C 4.441406 13.078125 4.738281 13.25 5.09375 13.25 C 5.9375 13.25 6.554688 12.566406 6.953125 11.203125 C 7.359375 9.847656 7.5625 7.59375 7.5625 4.4375 L 7.5625 -32.625 C 7.5625 -33.832031 7.429688 -34.710938 7.171875 -35.265625 C 6.910156 -35.828125 6.4375 -36.21875 5.75 -36.4375 C 5.070312 -36.65625 3.992188 -36.765625 2.515625 -36.765625 C 2.441406 -36.765625 2.40625 -36.882812 2.40625 -37.125 C 2.40625 -37.363281 2.441406 -37.484375 2.515625 -37.484375 L 6.234375 -37.4375 C 8.160156 -37.351562 9.703125 -37.3125 10.859375 -37.3125 C 11.972656 -37.3125 13.375 -37.351562 15.0625 -37.4375 Z M 17.875 -37.484375 "/></g></g></g><g fill="#000000" fill-opacity="1"><g transform="translate(348.765735, 322.98091)"><g><path d="M 29.75 -9.53125 C 29.75 -9.613281 29.832031 -9.65625 30 -9.65625 C 30.113281 -9.65625 30.21875 -9.625 30.3125 -9.5625 C 30.414062 -9.507812 30.46875 -9.460938 30.46875 -9.421875 C 30.070312 -6.296875 29.875 -3.457031 29.875 -0.90625 C 29.875 -0.582031 29.8125 -0.347656 29.6875 -0.203125 C 29.570312 -0.0664062 29.332031 0 28.96875 0 L 2.453125 0 C 2.335938 0 2.28125 -0.117188 2.28125 -0.359375 C 2.28125 -0.597656 2.335938 -0.71875 2.453125 -0.71875 C 3.734375 -0.71875 4.664062 -0.816406 5.25 -1.015625 C 5.832031 -1.210938 6.222656 -1.601562 6.421875 -2.1875 C 6.617188 -2.769531 6.71875 -3.660156 6.71875 -4.859375 L 6.71875 -32.625 C 6.71875 -33.832031 6.617188 -34.710938 6.421875 -35.265625 C 6.222656 -35.828125 5.820312 -36.21875 5.21875 -36.4375 C 4.613281 -36.65625 3.691406 -36.765625 2.453125 -36.765625 C 2.335938 -36.765625 2.28125 -36.882812 2.28125 -37.125 C 2.28125 -37.363281 2.335938 -37.484375 2.453125 -37.484375 L 27.890625 -37.484375 C 28.296875 -37.484375 28.5 -37.304688 28.5 -36.953125 L 28.609375 -28.96875 C 28.609375 -28.894531 28.5 -28.835938 28.28125 -28.796875 C 28.0625 -28.753906 27.929688 -28.789062 27.890625 -28.90625 C 27.253906 -31.226562 26.175781 -32.945312 24.65625 -34.0625 C 23.132812 -35.1875 21.132812 -35.75 18.65625 -35.75 L 16.859375 -35.75 C 15.660156 -35.75 14.78125 -35.488281 14.21875 -34.96875 C 13.65625 -34.445312 13.375 -33.648438 13.375 -32.578125 L 13.375 -20.328125 L 18.359375 -20.328125 C 20.671875 -20.328125 22.445312 -20.726562 23.6875 -21.53125 C 24.925781 -22.332031 25.546875 -23.453125 25.546875 -24.890625 C 25.546875 -25.015625 25.65625 -25.078125 25.875 -25.078125 C 26.101562 -25.078125 26.21875 -25.015625 26.21875 -24.890625 L 26.15625 -19.5 L 26.21875 -16.609375 C 26.289062 -15.253906 26.328125 -14.175781 26.328125 -13.375 C 26.328125 -13.289062 26.207031 -13.25 25.96875 -13.25 C 25.726562 -13.25 25.609375 -13.289062 25.609375 -13.375 C 25.609375 -15.007812 24.976562 -16.296875 23.71875 -17.234375 C 22.457031 -18.179688 20.648438 -18.65625 18.296875 -18.65625 L 13.375 -18.65625 L 13.375 -5.09375 C 13.375 -3.9375 13.59375 -3.078125 14.03125 -2.515625 C 14.476562 -1.953125 15.179688 -1.671875 16.140625 -1.671875 L 18.109375 -1.671875 C 21.234375 -1.671875 23.734375 -2.3125 25.609375 -3.59375 C 27.492188 -4.875 28.875 -6.851562 29.75 -9.53125 Z M 29.75 -9.53125 "/></g></g></g><g fill="#000000" fill-opacity="1"><g transform="translate(381.871846, 322.98091)"><g><path d="M 25.609375 -38.15625 C 27.492188 -38.15625 29.40625 -38.003906 31.34375 -37.703125 C 33.28125 -37.398438 34.828125 -37.007812 35.984375 -36.53125 C 36.347656 -36.40625 36.578125 -36.253906 36.671875 -36.078125 C 36.773438 -35.898438 36.847656 -35.59375 36.890625 -35.15625 L 37.671875 -26.8125 C 37.671875 -26.695312 37.570312 -26.617188 37.375 -26.578125 C 37.175781 -26.535156 37.035156 -26.59375 36.953125 -26.75 C 35.828125 -30.03125 34.222656 -32.539062 32.140625 -34.28125 C 30.066406 -36.019531 27.570312 -36.890625 24.65625 -36.890625 C 21.9375 -36.890625 19.503906 -36.160156 17.359375 -34.703125 C 15.222656 -33.242188 13.546875 -31.15625 12.328125 -28.4375 C 11.109375 -25.71875 10.5 -22.535156 10.5 -18.890625 C 10.5 -15.210938 11.128906 -11.984375 12.390625 -9.203125 C 13.648438 -6.421875 15.390625 -4.28125 17.609375 -2.78125 C 19.828125 -1.289062 22.375 -0.546875 25.25 -0.546875 C 28.007812 -0.546875 30.328125 -1.289062 32.203125 -2.78125 C 34.085938 -4.28125 35.867188 -6.753906 37.546875 -10.203125 C 37.585938 -10.316406 37.707031 -10.351562 37.90625 -10.3125 C 38.101562 -10.269531 38.203125 -10.191406 38.203125 -10.078125 L 37.3125 -2.640625 C 37.226562 -2.160156 37.144531 -1.847656 37.0625 -1.703125 C 36.988281 -1.566406 36.769531 -1.421875 36.40625 -1.265625 C 32.726562 0.0546875 29.007812 0.71875 25.25 0.71875 C 20.96875 0.71875 17.140625 -0.0859375 13.765625 -1.703125 C 10.390625 -3.328125 7.738281 -5.597656 5.8125 -8.515625 C 3.894531 -11.429688 2.9375 -14.75 2.9375 -18.46875 C 2.9375 -22.269531 3.925781 -25.660156 5.90625 -28.640625 C 7.882812 -31.617188 10.601562 -33.945312 14.0625 -35.625 C 17.519531 -37.3125 21.367188 -38.15625 25.609375 -38.15625 Z M 25.609375 -38.15625 "/></g></g></g><g fill="#000000" fill-opacity="1"><g transform="translate(422.714694, 322.98091)"><g><path d="M 13.3125 -36.109375 C 8.550781 -36.109375 5.132812 -33.007812 3.0625 -26.8125 C 3.019531 -26.695312 2.898438 -26.644531 2.703125 -26.65625 C 2.503906 -26.675781 2.40625 -26.75 2.40625 -26.875 C 2.5625 -28.46875 2.738281 -30.535156 2.9375 -33.078125 C 3.132812 -35.617188 3.234375 -37.53125 3.234375 -38.8125 C 3.234375 -39.007812 3.34375 -39.109375 3.5625 -39.109375 C 3.789062 -39.109375 3.90625 -39.007812 3.90625 -38.8125 C 3.90625 -37.925781 5.039062 -37.484375 7.3125 -37.484375 C 10.757812 -37.367188 14.78125 -37.3125 19.375 -37.3125 C 21.726562 -37.3125 24.226562 -37.351562 26.875 -37.4375 L 30.953125 -37.484375 C 32.472656 -37.484375 33.582031 -37.582031 34.28125 -37.78125 C 34.976562 -37.988281 35.425781 -38.390625 35.625 -38.984375 C 35.664062 -39.148438 35.796875 -39.234375 36.015625 -39.234375 C 36.234375 -39.234375 36.34375 -39.148438 36.34375 -38.984375 C 36.226562 -37.785156 36.097656 -35.863281 35.953125 -33.21875 C 35.816406 -30.582031 35.75 -28.46875 35.75 -26.875 C 35.75 -26.75 35.648438 -26.6875 35.453125 -26.6875 C 35.253906 -26.6875 35.132812 -26.75 35.09375 -26.875 C 34.488281 -29.945312 33.363281 -32.253906 31.71875 -33.796875 C 30.082031 -35.335938 28.066406 -36.109375 25.671875 -36.109375 C 24.515625 -36.109375 23.742188 -35.859375 23.359375 -35.359375 C 22.984375 -34.859375 22.796875 -33.910156 22.796875 -32.515625 L 22.796875 -4.859375 C 22.796875 -3.617188 22.914062 -2.71875 23.15625 -2.15625 C 23.394531 -1.59375 23.851562 -1.210938 24.53125 -1.015625 C 25.207031 -0.816406 26.285156 -0.71875 27.765625 -0.71875 C 27.890625 -0.71875 27.953125 -0.597656 27.953125 -0.359375 C 27.953125 -0.117188 27.890625 0 27.765625 0 C 26.328125 0 25.191406 -0.0195312 24.359375 -0.0625 L 19.375 -0.125 L 14.515625 -0.0625 C 13.671875 -0.0195312 12.507812 0 11.03125 0 C 10.914062 0 10.859375 -0.117188 10.859375 -0.359375 C 10.859375 -0.597656 10.914062 -0.71875 11.03125 -0.71875 C 12.476562 -0.71875 13.550781 -0.816406 14.25 -1.015625 C 14.945312 -1.210938 15.425781 -1.601562 15.6875 -2.1875 C 15.945312 -2.769531 16.078125 -3.660156 16.078125 -4.859375 L 16.078125 -32.625 C 16.078125 -33.988281 15.894531 -34.910156 15.53125 -35.390625 C 15.175781 -35.867188 14.4375 -36.109375 13.3125 -36.109375 Z M 13.3125 -36.109375 "/></g></g></g><g fill="#000000" fill-opacity="1"><g transform="translate(461.278509, 322.98091)"><g><path d="M 10.4375 -31.4375 C 10.4375 -29.988281 10.804688 -28.703125 11.546875 -27.578125 C 12.285156 -26.460938 13.191406 -25.484375 14.265625 -24.640625 C 15.347656 -23.804688 16.8125 -22.789062 18.65625 -21.59375 C 20.65625 -20.3125 22.253906 -19.191406 23.453125 -18.234375 C 24.648438 -17.273438 25.664062 -16.101562 26.5 -14.71875 C 27.34375 -13.34375 27.765625 -11.753906 27.765625 -9.953125 C 27.765625 -7.878906 27.203125 -6.03125 26.078125 -4.40625 C 24.960938 -2.789062 23.414062 -1.53125 21.4375 -0.625 C 19.457031 0.269531 17.25 0.71875 14.8125 0.71875 C 13.007812 0.71875 11.128906 0.46875 9.171875 -0.03125 C 7.210938 -0.53125 5.894531 -1.078125 5.21875 -1.671875 C 5.019531 -1.835938 4.867188 -1.988281 4.765625 -2.125 C 4.671875 -2.269531 4.625 -2.5 4.625 -2.8125 L 4.4375 -12.359375 L 4.4375 -12.421875 C 4.4375 -12.578125 4.535156 -12.664062 4.734375 -12.6875 C 4.929688 -12.707031 5.050781 -12.640625 5.09375 -12.484375 C 6.289062 -10.035156 7.335938 -8.050781 8.234375 -6.53125 C 9.140625 -5.019531 10.28125 -3.679688 11.65625 -2.515625 C 13.039062 -1.359375 14.613281 -0.78125 16.375 -0.78125 C 17.976562 -0.78125 19.296875 -1.207031 20.328125 -2.0625 C 21.367188 -2.925781 21.890625 -4.398438 21.890625 -6.484375 C 21.890625 -8.242188 21.5 -9.78125 20.71875 -11.09375 C 19.945312 -12.414062 19 -13.535156 17.875 -14.453125 C 16.757812 -15.367188 15.21875 -16.46875 13.25 -17.75 C 11.332031 -18.988281 9.84375 -20.046875 8.78125 -20.921875 C 7.726562 -21.804688 6.820312 -22.867188 6.0625 -24.109375 C 5.300781 -25.347656 4.921875 -26.8125 4.921875 -28.5 C 4.921875 -30.613281 5.53125 -32.398438 6.75 -33.859375 C 7.96875 -35.316406 9.535156 -36.394531 11.453125 -37.09375 C 13.378906 -37.800781 15.398438 -38.15625 17.515625 -38.15625 C 18.910156 -38.15625 20.328125 -38.023438 21.765625 -37.765625 C 23.210938 -37.503906 24.375 -37.191406 25.25 -36.828125 C 25.613281 -36.671875 25.851562 -36.5 25.96875 -36.3125 C 26.09375 -36.132812 26.15625 -35.90625 26.15625 -35.625 L 26.15625 -26.8125 C 26.15625 -26.695312 26.050781 -26.609375 25.84375 -26.546875 C 25.644531 -26.484375 25.53125 -26.515625 25.5 -26.640625 L 25.015625 -27.765625 C 24.015625 -30.285156 22.84375 -32.425781 21.5 -34.1875 C 20.164062 -35.945312 18.296875 -36.828125 15.890625 -36.828125 C 14.296875 -36.828125 12.988281 -36.367188 11.96875 -35.453125 C 10.945312 -34.535156 10.4375 -33.195312 10.4375 -31.4375 Z M 10.4375 -31.4375 "/></g></g></g><g fill="#9f7866" fill-opacity="1"><g transform="translate(695.905809, 72.139259)"><g><path d="M 3.84375 0.203125 C 3.175781 0.203125 2.582031 0.0625 2.0625 -0.21875 C 1.550781 -0.507812 1.148438 -0.90625 0.859375 -1.40625 C 0.566406 -1.914062 0.421875 -2.488281 0.421875 -3.125 C 0.421875 -3.75 0.566406 -4.304688 0.859375 -4.796875 C 1.148438 -5.296875 1.550781 -5.6875 2.0625 -5.96875 C 2.582031 -6.25 3.175781 -6.390625 3.84375 -6.390625 C 4.5 -6.390625 5.082031 -6.242188 5.59375 -5.953125 C 6.113281 -5.671875 6.515625 -5.28125 6.796875 -4.78125 C 7.078125 -4.28125 7.21875 -3.71875 7.21875 -3.09375 C 7.21875 -2.457031 7.070312 -1.890625 6.78125 -1.390625 C 6.5 -0.890625 6.097656 -0.5 5.578125 -0.21875 C 5.066406 0.0625 4.488281 0.203125 3.84375 0.203125 Z M 4 -0.125 C 4.488281 -0.125 4.859375 -0.363281 5.109375 -0.84375 C 5.359375 -1.320312 5.484375 -1.992188 5.484375 -2.859375 C 5.484375 -3.941406 5.316406 -4.742188 4.984375 -5.265625 C 4.648438 -5.785156 4.226562 -6.046875 3.71875 -6.046875 C 3.207031 -6.046875 2.8125 -5.796875 2.53125 -5.296875 C 2.257812 -4.804688 2.125 -4.140625 2.125 -3.296875 C 2.125 -2.347656 2.296875 -1.582031 2.640625 -1 C 2.984375 -0.414062 3.4375 -0.125 4 -0.125 Z M 4 -0.125 "/></g></g></g><g fill="#9f7866" fill-opacity="1"><g transform="translate(703.535494, 72.139259)"><g><path d="M 2.828125 3.390625 C 2.753906 3.585938 2.644531 3.71875 2.5 3.78125 L 1.1875 4.40625 L 1.171875 4.40625 C 1.140625 4.40625 1.113281 4.390625 1.09375 4.359375 C 1.070312 4.328125 1.066406 4.300781 1.078125 4.28125 L 5.234375 -4.65625 C 5.273438 -4.726562 5.253906 -4.765625 5.171875 -4.765625 C 3.648438 -4.765625 2.597656 -4.742188 2.015625 -4.703125 C 1.429688 -4.660156 1.039062 -4.566406 0.84375 -4.421875 C 0.644531 -4.285156 0.5 -4.039062 0.40625 -3.6875 C 0.382812 -3.65625 0.351562 -3.640625 0.3125 -3.640625 C 0.28125 -3.640625 0.25 -3.648438 0.21875 -3.671875 C 0.195312 -3.691406 0.191406 -3.710938 0.203125 -3.734375 L 0.921875 -6.609375 C 0.929688 -6.628906 0.96875 -6.632812 1.03125 -6.625 C 1.101562 -6.625 1.132812 -6.613281 1.125 -6.59375 C 1.113281 -6.550781 1.109375 -6.5 1.109375 -6.4375 C 1.109375 -6.320312 1.15625 -6.25 1.25 -6.21875 C 1.351562 -6.1875 1.5625 -6.171875 1.875 -6.171875 L 6.109375 -6.171875 C 6.148438 -6.171875 6.1875 -6.144531 6.21875 -6.09375 C 6.257812 -6.050781 6.269531 -6.007812 6.25 -5.96875 Z M 2.828125 3.390625 "/></g></g></g></svg>