<svg xmlns="http://www.w3.org/2000/svg" xmlns:xlink="http://www.w3.org/1999/xlink" width="1024" zoomAndPan="magnify" viewBox="0 0 768 576" height="768" preserveAspectRatio="xMidYMid meet" version="1.0"><defs><filter x="0%" y="0%" width="100%" height="100%" id="fcd5fbe637"><feColorMatrix values="0 0 0 0 1 0 0 0 0 1 0 0 0 0 1 0 0 0 1 0" color-interpolation-filters="sRGB"/></filter><g/><mask id="0cd2db7f7e"><g filter="url(#fcd5fbe637)"><rect x="-76.8" width="921.6" fill="#000000" y="-57.6" height="691.2" fill-opacity="0.4"/></g></mask><clipPath id="771ac1a58b"><rect x="0" width="434" y="0" height="278"/></clipPath></defs><rect x="-76.8" width="921.6" fill="#ffffff" y="-57.6" height="691.2" fill-opacity="1"/><rect x="-76.8" width="921.6" fill="#ffffff" y="-57.6" height="691.2" fill-opacity="1"/><rect x="-76.8" width="921.6" fill="#e49b89" y="-57.6" height="691.2" fill-opacity="1"/><g mask="url(#0cd2db7f7e)"><g transform="matrix(1, 0, 0, 1, 167, 148)"><g clip-path="url(#771ac1a58b)"><g fill="#ffffff" fill-opacity="1"><g transform="translate(1.231108, 112.163127)"><g><path d="M 86.765625 -75 C 86.921875 -75 87 -74.757812 87 -74.28125 C 87 -73.800781 86.921875 -73.5625 86.765625 -73.5625 C 83.554688 -73.5625 81.03125 -72.300781 79.1875 -69.78125 C 77.351562 -67.257812 76.4375 -63.878906 76.4375 -59.640625 L 76.4375 1.796875 C 76.4375 2.035156 76.253906 2.195312 75.890625 2.28125 C 75.535156 2.363281 75.28125 2.320312 75.125 2.15625 L 18.84375 -61.921875 L 18.84375 -15.234375 C 18.84375 -10.992188 19.722656 -7.632812 21.484375 -5.15625 C 23.242188 -2.675781 25.679688 -1.4375 28.796875 -1.4375 C 28.960938 -1.4375 29.046875 -1.195312 29.046875 -0.71875 C 29.046875 -0.238281 28.960938 0 28.796875 0 C 26.554688 0 24.835938 -0.0390625 23.640625 -0.125 L 17.15625 -0.234375 L 9.71875 -0.125 C 8.363281 -0.0390625 6.40625 0 3.84375 0 C 3.601562 0 3.484375 -0.238281 3.484375 -0.71875 C 3.484375 -1.195312 3.601562 -1.4375 3.84375 -1.4375 C 7.363281 -1.4375 10.140625 -2.675781 12.171875 -5.15625 C 14.210938 -7.632812 15.234375 -10.992188 15.234375 -15.234375 L 15.234375 -66 C 12.597656 -68.875 10.335938 -70.851562 8.453125 -71.9375 C 6.578125 -73.019531 4.640625 -73.5625 2.640625 -73.5625 C 2.484375 -73.5625 2.40625 -73.800781 2.40625 -74.28125 C 2.40625 -74.757812 2.484375 -75 2.640625 -75 L 7.6875 -74.875 C 8.71875 -74.800781 10.234375 -74.765625 12.234375 -74.765625 L 21.359375 -74.875 C 22.484375 -74.957031 23.84375 -75 25.4375 -75 C 26.082031 -75 26.5625 -74.835938 26.875 -74.515625 C 27.195312 -74.203125 27.757812 -73.523438 28.5625 -72.484375 C 29.914062 -70.640625 30.875 -69.398438 31.4375 -68.765625 L 72.953125 -20.875 L 72.953125 -59.640625 C 72.953125 -63.960938 72.070312 -67.363281 70.3125 -69.84375 C 68.5625 -72.320312 66.125 -73.5625 63 -73.5625 C 62.84375 -73.5625 62.765625 -73.800781 62.765625 -74.28125 C 62.765625 -74.757812 62.84375 -75 63 -75 L 68.15625 -74.875 C 70.71875 -74.71875 72.878906 -74.640625 74.640625 -74.640625 C 76.242188 -74.640625 78.484375 -74.71875 81.359375 -74.875 Z M 86.765625 -75 "/></g></g></g><g fill="#ffffff" fill-opacity="1"><g transform="translate(89.411978, 112.163127)"><g><path d="M 86.046875 -1.4375 C 86.441406 -1.4375 86.640625 -1.195312 86.640625 -0.71875 C 86.640625 -0.238281 86.441406 0 86.046875 0 C 84.441406 0 81.957031 -0.078125 78.59375 -0.234375 C 75.070312 -0.398438 72.554688 -0.484375 71.046875 -0.484375 C 69.046875 -0.484375 66.601562 -0.398438 63.71875 -0.234375 C 61 -0.078125 58.835938 0 57.234375 0 C 56.921875 0 56.765625 -0.238281 56.765625 -0.71875 C 56.765625 -1.195312 56.921875 -1.4375 57.234375 -1.4375 C 59.316406 -1.4375 60.816406 -1.65625 61.734375 -2.09375 C 62.660156 -2.539062 63.125 -3.320312 63.125 -4.4375 C 63.125 -5.800781 62.320312 -8.082031 60.71875 -11.28125 L 52.5625 -27.484375 L 23.046875 -27.484375 L 18.359375 -17.046875 C 17.316406 -14.722656 16.796875 -12.5625 16.796875 -10.5625 C 16.796875 -7.675781 17.816406 -5.429688 19.859375 -3.828125 C 21.898438 -2.234375 24.640625 -1.4375 28.078125 -1.4375 C 28.484375 -1.4375 28.6875 -1.195312 28.6875 -0.71875 C 28.6875 -0.238281 28.484375 0 28.078125 0 C 26.640625 0 24.5625 -0.078125 21.84375 -0.234375 C 18.800781 -0.398438 16.160156 -0.484375 13.921875 -0.484375 C 11.765625 -0.484375 9.164062 -0.398438 6.125 -0.234375 C 3.40625 -0.078125 1.203125 0 -0.484375 0 C -0.796875 0 -0.953125 -0.238281 -0.953125 -0.71875 C -0.953125 -1.195312 -0.796875 -1.4375 -0.484375 -1.4375 C 1.753906 -1.4375 3.632812 -1.894531 5.15625 -2.8125 C 6.675781 -3.738281 8.195312 -5.378906 9.71875 -7.734375 C 11.238281 -10.097656 13.039062 -13.597656 15.125 -18.234375 L 41.15625 -75.484375 C 41.320312 -75.722656 41.679688 -75.84375 42.234375 -75.84375 C 42.878906 -75.84375 43.238281 -75.722656 43.3125 -75.484375 L 73.3125 -16.4375 C 76.113281 -10.757812 78.4375 -6.835938 80.28125 -4.671875 C 82.125 -2.515625 84.046875 -1.4375 86.046875 -1.4375 Z M 24.59375 -30.84375 L 50.765625 -30.84375 L 36.953125 -58.203125 Z M 24.59375 -30.84375 "/></g></g></g><g fill="#ffffff" fill-opacity="1"><g transform="translate(175.313342, 112.163127)"><g><path d="M 25.921875 -10.203125 C 25.921875 -7.640625 26.195312 -5.773438 26.75 -4.609375 C 27.3125 -3.453125 28.375 -2.632812 29.9375 -2.15625 C 31.5 -1.675781 34 -1.4375 37.4375 -1.4375 C 37.675781 -1.4375 37.796875 -1.195312 37.796875 -0.71875 C 37.796875 -0.238281 37.675781 0 37.4375 0 C 34.15625 0 31.597656 -0.0390625 29.765625 -0.125 L 19.3125 -0.234375 L 10.5625 -0.125 C 8.957031 -0.0390625 6.796875 0 4.078125 0 C 3.835938 0 3.71875 -0.238281 3.71875 -0.71875 C 3.71875 -1.195312 3.835938 -1.4375 4.078125 -1.4375 C 6.640625 -1.4375 8.5 -1.632812 9.65625 -2.03125 C 10.820312 -2.4375 11.601562 -3.21875 12 -4.375 C 12.394531 -5.539062 12.59375 -7.320312 12.59375 -9.71875 L 12.59375 -65.28125 C 12.59375 -67.675781 12.394531 -69.429688 12 -70.546875 C 11.601562 -71.671875 10.800781 -72.453125 9.59375 -72.890625 C 8.394531 -73.335938 6.554688 -73.5625 4.078125 -73.5625 C 3.835938 -73.5625 3.71875 -73.800781 3.71875 -74.28125 C 3.71875 -74.757812 3.835938 -75 4.078125 -75 L 10.4375 -74.875 C 14.113281 -74.71875 17.035156 -74.640625 19.203125 -74.640625 C 21.117188 -74.640625 23.398438 -74.757812 26.046875 -75 C 27.078125 -75.082031 28.394531 -75.160156 30 -75.234375 C 31.601562 -75.316406 33.441406 -75.359375 35.515625 -75.359375 C 43.679688 -75.359375 50.125 -73.65625 54.84375 -70.25 C 59.5625 -66.851562 61.921875 -61.597656 61.921875 -54.484375 C 61.921875 -49.523438 60.640625 -45.320312 58.078125 -41.875 C 55.515625 -38.4375 52.210938 -35.835938 48.171875 -34.078125 C 44.140625 -32.316406 40.003906 -31.4375 35.765625 -31.4375 C 33.597656 -31.4375 31.71875 -31.640625 30.125 -32.046875 C 29.957031 -32.046875 29.875 -32.242188 29.875 -32.640625 C 29.875 -32.878906 29.929688 -33.117188 30.046875 -33.359375 C 30.171875 -33.597656 30.316406 -33.675781 30.484375 -33.59375 C 31.679688 -33.28125 33.039062 -33.125 34.5625 -33.125 C 38.238281 -33.125 41.296875 -34.84375 43.734375 -38.28125 C 46.179688 -41.71875 47.40625 -46.597656 47.40625 -52.921875 C 47.40625 -59.242188 46.0625 -64.125 43.375 -67.5625 C 40.695312 -71 36.800781 -72.71875 31.6875 -72.71875 C 29.4375 -72.71875 27.910156 -72.195312 27.109375 -71.15625 C 26.316406 -70.113281 25.921875 -68.078125 25.921875 -65.046875 Z M 25.921875 -10.203125 "/></g></g></g><g fill="#ffffff" fill-opacity="1"><g transform="translate(241.658937, 112.163127)"><g><path d="M 26.640625 -72.234375 C 17.117188 -72.234375 10.28125 -66.035156 6.125 -53.640625 C 6.039062 -53.398438 5.796875 -53.300781 5.390625 -53.34375 C 4.992188 -53.382812 4.796875 -53.523438 4.796875 -53.765625 C 5.117188 -56.960938 5.476562 -61.097656 5.875 -66.171875 C 6.28125 -71.253906 6.484375 -75.078125 6.484375 -77.640625 C 6.484375 -78.035156 6.703125 -78.234375 7.140625 -78.234375 C 7.578125 -78.234375 7.796875 -78.035156 7.796875 -77.640625 C 7.796875 -75.878906 10.078125 -75 14.640625 -75 C 21.515625 -74.757812 29.554688 -74.640625 38.765625 -74.640625 C 43.484375 -74.640625 48.484375 -74.71875 53.765625 -74.875 L 61.921875 -75 C 64.960938 -75 67.179688 -75.195312 68.578125 -75.59375 C 69.984375 -76 70.882812 -76.800781 71.28125 -78 C 71.363281 -78.320312 71.625 -78.484375 72.0625 -78.484375 C 72.5 -78.484375 72.71875 -78.320312 72.71875 -78 C 72.476562 -75.601562 72.21875 -71.765625 71.9375 -66.484375 C 71.65625 -61.203125 71.515625 -56.960938 71.515625 -53.765625 C 71.515625 -53.523438 71.3125 -53.40625 70.90625 -53.40625 C 70.507812 -53.40625 70.273438 -53.523438 70.203125 -53.765625 C 69.003906 -59.921875 66.765625 -64.535156 63.484375 -67.609375 C 60.203125 -70.691406 56.160156 -72.234375 51.359375 -72.234375 C 49.035156 -72.234375 47.492188 -71.734375 46.734375 -70.734375 C 45.972656 -69.734375 45.59375 -67.835938 45.59375 -65.046875 L 45.59375 -9.71875 C 45.59375 -7.238281 45.832031 -5.4375 46.3125 -4.3125 C 46.800781 -3.195312 47.722656 -2.4375 49.078125 -2.03125 C 50.441406 -1.632812 52.601562 -1.4375 55.5625 -1.4375 C 55.800781 -1.4375 55.921875 -1.195312 55.921875 -0.71875 C 55.921875 -0.238281 55.800781 0 55.5625 0 C 52.675781 0 50.394531 -0.0390625 48.71875 -0.125 L 38.765625 -0.234375 L 29.046875 -0.125 C 27.359375 -0.0390625 25.035156 0 22.078125 0 C 21.835938 0 21.71875 -0.238281 21.71875 -0.71875 C 21.71875 -1.195312 21.835938 -1.4375 22.078125 -1.4375 C 24.960938 -1.4375 27.101562 -1.632812 28.5 -2.03125 C 29.894531 -2.4375 30.851562 -3.21875 31.375 -4.375 C 31.894531 -5.539062 32.15625 -7.320312 32.15625 -9.71875 L 32.15625 -65.28125 C 32.15625 -68 31.796875 -69.835938 31.078125 -70.796875 C 30.359375 -71.753906 28.878906 -72.234375 26.640625 -72.234375 Z M 26.640625 -72.234375 "/></g></g></g><g fill="#ffffff" fill-opacity="1"><g transform="translate(318.802187, 112.163127)"><g><path d="M 86.046875 -1.4375 C 86.441406 -1.4375 86.640625 -1.195312 86.640625 -0.71875 C 86.640625 -0.238281 86.441406 0 86.046875 0 C 84.441406 0 81.957031 -0.078125 78.59375 -0.234375 C 75.070312 -0.398438 72.554688 -0.484375 71.046875 -0.484375 C 69.046875 -0.484375 66.601562 -0.398438 63.71875 -0.234375 C 61 -0.078125 58.835938 0 57.234375 0 C 56.921875 0 56.765625 -0.238281 56.765625 -0.71875 C 56.765625 -1.195312 56.921875 -1.4375 57.234375 -1.4375 C 59.316406 -1.4375 60.816406 -1.65625 61.734375 -2.09375 C 62.660156 -2.539062 63.125 -3.320312 63.125 -4.4375 C 63.125 -5.800781 62.320312 -8.082031 60.71875 -11.28125 L 52.5625 -27.484375 L 23.046875 -27.484375 L 18.359375 -17.046875 C 17.316406 -14.722656 16.796875 -12.5625 16.796875 -10.5625 C 16.796875 -7.675781 17.816406 -5.429688 19.859375 -3.828125 C 21.898438 -2.234375 24.640625 -1.4375 28.078125 -1.4375 C 28.484375 -1.4375 28.6875 -1.195312 28.6875 -0.71875 C 28.6875 -0.238281 28.484375 0 28.078125 0 C 26.640625 0 24.5625 -0.078125 21.84375 -0.234375 C 18.800781 -0.398438 16.160156 -0.484375 13.921875 -0.484375 C 11.765625 -0.484375 9.164062 -0.398438 6.125 -0.234375 C 3.40625 -0.078125 1.203125 0 -0.484375 0 C -0.796875 0 -0.953125 -0.238281 -0.953125 -0.71875 C -0.953125 -1.195312 -0.796875 -1.4375 -0.484375 -1.4375 C 1.753906 -1.4375 3.632812 -1.894531 5.15625 -2.8125 C 6.675781 -3.738281 8.195312 -5.378906 9.71875 -7.734375 C 11.238281 -10.097656 13.039062 -13.597656 15.125 -18.234375 L 41.15625 -75.484375 C 41.320312 -75.722656 41.679688 -75.84375 42.234375 -75.84375 C 42.878906 -75.84375 43.238281 -75.722656 43.3125 -75.484375 L 73.3125 -16.4375 C 76.113281 -10.757812 78.4375 -6.835938 80.28125 -4.671875 C 82.125 -2.515625 84.046875 -1.4375 86.046875 -1.4375 Z M 24.59375 -30.84375 L 50.765625 -30.84375 L 36.953125 -58.203125 Z M 24.59375 -30.84375 "/></g></g></g><g fill="#ffffff" fill-opacity="1"><g transform="translate(404.696733, 112.163127)"><g/></g></g><g fill="#ffffff" fill-opacity="1"><g transform="translate(84.355127, 243.615064)"><g><path d="M 87.84375 -1.4375 C 88.082031 -1.4375 88.203125 -1.195312 88.203125 -0.71875 C 88.203125 -0.238281 88.082031 0 87.84375 0 C 85.039062 0 82.800781 -0.0390625 81.125 -0.125 L 71.875 -0.234375 L 61.078125 -0.125 C 59.640625 -0.0390625 57.679688 0 55.203125 0 C 54.960938 0 54.84375 -0.238281 54.84375 -0.71875 C 54.84375 -1.195312 54.960938 -1.4375 55.203125 -1.4375 C 58.160156 -1.4375 60.316406 -1.632812 61.671875 -2.03125 C 63.035156 -2.4375 63.957031 -3.195312 64.4375 -4.3125 C 64.914062 -5.4375 65.15625 -7.238281 65.15625 -9.71875 L 65.15625 -37.3125 L 26.40625 -37.3125 L 26.40625 -9.71875 C 26.40625 -7.320312 26.644531 -5.539062 27.125 -4.375 C 27.601562 -3.21875 28.519531 -2.4375 29.875 -2.03125 C 31.238281 -1.632812 33.398438 -1.4375 36.359375 -1.4375 C 36.515625 -1.4375 36.59375 -1.195312 36.59375 -0.71875 C 36.59375 -0.238281 36.515625 0 36.359375 0 C 33.554688 0 31.316406 -0.0390625 29.640625 -0.125 L 19.203125 -0.234375 L 10.203125 -0.125 C 8.597656 -0.0390625 6.394531 0 3.59375 0 C 3.4375 0 3.359375 -0.238281 3.359375 -0.71875 C 3.359375 -1.195312 3.4375 -1.4375 3.59375 -1.4375 C 6.394531 -1.4375 8.4375 -1.632812 9.71875 -2.03125 C 11 -2.4375 11.878906 -3.21875 12.359375 -4.375 C 12.835938 -5.539062 13.078125 -7.320312 13.078125 -9.71875 L 13.078125 -65.28125 C 13.078125 -67.675781 12.835938 -69.429688 12.359375 -70.546875 C 11.878906 -71.671875 11.019531 -72.453125 9.78125 -72.890625 C 8.539062 -73.335938 6.5625 -73.5625 3.84375 -73.5625 C 3.601562 -73.5625 3.484375 -73.800781 3.484375 -74.28125 C 3.484375 -74.757812 3.601562 -75 3.84375 -75 L 10.3125 -74.875 C 14 -74.71875 16.960938 -74.640625 19.203125 -74.640625 C 22.242188 -74.640625 25.765625 -74.71875 29.765625 -74.875 L 36.359375 -75 C 36.515625 -75 36.59375 -74.757812 36.59375 -74.28125 C 36.59375 -73.800781 36.515625 -73.5625 36.359375 -73.5625 C 33.484375 -73.5625 31.363281 -73.320312 30 -72.84375 C 28.632812 -72.363281 27.691406 -71.539062 27.171875 -70.375 C 26.660156 -69.21875 26.40625 -67.441406 26.40625 -65.046875 L 26.40625 -40.6875 L 65.15625 -40.6875 L 65.15625 -65.046875 C 65.15625 -67.441406 64.914062 -69.21875 64.4375 -70.375 C 63.957031 -71.539062 63.035156 -72.363281 61.671875 -72.84375 C 60.316406 -73.320312 58.160156 -73.5625 55.203125 -73.5625 C 54.960938 -73.5625 54.84375 -73.800781 54.84375 -74.28125 C 54.84375 -74.757812 54.960938 -75 55.203125 -75 L 61.078125 -74.875 C 65.078125 -74.71875 68.675781 -74.640625 71.875 -74.640625 C 74.039062 -74.640625 77.125 -74.71875 81.125 -74.875 L 87.84375 -75 C 88.082031 -75 88.203125 -74.757812 88.203125 -74.28125 C 88.203125 -73.800781 88.082031 -73.5625 87.84375 -73.5625 C 85.125 -73.5625 83.101562 -73.335938 81.78125 -72.890625 C 80.457031 -72.453125 79.578125 -71.671875 79.140625 -70.546875 C 78.703125 -69.429688 78.484375 -67.675781 78.484375 -65.28125 L 78.484375 -9.71875 C 78.484375 -7.320312 78.703125 -5.539062 79.140625 -4.375 C 79.578125 -3.21875 80.4375 -2.4375 81.71875 -2.03125 C 83 -1.632812 85.039062 -1.4375 87.84375 -1.4375 Z M 87.84375 -1.4375 "/></g></g></g><g fill="#ffffff" fill-opacity="1"><g transform="translate(176.01523, 243.615064)"><g><path d="M 86.046875 -1.4375 C 86.441406 -1.4375 86.640625 -1.195312 86.640625 -0.71875 C 86.640625 -0.238281 86.441406 0 86.046875 0 C 84.441406 0 81.957031 -0.078125 78.59375 -0.234375 C 75.070312 -0.398438 72.554688 -0.484375 71.046875 -0.484375 C 69.046875 -0.484375 66.601562 -0.398438 63.71875 -0.234375 C 61 -0.078125 58.835938 0 57.234375 0 C 56.921875 0 56.765625 -0.238281 56.765625 -0.71875 C 56.765625 -1.195312 56.921875 -1.4375 57.234375 -1.4375 C 59.316406 -1.4375 60.816406 -1.65625 61.734375 -2.09375 C 62.660156 -2.539062 63.125 -3.320312 63.125 -4.4375 C 63.125 -5.800781 62.320312 -8.082031 60.71875 -11.28125 L 52.5625 -27.484375 L 23.046875 -27.484375 L 18.359375 -17.046875 C 17.316406 -14.722656 16.796875 -12.5625 16.796875 -10.5625 C 16.796875 -7.675781 17.816406 -5.429688 19.859375 -3.828125 C 21.898438 -2.234375 24.640625 -1.4375 28.078125 -1.4375 C 28.484375 -1.4375 28.6875 -1.195312 28.6875 -0.71875 C 28.6875 -0.238281 28.484375 0 28.078125 0 C 26.640625 0 24.5625 -0.078125 21.84375 -0.234375 C 18.800781 -0.398438 16.160156 -0.484375 13.921875 -0.484375 C 11.765625 -0.484375 9.164062 -0.398438 6.125 -0.234375 C 3.40625 -0.078125 1.203125 0 -0.484375 0 C -0.796875 0 -0.953125 -0.238281 -0.953125 -0.71875 C -0.953125 -1.195312 -0.796875 -1.4375 -0.484375 -1.4375 C 1.753906 -1.4375 3.632812 -1.894531 5.15625 -2.8125 C 6.675781 -3.738281 8.195312 -5.378906 9.71875 -7.734375 C 11.238281 -10.097656 13.039062 -13.597656 15.125 -18.234375 L 41.15625 -75.484375 C 41.320312 -75.722656 41.679688 -75.84375 42.234375 -75.84375 C 42.878906 -75.84375 43.238281 -75.722656 43.3125 -75.484375 L 73.3125 -16.4375 C 76.113281 -10.757812 78.4375 -6.835938 80.28125 -4.671875 C 82.125 -2.515625 84.046875 -1.4375 86.046875 -1.4375 Z M 24.59375 -30.84375 L 50.765625 -30.84375 L 36.953125 -58.203125 Z M 24.59375 -30.84375 "/></g></g></g><g fill="#ffffff" fill-opacity="1"><g transform="translate(261.916594, 243.615064)"><g><path d="M 50.515625 1.4375 C 41.398438 1.4375 33.484375 -0.257812 26.765625 -3.65625 C 20.046875 -7.0625 14.882812 -11.679688 11.28125 -17.515625 C 7.675781 -23.359375 5.875 -29.835938 5.875 -36.953125 C 5.875 -44.554688 7.894531 -51.359375 11.9375 -57.359375 C 15.976562 -63.359375 21.554688 -68.015625 28.671875 -71.328125 C 35.796875 -74.648438 43.800781 -76.3125 52.6875 -76.3125 C 56.519531 -76.3125 60.351562 -76.007812 64.1875 -75.40625 C 68.03125 -74.8125 71.113281 -74.035156 73.4375 -73.078125 C 74.320312 -72.753906 74.820312 -72.492188 74.9375 -72.296875 C 75.0625 -72.097656 75.160156 -71.4375 75.234375 -70.3125 L 76.796875 -53.640625 C 76.796875 -53.398438 76.578125 -53.238281 76.140625 -53.15625 C 75.703125 -53.082031 75.441406 -53.203125 75.359375 -53.515625 C 74.316406 -56.160156 72.632812 -59.039062 70.3125 -62.15625 C 68 -65.28125 64.960938 -68 61.203125 -70.3125 C 57.441406 -72.632812 53.082031 -73.796875 48.125 -73.796875 C 43 -73.796875 38.316406 -72.394531 34.078125 -69.59375 C 29.835938 -66.800781 26.5 -62.800781 24.0625 -57.59375 C 21.625 -52.394531 20.40625 -46.359375 20.40625 -39.484375 C 20.40625 -31.960938 21.820312 -25.238281 24.65625 -19.3125 C 27.5 -13.394531 31.441406 -8.796875 36.484375 -5.515625 C 41.523438 -2.234375 47.203125 -0.59375 53.515625 -0.59375 C 56.796875 -0.59375 59.316406 -0.953125 61.078125 -1.671875 C 62.835938 -2.398438 64.117188 -3.800781 64.921875 -5.875 C 65.722656 -7.957031 66.125 -11.039062 66.125 -15.125 C 66.125 -19.28125 65.882812 -22.175781 65.40625 -23.8125 C 64.925781 -25.457031 63.90625 -26.554688 62.34375 -27.109375 C 60.78125 -27.671875 58.039062 -27.953125 54.125 -27.953125 C 53.644531 -27.953125 53.40625 -28.273438 53.40625 -28.921875 C 53.40625 -29.160156 53.460938 -29.378906 53.578125 -29.578125 C 53.703125 -29.773438 53.84375 -29.875 54 -29.875 C 60.800781 -29.476562 66.320312 -29.28125 70.5625 -29.28125 C 74.644531 -29.28125 78.882812 -29.398438 83.28125 -29.640625 C 83.601562 -29.640625 83.78125 -29.359375 83.8125 -28.796875 C 83.851562 -28.234375 83.675781 -27.953125 83.28125 -27.953125 C 81.84375 -28.035156 80.820312 -27.773438 80.21875 -27.171875 C 79.613281 -26.578125 79.234375 -25.359375 79.078125 -23.515625 C 78.921875 -21.679688 78.84375 -18.484375 78.84375 -13.921875 C 78.84375 -10.316406 78.984375 -7.753906 79.265625 -6.234375 C 79.546875 -4.710938 79.6875 -3.753906 79.6875 -3.359375 C 79.6875 -2.878906 79.601562 -2.554688 79.4375 -2.390625 C 79.28125 -2.234375 78.921875 -2.078125 78.359375 -1.921875 C 68.035156 0.316406 58.753906 1.4375 50.515625 1.4375 Z M 50.515625 1.4375 "/></g></g></g></g></g></g><g fill="#000000" fill-opacity="1"><g transform="translate(143.068313, 506.294256)"><g><path d="M 37.4375 -15.960938 C 38.277344 -15.960938 38.878906 -16.199219 39.359375 -16.558594 C 40.078125 -17.039062 40.679688 -17.640625 41.160156 -18.359375 C 44.519531 -22.558594 46.800781 -28.078125 48.839844 -33 C 49.558594 -34.800781 50.277344 -36.597656 51.117188 -38.398438 C 51.839844 -40.078125 52.558594 -41.878906 53.277344 -43.679688 C 53.757812 -44.757812 54.117188 -45.960938 54.480469 -47.039062 C 54.839844 -47.640625 54.117188 -48.480469 53.519531 -48.480469 C 53.160156 -48.597656 52.800781 -48.359375 52.4375 -47.757812 C 52.320312 -47.398438 52.078125 -47.039062 51.957031 -46.679688 C 51.839844 -46.320312 51.597656 -45.839844 51.480469 -45.480469 C 50.398438 -42.960938 49.320312 -40.4375 48.359375 -37.917969 C 47.277344 -35.398438 46.320312 -32.878906 45.238281 -30.359375 C 43.4375 -26.640625 41.878906 -23.28125 39.597656 -19.917969 C 39.238281 -19.558594 39 -19.078125 38.757812 -18.601562 C 38.398438 -18 38.039062 -17.757812 37.4375 -17.878906 C 36.839844 -18 36.480469 -18.480469 36.359375 -19.078125 C 36.238281 -19.679688 36.121094 -20.160156 36 -20.757812 C 34.679688 -25.558594 34.558594 -30.359375 34.679688 -35.277344 C 34.800781 -45 36.121094 -54.480469 38.039062 -64.078125 C 38.398438 -66.117188 38.878906 -68.160156 39.359375 -70.199219 C 39.839844 -72.117188 40.320312 -74.160156 40.679688 -76.199219 C 40.800781 -76.558594 40.917969 -77.039062 40.917969 -77.519531 C 40.917969 -78 40.917969 -78.476562 41.039062 -78.957031 C 41.039062 -79.679688 40.679688 -80.398438 40.078125 -81.238281 C 39.839844 -81.476562 39.597656 -81.597656 39.238281 -81.597656 C 39.121094 -81.597656 38.878906 -81.476562 38.519531 -81.359375 C 35.277344 -79.078125 30.121094 -66.359375 28.800781 -62.277344 C 25.917969 -53.640625 24 -44.878906 22.078125 -36.121094 L 20.28125 -27.839844 C 20.160156 -27.238281 20.039062 -26.640625 19.199219 -26.28125 C 19.078125 -27 18.960938 -27.71875 18.839844 -28.4375 C 18.71875 -29.039062 18.71875 -29.757812 18.601562 -30.359375 C 18.238281 -35.519531 18.71875 -40.679688 19.320312 -45.839844 C 20.160156 -53.160156 21.71875 -60.480469 23.519531 -67.679688 C 24.597656 -72.117188 25.679688 -76.4375 26.640625 -81.117188 C 27.121094 -83.039062 27.597656 -84.957031 27.597656 -87.238281 C 27.597656 -88.078125 27.597656 -88.558594 27.121094 -89.398438 C 26.757812 -90 26.28125 -90.238281 25.917969 -90.238281 C 25.558594 -90.238281 25.199219 -90 24.839844 -89.636719 C 24.238281 -88.796875 23.757812 -88.199219 23.28125 -87.359375 C 15.121094 -73.320312 10.320312 -53.039062 7.441406 -37.078125 C 7.078125 -35.039062 6.71875 -33.121094 6.359375 -31.199219 C 6 -29.28125 5.640625 -27.359375 5.160156 -25.441406 C 5.039062 -24.839844 4.917969 -24.238281 4.078125 -23.878906 C 3.601562 -24.960938 3.359375 -25.917969 3.238281 -27 C 3.121094 -28.078125 2.878906 -29.160156 2.761719 -30.238281 C 2.160156 -40.199219 2.878906 -50.398438 4.800781 -60.839844 C 5.878906 -66.480469 7.320312 -72 9.121094 -77.636719 L 11.640625 -85.796875 C 12 -86.636719 12.238281 -87.117188 11.757812 -87.957031 C 11.640625 -88.078125 11.398438 -88.316406 11.039062 -88.4375 C 10.800781 -88.4375 10.679688 -88.316406 10.679688 -88.078125 L 9.960938 -86.636719 C 5.761719 -75 2.28125 -63.238281 0.960938 -50.878906 C 0.359375 -44.757812 -0.238281 -38.519531 0.121094 -32.398438 C 0.121094 -30 0.839844 -24 2.28125 -21.960938 C 2.878906 -21.238281 3.601562 -20.878906 4.441406 -20.878906 C 5.519531 -20.878906 6.238281 -21.359375 6.71875 -22.320312 C 7.199219 -23.398438 7.558594 -24.480469 7.800781 -25.800781 C 8.160156 -27.839844 8.640625 -29.757812 9 -31.800781 C 9.359375 -33.71875 9.71875 -35.640625 10.078125 -37.679688 C 12.238281 -51.359375 16.917969 -71.039062 23.640625 -83.398438 C 24 -84.238281 24.238281 -85.199219 25.320312 -85.679688 C 25.441406 -84.839844 25.441406 -84.117188 25.199219 -83.519531 C 24.960938 -82.796875 24.71875 -82.078125 24.597656 -81.476562 C 23.878906 -78.476562 23.160156 -75.359375 22.441406 -72.359375 C 21.597656 -69.359375 20.878906 -66.238281 20.160156 -63.238281 C 17.878906 -54.238281 16.558594 -45.117188 16.199219 -35.878906 C 16.078125 -33.238281 16.199219 -30.480469 16.558594 -27.71875 C 16.558594 -25.320312 17.398438 -23.039062 20.160156 -23.039062 C 20.878906 -23.160156 21.359375 -23.640625 21.71875 -24.480469 C 21.960938 -25.320312 22.199219 -26.039062 22.441406 -26.757812 C 22.679688 -27.480469 22.917969 -28.199219 23.039062 -29.039062 C 23.398438 -30.960938 23.878906 -32.878906 24.238281 -34.800781 C 24.597656 -36.597656 24.960938 -38.519531 25.320312 -40.4375 C 28.078125 -52.4375 30.839844 -65.160156 36.960938 -75.839844 C 37.4375 -76.679688 37.800781 -77.519531 38.640625 -78 C 38.757812 -77.636719 38.878906 -77.519531 38.878906 -77.398438 C 38.878906 -77.039062 38.757812 -76.4375 38.640625 -75.839844 C 36.597656 -67.796875 34.800781 -60.238281 33.71875 -52.078125 C 32.640625 -44.878906 31.917969 -37.917969 32.28125 -30.71875 C 32.398438 -26.519531 32.757812 -21.597656 34.558594 -17.757812 C 35.160156 -16.558594 36.121094 -15.960938 37.4375 -15.960938 Z M 37.4375 -15.960938 "/></g></g></g><g fill="#000000" fill-opacity="1"><g transform="translate(194.787175, 506.294256)"><g><path d="M 11.28125 -27.71875 C 11.640625 -27.71875 12.121094 -27.839844 12.601562 -28.078125 C 13.679688 -28.558594 14.640625 -29.28125 15.480469 -30.121094 C 16.078125 -30.71875 16.679688 -31.4375 17.28125 -32.039062 C 17.878906 -32.640625 18.480469 -33.238281 19.078125 -33.839844 C 20.878906 -35.878906 22.679688 -37.917969 24.238281 -40.078125 C 25.800781 -42.238281 27.359375 -44.398438 28.917969 -46.4375 C 29.160156 -46.800781 29.28125 -47.039062 29.398438 -47.398438 C 29.519531 -47.757812 29.519531 -48.117188 29.160156 -48.480469 C 29.039062 -48.597656 28.917969 -48.597656 28.800781 -48.597656 C 28.558594 -48.597656 28.320312 -48.480469 28.199219 -48.359375 L 24.960938 -44.398438 C 23.640625 -42.71875 22.441406 -41.039062 21.238281 -39.480469 C 19.917969 -37.800781 18.601562 -36.238281 17.28125 -34.679688 C 16.558594 -33.71875 11.878906 -29.28125 11.039062 -29.28125 C 10.800781 -29.28125 10.679688 -29.28125 10.558594 -29.398438 C 9.601562 -29.757812 9.71875 -30.71875 9.71875 -31.558594 C 9.601562 -33.960938 9.960938 -36.359375 10.441406 -38.757812 C 11.519531 -44.398438 13.558594 -49.558594 16.078125 -54.71875 C 16.441406 -55.4375 16.917969 -56.160156 17.28125 -56.878906 C 17.640625 -57.597656 18.121094 -58.320312 18.480469 -59.160156 C 18.839844 -60 18.960938 -60.71875 18.601562 -61.320312 C 18.480469 -61.796875 17.878906 -62.039062 17.519531 -62.039062 C 17.28125 -62.039062 17.160156 -62.039062 17.039062 -61.917969 C 16.199219 -61.320312 15.601562 -60.839844 15 -60 C 14.398438 -59.160156 13.800781 -58.4375 13.199219 -57.71875 C 12.601562 -56.878906 11.878906 -56.160156 11.28125 -55.320312 C 10.800781 -54.839844 10.441406 -54.597656 10.078125 -54.597656 L 9.601562 -54.71875 C 9.359375 -54.839844 9 -54.839844 8.519531 -54.839844 C 4.800781 -54.839844 1.441406 -49.199219 0.359375 -45.960938 C 0 -45.117188 0 -44.277344 0.121094 -43.199219 C 0.238281 -42 0.960938 -41.398438 2.039062 -41.398438 C 2.519531 -41.398438 3 -41.519531 3.359375 -41.878906 C 3.960938 -42.480469 4.558594 -43.078125 5.160156 -43.800781 C 5.761719 -44.519531 6.238281 -45.238281 6.839844 -45.960938 C 7.800781 -47.277344 8.761719 -48.480469 9.71875 -49.800781 C 10.558594 -51.117188 11.519531 -52.320312 12.480469 -53.640625 C 12.71875 -54.238281 13.078125 -54.597656 13.558594 -54.957031 C 13.679688 -55.078125 13.800781 -55.199219 13.917969 -55.199219 C 14.039062 -55.199219 14.160156 -55.078125 14.519531 -54.957031 C 12.359375 -53.519531 9.480469 -42.359375 8.878906 -39.839844 C 8.28125 -37.320312 7.917969 -34.800781 8.039062 -32.28125 C 8.160156 -31.800781 8.160156 -31.320312 8.28125 -30.839844 C 8.28125 -30.359375 8.398438 -29.878906 8.640625 -29.519531 C 9.238281 -28.320312 10.078125 -27.71875 11.28125 -27.71875 Z M 2.28125 -43.917969 C 2.160156 -44.039062 2.039062 -44.277344 1.921875 -44.398438 L 2.039062 -44.878906 C 2.878906 -48.238281 5.160156 -51.480469 8.398438 -53.039062 C 8.640625 -53.160156 8.878906 -53.039062 9 -52.917969 C 9 -52.558594 9 -52.4375 9 -52.4375 L 6.839844 -49.199219 C 5.519531 -47.640625 4.320312 -45.960938 3 -44.398438 C 2.878906 -44.277344 2.878906 -44.160156 2.761719 -44.160156 C 2.640625 -44.160156 2.398438 -44.039062 2.28125 -43.917969 Z M 2.28125 -43.917969 "/></g></g></g><g fill="#000000" fill-opacity="1"><g transform="translate(221.426587, 506.294256)"><g><path d="M 6.121094 -13.441406 C 6.601562 -13.441406 6.960938 -13.558594 7.441406 -13.679688 C 9.480469 -14.398438 11.160156 -15.71875 12.238281 -17.757812 C 12.601562 -18.359375 12.480469 -18.839844 11.757812 -19.199219 C 11.640625 -19.320312 11.519531 -19.441406 11.398438 -19.441406 C 11.160156 -19.441406 10.917969 -19.199219 10.679688 -18.839844 C 9.839844 -17.757812 9 -16.679688 7.679688 -15.839844 C 6.601562 -15.238281 5.761719 -15 5.398438 -15 C 4.558594 -15 3.960938 -15.839844 3.601562 -17.640625 C 3.238281 -20.398438 3.238281 -23.160156 3.71875 -25.679688 C 5.519531 -35.398438 11.039062 -43.679688 17.160156 -51.359375 L 18.601562 -53.160156 C 19.078125 -53.757812 19.078125 -54.480469 18.601562 -55.199219 C 18.480469 -55.558594 18.121094 -55.800781 17.640625 -55.800781 C 17.519531 -55.800781 17.160156 -55.679688 16.679688 -55.558594 C 16.558594 -55.558594 16.441406 -55.558594 16.441406 -55.558594 C 16.320312 -55.4375 16.199219 -55.4375 16.078125 -55.4375 C 12.238281 -53.640625 8.640625 -51.957031 4.917969 -49.679688 C 4.679688 -50.277344 4.679688 -50.640625 5.039062 -51 C 5.28125 -51.480469 5.519531 -51.957031 5.878906 -52.4375 C 6.121094 -52.800781 6.359375 -53.277344 6.601562 -53.640625 C 7.679688 -55.4375 8.640625 -57.238281 9.480469 -59.160156 C 9.71875 -60.238281 9.601562 -61.078125 9.238281 -61.917969 C 8.878906 -62.519531 8.28125 -62.878906 7.679688 -62.878906 C 7.320312 -62.878906 7.078125 -62.878906 6.839844 -62.757812 C 2.160156 -60.597656 -1.800781 -54.238281 -4.078125 -49.800781 C -4.199219 -49.558594 -4.441406 -49.078125 -4.558594 -48.480469 C -4.917969 -47.160156 -4.800781 -46.199219 -4.078125 -45.359375 C -3.480469 -44.757812 -2.761719 -44.398438 -1.921875 -44.398438 C -0.601562 -44.398438 1.679688 -45.480469 2.640625 -46.078125 C 6.121094 -48 9.601562 -49.800781 13.078125 -51.597656 C 13.199219 -51.71875 13.441406 -51.839844 13.679688 -51.957031 C 13.800781 -52.078125 14.039062 -52.078125 14.160156 -52.078125 C 14.160156 -52.078125 14.28125 -51.957031 14.640625 -51.839844 C 14.519531 -51.480469 14.398438 -51.117188 14.160156 -50.757812 C 13.800781 -50.398438 13.558594 -50.160156 13.320312 -49.800781 C 7.679688 -41.878906 3.121094 -34.800781 1.558594 -25.078125 C 1.199219 -22.199219 1.199219 -19.320312 2.039062 -16.441406 C 2.878906 -14.398438 4.199219 -13.441406 6.121094 -13.441406 Z M -2.398438 -46.320312 C -2.761719 -46.4375 -2.878906 -46.558594 -2.878906 -46.917969 C -1.921875 -50.878906 3.238281 -57.957031 6.839844 -60.238281 C 6.839844 -60.238281 6.960938 -60.238281 7.320312 -60.238281 C 7.441406 -60.117188 7.558594 -59.878906 7.558594 -59.757812 C 6.71875 -57.480469 5.640625 -55.558594 4.320312 -53.519531 C 3.960938 -52.679688 3.480469 -51.957031 3 -51.238281 C 2.398438 -50.519531 1.921875 -49.800781 1.558594 -48.960938 C 0.71875 -47.398438 -0.601562 -46.800781 -2.160156 -46.320312 Z M 4.800781 -49.679688 L 4.800781 -49.800781 L 4.917969 -49.679688 Z M 4.800781 -49.679688 "/></g></g></g><g fill="#000000" fill-opacity="1"><g transform="translate(240.626172, 506.294256)"><g><path d="M -2.398438 -10.917969 C -1.558594 -10.917969 -1.441406 -11.640625 -1.078125 -12.238281 L 1.078125 -20.398438 C 1.679688 -22.199219 2.28125 -24.121094 2.878906 -26.039062 C 3.480469 -27.960938 3.960938 -29.878906 4.558594 -31.679688 L 5.28125 -33.480469 C 5.398438 -33.839844 5.761719 -34.078125 6.121094 -34.078125 C 6.238281 -34.078125 6.359375 -34.078125 6.480469 -33.960938 L 7.800781 -33.238281 C 8.519531 -32.878906 9.359375 -32.640625 10.441406 -32.640625 C 11.28125 -32.640625 12 -32.757812 12.359375 -32.878906 C 14.640625 -33.71875 16.441406 -34.800781 18.238281 -36.597656 C 19.917969 -38.160156 21.480469 -39.960938 22.917969 -41.757812 C 24.359375 -43.558594 25.800781 -45.238281 27.359375 -47.039062 C 27.839844 -47.519531 27.71875 -48.359375 27.121094 -48.71875 C 27 -48.839844 26.878906 -48.839844 26.757812 -48.839844 C 26.519531 -48.839844 26.28125 -48.71875 25.917969 -48.359375 C 25.441406 -47.878906 24.960938 -47.277344 24.480469 -46.679688 L 19.558594 -40.917969 C 18.238281 -39.359375 16.917969 -37.917969 15.121094 -36.597656 C 13.558594 -35.277344 11.398438 -34.199219 9.359375 -34.199219 C 8.519531 -34.199219 7.679688 -34.4375 6.960938 -34.917969 C 6.359375 -35.277344 6.238281 -35.757812 6.480469 -36.359375 C 6.960938 -37.4375 7.441406 -38.277344 8.28125 -39.238281 C 11.757812 -43.558594 15.238281 -47.878906 18 -52.679688 C 18.480469 -53.398438 18.839844 -54.117188 19.078125 -54.957031 C 19.441406 -55.558594 18.839844 -56.519531 18.238281 -56.878906 C 17.878906 -57 17.640625 -57.117188 17.519531 -57.117188 C 17.28125 -57.117188 16.917969 -57 16.441406 -56.640625 C 14.878906 -55.320312 13.199219 -53.277344 12.238281 -51.480469 C 10.199219 -48.359375 8.28125 -44.878906 6.480469 -41.160156 C 5.640625 -39.597656 4.917969 -38.277344 3.601562 -36.960938 C 2.761719 -36.359375 2.28125 -35.757812 3.238281 -34.679688 C 3.480469 -34.4375 3.480469 -33.960938 3.121094 -33.359375 C 2.398438 -31.078125 1.679688 -28.917969 0.960938 -26.757812 C 0.238281 -24.480469 -0.480469 -22.320312 -1.078125 -20.039062 C -1.199219 -19.800781 -1.320312 -19.558594 -1.441406 -19.320312 C -1.558594 -19.078125 -1.679688 -18.71875 -1.921875 -18.121094 C -1.921875 -18.601562 -1.921875 -18.960938 -2.039062 -19.078125 C -2.039062 -19.199219 -2.039062 -19.441406 -2.039062 -19.558594 C -0.839844 -30.238281 0.238281 -40.917969 4.800781 -48.71875 C 6.601562 -51.839844 8.398438 -54.957031 10.199219 -58.078125 C 12 -61.199219 13.800781 -64.320312 15.601562 -67.558594 C 18.839844 -73.199219 21.839844 -79.320312 23.28125 -85.558594 C 23.398438 -86.636719 23.28125 -87.476562 22.917969 -88.078125 C 22.679688 -88.4375 22.320312 -88.679688 21.839844 -88.679688 C 21.597656 -88.679688 21.480469 -88.679688 21.359375 -88.558594 C 21 -88.4375 20.640625 -88.199219 20.28125 -87.839844 C 19.917969 -87.476562 19.558594 -87.117188 19.199219 -86.757812 C 12.960938 -79.558594 7.917969 -68.757812 4.078125 -57.597656 C 0.238281 -46.4375 -2.398438 -34.679688 -3.480469 -25.199219 C -3.960938 -21.71875 -4.441406 -18.238281 -4.320312 -14.757812 C -4.199219 -14.398438 -4.199219 -13.917969 -4.199219 -13.558594 C -4.199219 -13.078125 -4.078125 -12.601562 -3.960938 -12.238281 C -3.839844 -11.519531 -3.238281 -11.039062 -2.398438 -10.917969 Z M 5.519531 -54.238281 C 6.480469 -60.480469 15.359375 -81.476562 21.121094 -85.316406 C 21.480469 -84.476562 21.121094 -84 20.757812 -83.160156 C 18.960938 -78.476562 16.917969 -73.796875 14.519531 -69.359375 L 6.960938 -56.160156 C 6.601562 -55.320312 6.359375 -54.71875 5.519531 -54.238281 Z M 5.519531 -54.238281 "/></g></g></g><g fill="#000000" fill-opacity="1"><g transform="translate(265.585627, 506.294256)"><g><path d="M 5.640625 -32.519531 C 6.238281 -32.519531 6.71875 -32.640625 7.320312 -32.878906 C 13.320312 -34.917969 17.519531 -41.277344 20.519531 -46.558594 C 20.878906 -47.039062 21 -47.519531 20.878906 -47.878906 C 20.878906 -48.359375 20.757812 -48.597656 20.398438 -48.71875 C 20.28125 -48.839844 20.160156 -48.839844 20.039062 -48.839844 C 19.800781 -48.839844 19.558594 -48.71875 19.441406 -48.359375 L 18.121094 -46.199219 C 15.71875 -41.757812 10.917969 -36.238281 6.238281 -34.679688 C 5.640625 -34.558594 5.160156 -34.4375 5.039062 -34.4375 C 3.359375 -34.4375 2.28125 -35.398438 1.679688 -37.199219 C 1.558594 -37.558594 1.558594 -37.917969 1.558594 -38.277344 C 1.558594 -38.640625 1.558594 -39 1.441406 -39.359375 C 1.441406 -41.640625 2.28125 -46.199219 3.71875 -48 C 3.960938 -47.640625 4.199219 -47.277344 4.441406 -46.917969 C 4.558594 -46.558594 4.800781 -46.199219 5.039062 -45.839844 C 5.28125 -45.359375 5.640625 -45.117188 6.238281 -45.117188 C 6.480469 -45.117188 6.71875 -45.117188 6.839844 -45.238281 C 8.761719 -46.078125 11.160156 -49.078125 11.28125 -51.359375 C 11.398438 -53.398438 10.199219 -54.839844 8.398438 -54.839844 C 3.121094 -54.839844 -0.238281 -45.359375 -0.238281 -40.558594 C -0.359375 -37.558594 0.71875 -35.277344 3.121094 -33.480469 C 3.960938 -32.878906 4.800781 -32.519531 5.640625 -32.519531 Z M 6.121094 -47.277344 C 5.878906 -47.519531 5.761719 -47.640625 5.761719 -47.519531 C 5.640625 -47.878906 5.398438 -48.238281 5.039062 -48.480469 C 4.679688 -48.597656 4.441406 -48.960938 4.558594 -49.320312 C 4.679688 -50.277344 5.28125 -50.878906 6.121094 -51.480469 C 6.960938 -52.320312 7.917969 -52.800781 8.761719 -52.917969 C 9.601562 -53.039062 9.839844 -52.800781 9.71875 -51.957031 C 9.359375 -50.160156 8.160156 -48.597656 6.121094 -47.277344 Z M 6.121094 -47.277344 "/></g></g></g><g fill="#000000" fill-opacity="1"><g transform="translate(283.705218, 506.294256)"><g><path d="M 3 -2.039062 C 4.441406 -2.039062 5.160156 -2.761719 5.160156 -4.199219 C 5.160156 -4.679688 4.917969 -5.039062 4.558594 -5.160156 C 4.441406 -5.160156 4.441406 -5.160156 4.441406 -5.28125 C 4.320312 -5.28125 4.320312 -5.28125 4.199219 -5.28125 C 3.960938 -5.28125 3.71875 -5.160156 3.601562 -4.917969 C 3.480469 -4.800781 3.359375 -4.558594 3.238281 -4.320312 C 3.121094 -4.078125 3 -3.960938 2.640625 -3.960938 C 1.078125 -5.519531 0.121094 -14.519531 0.121094 -16.800781 C -0.238281 -24.839844 0 -32.640625 1.320312 -40.679688 C 1.800781 -42.480469 2.398438 -44.160156 3.238281 -45.960938 C 4.800781 -49.320312 6.359375 -52.558594 8.039062 -55.800781 C 9.601562 -59.039062 11.28125 -62.277344 12.960938 -65.636719 C 13.320312 -66.480469 13.917969 -66.839844 14.640625 -66.839844 C 14.757812 -66.839844 14.878906 -66.839844 15 -66.839844 C 15 -66.71875 15.121094 -66.71875 15.238281 -66.71875 C 20.160156 -65.878906 27.121094 -65.160156 32.28125 -65.160156 C 36.121094 -65.160156 40.078125 -65.519531 43.558594 -67.320312 C 44.398438 -67.679688 44.519531 -68.636719 44.039062 -69.480469 C 43.917969 -69.71875 43.800781 -69.839844 43.558594 -69.839844 C 43.4375 -69.839844 43.320312 -69.71875 43.199219 -69.597656 C 43.078125 -69.480469 42.839844 -69.359375 42.71875 -69.238281 C 42.359375 -69.117188 41.878906 -69 41.519531 -68.878906 C 41.160156 -68.757812 40.679688 -68.519531 40.320312 -68.398438 C 37.558594 -67.796875 34.800781 -67.4375 32.160156 -67.4375 C 31.800781 -67.4375 31.320312 -67.4375 30.960938 -67.4375 C 30.480469 -67.4375 30 -67.4375 29.640625 -67.558594 C 27.839844 -67.679688 26.160156 -67.917969 24.480469 -68.039062 C 22.679688 -68.160156 21 -68.277344 19.320312 -68.398438 C 18.960938 -68.519531 18.601562 -68.519531 18.238281 -68.519531 C 17.878906 -68.519531 17.398438 -68.636719 17.039062 -68.757812 C 16.679688 -68.878906 16.320312 -68.878906 15.960938 -68.878906 C 15.601562 -68.878906 15.359375 -69 15 -69.359375 C 15.121094 -69.839844 15.238281 -70.320312 15.480469 -70.679688 C 15.601562 -71.039062 15.839844 -71.398438 15.960938 -71.757812 C 17.519531 -75.476562 18.960938 -78.957031 20.28125 -82.796875 C 20.398438 -83.398438 20.640625 -84.117188 20.878906 -84.839844 C 21 -85.4375 21.121094 -86.160156 21.121094 -86.878906 C 21.238281 -87.71875 21.121094 -88.558594 20.757812 -89.277344 C 20.519531 -90 20.039062 -90.359375 19.320312 -90.359375 C 15.238281 -90.359375 9 -76.679688 7.320312 -72.117188 C 6.71875 -70.679688 6.480469 -70.199219 5.519531 -70.199219 C 5.039062 -70.199219 4.558594 -70.199219 4.199219 -70.320312 C 0.480469 -70.917969 -3 -71.277344 -6.359375 -71.277344 C -12.359375 -71.277344 -23.640625 -70.320312 -28.558594 -66.957031 C -29.160156 -66.597656 -29.28125 -66.117188 -29.039062 -65.519531 C -28.917969 -64.679688 -28.4375 -64.320312 -27.359375 -64.320312 C -26.757812 -64.320312 -26.398438 -64.558594 -26.28125 -65.039062 C -25.917969 -68.878906 -8.160156 -69.117188 -6.480469 -69.117188 C -4.558594 -69.117188 4.078125 -68.878906 5.28125 -67.679688 C 5.640625 -67.078125 5.398438 -66.597656 5.039062 -66 C 1.800781 -54.957031 -0.480469 -44.757812 -1.558594 -33.238281 C -2.039062 -26.039062 -2.28125 -19.078125 -1.441406 -11.878906 C -1.078125 -9.601562 -0.71875 -7.800781 -0.121094 -5.519531 C 0.238281 -4.441406 0.480469 -3.480469 1.441406 -2.640625 C 1.800781 -2.28125 2.398438 -2.039062 3 -2.039062 Z M 3.480469 -51.839844 C 3.480469 -51.839844 3.480469 -51.957031 3.359375 -52.078125 C 3.359375 -53.757812 5.761719 -63 6.839844 -65.398438 C 6.960938 -65.519531 6.960938 -65.757812 7.078125 -66 C 7.199219 -66.238281 7.199219 -66.480469 7.320312 -66.71875 C 7.558594 -67.320312 8.039062 -67.558594 8.640625 -67.558594 L 10.800781 -67.199219 C 10.917969 -67.199219 11.039062 -67.199219 11.039062 -67.078125 C 11.039062 -66.957031 11.039062 -66.957031 11.160156 -66.839844 L 11.160156 -66.359375 L 4.679688 -53.160156 L 3.960938 -51.957031 C 3.839844 -51.839844 3.71875 -51.839844 3.480469 -51.839844 Z M 11.519531 -69.480469 C 10.679688 -69.480469 10.199219 -69.480469 9.960938 -69.597656 C 9 -69.71875 8.640625 -70.199219 9 -71.160156 C 10.800781 -75.839844 12.71875 -80.160156 15.71875 -84.359375 C 16.558594 -85.679688 17.519531 -87 18.839844 -87.957031 C 19.199219 -87.957031 19.320312 -87.957031 19.320312 -87.957031 C 19.441406 -87.957031 19.558594 -87.839844 19.558594 -87.597656 C 19.441406 -87.238281 19.441406 -86.757812 19.441406 -86.398438 C 19.441406 -85.917969 19.320312 -85.4375 19.199219 -85.078125 C 17.640625 -80.160156 15.71875 -75.476562 13.441406 -70.796875 C 13.078125 -69.957031 12.359375 -69.480469 11.519531 -69.480469 Z M 11.519531 -69.480469 "/></g></g></g><g fill="#000000" fill-opacity="1"><g transform="translate(293.90499, 506.294256)"><g><path d="M 0.121094 -30 C 0.71875 -30 1.199219 -30.121094 1.800781 -30.359375 C 2.160156 -30.480469 2.398438 -30.71875 2.640625 -30.839844 C 2.878906 -30.960938 3.121094 -31.199219 3.480469 -31.320312 C 4.441406 -31.917969 19.078125 -45.480469 19.078125 -47.398438 C 18.960938 -47.878906 18.71875 -48.597656 18.121094 -48.597656 C 18 -48.597656 17.757812 -48.480469 17.640625 -48.359375 C 17.28125 -48 17.039062 -47.640625 16.679688 -47.398438 C 16.320312 -47.039062 16.078125 -46.679688 15.71875 -46.320312 L 7.800781 -37.917969 C 6.238281 -36.121094 4.320312 -34.558594 2.160156 -33.238281 C 1.320312 -32.519531 0.601562 -32.039062 -0.238281 -31.917969 L -0.71875 -31.800781 C -1.441406 -31.800781 -1.800781 -32.160156 -1.800781 -33 C -1.921875 -34.199219 -1.800781 -35.519531 -1.558594 -36.839844 C -0.480469 -40.679688 0.960938 -44.277344 3.359375 -47.519531 C 3.601562 -47.878906 3.839844 -48.359375 4.199219 -48.960938 C 4.558594 -49.320312 3.839844 -50.277344 3.480469 -50.277344 C 3.121094 -50.398438 2.761719 -50.160156 2.519531 -49.800781 C -0.480469 -45.597656 -2.878906 -41.277344 -3.71875 -36.121094 C -3.839844 -35.277344 -3.839844 -34.320312 -3.71875 -33.359375 C -3.359375 -31.320312 -1.800781 -30 0.121094 -30 Z M 5.160156 -53.519531 C 5.398438 -53.398438 5.640625 -53.519531 5.878906 -53.757812 C 7.441406 -55.679688 8.640625 -57.839844 9.960938 -60.117188 C 10.078125 -60.238281 10.078125 -60.480469 10.078125 -60.957031 C 9.960938 -61.078125 9.960938 -61.199219 9.960938 -61.320312 C 9.960938 -61.4375 9.839844 -61.4375 9.71875 -61.558594 C 9.601562 -61.679688 9.480469 -61.679688 9.359375 -61.679688 C 9.121094 -61.679688 8.878906 -61.558594 8.761719 -61.199219 C 8.398438 -60.597656 8.039062 -60.117188 7.800781 -59.519531 C 7.441406 -58.917969 7.078125 -58.4375 6.71875 -57.839844 C 6.238281 -57 5.640625 -56.160156 5.039062 -55.199219 L 4.679688 -54.480469 C 4.558594 -54.117188 4.800781 -53.878906 5.160156 -53.519531 Z M 5.160156 -53.519531 "/></g></g></g><g fill="#000000" fill-opacity="1"><g transform="translate(310.224608, 506.294256)"><g><path d="M 1.558594 -25.558594 C 2.160156 -25.558594 2.640625 -25.917969 2.761719 -26.640625 C 2.878906 -27 3.121094 -27.597656 3.238281 -28.4375 C 3.960938 -31.558594 7.558594 -46.917969 9.839844 -48.480469 C 9.960938 -48 10.078125 -47.519531 9.960938 -47.039062 C 9.839844 -46.558594 9.839844 -46.078125 9.839844 -45.71875 C 9.480469 -43.078125 9.601562 -40.320312 10.078125 -37.558594 C 10.441406 -35.757812 11.28125 -33.839844 13.320312 -33.839844 C 13.917969 -33.839844 14.398438 -33.960938 14.878906 -34.199219 C 19.199219 -36.960938 23.640625 -42.960938 26.519531 -47.160156 C 26.640625 -47.277344 26.757812 -47.519531 26.757812 -47.640625 C 26.878906 -48 26.757812 -48.480469 26.398438 -48.839844 C 26.28125 -48.960938 26.160156 -48.960938 26.039062 -48.960938 C 25.800781 -48.960938 25.558594 -48.839844 25.320312 -48.597656 C 24.359375 -47.277344 23.398438 -46.078125 22.441406 -44.757812 C 20.878906 -42.597656 15.839844 -36.71875 13.441406 -35.519531 C 13.320312 -35.398438 13.199219 -35.398438 12.960938 -35.398438 C 12.601562 -35.398438 12.359375 -35.640625 12.238281 -36.121094 C 11.878906 -37.320312 11.640625 -38.398438 11.640625 -39.359375 C 11.28125 -43.679688 11.878906 -47.757812 12.480469 -51.957031 L 12.839844 -55.320312 C 12.839844 -56.039062 12.601562 -56.519531 12.238281 -56.878906 C 12.121094 -57 12 -57.117188 11.640625 -57.117188 C 11.28125 -57.117188 11.160156 -57 11.039062 -56.878906 C 7.917969 -52.199219 4.199219 -40.800781 2.761719 -35.398438 L 2.039062 -33 L 1.800781 -33 C 1.558594 -33.238281 1.441406 -33.359375 1.441406 -33.359375 L 1.441406 -35.398438 C 2.039062 -42.597656 3.480469 -49.320312 6.359375 -56.039062 L 6.71875 -56.878906 C 6.71875 -57.359375 6.480469 -57.71875 6 -57.957031 C 5.878906 -57.957031 5.878906 -57.957031 5.761719 -58.078125 C 5.640625 -58.078125 5.398438 -57.957031 5.039062 -57.597656 L 3.960938 -55.320312 C 2.519531 -51.839844 1.558594 -48.238281 0.71875 -44.519531 C -0.359375 -39.480469 -0.839844 -34.4375 -0.601562 -29.398438 C -0.601562 -28.4375 -0.601562 -27.597656 -0.121094 -26.640625 C 0.121094 -25.917969 0.71875 -25.558594 1.558594 -25.558594 Z M 1.558594 -25.558594 "/></g></g></g><g fill="#000000" fill-opacity="1"><g transform="translate(334.224071, 506.294256)"><g><path d="M 4.558594 3.359375 C 7.679688 3.359375 12.839844 -5.761719 15.839844 -11.878906 C 18.359375 -17.160156 22.679688 -27.960938 23.878906 -30.960938 C 25.679688 -36 34.558594 -42.839844 39 -45.71875 C 39.597656 -46.078125 40.199219 -46.558594 40.679688 -47.039062 C 40.917969 -47.398438 40.917969 -47.757812 40.679688 -48.117188 C 40.558594 -48.480469 40.320312 -48.597656 39.960938 -48.597656 C 39.960938 -48.597656 39.839844 -48.597656 39.71875 -48.480469 C 39.121094 -48.238281 38.640625 -48 38.277344 -47.640625 C 35.160156 -45.597656 32.398438 -43.558594 30 -41.398438 C 29.160156 -40.558594 28.558594 -39.839844 27.480469 -39.480469 C 27.359375 -39.480469 27.359375 -39.480469 27.359375 -39.480469 C 27.238281 -39.359375 27.238281 -39.359375 27.121094 -39.359375 C 27.238281 -39.480469 27.238281 -39.597656 27.238281 -39.71875 C 27.238281 -40.558594 27.359375 -41.039062 27.71875 -41.640625 C 29.519531 -46.800781 30.839844 -51.597656 32.160156 -56.757812 C 32.398438 -57.597656 32.398438 -58.4375 32.039062 -59.277344 C 31.800781 -60.117188 31.320312 -60.597656 30.480469 -60.597656 C 30.359375 -60.597656 30.359375 -60.597656 30.238281 -60.597656 C 30.121094 -60.480469 30 -60.480469 29.878906 -60.480469 C 28.558594 -60.117188 27.71875 -59.519531 26.757812 -58.679688 C 24.960938 -57.359375 23.160156 -56.039062 21.597656 -54.71875 C 19.917969 -53.277344 18.238281 -51.839844 16.679688 -50.519531 C 13.800781 -48 5.761719 -40.679688 2.878906 -40.679688 C 2.039062 -40.679688 1.679688 -41.039062 1.679688 -41.640625 C 2.28125 -48.480469 8.878906 -55.558594 15.71875 -56.878906 C 16.558594 -57 16.800781 -56.640625 16.679688 -55.800781 C 16.441406 -54.597656 15.839844 -53.519531 15 -52.679688 C 14.640625 -52.320312 14.757812 -52.078125 15.238281 -51.71875 C 15.359375 -51.597656 15.601562 -51.480469 15.839844 -51.480469 C 15.960938 -51.480469 16.078125 -51.480469 16.199219 -51.597656 C 17.519531 -52.917969 18.238281 -54.359375 18.121094 -55.800781 C 18.121094 -58.078125 16.917969 -58.679688 14.878906 -58.679688 C 11.039062 -58.679688 5.28125 -53.757812 3.121094 -50.878906 C 1.558594 -48.839844 0.601562 -46.679688 0.121094 -44.277344 C 0 -43.4375 -0.121094 -42.839844 0 -42 C 0.359375 -40.078125 1.800781 -38.757812 3.601562 -38.757812 C 4.078125 -38.757812 4.441406 -38.878906 4.917969 -39 C 6 -39.359375 7.320312 -40.078125 8.640625 -41.039062 C 11.519531 -42.960938 13.917969 -45.238281 16.679688 -47.640625 C 20.398438 -51 24.121094 -54.359375 28.320312 -57.359375 C 28.558594 -57.480469 28.800781 -57.71875 29.039062 -57.957031 C 29.28125 -58.078125 29.519531 -58.199219 29.878906 -58.199219 C 30.121094 -58.199219 30.238281 -58.199219 30.359375 -58.078125 C 30.71875 -57.957031 30.839844 -57.597656 30.71875 -57.238281 C 30.597656 -56.878906 30.480469 -56.519531 30.359375 -56.160156 L 30 -54.480469 C 28.078125 -48.359375 26.039062 -42.480469 23.757812 -36.359375 C 23.28125 -35.398438 22.917969 -34.679688 22.078125 -33.839844 C 14.878906 -25.679688 1.558594 -9.839844 1.558594 1.078125 C 1.921875 2.519531 3.121094 3.359375 4.558594 3.359375 Z M 4.320312 1.320312 C 3.960938 1.558594 3.71875 1.441406 3.71875 1.078125 C 3.480469 0.238281 3.480469 -0.601562 3.839844 -1.679688 C 5.640625 -9.71875 13.917969 -21.597656 19.320312 -27.597656 C 19.441406 -27.71875 19.441406 -27.71875 19.558594 -27.839844 C 19.679688 -27.839844 19.800781 -27.960938 19.917969 -28.078125 C 20.160156 -27.71875 20.160156 -27.359375 20.039062 -26.878906 C 17.039062 -19.800781 14.039062 -13.078125 10.320312 -6.359375 C 9.359375 -4.558594 6.238281 0.359375 4.320312 1.320312 Z M 4.320312 1.320312 "/></g></g></g><g fill="#000000" fill-opacity="1"><g transform="translate(372.383224, 506.294256)"><g/></g></g><g fill="#000000" fill-opacity="1"><g transform="translate(402.382553, 506.294256)"><g><path d="M 17.398438 -7.679688 L 17.757812 -7.679688 C 18.480469 -7.800781 18.839844 -8.160156 18.839844 -8.761719 C 18.960938 -9.121094 18.960938 -9.601562 18.960938 -10.078125 C 18.960938 -10.441406 18.960938 -10.917969 18.960938 -11.28125 C 19.078125 -17.160156 19.441406 -23.160156 19.917969 -29.039062 C 20.039062 -30.359375 20.640625 -31.320312 21.71875 -31.917969 C 36 -41.160156 48.839844 -59.878906 52.320312 -76.679688 C 52.917969 -78.957031 53.160156 -81.359375 52.558594 -83.636719 C 51.957031 -86.160156 51 -87.476562 49.4375 -87.476562 C 48.839844 -87.476562 47.878906 -87.238281 46.800781 -86.636719 C 45.839844 -86.277344 45 -85.679688 44.160156 -85.078125 C 43.320312 -84.359375 42.597656 -83.636719 41.757812 -83.039062 C 29.160156 -70.796875 21.359375 -51.839844 18.480469 -34.558594 L 18.238281 -32.878906 C 17.878906 -32.039062 16.679688 -31.320312 15.71875 -31.320312 C 15.359375 -31.4375 15.121094 -31.800781 15.121094 -32.160156 C 15.121094 -32.519531 15.121094 -32.878906 15.121094 -33.238281 C 15 -33.71875 15 -34.199219 15 -34.679688 C 15 -35.160156 15 -35.640625 15 -36 C 15 -44.277344 15.839844 -51.839844 17.28125 -59.277344 C 18.359375 -65.160156 20.878906 -75.476562 22.441406 -81.71875 C 22.800781 -82.679688 22.917969 -83.636719 22.800781 -84.476562 C 22.800781 -84.957031 22.199219 -85.4375 21.839844 -85.316406 C 21.359375 -85.316406 21.121094 -85.078125 21.121094 -84.597656 C 21.121094 -83.757812 21 -82.917969 20.757812 -82.078125 C 20.519531 -81.238281 20.28125 -80.519531 20.160156 -79.679688 L 17.640625 -70.4375 C 14.160156 -57.957031 12.960938 -45.839844 12.960938 -32.878906 C 12.960938 -29.878906 12.960938 -29.640625 9.960938 -29.28125 L 6.839844 -29.28125 C 3.359375 -29.757812 1.441406 -32.519531 2.28125 -36 C 2.640625 -37.558594 3.238281 -39 4.078125 -40.4375 C 5.039062 -41.878906 6.121094 -43.199219 7.441406 -44.519531 C 7.800781 -44.878906 7.800781 -45.117188 7.558594 -45.480469 C 7.199219 -45.839844 6.960938 -46.078125 6.601562 -45.960938 C 4.441406 -45.359375 1.199219 -40.320312 0.601562 -38.160156 C -0.839844 -34.320312 0.601562 -30.839844 4.320312 -28.917969 C 5.878906 -28.078125 7.679688 -27.597656 9.71875 -27.597656 C 10.078125 -27.597656 10.320312 -27.597656 10.679688 -27.597656 C 11.039062 -27.597656 11.28125 -27.597656 11.640625 -27.71875 C 11.757812 -27.71875 11.878906 -27.71875 12 -27.839844 C 12.121094 -27.839844 12.238281 -27.839844 12.359375 -27.839844 C 12.960938 -27.839844 13.199219 -27.359375 13.320312 -26.519531 C 13.441406 -25.199219 13.558594 -24 13.679688 -22.800781 C 13.800781 -21.480469 13.917969 -20.28125 14.039062 -18.960938 C 14.398438 -15.960938 14.757812 -12.960938 15.601562 -10.078125 C 15.71875 -9.238281 15.960938 -8.640625 16.320312 -8.28125 C 16.558594 -7.917969 16.917969 -7.679688 17.398438 -7.679688 Z M 16.199219 -18.238281 C 16.078125 -19.800781 15.960938 -21.238281 15.839844 -22.800781 C 15.71875 -24.359375 15.480469 -25.800781 15.359375 -27.359375 C 15.359375 -28.4375 15.839844 -29.039062 16.917969 -29.28125 C 17.398438 -29.398438 17.640625 -29.28125 17.640625 -28.800781 C 17.757812 -28.558594 17.757812 -28.320312 17.757812 -28.078125 C 17.640625 -27.839844 17.640625 -27.597656 17.640625 -27.359375 L 17.28125 -21.480469 C 17.160156 -20.398438 17.160156 -19.320312 16.199219 -18.238281 Z M 21.121094 -34.4375 C 20.757812 -34.679688 20.640625 -35.039062 20.757812 -35.398438 C 20.878906 -35.757812 20.878906 -36.121094 21 -36.480469 C 24.238281 -52.917969 32.039062 -72.597656 45.238281 -83.277344 C 46.199219 -84.117188 48.597656 -85.796875 49.917969 -85.796875 C 50.519531 -85.796875 50.878906 -85.316406 51 -84.359375 C 51.117188 -84.238281 51.117188 -83.878906 51.117188 -83.519531 C 51.117188 -80.519531 51 -77.878906 50.039062 -75 C 45.117188 -59.277344 36.71875 -46.199219 23.757812 -36 C 23.398438 -35.640625 23.160156 -35.398438 22.800781 -35.277344 C 22.558594 -35.160156 22.320312 -34.917969 22.078125 -34.800781 C 21.839844 -34.558594 21.597656 -34.4375 21.359375 -34.4375 Z M 21.121094 -34.4375 "/></g></g></g><g fill="#000000" fill-opacity="1"><g transform="translate(447.741544, 506.294256)"><g><path d="M 0.238281 -30.480469 C 0.71875 -30.480469 1.199219 -30.71875 1.558594 -31.078125 C 4.199219 -33.121094 7.320312 -41.039062 8.28125 -44.277344 C 8.519531 -45.238281 9 -45.71875 9.601562 -45.71875 C 9.839844 -45.71875 10.078125 -45.71875 10.320312 -45.597656 C 13.679688 -45.597656 16.679688 -45.839844 19.917969 -47.160156 C 20.519531 -47.277344 20.640625 -47.640625 20.398438 -48.238281 C 20.28125 -48.597656 19.917969 -48.839844 19.320312 -48.839844 C 18.71875 -48.71875 18.238281 -48.480469 17.878906 -48.359375 C 15.839844 -47.519531 13.558594 -47.277344 11.28125 -47.160156 L 10.558594 -47.160156 C 9.480469 -47.160156 9.359375 -47.398438 9.238281 -48.839844 C 9.121094 -49.800781 8.878906 -50.640625 8.398438 -51.238281 C 8.039062 -51.839844 7.679688 -52.078125 7.320312 -51.957031 C 6.601562 -51.839844 5.878906 -51.71875 5.160156 -51.597656 C 4.441406 -51.480469 3.839844 -51.117188 3.238281 -50.519531 C -0.121094 -46.320312 -2.28125 -41.519531 -2.878906 -36.238281 C -3 -35.039062 -2.878906 -33.960938 -2.519531 -32.878906 C -2.28125 -32.039062 -1.800781 -31.4375 -0.960938 -30.960938 C -0.480469 -30.597656 -0.121094 -30.480469 0.238281 -30.480469 Z M -0.601562 -32.640625 C -1.441406 -33.597656 -1.078125 -34.800781 -0.960938 -35.878906 C -0.480469 -40.4375 1.199219 -44.640625 4.199219 -48.480469 C 4.320312 -48.597656 4.441406 -48.839844 4.800781 -48.960938 C 4.917969 -48.960938 5.160156 -48.839844 5.28125 -48.71875 C 7.078125 -46.917969 7.199219 -46.679688 6.359375 -44.277344 C 5.640625 -42 1.800781 -32.640625 -0.601562 -32.640625 Z M 7.320312 -48.480469 C 6.71875 -48.480469 6.601562 -48.71875 6.71875 -49.320312 C 6.839844 -49.679688 7.078125 -49.917969 7.320312 -49.800781 C 7.441406 -49.800781 7.558594 -49.558594 7.558594 -49.199219 C 7.558594 -48.839844 7.441406 -48.597656 7.320312 -48.480469 Z M 7.320312 -48.480469 "/></g></g></g><g fill="#000000" fill-opacity="1"><g transform="translate(465.501152, 506.294256)"><g><path d="M 6.121094 -13.441406 C 6.601562 -13.441406 6.960938 -13.558594 7.441406 -13.679688 C 9.480469 -14.398438 11.160156 -15.71875 12.238281 -17.757812 C 12.601562 -18.359375 12.480469 -18.839844 11.757812 -19.199219 C 11.640625 -19.320312 11.519531 -19.441406 11.398438 -19.441406 C 11.160156 -19.441406 10.917969 -19.199219 10.679688 -18.839844 C 9.839844 -17.757812 9 -16.679688 7.679688 -15.839844 C 6.601562 -15.238281 5.761719 -15 5.398438 -15 C 4.558594 -15 3.960938 -15.839844 3.601562 -17.640625 C 3.238281 -20.398438 3.238281 -23.160156 3.71875 -25.679688 C 5.519531 -35.398438 11.039062 -43.679688 17.160156 -51.359375 L 18.601562 -53.160156 C 19.078125 -53.757812 19.078125 -54.480469 18.601562 -55.199219 C 18.480469 -55.558594 18.121094 -55.800781 17.640625 -55.800781 C 17.519531 -55.800781 17.160156 -55.679688 16.679688 -55.558594 C 16.558594 -55.558594 16.441406 -55.558594 16.441406 -55.558594 C 16.320312 -55.4375 16.199219 -55.4375 16.078125 -55.4375 C 12.238281 -53.640625 8.640625 -51.957031 4.917969 -49.679688 C 4.679688 -50.277344 4.679688 -50.640625 5.039062 -51 C 5.28125 -51.480469 5.519531 -51.957031 5.878906 -52.4375 C 6.121094 -52.800781 6.359375 -53.277344 6.601562 -53.640625 C 7.679688 -55.4375 8.640625 -57.238281 9.480469 -59.160156 C 9.71875 -60.238281 9.601562 -61.078125 9.238281 -61.917969 C 8.878906 -62.519531 8.28125 -62.878906 7.679688 -62.878906 C 7.320312 -62.878906 7.078125 -62.878906 6.839844 -62.757812 C 2.160156 -60.597656 -1.800781 -54.238281 -4.078125 -49.800781 C -4.199219 -49.558594 -4.441406 -49.078125 -4.558594 -48.480469 C -4.917969 -47.160156 -4.800781 -46.199219 -4.078125 -45.359375 C -3.480469 -44.757812 -2.761719 -44.398438 -1.921875 -44.398438 C -0.601562 -44.398438 1.679688 -45.480469 2.640625 -46.078125 C 6.121094 -48 9.601562 -49.800781 13.078125 -51.597656 C 13.199219 -51.71875 13.441406 -51.839844 13.679688 -51.957031 C 13.800781 -52.078125 14.039062 -52.078125 14.160156 -52.078125 C 14.160156 -52.078125 14.28125 -51.957031 14.640625 -51.839844 C 14.519531 -51.480469 14.398438 -51.117188 14.160156 -50.757812 C 13.800781 -50.398438 13.558594 -50.160156 13.320312 -49.800781 C 7.679688 -41.878906 3.121094 -34.800781 1.558594 -25.078125 C 1.199219 -22.199219 1.199219 -19.320312 2.039062 -16.441406 C 2.878906 -14.398438 4.199219 -13.441406 6.121094 -13.441406 Z M -2.398438 -46.320312 C -2.761719 -46.4375 -2.878906 -46.558594 -2.878906 -46.917969 C -1.921875 -50.878906 3.238281 -57.957031 6.839844 -60.238281 C 6.839844 -60.238281 6.960938 -60.238281 7.320312 -60.238281 C 7.441406 -60.117188 7.558594 -59.878906 7.558594 -59.757812 C 6.71875 -57.480469 5.640625 -55.558594 4.320312 -53.519531 C 3.960938 -52.679688 3.480469 -51.957031 3 -51.238281 C 2.398438 -50.519531 1.921875 -49.800781 1.558594 -48.960938 C 0.71875 -47.398438 -0.601562 -46.800781 -2.160156 -46.320312 Z M 4.800781 -49.679688 L 4.800781 -49.800781 L 4.917969 -49.679688 Z M 4.800781 -49.679688 "/></g></g></g><g fill="#000000" fill-opacity="1"><g transform="translate(484.700751, 506.294256)"><g><path d="M 3 -2.039062 C 4.441406 -2.039062 5.160156 -2.761719 5.160156 -4.199219 C 5.160156 -4.679688 4.917969 -5.039062 4.558594 -5.160156 C 4.441406 -5.160156 4.441406 -5.160156 4.441406 -5.28125 C 4.320312 -5.28125 4.320312 -5.28125 4.199219 -5.28125 C 3.960938 -5.28125 3.71875 -5.160156 3.601562 -4.917969 C 3.480469 -4.800781 3.359375 -4.558594 3.238281 -4.320312 C 3.121094 -4.078125 3 -3.960938 2.640625 -3.960938 C 1.078125 -5.519531 0.121094 -14.519531 0.121094 -16.800781 C -0.238281 -24.839844 0 -32.640625 1.320312 -40.679688 C 1.800781 -42.480469 2.398438 -44.160156 3.238281 -45.960938 C 4.800781 -49.320312 6.359375 -52.558594 8.039062 -55.800781 C 9.601562 -59.039062 11.28125 -62.277344 12.960938 -65.636719 C 13.320312 -66.480469 13.917969 -66.839844 14.640625 -66.839844 C 14.757812 -66.839844 14.878906 -66.839844 15 -66.839844 C 15 -66.71875 15.121094 -66.71875 15.238281 -66.71875 C 20.160156 -65.878906 27.121094 -65.160156 32.28125 -65.160156 C 36.121094 -65.160156 40.078125 -65.519531 43.558594 -67.320312 C 44.398438 -67.679688 44.519531 -68.636719 44.039062 -69.480469 C 43.917969 -69.71875 43.800781 -69.839844 43.558594 -69.839844 C 43.4375 -69.839844 43.320312 -69.71875 43.199219 -69.597656 C 43.078125 -69.480469 42.839844 -69.359375 42.71875 -69.238281 C 42.359375 -69.117188 41.878906 -69 41.519531 -68.878906 C 41.160156 -68.757812 40.679688 -68.519531 40.320312 -68.398438 C 37.558594 -67.796875 34.800781 -67.4375 32.160156 -67.4375 C 31.800781 -67.4375 31.320312 -67.4375 30.960938 -67.4375 C 30.480469 -67.4375 30 -67.4375 29.640625 -67.558594 C 27.839844 -67.679688 26.160156 -67.917969 24.480469 -68.039062 C 22.679688 -68.160156 21 -68.277344 19.320312 -68.398438 C 18.960938 -68.519531 18.601562 -68.519531 18.238281 -68.519531 C 17.878906 -68.519531 17.398438 -68.636719 17.039062 -68.757812 C 16.679688 -68.878906 16.320312 -68.878906 15.960938 -68.878906 C 15.601562 -68.878906 15.359375 -69 15 -69.359375 C 15.121094 -69.839844 15.238281 -70.320312 15.480469 -70.679688 C 15.601562 -71.039062 15.839844 -71.398438 15.960938 -71.757812 C 17.519531 -75.476562 18.960938 -78.957031 20.28125 -82.796875 C 20.398438 -83.398438 20.640625 -84.117188 20.878906 -84.839844 C 21 -85.4375 21.121094 -86.160156 21.121094 -86.878906 C 21.238281 -87.71875 21.121094 -88.558594 20.757812 -89.277344 C 20.519531 -90 20.039062 -90.359375 19.320312 -90.359375 C 15.238281 -90.359375 9 -76.679688 7.320312 -72.117188 C 6.71875 -70.679688 6.480469 -70.199219 5.519531 -70.199219 C 5.039062 -70.199219 4.558594 -70.199219 4.199219 -70.320312 C 0.480469 -70.917969 -3 -71.277344 -6.359375 -71.277344 C -12.359375 -71.277344 -23.640625 -70.320312 -28.558594 -66.957031 C -29.160156 -66.597656 -29.28125 -66.117188 -29.039062 -65.519531 C -28.917969 -64.679688 -28.4375 -64.320312 -27.359375 -64.320312 C -26.757812 -64.320312 -26.398438 -64.558594 -26.28125 -65.039062 C -25.917969 -68.878906 -8.160156 -69.117188 -6.480469 -69.117188 C -4.558594 -69.117188 4.078125 -68.878906 5.28125 -67.679688 C 5.640625 -67.078125 5.398438 -66.597656 5.039062 -66 C 1.800781 -54.957031 -0.480469 -44.757812 -1.558594 -33.238281 C -2.039062 -26.039062 -2.28125 -19.078125 -1.441406 -11.878906 C -1.078125 -9.601562 -0.71875 -7.800781 -0.121094 -5.519531 C 0.238281 -4.441406 0.480469 -3.480469 1.441406 -2.640625 C 1.800781 -2.28125 2.398438 -2.039062 3 -2.039062 Z M 3.480469 -51.839844 C 3.480469 -51.839844 3.480469 -51.957031 3.359375 -52.078125 C 3.359375 -53.757812 5.761719 -63 6.839844 -65.398438 C 6.960938 -65.519531 6.960938 -65.757812 7.078125 -66 C 7.199219 -66.238281 7.199219 -66.480469 7.320312 -66.71875 C 7.558594 -67.320312 8.039062 -67.558594 8.640625 -67.558594 L 10.800781 -67.199219 C 10.917969 -67.199219 11.039062 -67.199219 11.039062 -67.078125 C 11.039062 -66.957031 11.039062 -66.957031 11.160156 -66.839844 L 11.160156 -66.359375 L 4.679688 -53.160156 L 3.960938 -51.957031 C 3.839844 -51.839844 3.71875 -51.839844 3.480469 -51.839844 Z M 11.519531 -69.480469 C 10.679688 -69.480469 10.199219 -69.480469 9.960938 -69.597656 C 9 -69.71875 8.640625 -70.199219 9 -71.160156 C 10.800781 -75.839844 12.71875 -80.160156 15.71875 -84.359375 C 16.558594 -85.679688 17.519531 -87 18.839844 -87.957031 C 19.199219 -87.957031 19.320312 -87.957031 19.320312 -87.957031 C 19.441406 -87.957031 19.558594 -87.839844 19.558594 -87.597656 C 19.441406 -87.238281 19.441406 -86.757812 19.441406 -86.398438 C 19.441406 -85.917969 19.320312 -85.4375 19.199219 -85.078125 C 17.640625 -80.160156 15.71875 -75.476562 13.441406 -70.796875 C 13.078125 -69.957031 12.359375 -69.480469 11.519531 -69.480469 Z M 11.519531 -69.480469 "/></g></g></g><g fill="#000000" fill-opacity="1"><g transform="translate(494.900523, 506.294256)"><g><path d="M 3.71875 -0.960938 C 4.320312 -0.960938 4.558594 -1.199219 4.558594 -1.800781 C 4.679688 -2.160156 4.679688 -2.640625 4.679688 -3.238281 C 4.320312 -7.078125 4.078125 -10.917969 2.761719 -14.640625 C 2.039062 -16.441406 1.679688 -18.359375 1.679688 -20.398438 C 1.558594 -21.480469 1.558594 -22.441406 1.679688 -23.519531 C 1.679688 -24.480469 1.679688 -25.558594 1.558594 -26.640625 C 1.441406 -27.960938 2.039062 -29.28125 3.121094 -30.359375 C 9.238281 -36.238281 15.121094 -41.757812 21.839844 -46.917969 C 22.199219 -47.277344 22.320312 -47.757812 22.199219 -48.117188 C 21.960938 -48.480469 21.71875 -48.597656 21.359375 -48.597656 L 21 -48.597656 C 20.519531 -48.480469 20.160156 -48.238281 20.039062 -48.117188 C 19.679688 -47.878906 19.320312 -47.640625 18.960938 -47.398438 C 18.601562 -47.160156 18.359375 -46.917969 18 -46.679688 C 13.199219 -42.839844 8.761719 -38.640625 4.320312 -34.320312 C 3.839844 -33.839844 3.238281 -33.359375 2.640625 -32.878906 C 2.519531 -32.757812 2.039062 -32.878906 2.039062 -33.238281 C 2.039062 -33.597656 2.039062 -33.839844 2.039062 -34.199219 C 1.921875 -34.558594 1.921875 -34.800781 2.039062 -35.160156 C 2.28125 -36.71875 2.519531 -38.398438 2.761719 -39.960938 C 3 -41.519531 3.238281 -43.078125 3.359375 -44.640625 C 3.71875 -47.398438 4.800781 -49.679688 6.601562 -51.957031 C 11.757812 -58.679688 24.238281 -76.4375 24.839844 -84.71875 C 24.71875 -84.839844 24.71875 -85.078125 24.71875 -85.4375 C 24.597656 -85.796875 24.480469 -86.039062 24.359375 -86.398438 C 24 -87.238281 23.398438 -87.597656 22.679688 -87.597656 C 22.078125 -87.597656 20.757812 -86.878906 20.398438 -86.519531 C 12.480469 -79.796875 5.640625 -62.640625 3.121094 -52.800781 C 2.519531 -50.398438 2.039062 -48 0.121094 -46.199219 C -0.238281 -45.839844 -0.121094 -45.597656 0.238281 -45.238281 C 0.960938 -44.878906 1.199219 -44.160156 1.078125 -43.078125 C 0.238281 -39.238281 -0.121094 -35.398438 -0.238281 -31.558594 C -0.359375 -30.238281 -0.960938 -29.039062 -1.921875 -28.199219 C -2.761719 -27.480469 -3.601562 -26.757812 -4.320312 -26.039062 C -5.039062 -25.199219 -5.761719 -24.480469 -6.601562 -23.640625 C -7.078125 -23.160156 -7.679688 -22.800781 -7.320312 -21.960938 C -7.199219 -21.597656 -6.960938 -21.480469 -6.601562 -21.480469 C -6.238281 -21.359375 -6 -21.359375 -5.640625 -21.238281 C -2.398438 -21.238281 -0.121094 -18.71875 -0.121094 -15.480469 C 0.359375 -10.679688 0.839844 -6 2.398438 -1.320312 C 2.640625 -1.078125 3.121094 -0.960938 3.71875 -0.960938 Z M -1.199219 -20.878906 C -1.199219 -20.878906 -1.320312 -20.878906 -1.441406 -21 C -1.921875 -21.238281 -2.398438 -21.480469 -2.878906 -21.839844 C -3.359375 -22.078125 -3.839844 -22.320312 -4.441406 -22.558594 C -3.839844 -24 -2.640625 -24.839844 -1.558594 -25.800781 C -1.441406 -25.917969 -1.320312 -25.917969 -1.078125 -25.917969 C -0.71875 -25.917969 -0.601562 -25.679688 -0.601562 -25.320312 L -0.601562 -21.71875 C -0.601562 -21.121094 -0.839844 -20.878906 -1.199219 -20.878906 Z M 6.480469 -55.320312 L 6.121094 -55.679688 C 6.238281 -56.519531 6.480469 -57.117188 6.601562 -57.597656 C 9.480469 -66.238281 13.558594 -76.078125 19.800781 -83.160156 L 21.839844 -85.078125 C 22.199219 -85.199219 22.441406 -85.316406 22.558594 -85.316406 C 22.679688 -85.316406 22.800781 -85.316406 22.917969 -85.199219 C 23.039062 -85.078125 23.039062 -84.957031 23.039062 -84.839844 C 23.039062 -84.71875 23.039062 -84.476562 23.160156 -84.359375 C 22.800781 -83.398438 22.558594 -82.4375 22.199219 -81.476562 C 18.71875 -72.480469 12.960938 -64.320312 7.558594 -56.519531 L 6.71875 -55.4375 C 6.601562 -55.4375 6.601562 -55.4375 6.480469 -55.320312 Z M 6.480469 -55.320312 "/></g></g></g><g fill="#000000" fill-opacity="1"><g transform="translate(514.70008, 506.294256)"><g><path d="M 0.238281 -30.480469 C 0.71875 -30.480469 1.199219 -30.71875 1.558594 -31.078125 C 4.199219 -33.121094 7.320312 -41.039062 8.28125 -44.277344 C 8.519531 -45.238281 9 -45.71875 9.601562 -45.71875 C 9.839844 -45.71875 10.078125 -45.71875 10.320312 -45.597656 C 13.679688 -45.597656 16.679688 -45.839844 19.917969 -47.160156 C 20.519531 -47.277344 20.640625 -47.640625 20.398438 -48.238281 C 20.28125 -48.597656 19.917969 -48.839844 19.320312 -48.839844 C 18.71875 -48.71875 18.238281 -48.480469 17.878906 -48.359375 C 15.839844 -47.519531 13.558594 -47.277344 11.28125 -47.160156 L 10.558594 -47.160156 C 9.480469 -47.160156 9.359375 -47.398438 9.238281 -48.839844 C 9.121094 -49.800781 8.878906 -50.640625 8.398438 -51.238281 C 8.039062 -51.839844 7.679688 -52.078125 7.320312 -51.957031 C 6.601562 -51.839844 5.878906 -51.71875 5.160156 -51.597656 C 4.441406 -51.480469 3.839844 -51.117188 3.238281 -50.519531 C -0.121094 -46.320312 -2.28125 -41.519531 -2.878906 -36.238281 C -3 -35.039062 -2.878906 -33.960938 -2.519531 -32.878906 C -2.28125 -32.039062 -1.800781 -31.4375 -0.960938 -30.960938 C -0.480469 -30.597656 -0.121094 -30.480469 0.238281 -30.480469 Z M -0.601562 -32.640625 C -1.441406 -33.597656 -1.078125 -34.800781 -0.960938 -35.878906 C -0.480469 -40.4375 1.199219 -44.640625 4.199219 -48.480469 C 4.320312 -48.597656 4.441406 -48.839844 4.800781 -48.960938 C 4.917969 -48.960938 5.160156 -48.839844 5.28125 -48.71875 C 7.078125 -46.917969 7.199219 -46.679688 6.359375 -44.277344 C 5.640625 -42 1.800781 -32.640625 -0.601562 -32.640625 Z M 7.320312 -48.480469 C 6.71875 -48.480469 6.601562 -48.71875 6.71875 -49.320312 C 6.839844 -49.679688 7.078125 -49.917969 7.320312 -49.800781 C 7.441406 -49.800781 7.558594 -49.558594 7.558594 -49.199219 C 7.558594 -48.839844 7.441406 -48.597656 7.320312 -48.480469 Z M 7.320312 -48.480469 "/></g></g></g><g fill="#000000" fill-opacity="1"><g transform="translate(532.459688, 506.294256)"><g><path d="M 6 -7.078125 C 6.359375 -7.078125 6.601562 -7.078125 6.71875 -7.199219 C 7.078125 -7.320312 7.199219 -7.679688 7.199219 -8.160156 C 7.199219 -8.519531 7.078125 -8.878906 6.960938 -9.238281 L 6.71875 -9.480469 C 4.679688 -10.679688 3.601562 -18.238281 3.238281 -21.121094 C 2.398438 -28.4375 1.921875 -35.757812 2.519531 -43.320312 C 2.878906 -45.238281 3 -46.917969 3.839844 -48.71875 C 9.238281 -59.757812 14.640625 -71.039062 18.359375 -82.679688 C 18.601562 -83.519531 18.839844 -84.476562 19.078125 -85.316406 C 19.199219 -86.160156 19.441406 -87 19.679688 -87.839844 C 19.800781 -88.917969 19.679688 -89.636719 19.320312 -90.238281 C 19.078125 -90.839844 18.71875 -91.199219 18.121094 -91.199219 C 17.757812 -91.199219 17.398438 -91.078125 17.039062 -90.839844 C 16.558594 -90.476562 16.199219 -90 15.839844 -89.398438 C 15.480469 -88.796875 15 -88.316406 14.640625 -87.71875 C 6.480469 -75.839844 2.640625 -61.917969 1.078125 -47.878906 C 0.960938 -47.277344 0.71875 -46.679688 0.359375 -46.199219 C 0 -45.71875 -0.121094 -45.117188 0.121094 -44.519531 C 0.480469 -43.199219 0.480469 -41.878906 0.480469 -40.558594 L 0.480469 -34.4375 C 0.359375 -30 0.601562 -25.558594 1.199219 -21.238281 C 1.921875 -17.039062 2.640625 -10.917969 4.800781 -7.679688 C 4.917969 -7.320312 5.398438 -7.078125 6 -7.078125 Z M 4.441406 -54.839844 C 4.199219 -55.078125 4.199219 -55.558594 4.320312 -56.160156 C 6.359375 -67.199219 9.960938 -78.839844 17.039062 -87.957031 C 17.160156 -88.078125 17.28125 -88.078125 17.398438 -88.199219 C 17.519531 -88.316406 17.640625 -88.199219 17.757812 -88.078125 C 17.878906 -87.957031 17.878906 -87.839844 17.878906 -87.597656 C 14.878906 -76.4375 10.199219 -66.117188 5.039062 -55.558594 C 4.917969 -55.4375 4.917969 -55.199219 4.917969 -55.078125 C 4.800781 -54.839844 4.679688 -54.71875 4.441406 -54.839844 Z M 4.441406 -54.839844 "/></g></g></g><g fill="#000000" fill-opacity="1"><g transform="translate(543.259447, 506.294256)"><g><path d="M 0.121094 -30 C 0.71875 -30 1.199219 -30.121094 1.800781 -30.359375 C 2.160156 -30.480469 2.398438 -30.71875 2.640625 -30.839844 C 2.878906 -30.960938 3.121094 -31.199219 3.480469 -31.320312 C 4.441406 -31.917969 19.078125 -45.480469 19.078125 -47.398438 C 18.960938 -47.878906 18.71875 -48.597656 18.121094 -48.597656 C 18 -48.597656 17.757812 -48.480469 17.640625 -48.359375 C 17.28125 -48 17.039062 -47.640625 16.679688 -47.398438 C 16.320312 -47.039062 16.078125 -46.679688 15.71875 -46.320312 L 7.800781 -37.917969 C 6.238281 -36.121094 4.320312 -34.558594 2.160156 -33.238281 C 1.320312 -32.519531 0.601562 -32.039062 -0.238281 -31.917969 L -0.71875 -31.800781 C -1.441406 -31.800781 -1.800781 -32.160156 -1.800781 -33 C -1.921875 -34.199219 -1.800781 -35.519531 -1.558594 -36.839844 C -0.480469 -40.679688 0.960938 -44.277344 3.359375 -47.519531 C 3.601562 -47.878906 3.839844 -48.359375 4.199219 -48.960938 C 4.558594 -49.320312 3.839844 -50.277344 3.480469 -50.277344 C 3.121094 -50.398438 2.761719 -50.160156 2.519531 -49.800781 C -0.480469 -45.597656 -2.878906 -41.277344 -3.71875 -36.121094 C -3.839844 -35.277344 -3.839844 -34.320312 -3.71875 -33.359375 C -3.359375 -31.320312 -1.800781 -30 0.121094 -30 Z M 5.160156 -53.519531 C 5.398438 -53.398438 5.640625 -53.519531 5.878906 -53.757812 C 7.441406 -55.679688 8.640625 -57.839844 9.960938 -60.117188 C 10.078125 -60.238281 10.078125 -60.480469 10.078125 -60.957031 C 9.960938 -61.078125 9.960938 -61.199219 9.960938 -61.320312 C 9.960938 -61.4375 9.839844 -61.4375 9.71875 -61.558594 C 9.601562 -61.679688 9.480469 -61.679688 9.359375 -61.679688 C 9.121094 -61.679688 8.878906 -61.558594 8.761719 -61.199219 C 8.398438 -60.597656 8.039062 -60.117188 7.800781 -59.519531 C 7.441406 -58.917969 7.078125 -58.4375 6.71875 -57.839844 C 6.238281 -57 5.640625 -56.160156 5.039062 -55.199219 L 4.679688 -54.480469 C 4.558594 -54.117188 4.800781 -53.878906 5.160156 -53.519531 Z M 5.160156 -53.519531 "/></g></g></g><g fill="#000000" fill-opacity="1"><g transform="translate(559.579065, 506.294256)"><g><path d="M 0.238281 -30.480469 C 0.71875 -30.480469 1.199219 -30.71875 1.558594 -31.078125 C 4.199219 -33.121094 7.320312 -41.039062 8.28125 -44.277344 C 8.519531 -45.238281 9 -45.71875 9.601562 -45.71875 C 9.839844 -45.71875 10.078125 -45.71875 10.320312 -45.597656 C 13.679688 -45.597656 16.679688 -45.839844 19.917969 -47.160156 C 20.519531 -47.277344 20.640625 -47.640625 20.398438 -48.238281 C 20.28125 -48.597656 19.917969 -48.839844 19.320312 -48.839844 C 18.71875 -48.71875 18.238281 -48.480469 17.878906 -48.359375 C 15.839844 -47.519531 13.558594 -47.277344 11.28125 -47.160156 L 10.558594 -47.160156 C 9.480469 -47.160156 9.359375 -47.398438 9.238281 -48.839844 C 9.121094 -49.800781 8.878906 -50.640625 8.398438 -51.238281 C 8.039062 -51.839844 7.679688 -52.078125 7.320312 -51.957031 C 6.601562 -51.839844 5.878906 -51.71875 5.160156 -51.597656 C 4.441406 -51.480469 3.839844 -51.117188 3.238281 -50.519531 C -0.121094 -46.320312 -2.28125 -41.519531 -2.878906 -36.238281 C -3 -35.039062 -2.878906 -33.960938 -2.519531 -32.878906 C -2.28125 -32.039062 -1.800781 -31.4375 -0.960938 -30.960938 C -0.480469 -30.597656 -0.121094 -30.480469 0.238281 -30.480469 Z M -0.601562 -32.640625 C -1.441406 -33.597656 -1.078125 -34.800781 -0.960938 -35.878906 C -0.480469 -40.4375 1.199219 -44.640625 4.199219 -48.480469 C 4.320312 -48.597656 4.441406 -48.839844 4.800781 -48.960938 C 4.917969 -48.960938 5.160156 -48.839844 5.28125 -48.71875 C 7.078125 -46.917969 7.199219 -46.679688 6.359375 -44.277344 C 5.640625 -42 1.800781 -32.640625 -0.601562 -32.640625 Z M 7.320312 -48.480469 C 6.71875 -48.480469 6.601562 -48.71875 6.71875 -49.320312 C 6.839844 -49.679688 7.078125 -49.917969 7.320312 -49.800781 C 7.441406 -49.800781 7.558594 -49.558594 7.558594 -49.199219 C 7.558594 -48.839844 7.441406 -48.597656 7.320312 -48.480469 Z M 7.320312 -48.480469 "/></g></g></g><g fill="#9f7866" fill-opacity="1"><g transform="translate(377.532773, 72.190496)"><g><path d="M 3.84375 0.203125 C 3.175781 0.203125 2.582031 0.0625 2.0625 -0.21875 C 1.550781 -0.507812 1.148438 -0.90625 0.859375 -1.40625 C 0.566406 -1.914062 0.421875 -2.488281 0.421875 -3.125 C 0.421875 -3.75 0.566406 -4.304688 0.859375 -4.796875 C 1.148438 -5.296875 1.550781 -5.6875 2.0625 -5.96875 C 2.582031 -6.25 3.175781 -6.390625 3.84375 -6.390625 C 4.5 -6.390625 5.082031 -6.242188 5.59375 -5.953125 C 6.113281 -5.671875 6.515625 -5.28125 6.796875 -4.78125 C 7.078125 -4.28125 7.21875 -3.71875 7.21875 -3.09375 C 7.21875 -2.457031 7.070312 -1.890625 6.78125 -1.390625 C 6.5 -0.890625 6.097656 -0.5 5.578125 -0.21875 C 5.066406 0.0625 4.488281 0.203125 3.84375 0.203125 Z M 4 -0.125 C 4.488281 -0.125 4.859375 -0.363281 5.109375 -0.84375 C 5.359375 -1.320312 5.484375 -1.992188 5.484375 -2.859375 C 5.484375 -3.941406 5.316406 -4.742188 4.984375 -5.265625 C 4.648438 -5.785156 4.226562 -6.046875 3.71875 -6.046875 C 3.207031 -6.046875 2.8125 -5.796875 2.53125 -5.296875 C 2.257812 -4.804688 2.125 -4.140625 2.125 -3.296875 C 2.125 -2.347656 2.296875 -1.582031 2.640625 -1 C 2.984375 -0.414062 3.4375 -0.125 4 -0.125 Z M 4 -0.125 "/></g></g></g><g fill="#9f7866" fill-opacity="1"><g transform="translate(385.162458, 72.190496)"><g><path d="M 1.90625 -4.875 C 1.90625 -5.207031 1.878906 -5.445312 1.828125 -5.59375 C 1.773438 -5.75 1.660156 -5.851562 1.484375 -5.90625 C 1.316406 -5.957031 1.046875 -5.984375 0.671875 -5.984375 C 0.648438 -5.984375 0.640625 -6.015625 0.640625 -6.078125 C 0.640625 -6.140625 0.648438 -6.171875 0.671875 -6.171875 C 1.023438 -6.171875 1.296875 -6.164062 1.484375 -6.15625 L 2.65625 -6.140625 L 3.8125 -6.15625 C 4.007812 -6.164062 4.285156 -6.171875 4.640625 -6.171875 C 4.671875 -6.171875 4.6875 -6.140625 4.6875 -6.078125 C 4.6875 -6.015625 4.671875 -5.984375 4.640625 -5.984375 C 4.285156 -5.984375 4.019531 -5.953125 3.84375 -5.890625 C 3.675781 -5.835938 3.5625 -5.734375 3.5 -5.578125 C 3.4375 -5.429688 3.40625 -5.195312 3.40625 -4.875 L 3.40625 -1.296875 C 3.40625 -0.960938 3.429688 -0.722656 3.484375 -0.578125 C 3.535156 -0.429688 3.644531 -0.328125 3.8125 -0.265625 C 3.988281 -0.210938 4.265625 -0.1875 4.640625 -0.1875 C 4.671875 -0.1875 4.6875 -0.15625 4.6875 -0.09375 C 4.6875 -0.03125 4.671875 0 4.640625 0 C 4.285156 0 4.015625 -0.00390625 3.828125 -0.015625 L 2.65625 -0.03125 L 1.5 -0.015625 C 1.300781 -0.00390625 1.023438 0 0.671875 0 C 0.648438 0 0.640625 -0.03125 0.640625 -0.09375 C 0.640625 -0.15625 0.648438 -0.1875 0.671875 -0.1875 C 1.023438 -0.1875 1.285156 -0.21875 1.453125 -0.28125 C 1.628906 -0.34375 1.75 -0.445312 1.8125 -0.59375 C 1.875 -0.738281 1.90625 -0.972656 1.90625 -1.296875 Z M 1.90625 -4.875 "/></g></g></g></svg>