<svg width="108" height="40" viewBox="0 0 108 40" fill="none" xmlns="http://www.w3.org/2000/svg">
<path d="M0.75474 40V0.300475H9.94234L38.6961 28.6573L37.3917 28.3737C37.1649 26.937 36.9758 25.5569 36.8246 24.2336C36.7112 22.9103 36.6166 21.6437 36.541 20.4338C36.4654 19.2239 36.4087 18.0518 36.3709 16.9176C36.3331 15.7833 36.2953 14.649 36.2575 13.5147C36.2575 12.3805 36.2575 11.2462 36.2575 10.1119V0.300475H45.6152V40H36.3142L6.65296 10.7358L8.97821 11.1328C9.09164 11.6999 9.18616 12.3427 9.26178 13.061C9.37521 13.7794 9.46973 14.5923 9.54535 15.4997C9.65878 16.4071 9.7533 17.428 9.82892 18.5623C9.94234 19.6587 10.018 20.8875 10.0558 22.2486C10.0936 23.6098 10.1125 25.1032 10.1125 26.729V40H0.75474ZM97.665 40V0.300475H107.306V40H97.665ZM65.1114 40V0.300475H74.7527V40H65.1114ZM68.8545 24.744L68.9679 16.1236H102.769V24.744H68.8545Z" fill="black" fill-opacity="0.8"/>
</svg>
