<svg width="2020" height="318" viewBox="0 0 2020 318" fill="none" xmlns="http://www.w3.org/2000/svg">
<rect width="2020" height="318" fill="white"/>
<rect x="982.469" y="25" width="55.0612" height="10" rx="5" fill="#004B2C"/>
<path d="M985.531 100.463C983.988 102.475 981.85 103.998 979.115 105.033C976.381 106.068 973.275 106.586 969.799 106.586C966.225 106.586 963.061 105.775 960.307 104.154C957.553 102.533 955.424 100.219 953.92 97.2109C952.436 94.1836 951.664 90.6582 951.605 86.6348V83.2949C951.605 76.8496 953.148 71.8203 956.234 68.207C959.32 64.5742 963.627 62.7578 969.154 62.7578C973.9 62.7578 977.67 63.9297 980.463 66.2734C983.256 68.6172 984.936 71.9961 985.502 76.4102H978.236C977.416 71.2734 974.438 68.7051 969.301 68.7051C965.98 68.7051 963.451 69.9062 961.713 72.3086C959.994 74.6914 959.105 78.1973 959.047 82.8262V86.1074C959.047 90.7168 960.014 94.3008 961.947 96.8594C963.9 99.3984 966.605 100.668 970.062 100.668C973.852 100.668 976.547 99.8086 978.148 98.0898V89.7402H969.359V84.1152H985.531V100.463ZM991.654 89.8574C991.654 86.752 992.27 83.959 993.5 81.4785C994.73 78.9785 996.459 77.0645 998.686 75.7363C1000.91 74.3887 1003.47 73.7148 1006.36 73.7148C1010.64 73.7148 1014.11 75.0918 1016.76 77.8457C1019.44 80.5996 1020.88 84.252 1021.1 88.8027L1021.13 90.4727C1021.13 93.5977 1020.52 96.3906 1019.31 98.8516C1018.12 101.312 1016.4 103.217 1014.15 104.564C1011.93 105.912 1009.35 106.586 1006.42 106.586C1001.95 106.586 998.363 105.102 995.668 102.133C992.992 99.1445 991.654 95.1699 991.654 90.209V89.8574ZM998.773 90.4727C998.773 93.7344 999.447 96.293 1000.79 98.1484C1002.14 99.9844 1004.02 100.902 1006.42 100.902C1008.82 100.902 1010.69 99.9648 1012.02 98.0898C1013.36 96.2148 1014.04 93.4707 1014.04 89.8574C1014.04 86.6543 1013.34 84.1152 1011.96 82.2402C1010.59 80.3652 1008.72 79.4277 1006.36 79.4277C1004.04 79.4277 1002.19 80.3555 1000.82 82.2109C999.457 84.0469 998.773 86.8008 998.773 90.4727ZM1046.09 106C1045.78 105.395 1045.5 104.408 1045.27 103.041C1043 105.404 1040.23 106.586 1036.95 106.586C1033.76 106.586 1031.17 105.678 1029.15 103.861C1027.14 102.045 1026.14 99.7988 1026.14 97.123C1026.14 93.7441 1027.39 91.1562 1029.89 89.3594C1032.41 87.543 1036 86.6348 1040.67 86.6348H1045.03V84.5547C1045.03 82.9141 1044.57 81.6055 1043.66 80.6289C1042.74 79.6328 1041.34 79.1348 1039.47 79.1348C1037.85 79.1348 1036.52 79.5449 1035.48 80.3652C1034.45 81.166 1033.93 82.1914 1033.93 83.4414H1026.81C1026.81 81.7031 1027.39 80.082 1028.54 78.5781C1029.69 77.0547 1031.25 75.8633 1033.23 75.0039C1035.22 74.1445 1037.44 73.7148 1039.88 73.7148C1043.59 73.7148 1046.55 74.6523 1048.75 76.5273C1050.96 78.3828 1052.09 81 1052.15 84.3789V98.6758C1052.15 101.527 1052.55 103.803 1053.35 105.502V106H1046.09ZM1038.27 100.873C1039.67 100.873 1040.99 100.531 1042.22 99.8477C1043.47 99.1641 1044.41 98.2461 1045.03 97.0938V91.1172H1041.2C1038.56 91.1172 1036.58 91.5762 1035.25 92.4941C1033.92 93.4121 1033.26 94.7109 1033.26 96.3906C1033.26 97.7578 1033.71 98.8516 1034.6 99.6719C1035.52 100.473 1036.74 100.873 1038.27 100.873ZM1067.18 106H1060.06V61H1067.18V106Z" fill="black"/>
<path d="M673.994 150.672V172H671.167V150.672H673.994ZM688.716 168.924V149.5H691.44V172H688.95L688.716 168.924ZM678.052 164.251V163.943C678.052 162.732 678.198 161.634 678.491 160.647C678.794 159.651 679.219 158.797 679.766 158.084C680.322 157.371 680.981 156.824 681.743 156.443C682.515 156.053 683.374 155.857 684.321 155.857C685.317 155.857 686.187 156.033 686.929 156.385C687.681 156.727 688.315 157.229 688.833 157.894C689.36 158.548 689.775 159.339 690.078 160.267C690.381 161.194 690.591 162.244 690.708 163.416V164.764C690.601 165.926 690.391 166.971 690.078 167.898C689.775 168.826 689.36 169.617 688.833 170.271C688.315 170.926 687.681 171.429 686.929 171.78C686.177 172.122 685.298 172.293 684.292 172.293C683.364 172.293 682.515 172.093 681.743 171.692C680.981 171.292 680.322 170.73 679.766 170.008C679.219 169.285 678.794 168.436 678.491 167.459C678.198 166.473 678.052 165.403 678.052 164.251ZM680.776 163.943V164.251C680.776 165.042 680.854 165.784 681.011 166.478C681.177 167.171 681.431 167.781 681.772 168.309C682.114 168.836 682.549 169.251 683.076 169.554C683.604 169.847 684.233 169.993 684.966 169.993C685.864 169.993 686.602 169.803 687.178 169.422C687.764 169.041 688.232 168.538 688.584 167.913C688.936 167.288 689.209 166.609 689.404 165.877V162.347C689.287 161.81 689.116 161.292 688.892 160.794C688.677 160.286 688.394 159.837 688.042 159.446C687.7 159.046 687.275 158.729 686.768 158.494C686.27 158.26 685.679 158.143 684.995 158.143C684.253 158.143 683.613 158.299 683.076 158.611C682.549 158.914 682.114 159.334 681.772 159.871C681.431 160.398 681.177 161.014 681.011 161.717C680.854 162.41 680.776 163.152 680.776 163.943ZM702.236 172.293C701.133 172.293 700.132 172.107 699.233 171.736C698.345 171.355 697.578 170.823 696.934 170.14C696.299 169.456 695.811 168.646 695.469 167.708C695.127 166.771 694.956 165.745 694.956 164.632V164.017C694.956 162.728 695.146 161.58 695.527 160.574C695.908 159.559 696.426 158.699 697.08 157.996C697.734 157.293 698.477 156.761 699.307 156.399C700.137 156.038 700.996 155.857 701.885 155.857C703.018 155.857 703.994 156.053 704.814 156.443C705.645 156.834 706.323 157.381 706.851 158.084C707.378 158.777 707.769 159.598 708.022 160.545C708.276 161.482 708.403 162.508 708.403 163.621V164.837H696.567V162.625H705.693V162.42C705.654 161.717 705.508 161.033 705.254 160.369C705.01 159.705 704.619 159.158 704.082 158.729C703.545 158.299 702.812 158.084 701.885 158.084C701.27 158.084 700.703 158.216 700.186 158.479C699.668 158.733 699.224 159.114 698.853 159.622C698.481 160.13 698.193 160.75 697.988 161.482C697.783 162.215 697.681 163.06 697.681 164.017V164.632C697.681 165.384 697.783 166.092 697.988 166.756C698.203 167.41 698.511 167.986 698.911 168.484C699.321 168.982 699.814 169.373 700.391 169.656C700.977 169.939 701.641 170.081 702.383 170.081C703.34 170.081 704.15 169.886 704.814 169.495C705.479 169.104 706.06 168.582 706.558 167.928L708.198 169.231C707.856 169.749 707.422 170.242 706.895 170.711C706.367 171.18 705.718 171.561 704.946 171.854C704.185 172.146 703.281 172.293 702.236 172.293ZM714.277 159.534V172H711.567V156.15H714.131L714.277 159.534ZM713.633 163.475L712.505 163.431C712.515 162.347 712.676 161.346 712.988 160.428C713.301 159.5 713.74 158.694 714.307 158.011C714.873 157.327 715.547 156.8 716.328 156.429C717.119 156.048 717.993 155.857 718.95 155.857C719.731 155.857 720.435 155.965 721.06 156.18C721.685 156.385 722.217 156.717 722.656 157.176C723.105 157.635 723.447 158.23 723.682 158.963C723.916 159.686 724.033 160.569 724.033 161.614V172H721.309V161.585C721.309 160.755 721.187 160.091 720.942 159.593C720.698 159.085 720.342 158.719 719.873 158.494C719.404 158.26 718.828 158.143 718.145 158.143C717.471 158.143 716.855 158.284 716.299 158.567C715.752 158.851 715.278 159.241 714.878 159.739C714.487 160.237 714.18 160.809 713.955 161.453C713.74 162.088 713.633 162.762 713.633 163.475ZM734.785 156.15V158.23H726.216V156.15H734.785ZM729.116 152.298H731.826V168.074C731.826 168.611 731.909 169.017 732.075 169.29C732.241 169.563 732.456 169.744 732.72 169.832C732.983 169.92 733.267 169.964 733.569 169.964C733.794 169.964 734.028 169.944 734.272 169.905C734.526 169.856 734.717 169.817 734.844 169.788L734.858 172C734.644 172.068 734.36 172.132 734.009 172.19C733.667 172.259 733.252 172.293 732.764 172.293C732.1 172.293 731.489 172.161 730.933 171.897C730.376 171.634 729.932 171.194 729.6 170.579C729.277 169.954 729.116 169.114 729.116 168.06V152.298ZM740.908 156.15V172H738.184V156.15H740.908ZM737.979 151.946C737.979 151.507 738.11 151.136 738.374 150.833C738.647 150.53 739.048 150.379 739.575 150.379C740.093 150.379 740.488 150.53 740.762 150.833C741.045 151.136 741.187 151.507 741.187 151.946C741.187 152.366 741.045 152.728 740.762 153.03C740.488 153.323 740.093 153.47 739.575 153.47C739.048 153.47 738.647 153.323 738.374 153.03C738.11 152.728 737.979 152.366 737.979 151.946ZM749.302 172H746.592V154.48C746.592 153.338 746.797 152.376 747.207 151.595C747.627 150.804 748.228 150.208 749.009 149.808C749.79 149.397 750.718 149.192 751.792 149.192C752.104 149.192 752.417 149.212 752.729 149.251C753.052 149.29 753.364 149.349 753.667 149.427L753.521 151.639C753.315 151.59 753.081 151.556 752.817 151.536C752.563 151.517 752.31 151.507 752.056 151.507C751.479 151.507 750.981 151.624 750.562 151.858C750.151 152.083 749.839 152.415 749.624 152.854C749.409 153.294 749.302 153.836 749.302 154.48V172ZM752.671 156.15V158.23H744.087V156.15H752.671ZM760.142 170.359L764.551 156.15H767.451L761.094 174.446C760.947 174.837 760.752 175.257 760.508 175.706C760.273 176.165 759.971 176.6 759.6 177.01C759.229 177.42 758.779 177.752 758.252 178.006C757.734 178.27 757.114 178.401 756.392 178.401C756.177 178.401 755.903 178.372 755.571 178.313C755.239 178.255 755.005 178.206 754.868 178.167L754.854 175.97C754.932 175.979 755.054 175.989 755.22 175.999C755.396 176.019 755.518 176.028 755.586 176.028C756.201 176.028 756.724 175.945 757.153 175.779C757.583 175.623 757.944 175.354 758.237 174.974C758.54 174.603 758.799 174.09 759.014 173.436L760.142 170.359ZM756.904 156.15L761.021 168.455L761.724 171.312L759.775 172.308L753.945 156.15H756.904ZM780.049 159.197V178.094H777.324V156.15H779.814L780.049 159.197ZM790.728 163.943V164.251C790.728 165.403 790.591 166.473 790.317 167.459C790.044 168.436 789.644 169.285 789.116 170.008C788.599 170.73 787.959 171.292 787.197 171.692C786.436 172.093 785.562 172.293 784.575 172.293C783.569 172.293 782.681 172.127 781.909 171.795C781.138 171.463 780.483 170.979 779.946 170.345C779.409 169.71 778.979 168.948 778.657 168.06C778.345 167.171 778.13 166.17 778.013 165.057V163.416C778.13 162.244 778.35 161.194 778.672 160.267C778.994 159.339 779.419 158.548 779.946 157.894C780.483 157.229 781.133 156.727 781.895 156.385C782.656 156.033 783.535 155.857 784.531 155.857C785.527 155.857 786.411 156.053 787.183 156.443C787.954 156.824 788.604 157.371 789.131 158.084C789.658 158.797 790.054 159.651 790.317 160.647C790.591 161.634 790.728 162.732 790.728 163.943ZM788.003 164.251V163.943C788.003 163.152 787.92 162.41 787.754 161.717C787.588 161.014 787.329 160.398 786.978 159.871C786.636 159.334 786.196 158.914 785.659 158.611C785.122 158.299 784.482 158.143 783.74 158.143C783.057 158.143 782.461 158.26 781.953 158.494C781.455 158.729 781.03 159.046 780.679 159.446C780.327 159.837 780.039 160.286 779.814 160.794C779.6 161.292 779.438 161.81 779.331 162.347V166.141C779.526 166.824 779.8 167.469 780.151 168.074C780.503 168.67 780.972 169.153 781.558 169.524C782.144 169.886 782.881 170.066 783.77 170.066C784.502 170.066 785.132 169.915 785.659 169.612C786.196 169.3 786.636 168.875 786.978 168.338C787.329 167.801 787.588 167.186 787.754 166.492C787.92 165.789 788.003 165.042 788.003 164.251ZM796.895 158.641V172H794.185V156.15H796.821L796.895 158.641ZM801.846 156.062L801.831 158.582C801.606 158.533 801.392 158.504 801.187 158.494C800.991 158.475 800.767 158.465 800.513 158.465C799.888 158.465 799.336 158.562 798.857 158.758C798.379 158.953 797.974 159.227 797.642 159.578C797.31 159.93 797.046 160.35 796.851 160.838C796.665 161.316 796.543 161.844 796.484 162.42L795.723 162.859C795.723 161.902 795.815 161.004 796.001 160.164C796.196 159.324 796.494 158.582 796.895 157.938C797.295 157.283 797.803 156.775 798.418 156.414C799.043 156.043 799.785 155.857 800.645 155.857C800.84 155.857 801.064 155.882 801.318 155.931C801.572 155.97 801.748 156.014 801.846 156.062ZM803.34 164.251V163.914C803.34 162.771 803.506 161.712 803.838 160.735C804.17 159.749 804.648 158.895 805.273 158.172C805.898 157.439 806.655 156.873 807.544 156.473C808.433 156.062 809.429 155.857 810.532 155.857C811.646 155.857 812.646 156.062 813.535 156.473C814.434 156.873 815.195 157.439 815.82 158.172C816.455 158.895 816.938 159.749 817.271 160.735C817.603 161.712 817.769 162.771 817.769 163.914V164.251C817.769 165.394 817.603 166.453 817.271 167.43C816.938 168.406 816.455 169.261 815.82 169.993C815.195 170.716 814.438 171.282 813.55 171.692C812.671 172.093 811.675 172.293 810.562 172.293C809.448 172.293 808.447 172.093 807.559 171.692C806.67 171.282 805.908 170.716 805.273 169.993C804.648 169.261 804.17 168.406 803.838 167.43C803.506 166.453 803.34 165.394 803.34 164.251ZM806.05 163.914V164.251C806.05 165.042 806.143 165.789 806.328 166.492C806.514 167.186 806.792 167.801 807.163 168.338C807.544 168.875 808.018 169.3 808.584 169.612C809.15 169.915 809.81 170.066 810.562 170.066C811.304 170.066 811.953 169.915 812.51 169.612C813.076 169.3 813.545 168.875 813.916 168.338C814.287 167.801 814.565 167.186 814.751 166.492C814.946 165.789 815.044 165.042 815.044 164.251V163.914C815.044 163.133 814.946 162.396 814.751 161.702C814.565 160.999 814.282 160.379 813.901 159.842C813.53 159.295 813.062 158.865 812.495 158.553C811.938 158.24 811.284 158.084 810.532 158.084C809.79 158.084 809.136 158.24 808.569 158.553C808.013 158.865 807.544 159.295 807.163 159.842C806.792 160.379 806.514 160.999 806.328 161.702C806.143 162.396 806.05 163.133 806.05 163.914ZM821.152 149.5H823.877V168.924L823.643 172H821.152V149.5ZM834.585 163.943V164.251C834.585 165.403 834.448 166.473 834.175 167.459C833.901 168.436 833.501 169.285 832.974 170.008C832.446 170.73 831.802 171.292 831.04 171.692C830.278 172.093 829.404 172.293 828.418 172.293C827.412 172.293 826.528 172.122 825.767 171.78C825.015 171.429 824.38 170.926 823.862 170.271C823.345 169.617 822.93 168.826 822.617 167.898C822.314 166.971 822.104 165.926 821.987 164.764V163.416C822.104 162.244 822.314 161.194 822.617 160.267C822.93 159.339 823.345 158.548 823.862 157.894C824.38 157.229 825.015 156.727 825.767 156.385C826.519 156.033 827.393 155.857 828.389 155.857C829.385 155.857 830.269 156.053 831.04 156.443C831.812 156.824 832.456 157.371 832.974 158.084C833.501 158.797 833.901 159.651 834.175 160.647C834.448 161.634 834.585 162.732 834.585 163.943ZM831.86 164.251V163.943C831.86 163.152 831.787 162.41 831.641 161.717C831.494 161.014 831.26 160.398 830.938 159.871C830.615 159.334 830.19 158.914 829.663 158.611C829.136 158.299 828.486 158.143 827.715 158.143C827.031 158.143 826.436 158.26 825.928 158.494C825.43 158.729 825.005 159.046 824.653 159.446C824.302 159.837 824.014 160.286 823.789 160.794C823.574 161.292 823.413 161.81 823.306 162.347V165.877C823.462 166.561 823.716 167.22 824.067 167.854C824.429 168.479 824.907 168.992 825.503 169.393C826.108 169.793 826.855 169.993 827.744 169.993C828.477 169.993 829.102 169.847 829.619 169.554C830.146 169.251 830.571 168.836 830.894 168.309C831.226 167.781 831.47 167.171 831.626 166.478C831.782 165.784 831.86 165.042 831.86 164.251ZM840.957 149.5V172H838.232V149.5H840.957ZM851.885 172.293C850.781 172.293 849.78 172.107 848.882 171.736C847.993 171.355 847.227 170.823 846.582 170.14C845.947 169.456 845.459 168.646 845.117 167.708C844.775 166.771 844.604 165.745 844.604 164.632V164.017C844.604 162.728 844.795 161.58 845.176 160.574C845.557 159.559 846.074 158.699 846.729 157.996C847.383 157.293 848.125 156.761 848.955 156.399C849.785 156.038 850.645 155.857 851.533 155.857C852.666 155.857 853.643 156.053 854.463 156.443C855.293 156.834 855.972 157.381 856.499 158.084C857.026 158.777 857.417 159.598 857.671 160.545C857.925 161.482 858.052 162.508 858.052 163.621V164.837H846.216V162.625H855.342V162.42C855.303 161.717 855.156 161.033 854.902 160.369C854.658 159.705 854.268 159.158 853.73 158.729C853.193 158.299 852.461 158.084 851.533 158.084C850.918 158.084 850.352 158.216 849.834 158.479C849.316 158.733 848.872 159.114 848.501 159.622C848.13 160.13 847.842 160.75 847.637 161.482C847.432 162.215 847.329 163.06 847.329 164.017V164.632C847.329 165.384 847.432 166.092 847.637 166.756C847.852 167.41 848.159 167.986 848.56 168.484C848.97 168.982 849.463 169.373 850.039 169.656C850.625 169.939 851.289 170.081 852.031 170.081C852.988 170.081 853.799 169.886 854.463 169.495C855.127 169.104 855.708 168.582 856.206 167.928L857.847 169.231C857.505 169.749 857.07 170.242 856.543 170.711C856.016 171.18 855.366 171.561 854.595 171.854C853.833 172.146 852.93 172.293 851.885 172.293ZM863.911 159.3V172H861.187V156.15H863.765L863.911 159.3ZM863.354 163.475L862.095 163.431C862.104 162.347 862.246 161.346 862.52 160.428C862.793 159.5 863.198 158.694 863.735 158.011C864.272 157.327 864.941 156.8 865.742 156.429C866.543 156.048 867.471 155.857 868.525 155.857C869.268 155.857 869.951 155.965 870.576 156.18C871.201 156.385 871.743 156.712 872.202 157.161C872.661 157.61 873.018 158.187 873.271 158.89C873.525 159.593 873.652 160.442 873.652 161.438V172H870.942V161.57C870.942 160.74 870.801 160.076 870.518 159.578C870.244 159.08 869.854 158.719 869.346 158.494C868.838 158.26 868.242 158.143 867.559 158.143C866.758 158.143 866.089 158.284 865.552 158.567C865.015 158.851 864.585 159.241 864.263 159.739C863.94 160.237 863.706 160.809 863.56 161.453C863.423 162.088 863.354 162.762 863.354 163.475ZM873.623 161.98L871.807 162.537C871.816 161.668 871.958 160.833 872.231 160.032C872.515 159.231 872.92 158.519 873.447 157.894C873.984 157.269 874.644 156.775 875.425 156.414C876.206 156.043 877.1 155.857 878.105 155.857C878.955 155.857 879.707 155.97 880.361 156.194C881.025 156.419 881.582 156.766 882.031 157.234C882.49 157.693 882.837 158.284 883.071 159.007C883.306 159.729 883.423 160.589 883.423 161.585V172H880.698V161.556C880.698 160.667 880.557 159.979 880.273 159.49C880 158.992 879.609 158.646 879.102 158.45C878.604 158.245 878.008 158.143 877.314 158.143C876.719 158.143 876.191 158.245 875.732 158.45C875.273 158.655 874.888 158.938 874.575 159.3C874.263 159.651 874.023 160.057 873.857 160.516C873.701 160.975 873.623 161.463 873.623 161.98ZM896.753 167.796C896.753 167.405 896.665 167.044 896.489 166.712C896.323 166.37 895.977 166.062 895.449 165.789C894.932 165.506 894.15 165.262 893.105 165.057C892.227 164.871 891.431 164.651 890.718 164.397C890.015 164.144 889.414 163.836 888.916 163.475C888.428 163.113 888.052 162.688 887.788 162.2C887.524 161.712 887.393 161.141 887.393 160.486C887.393 159.861 887.529 159.271 887.803 158.714C888.086 158.157 888.481 157.664 888.989 157.234C889.507 156.805 890.127 156.468 890.85 156.224C891.572 155.979 892.378 155.857 893.267 155.857C894.536 155.857 895.62 156.082 896.519 156.531C897.417 156.98 898.105 157.581 898.584 158.333C899.062 159.075 899.302 159.9 899.302 160.809H896.592C896.592 160.369 896.46 159.944 896.196 159.534C895.942 159.114 895.566 158.768 895.068 158.494C894.58 158.221 893.979 158.084 893.267 158.084C892.515 158.084 891.904 158.201 891.436 158.436C890.977 158.66 890.64 158.948 890.425 159.3C890.22 159.651 890.117 160.022 890.117 160.413C890.117 160.706 890.166 160.97 890.264 161.204C890.371 161.429 890.557 161.639 890.82 161.834C891.084 162.02 891.455 162.195 891.934 162.361C892.412 162.527 893.022 162.693 893.765 162.859C895.063 163.152 896.133 163.504 896.973 163.914C897.812 164.324 898.438 164.827 898.848 165.423C899.258 166.019 899.463 166.741 899.463 167.591C899.463 168.284 899.316 168.919 899.023 169.495C898.74 170.071 898.325 170.569 897.778 170.989C897.241 171.399 896.597 171.722 895.845 171.956C895.103 172.181 894.268 172.293 893.34 172.293C891.943 172.293 890.762 172.044 889.795 171.546C888.828 171.048 888.096 170.403 887.598 169.612C887.1 168.821 886.851 167.986 886.851 167.107H889.575C889.614 167.85 889.829 168.44 890.22 168.88C890.61 169.31 891.089 169.617 891.655 169.803C892.222 169.979 892.783 170.066 893.34 170.066C894.082 170.066 894.702 169.969 895.2 169.773C895.708 169.578 896.094 169.31 896.357 168.968C896.621 168.626 896.753 168.235 896.753 167.796ZM914.478 169.188L918.55 156.15H920.337L919.985 158.743L915.84 172H914.097L914.478 169.188ZM911.738 156.15L915.21 169.334L915.459 172H913.628L909.028 156.15H911.738ZM924.233 169.231L927.544 156.15H930.239L925.64 172H923.823L924.233 169.231ZM920.732 156.15L924.717 168.968L925.171 172H923.442L919.18 158.714L918.828 156.15H920.732ZM935.967 156.15V172H933.242V156.15H935.967ZM933.037 151.946C933.037 151.507 933.169 151.136 933.433 150.833C933.706 150.53 934.106 150.379 934.634 150.379C935.151 150.379 935.547 150.53 935.82 150.833C936.104 151.136 936.245 151.507 936.245 151.946C936.245 152.366 936.104 152.728 935.82 153.03C935.547 153.323 935.151 153.47 934.634 153.47C934.106 153.47 933.706 153.323 933.433 153.03C933.169 152.728 933.037 152.366 933.037 151.946ZM946.953 156.15V158.23H938.384V156.15H946.953ZM941.284 152.298H943.994V168.074C943.994 168.611 944.077 169.017 944.243 169.29C944.409 169.563 944.624 169.744 944.888 169.832C945.151 169.92 945.435 169.964 945.737 169.964C945.962 169.964 946.196 169.944 946.44 169.905C946.694 169.856 946.885 169.817 947.012 169.788L947.026 172C946.812 172.068 946.528 172.132 946.177 172.19C945.835 172.259 945.42 172.293 944.932 172.293C944.268 172.293 943.657 172.161 943.101 171.897C942.544 171.634 942.1 171.194 941.768 170.579C941.445 169.954 941.284 169.114 941.284 168.06V152.298ZM952.842 149.5V172H950.132V149.5H952.842ZM952.197 163.475L951.069 163.431C951.079 162.347 951.24 161.346 951.553 160.428C951.865 159.5 952.305 158.694 952.871 158.011C953.438 157.327 954.111 156.8 954.893 156.429C955.684 156.048 956.558 155.857 957.515 155.857C958.296 155.857 958.999 155.965 959.624 156.18C960.249 156.385 960.781 156.717 961.221 157.176C961.67 157.635 962.012 158.23 962.246 158.963C962.48 159.686 962.598 160.569 962.598 161.614V172H959.873V161.585C959.873 160.755 959.751 160.091 959.507 159.593C959.263 159.085 958.906 158.719 958.438 158.494C957.969 158.26 957.393 158.143 956.709 158.143C956.035 158.143 955.42 158.284 954.863 158.567C954.316 158.851 953.843 159.241 953.442 159.739C953.052 160.237 952.744 160.809 952.52 161.453C952.305 162.088 952.197 162.762 952.197 163.475ZM983.325 167.796C983.325 167.405 983.237 167.044 983.062 166.712C982.896 166.37 982.549 166.062 982.021 165.789C981.504 165.506 980.723 165.262 979.678 165.057C978.799 164.871 978.003 164.651 977.29 164.397C976.587 164.144 975.986 163.836 975.488 163.475C975 163.113 974.624 162.688 974.36 162.2C974.097 161.712 973.965 161.141 973.965 160.486C973.965 159.861 974.102 159.271 974.375 158.714C974.658 158.157 975.054 157.664 975.562 157.234C976.079 156.805 976.699 156.468 977.422 156.224C978.145 155.979 978.95 155.857 979.839 155.857C981.108 155.857 982.192 156.082 983.091 156.531C983.989 156.98 984.678 157.581 985.156 158.333C985.635 159.075 985.874 159.9 985.874 160.809H983.164C983.164 160.369 983.032 159.944 982.769 159.534C982.515 159.114 982.139 158.768 981.641 158.494C981.152 158.221 980.552 158.084 979.839 158.084C979.087 158.084 978.477 158.201 978.008 158.436C977.549 158.66 977.212 158.948 976.997 159.3C976.792 159.651 976.689 160.022 976.689 160.413C976.689 160.706 976.738 160.97 976.836 161.204C976.943 161.429 977.129 161.639 977.393 161.834C977.656 162.02 978.027 162.195 978.506 162.361C978.984 162.527 979.595 162.693 980.337 162.859C981.636 163.152 982.705 163.504 983.545 163.914C984.385 164.324 985.01 164.827 985.42 165.423C985.83 166.019 986.035 166.741 986.035 167.591C986.035 168.284 985.889 168.919 985.596 169.495C985.312 170.071 984.897 170.569 984.351 170.989C983.813 171.399 983.169 171.722 982.417 171.956C981.675 172.181 980.84 172.293 979.912 172.293C978.516 172.293 977.334 172.044 976.367 171.546C975.4 171.048 974.668 170.403 974.17 169.612C973.672 168.821 973.423 167.986 973.423 167.107H976.147C976.187 167.85 976.401 168.44 976.792 168.88C977.183 169.31 977.661 169.617 978.228 169.803C978.794 169.979 979.355 170.066 979.912 170.066C980.654 170.066 981.274 169.969 981.772 169.773C982.28 169.578 982.666 169.31 982.93 168.968C983.193 168.626 983.325 168.235 983.325 167.796ZM992.305 159.197V178.094H989.58V156.15H992.07L992.305 159.197ZM1002.98 163.943V164.251C1002.98 165.403 1002.85 166.473 1002.57 167.459C1002.3 168.436 1001.9 169.285 1001.37 170.008C1000.85 170.73 1000.21 171.292 999.453 171.692C998.691 172.093 997.817 172.293 996.831 172.293C995.825 172.293 994.937 172.127 994.165 171.795C993.394 171.463 992.739 170.979 992.202 170.345C991.665 169.71 991.235 168.948 990.913 168.06C990.601 167.171 990.386 166.17 990.269 165.057V163.416C990.386 162.244 990.605 161.194 990.928 160.267C991.25 159.339 991.675 158.548 992.202 157.894C992.739 157.229 993.389 156.727 994.15 156.385C994.912 156.033 995.791 155.857 996.787 155.857C997.783 155.857 998.667 156.053 999.438 156.443C1000.21 156.824 1000.86 157.371 1001.39 158.084C1001.91 158.797 1002.31 159.651 1002.57 160.647C1002.85 161.634 1002.98 162.732 1002.98 163.943ZM1000.26 164.251V163.943C1000.26 163.152 1000.18 162.41 1000.01 161.717C999.844 161.014 999.585 160.398 999.233 159.871C998.892 159.334 998.452 158.914 997.915 158.611C997.378 158.299 996.738 158.143 995.996 158.143C995.312 158.143 994.717 158.26 994.209 158.494C993.711 158.729 993.286 159.046 992.935 159.446C992.583 159.837 992.295 160.286 992.07 160.794C991.855 161.292 991.694 161.81 991.587 162.347V166.141C991.782 166.824 992.056 167.469 992.407 168.074C992.759 168.67 993.228 169.153 993.813 169.524C994.399 169.886 995.137 170.066 996.025 170.066C996.758 170.066 997.388 169.915 997.915 169.612C998.452 169.3 998.892 168.875 999.233 168.338C999.585 167.801 999.844 167.186 1000.01 166.492C1000.18 165.789 1000.26 165.042 1000.26 164.251ZM1013.02 172.293C1011.91 172.293 1010.91 172.107 1010.01 171.736C1009.13 171.355 1008.36 170.823 1007.71 170.14C1007.08 169.456 1006.59 168.646 1006.25 167.708C1005.91 166.771 1005.74 165.745 1005.74 164.632V164.017C1005.74 162.728 1005.93 161.58 1006.31 160.574C1006.69 159.559 1007.21 158.699 1007.86 157.996C1008.52 157.293 1009.26 156.761 1010.09 156.399C1010.92 156.038 1011.78 155.857 1012.67 155.857C1013.8 155.857 1014.78 156.053 1015.6 156.443C1016.43 156.834 1017.1 157.381 1017.63 158.084C1018.16 158.777 1018.55 159.598 1018.8 160.545C1019.06 161.482 1019.18 162.508 1019.18 163.621V164.837H1007.35V162.625H1016.47V162.42C1016.44 161.717 1016.29 161.033 1016.04 160.369C1015.79 159.705 1015.4 159.158 1014.86 158.729C1014.33 158.299 1013.59 158.084 1012.67 158.084C1012.05 158.084 1011.48 158.216 1010.97 158.479C1010.45 158.733 1010 159.114 1009.63 159.622C1009.26 160.13 1008.97 160.75 1008.77 161.482C1008.56 162.215 1008.46 163.06 1008.46 164.017V164.632C1008.46 165.384 1008.56 166.092 1008.77 166.756C1008.98 167.41 1009.29 167.986 1009.69 168.484C1010.1 168.982 1010.6 169.373 1011.17 169.656C1011.76 169.939 1012.42 170.081 1013.16 170.081C1014.12 170.081 1014.93 169.886 1015.6 169.495C1016.26 169.104 1016.84 168.582 1017.34 167.928L1018.98 169.231C1018.64 169.749 1018.2 170.242 1017.68 170.711C1017.15 171.18 1016.5 171.561 1015.73 171.854C1014.97 172.146 1014.06 172.293 1013.02 172.293ZM1028.69 170.066C1029.34 170.066 1029.93 169.935 1030.48 169.671C1031.03 169.407 1031.47 169.046 1031.83 168.587C1032.18 168.118 1032.38 167.586 1032.43 166.99H1035C1034.96 167.928 1034.64 168.802 1034.05 169.612C1033.48 170.413 1032.72 171.062 1031.78 171.561C1030.84 172.049 1029.81 172.293 1028.69 172.293C1027.5 172.293 1026.46 172.083 1025.57 171.663C1024.69 171.243 1023.96 170.667 1023.37 169.935C1022.8 169.202 1022.36 168.362 1022.07 167.415C1021.79 166.458 1021.65 165.447 1021.65 164.383V163.768C1021.65 162.703 1021.79 161.697 1022.07 160.75C1022.36 159.793 1022.8 158.948 1023.37 158.216C1023.96 157.483 1024.69 156.907 1025.57 156.487C1026.46 156.067 1027.5 155.857 1028.69 155.857C1029.93 155.857 1031.02 156.111 1031.94 156.619C1032.87 157.117 1033.6 157.801 1034.13 158.67C1034.66 159.529 1034.96 160.506 1035 161.6H1032.43C1032.38 160.945 1032.19 160.354 1031.87 159.827C1031.56 159.3 1031.13 158.88 1030.58 158.567C1030.04 158.245 1029.41 158.084 1028.69 158.084C1027.86 158.084 1027.16 158.25 1026.6 158.582C1026.04 158.904 1025.6 159.344 1025.26 159.9C1024.94 160.447 1024.71 161.058 1024.56 161.731C1024.42 162.396 1024.36 163.074 1024.36 163.768V164.383C1024.36 165.076 1024.42 165.76 1024.56 166.434C1024.7 167.107 1024.93 167.718 1025.25 168.265C1025.58 168.812 1026.03 169.251 1026.58 169.583C1027.15 169.905 1027.85 170.066 1028.69 170.066ZM1041 156.15V172H1038.27V156.15H1041ZM1038.07 151.946C1038.07 151.507 1038.2 151.136 1038.46 150.833C1038.74 150.53 1039.14 150.379 1039.66 150.379C1040.18 150.379 1040.58 150.53 1040.85 150.833C1041.13 151.136 1041.27 151.507 1041.27 151.946C1041.27 152.366 1041.13 152.728 1040.85 153.03C1040.58 153.323 1040.18 153.47 1039.66 153.47C1039.14 153.47 1038.74 153.323 1038.46 153.03C1038.2 152.728 1038.07 152.366 1038.07 151.946ZM1048.96 172H1046.25V154.773C1046.25 153.572 1046.49 152.557 1046.96 151.727C1047.43 150.896 1048.1 150.267 1048.96 149.837C1049.83 149.407 1050.86 149.192 1052.06 149.192C1052.76 149.192 1053.45 149.28 1054.12 149.456C1054.79 149.622 1055.49 149.832 1056.2 150.086L1055.75 152.371C1055.3 152.195 1054.78 152.029 1054.18 151.873C1053.59 151.707 1052.95 151.624 1052.25 151.624C1051.08 151.624 1050.24 151.888 1049.73 152.415C1049.22 152.933 1048.96 153.719 1048.96 154.773V172ZM1052.2 156.15V158.23H1043.75V156.15H1052.2ZM1057.53 156.15V172H1054.82V156.15H1057.53ZM1068.33 170.066C1068.97 170.066 1069.57 169.935 1070.12 169.671C1070.66 169.407 1071.11 169.046 1071.46 168.587C1071.82 168.118 1072.02 167.586 1072.07 166.99H1074.64C1074.59 167.928 1074.28 168.802 1073.69 169.612C1073.12 170.413 1072.36 171.062 1071.42 171.561C1070.48 172.049 1069.45 172.293 1068.33 172.293C1067.14 172.293 1066.1 172.083 1065.21 171.663C1064.33 171.243 1063.6 170.667 1063.01 169.935C1062.44 169.202 1062 168.362 1061.71 167.415C1061.43 166.458 1061.28 165.447 1061.28 164.383V163.768C1061.28 162.703 1061.43 161.697 1061.71 160.75C1062 159.793 1062.44 158.948 1063.01 158.216C1063.6 157.483 1064.33 156.907 1065.21 156.487C1066.1 156.067 1067.14 155.857 1068.33 155.857C1069.57 155.857 1070.65 156.111 1071.58 156.619C1072.51 157.117 1073.24 157.801 1073.76 158.67C1074.3 159.529 1074.59 160.506 1074.64 161.6H1072.07C1072.02 160.945 1071.83 160.354 1071.51 159.827C1071.2 159.3 1070.77 158.88 1070.22 158.567C1069.68 158.245 1069.05 158.084 1068.33 158.084C1067.5 158.084 1066.8 158.25 1066.24 158.582C1065.68 158.904 1065.23 159.344 1064.9 159.9C1064.58 160.447 1064.35 161.058 1064.2 161.731C1064.06 162.396 1063.99 163.074 1063.99 163.768V164.383C1063.99 165.076 1064.06 165.76 1064.2 166.434C1064.34 167.107 1064.57 167.718 1064.89 168.265C1065.22 168.812 1065.66 169.251 1066.22 169.583C1066.79 169.905 1067.49 170.066 1068.33 170.066ZM1089.17 172H1086.46V154.48C1086.46 153.338 1086.67 152.376 1087.08 151.595C1087.5 150.804 1088.1 150.208 1088.88 149.808C1089.66 149.397 1090.59 149.192 1091.67 149.192C1091.98 149.192 1092.29 149.212 1092.6 149.251C1092.92 149.29 1093.24 149.349 1093.54 149.427L1093.39 151.639C1093.19 151.59 1092.95 151.556 1092.69 151.536C1092.44 151.517 1092.18 151.507 1091.93 151.507C1091.35 151.507 1090.85 151.624 1090.43 151.858C1090.02 152.083 1089.71 152.415 1089.5 152.854C1089.28 153.294 1089.17 153.836 1089.17 154.48V172ZM1092.54 156.15V158.23H1083.96V156.15H1092.54ZM1101.79 172.293C1100.68 172.293 1099.68 172.107 1098.78 171.736C1097.9 171.355 1097.13 170.823 1096.48 170.14C1095.85 169.456 1095.36 168.646 1095.02 167.708C1094.68 166.771 1094.51 165.745 1094.51 164.632V164.017C1094.51 162.728 1094.7 161.58 1095.08 160.574C1095.46 159.559 1095.98 158.699 1096.63 157.996C1097.29 157.293 1098.03 156.761 1098.86 156.399C1099.69 156.038 1100.55 155.857 1101.44 155.857C1102.57 155.857 1103.54 156.053 1104.37 156.443C1105.2 156.834 1105.87 157.381 1106.4 158.084C1106.93 158.777 1107.32 159.598 1107.57 160.545C1107.83 161.482 1107.95 162.508 1107.95 163.621V164.837H1096.12V162.625H1105.24V162.42C1105.21 161.717 1105.06 161.033 1104.8 160.369C1104.56 159.705 1104.17 159.158 1103.63 158.729C1103.1 158.299 1102.36 158.084 1101.44 158.084C1100.82 158.084 1100.25 158.216 1099.74 158.479C1099.22 158.733 1098.77 159.114 1098.4 159.622C1098.03 160.13 1097.74 160.75 1097.54 161.482C1097.33 162.215 1097.23 163.06 1097.23 164.017V164.632C1097.23 165.384 1097.33 166.092 1097.54 166.756C1097.75 167.41 1098.06 167.986 1098.46 168.484C1098.87 168.982 1099.37 169.373 1099.94 169.656C1100.53 169.939 1101.19 170.081 1101.93 170.081C1102.89 170.081 1103.7 169.886 1104.37 169.495C1105.03 169.104 1105.61 168.582 1106.11 167.928L1107.75 169.231C1107.41 169.749 1106.97 170.242 1106.45 170.711C1105.92 171.18 1105.27 171.561 1104.5 171.854C1103.74 172.146 1102.83 172.293 1101.79 172.293ZM1120.46 169.29V161.131C1120.46 160.506 1120.34 159.964 1120.08 159.505C1119.84 159.036 1119.47 158.675 1118.97 158.421C1118.47 158.167 1117.86 158.04 1117.12 158.04C1116.44 158.04 1115.84 158.157 1115.32 158.392C1114.81 158.626 1114.41 158.934 1114.12 159.314C1113.84 159.695 1113.7 160.105 1113.7 160.545H1110.99C1110.99 159.979 1111.13 159.417 1111.43 158.86C1111.72 158.304 1112.14 157.801 1112.69 157.352C1113.24 156.893 1113.91 156.531 1114.68 156.268C1115.46 155.994 1116.33 155.857 1117.29 155.857C1118.44 155.857 1119.45 156.053 1120.33 156.443C1121.22 156.834 1121.91 157.425 1122.41 158.216C1122.92 158.997 1123.17 159.979 1123.17 161.16V168.543C1123.17 169.07 1123.22 169.632 1123.31 170.228C1123.4 170.823 1123.54 171.336 1123.73 171.766V172H1120.9C1120.77 171.688 1120.66 171.272 1120.58 170.755C1120.5 170.228 1120.46 169.739 1120.46 169.29ZM1120.93 162.391L1120.96 164.295H1118.22C1117.45 164.295 1116.76 164.358 1116.16 164.485C1115.55 164.603 1115.04 164.783 1114.63 165.027C1114.22 165.271 1113.91 165.579 1113.7 165.95C1113.48 166.312 1113.37 166.736 1113.37 167.225C1113.37 167.723 1113.49 168.177 1113.71 168.587C1113.94 168.997 1114.27 169.324 1114.72 169.568C1115.18 169.803 1115.74 169.92 1116.41 169.92C1117.24 169.92 1117.97 169.744 1118.6 169.393C1119.24 169.041 1119.74 168.611 1120.11 168.104C1120.49 167.596 1120.7 167.103 1120.73 166.624L1121.88 167.928C1121.82 168.338 1121.63 168.792 1121.33 169.29C1121.03 169.788 1120.62 170.267 1120.11 170.726C1119.61 171.175 1119.02 171.551 1118.33 171.854C1117.64 172.146 1116.87 172.293 1116.01 172.293C1114.94 172.293 1113.99 172.083 1113.18 171.663C1112.38 171.243 1111.76 170.682 1111.31 169.979C1110.87 169.266 1110.65 168.47 1110.65 167.591C1110.65 166.741 1110.82 165.994 1111.15 165.35C1111.48 164.695 1111.96 164.153 1112.58 163.724C1113.21 163.284 1113.96 162.952 1114.84 162.728C1115.72 162.503 1116.7 162.391 1117.78 162.391H1120.93ZM1134.07 156.15V158.23H1125.5V156.15H1134.07ZM1128.4 152.298H1131.11V168.074C1131.11 168.611 1131.2 169.017 1131.36 169.29C1131.53 169.563 1131.74 169.744 1132.01 169.832C1132.27 169.92 1132.55 169.964 1132.86 169.964C1133.08 169.964 1133.32 169.944 1133.56 169.905C1133.81 169.856 1134 169.817 1134.13 169.788L1134.15 172C1133.93 172.068 1133.65 172.132 1133.3 172.19C1132.95 172.259 1132.54 172.293 1132.05 172.293C1131.39 172.293 1130.78 172.161 1130.22 171.897C1129.66 171.634 1129.22 171.194 1128.89 170.579C1128.56 169.954 1128.4 169.114 1128.4 168.06V152.298ZM1146.95 168.338V156.15H1149.67V172H1147.08L1146.95 168.338ZM1147.46 164.998L1148.59 164.969C1148.59 166.023 1148.48 167 1148.25 167.898C1148.04 168.787 1147.69 169.559 1147.2 170.213C1146.71 170.867 1146.07 171.38 1145.28 171.751C1144.49 172.112 1143.53 172.293 1142.39 172.293C1141.62 172.293 1140.91 172.181 1140.27 171.956C1139.63 171.731 1139.09 171.385 1138.63 170.916C1138.17 170.447 1137.81 169.837 1137.56 169.085C1137.31 168.333 1137.19 167.43 1137.19 166.375V156.15H1139.9V166.404C1139.9 167.117 1139.98 167.708 1140.14 168.177C1140.3 168.636 1140.52 169.002 1140.8 169.275C1141.08 169.539 1141.39 169.725 1141.73 169.832C1142.08 169.939 1142.45 169.993 1142.82 169.993C1143.97 169.993 1144.88 169.773 1145.56 169.334C1146.23 168.885 1146.71 168.284 1147.01 167.532C1147.31 166.771 1147.46 165.926 1147.46 164.998ZM1156.51 158.641V172H1153.8V156.15H1156.44L1156.51 158.641ZM1161.46 156.062L1161.45 158.582C1161.23 158.533 1161.01 158.504 1160.81 158.494C1160.61 158.475 1160.39 158.465 1160.13 158.465C1159.51 158.465 1158.96 158.562 1158.48 158.758C1158 158.953 1157.59 159.227 1157.26 159.578C1156.93 159.93 1156.67 160.35 1156.47 160.838C1156.28 161.316 1156.16 161.844 1156.1 162.42L1155.34 162.859C1155.34 161.902 1155.43 161.004 1155.62 160.164C1155.82 159.324 1156.11 158.582 1156.51 157.938C1156.91 157.283 1157.42 156.775 1158.04 156.414C1158.66 156.043 1159.4 155.857 1160.26 155.857C1160.46 155.857 1160.68 155.882 1160.94 155.931C1161.19 155.97 1161.37 156.014 1161.46 156.062ZM1170.25 172.293C1169.15 172.293 1168.15 172.107 1167.25 171.736C1166.36 171.355 1165.6 170.823 1164.95 170.14C1164.32 169.456 1163.83 168.646 1163.49 167.708C1163.14 166.771 1162.97 165.745 1162.97 164.632V164.017C1162.97 162.728 1163.16 161.58 1163.54 160.574C1163.93 159.559 1164.44 158.699 1165.1 157.996C1165.75 157.293 1166.49 156.761 1167.32 156.399C1168.15 156.038 1169.01 155.857 1169.9 155.857C1171.04 155.857 1172.01 156.053 1172.83 156.443C1173.66 156.834 1174.34 157.381 1174.87 158.084C1175.4 158.777 1175.79 159.598 1176.04 160.545C1176.29 161.482 1176.42 162.508 1176.42 163.621V164.837H1164.58V162.625H1173.71V162.42C1173.67 161.717 1173.53 161.033 1173.27 160.369C1173.03 159.705 1172.64 159.158 1172.1 158.729C1171.56 158.299 1170.83 158.084 1169.9 158.084C1169.29 158.084 1168.72 158.216 1168.2 158.479C1167.69 158.733 1167.24 159.114 1166.87 159.622C1166.5 160.13 1166.21 160.75 1166.01 161.482C1165.8 162.215 1165.7 163.06 1165.7 164.017V164.632C1165.7 165.384 1165.8 166.092 1166.01 166.756C1166.22 167.41 1166.53 167.986 1166.93 168.484C1167.34 168.982 1167.83 169.373 1168.41 169.656C1168.99 169.939 1169.66 170.081 1170.4 170.081C1171.36 170.081 1172.17 169.886 1172.83 169.495C1173.5 169.104 1174.08 168.582 1174.58 167.928L1176.22 169.231C1175.87 169.749 1175.44 170.242 1174.91 170.711C1174.38 171.18 1173.74 171.561 1172.96 171.854C1172.2 172.146 1171.3 172.293 1170.25 172.293ZM1188.81 167.796C1188.81 167.405 1188.73 167.044 1188.55 166.712C1188.38 166.37 1188.04 166.062 1187.51 165.789C1186.99 165.506 1186.21 165.262 1185.17 165.057C1184.29 164.871 1183.49 164.651 1182.78 164.397C1182.08 164.144 1181.47 163.836 1180.98 163.475C1180.49 163.113 1180.11 162.688 1179.85 162.2C1179.58 161.712 1179.45 161.141 1179.45 160.486C1179.45 159.861 1179.59 159.271 1179.86 158.714C1180.15 158.157 1180.54 157.664 1181.05 157.234C1181.57 156.805 1182.19 156.468 1182.91 156.224C1183.63 155.979 1184.44 155.857 1185.33 155.857C1186.6 155.857 1187.68 156.082 1188.58 156.531C1189.48 156.98 1190.17 157.581 1190.64 158.333C1191.12 159.075 1191.36 159.9 1191.36 160.809H1188.65C1188.65 160.369 1188.52 159.944 1188.26 159.534C1188 159.114 1187.63 158.768 1187.13 158.494C1186.64 158.221 1186.04 158.084 1185.33 158.084C1184.58 158.084 1183.96 158.201 1183.5 158.436C1183.04 158.66 1182.7 158.948 1182.49 159.3C1182.28 159.651 1182.18 160.022 1182.18 160.413C1182.18 160.706 1182.23 160.97 1182.32 161.204C1182.43 161.429 1182.62 161.639 1182.88 161.834C1183.14 162.02 1183.52 162.195 1183.99 162.361C1184.47 162.527 1185.08 162.693 1185.83 162.859C1187.12 163.152 1188.19 163.504 1189.03 163.914C1189.87 164.324 1190.5 164.827 1190.91 165.423C1191.32 166.019 1191.52 166.741 1191.52 167.591C1191.52 168.284 1191.38 168.919 1191.08 169.495C1190.8 170.071 1190.39 170.569 1189.84 170.989C1189.3 171.399 1188.66 171.722 1187.91 171.956C1187.16 172.181 1186.33 172.293 1185.4 172.293C1184 172.293 1182.82 172.044 1181.86 171.546C1180.89 171.048 1180.16 170.403 1179.66 169.612C1179.16 168.821 1178.91 167.986 1178.91 167.107H1181.64C1181.67 167.85 1181.89 168.44 1182.28 168.88C1182.67 169.31 1183.15 169.617 1183.72 169.803C1184.28 169.979 1184.84 170.066 1185.4 170.066C1186.14 170.066 1186.76 169.969 1187.26 169.773C1187.77 169.578 1188.15 169.31 1188.42 168.968C1188.68 168.626 1188.81 168.235 1188.81 167.796ZM1201.81 164.251V163.914C1201.81 162.771 1201.97 161.712 1202.3 160.735C1202.64 159.749 1203.12 158.895 1203.74 158.172C1204.37 157.439 1205.12 156.873 1206.01 156.473C1206.9 156.062 1207.9 155.857 1209 155.857C1210.11 155.857 1211.11 156.062 1212 156.473C1212.9 156.873 1213.66 157.439 1214.29 158.172C1214.92 158.895 1215.41 159.749 1215.74 160.735C1216.07 161.712 1216.24 162.771 1216.24 163.914V164.251C1216.24 165.394 1216.07 166.453 1215.74 167.43C1215.41 168.406 1214.92 169.261 1214.29 169.993C1213.66 170.716 1212.91 171.282 1212.02 171.692C1211.14 172.093 1210.14 172.293 1209.03 172.293C1207.92 172.293 1206.91 172.093 1206.03 171.692C1205.14 171.282 1204.38 170.716 1203.74 169.993C1203.12 169.261 1202.64 168.406 1202.3 167.43C1201.97 166.453 1201.81 165.394 1201.81 164.251ZM1204.52 163.914V164.251C1204.52 165.042 1204.61 165.789 1204.79 166.492C1204.98 167.186 1205.26 167.801 1205.63 168.338C1206.01 168.875 1206.48 169.3 1207.05 169.612C1207.62 169.915 1208.28 170.066 1209.03 170.066C1209.77 170.066 1210.42 169.915 1210.98 169.612C1211.54 169.3 1212.01 168.875 1212.38 168.338C1212.75 167.801 1213.03 167.186 1213.22 166.492C1213.41 165.789 1213.51 165.042 1213.51 164.251V163.914C1213.51 163.133 1213.41 162.396 1213.22 161.702C1213.03 160.999 1212.75 160.379 1212.37 159.842C1212 159.295 1211.53 158.865 1210.96 158.553C1210.41 158.24 1209.75 158.084 1209 158.084C1208.26 158.084 1207.6 158.24 1207.04 158.553C1206.48 158.865 1206.01 159.295 1205.63 159.842C1205.26 160.379 1204.98 160.999 1204.79 161.702C1204.61 162.396 1204.52 163.133 1204.52 163.914ZM1222.34 158.641V172H1219.63V156.15H1222.27L1222.34 158.641ZM1227.29 156.062L1227.28 158.582C1227.06 158.533 1226.84 158.504 1226.64 158.494C1226.44 158.475 1226.22 158.465 1225.96 158.465C1225.34 158.465 1224.79 158.562 1224.31 158.758C1223.83 158.953 1223.42 159.227 1223.09 159.578C1222.76 159.93 1222.5 160.35 1222.3 160.838C1222.11 161.316 1221.99 161.844 1221.93 162.42L1221.17 162.859C1221.17 161.902 1221.26 161.004 1221.45 160.164C1221.65 159.324 1221.94 158.582 1222.34 157.938C1222.74 157.283 1223.25 156.775 1223.87 156.414C1224.49 156.043 1225.23 155.857 1226.09 155.857C1226.29 155.857 1226.51 155.882 1226.77 155.931C1227.02 155.97 1227.2 156.014 1227.29 156.062ZM1246.59 169.29V161.131C1246.59 160.506 1246.46 159.964 1246.21 159.505C1245.96 159.036 1245.59 158.675 1245.09 158.421C1244.59 158.167 1243.98 158.04 1243.25 158.04C1242.56 158.04 1241.96 158.157 1241.45 158.392C1240.94 158.626 1240.54 158.934 1240.24 159.314C1239.96 159.695 1239.82 160.105 1239.82 160.545H1237.11C1237.11 159.979 1237.26 159.417 1237.55 158.86C1237.84 158.304 1238.26 157.801 1238.81 157.352C1239.37 156.893 1240.03 156.531 1240.8 156.268C1241.58 155.994 1242.45 155.857 1243.41 155.857C1244.56 155.857 1245.58 156.053 1246.46 156.443C1247.34 156.834 1248.04 157.425 1248.54 158.216C1249.04 158.997 1249.3 159.979 1249.3 161.16V168.543C1249.3 169.07 1249.34 169.632 1249.43 170.228C1249.53 170.823 1249.67 171.336 1249.85 171.766V172H1247.03C1246.89 171.688 1246.78 171.272 1246.7 170.755C1246.63 170.228 1246.59 169.739 1246.59 169.29ZM1247.06 162.391L1247.08 164.295H1244.35C1243.57 164.295 1242.89 164.358 1242.28 164.485C1241.67 164.603 1241.17 164.783 1240.76 165.027C1240.35 165.271 1240.03 165.579 1239.82 165.95C1239.6 166.312 1239.5 166.736 1239.5 167.225C1239.5 167.723 1239.61 168.177 1239.83 168.587C1240.06 168.997 1240.4 169.324 1240.84 169.568C1241.3 169.803 1241.87 169.92 1242.53 169.92C1243.36 169.92 1244.09 169.744 1244.73 169.393C1245.36 169.041 1245.86 168.611 1246.24 168.104C1246.62 167.596 1246.82 167.103 1246.85 166.624L1248.01 167.928C1247.94 168.338 1247.75 168.792 1247.45 169.29C1247.15 169.788 1246.74 170.267 1246.24 170.726C1245.74 171.175 1245.14 171.551 1244.45 171.854C1243.76 172.146 1242.99 172.293 1242.13 172.293C1241.06 172.293 1240.12 172.083 1239.31 171.663C1238.51 171.243 1237.88 170.682 1237.43 169.979C1236.99 169.266 1236.77 168.47 1236.77 167.591C1236.77 166.741 1236.94 165.994 1237.27 165.35C1237.6 164.695 1238.08 164.153 1238.71 163.724C1239.33 163.284 1240.08 162.952 1240.96 162.728C1241.84 162.503 1242.82 162.391 1243.91 162.391H1247.06ZM1256.27 158.641V172H1253.56V156.15H1256.2L1256.27 158.641ZM1261.22 156.062L1261.21 158.582C1260.98 158.533 1260.77 158.504 1260.56 158.494C1260.37 158.475 1260.14 158.465 1259.89 158.465C1259.26 158.465 1258.71 158.562 1258.23 158.758C1257.75 158.953 1257.35 159.227 1257.02 159.578C1256.68 159.93 1256.42 160.35 1256.23 160.838C1256.04 161.316 1255.92 161.844 1255.86 162.42L1255.1 162.859C1255.1 161.902 1255.19 161.004 1255.38 160.164C1255.57 159.324 1255.87 158.582 1256.27 157.938C1256.67 157.283 1257.18 156.775 1257.79 156.414C1258.42 156.043 1259.16 155.857 1260.02 155.857C1260.21 155.857 1260.44 155.882 1260.69 155.931C1260.95 155.97 1261.12 156.014 1261.22 156.062ZM1270.01 172.293C1268.91 172.293 1267.91 172.107 1267.01 171.736C1266.12 171.355 1265.35 170.823 1264.71 170.14C1264.07 169.456 1263.58 168.646 1263.24 167.708C1262.9 166.771 1262.73 165.745 1262.73 164.632V164.017C1262.73 162.728 1262.92 161.58 1263.3 160.574C1263.68 159.559 1264.2 158.699 1264.85 157.996C1265.51 157.293 1266.25 156.761 1267.08 156.399C1267.91 156.038 1268.77 155.857 1269.66 155.857C1270.79 155.857 1271.77 156.053 1272.59 156.443C1273.42 156.834 1274.1 157.381 1274.62 158.084C1275.15 158.777 1275.54 159.598 1275.8 160.545C1276.05 161.482 1276.18 162.508 1276.18 163.621V164.837H1264.34V162.625H1273.47V162.42C1273.43 161.717 1273.28 161.033 1273.03 160.369C1272.78 159.705 1272.39 159.158 1271.86 158.729C1271.32 158.299 1270.59 158.084 1269.66 158.084C1269.04 158.084 1268.48 158.216 1267.96 158.479C1267.44 158.733 1267 159.114 1266.63 159.622C1266.25 160.13 1265.97 160.75 1265.76 161.482C1265.56 162.215 1265.45 163.06 1265.45 164.017V164.632C1265.45 165.384 1265.56 166.092 1265.76 166.756C1265.98 167.41 1266.28 167.986 1266.68 168.484C1267.09 168.982 1267.59 169.373 1268.16 169.656C1268.75 169.939 1269.41 170.081 1270.16 170.081C1271.11 170.081 1271.92 169.886 1272.59 169.495C1273.25 169.104 1273.83 168.582 1274.33 167.928L1275.97 169.231C1275.63 169.749 1275.2 170.242 1274.67 170.711C1274.14 171.18 1273.49 171.561 1272.72 171.854C1271.96 172.146 1271.05 172.293 1270.01 172.293ZM1288.69 169.29V161.131C1288.69 160.506 1288.56 159.964 1288.31 159.505C1288.06 159.036 1287.69 158.675 1287.19 158.421C1286.69 158.167 1286.08 158.04 1285.35 158.04C1284.66 158.04 1284.06 158.157 1283.54 158.392C1283.04 158.626 1282.64 158.934 1282.34 159.314C1282.06 159.695 1281.92 160.105 1281.92 160.545H1279.21C1279.21 159.979 1279.36 159.417 1279.65 158.86C1279.94 158.304 1280.36 157.801 1280.91 157.352C1281.46 156.893 1282.13 156.531 1282.9 156.268C1283.68 155.994 1284.55 155.857 1285.51 155.857C1286.66 155.857 1287.68 156.053 1288.55 156.443C1289.44 156.834 1290.14 157.425 1290.63 158.216C1291.14 158.997 1291.4 159.979 1291.4 161.16V168.543C1291.4 169.07 1291.44 169.632 1291.53 170.228C1291.63 170.823 1291.77 171.336 1291.95 171.766V172H1289.13C1288.99 171.688 1288.88 171.272 1288.8 170.755C1288.73 170.228 1288.69 169.739 1288.69 169.29ZM1289.16 162.391L1289.18 164.295H1286.45C1285.67 164.295 1284.99 164.358 1284.38 164.485C1283.77 164.603 1283.27 164.783 1282.86 165.027C1282.45 165.271 1282.13 165.579 1281.92 165.95C1281.7 166.312 1281.6 166.736 1281.6 167.225C1281.6 167.723 1281.71 168.177 1281.93 168.587C1282.16 168.997 1282.5 169.324 1282.94 169.568C1283.4 169.803 1283.96 169.92 1284.63 169.92C1285.46 169.92 1286.19 169.744 1286.83 169.393C1287.46 169.041 1287.96 168.611 1288.33 168.104C1288.72 167.596 1288.92 167.103 1288.95 166.624L1290.11 167.928C1290.04 168.338 1289.85 168.792 1289.55 169.29C1289.25 169.788 1288.84 170.267 1288.33 170.726C1287.84 171.175 1287.24 171.551 1286.55 171.854C1285.86 172.146 1285.09 172.293 1284.23 172.293C1283.16 172.293 1282.22 172.083 1281.41 171.663C1280.61 171.243 1279.98 170.682 1279.53 169.979C1279.09 169.266 1278.87 168.47 1278.87 167.591C1278.87 166.741 1279.04 165.994 1279.37 165.35C1279.7 164.695 1280.18 164.153 1280.81 163.724C1281.43 163.284 1282.18 162.952 1283.06 162.728C1283.94 162.503 1284.92 162.391 1286.01 162.391H1289.16ZM1304.89 167.796C1304.89 167.405 1304.8 167.044 1304.62 166.712C1304.46 166.37 1304.11 166.062 1303.58 165.789C1303.07 165.506 1302.29 165.262 1301.24 165.057C1300.36 164.871 1299.57 164.651 1298.85 164.397C1298.15 164.144 1297.55 163.836 1297.05 163.475C1296.56 163.113 1296.19 162.688 1295.92 162.2C1295.66 161.712 1295.53 161.141 1295.53 160.486C1295.53 159.861 1295.66 159.271 1295.94 158.714C1296.22 158.157 1296.62 157.664 1297.12 157.234C1297.64 156.805 1298.26 156.468 1298.98 156.224C1299.71 155.979 1300.51 155.857 1301.4 155.857C1302.67 155.857 1303.75 156.082 1304.65 156.531C1305.55 156.98 1306.24 157.581 1306.72 158.333C1307.2 159.075 1307.44 159.9 1307.44 160.809H1304.73C1304.73 160.369 1304.59 159.944 1304.33 159.534C1304.08 159.114 1303.7 158.768 1303.2 158.494C1302.71 158.221 1302.11 158.084 1301.4 158.084C1300.65 158.084 1300.04 158.201 1299.57 158.436C1299.11 158.66 1298.77 158.948 1298.56 159.3C1298.35 159.651 1298.25 160.022 1298.25 160.413C1298.25 160.706 1298.3 160.97 1298.4 161.204C1298.51 161.429 1298.69 161.639 1298.96 161.834C1299.22 162.02 1299.59 162.195 1300.07 162.361C1300.55 162.527 1301.16 162.693 1301.9 162.859C1303.2 163.152 1304.27 163.504 1305.11 163.914C1305.95 164.324 1306.57 164.827 1306.98 165.423C1307.39 166.019 1307.6 166.741 1307.6 167.591C1307.6 168.284 1307.45 168.919 1307.16 169.495C1306.88 170.071 1306.46 170.569 1305.91 170.989C1305.38 171.399 1304.73 171.722 1303.98 171.956C1303.24 172.181 1302.4 172.293 1301.47 172.293C1300.08 172.293 1298.9 172.044 1297.93 171.546C1296.96 171.048 1296.23 170.403 1295.73 169.612C1295.23 168.821 1294.99 167.986 1294.99 167.107H1297.71C1297.75 167.85 1297.96 168.44 1298.35 168.88C1298.75 169.31 1299.22 169.617 1299.79 169.803C1300.36 169.979 1300.92 170.066 1301.47 170.066C1302.22 170.066 1302.84 169.969 1303.33 169.773C1303.84 169.578 1304.23 169.31 1304.49 168.968C1304.76 168.626 1304.89 168.235 1304.89 167.796ZM1317.88 164.251V163.914C1317.88 162.771 1318.05 161.712 1318.38 160.735C1318.71 159.749 1319.19 158.895 1319.81 158.172C1320.44 157.439 1321.2 156.873 1322.08 156.473C1322.97 156.062 1323.97 155.857 1325.07 155.857C1326.19 155.857 1327.19 156.062 1328.08 156.473C1328.97 156.873 1329.74 157.439 1330.36 158.172C1331 158.895 1331.48 159.749 1331.81 160.735C1332.14 161.712 1332.31 162.771 1332.31 163.914V164.251C1332.31 165.394 1332.14 166.453 1331.81 167.43C1331.48 168.406 1331 169.261 1330.36 169.993C1329.74 170.716 1328.98 171.282 1328.09 171.692C1327.21 172.093 1326.22 172.293 1325.1 172.293C1323.99 172.293 1322.99 172.093 1322.1 171.692C1321.21 171.282 1320.45 170.716 1319.81 169.993C1319.19 169.261 1318.71 168.406 1318.38 167.43C1318.05 166.453 1317.88 165.394 1317.88 164.251ZM1320.59 163.914V164.251C1320.59 165.042 1320.68 165.789 1320.87 166.492C1321.05 167.186 1321.33 167.801 1321.7 168.338C1322.08 168.875 1322.56 169.3 1323.12 169.612C1323.69 169.915 1324.35 170.066 1325.1 170.066C1325.84 170.066 1326.49 169.915 1327.05 169.612C1327.62 169.3 1328.09 168.875 1328.46 168.338C1328.83 167.801 1329.11 167.186 1329.29 166.492C1329.49 165.789 1329.58 165.042 1329.58 164.251V163.914C1329.58 163.133 1329.49 162.396 1329.29 161.702C1329.11 160.999 1328.82 160.379 1328.44 159.842C1328.07 159.295 1327.6 158.865 1327.04 158.553C1326.48 158.24 1325.83 158.084 1325.07 158.084C1324.33 158.084 1323.68 158.24 1323.11 158.553C1322.55 158.865 1322.08 159.295 1321.7 159.842C1321.33 160.379 1321.05 160.999 1320.87 161.702C1320.68 162.396 1320.59 163.133 1320.59 163.914ZM1339.75 172H1337.04V154.48C1337.04 153.338 1337.25 152.376 1337.66 151.595C1338.08 150.804 1338.68 150.208 1339.46 149.808C1340.24 149.397 1341.17 149.192 1342.24 149.192C1342.55 149.192 1342.87 149.212 1343.18 149.251C1343.5 149.29 1343.81 149.349 1344.12 149.427L1343.97 151.639C1343.76 151.59 1343.53 151.556 1343.27 151.536C1343.01 151.517 1342.76 151.507 1342.5 151.507C1341.93 151.507 1341.43 151.624 1341.01 151.858C1340.6 152.083 1340.29 152.415 1340.07 152.854C1339.86 153.294 1339.75 153.836 1339.75 154.48V172ZM1343.12 156.15V158.23H1334.54V156.15H1343.12ZM845.835 201.15V203.23H837.266V201.15H845.835ZM840.166 197.298H842.876V213.074C842.876 213.611 842.959 214.017 843.125 214.29C843.291 214.563 843.506 214.744 843.77 214.832C844.033 214.92 844.316 214.964 844.619 214.964C844.844 214.964 845.078 214.944 845.322 214.905C845.576 214.856 845.767 214.817 845.894 214.788L845.908 217C845.693 217.068 845.41 217.132 845.059 217.19C844.717 217.259 844.302 217.293 843.813 217.293C843.149 217.293 842.539 217.161 841.982 216.897C841.426 216.634 840.981 216.194 840.649 215.579C840.327 214.954 840.166 214.114 840.166 213.06V197.298ZM851.724 194.5V217H849.014V194.5H851.724ZM851.079 208.475L849.951 208.431C849.961 207.347 850.122 206.346 850.435 205.428C850.747 204.5 851.187 203.694 851.753 203.011C852.319 202.327 852.993 201.8 853.774 201.429C854.565 201.048 855.439 200.857 856.396 200.857C857.178 200.857 857.881 200.965 858.506 201.18C859.131 201.385 859.663 201.717 860.103 202.176C860.552 202.635 860.894 203.23 861.128 203.963C861.362 204.686 861.479 205.569 861.479 206.614V217H858.755V206.585C858.755 205.755 858.633 205.091 858.389 204.593C858.145 204.085 857.788 203.719 857.319 203.494C856.851 203.26 856.274 203.143 855.591 203.143C854.917 203.143 854.302 203.284 853.745 203.567C853.198 203.851 852.725 204.241 852.324 204.739C851.934 205.237 851.626 205.809 851.401 206.453C851.187 207.088 851.079 207.762 851.079 208.475ZM872.114 217.293C871.011 217.293 870.01 217.107 869.111 216.736C868.223 216.355 867.456 215.823 866.812 215.14C866.177 214.456 865.688 213.646 865.347 212.708C865.005 211.771 864.834 210.745 864.834 209.632V209.017C864.834 207.728 865.024 206.58 865.405 205.574C865.786 204.559 866.304 203.699 866.958 202.996C867.612 202.293 868.354 201.761 869.185 201.399C870.015 201.038 870.874 200.857 871.763 200.857C872.896 200.857 873.872 201.053 874.692 201.443C875.522 201.834 876.201 202.381 876.729 203.084C877.256 203.777 877.646 204.598 877.9 205.545C878.154 206.482 878.281 207.508 878.281 208.621V209.837H866.445V207.625H875.571V207.42C875.532 206.717 875.386 206.033 875.132 205.369C874.888 204.705 874.497 204.158 873.96 203.729C873.423 203.299 872.69 203.084 871.763 203.084C871.147 203.084 870.581 203.216 870.063 203.479C869.546 203.733 869.102 204.114 868.73 204.622C868.359 205.13 868.071 205.75 867.866 206.482C867.661 207.215 867.559 208.06 867.559 209.017V209.632C867.559 210.384 867.661 211.092 867.866 211.756C868.081 212.41 868.389 212.986 868.789 213.484C869.199 213.982 869.692 214.373 870.269 214.656C870.854 214.939 871.519 215.081 872.261 215.081C873.218 215.081 874.028 214.886 874.692 214.495C875.356 214.104 875.938 213.582 876.436 212.928L878.076 214.231C877.734 214.749 877.3 215.242 876.772 215.711C876.245 216.18 875.596 216.561 874.824 216.854C874.062 217.146 873.159 217.293 872.114 217.293ZM898.232 214.29V206.131C898.232 205.506 898.105 204.964 897.852 204.505C897.607 204.036 897.236 203.675 896.738 203.421C896.24 203.167 895.625 203.04 894.893 203.04C894.209 203.04 893.608 203.157 893.091 203.392C892.583 203.626 892.183 203.934 891.89 204.314C891.606 204.695 891.465 205.105 891.465 205.545H888.755C888.755 204.979 888.901 204.417 889.194 203.86C889.487 203.304 889.907 202.801 890.454 202.352C891.011 201.893 891.675 201.531 892.446 201.268C893.228 200.994 894.097 200.857 895.054 200.857C896.206 200.857 897.222 201.053 898.101 201.443C898.989 201.834 899.683 202.425 900.181 203.216C900.688 203.997 900.942 204.979 900.942 206.16V213.543C900.942 214.07 900.986 214.632 901.074 215.228C901.172 215.823 901.313 216.336 901.499 216.766V217H898.672C898.535 216.688 898.428 216.272 898.35 215.755C898.271 215.228 898.232 214.739 898.232 214.29ZM898.701 207.391L898.73 209.295H895.991C895.22 209.295 894.531 209.358 893.926 209.485C893.32 209.603 892.812 209.783 892.402 210.027C891.992 210.271 891.68 210.579 891.465 210.95C891.25 211.312 891.143 211.736 891.143 212.225C891.143 212.723 891.255 213.177 891.479 213.587C891.704 213.997 892.041 214.324 892.49 214.568C892.949 214.803 893.511 214.92 894.175 214.92C895.005 214.92 895.737 214.744 896.372 214.393C897.007 214.041 897.51 213.611 897.881 213.104C898.262 212.596 898.467 212.103 898.496 211.624L899.653 212.928C899.585 213.338 899.399 213.792 899.097 214.29C898.794 214.788 898.389 215.267 897.881 215.726C897.383 216.175 896.787 216.551 896.094 216.854C895.41 217.146 894.639 217.293 893.779 217.293C892.705 217.293 891.763 217.083 890.952 216.663C890.151 216.243 889.526 215.682 889.077 214.979C888.638 214.266 888.418 213.47 888.418 212.591C888.418 211.741 888.584 210.994 888.916 210.35C889.248 209.695 889.727 209.153 890.352 208.724C890.977 208.284 891.729 207.952 892.607 207.728C893.486 207.503 894.468 207.391 895.552 207.391H898.701ZM907.915 204.197V223.094H905.19V201.15H907.681L907.915 204.197ZM918.594 208.943V209.251C918.594 210.403 918.457 211.473 918.184 212.459C917.91 213.436 917.51 214.285 916.982 215.008C916.465 215.73 915.825 216.292 915.063 216.692C914.302 217.093 913.428 217.293 912.441 217.293C911.436 217.293 910.547 217.127 909.775 216.795C909.004 216.463 908.35 215.979 907.812 215.345C907.275 214.71 906.846 213.948 906.523 213.06C906.211 212.171 905.996 211.17 905.879 210.057V208.416C905.996 207.244 906.216 206.194 906.538 205.267C906.86 204.339 907.285 203.548 907.812 202.894C908.35 202.229 908.999 201.727 909.761 201.385C910.522 201.033 911.401 200.857 912.397 200.857C913.394 200.857 914.277 201.053 915.049 201.443C915.82 201.824 916.47 202.371 916.997 203.084C917.524 203.797 917.92 204.651 918.184 205.647C918.457 206.634 918.594 207.732 918.594 208.943ZM915.869 209.251V208.943C915.869 208.152 915.786 207.41 915.62 206.717C915.454 206.014 915.195 205.398 914.844 204.871C914.502 204.334 914.062 203.914 913.525 203.611C912.988 203.299 912.349 203.143 911.606 203.143C910.923 203.143 910.327 203.26 909.819 203.494C909.321 203.729 908.896 204.046 908.545 204.446C908.193 204.837 907.905 205.286 907.681 205.794C907.466 206.292 907.305 206.81 907.197 207.347V211.141C907.393 211.824 907.666 212.469 908.018 213.074C908.369 213.67 908.838 214.153 909.424 214.524C910.01 214.886 910.747 215.066 911.636 215.066C912.368 215.066 912.998 214.915 913.525 214.612C914.062 214.3 914.502 213.875 914.844 213.338C915.195 212.801 915.454 212.186 915.62 211.492C915.786 210.789 915.869 210.042 915.869 209.251ZM924.761 204.197V223.094H922.036V201.15H924.526L924.761 204.197ZM935.439 208.943V209.251C935.439 210.403 935.303 211.473 935.029 212.459C934.756 213.436 934.355 214.285 933.828 215.008C933.311 215.73 932.671 216.292 931.909 216.692C931.147 217.093 930.273 217.293 929.287 217.293C928.281 217.293 927.393 217.127 926.621 216.795C925.85 216.463 925.195 215.979 924.658 215.345C924.121 214.71 923.691 213.948 923.369 213.06C923.057 212.171 922.842 211.17 922.725 210.057V208.416C922.842 207.244 923.062 206.194 923.384 205.267C923.706 204.339 924.131 203.548 924.658 202.894C925.195 202.229 925.845 201.727 926.606 201.385C927.368 201.033 928.247 200.857 929.243 200.857C930.239 200.857 931.123 201.053 931.895 201.443C932.666 201.824 933.315 202.371 933.843 203.084C934.37 203.797 934.766 204.651 935.029 205.647C935.303 206.634 935.439 207.732 935.439 208.943ZM932.715 209.251V208.943C932.715 208.152 932.632 207.41 932.466 206.717C932.3 206.014 932.041 205.398 931.689 204.871C931.348 204.334 930.908 203.914 930.371 203.611C929.834 203.299 929.194 203.143 928.452 203.143C927.769 203.143 927.173 203.26 926.665 203.494C926.167 203.729 925.742 204.046 925.391 204.446C925.039 204.837 924.751 205.286 924.526 205.794C924.312 206.292 924.15 206.81 924.043 207.347V211.141C924.238 211.824 924.512 212.469 924.863 213.074C925.215 213.67 925.684 214.153 926.27 214.524C926.855 214.886 927.593 215.066 928.481 215.066C929.214 215.066 929.844 214.915 930.371 214.612C930.908 214.3 931.348 213.875 931.689 213.338C932.041 212.801 932.3 212.186 932.466 211.492C932.632 210.789 932.715 210.042 932.715 209.251ZM952.974 201.15V203.23H944.404V201.15H952.974ZM947.305 197.298H950.015V213.074C950.015 213.611 950.098 214.017 950.264 214.29C950.43 214.563 950.645 214.744 950.908 214.832C951.172 214.92 951.455 214.964 951.758 214.964C951.982 214.964 952.217 214.944 952.461 214.905C952.715 214.856 952.905 214.817 953.032 214.788L953.047 217C952.832 217.068 952.549 217.132 952.197 217.19C951.855 217.259 951.44 217.293 950.952 217.293C950.288 217.293 949.678 217.161 949.121 216.897C948.564 216.634 948.12 216.194 947.788 215.579C947.466 214.954 947.305 214.114 947.305 213.06V197.298ZM958.862 194.5V217H956.152V194.5H958.862ZM958.218 208.475L957.09 208.431C957.1 207.347 957.261 206.346 957.573 205.428C957.886 204.5 958.325 203.694 958.892 203.011C959.458 202.327 960.132 201.8 960.913 201.429C961.704 201.048 962.578 200.857 963.535 200.857C964.316 200.857 965.02 200.965 965.645 201.18C966.27 201.385 966.802 201.717 967.241 202.176C967.69 202.635 968.032 203.23 968.267 203.963C968.501 204.686 968.618 205.569 968.618 206.614V217H965.894V206.585C965.894 205.755 965.771 205.091 965.527 204.593C965.283 204.085 964.927 203.719 964.458 203.494C963.989 203.26 963.413 203.143 962.729 203.143C962.056 203.143 961.44 203.284 960.884 203.567C960.337 203.851 959.863 204.241 959.463 204.739C959.072 205.237 958.765 205.809 958.54 206.453C958.325 207.088 958.218 207.762 958.218 208.475ZM982.021 214.29V206.131C982.021 205.506 981.895 204.964 981.641 204.505C981.396 204.036 981.025 203.675 980.527 203.421C980.029 203.167 979.414 203.04 978.682 203.04C977.998 203.04 977.397 203.157 976.88 203.392C976.372 203.626 975.972 203.934 975.679 204.314C975.396 204.695 975.254 205.105 975.254 205.545H972.544C972.544 204.979 972.69 204.417 972.983 203.86C973.276 203.304 973.696 202.801 974.243 202.352C974.8 201.893 975.464 201.531 976.235 201.268C977.017 200.994 977.886 200.857 978.843 200.857C979.995 200.857 981.011 201.053 981.89 201.443C982.778 201.834 983.472 202.425 983.97 203.216C984.478 203.997 984.731 204.979 984.731 206.16V213.543C984.731 214.07 984.775 214.632 984.863 215.228C984.961 215.823 985.103 216.336 985.288 216.766V217H982.461C982.324 216.688 982.217 216.272 982.139 215.755C982.061 215.228 982.021 214.739 982.021 214.29ZM982.49 207.391L982.52 209.295H979.78C979.009 209.295 978.32 209.358 977.715 209.485C977.109 209.603 976.602 209.783 976.191 210.027C975.781 210.271 975.469 210.579 975.254 210.95C975.039 211.312 974.932 211.736 974.932 212.225C974.932 212.723 975.044 213.177 975.269 213.587C975.493 213.997 975.83 214.324 976.279 214.568C976.738 214.803 977.3 214.92 977.964 214.92C978.794 214.92 979.526 214.744 980.161 214.393C980.796 214.041 981.299 213.611 981.67 213.104C982.051 212.596 982.256 212.103 982.285 211.624L983.442 212.928C983.374 213.338 983.188 213.792 982.886 214.29C982.583 214.788 982.178 215.267 981.67 215.726C981.172 216.175 980.576 216.551 979.883 216.854C979.199 217.146 978.428 217.293 977.568 217.293C976.494 217.293 975.552 217.083 974.741 216.663C973.94 216.243 973.315 215.682 972.866 214.979C972.427 214.266 972.207 213.47 972.207 212.591C972.207 211.741 972.373 210.994 972.705 210.35C973.037 209.695 973.516 209.153 974.141 208.724C974.766 208.284 975.518 207.952 976.396 207.728C977.275 207.503 978.257 207.391 979.341 207.391H982.49ZM995.63 201.15V203.23H987.061V201.15H995.63ZM989.961 197.298H992.671V213.074C992.671 213.611 992.754 214.017 992.92 214.29C993.086 214.563 993.301 214.744 993.564 214.832C993.828 214.92 994.111 214.964 994.414 214.964C994.639 214.964 994.873 214.944 995.117 214.905C995.371 214.856 995.562 214.817 995.688 214.788L995.703 217C995.488 217.068 995.205 217.132 994.854 217.19C994.512 217.259 994.097 217.293 993.608 217.293C992.944 217.293 992.334 217.161 991.777 216.897C991.221 216.634 990.776 216.194 990.444 215.579C990.122 214.954 989.961 214.114 989.961 213.06V197.298ZM1008.96 194.5V217H1006.25V194.5H1008.96ZM1008.32 208.475L1007.19 208.431C1007.2 207.347 1007.36 206.346 1007.67 205.428C1007.98 204.5 1008.42 203.694 1008.99 203.011C1009.56 202.327 1010.23 201.8 1011.01 201.429C1011.8 201.048 1012.68 200.857 1013.63 200.857C1014.41 200.857 1015.12 200.965 1015.74 201.18C1016.37 201.385 1016.9 201.717 1017.34 202.176C1017.79 202.635 1018.13 203.23 1018.36 203.963C1018.6 204.686 1018.72 205.569 1018.72 206.614V217H1015.99V206.585C1015.99 205.755 1015.87 205.091 1015.62 204.593C1015.38 204.085 1015.02 203.719 1014.56 203.494C1014.09 203.26 1013.51 203.143 1012.83 203.143C1012.15 203.143 1011.54 203.284 1010.98 203.567C1010.43 203.851 1009.96 204.241 1009.56 204.739C1009.17 205.237 1008.86 205.809 1008.64 206.453C1008.42 207.088 1008.32 207.762 1008.32 208.475ZM1032.47 213.338V201.15H1035.2V217H1032.6L1032.47 213.338ZM1032.98 209.998L1034.11 209.969C1034.11 211.023 1034 212 1033.77 212.898C1033.56 213.787 1033.21 214.559 1032.72 215.213C1032.23 215.867 1031.59 216.38 1030.8 216.751C1030.01 217.112 1029.05 217.293 1027.92 217.293C1027.14 217.293 1026.44 217.181 1025.79 216.956C1025.16 216.731 1024.61 216.385 1024.15 215.916C1023.69 215.447 1023.33 214.837 1023.08 214.085C1022.84 213.333 1022.71 212.43 1022.71 211.375V201.15H1025.42V211.404C1025.42 212.117 1025.5 212.708 1025.66 213.177C1025.83 213.636 1026.04 214.002 1026.32 214.275C1026.6 214.539 1026.91 214.725 1027.26 214.832C1027.61 214.939 1027.97 214.993 1028.34 214.993C1029.49 214.993 1030.41 214.773 1031.08 214.334C1031.75 213.885 1032.24 213.284 1032.53 212.532C1032.83 211.771 1032.98 210.926 1032.98 209.998ZM1042.04 203.641V217H1039.33V201.15H1041.96L1042.04 203.641ZM1046.99 201.062L1046.97 203.582C1046.75 203.533 1046.53 203.504 1046.33 203.494C1046.13 203.475 1045.91 203.465 1045.65 203.465C1045.03 203.465 1044.48 203.562 1044 203.758C1043.52 203.953 1043.12 204.227 1042.78 204.578C1042.45 204.93 1042.19 205.35 1041.99 205.838C1041.81 206.316 1041.68 206.844 1041.63 207.42L1040.86 207.859C1040.86 206.902 1040.96 206.004 1041.14 205.164C1041.34 204.324 1041.64 203.582 1042.04 202.938C1042.44 202.283 1042.94 201.775 1043.56 201.414C1044.18 201.043 1044.93 200.857 1045.79 200.857C1045.98 200.857 1046.21 200.882 1046.46 200.931C1046.71 200.97 1046.89 201.014 1046.99 201.062ZM1056.86 201.15V203.23H1048.29V201.15H1056.86ZM1051.19 197.298H1053.9V213.074C1053.9 213.611 1053.98 214.017 1054.15 214.29C1054.32 214.563 1054.53 214.744 1054.79 214.832C1055.06 214.92 1055.34 214.964 1055.64 214.964C1055.87 214.964 1056.1 214.944 1056.35 214.905C1056.6 214.856 1056.79 214.817 1056.92 214.788L1056.93 217C1056.72 217.068 1056.44 217.132 1056.08 217.19C1055.74 217.259 1055.33 217.293 1054.84 217.293C1054.17 217.293 1053.56 217.161 1053.01 216.897C1052.45 216.634 1052.01 216.194 1051.67 215.579C1051.35 214.954 1051.19 214.114 1051.19 213.06V197.298ZM1077.18 213.338V201.15H1079.9V217H1077.31L1077.18 213.338ZM1077.69 209.998L1078.82 209.969C1078.82 211.023 1078.71 212 1078.48 212.898C1078.27 213.787 1077.92 214.559 1077.43 215.213C1076.94 215.867 1076.3 216.38 1075.51 216.751C1074.72 217.112 1073.75 217.293 1072.62 217.293C1071.85 217.293 1071.14 217.181 1070.5 216.956C1069.86 216.731 1069.32 216.385 1068.86 215.916C1068.4 215.447 1068.04 214.837 1067.79 214.085C1067.54 213.333 1067.42 212.43 1067.42 211.375V201.15H1070.13V211.404C1070.13 212.117 1070.21 212.708 1070.37 213.177C1070.53 213.636 1070.75 214.002 1071.03 214.275C1071.31 214.539 1071.62 214.725 1071.96 214.832C1072.31 214.939 1072.68 214.993 1073.05 214.993C1074.2 214.993 1075.11 214.773 1075.79 214.334C1076.46 213.885 1076.94 213.284 1077.24 212.532C1077.54 211.771 1077.69 210.926 1077.69 209.998ZM1093.26 212.796C1093.26 212.405 1093.17 212.044 1093 211.712C1092.83 211.37 1092.49 211.062 1091.96 210.789C1091.44 210.506 1090.66 210.262 1089.61 210.057C1088.74 209.871 1087.94 209.651 1087.23 209.397C1086.52 209.144 1085.92 208.836 1085.42 208.475C1084.94 208.113 1084.56 207.688 1084.3 207.2C1084.03 206.712 1083.9 206.141 1083.9 205.486C1083.9 204.861 1084.04 204.271 1084.31 203.714C1084.59 203.157 1084.99 202.664 1085.5 202.234C1086.02 201.805 1086.64 201.468 1087.36 201.224C1088.08 200.979 1088.89 200.857 1089.78 200.857C1091.04 200.857 1092.13 201.082 1093.03 201.531C1093.93 201.98 1094.61 202.581 1095.09 203.333C1095.57 204.075 1095.81 204.9 1095.81 205.809H1093.1C1093.1 205.369 1092.97 204.944 1092.71 204.534C1092.45 204.114 1092.08 203.768 1091.58 203.494C1091.09 203.221 1090.49 203.084 1089.78 203.084C1089.02 203.084 1088.41 203.201 1087.94 203.436C1087.49 203.66 1087.15 203.948 1086.93 204.3C1086.73 204.651 1086.63 205.022 1086.63 205.413C1086.63 205.706 1086.67 205.97 1086.77 206.204C1086.88 206.429 1087.07 206.639 1087.33 206.834C1087.59 207.02 1087.96 207.195 1088.44 207.361C1088.92 207.527 1089.53 207.693 1090.27 207.859C1091.57 208.152 1092.64 208.504 1093.48 208.914C1094.32 209.324 1094.95 209.827 1095.36 210.423C1095.77 211.019 1095.97 211.741 1095.97 212.591C1095.97 213.284 1095.83 213.919 1095.53 214.495C1095.25 215.071 1094.83 215.569 1094.29 215.989C1093.75 216.399 1093.11 216.722 1092.35 216.956C1091.61 217.181 1090.78 217.293 1089.85 217.293C1088.45 217.293 1087.27 217.044 1086.3 216.546C1085.34 216.048 1084.6 215.403 1084.11 214.612C1083.61 213.821 1083.36 212.986 1083.36 212.107H1086.08C1086.12 212.85 1086.34 213.44 1086.73 213.88C1087.12 214.31 1087.6 214.617 1088.16 214.803C1088.73 214.979 1089.29 215.066 1089.85 215.066C1090.59 215.066 1091.21 214.969 1091.71 214.773C1092.22 214.578 1092.6 214.31 1092.87 213.968C1093.13 213.626 1093.26 213.235 1093.26 212.796ZM1108.88 214.29V206.131C1108.88 205.506 1108.75 204.964 1108.5 204.505C1108.25 204.036 1107.88 203.675 1107.38 203.421C1106.88 203.167 1106.27 203.04 1105.54 203.04C1104.85 203.04 1104.25 203.157 1103.74 203.392C1103.23 203.626 1102.83 203.934 1102.53 204.314C1102.25 204.695 1102.11 205.105 1102.11 205.545H1099.4C1099.4 204.979 1099.55 204.417 1099.84 203.86C1100.13 203.304 1100.55 202.801 1101.1 202.352C1101.66 201.893 1102.32 201.531 1103.09 201.268C1103.87 200.994 1104.74 200.857 1105.7 200.857C1106.85 200.857 1107.87 201.053 1108.75 201.443C1109.63 201.834 1110.33 202.425 1110.83 203.216C1111.33 203.997 1111.59 204.979 1111.59 206.16V213.543C1111.59 214.07 1111.63 214.632 1111.72 215.228C1111.82 215.823 1111.96 216.336 1112.14 216.766V217H1109.32C1109.18 216.688 1109.07 216.272 1108.99 215.755C1108.92 215.228 1108.88 214.739 1108.88 214.29ZM1109.35 207.391L1109.38 209.295H1106.64C1105.86 209.295 1105.18 209.358 1104.57 209.485C1103.96 209.603 1103.46 209.783 1103.05 210.027C1102.64 210.271 1102.32 210.579 1102.11 210.95C1101.89 211.312 1101.79 211.736 1101.79 212.225C1101.79 212.723 1101.9 213.177 1102.12 213.587C1102.35 213.997 1102.69 214.324 1103.13 214.568C1103.59 214.803 1104.16 214.92 1104.82 214.92C1105.65 214.92 1106.38 214.744 1107.02 214.393C1107.65 214.041 1108.15 213.611 1108.53 213.104C1108.91 212.596 1109.11 212.103 1109.14 211.624L1110.3 212.928C1110.23 213.338 1110.04 213.792 1109.74 214.29C1109.44 214.788 1109.03 215.267 1108.53 215.726C1108.03 216.175 1107.43 216.551 1106.74 216.854C1106.05 217.146 1105.28 217.293 1104.42 217.293C1103.35 217.293 1102.41 217.083 1101.6 216.663C1100.8 216.243 1100.17 215.682 1099.72 214.979C1099.28 214.266 1099.06 213.47 1099.06 212.591C1099.06 211.741 1099.23 210.994 1099.56 210.35C1099.89 209.695 1100.37 209.153 1101 208.724C1101.62 208.284 1102.37 207.952 1103.25 207.728C1104.13 207.503 1105.11 207.391 1106.2 207.391H1109.35ZM1115.83 194.5H1118.56V213.924L1118.33 217H1115.83V194.5ZM1129.27 208.943V209.251C1129.27 210.403 1129.13 211.473 1128.86 212.459C1128.58 213.436 1128.18 214.285 1127.66 215.008C1127.13 215.73 1126.48 216.292 1125.72 216.692C1124.96 217.093 1124.09 217.293 1123.1 217.293C1122.09 217.293 1121.21 217.122 1120.45 216.78C1119.7 216.429 1119.06 215.926 1118.54 215.271C1118.03 214.617 1117.61 213.826 1117.3 212.898C1117 211.971 1116.79 210.926 1116.67 209.764V208.416C1116.79 207.244 1117 206.194 1117.3 205.267C1117.61 204.339 1118.03 203.548 1118.54 202.894C1119.06 202.229 1119.7 201.727 1120.45 201.385C1121.2 201.033 1122.08 200.857 1123.07 200.857C1124.07 200.857 1124.95 201.053 1125.72 201.443C1126.49 201.824 1127.14 202.371 1127.66 203.084C1128.18 203.797 1128.58 204.651 1128.86 205.647C1129.13 206.634 1129.27 207.732 1129.27 208.943ZM1126.54 209.251V208.943C1126.54 208.152 1126.47 207.41 1126.32 206.717C1126.18 206.014 1125.94 205.398 1125.62 204.871C1125.3 204.334 1124.87 203.914 1124.35 203.611C1123.82 203.299 1123.17 203.143 1122.4 203.143C1121.71 203.143 1121.12 203.26 1120.61 203.494C1120.11 203.729 1119.69 204.046 1119.34 204.446C1118.98 204.837 1118.7 205.286 1118.47 205.794C1118.26 206.292 1118.1 206.81 1117.99 207.347V210.877C1118.14 211.561 1118.4 212.22 1118.75 212.854C1119.11 213.479 1119.59 213.992 1120.19 214.393C1120.79 214.793 1121.54 214.993 1122.43 214.993C1123.16 214.993 1123.78 214.847 1124.3 214.554C1124.83 214.251 1125.25 213.836 1125.58 213.309C1125.91 212.781 1126.15 212.171 1126.31 211.478C1126.46 210.784 1126.54 210.042 1126.54 209.251ZM1135.64 201.15V217H1132.92V201.15H1135.64ZM1132.71 196.946C1132.71 196.507 1132.84 196.136 1133.11 195.833C1133.38 195.53 1133.78 195.379 1134.31 195.379C1134.82 195.379 1135.22 195.53 1135.49 195.833C1135.78 196.136 1135.92 196.507 1135.92 196.946C1135.92 197.366 1135.78 197.728 1135.49 198.03C1135.22 198.323 1134.82 198.47 1134.31 198.47C1133.78 198.47 1133.38 198.323 1133.11 198.03C1132.84 197.728 1132.71 197.366 1132.71 196.946ZM1142.93 194.5V217H1140.21V194.5H1142.93ZM1150.23 201.15V217H1147.5V201.15H1150.23ZM1147.3 196.946C1147.3 196.507 1147.43 196.136 1147.7 195.833C1147.97 195.53 1148.37 195.379 1148.9 195.379C1149.41 195.379 1149.81 195.53 1150.08 195.833C1150.37 196.136 1150.51 196.507 1150.51 196.946C1150.51 197.366 1150.37 197.728 1150.08 198.03C1149.81 198.323 1149.41 198.47 1148.9 198.47C1148.37 198.47 1147.97 198.323 1147.7 198.03C1147.43 197.728 1147.3 197.366 1147.3 196.946ZM1161.22 201.15V203.23H1152.65V201.15H1161.22ZM1155.55 197.298H1158.26V213.074C1158.26 213.611 1158.34 214.017 1158.51 214.29C1158.67 214.563 1158.89 214.744 1159.15 214.832C1159.41 214.92 1159.7 214.964 1160 214.964C1160.22 214.964 1160.46 214.944 1160.7 214.905C1160.96 214.856 1161.15 214.817 1161.27 214.788L1161.29 217C1161.07 217.068 1160.79 217.132 1160.44 217.19C1160.1 217.259 1159.68 217.293 1159.19 217.293C1158.53 217.293 1157.92 217.161 1157.36 216.897C1156.81 216.634 1156.36 216.194 1156.03 215.579C1155.71 214.954 1155.55 214.114 1155.55 213.06V197.298ZM1168.85 215.359L1173.26 201.15H1176.16L1169.8 219.446C1169.65 219.837 1169.46 220.257 1169.21 220.706C1168.98 221.165 1168.68 221.6 1168.31 222.01C1167.93 222.42 1167.49 222.752 1166.96 223.006C1166.44 223.27 1165.82 223.401 1165.1 223.401C1164.88 223.401 1164.61 223.372 1164.28 223.313C1163.95 223.255 1163.71 223.206 1163.57 223.167L1163.56 220.97C1163.64 220.979 1163.76 220.989 1163.93 220.999C1164.1 221.019 1164.22 221.028 1164.29 221.028C1164.91 221.028 1165.43 220.945 1165.86 220.779C1166.29 220.623 1166.65 220.354 1166.94 219.974C1167.25 219.603 1167.5 219.09 1167.72 218.436L1168.85 215.359ZM1165.61 201.15L1169.73 213.455L1170.43 216.312L1168.48 217.308L1162.65 201.15H1165.61ZM1177.07 215.564C1177.07 215.105 1177.21 214.72 1177.49 214.407C1177.78 214.085 1178.2 213.924 1178.75 213.924C1179.3 213.924 1179.71 214.085 1180 214.407C1180.29 214.72 1180.43 215.105 1180.43 215.564C1180.43 216.014 1180.29 216.395 1180 216.707C1179.71 217.02 1179.3 217.176 1178.75 217.176C1178.2 217.176 1177.78 217.02 1177.49 216.707C1177.21 216.395 1177.07 216.014 1177.07 215.564Z" fill="#535353"/>
</svg>
