<svg width="2020" height="423" viewBox="0 0 2020 423" fill="none" xmlns="http://www.w3.org/2000/svg">
<rect width="2020" height="423" fill="white"/>
<path d="M793.83 56.3906V135H780.387V56.3906H793.83ZM818.504 56.3906V67.1886H755.93V56.3906H818.504ZM840.424 52.0714V135H827.466V52.0714H840.424ZM838.156 103.632L833.945 103.578C833.981 99.5466 834.539 95.8213 835.619 92.4019C836.735 88.9826 838.282 86.0131 840.262 83.4936C842.277 80.9381 844.689 78.9764 847.497 77.6087C850.304 76.2049 853.417 75.5031 856.837 75.5031C859.716 75.5031 862.308 75.899 864.611 76.6908C866.951 77.4827 868.967 78.7605 870.658 80.5241C872.35 82.2518 873.628 84.5194 874.491 87.3269C875.391 90.0984 875.841 93.4817 875.841 97.477V135H862.776V97.369C862.776 94.5615 862.362 92.3299 861.534 90.6742C860.742 89.0186 859.572 87.8308 858.025 87.1109C856.477 86.3551 854.587 85.9771 852.356 85.9771C850.016 85.9771 847.946 86.445 846.147 87.3809C844.383 88.3167 842.907 89.5944 841.72 91.2141C840.532 92.8338 839.632 94.7055 839.02 96.8291C838.444 98.9527 838.156 101.22 838.156 103.632ZM921.949 123.284V95.4254C921.949 93.3378 921.571 91.5381 920.815 90.0264C920.059 88.5146 918.907 87.3449 917.36 86.517C915.848 85.6892 913.94 85.2753 911.637 85.2753C909.513 85.2753 907.677 85.6352 906.13 86.3551C904.582 87.0749 903.376 88.0467 902.512 89.2705C901.648 90.4943 901.217 91.88 901.217 93.4277H888.259C888.259 91.1242 888.817 88.8926 889.933 86.733C891.048 84.5734 892.668 82.6477 894.792 80.9561C896.915 79.2644 899.453 77.9326 902.404 76.9608C905.356 75.989 908.667 75.5031 912.338 75.5031C916.73 75.5031 920.617 76.2409 924 77.7167C927.42 79.1924 930.101 81.424 932.045 84.4114C934.024 87.3629 935.014 91.0702 935.014 95.5333V121.503C935.014 124.166 935.194 126.56 935.554 128.683C935.95 130.771 936.508 132.588 937.228 134.136V135H923.892C923.28 133.596 922.795 131.815 922.435 129.655C922.111 127.459 921.949 125.336 921.949 123.284ZM923.838 99.4746L923.946 107.519H914.606C912.194 107.519 910.071 107.753 908.235 108.221C906.4 108.653 904.87 109.301 903.646 110.165C902.422 111.028 901.504 112.072 900.893 113.296C900.281 114.52 899.975 115.906 899.975 117.453C899.975 119.001 900.335 120.423 901.055 121.718C901.774 122.978 902.818 123.968 904.186 124.688C905.59 125.408 907.281 125.768 909.261 125.768C911.925 125.768 914.246 125.228 916.226 124.148C918.241 123.032 919.825 121.682 920.977 120.099C922.129 118.479 922.741 116.949 922.813 115.51L927.024 121.287C926.592 122.762 925.854 124.346 924.81 126.038C923.766 127.729 922.399 129.349 920.707 130.897C919.051 132.408 917.054 133.65 914.714 134.622C912.41 135.594 909.747 136.08 906.723 136.08C902.908 136.08 899.507 135.324 896.519 133.812C893.532 132.265 891.192 130.195 889.501 127.603C887.809 124.976 886.963 122.006 886.963 118.695C886.963 115.6 887.539 112.864 888.691 110.489C889.879 108.077 891.606 106.061 893.874 104.442C896.177 102.822 898.985 101.598 902.296 100.77C905.608 99.9065 909.387 99.4746 913.634 99.4746H923.838ZM961.523 89.0545V135H948.512V76.5829H960.767L961.523 89.0545ZM959.202 103.632L954.991 103.578C955.027 99.4386 955.602 95.6413 956.718 92.186C957.87 88.7306 959.454 85.7612 961.469 83.2776C963.521 80.7941 965.968 78.8864 968.812 77.5547C971.655 76.1869 974.823 75.5031 978.314 75.5031C981.122 75.5031 983.659 75.899 985.927 76.6908C988.23 77.4467 990.192 78.6885 991.812 80.4162C993.467 82.1438 994.727 84.3934 995.591 87.1649C996.455 89.9004 996.887 93.2658 996.887 97.261V135H983.821V97.207C983.821 94.3996 983.407 92.186 982.579 90.5663C981.788 88.9106 980.618 87.7408 979.07 87.0569C977.558 86.3371 975.669 85.9771 973.401 85.9771C971.17 85.9771 969.172 86.445 967.408 87.3809C965.645 88.3167 964.151 89.5944 962.927 91.2141C961.739 92.8338 960.821 94.7055 960.174 96.8291C959.526 98.9527 959.202 101.22 959.202 103.632ZM1023.29 52.0714V135H1010.22V52.0714H1023.29ZM1059.57 76.5829L1034.14 104.766L1020.21 119.019L1016.81 108.005L1027.34 94.9934L1043.86 76.5829H1059.57ZM1046.67 135L1027.71 107.573L1035.92 98.4488L1061.73 135H1046.67ZM1112.32 128.629L1128.19 76.5829H1142.12L1118.69 143.908C1118.15 145.348 1117.45 146.914 1116.58 148.605C1115.72 150.297 1114.58 151.899 1113.18 153.411C1111.81 154.958 1110.1 156.2 1108.05 157.136C1106 158.108 1103.52 158.594 1100.6 158.594C1099.45 158.594 1098.33 158.486 1097.25 158.27C1096.21 158.09 1095.22 157.892 1094.28 157.676L1094.23 147.742C1094.59 147.778 1095.02 147.814 1095.53 147.85C1096.07 147.886 1096.5 147.904 1096.82 147.904C1098.98 147.904 1100.78 147.634 1102.22 147.094C1103.66 146.59 1104.83 145.762 1105.73 144.61C1106.67 143.458 1107.46 141.911 1108.11 139.967L1112.32 128.629ZM1103.35 76.5829L1117.23 120.315L1119.55 134.028L1110.54 136.35L1089.32 76.5829H1103.35ZM1146.22 106.439V105.198C1146.22 100.986 1146.83 97.0811 1148.06 93.4817C1149.28 89.8464 1151.05 86.697 1153.35 84.0335C1155.69 81.334 1158.53 79.2464 1161.88 77.7706C1165.26 76.2589 1169.08 75.5031 1173.33 75.5031C1177.61 75.5031 1181.42 76.2589 1184.77 77.7706C1188.16 79.2464 1191.02 81.334 1193.36 84.0335C1195.7 86.697 1197.48 89.8464 1198.7 93.4817C1199.92 97.0811 1200.54 100.986 1200.54 105.198V106.439C1200.54 110.651 1199.92 114.556 1198.7 118.155C1197.48 121.754 1195.7 124.904 1193.36 127.603C1191.02 130.267 1188.17 132.354 1184.83 133.866C1181.48 135.342 1177.68 136.08 1173.43 136.08C1169.15 136.08 1165.32 135.342 1161.93 133.866C1158.59 132.354 1155.74 130.267 1153.4 127.603C1151.06 124.904 1149.28 121.754 1148.06 118.155C1146.83 114.556 1146.22 110.651 1146.22 106.439ZM1159.23 105.198V106.439C1159.23 109.067 1159.5 111.55 1160.04 113.89C1160.58 116.229 1161.43 118.281 1162.58 120.045C1163.73 121.808 1165.21 123.194 1167.01 124.202C1168.81 125.21 1170.95 125.714 1173.43 125.714C1175.85 125.714 1177.93 125.21 1179.7 124.202C1181.5 123.194 1182.97 121.808 1184.12 120.045C1185.28 118.281 1186.12 116.229 1186.66 113.89C1187.24 111.55 1187.53 109.067 1187.53 106.439V105.198C1187.53 102.606 1187.24 100.158 1186.66 97.8549C1186.12 95.5153 1185.26 93.4457 1184.07 91.6461C1182.92 89.8464 1181.44 88.4427 1179.64 87.4349C1177.88 86.391 1175.77 85.8691 1173.33 85.8691C1170.88 85.8691 1168.75 86.391 1166.96 87.4349C1165.19 88.4427 1163.73 89.8464 1162.58 91.6461C1161.43 93.4457 1160.58 95.5153 1160.04 97.8549C1159.5 100.158 1159.23 102.606 1159.23 105.198ZM1246.59 121.233V76.5829H1259.66V135H1247.35L1246.59 121.233ZM1248.43 109.085L1252.8 108.977C1252.8 112.9 1252.37 116.517 1251.5 119.829C1250.64 123.104 1249.31 125.966 1247.51 128.413C1245.71 130.825 1243.4 132.714 1240.6 134.082C1237.79 135.414 1234.42 136.08 1230.5 136.08C1227.66 136.08 1225.05 135.666 1222.67 134.838C1220.3 134.01 1218.25 132.732 1216.52 131.005C1214.83 129.277 1213.51 127.027 1212.58 124.256C1211.64 121.485 1211.17 118.173 1211.17 114.322V76.5829H1224.18V114.43C1224.18 116.553 1224.44 118.335 1224.94 119.775C1225.44 121.179 1226.13 122.312 1226.99 123.176C1227.86 124.04 1228.86 124.652 1230.02 125.012C1231.17 125.372 1232.39 125.552 1233.69 125.552C1237.39 125.552 1240.31 124.832 1242.43 123.392C1244.59 121.916 1246.12 119.937 1247.02 117.453C1247.96 114.97 1248.43 112.18 1248.43 109.085Z" fill="#004B2C"/>
<path d="M821.602 212.562V241H817.891V212.562H821.602ZM830.742 212.562V215.648H808.77V212.562H830.742ZM838.027 211V241H834.414V211H838.027ZM837.168 229.633L835.664 229.574C835.677 228.129 835.892 226.794 836.309 225.57C836.725 224.333 837.311 223.259 838.066 222.348C838.822 221.436 839.72 220.733 840.762 220.238C841.816 219.73 842.982 219.477 844.258 219.477C845.299 219.477 846.237 219.62 847.07 219.906C847.904 220.18 848.613 220.622 849.199 221.234C849.798 221.846 850.254 222.641 850.566 223.617C850.879 224.581 851.035 225.759 851.035 227.152V241H847.402V227.113C847.402 226.007 847.24 225.121 846.914 224.457C846.589 223.78 846.113 223.292 845.488 222.992C844.863 222.68 844.095 222.523 843.184 222.523C842.285 222.523 841.465 222.712 840.723 223.09C839.993 223.467 839.362 223.988 838.828 224.652C838.307 225.316 837.897 226.078 837.598 226.938C837.311 227.784 837.168 228.682 837.168 229.633ZM868.906 237.387V226.508C868.906 225.674 868.737 224.952 868.398 224.34C868.073 223.715 867.578 223.233 866.914 222.895C866.25 222.556 865.43 222.387 864.453 222.387C863.542 222.387 862.741 222.543 862.051 222.855C861.374 223.168 860.84 223.578 860.449 224.086C860.072 224.594 859.883 225.141 859.883 225.727H856.27C856.27 224.971 856.465 224.223 856.855 223.48C857.246 222.738 857.806 222.068 858.535 221.469C859.277 220.857 860.163 220.375 861.191 220.023C862.233 219.659 863.392 219.477 864.668 219.477C866.204 219.477 867.559 219.737 868.73 220.258C869.915 220.779 870.84 221.566 871.504 222.621C872.181 223.663 872.52 224.971 872.52 226.547V236.391C872.52 237.094 872.578 237.842 872.695 238.637C872.826 239.431 873.014 240.115 873.262 240.688V241H869.492C869.31 240.583 869.167 240.03 869.062 239.34C868.958 238.637 868.906 237.986 868.906 237.387ZM869.531 228.188L869.57 230.727H865.918C864.889 230.727 863.971 230.811 863.164 230.98C862.357 231.137 861.68 231.378 861.133 231.703C860.586 232.029 860.169 232.439 859.883 232.934C859.596 233.415 859.453 233.982 859.453 234.633C859.453 235.297 859.603 235.902 859.902 236.449C860.202 236.996 860.651 237.432 861.25 237.758C861.862 238.07 862.611 238.227 863.496 238.227C864.603 238.227 865.579 237.992 866.426 237.523C867.272 237.055 867.943 236.482 868.438 235.805C868.945 235.128 869.219 234.47 869.258 233.832L870.801 235.57C870.71 236.117 870.462 236.723 870.059 237.387C869.655 238.051 869.115 238.689 868.438 239.301C867.773 239.9 866.979 240.401 866.055 240.805C865.143 241.195 864.115 241.391 862.969 241.391C861.536 241.391 860.28 241.111 859.199 240.551C858.132 239.991 857.298 239.242 856.699 238.305C856.113 237.354 855.82 236.293 855.82 235.121C855.82 233.988 856.042 232.992 856.484 232.133C856.927 231.26 857.565 230.538 858.398 229.965C859.232 229.379 860.234 228.936 861.406 228.637C862.578 228.337 863.887 228.188 865.332 228.188H869.531ZM881.816 224.379V241H878.203V219.867H881.621L881.816 224.379ZM880.957 229.633L879.453 229.574C879.466 228.129 879.681 226.794 880.098 225.57C880.514 224.333 881.1 223.259 881.855 222.348C882.611 221.436 883.509 220.733 884.551 220.238C885.605 219.73 886.771 219.477 888.047 219.477C889.089 219.477 890.026 219.62 890.859 219.906C891.693 220.18 892.402 220.622 892.988 221.234C893.587 221.846 894.043 222.641 894.355 223.617C894.668 224.581 894.824 225.759 894.824 227.152V241H891.191V227.113C891.191 226.007 891.029 225.121 890.703 224.457C890.378 223.78 889.902 223.292 889.277 222.992C888.652 222.68 887.884 222.523 886.973 222.523C886.074 222.523 885.254 222.712 884.512 223.09C883.783 223.467 883.151 223.988 882.617 224.652C882.096 225.316 881.686 226.078 881.387 226.938C881.1 227.784 880.957 228.682 880.957 229.633ZM903.945 211V241H900.312V211H903.945ZM916.855 219.867L907.637 229.73L902.48 235.082L902.188 231.234L905.879 226.82L912.441 219.867H916.855ZM913.555 241L906.016 230.922L907.891 227.699L917.812 241H913.555ZM936.445 238.812L942.324 219.867H946.191L937.715 244.262C937.52 244.783 937.259 245.342 936.934 245.941C936.621 246.553 936.217 247.133 935.723 247.68C935.228 248.227 934.629 248.669 933.926 249.008C933.236 249.359 932.409 249.535 931.445 249.535C931.159 249.535 930.794 249.496 930.352 249.418C929.909 249.34 929.596 249.275 929.414 249.223L929.395 246.293C929.499 246.306 929.661 246.319 929.883 246.332C930.117 246.358 930.28 246.371 930.371 246.371C931.191 246.371 931.888 246.26 932.461 246.039C933.034 245.831 933.516 245.473 933.906 244.965C934.31 244.47 934.655 243.786 934.941 242.914L936.445 238.812ZM932.129 219.867L937.617 236.273L938.555 240.082L935.957 241.41L928.184 219.867H932.129ZM948.184 230.668V230.219C948.184 228.695 948.405 227.283 948.848 225.98C949.29 224.665 949.928 223.526 950.762 222.562C951.595 221.586 952.604 220.831 953.789 220.297C954.974 219.75 956.302 219.477 957.773 219.477C959.258 219.477 960.592 219.75 961.777 220.297C962.975 220.831 963.991 221.586 964.824 222.562C965.671 223.526 966.315 224.665 966.758 225.98C967.201 227.283 967.422 228.695 967.422 230.219V230.668C967.422 232.191 967.201 233.604 966.758 234.906C966.315 236.208 965.671 237.348 964.824 238.324C963.991 239.288 962.982 240.043 961.797 240.59C960.625 241.124 959.297 241.391 957.812 241.391C956.328 241.391 954.993 241.124 953.809 240.59C952.624 240.043 951.608 239.288 950.762 238.324C949.928 237.348 949.29 236.208 948.848 234.906C948.405 233.604 948.184 232.191 948.184 230.668ZM951.797 230.219V230.668C951.797 231.723 951.921 232.719 952.168 233.656C952.415 234.581 952.786 235.401 953.281 236.117C953.789 236.833 954.421 237.4 955.176 237.816C955.931 238.22 956.81 238.422 957.812 238.422C958.802 238.422 959.668 238.22 960.41 237.816C961.165 237.4 961.79 236.833 962.285 236.117C962.78 235.401 963.151 234.581 963.398 233.656C963.659 232.719 963.789 231.723 963.789 230.668V230.219C963.789 229.177 963.659 228.194 963.398 227.27C963.151 226.332 962.773 225.505 962.266 224.789C961.771 224.06 961.146 223.487 960.391 223.07C959.648 222.654 958.776 222.445 957.773 222.445C956.784 222.445 955.911 222.654 955.156 223.07C954.414 223.487 953.789 224.06 953.281 224.789C952.786 225.505 952.415 226.332 952.168 227.27C951.921 228.194 951.797 229.177 951.797 230.219ZM984.883 236.117V219.867H988.516V241H985.059L984.883 236.117ZM985.566 231.664L987.07 231.625C987.07 233.031 986.921 234.333 986.621 235.531C986.335 236.716 985.866 237.745 985.215 238.617C984.564 239.49 983.711 240.173 982.656 240.668C981.602 241.15 980.319 241.391 978.809 241.391C977.78 241.391 976.836 241.241 975.977 240.941C975.13 240.642 974.401 240.18 973.789 239.555C973.177 238.93 972.702 238.116 972.363 237.113C972.038 236.111 971.875 234.906 971.875 233.5V219.867H975.488V233.539C975.488 234.49 975.592 235.277 975.801 235.902C976.022 236.514 976.315 237.003 976.68 237.367C977.057 237.719 977.474 237.966 977.93 238.109C978.398 238.253 978.88 238.324 979.375 238.324C980.911 238.324 982.129 238.031 983.027 237.445C983.926 236.846 984.57 236.046 984.961 235.043C985.365 234.027 985.566 232.901 985.566 231.664ZM1009.34 241H1005.72V217.641C1005.72 216.117 1006 214.835 1006.54 213.793C1007.1 212.738 1007.9 211.944 1008.95 211.41C1009.99 210.863 1011.22 210.59 1012.66 210.59C1013.07 210.59 1013.49 210.616 1013.91 210.668C1014.34 210.72 1014.75 210.798 1015.16 210.902L1014.96 213.852C1014.69 213.786 1014.38 213.741 1014.02 213.715C1013.68 213.689 1013.35 213.676 1013.01 213.676C1012.24 213.676 1011.58 213.832 1011.02 214.145C1010.47 214.444 1010.05 214.887 1009.77 215.473C1009.48 216.059 1009.34 216.781 1009.34 217.641V241ZM1013.83 219.867V222.641H1002.38V219.867H1013.83ZM1016.89 230.668V230.219C1016.89 228.695 1017.12 227.283 1017.56 225.98C1018 224.665 1018.64 223.526 1019.47 222.562C1020.31 221.586 1021.32 220.831 1022.5 220.297C1023.68 219.75 1025.01 219.477 1026.48 219.477C1027.97 219.477 1029.3 219.75 1030.49 220.297C1031.69 220.831 1032.7 221.586 1033.54 222.562C1034.38 223.526 1035.03 224.665 1035.47 225.98C1035.91 227.283 1036.13 228.695 1036.13 230.219V230.668C1036.13 232.191 1035.91 233.604 1035.47 234.906C1035.03 236.208 1034.38 237.348 1033.54 238.324C1032.7 239.288 1031.69 240.043 1030.51 240.59C1029.34 241.124 1028.01 241.391 1026.52 241.391C1025.04 241.391 1023.7 241.124 1022.52 240.59C1021.33 240.043 1020.32 239.288 1019.47 238.324C1018.64 237.348 1018 236.208 1017.56 234.906C1017.12 233.604 1016.89 232.191 1016.89 230.668ZM1020.51 230.219V230.668C1020.51 231.723 1020.63 232.719 1020.88 233.656C1021.13 234.581 1021.5 235.401 1021.99 236.117C1022.5 236.833 1023.13 237.4 1023.89 237.816C1024.64 238.22 1025.52 238.422 1026.52 238.422C1027.51 238.422 1028.38 238.22 1029.12 237.816C1029.88 237.4 1030.5 236.833 1031 236.117C1031.49 235.401 1031.86 234.581 1032.11 233.656C1032.37 232.719 1032.5 231.723 1032.5 230.668V230.219C1032.5 229.177 1032.37 228.194 1032.11 227.27C1031.86 226.332 1031.48 225.505 1030.98 224.789C1030.48 224.06 1029.86 223.487 1029.1 223.07C1028.36 222.654 1027.49 222.445 1026.48 222.445C1025.49 222.445 1024.62 222.654 1023.87 223.07C1023.12 223.487 1022.5 224.06 1021.99 224.789C1021.5 225.505 1021.13 226.332 1020.88 227.27C1020.63 228.194 1020.51 229.177 1020.51 230.219ZM1044.28 223.188V241H1040.66V219.867H1044.18L1044.28 223.188ZM1050.88 219.75L1050.86 223.109C1050.56 223.044 1050.27 223.005 1050 222.992C1049.74 222.966 1049.44 222.953 1049.1 222.953C1048.27 222.953 1047.53 223.083 1046.89 223.344C1046.26 223.604 1045.72 223.969 1045.27 224.438C1044.83 224.906 1044.48 225.466 1044.22 226.117C1043.97 226.755 1043.81 227.458 1043.73 228.227L1042.71 228.812C1042.71 227.536 1042.84 226.339 1043.09 225.219C1043.35 224.099 1043.74 223.109 1044.28 222.25C1044.81 221.378 1045.49 220.701 1046.31 220.219C1047.14 219.724 1048.13 219.477 1049.28 219.477C1049.54 219.477 1049.84 219.509 1050.18 219.574C1050.51 219.626 1050.75 219.685 1050.88 219.75ZM1067.75 223.188V241H1064.14V219.867H1067.66L1067.75 223.188ZM1074.36 219.75L1074.34 223.109C1074.04 223.044 1073.75 223.005 1073.48 222.992C1073.22 222.966 1072.92 222.953 1072.58 222.953C1071.74 222.953 1071.01 223.083 1070.37 223.344C1069.73 223.604 1069.19 223.969 1068.75 224.438C1068.31 224.906 1067.96 225.466 1067.7 226.117C1067.45 226.755 1067.29 227.458 1067.21 228.227L1066.19 228.812C1066.19 227.536 1066.32 226.339 1066.56 225.219C1066.82 224.099 1067.22 223.109 1067.75 222.25C1068.29 221.378 1068.96 220.701 1069.79 220.219C1070.62 219.724 1071.61 219.477 1072.75 219.477C1073.01 219.477 1073.31 219.509 1073.65 219.574C1073.99 219.626 1074.23 219.685 1074.36 219.75ZM1086.07 241.391C1084.6 241.391 1083.27 241.143 1082.07 240.648C1080.89 240.141 1079.86 239.431 1079 238.52C1078.16 237.608 1077.51 236.527 1077.05 235.277C1076.6 234.027 1076.37 232.66 1076.37 231.176V230.355C1076.37 228.637 1076.62 227.107 1077.13 225.766C1077.64 224.411 1078.33 223.266 1079.2 222.328C1080.07 221.391 1081.06 220.681 1082.17 220.199C1083.27 219.717 1084.42 219.477 1085.61 219.477C1087.12 219.477 1088.42 219.737 1089.51 220.258C1090.62 220.779 1091.52 221.508 1092.23 222.445C1092.93 223.37 1093.45 224.464 1093.79 225.727C1094.13 226.977 1094.3 228.344 1094.3 229.828V231.449H1078.52V228.5H1090.68V228.227C1090.63 227.289 1090.44 226.378 1090.1 225.492C1089.77 224.607 1089.25 223.878 1088.54 223.305C1087.82 222.732 1086.84 222.445 1085.61 222.445C1084.79 222.445 1084.03 222.621 1083.34 222.973C1082.65 223.311 1082.06 223.819 1081.56 224.496C1081.07 225.173 1080.68 226 1080.41 226.977C1080.14 227.953 1080 229.079 1080 230.355V231.176C1080 232.178 1080.14 233.122 1080.41 234.008C1080.7 234.88 1081.11 235.648 1081.64 236.312C1082.19 236.977 1082.85 237.497 1083.61 237.875C1084.39 238.253 1085.28 238.441 1086.27 238.441C1087.55 238.441 1088.63 238.181 1089.51 237.66C1090.4 237.139 1091.17 236.443 1091.84 235.57L1094.02 237.309C1093.57 237.999 1092.99 238.656 1092.29 239.281C1091.58 239.906 1090.72 240.414 1089.69 240.805C1088.67 241.195 1087.47 241.391 1086.07 241.391ZM1110.98 237.387V226.508C1110.98 225.674 1110.81 224.952 1110.47 224.34C1110.14 223.715 1109.65 223.233 1108.98 222.895C1108.32 222.556 1107.5 222.387 1106.52 222.387C1105.61 222.387 1104.81 222.543 1104.12 222.855C1103.44 223.168 1102.91 223.578 1102.52 224.086C1102.14 224.594 1101.95 225.141 1101.95 225.727H1098.34C1098.34 224.971 1098.54 224.223 1098.93 223.48C1099.32 222.738 1099.88 222.068 1100.61 221.469C1101.35 220.857 1102.23 220.375 1103.26 220.023C1104.3 219.659 1105.46 219.477 1106.74 219.477C1108.27 219.477 1109.63 219.737 1110.8 220.258C1111.99 220.779 1112.91 221.566 1113.57 222.621C1114.25 223.663 1114.59 224.971 1114.59 226.547V236.391C1114.59 237.094 1114.65 237.842 1114.77 238.637C1114.9 239.431 1115.08 240.115 1115.33 240.688V241H1111.56C1111.38 240.583 1111.24 240.03 1111.13 239.34C1111.03 238.637 1110.98 237.986 1110.98 237.387ZM1111.6 228.188L1111.64 230.727H1107.99C1106.96 230.727 1106.04 230.811 1105.23 230.98C1104.43 231.137 1103.75 231.378 1103.2 231.703C1102.66 232.029 1102.24 232.439 1101.95 232.934C1101.67 233.415 1101.52 233.982 1101.52 234.633C1101.52 235.297 1101.67 235.902 1101.97 236.449C1102.27 236.996 1102.72 237.432 1103.32 237.758C1103.93 238.07 1104.68 238.227 1105.57 238.227C1106.67 238.227 1107.65 237.992 1108.5 237.523C1109.34 237.055 1110.01 236.482 1110.51 235.805C1111.02 235.128 1111.29 234.47 1111.33 233.832L1112.87 235.57C1112.78 236.117 1112.53 236.723 1112.13 237.387C1111.73 238.051 1111.18 238.689 1110.51 239.301C1109.84 239.9 1109.05 240.401 1108.12 240.805C1107.21 241.195 1106.18 241.391 1105.04 241.391C1103.61 241.391 1102.35 241.111 1101.27 240.551C1100.2 239.991 1099.37 239.242 1098.77 238.305C1098.18 237.354 1097.89 236.293 1097.89 235.121C1097.89 233.988 1098.11 232.992 1098.55 232.133C1099 231.26 1099.64 230.538 1100.47 229.965C1101.3 229.379 1102.3 228.936 1103.48 228.637C1104.65 228.337 1105.96 228.188 1107.4 228.188H1111.6ZM1133.59 236.898V211H1137.23V241H1133.91L1133.59 236.898ZM1119.38 230.668V230.258C1119.38 228.643 1119.57 227.178 1119.96 225.863C1120.36 224.535 1120.93 223.396 1121.66 222.445C1122.4 221.495 1123.28 220.766 1124.3 220.258C1125.33 219.737 1126.47 219.477 1127.73 219.477C1129.06 219.477 1130.22 219.711 1131.21 220.18C1132.21 220.635 1133.06 221.306 1133.75 222.191C1134.45 223.064 1135.01 224.118 1135.41 225.355C1135.81 226.592 1136.09 227.992 1136.25 229.555V231.352C1136.11 232.901 1135.83 234.294 1135.41 235.531C1135.01 236.768 1134.45 237.823 1133.75 238.695C1133.06 239.568 1132.21 240.238 1131.21 240.707C1130.21 241.163 1129.04 241.391 1127.7 241.391C1126.46 241.391 1125.33 241.124 1124.3 240.59C1123.28 240.056 1122.4 239.307 1121.66 238.344C1120.93 237.38 1120.36 236.247 1119.96 234.945C1119.57 233.63 1119.38 232.204 1119.38 230.668ZM1123.01 230.258V230.668C1123.01 231.723 1123.11 232.712 1123.32 233.637C1123.54 234.561 1123.88 235.375 1124.34 236.078C1124.79 236.781 1125.37 237.335 1126.07 237.738C1126.78 238.129 1127.62 238.324 1128.59 238.324C1129.79 238.324 1130.77 238.07 1131.54 237.562C1132.32 237.055 1132.95 236.384 1133.42 235.551C1133.89 234.717 1134.25 233.812 1134.51 232.836V228.129C1134.36 227.413 1134.13 226.723 1133.83 226.059C1133.54 225.382 1133.16 224.783 1132.7 224.262C1132.24 223.728 1131.67 223.305 1131 222.992C1130.33 222.68 1129.54 222.523 1128.63 222.523C1127.64 222.523 1126.79 222.732 1126.07 223.148C1125.37 223.552 1124.79 224.112 1124.34 224.828C1123.88 225.531 1123.54 226.352 1123.32 227.289C1123.11 228.214 1123.01 229.203 1123.01 230.258ZM1146.78 219.867V241H1143.14V219.867H1146.78ZM1142.87 214.262C1142.87 213.676 1143.05 213.181 1143.4 212.777C1143.76 212.374 1144.3 212.172 1145 212.172C1145.69 212.172 1146.22 212.374 1146.58 212.777C1146.96 213.181 1147.15 213.676 1147.15 214.262C1147.15 214.822 1146.96 215.303 1146.58 215.707C1146.22 216.098 1145.69 216.293 1145 216.293C1144.3 216.293 1143.76 216.098 1143.4 215.707C1143.05 215.303 1142.87 214.822 1142.87 214.262ZM1156.19 224.379V241H1152.58V219.867H1156L1156.19 224.379ZM1155.33 229.633L1153.83 229.574C1153.84 228.129 1154.06 226.794 1154.47 225.57C1154.89 224.333 1155.48 223.259 1156.23 222.348C1156.99 221.436 1157.88 220.733 1158.93 220.238C1159.98 219.73 1161.15 219.477 1162.42 219.477C1163.46 219.477 1164.4 219.62 1165.23 219.906C1166.07 220.18 1166.78 220.622 1167.36 221.234C1167.96 221.846 1168.42 222.641 1168.73 223.617C1169.04 224.581 1169.2 225.759 1169.2 227.152V241H1165.57V227.113C1165.57 226.007 1165.4 225.121 1165.08 224.457C1164.75 223.78 1164.28 223.292 1163.65 222.992C1163.03 222.68 1162.26 222.523 1161.35 222.523C1160.45 222.523 1159.63 222.712 1158.89 223.09C1158.16 223.467 1157.53 223.988 1156.99 224.652C1156.47 225.316 1156.06 226.078 1155.76 226.938C1155.48 227.784 1155.33 228.682 1155.33 229.633ZM1188.38 219.867H1191.66V240.551C1191.66 242.413 1191.28 244.001 1190.53 245.316C1189.77 246.632 1188.72 247.628 1187.36 248.305C1186.02 248.995 1184.47 249.34 1182.71 249.34C1181.99 249.34 1181.13 249.223 1180.14 248.988C1179.16 248.767 1178.2 248.383 1177.25 247.836C1176.31 247.302 1175.52 246.579 1174.88 245.668L1176.78 243.52C1177.66 244.587 1178.59 245.329 1179.55 245.746C1180.53 246.163 1181.49 246.371 1182.44 246.371C1183.59 246.371 1184.58 246.156 1185.41 245.727C1186.24 245.297 1186.89 244.659 1187.34 243.812C1187.81 242.979 1188.05 241.951 1188.05 240.727V224.516L1188.38 219.867ZM1173.83 230.668V230.258C1173.83 228.643 1174.02 227.178 1174.39 225.863C1174.79 224.535 1175.34 223.396 1176.05 222.445C1176.78 221.495 1177.66 220.766 1178.69 220.258C1179.72 219.737 1180.88 219.477 1182.17 219.477C1183.5 219.477 1184.65 219.711 1185.64 220.18C1186.65 220.635 1187.49 221.306 1188.18 222.191C1188.89 223.064 1189.44 224.118 1189.84 225.355C1190.25 226.592 1190.53 227.992 1190.68 229.555V231.352C1190.54 232.901 1190.26 234.294 1189.84 235.531C1189.44 236.768 1188.89 237.823 1188.18 238.695C1187.49 239.568 1186.65 240.238 1185.64 240.707C1184.64 241.163 1183.47 241.391 1182.13 241.391C1180.87 241.391 1179.72 241.124 1178.69 240.59C1177.68 240.056 1176.8 239.307 1176.07 238.344C1175.35 237.38 1174.79 236.247 1174.39 234.945C1174.02 233.63 1173.83 232.204 1173.83 230.668ZM1177.44 230.258V230.668C1177.44 231.723 1177.55 232.712 1177.75 233.637C1177.98 234.561 1178.31 235.375 1178.75 236.078C1179.21 236.781 1179.79 237.335 1180.49 237.738C1181.19 238.129 1182.03 238.324 1183.01 238.324C1184.21 238.324 1185.2 238.07 1185.98 237.562C1186.76 237.055 1187.38 236.384 1187.83 235.551C1188.3 234.717 1188.67 233.812 1188.93 232.836V228.129C1188.78 227.413 1188.56 226.723 1188.26 226.059C1187.98 225.382 1187.6 224.783 1187.13 224.262C1186.67 223.728 1186.11 223.305 1185.43 222.992C1184.75 222.68 1183.96 222.523 1183.05 222.523C1182.06 222.523 1181.2 222.732 1180.49 223.148C1179.79 223.552 1179.21 224.112 1178.75 224.828C1178.31 225.531 1177.98 226.352 1177.75 227.289C1177.55 228.214 1177.44 229.203 1177.44 230.258ZM1200.43 236.703V239.613C1200.43 240.798 1200.13 242.048 1199.53 243.363C1198.93 244.691 1198.09 245.798 1197.01 246.684L1194.96 245.258C1195.38 244.685 1195.73 244.099 1196.02 243.5C1196.3 242.914 1196.52 242.302 1196.66 241.664C1196.82 241.039 1196.89 240.375 1196.89 239.672V236.703H1200.43ZM752.617 284.387V273.508C752.617 272.674 752.448 271.952 752.109 271.34C751.784 270.715 751.289 270.233 750.625 269.895C749.961 269.556 749.141 269.387 748.164 269.387C747.253 269.387 746.452 269.543 745.762 269.855C745.085 270.168 744.551 270.578 744.16 271.086C743.783 271.594 743.594 272.141 743.594 272.727H739.98C739.98 271.971 740.176 271.223 740.566 270.48C740.957 269.738 741.517 269.068 742.246 268.469C742.988 267.857 743.874 267.375 744.902 267.023C745.944 266.659 747.103 266.477 748.379 266.477C749.915 266.477 751.27 266.737 752.441 267.258C753.626 267.779 754.551 268.566 755.215 269.621C755.892 270.663 756.23 271.971 756.23 273.547V283.391C756.23 284.094 756.289 284.842 756.406 285.637C756.536 286.431 756.725 287.115 756.973 287.688V288H753.203C753.021 287.583 752.878 287.03 752.773 286.34C752.669 285.637 752.617 284.986 752.617 284.387ZM753.242 275.188L753.281 277.727H749.629C748.6 277.727 747.682 277.811 746.875 277.98C746.068 278.137 745.391 278.378 744.844 278.703C744.297 279.029 743.88 279.439 743.594 279.934C743.307 280.415 743.164 280.982 743.164 281.633C743.164 282.297 743.314 282.902 743.613 283.449C743.913 283.996 744.362 284.432 744.961 284.758C745.573 285.07 746.322 285.227 747.207 285.227C748.314 285.227 749.29 284.992 750.137 284.523C750.983 284.055 751.654 283.482 752.148 282.805C752.656 282.128 752.93 281.47 752.969 280.832L754.512 282.57C754.421 283.117 754.173 283.723 753.77 284.387C753.366 285.051 752.826 285.689 752.148 286.301C751.484 286.9 750.69 287.401 749.766 287.805C748.854 288.195 747.826 288.391 746.68 288.391C745.247 288.391 743.991 288.111 742.91 287.551C741.842 286.991 741.009 286.242 740.41 285.305C739.824 284.354 739.531 283.293 739.531 282.121C739.531 280.988 739.753 279.992 740.195 279.133C740.638 278.26 741.276 277.538 742.109 276.965C742.943 276.379 743.945 275.936 745.117 275.637C746.289 275.337 747.598 275.188 749.043 275.188H753.242ZM765.84 258V288H762.207V258H765.84ZM776.992 284.25L782.422 266.867H784.805L784.336 270.324L778.809 288H776.484L776.992 284.25ZM773.34 266.867L777.969 284.445L778.301 288H775.859L769.727 266.867H773.34ZM790 284.309L794.414 266.867H798.008L791.875 288H789.453L790 284.309ZM785.332 266.867L790.645 283.957L791.25 288H788.945L783.262 270.285L782.793 266.867H785.332ZM814.18 284.387V273.508C814.18 272.674 814.01 271.952 813.672 271.34C813.346 270.715 812.852 270.233 812.188 269.895C811.523 269.556 810.703 269.387 809.727 269.387C808.815 269.387 808.014 269.543 807.324 269.855C806.647 270.168 806.113 270.578 805.723 271.086C805.345 271.594 805.156 272.141 805.156 272.727H801.543C801.543 271.971 801.738 271.223 802.129 270.48C802.52 269.738 803.079 269.068 803.809 268.469C804.551 267.857 805.436 267.375 806.465 267.023C807.507 266.659 808.665 266.477 809.941 266.477C811.478 266.477 812.832 266.737 814.004 267.258C815.189 267.779 816.113 268.566 816.777 269.621C817.454 270.663 817.793 271.971 817.793 273.547V283.391C817.793 284.094 817.852 284.842 817.969 285.637C818.099 286.431 818.288 287.115 818.535 287.688V288H814.766C814.583 287.583 814.44 287.03 814.336 286.34C814.232 285.637 814.18 284.986 814.18 284.387ZM814.805 275.188L814.844 277.727H811.191C810.163 277.727 809.245 277.811 808.438 277.98C807.63 278.137 806.953 278.378 806.406 278.703C805.859 279.029 805.443 279.439 805.156 279.934C804.87 280.415 804.727 280.982 804.727 281.633C804.727 282.297 804.876 282.902 805.176 283.449C805.475 283.996 805.924 284.432 806.523 284.758C807.135 285.07 807.884 285.227 808.77 285.227C809.876 285.227 810.853 284.992 811.699 284.523C812.546 284.055 813.216 283.482 813.711 282.805C814.219 282.128 814.492 281.47 814.531 280.832L816.074 282.57C815.983 283.117 815.736 283.723 815.332 284.387C814.928 285.051 814.388 285.689 813.711 286.301C813.047 286.9 812.253 287.401 811.328 287.805C810.417 288.195 809.388 288.391 808.242 288.391C806.81 288.391 805.553 288.111 804.473 287.551C803.405 286.991 802.572 286.242 801.973 285.305C801.387 284.354 801.094 283.293 801.094 282.121C801.094 280.988 801.315 279.992 801.758 279.133C802.201 278.26 802.839 277.538 803.672 276.965C804.505 276.379 805.508 275.936 806.68 275.637C807.852 275.337 809.16 275.188 810.605 275.188H814.805ZM829.102 285.812L834.98 266.867H838.848L830.371 291.262C830.176 291.783 829.915 292.342 829.59 292.941C829.277 293.553 828.874 294.133 828.379 294.68C827.884 295.227 827.285 295.669 826.582 296.008C825.892 296.359 825.065 296.535 824.102 296.535C823.815 296.535 823.451 296.496 823.008 296.418C822.565 296.34 822.253 296.275 822.07 296.223L822.051 293.293C822.155 293.306 822.318 293.319 822.539 293.332C822.773 293.358 822.936 293.371 823.027 293.371C823.848 293.371 824.544 293.26 825.117 293.039C825.69 292.831 826.172 292.473 826.562 291.965C826.966 291.47 827.311 290.786 827.598 289.914L829.102 285.812ZM824.785 266.867L830.273 283.273L831.211 287.082L828.613 288.41L820.84 266.867H824.785ZM854.414 282.395C854.414 281.874 854.297 281.392 854.062 280.949C853.841 280.493 853.379 280.083 852.676 279.719C851.986 279.341 850.944 279.016 849.551 278.742C848.379 278.495 847.318 278.202 846.367 277.863C845.43 277.525 844.629 277.115 843.965 276.633C843.314 276.151 842.812 275.585 842.461 274.934C842.109 274.283 841.934 273.521 841.934 272.648C841.934 271.815 842.116 271.027 842.48 270.285C842.858 269.543 843.385 268.885 844.062 268.312C844.753 267.74 845.579 267.29 846.543 266.965C847.507 266.639 848.581 266.477 849.766 266.477C851.458 266.477 852.904 266.776 854.102 267.375C855.299 267.974 856.217 268.775 856.855 269.777C857.493 270.767 857.812 271.867 857.812 273.078H854.199C854.199 272.492 854.023 271.926 853.672 271.379C853.333 270.819 852.832 270.357 852.168 269.992C851.517 269.628 850.716 269.445 849.766 269.445C848.763 269.445 847.949 269.602 847.324 269.914C846.712 270.214 846.263 270.598 845.977 271.066C845.703 271.535 845.566 272.03 845.566 272.551C845.566 272.941 845.632 273.293 845.762 273.605C845.905 273.905 846.152 274.185 846.504 274.445C846.855 274.693 847.35 274.927 847.988 275.148C848.626 275.37 849.44 275.591 850.43 275.812C852.161 276.203 853.587 276.672 854.707 277.219C855.827 277.766 856.66 278.436 857.207 279.23C857.754 280.025 858.027 280.988 858.027 282.121C858.027 283.046 857.832 283.892 857.441 284.66C857.064 285.428 856.51 286.092 855.781 286.652C855.065 287.199 854.206 287.629 853.203 287.941C852.214 288.241 851.1 288.391 849.863 288.391C848.001 288.391 846.426 288.059 845.137 287.395C843.848 286.73 842.871 285.871 842.207 284.816C841.543 283.762 841.211 282.648 841.211 281.477H844.844C844.896 282.466 845.182 283.254 845.703 283.84C846.224 284.413 846.862 284.823 847.617 285.07C848.372 285.305 849.121 285.422 849.863 285.422C850.853 285.422 851.68 285.292 852.344 285.031C853.021 284.771 853.535 284.413 853.887 283.957C854.238 283.501 854.414 282.98 854.414 282.395ZM886.387 266.867H889.668V287.551C889.668 289.413 889.29 291.001 888.535 292.316C887.78 293.632 886.725 294.628 885.371 295.305C884.03 295.995 882.48 296.34 880.723 296.34C879.993 296.34 879.134 296.223 878.145 295.988C877.168 295.767 876.204 295.383 875.254 294.836C874.316 294.302 873.529 293.579 872.891 292.668L874.785 290.52C875.671 291.587 876.595 292.329 877.559 292.746C878.535 293.163 879.499 293.371 880.449 293.371C881.595 293.371 882.585 293.156 883.418 292.727C884.251 292.297 884.896 291.659 885.352 290.812C885.82 289.979 886.055 288.951 886.055 287.727V271.516L886.387 266.867ZM871.836 277.668V277.258C871.836 275.643 872.025 274.178 872.402 272.863C872.793 271.535 873.346 270.396 874.062 269.445C874.792 268.495 875.671 267.766 876.699 267.258C877.728 266.737 878.887 266.477 880.176 266.477C881.504 266.477 882.663 266.711 883.652 267.18C884.655 267.635 885.501 268.306 886.191 269.191C886.895 270.064 887.448 271.118 887.852 272.355C888.255 273.592 888.535 274.992 888.691 276.555V278.352C888.548 279.901 888.268 281.294 887.852 282.531C887.448 283.768 886.895 284.823 886.191 285.695C885.501 286.568 884.655 287.238 883.652 287.707C882.65 288.163 881.478 288.391 880.137 288.391C878.874 288.391 877.728 288.124 876.699 287.59C875.684 287.056 874.811 286.307 874.082 285.344C873.353 284.38 872.793 283.247 872.402 281.945C872.025 280.63 871.836 279.204 871.836 277.668ZM875.449 277.258V277.668C875.449 278.723 875.553 279.712 875.762 280.637C875.983 281.561 876.315 282.375 876.758 283.078C877.214 283.781 877.793 284.335 878.496 284.738C879.199 285.129 880.039 285.324 881.016 285.324C882.214 285.324 883.203 285.07 883.984 284.562C884.766 284.055 885.384 283.384 885.84 282.551C886.309 281.717 886.673 280.812 886.934 279.836V275.129C886.79 274.413 886.569 273.723 886.27 273.059C885.983 272.382 885.605 271.783 885.137 271.262C884.681 270.728 884.115 270.305 883.438 269.992C882.76 269.68 881.966 269.523 881.055 269.523C880.065 269.523 879.212 269.732 878.496 270.148C877.793 270.552 877.214 271.112 876.758 271.828C876.315 272.531 875.983 273.352 875.762 274.289C875.553 275.214 875.449 276.203 875.449 277.258ZM898.77 270.188V288H895.156V266.867H898.672L898.77 270.188ZM905.371 266.75L905.352 270.109C905.052 270.044 904.766 270.005 904.492 269.992C904.232 269.966 903.932 269.953 903.594 269.953C902.76 269.953 902.025 270.083 901.387 270.344C900.749 270.604 900.208 270.969 899.766 271.438C899.323 271.906 898.971 272.466 898.711 273.117C898.464 273.755 898.301 274.458 898.223 275.227L897.207 275.812C897.207 274.536 897.331 273.339 897.578 272.219C897.839 271.099 898.236 270.109 898.77 269.25C899.303 268.378 899.98 267.701 900.801 267.219C901.634 266.724 902.624 266.477 903.77 266.477C904.03 266.477 904.329 266.509 904.668 266.574C905.007 266.626 905.241 266.685 905.371 266.75ZM917.09 288.391C915.618 288.391 914.284 288.143 913.086 287.648C911.901 287.141 910.879 286.431 910.02 285.52C909.173 284.608 908.522 283.527 908.066 282.277C907.611 281.027 907.383 279.66 907.383 278.176V277.355C907.383 275.637 907.637 274.107 908.145 272.766C908.652 271.411 909.342 270.266 910.215 269.328C911.087 268.391 912.077 267.681 913.184 267.199C914.29 266.717 915.436 266.477 916.621 266.477C918.132 266.477 919.434 266.737 920.527 267.258C921.634 267.779 922.539 268.508 923.242 269.445C923.945 270.37 924.466 271.464 924.805 272.727C925.143 273.977 925.312 275.344 925.312 276.828V278.449H909.531V275.5H921.699V275.227C921.647 274.289 921.452 273.378 921.113 272.492C920.788 271.607 920.267 270.878 919.551 270.305C918.835 269.732 917.858 269.445 916.621 269.445C915.801 269.445 915.046 269.621 914.355 269.973C913.665 270.311 913.073 270.819 912.578 271.496C912.083 272.173 911.699 273 911.426 273.977C911.152 274.953 911.016 276.079 911.016 277.355V278.176C911.016 279.178 911.152 280.122 911.426 281.008C911.712 281.88 912.122 282.648 912.656 283.312C913.203 283.977 913.861 284.497 914.629 284.875C915.41 285.253 916.296 285.441 917.285 285.441C918.561 285.441 919.642 285.181 920.527 284.66C921.413 284.139 922.188 283.443 922.852 282.57L925.039 284.309C924.583 284.999 924.004 285.656 923.301 286.281C922.598 286.906 921.732 287.414 920.703 287.805C919.688 288.195 918.483 288.391 917.09 288.391ZM941.992 284.387V273.508C941.992 272.674 941.823 271.952 941.484 271.34C941.159 270.715 940.664 270.233 940 269.895C939.336 269.556 938.516 269.387 937.539 269.387C936.628 269.387 935.827 269.543 935.137 269.855C934.46 270.168 933.926 270.578 933.535 271.086C933.158 271.594 932.969 272.141 932.969 272.727H929.355C929.355 271.971 929.551 271.223 929.941 270.48C930.332 269.738 930.892 269.068 931.621 268.469C932.363 267.857 933.249 267.375 934.277 267.023C935.319 266.659 936.478 266.477 937.754 266.477C939.29 266.477 940.645 266.737 941.816 267.258C943.001 267.779 943.926 268.566 944.59 269.621C945.267 270.663 945.605 271.971 945.605 273.547V283.391C945.605 284.094 945.664 284.842 945.781 285.637C945.911 286.431 946.1 287.115 946.348 287.688V288H942.578C942.396 287.583 942.253 287.03 942.148 286.34C942.044 285.637 941.992 284.986 941.992 284.387ZM942.617 275.188L942.656 277.727H939.004C937.975 277.727 937.057 277.811 936.25 277.98C935.443 278.137 934.766 278.378 934.219 278.703C933.672 279.029 933.255 279.439 932.969 279.934C932.682 280.415 932.539 280.982 932.539 281.633C932.539 282.297 932.689 282.902 932.988 283.449C933.288 283.996 933.737 284.432 934.336 284.758C934.948 285.07 935.697 285.227 936.582 285.227C937.689 285.227 938.665 284.992 939.512 284.523C940.358 284.055 941.029 283.482 941.523 282.805C942.031 282.128 942.305 281.47 942.344 280.832L943.887 282.57C943.796 283.117 943.548 283.723 943.145 284.387C942.741 285.051 942.201 285.689 941.523 286.301C940.859 286.9 940.065 287.401 939.141 287.805C938.229 288.195 937.201 288.391 936.055 288.391C934.622 288.391 933.366 288.111 932.285 287.551C931.217 286.991 930.384 286.242 929.785 285.305C929.199 284.354 928.906 283.293 928.906 282.121C928.906 280.988 929.128 279.992 929.57 279.133C930.013 278.26 930.651 277.538 931.484 276.965C932.318 276.379 933.32 275.936 934.492 275.637C935.664 275.337 936.973 275.188 938.418 275.188H942.617ZM960.137 266.867V269.641H948.711V266.867H960.137ZM952.578 261.73H956.191V282.766C956.191 283.482 956.302 284.022 956.523 284.387C956.745 284.751 957.031 284.992 957.383 285.109C957.734 285.227 958.112 285.285 958.516 285.285C958.815 285.285 959.128 285.259 959.453 285.207C959.792 285.142 960.046 285.09 960.215 285.051L960.234 288C959.948 288.091 959.57 288.176 959.102 288.254C958.646 288.345 958.092 288.391 957.441 288.391C956.556 288.391 955.742 288.215 955 287.863C954.258 287.512 953.665 286.926 953.223 286.105C952.793 285.272 952.578 284.152 952.578 282.746V261.73ZM979.688 288H976.074V264.641C976.074 263.117 976.348 261.835 976.895 260.793C977.454 259.738 978.255 258.944 979.297 258.41C980.339 257.863 981.576 257.59 983.008 257.59C983.424 257.59 983.841 257.616 984.258 257.668C984.688 257.72 985.104 257.798 985.508 257.902L985.312 260.852C985.039 260.786 984.727 260.741 984.375 260.715C984.036 260.689 983.698 260.676 983.359 260.676C982.591 260.676 981.927 260.832 981.367 261.145C980.82 261.444 980.404 261.887 980.117 262.473C979.831 263.059 979.688 263.781 979.688 264.641V288ZM984.18 266.867V269.641H972.734V266.867H984.18ZM987.246 277.668V277.219C987.246 275.695 987.467 274.283 987.91 272.98C988.353 271.665 988.991 270.526 989.824 269.562C990.658 268.586 991.667 267.831 992.852 267.297C994.036 266.75 995.365 266.477 996.836 266.477C998.32 266.477 999.655 266.75 1000.84 267.297C1002.04 267.831 1003.05 268.586 1003.89 269.562C1004.73 270.526 1005.38 271.665 1005.82 272.98C1006.26 274.283 1006.48 275.695 1006.48 277.219V277.668C1006.48 279.191 1006.26 280.604 1005.82 281.906C1005.38 283.208 1004.73 284.348 1003.89 285.324C1003.05 286.288 1002.04 287.043 1000.86 287.59C999.688 288.124 998.359 288.391 996.875 288.391C995.391 288.391 994.056 288.124 992.871 287.59C991.686 287.043 990.671 286.288 989.824 285.324C988.991 284.348 988.353 283.208 987.91 281.906C987.467 280.604 987.246 279.191 987.246 277.668ZM990.859 277.219V277.668C990.859 278.723 990.983 279.719 991.23 280.656C991.478 281.581 991.849 282.401 992.344 283.117C992.852 283.833 993.483 284.4 994.238 284.816C994.993 285.22 995.872 285.422 996.875 285.422C997.865 285.422 998.73 285.22 999.473 284.816C1000.23 284.4 1000.85 283.833 1001.35 283.117C1001.84 282.401 1002.21 281.581 1002.46 280.656C1002.72 279.719 1002.85 278.723 1002.85 277.668V277.219C1002.85 276.177 1002.72 275.194 1002.46 274.27C1002.21 273.332 1001.84 272.505 1001.33 271.789C1000.83 271.06 1000.21 270.487 999.453 270.07C998.711 269.654 997.839 269.445 996.836 269.445C995.846 269.445 994.974 269.654 994.219 270.07C993.477 270.487 992.852 271.06 992.344 271.789C991.849 272.505 991.478 273.332 991.23 274.27C990.983 275.194 990.859 276.177 990.859 277.219ZM1014.63 270.188V288H1011.02V266.867H1014.53L1014.63 270.188ZM1021.23 266.75L1021.21 270.109C1020.91 270.044 1020.62 270.005 1020.35 269.992C1020.09 269.966 1019.79 269.953 1019.45 269.953C1018.62 269.953 1017.88 270.083 1017.25 270.344C1016.61 270.604 1016.07 270.969 1015.62 271.438C1015.18 271.906 1014.83 272.466 1014.57 273.117C1014.32 273.755 1014.16 274.458 1014.08 275.227L1013.07 275.812C1013.07 274.536 1013.19 273.339 1013.44 272.219C1013.7 271.099 1014.1 270.109 1014.63 269.25C1015.16 268.378 1015.84 267.701 1016.66 267.219C1017.49 266.724 1018.48 266.477 1019.63 266.477C1019.89 266.477 1020.19 266.509 1020.53 266.574C1020.87 266.626 1021.1 266.685 1021.23 266.75ZM1040.43 285.812L1046.31 266.867H1050.18L1041.7 291.262C1041.5 291.783 1041.24 292.342 1040.92 292.941C1040.61 293.553 1040.2 294.133 1039.71 294.68C1039.21 295.227 1038.61 295.669 1037.91 296.008C1037.22 296.359 1036.39 296.535 1035.43 296.535C1035.14 296.535 1034.78 296.496 1034.34 296.418C1033.89 296.34 1033.58 296.275 1033.4 296.223L1033.38 293.293C1033.48 293.306 1033.65 293.319 1033.87 293.332C1034.1 293.358 1034.26 293.371 1034.36 293.371C1035.18 293.371 1035.87 293.26 1036.45 293.039C1037.02 292.831 1037.5 292.473 1037.89 291.965C1038.29 291.47 1038.64 290.786 1038.93 289.914L1040.43 285.812ZM1036.11 266.867L1041.6 283.273L1042.54 287.082L1039.94 288.41L1032.17 266.867H1036.11ZM1052.17 277.668V277.219C1052.17 275.695 1052.39 274.283 1052.83 272.98C1053.27 271.665 1053.91 270.526 1054.75 269.562C1055.58 268.586 1056.59 267.831 1057.77 267.297C1058.96 266.75 1060.29 266.477 1061.76 266.477C1063.24 266.477 1064.58 266.75 1065.76 267.297C1066.96 267.831 1067.98 268.586 1068.81 269.562C1069.65 270.526 1070.3 271.665 1070.74 272.98C1071.18 274.283 1071.41 275.695 1071.41 277.219V277.668C1071.41 279.191 1071.18 280.604 1070.74 281.906C1070.3 283.208 1069.65 284.348 1068.81 285.324C1067.98 286.288 1066.97 287.043 1065.78 287.59C1064.61 288.124 1063.28 288.391 1061.8 288.391C1060.31 288.391 1058.98 288.124 1057.79 287.59C1056.61 287.043 1055.59 286.288 1054.75 285.324C1053.91 284.348 1053.27 283.208 1052.83 281.906C1052.39 280.604 1052.17 279.191 1052.17 277.668ZM1055.78 277.219V277.668C1055.78 278.723 1055.9 279.719 1056.15 280.656C1056.4 281.581 1056.77 282.401 1057.27 283.117C1057.77 283.833 1058.4 284.4 1059.16 284.816C1059.92 285.22 1060.79 285.422 1061.8 285.422C1062.79 285.422 1063.65 285.22 1064.39 284.816C1065.15 284.4 1065.77 283.833 1066.27 283.117C1066.76 282.401 1067.14 281.581 1067.38 280.656C1067.64 279.719 1067.77 278.723 1067.77 277.668V277.219C1067.77 276.177 1067.64 275.194 1067.38 274.27C1067.14 273.332 1066.76 272.505 1066.25 271.789C1065.76 271.06 1065.13 270.487 1064.38 270.07C1063.63 269.654 1062.76 269.445 1061.76 269.445C1060.77 269.445 1059.9 269.654 1059.14 270.07C1058.4 270.487 1057.77 271.06 1057.27 271.789C1056.77 272.505 1056.4 273.332 1056.15 274.27C1055.9 275.194 1055.78 276.177 1055.78 277.219ZM1088.87 283.117V266.867H1092.5V288H1089.04L1088.87 283.117ZM1089.55 278.664L1091.05 278.625C1091.05 280.031 1090.9 281.333 1090.61 282.531C1090.32 283.716 1089.85 284.745 1089.2 285.617C1088.55 286.49 1087.7 287.173 1086.64 287.668C1085.59 288.15 1084.3 288.391 1082.79 288.391C1081.76 288.391 1080.82 288.241 1079.96 287.941C1079.11 287.642 1078.39 287.18 1077.77 286.555C1077.16 285.93 1076.69 285.116 1076.35 284.113C1076.02 283.111 1075.86 281.906 1075.86 280.5V266.867H1079.47V280.539C1079.47 281.49 1079.58 282.277 1079.79 282.902C1080.01 283.514 1080.3 284.003 1080.66 284.367C1081.04 284.719 1081.46 284.966 1081.91 285.109C1082.38 285.253 1082.86 285.324 1083.36 285.324C1084.9 285.324 1086.11 285.031 1087.01 284.445C1087.91 283.846 1088.55 283.046 1088.95 282.043C1089.35 281.027 1089.55 279.901 1089.55 278.664ZM1101.62 270.188V288H1098.01V266.867H1101.52L1101.62 270.188ZM1108.22 266.75L1108.2 270.109C1107.9 270.044 1107.62 270.005 1107.34 269.992C1107.08 269.966 1106.78 269.953 1106.45 269.953C1105.61 269.953 1104.88 270.083 1104.24 270.344C1103.6 270.604 1103.06 270.969 1102.62 271.438C1102.17 271.906 1101.82 272.466 1101.56 273.117C1101.32 273.755 1101.15 274.458 1101.07 275.227L1100.06 275.812C1100.06 274.536 1100.18 273.339 1100.43 272.219C1100.69 271.099 1101.09 270.109 1101.62 269.25C1102.15 268.378 1102.83 267.701 1103.65 267.219C1104.49 266.724 1105.48 266.477 1106.62 266.477C1106.88 266.477 1107.18 266.509 1107.52 266.574C1107.86 266.626 1108.09 266.685 1108.22 266.75ZM1126.88 288H1123.26V264.641C1123.26 263.117 1123.54 261.835 1124.08 260.793C1124.64 259.738 1125.44 258.944 1126.48 258.41C1127.53 257.863 1128.76 257.59 1130.2 257.59C1130.61 257.59 1131.03 257.616 1131.45 257.668C1131.88 257.72 1132.29 257.798 1132.7 257.902L1132.5 260.852C1132.23 260.786 1131.91 260.741 1131.56 260.715C1131.22 260.689 1130.89 260.676 1130.55 260.676C1129.78 260.676 1129.11 260.832 1128.55 261.145C1128.01 261.444 1127.59 261.887 1127.3 262.473C1127.02 263.059 1126.88 263.781 1126.88 264.641V288ZM1131.37 266.867V269.641H1119.92V266.867H1131.37ZM1143.69 288.391C1142.22 288.391 1140.89 288.143 1139.69 287.648C1138.5 287.141 1137.48 286.431 1136.62 285.52C1135.77 284.608 1135.12 283.527 1134.67 282.277C1134.21 281.027 1133.98 279.66 1133.98 278.176V277.355C1133.98 275.637 1134.24 274.107 1134.75 272.766C1135.25 271.411 1135.94 270.266 1136.82 269.328C1137.69 268.391 1138.68 267.681 1139.79 267.199C1140.89 266.717 1142.04 266.477 1143.22 266.477C1144.73 266.477 1146.04 266.737 1147.13 267.258C1148.24 267.779 1149.14 268.508 1149.84 269.445C1150.55 270.37 1151.07 271.464 1151.41 272.727C1151.74 273.977 1151.91 275.344 1151.91 276.828V278.449H1136.13V275.5H1148.3V275.227C1148.25 274.289 1148.05 273.378 1147.71 272.492C1147.39 271.607 1146.87 270.878 1146.15 270.305C1145.44 269.732 1144.46 269.445 1143.22 269.445C1142.4 269.445 1141.65 269.621 1140.96 269.973C1140.27 270.311 1139.67 270.819 1139.18 271.496C1138.68 272.173 1138.3 273 1138.03 273.977C1137.75 274.953 1137.62 276.079 1137.62 277.355V278.176C1137.62 279.178 1137.75 280.122 1138.03 281.008C1138.31 281.88 1138.72 282.648 1139.26 283.312C1139.8 283.977 1140.46 284.497 1141.23 284.875C1142.01 285.253 1142.9 285.441 1143.89 285.441C1145.16 285.441 1146.24 285.181 1147.13 284.66C1148.01 284.139 1148.79 283.443 1149.45 282.57L1151.64 284.309C1151.18 284.999 1150.61 285.656 1149.9 286.281C1149.2 286.906 1148.33 287.414 1147.3 287.805C1146.29 288.195 1145.08 288.391 1143.69 288.391ZM1164.9 288.391C1163.43 288.391 1162.1 288.143 1160.9 287.648C1159.71 287.141 1158.69 286.431 1157.83 285.52C1156.99 284.608 1156.33 283.527 1155.88 282.277C1155.42 281.027 1155.2 279.66 1155.2 278.176V277.355C1155.2 275.637 1155.45 274.107 1155.96 272.766C1156.46 271.411 1157.15 270.266 1158.03 269.328C1158.9 268.391 1159.89 267.681 1161 267.199C1162.1 266.717 1163.25 266.477 1164.43 266.477C1165.94 266.477 1167.25 266.737 1168.34 267.258C1169.45 267.779 1170.35 268.508 1171.05 269.445C1171.76 270.37 1172.28 271.464 1172.62 272.727C1172.96 273.977 1173.12 275.344 1173.12 276.828V278.449H1157.34V275.5H1169.51V275.227C1169.46 274.289 1169.26 273.378 1168.93 272.492C1168.6 271.607 1168.08 270.878 1167.36 270.305C1166.65 269.732 1165.67 269.445 1164.43 269.445C1163.61 269.445 1162.86 269.621 1162.17 269.973C1161.48 270.311 1160.89 270.819 1160.39 271.496C1159.9 272.173 1159.51 273 1159.24 273.977C1158.96 274.953 1158.83 276.079 1158.83 277.355V278.176C1158.83 279.178 1158.96 280.122 1159.24 281.008C1159.52 281.88 1159.93 282.648 1160.47 283.312C1161.02 283.977 1161.67 284.497 1162.44 284.875C1163.22 285.253 1164.11 285.441 1165.1 285.441C1166.37 285.441 1167.45 285.181 1168.34 284.66C1169.23 284.139 1170 283.443 1170.66 282.57L1172.85 284.309C1172.4 284.999 1171.82 285.656 1171.11 286.281C1170.41 286.906 1169.54 287.414 1168.52 287.805C1167.5 288.195 1166.3 288.391 1164.9 288.391ZM1190.66 283.898V258H1194.3V288H1190.98L1190.66 283.898ZM1176.45 277.668V277.258C1176.45 275.643 1176.64 274.178 1177.03 272.863C1177.43 271.535 1178 270.396 1178.73 269.445C1179.47 268.495 1180.35 267.766 1181.37 267.258C1182.4 266.737 1183.54 266.477 1184.8 266.477C1186.13 266.477 1187.29 266.711 1188.28 267.18C1189.28 267.635 1190.13 268.306 1190.82 269.191C1191.52 270.064 1192.08 271.118 1192.48 272.355C1192.88 273.592 1193.16 274.992 1193.32 276.555V278.352C1193.18 279.901 1192.9 281.294 1192.48 282.531C1192.08 283.768 1191.52 284.823 1190.82 285.695C1190.13 286.568 1189.28 287.238 1188.28 287.707C1187.28 288.163 1186.11 288.391 1184.77 288.391C1183.53 288.391 1182.4 288.124 1181.37 287.59C1180.35 287.056 1179.47 286.307 1178.73 285.344C1178 284.38 1177.43 283.247 1177.03 281.945C1176.64 280.63 1176.45 279.204 1176.45 277.668ZM1180.08 277.258V277.668C1180.08 278.723 1180.18 279.712 1180.39 280.637C1180.61 281.561 1180.95 282.375 1181.41 283.078C1181.86 283.781 1182.44 284.335 1183.14 284.738C1183.85 285.129 1184.69 285.324 1185.66 285.324C1186.86 285.324 1187.85 285.07 1188.61 284.562C1189.39 284.055 1190.02 283.384 1190.49 282.551C1190.96 281.717 1191.32 280.812 1191.58 279.836V275.129C1191.43 274.413 1191.2 273.723 1190.9 273.059C1190.61 272.382 1190.23 271.783 1189.77 271.262C1189.31 270.728 1188.74 270.305 1188.07 269.992C1187.4 269.68 1186.61 269.523 1185.7 269.523C1184.71 269.523 1183.86 269.732 1183.14 270.148C1182.44 270.552 1181.86 271.112 1181.41 271.828C1180.95 272.531 1180.61 273.352 1180.39 274.289C1180.18 275.214 1180.08 276.203 1180.08 277.258ZM1199.9 258H1203.54V283.898L1203.22 288H1199.9V258ZM1217.81 277.258V277.668C1217.81 279.204 1217.63 280.63 1217.27 281.945C1216.9 283.247 1216.37 284.38 1215.66 285.344C1214.96 286.307 1214.1 287.056 1213.09 287.59C1212.07 288.124 1210.9 288.391 1209.59 288.391C1208.25 288.391 1207.07 288.163 1206.05 287.707C1205.05 287.238 1204.21 286.568 1203.52 285.695C1202.83 284.823 1202.27 283.768 1201.86 282.531C1201.45 281.294 1201.17 279.901 1201.02 278.352V276.555C1201.17 274.992 1201.45 273.592 1201.86 272.355C1202.27 271.118 1202.83 270.064 1203.52 269.191C1204.21 268.306 1205.05 267.635 1206.05 267.18C1207.06 266.711 1208.22 266.477 1209.55 266.477C1210.88 266.477 1212.06 266.737 1213.09 267.258C1214.11 267.766 1214.97 268.495 1215.66 269.445C1216.37 270.396 1216.9 271.535 1217.27 272.863C1217.63 274.178 1217.81 275.643 1217.81 277.258ZM1214.18 277.668V277.258C1214.18 276.203 1214.08 275.214 1213.89 274.289C1213.69 273.352 1213.38 272.531 1212.95 271.828C1212.52 271.112 1211.95 270.552 1211.25 270.148C1210.55 269.732 1209.68 269.523 1208.65 269.523C1207.74 269.523 1206.95 269.68 1206.27 269.992C1205.61 270.305 1205.04 270.728 1204.57 271.262C1204.1 271.783 1203.72 272.382 1203.42 273.059C1203.13 273.723 1202.92 274.413 1202.77 275.129V279.836C1202.98 280.747 1203.32 281.626 1203.79 282.473C1204.27 283.306 1204.91 283.99 1205.7 284.523C1206.51 285.057 1207.51 285.324 1208.69 285.324C1209.67 285.324 1210.5 285.129 1211.19 284.738C1211.89 284.335 1212.46 283.781 1212.89 283.078C1213.33 282.375 1213.66 281.561 1213.87 280.637C1214.08 279.712 1214.18 278.723 1214.18 277.668ZM1234.84 284.387V273.508C1234.84 272.674 1234.67 271.952 1234.34 271.34C1234.01 270.715 1233.52 270.233 1232.85 269.895C1232.19 269.556 1231.37 269.387 1230.39 269.387C1229.48 269.387 1228.68 269.543 1227.99 269.855C1227.31 270.168 1226.78 270.578 1226.39 271.086C1226.01 271.594 1225.82 272.141 1225.82 272.727H1222.21C1222.21 271.971 1222.4 271.223 1222.79 270.48C1223.18 269.738 1223.74 269.068 1224.47 268.469C1225.21 267.857 1226.1 267.375 1227.13 267.023C1228.17 266.659 1229.33 266.477 1230.61 266.477C1232.14 266.477 1233.5 266.737 1234.67 267.258C1235.85 267.779 1236.78 268.566 1237.44 269.621C1238.12 270.663 1238.46 271.971 1238.46 273.547V283.391C1238.46 284.094 1238.52 284.842 1238.63 285.637C1238.76 286.431 1238.95 287.115 1239.2 287.688V288H1235.43C1235.25 287.583 1235.1 287.03 1235 286.34C1234.9 285.637 1234.84 284.986 1234.84 284.387ZM1235.47 275.188L1235.51 277.727H1231.86C1230.83 277.727 1229.91 277.811 1229.1 277.98C1228.29 278.137 1227.62 278.378 1227.07 278.703C1226.52 279.029 1226.11 279.439 1225.82 279.934C1225.53 280.415 1225.39 280.982 1225.39 281.633C1225.39 282.297 1225.54 282.902 1225.84 283.449C1226.14 283.996 1226.59 284.432 1227.19 284.758C1227.8 285.07 1228.55 285.227 1229.43 285.227C1230.54 285.227 1231.52 284.992 1232.36 284.523C1233.21 284.055 1233.88 283.482 1234.38 282.805C1234.88 282.128 1235.16 281.47 1235.2 280.832L1236.74 282.57C1236.65 283.117 1236.4 283.723 1236 284.387C1235.59 285.051 1235.05 285.689 1234.38 286.301C1233.71 286.9 1232.92 287.401 1231.99 287.805C1231.08 288.195 1230.05 288.391 1228.91 288.391C1227.47 288.391 1226.22 288.111 1225.14 287.551C1224.07 286.991 1223.24 286.242 1222.64 285.305C1222.05 284.354 1221.76 283.293 1221.76 282.121C1221.76 280.988 1221.98 279.992 1222.42 279.133C1222.86 278.26 1223.5 277.538 1224.34 276.965C1225.17 276.379 1226.17 275.936 1227.34 275.637C1228.52 275.337 1229.82 275.188 1231.27 275.188H1235.47ZM1252.6 285.422C1253.46 285.422 1254.25 285.246 1254.98 284.895C1255.71 284.543 1256.31 284.061 1256.78 283.449C1257.25 282.824 1257.51 282.115 1257.58 281.32H1261.02C1260.95 282.57 1260.53 283.736 1259.75 284.816C1258.98 285.884 1257.97 286.75 1256.72 287.414C1255.47 288.065 1254.1 288.391 1252.6 288.391C1251.01 288.391 1249.62 288.111 1248.44 287.551C1247.27 286.991 1246.29 286.223 1245.51 285.246C1244.74 284.27 1244.16 283.15 1243.77 281.887C1243.39 280.611 1243.2 279.263 1243.2 277.844V277.023C1243.2 275.604 1243.39 274.263 1243.77 273C1244.16 271.724 1244.74 270.598 1245.51 269.621C1246.29 268.645 1247.27 267.876 1248.44 267.316C1249.62 266.757 1251.01 266.477 1252.6 266.477C1254.25 266.477 1255.7 266.815 1256.93 267.492C1258.17 268.156 1259.14 269.068 1259.84 270.227C1260.56 271.372 1260.95 272.674 1261.02 274.133H1257.58C1257.51 273.26 1257.27 272.473 1256.84 271.77C1256.42 271.066 1255.85 270.507 1255.12 270.09C1254.4 269.66 1253.56 269.445 1252.6 269.445C1251.49 269.445 1250.56 269.667 1249.8 270.109C1249.06 270.539 1248.47 271.125 1248.03 271.867C1247.6 272.596 1247.29 273.41 1247.09 274.309C1246.91 275.194 1246.82 276.099 1246.82 277.023V277.844C1246.82 278.768 1246.91 279.68 1247.09 280.578C1247.27 281.477 1247.58 282.29 1248.01 283.02C1248.45 283.749 1249.04 284.335 1249.79 284.777C1250.54 285.207 1251.48 285.422 1252.6 285.422ZM1268.71 258V288H1265.08V258H1268.71ZM1281.62 266.867L1272.4 276.73L1267.25 282.082L1266.95 278.234L1270.64 273.82L1277.21 266.867H1281.62ZM1278.32 288L1270.78 277.922L1272.66 274.699L1282.58 288H1278.32Z" fill="black" fill-opacity="0.8"/>
</svg>
