<svg version="1.1" viewBox="0.0 0.0 960.0 540.0" fill="none" stroke="none" stroke-linecap="square" stroke-miterlimit="10" xmlns:xlink="http://www.w3.org/1999/xlink" xmlns="http://www.w3.org/2000/svg"><clipPath id="g13fc547333d_2_20.0"><path d="m0 0l960.0 0l0 540.0l-960.0 0l0 -540.0z" clip-rule="nonzero"/></clipPath><g clip-path="url(#g13fc547333d_2_20.0)"><path fill="#008b8b" d="m0 0l960.0 0l0 540.0l-960.0 0z" fill-rule="evenodd"/><path fill="#ffffff" d="m960.0 -0.17847769l-887.76764 0l-72.23237 270.3307l72.23237 270.3307l887.76764 0z" fill-rule="evenodd"/><path fill="#000000" fill-opacity="0.0" d="m74.879265 47.03937l810.01575 0l0 60.12598l-810.01575 0z" fill-rule="evenodd"/><path fill="#008b8b" d="m471.68558 101.27687q-2.234375 0 -4.625 -0.375q-2.375 -0.359375 -4.3125 -1.046875l0 -6.015625q2.109375 0.65625 4.40625 1.046875q2.3125 0.375 4.421875 0.375q6.109375 0 6.109375 -3.984375q0 -1.09375 -0.453125 -1.828125q-0.4375 -0.734375 -1.5 -1.3125q-1.0625 -0.578125 -2.953125 -1.125l-2.46875 -0.75q-8.421875 -2.453125 -8.421875 -9.890625q0 -3.296875 1.53125 -5.640625q1.53125 -2.34375 4.5625 -3.59375q3.046875 -1.265625 7.53125 -1.265625q2.125 0 4.109375 0.265625q1.984375 0.25 3.5625 0.6875l0 6.046875q-1.5625 -0.46875 -3.390625 -0.71875q-1.828125 -0.265625 -3.671875 -0.265625q-3.703125 0 -5.328125 1.0625q-1.625 1.046875 -1.625 2.921875q0 1.03125 0.390625 1.75q0.40625 0.703125 1.328125 1.25q0.9375 0.53125 2.640625 1.046875l2.46875 0.71875q4.484375 1.28125 6.71875 3.703125q2.25 2.40625 2.25 6.328125q0 3.296875 -1.578125 5.671875q-1.578125 2.375 -4.5625 3.65625q-2.984375 1.28125 -7.140625 1.28125zm37.684753 -11.046875l-14.234375 0q0.09375 2.078125 0.78125 3.25q0.6875 1.171875 2.125 1.703125q1.453125 0.53125 3.921875 0.53125q2.625 0 6.09375 -0.84375l0 5.578125q-1.90625 0.453125 -3.609375 0.65625q-1.6875 0.21875 -3.40625 0.21875q-4.578125 0 -7.46875 -1.375q-2.875 -1.375 -4.265625 -4.3125q-1.375 -2.9375 -1.375 -7.625q0 -6.375 2.875 -9.734375q2.875 -3.375 8.21875 -3.375q5.09375 0 7.71875 3.390625q2.625 3.390625 2.625 9.921875l0 2.015625zm-10.390625 -10.671875q-1.28125 0 -2.109375 0.59375q-0.828125 0.578125 -1.28125 1.984375q-0.453125 1.390625 -0.484375 3.8125l7.59375 0q-0.03125 -2.421875 -0.453125 -3.8125q-0.421875 -1.40625 -1.21875 -1.984375q-0.78125 -0.59375 -2.046875 -0.59375zm25.176239 21.765625q-5.96875 0 -9.078125 -3.25q-3.09375 -3.25 -3.09375 -9.953125q0 -6.78125 3.359375 -10.0q3.375 -3.21875 9.671875 -3.21875q2.796875 0 5.09375 0.53125l0 5.765625q-2.03125 -0.390625 -3.90625 -0.390625q-2.390625 0 -3.890625 0.71875q-1.5 0.71875 -2.21875 2.296875q-0.71875 1.578125 -0.71875 4.1875q0 2.734375 0.6875 4.375q0.6875 1.625 2.03125 2.34375q1.359375 0.703125 3.453125 0.703125q1.9375 0 4.5625 -0.796875l0 5.765625q-1.359375 0.4375 -2.90625 0.671875q-1.53125 0.25 -3.046875 0.25zm19.576843 0q-5.53125 0 -8.515625 -3.265625q-2.984375 -3.265625 -2.984375 -9.859375q0 -6.71875 2.96875 -10.0q2.96875 -3.296875 8.53125 -3.296875q5.515625 0 8.5 3.328125q3.0 3.3125 3.0 9.890625q0 6.625 -3.0 9.921875q-2.984375 3.28125 -8.5 3.28125zm0 -5.390625q1.4375 0 2.34375 -0.671875q0.921875 -0.671875 1.40625 -2.359375q0.484375 -1.703125 0.484375 -4.703125q0 -3.078125 -0.484375 -4.796875q-0.484375 -1.734375 -1.40625 -2.421875q-0.921875 -0.6875 -2.34375 -0.6875q-1.421875 0 -2.34375 0.6875q-0.921875 0.6875 -1.421875 2.390625q-0.484375 1.703125 -0.484375 4.734375q0 3.046875 0.484375 4.765625q0.5 1.71875 1.40625 2.390625q0.90625 0.671875 2.359375 0.671875zm15.456604 -20.609375l5.921875 0l0.515625 2.65625l0.328125 0q1.3125 -1.515625 3.0625 -2.296875q1.765625 -0.78125 3.890625 -0.78125q3.640625 0 5.765625 2.28125q2.140625 2.265625 2.140625 7.203125l0 16.453125l-7.140625 0l0 -15.953125q0 -2.015625 -0.828125 -2.84375q-0.828125 -0.84375 -2.390625 -0.84375q-1.15625 0 -2.28125 0.484375q-1.125 0.46875 -1.84375 1.40625l0 17.75l-7.140625 0l0 -25.515625zm35.039856 25.984375q-2.703125 0 -4.875 -1.34375q-2.171875 -1.34375 -3.46875 -4.1875q-1.28125 -2.84375 -1.28125 -7.1875q0 -6.734375 3.3125 -10.203125q3.328125 -3.46875 10.09375 -3.46875q0.8125 0 2.03125 0.140625l0 -11.921875l7.140625 0l0 37.703125l-6.015625 0l-0.5 -2.75l-0.328125 0q-0.921875 1.515625 -2.484375 2.375q-1.5625 0.84375 -3.625 0.84375zm2.265625 -5.953125q1.03125 0 1.953125 -0.375q0.9375 -0.390625 1.59375 -1.140625l0 -13.21875q-1.359375 -0.234375 -2.40625 -0.234375q-1.984375 0 -3.25 0.734375q-1.25 0.734375 -1.890625 2.40625q-0.640625 1.65625 -0.640625 4.453125q0 2.859375 0.5625 4.484375q0.5625 1.609375 1.5625 2.25q1.015625 0.640625 2.515625 0.640625zm24.141113 -20.453125q3.859375 0 6.234375 1.0q2.375 1.0 3.53125 3.28125q1.15625 2.265625 1.15625 6.140625l0 15.515625l-5.828125 0l-0.515625 -2.65625l-0.328125 0q-0.984375 1.578125 -2.609375 2.359375q-1.609375 0.765625 -3.671875 0.765625q-2.296875 0 -4.03125 -0.90625q-1.71875 -0.921875 -2.65625 -2.578125q-0.9375 -1.671875 -0.9375 -3.890625q0 -3.703125 2.375 -5.703125q2.390625 -2.015625 7.609375 -2.390625l3.640625 -0.296875l0 -0.59375q0 -1.703125 -0.515625 -2.65625q-0.515625 -0.953125 -1.65625 -1.359375q-1.140625 -0.40625 -3.125 -0.40625q-1.484375 0 -3.1875 0.25q-1.703125 0.234375 -3.25 0.71875l0 -5.59375q1.6875 -0.484375 3.765625 -0.734375q2.09375 -0.265625 4.0 -0.265625zm0.40625 21.21875q0.96875 0 1.890625 -0.359375q0.921875 -0.375 1.671875 -1.171875l0 -4.921875l-2.875 0.25q-3.75 0.3125 -3.75 3.265625q0 1.421875 0.796875 2.1875q0.796875 0.75 2.265625 0.75zm15.386414 -20.796875l5.859375 0l0.5625 3.453125l0.328125 0q0.953125 -1.96875 2.609375 -2.890625q1.671875 -0.9375 3.828125 -0.9375q0.859375 0 1.9375 0.1875l0 6.578125q-0.875 -0.1875 -2.40625 -0.1875q-1.640625 0 -3.1875 0.640625q-1.546875 0.640625 -2.390625 1.765625l0 16.90625l-7.140625 0l0 -25.515625zm34.45868 0l7.046875 0l-11.265625 35.78125l-7.0 0l3.265625 -10.265625l-2.171875 0l-8.015625 -25.515625l7.390625 0l5.296875 19.09375l5.453125 -19.09375zm40.119995 25.515625l-8.375 -12.671875l-0.4375 0q-1.1875 0 -3.421875 -0.09375l0 12.765625l-7.140625 0l0 -33.84375q5.0625 -1.109375 10.140625 -1.109375q7.25 0 10.828125 2.75q3.59375 2.734375 3.59375 8.359375q0.015625 3.671875 -1.71875 6.203125q-1.734375 2.53125 -4.984375 3.78125l9.328125 13.859375l-7.8125 0zm-12.234375 -18.453125q1.6875 0.15625 3.46875 0.15625q3.640625 0 5.375 -1.296875q1.734375 -1.3125 1.734375 -4.21875q0 -2.875 -1.65625 -4.21875q-1.65625 -1.359375 -5.03125 -1.359375q-2.125 0 -3.890625 0.328125l0 10.609375zm41.94165 7.84375l-14.234375 0q0.09375 2.078125 0.78125 3.25q0.6875 1.171875 2.125 1.703125q1.453125 0.53125 3.921875 0.53125q2.625 0 6.09375 -0.84375l0 5.578125q-1.90625 0.453125 -3.609375 0.65625q-1.6875 0.21875 -3.40625 0.21875q-4.578125 0 -7.46875 -1.375q-2.875 -1.375 -4.265625 -4.3125q-1.375 -2.9375 -1.375 -7.625q0 -6.375 2.875 -9.734375q2.875 -3.375 8.21875 -3.375q5.09375 0 7.71875 3.390625q2.625 3.390625 2.625 9.921875l0 2.015625zm-10.390625 -10.671875q-1.28125 0 -2.109375 0.59375q-0.828125 0.578125 -1.28125 1.984375q-0.453125 1.390625 -0.484375 3.8125l7.59375 0q-0.03125 -2.421875 -0.453125 -3.8125q-0.421875 -1.40625 -1.21875 -1.984375q-0.78125 -0.59375 -2.046875 -0.59375zm20.83252 21.765625q-4.0625 0 -7.375 -1.09375l0 -5.5q3.4375 1.09375 7.265625 1.09375q2.21875 0 3.203125 -0.640625q0.984375 -0.640625 0.984375 -1.859375q0 -0.921875 -0.484375 -1.421875q-0.484375 -0.515625 -1.65625 -0.765625l-3.734375 -0.796875q-3.171875 -0.671875 -4.71875 -2.46875q-1.546875 -1.796875 -1.546875 -4.859375q0 -2.4375 1.234375 -4.265625q1.25 -1.84375 3.75 -2.84375q2.5 -1.0 6.140625 -1.0q3.3125 0 6.171875 0.75l0 5.5q-2.703125 -0.75 -5.84375 -0.75q-4.921875 0 -4.921875 2.546875q0 0.84375 0.5 1.34375q0.5 0.5 1.640625 0.75l3.734375 0.796875q3.1875 0.703125 4.734375 2.4375q1.5625 1.71875 1.5625 4.84375q0 2.515625 -1.28125 4.375q-1.265625 1.84375 -3.65625 2.84375q-2.390625 0.984375 -5.703125 0.984375zm34.441345 -11.09375l-14.234375 0q0.09375 2.078125 0.78125 3.25q0.6875 1.171875 2.125 1.703125q1.453125 0.53125 3.921875 0.53125q2.625 0 6.09375 -0.84375l0 5.578125q-1.90625 0.453125 -3.609375 0.65625q-1.6875 0.21875 -3.40625 0.21875q-4.578125 0 -7.46875 -1.375q-2.875 -1.375 -4.265625 -4.3125q-1.375 -2.9375 -1.375 -7.625q0 -6.375 2.875 -9.734375q2.875 -3.375 8.21875 -3.375q5.09375 0 7.71875 3.390625q2.625 3.390625 2.625 9.921875l0 2.015625zm-10.390625 -10.671875q-1.28125 0 -2.109375 0.59375q-0.828125 0.578125 -1.28125 1.984375q-0.453125 1.390625 -0.484375 3.8125l7.59375 0q-0.03125 -2.421875 -0.453125 -3.8125q-0.421875 -1.40625 -1.21875 -1.984375q-0.78125 -0.59375 -2.046875 -0.59375zm22.418762 -4.65625q3.859375 0 6.234375 1.0q2.375 1.0 3.53125 3.28125q1.15625 2.265625 1.15625 6.140625l0 15.515625l-5.828125 0l-0.515625 -2.65625l-0.328125 0q-0.984375 1.578125 -2.609375 2.359375q-1.609375 0.765625 -3.671875 0.765625q-2.296875 0 -4.03125 -0.90625q-1.71875 -0.921875 -2.65625 -2.578125q-0.9375 -1.671875 -0.9375 -3.890625q0 -3.703125 2.375 -5.703125q2.390625 -2.015625 7.609375 -2.390625l3.640625 -0.296875l0 -0.59375q0 -1.703125 -0.515625 -2.65625q-0.515625 -0.953125 -1.65625 -1.359375q-1.140625 -0.40625 -3.125 -0.40625q-1.484375 0 -3.1875 0.25q-1.703125 0.234375 -3.25 0.71875l0 -5.59375q1.6875 -0.484375 3.765625 -0.734375q2.09375 -0.265625 4.0 -0.265625zm0.40625 21.21875q0.96875 0 1.890625 -0.359375q0.921875 -0.375 1.671875 -1.171875l0 -4.921875l-2.875 0.25q-3.75 0.3125 -3.75 3.265625q0 1.421875 0.796875 2.1875q0.796875 0.75 2.265625 0.75zm15.386353 -20.796875l5.859375 0l0.5625 3.453125l0.328125 0q0.953125 -1.96875 2.609375 -2.890625q1.671875 -0.9375 3.828125 -0.9375q0.859375 0 1.9375 0.1875l0 6.578125q-0.875 -0.1875 -2.40625 -0.1875q-1.640625 0 -3.1875 0.640625q-1.546875 0.640625 -2.390625 1.765625l0 16.90625l-7.140625 0l0 -25.515625zm28.768677 26.0q-5.96875 0 -9.078125 -3.25q-3.09375 -3.25 -3.09375 -9.953125q0 -6.78125 3.359375 -10.0q3.375 -3.21875 9.671875 -3.21875q2.796875 0 5.09375 0.53125l0 5.765625q-2.03125 -0.390625 -3.90625 -0.390625q-2.390625 0 -3.890625 0.71875q-1.5 0.71875 -2.21875 2.296875q-0.71875 1.578125 -0.71875 4.1875q0 2.734375 0.6875 4.375q0.6875 1.625 2.03125 2.34375q1.359375 0.703125 3.453125 0.703125q1.9375 0 4.5625 -0.796875l0 5.765625q-1.359375 0.4375 -2.90625 0.671875q-1.53125 0.25 -3.046875 0.25zm9.746033 -38.1875l7.140625 0l0 14.84375l0.34375 0q2.390625 -3.078125 6.609375 -3.078125q3.375 0 5.453125 2.28125q2.078125 2.28125 2.078125 7.203125l0 16.453125l-7.140625 0l0 -15.890625q0 -2.03125 -0.828125 -2.890625q-0.828125 -0.859375 -2.390625 -0.859375q-1.140625 0 -2.28125 0.5q-1.125 0.484375 -1.84375 1.40625l0 17.734375l-7.140625 0l0 -37.703125z" fill-rule="nonzero"/><path fill="#000000" fill-opacity="0.0" d="m245.77428 251.3332l253.07088 0l0 191.74803l-253.07088 0z" fill-rule="evenodd"/><path fill="#008b8b" d="m267.99304 271.6888l4.25 0l0 15.34375l4.21875 0l0 3.765625l-4.21875 0l0 5.375l-4.359375 0l0 -5.375l-12.281265 0l0 -3.328125l12.39064 -15.78125zm0.109375 6.53125l-7.28125 9.25l7.28125 0l0 -9.25zm10.522797 17.953125l11.09375 -19.96875l-11.84375 0l0 -4.25l17.03125 0l0 4.203125l-10.34375 20.015625l-5.9375 0zm20.8833 0l16.421875 -24.21875l4.453125 0l-16.390625 24.21875l-4.484375 0zm17.515625 0.40625q-1.34375 0 -2.5 -0.625q-1.15625 -0.625 -1.875 -1.875q-0.703125 -1.265625 -0.703125 -3.171875q0 -1.90625 0.703125 -3.15625q0.71875 -1.265625 1.875 -1.890625q1.15625 -0.625 2.5 -0.625q1.375 0 2.546875 0.625q1.1875 0.625 1.890625 1.890625q0.703125 1.25 0.703125 3.15625q0 1.90625 -0.703125 3.171875q-0.703125 1.25 -1.890625 1.875q-1.171875 0.625 -2.546875 0.625zm0 -2.828125q0.8125 0 1.3125 -0.640625q0.515625 -0.640625 0.515625 -2.203125q0 -1.546875 -0.515625 -2.203125q-0.5 -0.671875 -1.3125 -0.671875q-0.8125 0 -1.3125 0.671875q-0.484375 0.65625 -0.484375 2.203125q0 1.5625 0.484375 2.203125q0.5 0.640625 1.3125 0.640625zm-14.109375 -10.984375q-1.34375 0 -2.5 -0.625q-1.15625 -0.625 -1.875 -1.875q-0.703125 -1.265625 -0.703125 -3.171875q0 -1.875 0.703125 -3.125q0.71875 -1.25 1.875 -1.875q1.15625 -0.640625 2.5 -0.640625q1.375 0 2.546875 0.640625q1.1875 0.625 1.890625 1.875q0.703125 1.25 0.703125 3.125q0 1.90625 -0.703125 3.171875q-0.703125 1.25 -1.890625 1.875q-1.171875 0.625 -2.546875 0.625zm0 -2.796875q0.796875 0 1.3125 -0.640625q0.515625 -0.65625 0.515625 -2.234375q0 -1.546875 -0.515625 -2.1875q-0.515625 -0.640625 -1.3125 -0.640625q-0.8125 0 -1.3125 0.640625q-0.484375 0.640625 -0.484375 2.1875q0 1.578125 0.484375 2.234375q0.5 0.640625 1.3125 0.640625z" fill-rule="nonzero"/><path fill="#000000" d="m260.50867 334.04758q-1.34375 0 -2.390625 -0.609375q-1.03125 -0.609375 -1.625 -1.78125q-0.59376526 -1.1875 -0.59376526 -2.90625q0 -1.71875 0.59376526 -2.890625q0.59375 -1.1875 1.625 -1.796875q1.046875 -0.609375 2.390625 -0.609375q1.359375 0 2.390625 0.609375q1.03125 0.609375 1.609375 1.796875q0.59375 1.171875 0.59375 2.890625q0 1.71875 -0.59375 2.90625q-0.578125 1.171875 -1.609375 1.78125q-1.03125 0.609375 -2.390625 0.609375zm-0.015625 -1.078125q1.109375 0 1.859375 -0.515625q0.75 -0.53125 1.109375 -1.484375q0.375 -0.953125 0.375 -2.21875q0 -1.90625 -0.8125 -3.0625q-0.8125 -1.171875 -2.484375 -1.171875q-1.125 0 -1.875 0.53125q-0.734375 0.515625 -1.109375 1.484375q-0.359375 0.953125 -0.359375 2.21875q0 1.890625 0.8125 3.0625q0.8125 1.15625 2.484375 1.15625zm8.489319 0.84375l0 -11.859375q0 -0.953125 0.359375 -1.578125q0.375 -0.625 1.0 -0.90625q0.625 -0.296875 1.421875 -0.296875q0.390625 0 0.796875 0.0625q0.40625 0.046875 0.8125 0.1875l-0.234375 1.015625q-0.34375 -0.140625 -0.671875 -0.203125q-0.328125 -0.078125 -0.625 -0.078125q-0.375 0 -0.75 0.140625q-0.359375 0.140625 -0.625 0.53125q-0.25 0.375 -0.25 1.140625l0 11.84375l-1.234375 0zm-1.71875 -9.21875l0 -0.90625l5.171875 0l0 0.90625l-5.171875 0zm12.776764 -3.953125l1.25 0l0 8.515625q0 1.984375 0.984375 2.859375q1.0 0.875 2.609375 0.875q1.609375 0 2.59375 -0.875q0.984375 -0.875 0.984375 -2.859375l0 -8.515625l1.234375 0l0 8.515625q0 1.65625 -0.609375 2.75q-0.59375 1.078125 -1.6875 1.609375q-1.078125 0.53125 -2.515625 0.53125q-1.4375 0 -2.53125 -0.53125q-1.09375 -0.53125 -1.703125 -1.609375q-0.609375 -1.09375 -0.609375 -2.75l0 -8.515625zm21.438843 0l1.71875 0l-8.265625 8.546875l0 -1.8125l6.546875 -6.734375zm-4.234375 5.625l6.3125 7.546875l-1.640625 0l-5.578125 -6.734375l0.90625 -0.8125zm-3.328125 -5.625l1.265625 0l0 13.171875l-1.265625 0l0 -13.171875zm23.532867 13.171875l-0.15625 -2.09375l0 -4.484375q0 -1.53125 -0.65625 -2.171875q-0.65625 -0.640625 -1.890625 -0.640625q-0.6875 0 -1.28125 0.203125q-0.578125 0.203125 -0.9375 0.640625q-0.34375 0.421875 -0.34375 1.125l-1.40625 0q0 -1.078125 0.53125 -1.71875q0.53125 -0.65625 1.4375 -0.9375q0.90625 -0.28125 2.0 -0.28125q1.09375 0 1.9375 0.390625q0.859375 0.375 1.34375 1.21875q0.5 0.828125 0.5 2.1875l0 6.5625l-1.078125 0zm-3.515625 0.234375q-1.21875 0 -2.015625 -0.4375q-0.78125 -0.453125 -1.171875 -1.140625q-0.375 -0.6875 -0.375 -1.421875q0 -1.078125 0.515625 -1.71875q0.53125 -0.640625 1.390625 -0.921875q0.875 -0.28125 1.90625 -0.28125q0.78125 0 1.609375 0.171875q0.84375 0.171875 1.609375 0.484375l0 0.828125q-0.65625 -0.28125 -1.53125 -0.453125q-0.859375 -0.171875 -1.5625 -0.171875q-1.078125 0 -1.859375 0.46875q-0.765625 0.46875 -0.765625 1.59375q0 0.828125 0.5625 1.421875q0.578125 0.59375 1.859375 0.59375q0.859375 0 1.578125 -0.421875q0.734375 -0.421875 1.171875 -1.03125q0.4375 -0.625 0.4375 -1.25l0.3125 0q0 0.96875 -0.453125 1.8125q-0.453125 0.84375 -1.28125 1.359375q-0.828125 0.515625 -1.9375 0.515625zm12.274048 0q-1.203125 0 -2.21875 -0.65625q-1.015625 -0.65625 -1.625 -1.84375q-0.609375 -1.203125 -0.609375 -2.828125q0 -1.640625 0.59375 -2.8125q0.609375 -1.171875 1.609375 -1.8125q1.0 -0.640625 2.171875 -0.640625q1.109375 0 1.953125 0.546875q0.859375 0.53125 1.328125 1.53125q0.484375 1.0 0.484375 2.390625l-0.5625 0q0 -1.109375 -0.4375 -1.859375q-0.421875 -0.765625 -1.125 -1.140625q-0.6875 -0.390625 -1.46875 -0.390625q-0.875 0 -1.609375 0.5q-0.734375 0.5 -1.1875 1.4375q-0.453125 0.921875 -0.453125 2.25q0 1.328125 0.4375 2.28125q0.453125 0.953125 1.1875 1.453125q0.75 0.5 1.625 0.5q0.75 0 1.4375 -0.375q0.703125 -0.390625 1.140625 -1.140625q0.453125 -0.765625 0.453125 -1.859375l0.5625 0q0 1.40625 -0.484375 2.40625q-0.484375 1.0 -1.328125 1.53125q-0.828125 0.53125 -1.875 0.53125zm3.3125 -0.234375l-0.1875 -2.296875l0 -12.203125l1.234375 0l0 14.5l-1.046875 0zm12.491028 -10.125l1.234375 0l0 10.125l-1.234375 0l0 -10.125zm-7.296875 0l1.25 0l0 6.34375q0 1.40625 0.6875 2.15625q0.6875 0.734375 1.984375 0.734375q1.0625 0 1.8125 -0.5625q0.765625 -0.578125 1.15625 -1.546875q0.40625 -0.984375 0.40625 -2.15625l0.59375 0q0 1.625 -0.5 2.828125q-0.5 1.203125 -1.421875 1.859375q-0.921875 0.65625 -2.171875 0.65625q-1.171875 0 -2.03125 -0.4375q-0.84375 -0.4375 -1.3125 -1.296875q-0.453125 -0.875 -0.453125 -2.171875l0 -6.40625zm13.0338745 10.125l0 -14.5l1.234375 0l0 14.5l-1.234375 0zm8.669037 0.234375q-0.78125 0 -1.40625 -0.3125q-0.609375 -0.3125 -0.953125 -0.90625q-0.34375 -0.609375 -0.34375 -1.515625l0 -10.5l1.203125 0l0 10.484375q0 1.71875 1.609375 1.71875q0.46875 0 0.890625 -0.09375q0.421875 -0.109375 0.953125 -0.296875l0.171875 0.90625q-0.515625 0.234375 -1.046875 0.375q-0.515625 0.140625 -1.078125 0.140625zm-4.4375 -9.453125l0 -0.90625l6.359375 0l0 0.90625l-6.359375 0zm12.879181 9.453125q-1.46875 0 -2.421875 -0.421875q-0.953125 -0.4375 -1.4375 -1.15625q-0.484375 -0.71875 -0.53125 -1.625l1.25 0q0.0625 1.078125 0.859375 1.625q0.8125 0.546875 2.203125 0.546875q0.734375 0 1.34375 -0.234375q0.625 -0.234375 1.0 -0.65625q0.375 -0.421875 0.375 -0.953125q0 -0.6875 -0.5 -1.0625q-0.5 -0.390625 -1.59375 -0.671875l-1.84375 -0.546875q-1.328125 -0.390625 -2.03125 -1.09375q-0.703125 -0.71875 -0.703125 -1.703125q0 -1.203125 1.03125 -1.921875q1.03125 -0.71875 2.703125 -0.71875q1.8125 0 2.828125 0.71875q1.015625 0.71875 1.0625 1.78125l-1.28125 0q-0.109375 -0.75 -0.78125 -1.125q-0.65625 -0.375 -1.828125 -0.375q-1.171875 0 -1.8125 0.546875q-0.625 0.53125 -0.625 1.15625q0 1.21875 2.078125 1.78125l1.8125 0.5625q1.375 0.390625 2.09375 1.03125q0.71875 0.640625 0.71875 1.640625q0 0.734375 -0.484375 1.390625q-0.46875 0.65625 -1.359375 1.078125q-0.875 0.40625 -2.125 0.40625zm18.675049 -0.234375l-0.15625 -2.09375l0 -4.484375q0 -1.53125 -0.65625 -2.171875q-0.65625 -0.640625 -1.890625 -0.640625q-0.6875 0 -1.28125 0.203125q-0.578125 0.203125 -0.9375 0.640625q-0.34375 0.421875 -0.34375 1.125l-1.40625 0q0 -1.078125 0.53125 -1.71875q0.53125 -0.65625 1.4375 -0.9375q0.90625 -0.28125 2.0 -0.28125q1.09375 0 1.9375 0.390625q0.859375 0.375 1.34375 1.21875q0.5 0.828125 0.5 2.1875l0 6.5625l-1.078125 0zm-3.515625 0.234375q-1.21875 0 -2.015625 -0.4375q-0.78125 -0.453125 -1.171875 -1.140625q-0.375 -0.6875 -0.375 -1.421875q0 -1.078125 0.515625 -1.71875q0.53125 -0.640625 1.390625 -0.921875q0.875 -0.28125 1.90625 -0.28125q0.78125 0 1.609375 0.171875q0.84375 0.171875 1.609375 0.484375l0 0.828125q-0.65625 -0.28125 -1.53125 -0.453125q-0.859375 -0.171875 -1.5625 -0.171875q-1.078125 0 -1.859375 0.46875q-0.765625 0.46875 -0.765625 1.59375q0 0.828125 0.5625 1.421875q0.578125 0.59375 1.859375 0.59375q0.859375 0 1.578125 -0.421875q0.734375 -0.421875 1.171875 -1.03125q0.4375 -0.625 0.4375 -1.25l0.3125 0q0 0.96875 -0.453125 1.8125q-0.453125 0.84375 -1.28125 1.359375q-0.828125 0.515625 -1.9375 0.515625zm8.711578 -0.234375l0 -10.125l1.234375 0l0 10.125l-1.234375 0zm0.78125 -4.640625q0 -1.890625 0.328125 -3.140625q0.328125 -1.265625 1.015625 -1.890625q0.703125 -0.640625 1.78125 -0.640625q0.375 0 0.6875 0.0625q0.3125 0.046875 0.640625 0.15625l-0.140625 1.203125q-0.3125 -0.109375 -0.6875 -0.1875q-0.375 -0.078125 -0.640625 -0.078125q-0.953125 0 -1.5 0.578125q-0.546875 0.5625 -0.796875 1.59375q-0.234375 1.015625 -0.234375 2.34375l-0.453125 0zm9.988861 4.875q-1.328125 0 -2.34375 -0.671875q-1.0 -0.6875 -1.578125 -1.875q-0.578125 -1.1875 -0.578125 -2.703125q0 -1.671875 0.5625 -2.859375q0.578125 -1.203125 1.578125 -1.84375q1.015625 -0.640625 2.359375 -0.640625q1.109375 0 1.890625 0.453125q0.796875 0.453125 1.265625 1.234375q0.484375 0.78125 0.671875 1.765625q0.203125 0.984375 0.171875 2.015625l-7.484375 0l0 -0.84375l6.71875 0l-0.484375 0.3125q0.03125 -0.6875 -0.09375 -1.375q-0.109375 -0.6875 -0.40625 -1.265625q-0.296875 -0.578125 -0.84375 -0.921875q-0.546875 -0.359375 -1.40625 -0.359375q-1.078125 0 -1.8125 0.5625q-0.71875 0.5625 -1.078125 1.453125q-0.359375 0.890625 -0.359375 1.90625l0 0.515625q0 1.15625 0.359375 2.09375q0.359375 0.921875 1.078125 1.46875q0.71875 0.546875 1.8125 0.546875q1.109375 0 1.8125 -0.546875q0.71875 -0.546875 0.859375 -1.625l1.328125 0q-0.171875 1.015625 -0.71875 1.734375q-0.546875 0.71875 -1.390625 1.09375q-0.84375 0.375 -1.890625 0.375zm15.227905 0q-0.78125 0 -1.40625 -0.3125q-0.609375 -0.3125 -0.953125 -0.90625q-0.34375 -0.609375 -0.34375 -1.515625l0 -10.5l1.203125 0l0 10.484375q0 1.71875 1.609375 1.71875q0.46875 0 0.890625 -0.09375q0.421875 -0.109375 0.953125 -0.296875l0.171875 0.90625q-0.515625 0.234375 -1.046875 0.375q-0.515625 0.140625 -1.078125 0.140625zm-4.4375 -9.453125l0 -0.90625l6.359375 0l0 0.90625l-6.359375 0zm12.801056 9.453125q-1.34375 0 -2.390625 -0.609375q-1.03125 -0.609375 -1.625 -1.78125q-0.59375 -1.1875 -0.59375 -2.90625q0 -1.71875 0.59375 -2.890625q0.59375 -1.1875 1.625 -1.796875q1.046875 -0.609375 2.390625 -0.609375q1.359375 0 2.390625 0.609375q1.03125 0.609375 1.609375 1.796875q0.59375 1.171875 0.59375 2.890625q0 1.71875 -0.59375 2.90625q-0.578125 1.171875 -1.609375 1.78125q-1.03125 0.609375 -2.390625 0.609375zm-0.015625 -1.078125q1.109375 0 1.859375 -0.515625q0.75 -0.53125 1.109375 -1.484375q0.375 -0.953125 0.375 -2.21875q0 -1.90625 -0.8125 -3.0625q-0.8125 -1.171875 -2.484375 -1.171875q-1.125 0 -1.875 0.53125q-0.734375 0.515625 -1.109375 1.484375q-0.359375 0.953125 -0.359375 2.21875q0 1.890625 0.8125 3.0625q0.8125 1.15625 2.484375 1.15625zm11.458099 1.078125q-1.34375 0 -2.390625 -0.609375q-1.03125 -0.609375 -1.625 -1.78125q-0.59375 -1.1875 -0.59375 -2.90625q0 -1.71875 0.59375 -2.890625q0.59375 -1.1875 1.625 -1.796875q1.046875 -0.609375 2.390625 -0.609375q1.359375 0 2.390625 0.609375q1.03125 0.609375 1.609375 1.796875q0.59375 1.171875 0.59375 2.890625q0 1.71875 -0.59375 2.90625q-0.578125 1.171875 -1.609375 1.78125q-1.03125 0.609375 -2.390625 0.609375zm-0.015625 -1.078125q1.109375 0 1.859375 -0.515625q0.75 -0.53125 1.109375 -1.484375q0.375 -0.953125 0.375 -2.21875q0 -1.90625 -0.8125 -3.0625q-0.8125 -1.171875 -2.484375 -1.171875q-1.125 0 -1.875 0.53125q-0.734375 0.515625 -1.109375 1.484375q-0.359375 0.953125 -0.359375 2.21875q0 1.890625 0.8125 3.0625q0.8125 1.15625 2.484375 1.15625z" fill-rule="nonzero"/><path fill="#000000" d="m260.5868 360.04758q-1.46875 0 -2.421875 -0.421875q-0.953125 -0.4375 -1.4375 -1.15625q-0.484375 -0.71875 -0.53125 -1.625l1.25 0q0.0625 1.078125 0.859375 1.625q0.8125 0.546875 2.203125 0.546875q0.734375 0 1.34375 -0.234375q0.625 -0.234375 1.0 -0.65625q0.375 -0.421875 0.375 -0.953125q0 -0.6875 -0.5 -1.0625q-0.5 -0.390625 -1.59375 -0.671875l-1.84375 -0.546875q-1.328125 -0.390625 -2.03125 -1.09375q-0.703125 -0.71875 -0.703125 -1.703125q0 -1.203125 1.03125 -1.921875q1.03125 -0.71875 2.703125 -0.71875q1.8125 0 2.828125 0.71875q1.015625 0.71875 1.0625 1.78125l-1.28125 0q-0.109375 -0.75 -0.78125 -1.125q-0.65625 -0.375 -1.828125 -0.375q-1.171875 0 -1.8125 0.546875q-0.625 0.53125 -0.625 1.15625q0 1.21875 2.078125 1.78125l1.8125 0.5625q1.375 0.390625 2.09375 1.03125q0.71875 0.640625 0.71875 1.640625q0 0.734375 -0.484375 1.390625q-0.46875 0.65625 -1.359375 1.078125q-0.875 0.40625 -2.125 0.40625zm11.030273 0q-1.1875 0 -2.21875 -0.640625q-1.03125 -0.65625 -1.671875 -1.84375q-0.640625 -1.203125 -0.640625 -2.84375q0 -1.640625 0.640625 -2.8125q0.640625 -1.1875 1.671875 -1.8125q1.03125 -0.640625 2.21875 -0.640625q0.78125 0 1.421875 0.234375q0.65625 0.234375 1.140625 0.640625q0.5 0.40625 0.84375 0.953125q0.359375 0.53125 0.5625 1.15625l-1.296875 0.1875q-0.3125 -0.984375 -1.015625 -1.53125q-0.703125 -0.5625 -1.6875 -0.5625q-0.828125 0 -1.5625 0.484375q-0.71875 0.484375 -1.1875 1.421875q-0.453125 0.921875 -0.453125 2.28125q0 1.25 0.40625 2.203125q0.40625 0.953125 1.125 1.5q0.734375 0.53125 1.671875 0.53125q1.296875 0 2.0 -0.640625q0.703125 -0.640625 0.703125 -1.8125l1.296875 0q0 1.046875 -0.515625 1.859375q-0.5 0.796875 -1.390625 1.25q-0.890625 0.4375 -2.0625 0.4375zm13.6059265 -0.234375l-0.15625 -2.09375l0 -4.484375q0 -1.53125 -0.65625 -2.171875q-0.65625 -0.640625 -1.890625 -0.640625q-0.6875 0 -1.28125 0.203125q-0.578125 0.203125 -0.9375 0.640625q-0.34375 0.421875 -0.34375 1.125l-1.40625 0q0 -1.078125 0.53125 -1.71875q0.53125 -0.65625 1.4375 -0.9375q0.90625 -0.28125 2.0 -0.28125q1.09375 0 1.9375 0.390625q0.859375 0.375 1.34375 1.21875q0.5 0.828125 0.5 2.1875l0 6.5625l-1.078125 0zm-3.515625 0.234375q-1.21875 0 -2.015625 -0.4375q-0.78125 -0.453125 -1.171875 -1.140625q-0.375 -0.6875 -0.375 -1.421875q0 -1.078125 0.515625 -1.71875q0.53125 -0.640625 1.390625 -0.921875q0.875 -0.28125 1.90625 -0.28125q0.78125 0 1.609375 0.171875q0.84375 0.171875 1.609375 0.484375l0 0.828125q-0.65625 -0.28125 -1.53125 -0.453125q-0.859375 -0.171875 -1.5625 -0.171875q-1.078125 0 -1.859375 0.46875q-0.765625 0.46875 -0.765625 1.59375q0 0.828125 0.5625 1.421875q0.578125 0.59375 1.859375 0.59375q0.859375 0 1.578125 -0.421875q0.734375 -0.421875 1.171875 -1.03125q0.4375 -0.625 0.4375 -1.25l0.3125 0q0 0.96875 -0.453125 1.8125q-0.453125 0.84375 -1.28125 1.359375q-0.828125 0.515625 -1.9375 0.515625zm8.711578 -0.234375l0 -10.125l1.234375 0l0 10.125l-1.234375 0zm0.78125 -4.640625q0 -1.890625 0.328125 -3.140625q0.328125 -1.265625 1.015625 -1.890625q0.703125 -0.640625 1.78125 -0.640625q0.375 0 0.6875 0.0625q0.3125 0.046875 0.640625 0.15625l-0.140625 1.203125q-0.3125 -0.109375 -0.6875 -0.1875q-0.375 -0.078125 -0.640625 -0.078125q-0.953125 0 -1.5 0.578125q-0.546875 0.5625 -0.796875 1.59375q-0.234375 1.015625 -0.234375 2.34375l-0.453125 0zm9.988861 4.875q-1.328125 0 -2.34375 -0.671875q-1.0 -0.6875 -1.578125 -1.875q-0.578125 -1.1875 -0.578125 -2.703125q0 -1.671875 0.5625 -2.859375q0.578125 -1.203125 1.578125 -1.84375q1.015625 -0.640625 2.359375 -0.640625q1.109375 0 1.890625 0.453125q0.796875 0.453125 1.265625 1.234375q0.484375 0.78125 0.671875 1.765625q0.203125 0.984375 0.171875 2.015625l-7.484375 0l0 -0.84375l6.71875 0l-0.484375 0.3125q0.03125 -0.6875 -0.09375 -1.375q-0.109375 -0.6875 -0.40625 -1.265625q-0.296875 -0.578125 -0.84375 -0.921875q-0.546875 -0.359375 -1.40625 -0.359375q-1.078125 0 -1.8125 0.5625q-0.71875 0.5625 -1.078125 1.453125q-0.359375 0.890625 -0.359375 1.90625l0 0.515625q0 1.15625 0.359375 2.09375q0.359375 0.921875 1.078125 1.46875q0.71875 0.546875 1.8125 0.546875q1.109375 0 1.8125 -0.546875q0.71875 -0.546875 0.859375 -1.625l1.328125 0q-0.171875 1.015625 -0.71875 1.734375q-0.546875 0.71875 -1.390625 1.09375q-0.84375 0.375 -1.890625 0.375zm10.942505 0q-1.203125 0 -2.21875 -0.65625q-1.015625 -0.65625 -1.625 -1.84375q-0.609375 -1.203125 -0.609375 -2.828125q0 -1.640625 0.59375 -2.8125q0.609375 -1.171875 1.609375 -1.8125q1.0 -0.640625 2.171875 -0.640625q1.109375 0 1.953125 0.546875q0.859375 0.53125 1.328125 1.53125q0.484375 1.0 0.484375 2.390625l-0.5625 0q0 -1.109375 -0.4375 -1.859375q-0.421875 -0.765625 -1.125 -1.140625q-0.6875 -0.390625 -1.46875 -0.390625q-0.875 0 -1.609375 0.5q-0.734375 0.5 -1.1875 1.4375q-0.453125 0.921875 -0.453125 2.25q0 1.328125 0.4375 2.28125q0.453125 0.953125 1.1875 1.453125q0.75 0.5 1.625 0.5q0.75 0 1.4375 -0.375q0.703125 -0.390625 1.140625 -1.140625q0.453125 -0.765625 0.453125 -1.859375l0.5625 0q0 1.40625 -0.484375 2.40625q-0.484375 1.0 -1.328125 1.53125q-0.828125 0.53125 -1.875 0.53125zm3.3125 -0.234375l-0.1875 -2.296875l0 -12.203125l1.234375 0l0 14.5l-1.046875 0zm13.385773 0.234375q-0.78125 0 -1.40625 -0.3125q-0.609375 -0.3125 -0.953125 -0.90625q-0.34375 -0.609375 -0.34375 -1.515625l0 -10.5l1.203125 0l0 10.484375q0 1.71875 1.609375 1.71875q0.46875 0 0.890625 -0.09375q0.421875 -0.109375 0.953125 -0.296875l0.171875 0.90625q-0.515625 0.234375 -1.046875 0.375q-0.515625 0.140625 -1.078125 0.140625zm-4.4375 -9.453125l0 -0.90625l6.359375 0l0 0.90625l-6.359375 0zm12.801086 9.453125q-1.34375 0 -2.390625 -0.609375q-1.03125 -0.609375 -1.625 -1.78125q-0.59375 -1.1875 -0.59375 -2.90625q0 -1.71875 0.59375 -2.890625q0.59375 -1.1875 1.625 -1.796875q1.046875 -0.609375 2.390625 -0.609375q1.359375 0 2.390625 0.609375q1.03125 0.609375 1.609375 1.796875q0.59375 1.171875 0.59375 2.890625q0 1.71875 -0.59375 2.90625q-0.578125 1.171875 -1.609375 1.78125q-1.03125 0.609375 -2.390625 0.609375zm-0.015625 -1.078125q1.109375 0 1.859375 -0.515625q0.75 -0.53125 1.109375 -1.484375q0.375 -0.953125 0.375 -2.21875q0 -1.90625 -0.8125 -3.0625q-0.8125 -1.171875 -2.484375 -1.171875q-1.125 0 -1.875 0.53125q-0.734375 0.515625 -1.109375 1.484375q-0.359375 0.953125 -0.359375 2.21875q0 1.890625 0.8125 3.0625q0.8125 1.15625 2.484375 1.15625zm16.27472 1.078125q-1.1875 0 -2.21875 -0.640625q-1.03125 -0.65625 -1.671875 -1.84375q-0.640625 -1.203125 -0.640625 -2.84375q0 -1.640625 0.640625 -2.8125q0.640625 -1.1875 1.671875 -1.8125q1.03125 -0.640625 2.21875 -0.640625q0.78125 0 1.421875 0.234375q0.65625 0.234375 1.140625 0.640625q0.5 0.40625 0.84375 0.953125q0.359375 0.53125 0.5625 1.15625l-1.296875 0.1875q-0.3125 -0.984375 -1.015625 -1.53125q-0.703125 -0.5625 -1.6875 -0.5625q-0.828125 0 -1.5625 0.484375q-0.71875 0.484375 -1.1875 1.421875q-0.453125 0.921875 -0.453125 2.28125q0 1.25 0.40625 2.203125q0.40625 0.953125 1.125 1.5q0.734375 0.53125 1.671875 0.53125q1.296875 0 2.0 -0.640625q0.703125 -0.640625 0.703125 -1.8125l1.296875 0q0 1.046875 -0.515625 1.859375q-0.5 0.796875 -1.390625 1.25q-0.890625 0.4375 -2.0625 0.4375zm5.699707 -10.359375l1.359375 0l3.609375 9.046875l-0.34375 0l2.6875 -9.046875l1.265625 0l-3.765625 12.25q-0.421875 1.390625 -1.171875 2.21875q-0.75 0.84375 -1.984375 0.84375q-0.640625 0 -1.203125 -0.203125q-0.546875 -0.203125 -1.140625 -0.5625l0 -1.203125q0.546875 0.484375 1.0625 0.6875q0.53125 0.203125 1.109375 0.203125q0.71875 0 1.171875 -0.46875q0.453125 -0.46875 0.734375 -1.1875q0.296875 -0.703125 0.515625 -1.421875l0.28125 -1.03125l-4.1875 -10.125zm14.679169 10.359375q-1.1875 0 -2.21875 -0.640625q-1.03125 -0.65625 -1.671875 -1.84375q-0.640625 -1.203125 -0.640625 -2.84375q0 -1.640625 0.640625 -2.8125q0.640625 -1.1875 1.671875 -1.8125q1.03125 -0.640625 2.21875 -0.640625q0.78125 0 1.421875 0.234375q0.65625 0.234375 1.140625 0.640625q0.5 0.40625 0.84375 0.953125q0.359375 0.53125 0.5625 1.15625l-1.296875 0.1875q-0.3125 -0.984375 -1.015625 -1.53125q-0.703125 -0.5625 -1.6875 -0.5625q-0.828125 0 -1.5625 0.484375q-0.71875 0.484375 -1.1875 1.421875q-0.453125 0.921875 -0.453125 2.28125q0 1.25 0.40625 2.203125q0.40625 0.953125 1.125 1.5q0.734375 0.53125 1.671875 0.53125q1.296875 0 2.0 -0.640625q0.703125 -0.640625 0.703125 -1.8125l1.296875 0q0 1.046875 -0.515625 1.859375q-0.5 0.796875 -1.390625 1.25q-0.890625 0.4375 -2.0625 0.4375zm7.434082 -0.234375l0 -14.5l1.234375 0l0 14.5l-1.234375 0zm9.106506 0.234375q-1.328125 0 -2.34375 -0.671875q-1.0 -0.6875 -1.578125 -1.875q-0.578125 -1.1875 -0.578125 -2.703125q0 -1.671875 0.5625 -2.859375q0.578125 -1.203125 1.578125 -1.84375q1.015625 -0.640625 2.359375 -0.640625q1.109375 0 1.890625 0.453125q0.796875 0.453125 1.265625 1.234375q0.484375 0.78125 0.671875 1.765625q0.203125 0.984375 0.171875 2.015625l-7.484375 0l0 -0.84375l6.71875 0l-0.484375 0.3125q0.03125 -0.6875 -0.09375 -1.375q-0.109375 -0.6875 -0.40625 -1.265625q-0.296875 -0.578125 -0.84375 -0.921875q-0.546875 -0.359375 -1.40625 -0.359375q-1.078125 0 -1.8125 0.5625q-0.71875 0.5625 -1.078125 1.453125q-0.359375 0.890625 -0.359375 1.90625l0 0.515625q0 1.15625 0.359375 2.09375q0.359375 0.921875 1.078125 1.46875q0.71875 0.546875 1.8125 0.546875q1.109375 0 1.8125 -0.546875q0.71875 -0.546875 0.859375 -1.625l1.328125 0q-0.171875 1.015625 -0.71875 1.734375q-0.546875 0.71875 -1.390625 1.09375q-0.84375 0.375 -1.890625 0.375zm15.77478 0q-1.34375 0 -2.390625 -0.609375q-1.03125 -0.609375 -1.625 -1.78125q-0.59375 -1.1875 -0.59375 -2.90625q0 -1.71875 0.59375 -2.890625q0.59375 -1.1875 1.625 -1.796875q1.046875 -0.609375 2.390625 -0.609375q1.359375 0 2.390625 0.609375q1.03125 0.609375 1.609375 1.796875q0.59375 1.171875 0.59375 2.890625q0 1.71875 -0.59375 2.90625q-0.578125 1.171875 -1.609375 1.78125q-1.03125 0.609375 -2.390625 0.609375zm-0.015625 -1.078125q1.109375 0 1.859375 -0.515625q0.75 -0.53125 1.109375 -1.484375q0.375 -0.953125 0.375 -2.21875q0 -1.90625 -0.8125 -3.0625q-0.8125 -1.171875 -2.484375 -1.171875q-1.125 0 -1.875 0.53125q-0.734375 0.515625 -1.109375 1.484375q-0.359375 0.953125 -0.359375 2.21875q0 1.890625 0.8125 3.0625q0.8125 1.15625 2.484375 1.15625zm15.286224 0.84375l0 -5.96875q0 -1.609375 -0.78125 -2.453125q-0.765625 -0.859375 -2.109375 -0.859375q-1.0 0 -1.71875 0.546875q-0.71875 0.546875 -1.109375 1.53125q-0.375 0.96875 -0.375 2.28125l-0.53125 0q0 -1.65625 0.453125 -2.875q0.453125 -1.21875 1.34375 -1.890625q0.890625 -0.671875 2.203125 -0.671875q1.171875 0 2.03125 0.53125q0.859375 0.515625 1.328125 1.5q0.46875 0.984375 0.46875 2.359375l0 5.96875l-1.203125 0zm-7.328125 0l0 -10.125l1.046875 0l0.1875 2.5l0 7.625l-1.234375 0zm20.506042 0.234375q-0.78125 0 -1.40625 -0.3125q-0.609375 -0.3125 -0.953125 -0.90625q-0.34375 -0.609375 -0.34375 -1.515625l0 -10.5l1.203125 0l0 10.484375q0 1.71875 1.609375 1.71875q0.46875 0 0.890625 -0.09375q0.421875 -0.109375 0.953125 -0.296875l0.171875 0.90625q-0.515625 0.234375 -1.046875 0.375q-0.515625 0.140625 -1.078125 0.140625zm-4.4375 -9.453125l0 -0.90625l6.359375 0l0 0.90625l-6.359375 0zm16.629211 9.21875l0 -5.96875q0 -1.609375 -0.78125 -2.453125q-0.765625 -0.859375 -2.109375 -0.859375q-1.0 0 -1.71875 0.546875q-0.71875 0.546875 -1.109375 1.53125q-0.375 0.96875 -0.375 2.28125l-0.53125 0q0 -1.65625 0.453125 -2.875q0.453125 -1.21875 1.34375 -1.890625q0.890625 -0.671875 2.203125 -0.671875q1.171875 0 2.03125 0.53125q0.859375 0.515625 1.328125 1.5q0.46875 0.984375 0.46875 2.359375l0 5.96875l-1.203125 0zm-7.328125 0l0 -14.5l1.234375 0l0 14.5l-1.234375 0zm16.048767 0.234375q-1.328125 0 -2.34375 -0.671875q-1.0 -0.6875 -1.578125 -1.875q-0.578125 -1.1875 -0.578125 -2.703125q0 -1.671875 0.5625 -2.859375q0.578125 -1.203125 1.578125 -1.84375q1.015625 -0.640625 2.359375 -0.640625q1.109375 0 1.890625 0.453125q0.796875 0.453125 1.265625 1.234375q0.484375 0.78125 0.671875 1.765625q0.203125 0.984375 0.171875 2.015625l-7.484375 0l0 -0.84375l6.71875 0l-0.484375 0.3125q0.03125 -0.6875 -0.09375 -1.375q-0.109375 -0.6875 -0.40625 -1.265625q-0.296875 -0.578125 -0.84375 -0.921875q-0.546875 -0.359375 -1.40625 -0.359375q-1.078125 0 -1.8125 0.5625q-0.71875 0.5625 -1.078125 1.453125q-0.359375 0.890625 -0.359375 1.90625l0 0.515625q0 1.15625 0.359375 2.09375q0.359375 0.921875 1.078125 1.46875q0.71875 0.546875 1.8125 0.546875q1.109375 0 1.8125 -0.546875q0.71875 -0.546875 0.859375 -1.625l1.328125 0q-0.171875 1.015625 -0.71875 1.734375q-0.546875 0.71875 -1.390625 1.09375q-0.84375 0.375 -1.890625 0.375z" fill-rule="nonzero"/><path fill="#000000" d="m257.00867 385.8132l0 -10.125l1.234375 0l0 10.125l-1.234375 0zm0.78125 -4.640625q0 -1.890625 0.328125 -3.140625q0.328125 -1.265625 1.015625 -1.890625q0.703125 -0.640625 1.78125 -0.640625q0.375 0 0.6875 0.0625q0.3125 0.046875 0.640625 0.15625l-0.140625 1.203125q-0.3125 -0.109375 -0.6875 -0.1875q-0.375 -0.078125 -0.640625 -0.078125q-0.953125 0 -1.5 0.578125q-0.546875 0.5625 -0.796875 1.59375q-0.234375 1.015625 -0.234375 2.34375l-0.453125 0zm10.098236 4.875q-1.34375 0 -2.390625 -0.609375q-1.03125 -0.609375 -1.625 -1.78125q-0.59375 -1.1875 -0.59375 -2.90625q0 -1.71875 0.59375 -2.890625q0.59375 -1.1875 1.625 -1.796875q1.046875 -0.609375 2.390625 -0.609375q1.359375 0 2.390625 0.609375q1.03125 0.609375 1.609375 1.796875q0.59375 1.171875 0.59375 2.890625q0 1.71875 -0.59375 2.90625q-0.578125 1.171875 -1.609375 1.78125q-1.03125 0.609375 -2.390625 0.609375zm-0.015625 -1.078125q1.109375 0 1.859375 -0.515625q0.75 -0.53125 1.109375 -1.484375q0.375 -0.953125 0.375 -2.21875q0 -1.90625 -0.8125 -3.0625q-0.8125 -1.171875 -2.484375 -1.171875q-1.125 0 -1.875 0.53125q-0.734375 0.515625 -1.109375 1.484375q-0.359375 0.953125 -0.359375 2.21875q0 1.890625 0.8125 3.0625q0.8125 1.15625 2.484375 1.15625zm14.129944 0.84375l-0.15625 -2.09375l0 -4.484375q0 -1.53125 -0.65625 -2.171875q-0.65625 -0.640625 -1.890625 -0.640625q-0.6875 0 -1.28125 0.203125q-0.578125 0.203125 -0.9375 0.640625q-0.34375 0.421875 -0.34375 1.125l-1.40625 0q0 -1.078125 0.53125 -1.71875q0.53125 -0.65625 1.4375 -0.9375q0.90625 -0.28125 2.0 -0.28125q1.09375 0 1.9375 0.390625q0.859375 0.375 1.34375 1.21875q0.5 0.828125 0.5 2.1875l0 6.5625l-1.078125 0zm-3.515625 0.234375q-1.21875 0 -2.015625 -0.4375q-0.78125 -0.453125 -1.171875 -1.140625q-0.375 -0.6875 -0.375 -1.421875q0 -1.078125 0.515625 -1.71875q0.53125 -0.640625 1.390625 -0.921875q0.875 -0.28125 1.90625 -0.28125q0.78125 0 1.609375 0.171875q0.84375 0.171875 1.609375 0.484375l0 0.828125q-0.65625 -0.28125 -1.53125 -0.453125q-0.859375 -0.171875 -1.5625 -0.171875q-1.078125 0 -1.859375 0.46875q-0.765625 0.46875 -0.765625 1.59375q0 0.828125 0.5625 1.421875q0.578125 0.59375 1.859375 0.59375q0.859375 0 1.578125 -0.421875q0.734375 -0.421875 1.171875 -1.03125q0.4375 -0.625 0.4375 -1.25l0.3125 0q0 0.96875 -0.453125 1.8125q-0.453125 0.84375 -1.28125 1.359375q-0.828125 0.515625 -1.9375 0.515625zm12.274078 0q-1.203125 0 -2.21875 -0.65625q-1.015625 -0.65625 -1.625 -1.84375q-0.609375 -1.203125 -0.609375 -2.828125q0 -1.640625 0.59375 -2.8125q0.609375 -1.171875 1.609375 -1.8125q1.0 -0.640625 2.171875 -0.640625q1.109375 0 1.953125 0.546875q0.859375 0.53125 1.328125 1.53125q0.484375 1.0 0.484375 2.390625l-0.5625 0q0 -1.109375 -0.4375 -1.859375q-0.421875 -0.765625 -1.125 -1.140625q-0.6875 -0.390625 -1.46875 -0.390625q-0.875 0 -1.609375 0.5q-0.734375 0.5 -1.1875 1.4375q-0.453125 0.921875 -0.453125 2.25q0 1.328125 0.4375 2.28125q0.453125 0.953125 1.1875 1.453125q0.75 0.5 1.625 0.5q0.75 0 1.4375 -0.375q0.703125 -0.390625 1.140625 -1.140625q0.453125 -0.765625 0.453125 -1.859375l0.5625 0q0 1.40625 -0.484375 2.40625q-0.484375 1.0 -1.328125 1.53125q-0.828125 0.53125 -1.875 0.53125zm3.3125 -0.234375l-0.1875 -2.296875l0 -12.203125l1.234375 0l0 14.5l-1.046875 0zm9.115997 0.234375q-1.46875 0 -2.421875 -0.421875q-0.953125 -0.4375 -1.4375 -1.15625q-0.484375 -0.71875 -0.53125 -1.625l1.25 0q0.0625 1.078125 0.859375 1.625q0.8125 0.546875 2.203125 0.546875q0.734375 0 1.34375 -0.234375q0.625 -0.234375 1.0 -0.65625q0.375 -0.421875 0.375 -0.953125q0 -0.6875 -0.5 -1.0625q-0.5 -0.390625 -1.59375 -0.671875l-1.84375 -0.546875q-1.328125 -0.390625 -2.03125 -1.09375q-0.703125 -0.71875 -0.703125 -1.703125q0 -1.203125 1.03125 -1.921875q1.03125 -0.71875 2.703125 -0.71875q1.8125 0 2.828125 0.71875q1.015625 0.71875 1.0625 1.78125l-1.28125 0q-0.109375 -0.75 -0.78125 -1.125q-0.65625 -0.375 -1.828125 -0.375q-1.171875 0 -1.8125 0.546875q-0.625 0.53125 -0.625 1.15625q0 1.21875 2.078125 1.78125l1.8125 0.5625q1.375 0.390625 2.09375 1.03125q0.71875 0.640625 0.71875 1.640625q0 0.734375 -0.484375 1.390625q-0.46875 0.65625 -1.359375 1.078125q-0.875 0.40625 -2.125 0.40625zm15.456299 0q-0.78125 0 -1.40625 -0.3125q-0.609375 -0.3125 -0.953125 -0.90625q-0.34375 -0.609375 -0.34375 -1.515625l0 -10.5l1.203125 0l0 10.484375q0 1.71875 1.609375 1.71875q0.46875 0 0.890625 -0.09375q0.421875 -0.109375 0.953125 -0.296875l0.171875 0.90625q-0.515625 0.234375 -1.046875 0.375q-0.515625 0.140625 -1.078125 0.140625zm-4.4375 -9.453125l0 -0.90625l6.359375 0l0 0.90625l-6.359375 0zm12.801086 9.453125q-1.34375 0 -2.390625 -0.609375q-1.03125 -0.609375 -1.625 -1.78125q-0.59375 -1.1875 -0.59375 -2.90625q0 -1.71875 0.59375 -2.890625q0.59375 -1.1875 1.625 -1.796875q1.046875 -0.609375 2.390625 -0.609375q1.359375 0 2.390625 0.609375q1.03125 0.609375 1.609375 1.796875q0.59375 1.171875 0.59375 2.890625q0 1.71875 -0.59375 2.90625q-0.578125 1.171875 -1.609375 1.78125q-1.03125 0.609375 -2.390625 0.609375zm-0.015625 -1.078125q1.109375 0 1.859375 -0.515625q0.75 -0.53125 1.109375 -1.484375q0.375 -0.953125 0.375 -2.21875q0 -1.90625 -0.8125 -3.0625q-0.8125 -1.171875 -2.484375 -1.171875q-1.125 0 -1.875 0.53125q-0.734375 0.515625 -1.109375 1.484375q-0.359375 0.953125 -0.359375 2.21875q0 1.890625 0.8125 3.0625q0.8125 1.15625 2.484375 1.15625zm11.071594 -9.28125l1.28125 0l2.78125 8.84375l-0.203125 0l2.75 -8.375l0.953125 0l2.71875 8.390625l-0.171875 0l2.78125 -8.859375l1.25 0l-3.328125 10.125l-1.1875 0l-2.65625 -7.859375l0.1875 0l-2.640625 7.859375l-1.1875 0l-3.328125 -10.125zm20.370789 10.359375q-1.34375 0 -2.390625 -0.609375q-1.03125 -0.609375 -1.625 -1.78125q-0.59375 -1.1875 -0.59375 -2.90625q0 -1.71875 0.59375 -2.890625q0.59375 -1.1875 1.625 -1.796875q1.046875 -0.609375 2.390625 -0.609375q1.359375 0 2.390625 0.609375q1.03125 0.609375 1.609375 1.796875q0.59375 1.171875 0.59375 2.890625q0 1.71875 -0.59375 2.90625q-0.578125 1.171875 -1.609375 1.78125q-1.03125 0.609375 -2.390625 0.609375zm-0.015625 -1.078125q1.109375 0 1.859375 -0.515625q0.75 -0.53125 1.109375 -1.484375q0.375 -0.953125 0.375 -2.21875q0 -1.90625 -0.8125 -3.0625q-0.8125 -1.171875 -2.484375 -1.171875q-1.125 0 -1.875 0.53125q-0.734375 0.515625 -1.109375 1.484375q-0.359375 0.953125 -0.359375 2.21875q0 1.890625 0.8125 3.0625q0.8125 1.15625 2.484375 1.15625zm7.9580994 0.84375l0 -10.125l1.234375 0l0 10.125l-1.234375 0zm0.78125 -4.640625q0 -1.890625 0.328125 -3.140625q0.328125 -1.265625 1.015625 -1.890625q0.703125 -0.640625 1.78125 -0.640625q0.375 0 0.6875 0.0625q0.3125 0.046875 0.640625 0.15625l-0.140625 1.203125q-0.3125 -0.109375 -0.6875 -0.1875q-0.375 -0.078125 -0.640625 -0.078125q-0.953125 0 -1.5 0.578125q-0.546875 0.5625 -0.796875 1.59375q-0.234375 1.015625 -0.234375 2.34375l-0.453125 0zm6.598236 4.640625l0 -14.5l1.234375 0l0 14.5l-1.234375 0zm1.03125 -5.5625l5.578125 -4.5625l1.78125 0l-7.359375 5.921875l0 -1.359375zm6.0625 5.5625l-4.953125 -6.359375l1.328125 -0.171875l5.15625 6.53125l-1.53125 0z" fill-rule="nonzero"/><path fill="#2e363d" d="m383.9465 385.0632q0 -0.390625 0.28125 -0.6875q0.28125 -0.296875 0.703125 -0.296875q0.421875 0 0.71875 0.296875q0.296875 0.296875 0.296875 0.6875q0 0.390625 -0.296875 0.671875q-0.296875 0.265625 -0.71875 0.265625q-0.421875 0 -0.703125 -0.265625q-0.28125 -0.28125 -0.28125 -0.671875z" fill-rule="nonzero"/><path fill="#008b8b" d="m238.47446 118.892494c-9.385529 0 -18.227219 8.279823 -18.227219 17.682335l0 6.0870667l48.62932 0l0 -6.0870667c-0.54382324 -9.402512 -8.841705 -17.682335 -18.788605 -17.682335z" fill-rule="evenodd"/><path fill="#008b8b" d="m244.01807 83.51029c-7.192642 0 -11.613495 5.5432663 -11.613495 11.612801c0 6.0870743 5.526062 11.612801 11.613495 11.612801c6.6312714 0 11.595947 -5.5257263 11.595947 -11.612801c0 -6.6308746 -5.526062 -11.612801 -11.595947 -11.612801z" fill-rule="evenodd"/><path fill="#008b8b" d="m244.01807 70.24854c13.262543 0 24.314667 11.05146 24.314667 24.33075c0 5.5257263 -2.2104187 11.051453 -5.526062 14.91069c9.946899 4.981926 17.12201 15.472046 17.12201 27.084846l0 11.612793l0.56137085 0c0 3.315445 -2.7717896 6.0695343 -6.087433 6.0695343l-60.242813 0c-3.3156433 0 -6.0699005 -2.7540894 -6.0699005 -6.0695343l0 -11.612793c0 -11.612801 7.17511 -22.10292 17.12201 -27.084846c-3.315628 -3.8592377 -5.5260468 -8.841164 -5.5260468 -14.91069c0 -13.279289 11.052109 -24.33075 24.3322 -24.33075zm0 -23.208057c-40.349 0 -71.85631 32.04922 -71.85631 71.852005c0 17.682335 6.0698853 33.71572 17.139557 45.872322l-12.174881 12.700394c-2.684082 -1.2454834 -5.455887 -1.8594513 -8.1575165 -1.8594513c-4.50856 0 -8.824142 1.7191162 -12.280136 5.1748962l-39.243782 39.24144c-12.841507 12.840744 -0.1754303 31.294922 13.630943 31.294922c4.034897 0 8.175064 -1.5787811 11.788925 -5.3152313l39.78763 -39.785248c5.5435944 -5.5257263 6.087433 -13.82309 3.315628 -19.910156l12.174881 -12.156601c12.701157 9.946304 29.279343 17.13852 46.4189 17.13852c40.348984 0 71.85631 -32.610565 71.85631 -71.852005c0 -40.89039 -32.61252 -72.39581 -72.40015 -72.39581z" fill-rule="evenodd"/><path fill="#000000" fill-opacity="0.0" d="m569.5486 251.33333l295.30707 0l0 210.23622l-295.30707 0z" fill-rule="evenodd"/><path fill="#008b8b" d="m592.6892 273.1421l2.921875 3.359375l-12.203125 8.578125l0 -1.859375l12.203125 8.546875l-2.921875 3.359375l-12.453125 -9.0l0 -3.953125l12.453125 -9.03125zm25.135925 23.546875q-2.625 0 -4.625 -0.890625q-1.984375 -0.90625 -3.140625 -2.640625q-1.140625 -1.75 -1.203125 -4.21875l4.484375 0q0 1.859375 1.28125 2.796875q1.296875 0.921875 3.203125 0.921875q2.03125 0 3.328125 -1.3125q1.296875 -1.3125 1.296875 -3.234375q0 -3.734375 -5.0 -3.734375l-7.390625 0l1.109375 -12.421875l14.53125 0l0 4.03125l-10.984375 0l0.859375 -1.28125l-0.703125 7.203125l-0.375 -0.40625q0.890625 -0.203125 2.125 -0.296875q1.234375 -0.109375 2.125 -0.109375q3.75 0 5.984375 1.828125q2.234375 1.8125 2.234375 5.1875q0 2.40625 -1.140625 4.359375q-1.140625 1.953125 -3.203125 3.09375q-2.046875 1.125 -4.796875 1.125zm22.459412 0q-2.984375 0 -5.25 -1.375q-2.265625 -1.375 -3.546875 -4.171875q-1.28125 -2.8125 -1.28125 -7.0625q0 -4.28125 1.28125 -7.078125q1.28125 -2.796875 3.546875 -4.171875q2.265625 -1.375 5.25 -1.375q2.953125 0 5.21875 1.375q2.265625 1.375 3.546875 4.171875q1.28125 2.796875 1.28125 7.078125q0 4.25 -1.28125 7.0625q-1.28125 2.796875 -3.546875 4.171875q-2.265625 1.375 -5.21875 1.375zm0 -4.03125q2.625 0 4.046875 -2.203125q1.4375 -2.21875 1.4375 -6.375q0 -4.15625 -1.4375 -6.390625q-1.421875 -2.234375 -4.046875 -2.234375q-2.625 0 -4.078125 2.234375q-1.4375 2.234375 -1.4375 6.390625q0 4.15625 1.4375 6.375q1.453125 2.203125 4.078125 2.203125zm15.735107 3.515625l16.421875 -24.21875l4.453125 0l-16.390625 24.21875l-4.484375 0zm17.515625 0.40625q-1.34375 0 -2.5 -0.625q-1.15625 -0.625 -1.875 -1.875q-0.703125 -1.265625 -0.703125 -3.171875q0 -1.90625 0.703125 -3.15625q0.71875 -1.265625 1.875 -1.890625q1.15625 -0.625 2.5 -0.625q1.375 0 2.546875 0.625q1.1875 0.625 1.890625 1.890625q0.703125 1.25 0.703125 3.15625q0 1.90625 -0.703125 3.171875q-0.703125 1.25 -1.890625 1.875q-1.171875 0.625 -2.546875 0.625zm0 -2.828125q0.8125 0 1.3125 -0.640625q0.515625 -0.640625 0.515625 -2.203125q0 -1.546875 -0.515625 -2.203125q-0.5 -0.671875 -1.3125 -0.671875q-0.8125 0 -1.3125 0.671875q-0.484375 0.65625 -0.484375 2.203125q0 1.5625 0.484375 2.203125q0.5 0.640625 1.3125 0.640625zm-14.109375 -10.984375q-1.34375 0 -2.5 -0.625q-1.15625 -0.625 -1.875 -1.875q-0.703125 -1.265625 -0.703125 -3.171875q0 -1.875 0.703125 -3.125q0.71875 -1.25 1.875 -1.875q1.15625 -0.640625 2.5 -0.640625q1.375 0 2.546875 0.640625q1.1875 0.625 1.890625 1.875q0.703125 1.25 0.703125 3.125q0 1.90625 -0.703125 3.171875q-0.703125 1.25 -1.890625 1.875q-1.171875 0.625 -2.546875 0.625zm0 -2.796875q0.796875 0 1.3125 -0.640625q0.515625 -0.65625 0.515625 -2.234375q0 -1.546875 -0.515625 -2.1875q-0.515625 -0.640625 -1.3125 -0.640625q-0.8125 0 -1.3125 0.640625q-0.484375 0.640625 -0.484375 2.1875q0 1.578125 0.484375 2.234375q0.5 0.640625 1.3125 0.640625z" fill-rule="nonzero"/><path fill="#0b0c0c" d="m585.0017 328.63895q-1.515625 0 -2.6875 -0.6875q-1.15625 -0.6875 -1.828125 -2.015625q-0.671875 -1.328125 -0.671875 -3.265625q0 -1.921875 0.671875 -3.25q0.671875 -1.328125 1.828125 -2.015625q1.171875 -0.6875 2.6875 -0.6875q1.53125 0 2.6875 0.6875q1.171875 0.6875 1.828125 2.015625q0.65625 1.328125 0.65625 3.25q0 1.9375 -0.65625 3.265625q-0.65625 1.328125 -1.828125 2.015625q-1.15625 0.6875 -2.6875 0.6875zm-0.015625 -1.21875q1.25 0 2.09375 -0.59375q0.84375 -0.59375 1.25 -1.65625q0.421875 -1.0625 0.421875 -2.5q0 -2.140625 -0.921875 -3.453125q-0.921875 -1.3125 -2.796875 -1.3125q-1.265625 0 -2.109375 0.59375q-0.828125 0.59375 -1.25 1.671875q-0.40625 1.078125 -0.40625 2.5q0 2.140625 0.921875 3.453125q0.921875 1.296875 2.796875 1.296875zm9.563538 0.953125l0 -13.34375q0 -1.078125 0.40625 -1.765625q0.40625 -0.703125 1.109375 -1.03125q0.71875 -0.328125 1.59375 -0.328125q0.453125 0 0.90625 0.0625q0.453125 0.0625 0.90625 0.21875l-0.265625 1.140625q-0.375 -0.15625 -0.75 -0.234375q-0.375 -0.078125 -0.703125 -0.078125q-0.40625 0 -0.828125 0.15625q-0.421875 0.15625 -0.71875 0.59375q-0.28125 0.421875 -0.28125 1.28125l0 13.328125l-1.375 0zm-1.953125 -10.375l0 -1.015625l5.828125 0l0 1.015625l-5.828125 0zm12.756226 -1.015625l1.4375 0l3.140625 9.953125l-0.21875 0l3.09375 -9.4375l1.0625 0l3.0625 9.453125l-0.1875 0l3.140625 -9.96875l1.390625 0l-3.734375 11.390625l-1.34375 0l-2.984375 -8.84375l0.203125 0l-2.96875 8.84375l-1.328125 0l-3.765625 -11.390625zm22.933289 11.65625q-1.515625 0 -2.6875 -0.6875q-1.15625 -0.6875 -1.828125 -2.015625q-0.671875 -1.328125 -0.671875 -3.265625q0 -1.921875 0.671875 -3.25q0.671875 -1.328125 1.828125 -2.015625q1.171875 -0.6875 2.6875 -0.6875q1.53125 0 2.6875 0.6875q1.171875 0.6875 1.828125 2.015625q0.65625 1.328125 0.65625 3.25q0 1.9375 -0.65625 3.265625q-0.65625 1.328125 -1.828125 2.015625q-1.15625 0.6875 -2.6875 0.6875zm-0.015625 -1.21875q1.25 0 2.09375 -0.59375q0.84375 -0.59375 1.25 -1.65625q0.421875 -1.0625 0.421875 -2.5q0 -2.140625 -0.921875 -3.453125q-0.921875 -1.3125 -2.796875 -1.3125q-1.265625 0 -2.109375 0.59375q-0.828125 0.59375 -1.25 1.671875q-0.40625 1.078125 -0.40625 2.5q0 2.140625 0.921875 3.453125q0.921875 1.296875 2.796875 1.296875zm25.235413 0.953125l0 -6.703125q0 -1.8125 -0.859375 -2.765625q-0.859375 -0.96875 -2.359375 -0.96875q-1.703125 0 -2.578125 1.296875q-0.875 1.28125 -0.875 3.421875l-0.71875 0q0 -1.390625 0.28125 -2.5q0.296875 -1.125 0.859375 -1.875q0.5625 -0.765625 1.390625 -1.15625q0.84375 -0.40625 1.9375 -0.40625q1.328125 0 2.28125 0.59375q0.96875 0.59375 1.5 1.703125q0.53125 1.109375 0.53125 2.65625l0 6.703125l-1.390625 0zm-16.28125 0l0 -11.390625l1.1875 0l0.15625 2.46875q0.515625 -1.296875 1.515625 -2.015625q1.0 -0.71875 2.4375 -0.71875q1.3125 0 2.28125 0.59375q0.96875 0.59375 1.5 1.703125q0.53125 1.109375 0.53125 2.65625l0 6.703125l-1.359375 0l0 -6.703125q0 -1.8125 -0.875 -2.765625q-0.859375 -0.96875 -2.390625 -0.96875q-1.109375 0 -1.921875 0.609375q-0.8125 0.609375 -1.25 1.71875q-0.421875 1.09375 -0.421875 2.578125l0 5.53125l-1.390625 0zm26.09668 0.265625q-1.484375 0 -2.625 -0.765625q-1.140625 -0.765625 -1.796875 -2.09375q-0.640625 -1.34375 -0.640625 -3.0625q0 -1.875 0.640625 -3.21875q0.65625 -1.34375 1.78125 -2.0625q1.140625 -0.71875 2.640625 -0.71875q1.25 0 2.125 0.515625q0.890625 0.515625 1.421875 1.390625q0.546875 0.875 0.765625 1.984375q0.234375 1.09375 0.1875 2.265625l-8.421875 0l0 -0.953125l7.5625 0l-0.546875 0.359375q0.03125 -0.78125 -0.09375 -1.546875q-0.125 -0.78125 -0.46875 -1.421875q-0.34375 -0.65625 -0.953125 -1.046875q-0.609375 -0.40625 -1.5625 -0.40625q-1.234375 0 -2.046875 0.640625q-0.8125 0.625 -1.21875 1.625q-0.40625 1.0 -0.40625 2.140625l0 0.59375q0 1.296875 0.40625 2.34375q0.40625 1.046875 1.203125 1.65625q0.8125 0.609375 2.046875 0.609375q1.25 0 2.046875 -0.609375q0.8125 -0.625 0.96875 -1.828125l1.484375 0q-0.1875 1.140625 -0.8125 1.953125q-0.609375 0.796875 -1.5625 1.234375q-0.9375 0.421875 -2.125 0.421875zm16.557556 -0.265625l0 -6.703125q0 -1.8125 -0.875 -2.765625q-0.859375 -0.96875 -2.390625 -0.96875q-1.109375 0 -1.921875 0.609375q-0.8125 0.609375 -1.25 1.71875q-0.421875 1.09375 -0.421875 2.578125l-0.609375 0q0 -1.875 0.5 -3.25q0.515625 -1.375 1.515625 -2.125q1.015625 -0.75 2.5 -0.75q1.3125 0 2.28125 0.59375q0.96875 0.59375 1.5 1.703125q0.53125 1.109375 0.53125 2.65625l0 6.703125l-1.359375 0zm-8.25 0l0 -11.390625l1.1875 0l0.203125 2.8125l0 8.578125l-1.390625 0zm23.783386 0.265625q-1.65625 0 -2.734375 -0.484375q-1.078125 -0.484375 -1.625 -1.296875q-0.53125 -0.8125 -0.578125 -1.828125l1.390625 0q0.078125 1.21875 0.984375 1.84375q0.90625 0.609375 2.46875 0.609375q0.8125 0 1.5 -0.265625q0.703125 -0.265625 1.125 -0.734375q0.4375 -0.484375 0.4375 -1.078125q0 -0.78125 -0.5625 -1.203125q-0.5625 -0.4375 -1.796875 -0.75l-2.0625 -0.625q-1.5 -0.421875 -2.296875 -1.21875q-0.796875 -0.8125 -0.796875 -1.921875q0 -1.34375 1.15625 -2.15625q1.171875 -0.8125 3.046875 -0.8125q2.046875 0 3.1875 0.8125q1.140625 0.796875 1.1875 2.0l-1.4375 0q-0.125 -0.859375 -0.875 -1.265625q-0.734375 -0.421875 -2.0625 -0.421875q-1.3125 0 -2.03125 0.609375q-0.71875 0.59375 -0.71875 1.3125q0 1.359375 2.359375 2.0l2.03125 0.640625q1.546875 0.421875 2.34375 1.140625q0.8125 0.71875 0.8125 1.859375q0 0.828125 -0.53125 1.578125q-0.53125 0.734375 -1.53125 1.203125q-1.0 0.453125 -2.390625 0.453125zm16.38501 -11.671875l1.390625 0l0 11.40625l-1.390625 0l0 -11.40625zm-8.203125 0l1.390625 0l0 7.15625q0 1.59375 0.765625 2.421875q0.78125 0.828125 2.25 0.828125q1.1875 0 2.03125 -0.640625q0.859375 -0.65625 1.3125 -1.734375q0.453125 -1.09375 0.453125 -2.421875l0.65625 0q0 1.828125 -0.5625 3.1875q-0.5625 1.34375 -1.59375 2.09375q-1.03125 0.734375 -2.453125 0.734375q-1.3125 0 -2.265625 -0.484375q-0.953125 -0.5 -1.46875 -1.46875q-0.515625 -0.984375 -0.515625 -2.4375l0 -7.234375zm14.65509 11.40625l0 -11.40625l1.390625 0l0 11.40625l-1.390625 0zm0.875 -5.21875q0 -2.140625 0.375 -3.546875q0.375 -1.421875 1.15625 -2.125q0.78125 -0.71875 1.984375 -0.71875q0.421875 0 0.78125 0.0625q0.359375 0.0625 0.71875 0.1875l-0.15625 1.359375q-0.359375 -0.125 -0.78125 -0.21875q-0.40625 -0.09375 -0.71875 -0.09375q-1.078125 0 -1.703125 0.65625q-0.609375 0.640625 -0.875 1.796875q-0.265625 1.140625 -0.265625 2.640625l-0.515625 0zm5.413452 -6.171875l1.578125 0l4.0 10.1875l-0.28125 0l4.0 -10.1875l1.578125 0l-4.703125 11.390625l-1.46875 0l-4.703125 -11.390625zm17.684204 11.65625q-1.484375 0 -2.625 -0.765625q-1.140625 -0.765625 -1.796875 -2.09375q-0.640625 -1.34375 -0.640625 -3.0625q0 -1.875 0.640625 -3.21875q0.65625 -1.34375 1.78125 -2.0625q1.140625 -0.71875 2.640625 -0.71875q1.25 0 2.125 0.515625q0.890625 0.515625 1.421875 1.390625q0.546875 0.875 0.765625 1.984375q0.234375 1.09375 0.1875 2.265625l-8.421875 0l0 -0.953125l7.5625 0l-0.546875 0.359375q0.03125 -0.78125 -0.09375 -1.546875q-0.125 -0.78125 -0.46875 -1.421875q-0.34375 -0.65625 -0.953125 -1.046875q-0.609375 -0.40625 -1.5625 -0.40625q-1.234375 0 -2.046875 0.640625q-0.8125 0.625 -1.21875 1.625q-0.40625 1.0 -0.40625 2.140625l0 0.59375q0 1.296875 0.40625 2.34375q0.40625 1.046875 1.203125 1.65625q0.8125 0.609375 2.046875 0.609375q1.25 0 2.046875 -0.609375q0.8125 -0.625 0.96875 -1.828125l1.484375 0q-0.1875 1.140625 -0.8125 1.953125q-0.609375 0.796875 -1.5625 1.234375q-0.9375 0.421875 -2.125 0.421875zm6.354431 -11.65625l1.53125 0l4.0625 10.171875l-0.390625 0l3.015625 -10.171875l1.4375 0l-4.25 13.796875q-0.453125 1.546875 -1.3125 2.484375q-0.84375 0.953125 -2.234375 0.953125q-0.71875 0 -1.34375 -0.234375q-0.625 -0.21875 -1.296875 -0.640625l0 -1.34375q0.625 0.53125 1.203125 0.765625q0.59375 0.234375 1.25 0.234375q0.796875 0 1.3125 -0.53125q0.515625 -0.515625 0.84375 -1.328125q0.328125 -0.796875 0.5625 -1.609375l0.328125 -1.15625l-4.71875 -11.390625zm16.48169 11.65625q-1.484375 0 -2.625 -0.765625q-1.140625 -0.765625 -1.796875 -2.09375q-0.640625 -1.34375 -0.640625 -3.0625q0 -1.875 0.640625 -3.21875q0.65625 -1.34375 1.78125 -2.0625q1.140625 -0.71875 2.640625 -0.71875q1.25 0 2.125 0.515625q0.890625 0.515625 1.421875 1.390625q0.546875 0.875 0.765625 1.984375q0.234375 1.09375 0.1875 2.265625l-8.421875 0l0 -0.953125l7.5625 0l-0.546875 0.359375q0.03125 -0.78125 -0.09375 -1.546875q-0.125 -0.78125 -0.46875 -1.421875q-0.34375 -0.65625 -0.953125 -1.046875q-0.609375 -0.40625 -1.5625 -0.40625q-1.234375 0 -2.046875 0.640625q-0.8125 0.625 -1.21875 1.625q-0.40625 1.0 -0.40625 2.140625l0 0.59375q0 1.296875 0.40625 2.34375q0.40625 1.046875 1.203125 1.65625q0.8125 0.609375 2.046875 0.609375q1.25 0 2.046875 -0.609375q0.8125 -0.625 0.96875 -1.828125l1.484375 0q-0.1875 1.140625 -0.8125 1.953125q-0.609375 0.796875 -1.5625 1.234375q-0.9375 0.421875 -2.125 0.421875zm12.323242 0q-1.359375 0 -2.515625 -0.734375q-1.140625 -0.75 -1.828125 -2.09375q-0.671875 -1.34375 -0.671875 -3.171875q0 -1.84375 0.671875 -3.15625q0.6875 -1.328125 1.796875 -2.046875q1.125 -0.71875 2.453125 -0.71875q1.25 0 2.203125 0.609375q0.953125 0.609375 1.5 1.734375q0.546875 1.109375 0.546875 2.6875l-0.640625 0q0 -1.265625 -0.484375 -2.109375q-0.484375 -0.84375 -1.265625 -1.265625q-0.78125 -0.4375 -1.671875 -0.4375q-0.96875 0 -1.8125 0.5625q-0.828125 0.5625 -1.34375 1.609375q-0.5 1.046875 -0.5 2.53125q0 1.5 0.5 2.578125q0.5 1.0625 1.34375 1.625q0.84375 0.5625 1.828125 0.5625q0.828125 0 1.609375 -0.4375q0.78125 -0.4375 1.28125 -1.28125q0.515625 -0.84375 0.515625 -2.078125l0.640625 0q0 1.578125 -0.546875 2.71875q-0.546875 1.125 -1.5 1.71875q-0.9375 0.59375 -2.109375 0.59375zm3.71875 -0.265625l-0.203125 -2.59375l0 -13.71875l1.375 0l0 16.3125l-1.171875 0zm12.351135 0l0 -13.34375q0 -1.078125 0.40625 -1.765625q0.40625 -0.703125 1.109375 -1.03125q0.71875 -0.328125 1.59375 -0.328125q0.453125 0 0.90625 0.0625q0.453125 0.0625 0.90625 0.21875l-0.265625 1.140625q-0.375 -0.15625 -0.75 -0.234375q-0.375 -0.078125 -0.703125 -0.078125q-0.40625 0 -0.828125 0.15625q-0.421875 0.15625 -0.71875 0.59375q-0.28125 0.421875 -0.28125 1.28125l0 13.328125l-1.375 0zm-1.953125 -10.375l0 -1.015625l5.828125 0l0 1.015625l-5.828125 0zm13.076294 10.640625q-1.484375 0 -2.625 -0.765625q-1.140625 -0.765625 -1.796875 -2.09375q-0.640625 -1.34375 -0.640625 -3.0625q0 -1.875 0.640625 -3.21875q0.65625 -1.34375 1.78125 -2.0625q1.140625 -0.71875 2.640625 -0.71875q1.25 0 2.125 0.515625q0.890625 0.515625 1.421875 1.390625q0.546875 0.875 0.765625 1.984375q0.234375 1.09375 0.1875 2.265625l-8.421875 0l0 -0.953125l7.5625 0l-0.546875 0.359375q0.03125 -0.78125 -0.09375 -1.546875q-0.125 -0.78125 -0.46875 -1.421875q-0.34375 -0.65625 -0.953125 -1.046875q-0.609375 -0.40625 -1.5625 -0.40625q-1.234375 0 -2.046875 0.640625q-0.8125 0.625 -1.21875 1.625q-0.40625 1.0 -0.40625 2.140625l0 0.59375q0 1.296875 0.40625 2.34375q0.40625 1.046875 1.203125 1.65625q0.8125 0.609375 2.046875 0.609375q1.25 0 2.046875 -0.609375q0.8125 -0.625 0.96875 -1.828125l1.484375 0q-0.1875 1.140625 -0.8125 1.953125q-0.609375 0.796875 -1.5625 1.234375q-0.9375 0.421875 -2.125 0.421875zm8.307617 -0.265625l0 -16.3125l1.390625 0l0 16.3125l-1.390625 0zm9.760132 0.265625q-0.890625 0 -1.578125 -0.34375q-0.6875 -0.359375 -1.078125 -1.03125q-0.390625 -0.6875 -0.390625 -1.703125l0 -11.8125l1.359375 0l0 11.796875q0 1.9375 1.796875 1.9375q0.53125 0 1.0 -0.109375q0.484375 -0.125 1.09375 -0.34375l0.1875 1.015625q-0.59375 0.265625 -1.1875 0.421875q-0.578125 0.171875 -1.203125 0.171875zm-5.0 -10.640625l0 -1.015625l7.15625 0l0 1.015625l-7.15625 0z" fill-rule="nonzero"/><path fill="#0b0c0c" d="m584.90796 357.63895q-1.328125 0 -2.5 -0.734375q-1.15625 -0.734375 -1.875 -2.078125q-0.71875 -1.34375 -0.71875 -3.171875q0 -1.859375 0.71875 -3.1875q0.71875 -1.328125 1.875 -2.03125q1.171875 -0.71875 2.5 -0.71875q0.890625 0 1.609375 0.265625q0.734375 0.25 1.28125 0.71875q0.5625 0.453125 0.953125 1.0625q0.40625 0.609375 0.625 1.3125l-1.453125 0.203125q-0.34375 -1.09375 -1.140625 -1.71875q-0.796875 -0.625 -1.890625 -0.625q-0.9375 0 -1.765625 0.546875q-0.828125 0.53125 -1.34375 1.578125q-0.515625 1.046875 -0.515625 2.59375q0 1.390625 0.453125 2.46875q0.46875 1.0625 1.28125 1.671875q0.828125 0.609375 1.890625 0.609375q1.4375 0 2.234375 -0.71875q0.796875 -0.71875 0.796875 -2.03125l1.453125 0q0 1.171875 -0.5625 2.078125q-0.5625 0.890625 -1.578125 1.40625q-1.0 0.5 -2.328125 0.5zm12.309814 0q-1.515625 0 -2.6875 -0.6875q-1.15625 -0.6875 -1.828125 -2.015625q-0.671875 -1.328125 -0.671875 -3.265625q0 -1.921875 0.671875 -3.25q0.671875 -1.328125 1.828125 -2.015625q1.171875 -0.6875 2.6875 -0.6875q1.53125 0 2.6875 0.6875q1.171875 0.6875 1.828125 2.015625q0.65625 1.328125 0.65625 3.25q0 1.9375 -0.65625 3.265625q-0.65625 1.328125 -1.828125 2.015625q-1.15625 0.6875 -2.6875 0.6875zm-0.015625 -1.21875q1.25 0 2.09375 -0.59375q0.84375 -0.59375 1.25 -1.65625q0.421875 -1.0625 0.421875 -2.5q0 -2.140625 -0.921875 -3.453125q-0.921875 -1.3125 -2.796875 -1.3125q-1.265625 0 -2.109375 0.59375q-0.828125 0.59375 -1.25 1.671875q-0.40625 1.078125 -0.40625 2.5q0 2.140625 0.921875 3.453125q0.921875 1.296875 2.796875 1.296875zm17.204224 0.953125l0 -6.703125q0 -1.8125 -0.875 -2.765625q-0.859375 -0.96875 -2.390625 -0.96875q-1.109375 0 -1.921875 0.609375q-0.8125 0.609375 -1.25 1.71875q-0.421875 1.09375 -0.421875 2.578125l-0.609375 0q0 -1.875 0.5 -3.25q0.515625 -1.375 1.515625 -2.125q1.015625 -0.75 2.5 -0.75q1.3125 0 2.28125 0.59375q0.96875 0.59375 1.5 1.703125q0.53125 1.109375 0.53125 2.65625l0 6.703125l-1.359375 0zm-8.25 0l0 -11.390625l1.1875 0l0.203125 2.8125l0 8.578125l-1.390625 0zm14.853455 0l0 -13.34375q0 -1.078125 0.40625 -1.765625q0.40625 -0.703125 1.109375 -1.03125q0.71875 -0.328125 1.59375 -0.328125q0.453125 0 0.90625 0.0625q0.453125 0.0625 0.90625 0.21875l-0.265625 1.140625q-0.375 -0.15625 -0.75 -0.234375q-0.375 -0.078125 -0.703125 -0.078125q-0.40625 0 -0.828125 0.15625q-0.421875 0.15625 -0.71875 0.59375q-0.28125 0.421875 -0.28125 1.28125l0 13.328125l-1.375 0zm-1.953125 -10.375l0 -1.015625l5.828125 0l0 1.015625l-5.828125 0zm10.03125 -4.015625q-0.453125 0 -0.734375 -0.265625q-0.265625 -0.28125 -0.265625 -0.703125q0 -0.40625 0.265625 -0.65625q0.28125 -0.25 0.734375 -0.25q0.46875 0 0.71875 0.25q0.265625 0.25 0.265625 0.65625q0 0.421875 -0.265625 0.703125q-0.25 0.265625 -0.71875 0.265625zm-0.703125 14.390625l0 -11.40625l1.390625 0l0 11.40625l-1.390625 0zm10.755371 0.265625q-1.359375 0 -2.515625 -0.734375q-1.140625 -0.75 -1.828125 -2.09375q-0.671875 -1.34375 -0.671875 -3.171875q0 -1.84375 0.671875 -3.15625q0.6875 -1.328125 1.796875 -2.046875q1.125 -0.71875 2.453125 -0.71875q1.25 0 2.203125 0.609375q0.953125 0.609375 1.5 1.734375q0.546875 1.109375 0.546875 2.6875l-0.640625 0q0 -1.265625 -0.484375 -2.109375q-0.484375 -0.84375 -1.265625 -1.265625q-0.78125 -0.4375 -1.671875 -0.4375q-0.96875 0 -1.8125 0.5625q-0.828125 0.5625 -1.34375 1.609375q-0.5 1.046875 -0.5 2.53125q0 1.5 0.5 2.578125q0.5 1.0625 1.34375 1.625q0.84375 0.5625 1.828125 0.5625q0.828125 0 1.609375 -0.4375q0.78125 -0.4375 1.28125 -1.28125q0.515625 -0.84375 0.515625 -2.078125l0.640625 0q0 1.578125 -0.546875 2.71875q-0.546875 1.125 -1.5 1.71875q-0.9375 0.59375 -2.109375 0.59375zm3.71875 -0.265625l-0.203125 -2.59375l0 -13.71875l1.375 0l0 16.3125l-1.171875 0zm10.046204 0.265625q-1.484375 0 -2.625 -0.765625q-1.140625 -0.765625 -1.796875 -2.09375q-0.640625 -1.34375 -0.640625 -3.0625q0 -1.875 0.640625 -3.21875q0.65625 -1.34375 1.78125 -2.0625q1.140625 -0.71875 2.640625 -0.71875q1.25 0 2.125 0.515625q0.890625 0.515625 1.421875 1.390625q0.546875 0.875 0.765625 1.984375q0.234375 1.09375 0.1875 2.265625l-8.421875 0l0 -0.953125l7.5625 0l-0.546875 0.359375q0.03125 -0.78125 -0.09375 -1.546875q-0.125 -0.78125 -0.46875 -1.421875q-0.34375 -0.65625 -0.953125 -1.046875q-0.609375 -0.40625 -1.5625 -0.40625q-1.234375 0 -2.046875 0.640625q-0.8125 0.625 -1.21875 1.625q-0.40625 1.0 -0.40625 2.140625l0 0.59375q0 1.296875 0.40625 2.34375q0.40625 1.046875 1.203125 1.65625q0.8125 0.609375 2.046875 0.609375q1.25 0 2.046875 -0.609375q0.8125 -0.625 0.96875 -1.828125l1.484375 0q-0.1875 1.140625 -0.8125 1.953125q-0.609375 0.796875 -1.5625 1.234375q-0.9375 0.421875 -2.125 0.421875zm16.557556 -0.265625l0 -6.703125q0 -1.8125 -0.875 -2.765625q-0.859375 -0.96875 -2.390625 -0.96875q-1.109375 0 -1.921875 0.609375q-0.8125 0.609375 -1.25 1.71875q-0.421875 1.09375 -0.421875 2.578125l-0.609375 0q0 -1.875 0.5 -3.25q0.515625 -1.375 1.515625 -2.125q1.015625 -0.75 2.5 -0.75q1.3125 0 2.28125 0.59375q0.96875 0.59375 1.5 1.703125q0.53125 1.109375 0.53125 2.65625l0 6.703125l-1.359375 0zm-8.25 0l0 -11.390625l1.1875 0l0.203125 2.8125l0 8.578125l-1.390625 0zm17.572266 0.265625q-0.890625 0 -1.578125 -0.34375q-0.6875 -0.359375 -1.078125 -1.03125q-0.390625 -0.6875 -0.390625 -1.703125l0 -11.8125l1.359375 0l0 11.796875q0 1.9375 1.796875 1.9375q0.53125 0 1.0 -0.109375q0.484375 -0.125 1.09375 -0.34375l0.1875 1.015625q-0.59375 0.265625 -1.1875 0.421875q-0.578125 0.171875 -1.203125 0.171875zm-5.0 -10.640625l0 -1.015625l7.15625 0l0 1.015625l-7.15625 0zm13.960327 -1.015625l1.4375 0l3.140625 9.953125l-0.21875 0l3.09375 -9.4375l1.0625 0l3.0625 9.453125l-0.1875 0l3.140625 -9.96875l1.390625 0l-3.734375 11.390625l-1.34375 0l-2.984375 -8.84375l0.203125 0l-2.96875 8.84375l-1.328125 0l-3.765625 -11.390625zm27.245728 11.390625l0 -6.703125q0 -1.8125 -0.875 -2.765625q-0.859375 -0.96875 -2.390625 -0.96875q-1.109375 0 -1.921875 0.609375q-0.8125 0.609375 -1.25 1.71875q-0.421875 1.09375 -0.421875 2.578125l-0.609375 0q0 -1.875 0.5 -3.25q0.515625 -1.375 1.515625 -2.125q1.015625 -0.75 2.5 -0.75q1.3125 0 2.28125 0.59375q0.96875 0.59375 1.5 1.703125q0.53125 1.109375 0.53125 2.65625l0 6.703125l-1.359375 0zm-8.25 0l0 -16.3125l1.390625 0l0 16.3125l-1.390625 0zm18.05664 0.265625q-1.484375 0 -2.625 -0.765625q-1.140625 -0.765625 -1.796875 -2.09375q-0.640625 -1.34375 -0.640625 -3.0625q0 -1.875 0.640625 -3.21875q0.65625 -1.34375 1.78125 -2.0625q1.140625 -0.71875 2.640625 -0.71875q1.25 0 2.125 0.515625q0.890625 0.515625 1.421875 1.390625q0.546875 0.875 0.765625 1.984375q0.234375 1.09375 0.1875 2.265625l-8.421875 0l0 -0.953125l7.5625 0l-0.546875 0.359375q0.03125 -0.78125 -0.09375 -1.546875q-0.125 -0.78125 -0.46875 -1.421875q-0.34375 -0.65625 -0.953125 -1.046875q-0.609375 -0.40625 -1.5625 -0.40625q-1.234375 0 -2.046875 0.640625q-0.8125 0.625 -1.21875 1.625q-0.40625 1.0 -0.40625 2.140625l0 0.59375q0 1.296875 0.40625 2.34375q0.40625 1.046875 1.203125 1.65625q0.8125 0.609375 2.046875 0.609375q1.25 0 2.046875 -0.609375q0.8125 -0.625 0.96875 -1.828125l1.484375 0q-0.1875 1.140625 -0.8125 1.953125q-0.609375 0.796875 -1.5625 1.234375q-0.9375 0.421875 -2.125 0.421875zm16.557556 -0.265625l0 -6.703125q0 -1.8125 -0.875 -2.765625q-0.859375 -0.96875 -2.390625 -0.96875q-1.109375 0 -1.921875 0.609375q-0.8125 0.609375 -1.25 1.71875q-0.421875 1.09375 -0.421875 2.578125l-0.609375 0q0 -1.875 0.5 -3.25q0.515625 -1.375 1.515625 -2.125q1.015625 -0.75 2.5 -0.75q1.3125 0 2.28125 0.59375q0.96875 0.59375 1.5 1.703125q0.53125 1.109375 0.53125 2.65625l0 6.703125l-1.359375 0zm-8.25 0l0 -11.390625l1.1875 0l0.203125 2.8125l0 8.578125l-1.390625 0zm19.752136 0l0 -11.40625l1.390625 0l0 11.40625l-1.390625 0zm0.875 -5.21875q0 -2.140625 0.375 -3.546875q0.375 -1.421875 1.15625 -2.125q0.78125 -0.71875 1.984375 -0.71875q0.421875 0 0.78125 0.0625q0.359375 0.0625 0.71875 0.1875l-0.15625 1.359375q-0.359375 -0.125 -0.78125 -0.21875q-0.40625 -0.09375 -0.71875 -0.09375q-1.078125 0 -1.703125 0.65625q-0.609375 0.640625 -0.875 1.796875q-0.265625 1.140625 -0.265625 2.640625l-0.515625 0zm8.194702 -9.171875q-0.453125 0 -0.734375 -0.265625q-0.265625 -0.28125 -0.265625 -0.703125q0 -0.40625 0.265625 -0.65625q0.28125 -0.25 0.734375 -0.25q0.46875 0 0.71875 0.25q0.265625 0.25 0.265625 0.65625q0 0.421875 -0.265625 0.703125q-0.25 0.265625 -0.71875 0.265625zm-0.703125 14.390625l0 -11.40625l1.390625 0l0 11.40625l-1.390625 0zm10.745178 0.265625q-1.359375 0 -2.515625 -0.734375q-1.140625 -0.75 -1.828125 -2.09375q-0.671875 -1.34375 -0.671875 -3.171875q0 -1.84375 0.671875 -3.15625q0.6875 -1.328125 1.796875 -2.046875q1.125 -0.71875 2.453125 -0.71875q1.25 0 2.203125 0.609375q0.953125 0.609375 1.5 1.734375q0.546875 1.109375 0.546875 2.6875l-0.640625 0q0 -1.265625 -0.484375 -2.109375q-0.484375 -0.84375 -1.265625 -1.265625q-0.78125 -0.4375 -1.671875 -0.4375q-0.96875 0 -1.8125 0.5625q-0.828125 0.5625 -1.34375 1.609375q-0.5 1.046875 -0.5 2.53125q0 1.5 0.5 2.578125q0.5 1.0625 1.34375 1.625q0.84375 0.5625 1.828125 0.5625q0.828125 0 1.609375 -0.4375q0.78125 -0.4375 1.28125 -1.28125q0.515625 -0.84375 0.515625 -2.078125l0.640625 0q0 1.578125 -0.546875 2.71875q-0.546875 1.125 -1.5 1.71875q-0.9375 0.59375 -2.109375 0.59375zm3.71875 -0.265625l-0.203125 -2.59375l0 -13.71875l1.375 0l0 16.3125l-1.171875 0zm6.9993286 -14.390625q-0.453125 0 -0.734375 -0.265625q-0.265625 -0.28125 -0.265625 -0.703125q0 -0.40625 0.265625 -0.65625q0.28125 -0.25 0.734375 -0.25q0.46875 0 0.71875 0.25q0.265625 0.25 0.265625 0.65625q0 0.421875 -0.265625 0.703125q-0.25 0.265625 -0.71875 0.265625zm-0.703125 14.390625l0 -11.40625l1.390625 0l0 11.40625l-1.390625 0zm14.979553 0l0 -6.703125q0 -1.8125 -0.875 -2.765625q-0.859375 -0.96875 -2.390625 -0.96875q-1.109375 0 -1.921875 0.609375q-0.8125 0.609375 -1.25 1.71875q-0.421875 1.09375 -0.421875 2.578125l-0.609375 0q0 -1.875 0.5 -3.25q0.515625 -1.375 1.515625 -2.125q1.015625 -0.75 2.5 -0.75q1.3125 0 2.28125 0.59375q0.96875 0.59375 1.5 1.703125q0.53125 1.109375 0.53125 2.65625l0 6.703125l-1.359375 0zm-8.25 0l0 -11.390625l1.1875 0l0.203125 2.8125l0 8.578125l-1.390625 0zm18.08783 5.84375q-1.640625 0 -2.875 -0.484375q-1.234375 -0.46875 -1.9375 -1.28125q-0.6875 -0.796875 -0.6875 -1.78125q0 -1.375 1.015625 -2.09375q1.015625 -0.703125 2.65625 -0.703125l0.515625 0.578125q-1.34375 0 -2.09375 0.59375q-0.75 0.59375 -0.75 1.59375q0 1.0 1.03125 1.71875q1.046875 0.71875 3.125 0.71875q1.5625 0 2.734375 -0.4375q1.1875 -0.4375 1.84375 -1.15625q0.671875 -0.703125 0.671875 -1.53125q0 -0.609375 -0.453125 -1.0625q-0.4375 -0.4375 -1.359375 -0.4375l-4.75 0q-1.15625 0 -1.9375 -0.328125q-0.78125 -0.34375 -1.1875 -0.890625q-0.390625 -0.546875 -0.390625 -1.171875q0 -0.71875 0.390625 -1.203125q0.40625 -0.5 1.03125 -0.75q0.640625 -0.25 1.34375 -0.25l0.171875 0.578125q-0.359375 0 -0.75 0.171875q-0.375 0.171875 -0.65625 0.515625q-0.265625 0.34375 -0.265625 0.875q0 0.59375 0.46875 1.0q0.484375 0.40625 1.78125 0.40625l4.75 0q1.5 0 2.359375 0.6875q0.859375 0.671875 0.859375 1.8125q0 1.046875 -0.796875 2.046875q-0.78125 1.0 -2.28125 1.625q-1.484375 0.640625 -3.578125 0.640625zm0.4375 -9.078125q-1.296875 0 -2.3125 -0.53125q-1.015625 -0.546875 -1.609375 -1.5q-0.578125 -0.953125 -0.578125 -2.1875q0 -1.25 0.578125 -2.1875q0.59375 -0.953125 1.609375 -1.484375q1.015625 -0.53125 2.3125 -0.53125q1.25 0 2.25 0.53125q1.015625 0.53125 1.59375 1.484375q0.59375 0.9375 0.59375 2.1875q0 1.234375 -0.59375 2.1875q-0.578125 0.953125 -1.59375 1.5q-1.0 0.53125 -2.25 0.53125zm-0.015625 -1.03125q1.421875 0 2.25 -0.90625q0.828125 -0.90625 0.828125 -2.28125q0 -1.375 -0.828125 -2.25q-0.828125 -0.875 -2.234375 -0.875q-1.4375 0 -2.265625 0.875q-0.828125 0.875 -0.828125 2.25q0 1.375 0.828125 2.28125q0.828125 0.90625 2.25 0.90625zm3.59375 -5.59375l-0.671875 -0.15625q0 -1.0 0.34375 -1.75q0.359375 -0.75 1.046875 -1.171875q0.6875 -0.421875 1.703125 -0.421875l-0.140625 1.421875q-1.09375 0 -1.6875 0.515625q-0.59375 0.5 -0.59375 1.5625zm17.933899 9.859375l-0.1875 -2.359375l0 -5.046875q0 -1.71875 -0.75 -2.4375q-0.734375 -0.71875 -2.109375 -0.71875q-0.765625 0 -1.4375 0.234375q-0.65625 0.21875 -1.046875 0.703125q-0.390625 0.484375 -0.390625 1.265625l-1.59375 0q0 -1.203125 0.59375 -1.921875q0.609375 -0.734375 1.625 -1.046875q1.015625 -0.328125 2.25 -0.328125q1.21875 0 2.171875 0.4375q0.96875 0.421875 1.53125 1.359375q0.5625 0.9375 0.5625 2.484375l0 7.375l-1.21875 0zm-3.953125 0.265625q-1.375 0 -2.265625 -0.5q-0.890625 -0.5 -1.328125 -1.28125q-0.421875 -0.78125 -0.421875 -1.609375q0 -1.1875 0.578125 -1.90625q0.578125 -0.734375 1.5625 -1.046875q0.984375 -0.328125 2.140625 -0.328125q0.875 0 1.8125 0.203125q0.953125 0.1875 1.8125 0.546875l0 0.921875q-0.75 -0.3125 -1.71875 -0.5q-0.96875 -0.203125 -1.765625 -0.203125q-1.21875 0 -2.09375 0.53125q-0.859375 0.53125 -0.859375 1.78125q0 0.953125 0.640625 1.609375q0.65625 0.65625 2.078125 0.65625q0.96875 0 1.78125 -0.453125q0.828125 -0.46875 1.3125 -1.171875q0.5 -0.703125 0.5 -1.40625l0.359375 0q0 1.09375 -0.515625 2.046875q-0.515625 0.9375 -1.453125 1.53125q-0.921875 0.578125 -2.15625 0.578125z" fill-rule="nonzero"/><path fill="#0b0c0c" d="m585.97046 386.63895q-1.171875 0 -2.109375 -0.59375q-0.9375 -0.59375 -1.5 -1.71875q-0.546875 -1.140625 -0.546875 -2.71875l0.640625 0q0 1.234375 0.5 2.078125q0.5 0.84375 1.28125 1.28125q0.78125 0.4375 1.65625 0.4375q0.96875 0 1.796875 -0.5625q0.828125 -0.5625 1.328125 -1.625q0.515625 -1.078125 0.515625 -2.578125q0 -1.484375 -0.515625 -2.53125q-0.5 -1.046875 -1.328125 -1.609375q-0.828125 -0.5625 -1.828125 -0.5625q-0.875 0 -1.65625 0.4375q-0.765625 0.421875 -1.265625 1.265625q-0.484375 0.84375 -0.484375 2.109375l-0.640625 0q0 -1.578125 0.546875 -2.6875q0.546875 -1.125 1.5 -1.734375q0.953125 -0.609375 2.1875 -0.609375q1.328125 0 2.453125 0.71875q1.125 0.71875 1.796875 2.046875q0.6875 1.3125 0.6875 3.15625q0 1.828125 -0.6875 3.171875q-0.6875 1.34375 -1.828125 2.09375q-1.140625 0.734375 -2.5 0.734375zm-4.90625 -0.265625l0 -16.3125l1.390625 0l0 13.71875l-0.328125 2.59375l-1.0625 0zm14.733704 -14.390625q-0.453125 0 -0.734375 -0.265625q-0.265625 -0.28125 -0.265625 -0.703125q0 -0.40625 0.265625 -0.65625q0.28125 -0.25 0.734375 -0.25q0.46875 0 0.71875 0.25q0.265625 0.25 0.265625 0.65625q0 0.421875 -0.265625 0.703125q-0.25 0.265625 -0.71875 0.265625zm-0.703125 14.390625l0 -11.40625l1.390625 0l0 11.40625l-1.390625 0zm10.573303 0.265625q-1.328125 0 -2.5 -0.734375q-1.15625 -0.734375 -1.875 -2.078125q-0.71875 -1.34375 -0.71875 -3.171875q0 -1.859375 0.71875 -3.1875q0.71875 -1.328125 1.875 -2.03125q1.171875 -0.71875 2.5 -0.71875q0.890625 0 1.609375 0.265625q0.734375 0.25 1.28125 0.71875q0.5625 0.453125 0.953125 1.0625q0.40625 0.609375 0.625 1.3125l-1.453125 0.203125q-0.34375 -1.09375 -1.140625 -1.71875q-0.796875 -0.625 -1.890625 -0.625q-0.9375 0 -1.765625 0.546875q-0.828125 0.53125 -1.34375 1.578125q-0.515625 1.046875 -0.515625 2.59375q0 1.390625 0.453125 2.46875q0.46875 1.0625 1.28125 1.671875q0.828125 0.609375 1.890625 0.609375q1.4375 0 2.234375 -0.71875q0.796875 -0.71875 0.796875 -2.03125l1.453125 0q0 1.171875 -0.5625 2.078125q-0.5625 0.890625 -1.578125 1.40625q-1.0 0.5 -2.328125 0.5zm6.4191895 -11.65625l1.53125 0l4.0625 10.171875l-0.390625 0l3.015625 -10.171875l1.4375 0l-4.25 13.796875q-0.453125 1.546875 -1.3125 2.484375q-0.84375 0.953125 -2.234375 0.953125q-0.71875 0 -1.34375 -0.234375q-0.625 -0.21875 -1.296875 -0.640625l0 -1.34375q0.625 0.53125 1.203125 0.765625q0.59375 0.234375 1.25 0.234375q0.796875 0 1.3125 -0.53125q0.515625 -0.515625 0.84375 -1.328125q0.328125 -0.796875 0.5625 -1.609375l0.328125 -1.15625l-4.71875 -11.390625zm16.51294 11.65625q-1.328125 0 -2.5 -0.734375q-1.15625 -0.734375 -1.875 -2.078125q-0.71875 -1.34375 -0.71875 -3.171875q0 -1.859375 0.71875 -3.1875q0.71875 -1.328125 1.875 -2.03125q1.171875 -0.71875 2.5 -0.71875q0.890625 0 1.609375 0.265625q0.734375 0.25 1.28125 0.71875q0.5625 0.453125 0.953125 1.0625q0.40625 0.609375 0.625 1.3125l-1.453125 0.203125q-0.34375 -1.09375 -1.140625 -1.71875q-0.796875 -0.625 -1.890625 -0.625q-0.9375 0 -1.765625 0.546875q-0.828125 0.53125 -1.34375 1.578125q-0.515625 1.046875 -0.515625 2.59375q0 1.390625 0.453125 2.46875q0.46875 1.0625 1.28125 1.671875q0.828125 0.609375 1.890625 0.609375q1.4375 0 2.234375 -0.71875q0.796875 -0.71875 0.796875 -2.03125l1.453125 0q0 1.171875 -0.5625 2.078125q-0.5625 0.890625 -1.578125 1.40625q-1.0 0.5 -2.328125 0.5zm8.3723755 -0.265625l0 -16.3125l1.390625 0l0 16.3125l-1.390625 0zm10.244507 0.265625q-1.484375 0 -2.625 -0.765625q-1.140625 -0.765625 -1.796875 -2.09375q-0.640625 -1.34375 -0.640625 -3.0625q0 -1.875 0.640625 -3.21875q0.65625 -1.34375 1.78125 -2.0625q1.140625 -0.71875 2.640625 -0.71875q1.25 0 2.125 0.515625q0.890625 0.515625 1.421875 1.390625q0.546875 0.875 0.765625 1.984375q0.234375 1.09375 0.1875 2.265625l-8.421875 0l0 -0.953125l7.5625 0l-0.546875 0.359375q0.03125 -0.78125 -0.09375 -1.546875q-0.125 -0.78125 -0.46875 -1.421875q-0.34375 -0.65625 -0.953125 -1.046875q-0.609375 -0.40625 -1.5625 -0.40625q-1.234375 0 -2.046875 0.640625q-0.8125 0.625 -1.21875 1.625q-0.40625 1.0 -0.40625 2.140625l0 0.59375q0 1.296875 0.40625 2.34375q0.40625 1.046875 1.203125 1.65625q0.8125 0.609375 2.046875 0.609375q1.25 0 2.046875 -0.609375q0.8125 -0.625 0.96875 -1.828125l1.484375 0q-0.1875 1.140625 -0.8125 1.953125q-0.609375 0.796875 -1.5625 1.234375q-0.9375 0.421875 -2.125 0.421875zm17.659424 0q-1.328125 0 -2.5 -0.734375q-1.15625 -0.734375 -1.875 -2.078125q-0.71875 -1.34375 -0.71875 -3.171875q0 -1.859375 0.71875 -3.1875q0.71875 -1.328125 1.875 -2.03125q1.171875 -0.71875 2.5 -0.71875q0.890625 0 1.609375 0.265625q0.734375 0.25 1.28125 0.71875q0.5625 0.453125 0.953125 1.0625q0.40625 0.609375 0.625 1.3125l-1.453125 0.203125q-0.34375 -1.09375 -1.140625 -1.71875q-0.796875 -0.625 -1.890625 -0.625q-0.9375 0 -1.765625 0.546875q-0.828125 0.53125 -1.34375 1.578125q-0.515625 1.046875 -0.515625 2.59375q0 1.390625 0.453125 2.46875q0.46875 1.0625 1.28125 1.671875q0.828125 0.609375 1.890625 0.609375q1.4375 0 2.234375 -0.71875q0.796875 -0.71875 0.796875 -2.03125l1.453125 0q0 1.171875 -0.5625 2.078125q-0.5625 0.890625 -1.578125 1.40625q-1.0 0.5 -2.328125 0.5zm12.309814 0q-1.515625 0 -2.6875 -0.6875q-1.15625 -0.6875 -1.828125 -2.015625q-0.671875 -1.328125 -0.671875 -3.265625q0 -1.921875 0.671875 -3.25q0.671875 -1.328125 1.828125 -2.015625q1.171875 -0.6875 2.6875 -0.6875q1.53125 0 2.6875 0.6875q1.171875 0.6875 1.828125 2.015625q0.65625 1.328125 0.65625 3.25q0 1.9375 -0.65625 3.265625q-0.65625 1.328125 -1.828125 2.015625q-1.15625 0.6875 -2.6875 0.6875zm-0.015625 -1.21875q1.25 0 2.09375 -0.59375q0.84375 -0.59375 1.25 -1.65625q0.421875 -1.0625 0.421875 -2.5q0 -2.140625 -0.921875 -3.453125q-0.921875 -1.3125 -2.796875 -1.3125q-1.265625 0 -2.109375 0.59375q-0.828125 0.59375 -1.25 1.671875q-0.40625 1.078125 -0.40625 2.5q0 2.140625 0.921875 3.453125q0.921875 1.296875 2.796875 1.296875zm25.235474 0.953125l0 -6.703125q0 -1.8125 -0.859375 -2.765625q-0.859375 -0.96875 -2.359375 -0.96875q-1.703125 0 -2.578125 1.296875q-0.875 1.28125 -0.875 3.421875l-0.71875 0q0 -1.390625 0.28125 -2.5q0.296875 -1.125 0.859375 -1.875q0.5625 -0.765625 1.390625 -1.15625q0.84375 -0.40625 1.9375 -0.40625q1.328125 0 2.28125 0.59375q0.96875 0.59375 1.5 1.703125q0.53125 1.109375 0.53125 2.65625l0 6.703125l-1.390625 0zm-16.28125 0l0 -11.390625l1.1875 0l0.15625 2.46875q0.515625 -1.296875 1.515625 -2.015625q1.0 -0.71875 2.4375 -0.71875q1.3125 0 2.28125 0.59375q0.96875 0.59375 1.5 1.703125q0.53125 1.109375 0.53125 2.65625l0 6.703125l-1.359375 0l0 -6.703125q0 -1.8125 -0.875 -2.765625q-0.859375 -0.96875 -2.390625 -0.96875q-1.109375 0 -1.921875 0.609375q-0.8125 0.609375 -1.25 1.71875q-0.421875 1.09375 -0.421875 2.578125l0 5.53125l-1.390625 0zm27.190369 0.265625q-1.25 0 -2.203125 -0.578125q-0.9375 -0.59375 -1.46875 -1.703125q-0.515625 -1.109375 -0.515625 -2.65625l0.671875 0q0 1.21875 0.484375 2.046875q0.5 0.8125 1.265625 1.234375q0.78125 0.421875 1.640625 0.421875q0.953125 0 1.78125 -0.546875q0.84375 -0.5625 1.375 -1.625q0.53125 -1.0625 0.53125 -2.578125q0 -1.5 -0.515625 -2.546875q-0.5 -1.0625 -1.34375 -1.609375q-0.828125 -0.5625 -1.8125 -0.5625q-0.875 0 -1.65625 0.4375q-0.765625 0.421875 -1.265625 1.265625q-0.484375 0.828125 -0.484375 2.0625l-0.671875 0q0 -1.578125 0.546875 -2.6875q0.546875 -1.125 1.5 -1.703125q0.953125 -0.59375 2.140625 -0.59375q1.34375 0 2.484375 0.71875q1.140625 0.71875 1.828125 2.046875q0.703125 1.3125 0.703125 3.171875q0 1.859375 -0.703125 3.21875q-0.703125 1.34375 -1.859375 2.0625q-1.140625 0.703125 -2.453125 0.703125zm-4.90625 5.34375l0 -17.0l1.1875 0l0.203125 2.59375l0 14.40625l-1.390625 0zm20.681213 -5.609375l-0.1875 -2.359375l0 -5.046875q0 -1.71875 -0.75 -2.4375q-0.734375 -0.71875 -2.109375 -0.71875q-0.765625 0 -1.4375 0.234375q-0.65625 0.21875 -1.046875 0.703125q-0.390625 0.484375 -0.390625 1.265625l-1.59375 0q0 -1.203125 0.59375 -1.921875q0.609375 -0.734375 1.625 -1.046875q1.015625 -0.328125 2.25 -0.328125q1.21875 0 2.171875 0.4375q0.96875 0.421875 1.53125 1.359375q0.5625 0.9375 0.5625 2.484375l0 7.375l-1.21875 0zm-3.953125 0.265625q-1.375 0 -2.265625 -0.5q-0.890625 -0.5 -1.328125 -1.28125q-0.421875 -0.78125 -0.421875 -1.609375q0 -1.1875 0.578125 -1.90625q0.578125 -0.734375 1.5625 -1.046875q0.984375 -0.328125 2.140625 -0.328125q0.875 0 1.8125 0.203125q0.953125 0.1875 1.8125 0.546875l0 0.921875q-0.75 -0.3125 -1.71875 -0.5q-0.96875 -0.203125 -1.765625 -0.203125q-1.21875 0 -2.09375 0.53125q-0.859375 0.53125 -0.859375 1.78125q0 0.953125 0.640625 1.609375q0.65625 0.65625 2.078125 0.65625q0.96875 0 1.78125 -0.453125q0.828125 -0.46875 1.3125 -1.171875q0.5 -0.703125 0.5 -1.40625l0.359375 0q0 1.09375 -0.515625 2.046875q-0.515625 0.9375 -1.453125 1.53125q-0.921875 0.578125 -2.15625 0.578125zm9.792114 -0.265625l0 -11.40625l1.390625 0l0 11.40625l-1.390625 0zm0.875 -5.21875q0 -2.140625 0.375 -3.546875q0.375 -1.421875 1.15625 -2.125q0.78125 -0.71875 1.984375 -0.71875q0.421875 0 0.78125 0.0625q0.359375 0.0625 0.71875 0.1875l-0.15625 1.359375q-0.359375 -0.125 -0.78125 -0.21875q-0.40625 -0.09375 -0.71875 -0.09375q-1.078125 0 -1.703125 0.65625q-0.609375 0.640625 -0.875 1.796875q-0.265625 1.140625 -0.265625 2.640625l-0.515625 0zm11.241577 5.484375q-1.484375 0 -2.625 -0.765625q-1.140625 -0.765625 -1.796875 -2.09375q-0.640625 -1.34375 -0.640625 -3.0625q0 -1.875 0.640625 -3.21875q0.65625 -1.34375 1.78125 -2.0625q1.140625 -0.71875 2.640625 -0.71875q1.25 0 2.125 0.515625q0.890625 0.515625 1.421875 1.390625q0.546875 0.875 0.765625 1.984375q0.234375 1.09375 0.1875 2.265625l-8.421875 0l0 -0.953125l7.5625 0l-0.546875 0.359375q0.03125 -0.78125 -0.09375 -1.546875q-0.125 -0.78125 -0.46875 -1.421875q-0.34375 -0.65625 -0.953125 -1.046875q-0.609375 -0.40625 -1.5625 -0.40625q-1.234375 0 -2.046875 0.640625q-0.8125 0.625 -1.21875 1.625q-0.40625 1.0 -0.40625 2.140625l0 0.59375q0 1.296875 0.40625 2.34375q0.40625 1.046875 1.203125 1.65625q0.8125 0.609375 2.046875 0.609375q1.25 0 2.046875 -0.609375q0.8125 -0.625 0.96875 -1.828125l1.484375 0q-0.1875 1.140625 -0.8125 1.953125q-0.609375 0.796875 -1.5625 1.234375q-0.9375 0.421875 -2.125 0.421875zm12.323181 0q-1.359375 0 -2.515625 -0.734375q-1.140625 -0.75 -1.828125 -2.09375q-0.671875 -1.34375 -0.671875 -3.171875q0 -1.84375 0.671875 -3.15625q0.6875 -1.328125 1.796875 -2.046875q1.125 -0.71875 2.453125 -0.71875q1.25 0 2.203125 0.609375q0.953125 0.609375 1.5 1.734375q0.546875 1.109375 0.546875 2.6875l-0.640625 0q0 -1.265625 -0.484375 -2.109375q-0.484375 -0.84375 -1.265625 -1.265625q-0.78125 -0.4375 -1.671875 -0.4375q-0.96875 0 -1.8125 0.5625q-0.828125 0.5625 -1.34375 1.609375q-0.5 1.046875 -0.5 2.53125q0 1.5 0.5 2.578125q0.5 1.0625 1.34375 1.625q0.84375 0.5625 1.828125 0.5625q0.828125 0 1.609375 -0.4375q0.78125 -0.4375 1.28125 -1.28125q0.515625 -0.84375 0.515625 -2.078125l0.640625 0q0 1.578125 -0.546875 2.71875q-0.546875 1.125 -1.5 1.71875q-0.9375 0.59375 -2.109375 0.59375zm3.71875 -0.265625l-0.203125 -2.59375l0 -13.71875l1.375 0l0 16.3125l-1.171875 0zm15.069885 0.265625q-0.890625 0 -1.578125 -0.34375q-0.6875 -0.359375 -1.078125 -1.03125q-0.390625 -0.6875 -0.390625 -1.703125l0 -11.8125l1.359375 0l0 11.796875q0 1.9375 1.796875 1.9375q0.53125 0 1.0 -0.109375q0.484375 -0.125 1.09375 -0.34375l0.1875 1.015625q-0.59375 0.265625 -1.1875 0.421875q-0.578125 0.171875 -1.203125 0.171875zm-5.0 -10.640625l0 -1.015625l7.15625 0l0 1.015625l-7.15625 0zm14.405457 10.640625q-1.515625 0 -2.6875 -0.6875q-1.15625 -0.6875 -1.828125 -2.015625q-0.671875 -1.328125 -0.671875 -3.265625q0 -1.921875 0.671875 -3.25q0.671875 -1.328125 1.828125 -2.015625q1.171875 -0.6875 2.6875 -0.6875q1.53125 0 2.6875 0.6875q1.171875 0.6875 1.828125 2.015625q0.65625 1.328125 0.65625 3.25q0 1.9375 -0.65625 3.265625q-0.65625 1.328125 -1.828125 2.015625q-1.15625 0.6875 -2.6875 0.6875zm-0.015625 -1.21875q1.25 0 2.09375 -0.59375q0.84375 -0.59375 1.25 -1.65625q0.421875 -1.0625 0.421875 -2.5q0 -2.140625 -0.921875 -3.453125q-0.921875 -1.3125 -2.796875 -1.3125q-1.265625 0 -2.109375 0.59375q-0.828125 0.59375 -1.25 1.671875q-0.40625 1.078125 -0.40625 2.5q0 2.140625 0.921875 3.453125q0.921875 1.296875 2.796875 1.296875z" fill-rule="nonzero"/><path fill="#0b0c0c" d="m588.01733 415.37332l-0.1875 -2.359375l0 -5.046875q0 -1.71875 -0.75 -2.4375q-0.734375 -0.71875 -2.109375 -0.71875q-0.765625 0 -1.4375 0.234375q-0.65625 0.21875 -1.046875 0.703125q-0.390625 0.484375 -0.390625 1.265625l-1.59375 0q0 -1.203125 0.59375 -1.921875q0.609375 -0.734375 1.625 -1.046875q1.015625 -0.328125 2.25 -0.328125q1.21875 0 2.171875 0.4375q0.96875 0.421875 1.53125 1.359375q0.5625 0.9375 0.5625 2.484375l0 7.375l-1.21875 0zm-3.953125 0.265625q-1.375 0 -2.265625 -0.5q-0.890625 -0.5 -1.328125 -1.28125q-0.421875 -0.78125 -0.421875 -1.609375q0 -1.1875 0.578125 -1.90625q0.578125 -0.734375 1.5625 -1.046875q0.984375 -0.328125 2.140625 -0.328125q0.875 0 1.8125 0.203125q0.953125 0.1875 1.8125 0.546875l0 0.921875q-0.75 -0.3125 -1.71875 -0.5q-0.96875 -0.203125 -1.765625 -0.203125q-1.21875 0 -2.09375 0.53125q-0.859375 0.53125 -0.859375 1.78125q0 0.953125 0.640625 1.609375q0.65625 0.65625 2.078125 0.65625q0.96875 0 1.78125 -0.453125q0.828125 -0.46875 1.3125 -1.171875q0.5 -0.703125 0.5 -1.40625l0.359375 0q0 1.09375 -0.515625 2.046875q-0.515625 0.9375 -1.453125 1.53125q-0.921875 0.578125 -2.15625 0.578125zm9.792053 -0.265625l0 -16.3125l1.390625 0l0 16.3125l-1.390625 0zm22.713318 0l0 -6.703125q0 -1.8125 -0.859375 -2.765625q-0.859375 -0.96875 -2.359375 -0.96875q-1.703125 0 -2.578125 1.296875q-0.875 1.28125 -0.875 3.421875l-0.71875 0q0 -1.390625 0.28125 -2.5q0.296875 -1.125 0.859375 -1.875q0.5625 -0.765625 1.390625 -1.15625q0.84375 -0.40625 1.9375 -0.40625q1.328125 0 2.28125 0.59375q0.96875 0.59375 1.5 1.703125q0.53125 1.109375 0.53125 2.65625l0 6.703125l-1.390625 0zm-16.28125 0l0 -11.390625l1.1875 0l0.15625 2.46875q0.515625 -1.296875 1.515625 -2.015625q1.0 -0.71875 2.4375 -0.71875q1.3125 0 2.28125 0.59375q0.96875 0.59375 1.5 1.703125q0.53125 1.109375 0.53125 2.65625l0 6.703125l-1.359375 0l0 -6.703125q0 -1.8125 -0.875 -2.765625q-0.859375 -0.96875 -2.390625 -0.96875q-1.109375 0 -1.921875 0.609375q-0.8125 0.609375 -1.25 1.71875q-0.421875 1.09375 -0.421875 2.578125l0 5.53125l-1.390625 0zm26.221619 0.265625q-1.515625 0 -2.6875 -0.6875q-1.15625 -0.6875 -1.828125 -2.015625q-0.671875 -1.328125 -0.671875 -3.265625q0 -1.921875 0.671875 -3.25q0.671875 -1.328125 1.828125 -2.015625q1.171875 -0.6875 2.6875 -0.6875q1.53125 0 2.6875 0.6875q1.171875 0.6875 1.828125 2.015625q0.65625 1.328125 0.65625 3.25q0 1.9375 -0.65625 3.265625q-0.65625 1.328125 -1.828125 2.015625q-1.15625 0.6875 -2.6875 0.6875zm-0.015625 -1.21875q1.25 0 2.09375 -0.59375q0.84375 -0.59375 1.25 -1.65625q0.421875 -1.0625 0.421875 -2.5q0 -2.140625 -0.921875 -3.453125q-0.921875 -1.3125 -2.796875 -1.3125q-1.265625 0 -2.109375 0.59375q-0.828125 0.59375 -1.25 1.671875q-0.40625 1.078125 -0.40625 2.5q0 2.140625 0.921875 3.453125q0.921875 1.296875 2.796875 1.296875zm12.985474 1.21875q-1.65625 0 -2.734375 -0.484375q-1.078125 -0.484375 -1.625 -1.296875q-0.53125 -0.8125 -0.578125 -1.828125l1.390625 0q0.078125 1.21875 0.984375 1.84375q0.90625 0.609375 2.46875 0.609375q0.8125 0 1.5 -0.265625q0.703125 -0.265625 1.125 -0.734375q0.4375 -0.484375 0.4375 -1.078125q0 -0.78125 -0.5625 -1.203125q-0.5625 -0.4375 -1.796875 -0.75l-2.0625 -0.625q-1.5 -0.421875 -2.296875 -1.21875q-0.796875 -0.8125 -0.796875 -1.921875q0 -1.34375 1.15625 -2.15625q1.171875 -0.8125 3.046875 -0.8125q2.046875 0 3.1875 0.8125q1.140625 0.796875 1.1875 2.0l-1.4375 0q-0.125 -0.859375 -0.875 -1.265625q-0.734375 -0.421875 -2.0625 -0.421875q-1.3125 0 -2.03125 0.609375q-0.71875 0.59375 -0.71875 1.3125q0 1.359375 2.359375 2.0l2.03125 0.640625q1.546875 0.421875 2.34375 1.140625q0.8125 0.71875 0.8125 1.859375q0 0.828125 -0.53125 1.578125q-0.53125 0.734375 -1.53125 1.203125q-1.0 0.453125 -2.390625 0.453125zm11.884949 0q-0.890625 0 -1.578125 -0.34375q-0.6875 -0.359375 -1.078125 -1.03125q-0.390625 -0.6875 -0.390625 -1.703125l0 -11.8125l1.359375 0l0 11.796875q0 1.9375 1.796875 1.9375q0.53125 0 1.0 -0.109375q0.484375 -0.125 1.09375 -0.34375l0.1875 1.015625q-0.59375 0.265625 -1.1875 0.421875q-0.578125 0.171875 -1.203125 0.171875zm-5.0 -10.640625l0 -1.015625l7.15625 0l0 1.015625l-7.15625 0zm20.397888 10.640625q-1.078125 0 -2.078125 -0.296875q-1.0 -0.3125 -1.796875 -0.90625q-0.78125 -0.609375 -1.234375 -1.484375q-0.453125 -0.890625 -0.453125 -2.046875l1.390625 0q0 1.140625 0.5625 1.90625q0.578125 0.765625 1.515625 1.15625q0.953125 0.375 2.09375 0.375q1.78125 0 2.75 -0.890625q0.984375 -0.890625 0.984375 -2.203125q0 -0.84375 -0.40625 -1.5q-0.40625 -0.65625 -1.3125 -1.03125q-0.90625 -0.390625 -2.40625 -0.390625l-1.515625 0l0 -1.109375l0.84375 0q1.953125 0 3.0625 -0.75q1.125 -0.75 1.125 -2.078125q0 -1.171875 -0.890625 -1.984375q-0.875 -0.8125 -2.46875 -0.8125q-1.203125 0 -2.140625 0.484375q-0.9375 0.484375 -1.3125 1.828125l-1.390625 0q0.203125 -1.3125 0.890625 -2.09375q0.6875 -0.796875 1.703125 -1.140625q1.015625 -0.359375 2.234375 -0.359375q1.40625 0 2.5 0.515625q1.109375 0.5 1.734375 1.40625q0.640625 0.90625 0.640625 2.0625q0 1.1875 -0.6875 2.015625q-0.6875 0.828125 -1.984375 1.296875q1.4375 0.375 2.359375 1.3125q0.9375 0.921875 0.9375 2.40625q0 1.25 -0.625 2.21875q-0.625 0.96875 -1.8125 1.53125q-1.171875 0.5625 -2.8125 0.5625zm18.686768 0q-1.34375 0 -2.5 -0.703125q-1.15625 -0.71875 -1.859375 -2.0625q-0.703125 -1.359375 -0.703125 -3.21875q0 -1.859375 0.703125 -3.171875q0.703125 -1.328125 1.859375 -2.046875q1.15625 -0.71875 2.453125 -0.71875q1.203125 0 2.15625 0.59375q0.953125 0.578125 1.5 1.703125q0.5625 1.109375 0.5625 2.6875l-0.703125 0q0 -1.234375 -0.5 -2.0625q-0.484375 -0.84375 -1.265625 -1.265625q-0.765625 -0.4375 -1.640625 -0.4375q-0.984375 0 -1.8125 0.5625q-0.828125 0.546875 -1.34375 1.609375q-0.515625 1.046875 -0.515625 2.546875q0 1.515625 0.515625 2.578125q0.53125 1.0625 1.375 1.625q0.84375 0.546875 1.796875 0.546875q0.859375 0 1.625 -0.40625q0.78125 -0.421875 1.265625 -1.234375q0.5 -0.828125 0.5 -2.0625l0.5625 0q0 1.484375 -0.5 2.609375q-0.484375 1.109375 -1.390625 1.71875q-0.90625 0.609375 -2.140625 0.609375zm6.125 5.578125q-1.46875 -0.4375 -2.0625 -1.34375q-0.59375 -0.890625 -0.59375 -2.5625l0 -10.734375l0.375 -2.59375l0.984375 0l0 13.40625q0 0.859375 0.15625 1.359375q0.171875 0.515625 0.5625 0.796875q0.40625 0.296875 1.109375 0.546875l-0.53125 1.125zm11.618713 -17.25l1.390625 0l0 11.40625l-1.390625 0l0 -11.40625zm-8.203125 0l1.390625 0l0 7.15625q0 1.59375 0.765625 2.421875q0.78125 0.828125 2.25 0.828125q1.1875 0 2.03125 -0.640625q0.859375 -0.65625 1.3125 -1.734375q0.453125 -1.09375 0.453125 -2.421875l0.65625 0q0 1.828125 -0.5625 3.1875q-0.5625 1.34375 -1.59375 2.09375q-1.03125 0.734375 -2.453125 0.734375q-1.3125 0 -2.265625 -0.484375q-0.953125 -0.5 -1.46875 -1.46875q-0.515625 -0.984375 -0.515625 -2.4375l0 -7.234375zm21.608215 11.40625l-0.1875 -2.359375l0 -5.046875q0 -1.71875 -0.75 -2.4375q-0.734375 -0.71875 -2.109375 -0.71875q-0.765625 0 -1.4375 0.234375q-0.65625 0.21875 -1.046875 0.703125q-0.390625 0.484375 -0.390625 1.265625l-1.59375 0q0 -1.203125 0.59375 -1.921875q0.609375 -0.734375 1.625 -1.046875q1.015625 -0.328125 2.25 -0.328125q1.21875 0 2.171875 0.4375q0.96875 0.421875 1.53125 1.359375q0.5625 0.9375 0.5625 2.484375l0 7.375l-1.21875 0zm-3.953125 0.265625q-1.375 0 -2.265625 -0.5q-0.890625 -0.5 -1.328125 -1.28125q-0.421875 -0.78125 -0.421875 -1.609375q0 -1.1875 0.578125 -1.90625q0.578125 -0.734375 1.5625 -1.046875q0.984375 -0.328125 2.140625 -0.328125q0.875 0 1.8125 0.203125q0.953125 0.1875 1.8125 0.546875l0 0.921875q-0.75 -0.3125 -1.71875 -0.5q-0.96875 -0.203125 -1.765625 -0.203125q-1.21875 0 -2.09375 0.53125q-0.859375 0.53125 -0.859375 1.78125q0 0.953125 0.640625 1.609375q0.65625 0.65625 2.078125 0.65625q0.96875 0 1.78125 -0.453125q0.828125 -0.46875 1.3125 -1.171875q0.5 -0.703125 0.5 -1.40625l0.359375 0q0 1.09375 -0.515625 2.046875q-0.515625 0.9375 -1.453125 1.53125q-0.921875 0.578125 -2.15625 0.578125zm9.792114 -0.265625l0 -11.40625l1.390625 0l0 11.40625l-1.390625 0zm0.875 -5.21875q0 -2.140625 0.375 -3.546875q0.375 -1.421875 1.15625 -2.125q0.78125 -0.71875 1.984375 -0.71875q0.421875 0 0.78125 0.0625q0.359375 0.0625 0.71875 0.1875l-0.15625 1.359375q-0.359375 -0.125 -0.78125 -0.21875q-0.40625 -0.09375 -0.71875 -0.09375q-1.078125 0 -1.703125 0.65625q-0.609375 0.640625 -0.875 1.796875q-0.265625 1.140625 -0.265625 2.640625l-0.515625 0zm10.757202 5.484375q-0.890625 0 -1.578125 -0.34375q-0.6875 -0.359375 -1.078125 -1.03125q-0.390625 -0.6875 -0.390625 -1.703125l0 -11.8125l1.359375 0l0 11.796875q0 1.9375 1.796875 1.9375q0.53125 0 1.0 -0.109375q0.484375 -0.125 1.09375 -0.34375l0.1875 1.015625q-0.59375 0.265625 -1.1875 0.421875q-0.578125 0.171875 -1.203125 0.171875zm-5.0 -10.640625l0 -1.015625l7.15625 0l0 1.015625l-7.15625 0zm14.2803955 10.640625q-1.484375 0 -2.625 -0.765625q-1.140625 -0.765625 -1.796875 -2.09375q-0.640625 -1.34375 -0.640625 -3.0625q0 -1.875 0.640625 -3.21875q0.65625 -1.34375 1.78125 -2.0625q1.140625 -0.71875 2.640625 -0.71875q1.25 0 2.125 0.515625q0.890625 0.515625 1.421875 1.390625q0.546875 0.875 0.765625 1.984375q0.234375 1.09375 0.1875 2.265625l-8.421875 0l0 -0.953125l7.5625 0l-0.546875 0.359375q0.03125 -0.78125 -0.09375 -1.546875q-0.125 -0.78125 -0.46875 -1.421875q-0.34375 -0.65625 -0.953125 -1.046875q-0.609375 -0.40625 -1.5625 -0.40625q-1.234375 0 -2.046875 0.640625q-0.8125 0.625 -1.21875 1.625q-0.40625 1.0 -0.40625 2.140625l0 0.59375q0 1.296875 0.40625 2.34375q0.40625 1.046875 1.203125 1.65625q0.8125 0.609375 2.046875 0.609375q1.25 0 2.046875 -0.609375q0.8125 -0.625 0.96875 -1.828125l1.484375 0q-0.1875 1.140625 -0.8125 1.953125q-0.609375 0.796875 -1.5625 1.234375q-0.9375 0.421875 -2.125 0.421875zm8.307617 -0.265625l0 -11.40625l1.390625 0l0 11.40625l-1.390625 0zm0.875 -5.21875q0 -2.140625 0.375 -3.546875q0.375 -1.421875 1.15625 -2.125q0.78125 -0.71875 1.984375 -0.71875q0.421875 0 0.78125 0.0625q0.359375 0.0625 0.71875 0.1875l-0.15625 1.359375q-0.359375 -0.125 -0.78125 -0.21875q-0.40625 -0.09375 -0.71875 -0.09375q-1.078125 0 -1.703125 0.65625q-0.609375 0.640625 -0.875 1.796875q-0.265625 1.140625 -0.265625 2.640625l-0.515625 0zm11.460327 5.484375q-1.65625 0 -2.734375 -0.484375q-1.078125 -0.484375 -1.625 -1.296875q-0.53125 -0.8125 -0.578125 -1.828125l1.390625 0q0.078125 1.21875 0.984375 1.84375q0.90625 0.609375 2.46875 0.609375q0.8125 0 1.5 -0.265625q0.703125 -0.265625 1.125 -0.734375q0.4375 -0.484375 0.4375 -1.078125q0 -0.78125 -0.5625 -1.203125q-0.5625 -0.4375 -1.796875 -0.75l-2.0625 -0.625q-1.5 -0.421875 -2.296875 -1.21875q-0.796875 -0.8125 -0.796875 -1.921875q0 -1.34375 1.15625 -2.15625q1.171875 -0.8125 3.046875 -0.8125q2.046875 0 3.1875 0.8125q1.140625 0.796875 1.1875 2.0l-1.4375 0q-0.125 -0.859375 -0.875 -1.265625q-0.734375 -0.421875 -2.0625 -0.421875q-1.3125 0 -2.03125 0.609375q-0.71875 0.59375 -0.71875 1.3125q0 1.359375 2.359375 2.0l2.03125 0.640625q1.546875 0.421875 2.34375 1.140625q0.8125 0.71875 0.8125 1.859375q0 0.828125 -0.53125 1.578125q-0.53125 0.734375 -1.53125 1.203125q-1.0 0.453125 -2.390625 0.453125zm18.00238 0q-1.515625 0 -2.6875 -0.6875q-1.15625 -0.6875 -1.828125 -2.015625q-0.671875 -1.328125 -0.671875 -3.265625q0 -1.921875 0.671875 -3.25q0.671875 -1.328125 1.828125 -2.015625q1.171875 -0.6875 2.6875 -0.6875q1.53125 0 2.6875 0.6875q1.171875 0.6875 1.828125 2.015625q0.65625 1.328125 0.65625 3.25q0 1.9375 -0.65625 3.265625q-0.65625 1.328125 -1.828125 2.015625q-1.15625 0.6875 -2.6875 0.6875zm-0.015625 -1.21875q1.25 0 2.09375 -0.59375q0.84375 -0.59375 1.25 -1.65625q0.421875 -1.0625 0.421875 -2.5q0 -2.140625 -0.921875 -3.453125q-0.921875 -1.3125 -2.796875 -1.3125q-1.265625 0 -2.109375 0.59375q-0.828125 0.59375 -1.25 1.671875q-0.40625 1.078125 -0.40625 2.5q0 2.140625 0.921875 3.453125q0.921875 1.296875 2.796875 1.296875zm9.563538 0.953125l0 -13.34375q0 -1.078125 0.40625 -1.765625q0.40625 -0.703125 1.109375 -1.03125q0.71875 -0.328125 1.59375 -0.328125q0.453125 0 0.90625 0.0625q0.453125 0.0625 0.90625 0.21875l-0.265625 1.140625q-0.375 -0.15625 -0.75 -0.234375q-0.375 -0.078125 -0.703125 -0.078125q-0.40625 0 -0.828125 0.15625q-0.421875 0.15625 -0.71875 0.59375q-0.28125 0.421875 -0.28125 1.28125l0 13.328125l-1.375 0zm-1.953125 -10.375l0 -1.015625l5.828125 0l0 1.015625l-5.828125 0zm31.0531 10.375l0 -6.703125q0 -1.8125 -0.859375 -2.765625q-0.859375 -0.96875 -2.359375 -0.96875q-1.703125 0 -2.578125 1.296875q-0.875 1.28125 -0.875 3.421875l-0.71875 0q0 -1.390625 0.28125 -2.5q0.296875 -1.125 0.859375 -1.875q0.5625 -0.765625 1.390625 -1.15625q0.84375 -0.40625 1.9375 -0.40625q1.328125 0 2.28125 0.59375q0.96875 0.59375 1.5 1.703125q0.53125 1.109375 0.53125 2.65625l0 6.703125l-1.390625 0zm-16.28125 0l0 -11.390625l1.1875 0l0.15625 2.46875q0.515625 -1.296875 1.515625 -2.015625q1.0 -0.71875 2.4375 -0.71875q1.3125 0 2.28125 0.59375q0.96875 0.59375 1.5 1.703125q0.53125 1.109375 0.53125 2.65625l0 6.703125l-1.359375 0l0 -6.703125q0 -1.8125 -0.875 -2.765625q-0.859375 -0.96875 -2.390625 -0.96875q-1.109375 0 -1.921875 0.609375q-0.8125 0.609375 -1.25 1.71875q-0.421875 1.09375 -0.421875 2.578125l0 5.53125l-1.390625 0zm26.09668 0.265625q-1.484375 0 -2.625 -0.765625q-1.140625 -0.765625 -1.796875 -2.09375q-0.640625 -1.34375 -0.640625 -3.0625q0 -1.875 0.640625 -3.21875q0.65625 -1.34375 1.78125 -2.0625q1.140625 -0.71875 2.640625 -0.71875q1.25 0 2.125 0.515625q0.890625 0.515625 1.421875 1.390625q0.546875 0.875 0.765625 1.984375q0.234375 1.09375 0.1875 2.265625l-8.421875 0l0 -0.953125l7.5625 0l-0.546875 0.359375q0.03125 -0.78125 -0.09375 -1.546875q-0.125 -0.78125 -0.46875 -1.421875q-0.34375 -0.65625 -0.953125 -1.046875q-0.609375 -0.40625 -1.5625 -0.40625q-1.234375 0 -2.046875 0.640625q-0.8125 0.625 -1.21875 1.625q-0.40625 1.0 -0.40625 2.140625l0 0.59375q0 1.296875 0.40625 2.34375q0.40625 1.046875 1.203125 1.65625q0.8125 0.609375 2.046875 0.609375q1.25 0 2.046875 -0.609375q0.8125 -0.625 0.96875 -1.828125l1.484375 0q-0.1875 1.140625 -0.8125 1.953125q-0.609375 0.796875 -1.5625 1.234375q-0.9375 0.421875 -2.125 0.421875zm16.557617 -0.265625l0 -6.703125q0 -1.8125 -0.875 -2.765625q-0.859375 -0.96875 -2.390625 -0.96875q-1.109375 0 -1.921875 0.609375q-0.8125 0.609375 -1.25 1.71875q-0.421875 1.09375 -0.421875 2.578125l-0.609375 0q0 -1.875 0.5 -3.25q0.515625 -1.375 1.515625 -2.125q1.015625 -0.75 2.5 -0.75q1.3125 0 2.28125 0.59375q0.96875 0.59375 1.5 1.703125q0.53125 1.109375 0.53125 2.65625l0 6.703125l-1.359375 0zm-8.25 0l0 -11.390625l1.1875 0l0.203125 2.8125l0 8.578125l-1.390625 0z" fill-rule="nonzero"/></g></svg>