<svg width="380" height="380" viewBox="0 0 380 380" fill="none" xmlns="http://www.w3.org/2000/svg">
<g filter="url(#filter0_d_165_654)">
<rect x="40" y="15" width="300" height="300" rx="65" fill="#C6C9BC"/>
<g filter="url(#filter1_di_165_654)">
<path d="M309.06 154.498C308.292 153.281 307.254 152.217 306.011 151.372C304.768 150.528 303.345 149.92 301.831 149.588C291.623 147.365 281.012 147.067 270.669 148.711C275.065 131.348 272.232 117.756 269.301 109.864C268.42 107.38 266.543 105.279 264.035 103.967C261.526 102.655 258.564 102.225 255.723 102.761C245.645 104.808 236.118 108.622 227.687 113.985C221.724 101.148 212.127 89.9327 199.847 81.4515C197.818 80.0854 195.35 79.3469 192.813 79.3469C190.277 79.3469 187.809 80.0854 185.78 81.4515C173.5 89.9327 163.903 101.148 157.939 113.985C149.509 108.622 139.981 104.808 129.903 102.761C127.062 102.225 124.1 102.655 121.592 103.967C119.083 105.279 117.207 107.38 116.325 109.864C113.395 117.756 110.562 131.348 114.958 148.711C104.614 147.067 94.0039 147.365 83.7957 149.588C82.2814 149.92 80.8589 150.528 79.6158 151.372C78.3726 152.217 77.3351 153.281 76.5669 154.498C75.018 156.947 74.5973 159.843 75.3947 162.566C78.716 173.089 88.8754 193.258 119.646 209.218C150.418 225.178 178.063 225.265 192.813 225.265C207.564 225.265 235.014 225.265 265.98 209.218C296.947 193.17 306.911 173.089 310.232 162.566C311.029 159.843 310.609 156.947 309.06 154.498ZM257.384 109.688C258.315 109.493 259.294 109.619 260.126 110.041C260.959 110.463 261.584 111.151 261.877 111.968C264.71 119.86 267.543 133.891 261.584 151.955C261.487 152.131 261.487 152.306 261.389 152.481C259.047 159.421 255.766 166.077 251.62 172.3C243.262 185.159 232.138 196.397 218.895 205.359L216.453 206.938C226.32 195.275 235.795 177.386 235.795 151.605C235.894 141.128 234.113 130.705 230.52 120.737C238.496 115.379 247.655 111.612 257.384 109.688V109.688ZM190.469 87.0638C191.145 86.6084 191.968 86.3622 192.813 86.3622C193.659 86.3622 194.481 86.6084 195.158 87.0638C205.024 93.7283 227.98 113.196 227.98 151.605C227.98 171.861 221.728 189.224 209.518 203.342C204.826 208.869 199.188 213.694 192.813 217.636C186.439 213.694 180.801 208.869 176.109 203.342C163.898 189.224 157.646 171.861 157.646 151.605C157.646 113.196 180.603 93.7283 190.469 87.0638V87.0638ZM123.749 111.968C124.043 111.151 124.668 110.463 125.5 110.041C126.333 109.619 127.312 109.493 128.243 109.688C137.972 111.612 147.131 115.379 155.106 120.737C151.514 130.705 149.733 141.128 149.831 151.605C149.831 177.386 159.307 195.275 169.173 206.938L166.731 205.359C153.488 196.397 142.364 185.159 134.006 172.3C129.858 166.047 126.578 159.362 124.238 152.394L124.042 151.955C118.083 133.891 120.916 119.86 123.749 111.968V111.968ZM82.9165 160.637C82.7831 160.197 82.7489 159.738 82.816 159.286C82.8831 158.834 83.0501 158.399 83.3073 158.006C83.8479 157.222 84.6774 156.632 85.6517 156.34C96.0609 154.18 106.878 154.15 117.302 156.252C119.836 163.057 123.142 169.61 127.168 175.807C139.77 195.45 158.135 209.481 172.983 217.548C155.543 216.015 138.68 211.109 123.554 203.167C95.1273 188.435 85.9448 170.195 82.9165 160.637ZM302.71 160.637C299.682 170.195 290.499 188.435 262.073 203.167C246.947 211.109 230.084 216.015 212.644 217.548C227.492 209.481 245.857 195.45 258.458 175.807C262.485 169.61 265.791 163.057 268.325 156.252C278.748 154.15 289.566 154.18 299.975 156.34C300.949 156.632 301.779 157.222 302.319 158.006C302.576 158.399 302.743 158.834 302.811 159.286C302.878 159.738 302.843 160.197 302.71 160.637V160.637Z" fill="#E16639"/>
</g>
<g filter="url(#filter2_d_165_654)">
<path d="M309.06 154.498C308.292 153.281 307.254 152.217 306.011 151.372C304.768 150.528 303.345 149.92 301.831 149.588C291.623 147.365 281.012 147.067 270.669 148.711C275.065 131.348 272.232 117.756 269.301 109.864C268.42 107.38 266.543 105.279 264.035 103.967C261.526 102.655 258.564 102.225 255.723 102.761C245.645 104.808 236.118 108.622 227.687 113.985C221.724 101.148 212.127 89.9327 199.847 81.4515C197.818 80.0854 195.35 79.3469 192.813 79.3469C190.277 79.3469 187.809 80.0854 185.78 81.4515C173.5 89.9327 163.903 101.148 157.939 113.985C149.509 108.622 139.981 104.808 129.903 102.761C127.062 102.225 124.1 102.655 121.592 103.967C119.083 105.279 117.207 107.38 116.325 109.864C113.395 117.756 110.562 131.348 114.958 148.711C104.614 147.067 94.0039 147.365 83.7957 149.588C82.2814 149.92 80.8589 150.528 79.6158 151.372C78.3726 152.217 77.3351 153.281 76.5669 154.498C75.018 156.947 74.5973 159.843 75.3947 162.566C78.716 173.089 88.8754 193.258 119.646 209.218C150.418 225.178 178.063 225.265 192.813 225.265C207.564 225.265 235.014 225.265 265.98 209.218C296.947 193.17 306.911 173.089 310.232 162.566C311.029 159.843 310.609 156.947 309.06 154.498ZM257.384 109.688C258.315 109.493 259.294 109.619 260.126 110.041C260.959 110.463 261.584 111.151 261.877 111.968C264.71 119.86 267.543 133.891 261.584 151.955C261.487 152.131 261.487 152.306 261.389 152.481C259.047 159.421 255.766 166.077 251.62 172.3C243.262 185.159 232.138 196.397 218.895 205.359L216.453 206.938C226.32 195.275 235.795 177.386 235.795 151.605C235.894 141.128 234.113 130.705 230.52 120.737C238.496 115.379 247.655 111.612 257.384 109.688V109.688ZM190.469 87.0638C191.145 86.6084 191.968 86.3622 192.813 86.3622C193.659 86.3622 194.481 86.6084 195.158 87.0638C205.024 93.7283 227.98 113.196 227.98 151.605C227.98 171.861 221.728 189.224 209.518 203.342C204.826 208.869 199.188 213.694 192.813 217.636C186.439 213.694 180.801 208.869 176.109 203.342C163.898 189.224 157.646 171.861 157.646 151.605C157.646 113.196 180.603 93.7283 190.469 87.0638V87.0638ZM123.749 111.968C124.043 111.151 124.668 110.463 125.5 110.041C126.333 109.619 127.312 109.493 128.243 109.688C137.972 111.612 147.131 115.379 155.106 120.737C151.514 130.705 149.733 141.128 149.831 151.605C149.831 177.386 159.307 195.275 169.173 206.938L166.731 205.359C153.488 196.397 142.364 185.159 134.006 172.3C129.858 166.047 126.578 159.362 124.238 152.394L124.042 151.955C118.083 133.891 120.916 119.86 123.749 111.968V111.968ZM82.9165 160.637C82.7831 160.197 82.7489 159.738 82.816 159.286C82.8831 158.834 83.0501 158.399 83.3073 158.006C83.8479 157.222 84.6774 156.632 85.6517 156.34C96.0609 154.18 106.878 154.15 117.302 156.252C119.836 163.057 123.142 169.61 127.168 175.807C139.77 195.45 158.135 209.481 172.983 217.548C155.543 216.015 138.68 211.109 123.554 203.167C95.1273 188.435 85.9448 170.195 82.9165 160.637ZM302.71 160.637C299.682 170.195 290.499 188.435 262.073 203.167C246.947 211.109 230.084 216.015 212.644 217.548C227.492 209.481 245.857 195.45 258.458 175.807C262.485 169.61 265.791 163.057 268.325 156.252C278.748 154.15 289.566 154.18 299.975 156.34C300.949 156.632 301.779 157.222 302.319 158.006C302.576 158.399 302.743 158.834 302.811 159.286C302.878 159.738 302.843 160.197 302.71 160.637V160.637Z" fill="#E16639"/>
</g>
</g>
<defs>
<filter id="filter0_d_165_654" x="0" y="0" width="380" height="380" filterUnits="userSpaceOnUse" color-interpolation-filters="sRGB">
<feFlood flood-opacity="0" result="BackgroundImageFix"/>
<feColorMatrix in="SourceAlpha" type="matrix" values="0 0 0 0 0 0 0 0 0 0 0 0 0 0 0 0 0 0 127 0" result="hardAlpha"/>
<feOffset dy="25"/>
<feGaussianBlur stdDeviation="20"/>
<feComposite in2="hardAlpha" operator="out"/>
<feColorMatrix type="matrix" values="0 0 0 0 0 0 0 0 0 0 0 0 0 0 0 0 0 0 0.4 0"/>
<feBlend mode="normal" in2="BackgroundImageFix" result="effect1_dropShadow_165_654"/>
<feBlend mode="normal" in="SourceGraphic" in2="effect1_dropShadow_165_654" result="shape"/>
</filter>
<filter id="filter1_di_165_654" x="71" y="79.3469" width="243.626" height="165.918" filterUnits="userSpaceOnUse" color-interpolation-filters="sRGB">
<feFlood flood-opacity="0" result="BackgroundImageFix"/>
<feColorMatrix in="SourceAlpha" type="matrix" values="0 0 0 0 0 0 0 0 0 0 0 0 0 0 0 0 0 0 127 0" result="hardAlpha"/>
<feOffset dy="4"/>
<feGaussianBlur stdDeviation="2"/>
<feComposite in2="hardAlpha" operator="out"/>
<feColorMatrix type="matrix" values="0 0 0 0 0 0 0 0 0 0 0 0 0 0 0 0 0 0 0.25 0"/>
<feBlend mode="normal" in2="BackgroundImageFix" result="effect1_dropShadow_165_654"/>
<feBlend mode="normal" in="SourceGraphic" in2="effect1_dropShadow_165_654" result="shape"/>
<feColorMatrix in="SourceAlpha" type="matrix" values="0 0 0 0 0 0 0 0 0 0 0 0 0 0 0 0 0 0 127 0" result="hardAlpha"/>
<feOffset dy="20"/>
<feGaussianBlur stdDeviation="20"/>
<feComposite in2="hardAlpha" operator="arithmetic" k2="-1" k3="1"/>
<feColorMatrix type="matrix" values="0 0 0 0 1 0 0 0 0 1 0 0 0 0 1 0 0 0 0.5 0"/>
<feBlend mode="overlay" in2="shape" result="effect2_innerShadow_165_654"/>
</filter>
<filter id="filter2_d_165_654" x="71" y="79.3469" width="243.626" height="153.918" filterUnits="userSpaceOnUse" color-interpolation-filters="sRGB">
<feFlood flood-opacity="0" result="BackgroundImageFix"/>
<feColorMatrix in="SourceAlpha" type="matrix" values="0 0 0 0 0 0 0 0 0 0 0 0 0 0 0 0 0 0 127 0" result="hardAlpha"/>
<feOffset dy="4"/>
<feGaussianBlur stdDeviation="2"/>
<feComposite in2="hardAlpha" operator="out"/>
<feColorMatrix type="matrix" values="0 0 0 0 0 0 0 0 0 0 0 0 0 0 0 0 0 0 0.25 0"/>
<feBlend mode="normal" in2="BackgroundImageFix" result="effect1_dropShadow_165_654"/>
<feBlend mode="normal" in="SourceGraphic" in2="effect1_dropShadow_165_654" result="shape"/>
</filter>
</defs>
</svg>
