<svg width="576" height="134" viewBox="0 0 576 134" fill="none" xmlns="http://www.w3.org/2000/svg">
<path d="M31.3278 27H36.4152C40.0788 27 42.5905 24.7923 42.5905 21.4007C42.5905 18.0091 40.0788 15.8013 36.4152 15.8013H31.3278V27ZM33.9195 24.8723V17.9291H36.2873C38.511 17.9291 39.9668 19.2569 39.9668 21.4007C39.9668 23.5444 38.511 24.8723 36.2873 24.8723H33.9195ZM45.6836 17.1932C46.6115 17.1932 47.2354 16.5852 47.2354 15.7533C47.2354 14.9854 46.6115 14.4095 45.6836 14.4095C44.7557 14.4095 44.1318 15.0174 44.1318 15.8013C44.1318 16.5852 44.7557 17.1932 45.6836 17.1932ZM44.4357 27H46.9314V18.393H44.4357V27ZM52.21 27.128C54.7857 27.128 56.2735 25.9921 56.2735 24.3923C56.2735 21.0007 51.0741 22.4245 51.0741 20.9527C51.0741 20.5048 51.5541 20.1528 52.6739 20.1528C53.4578 20.1528 54.3057 20.3128 55.1536 20.7927L55.9855 19.0169C55.1696 18.537 53.8578 18.265 52.6739 18.265C50.1622 18.265 48.6904 19.4169 48.6904 21.0487C48.6904 24.4883 53.8898 23.0485 53.8898 24.4563C53.8898 24.9362 53.4578 25.2402 52.306 25.2402C51.2501 25.2402 50.0822 24.9042 49.3143 24.4083L48.4824 26.2001C49.2823 26.728 50.7541 27.128 52.21 27.128ZM62.0395 27.128C63.8473 27.128 65.2711 26.3281 65.895 24.9522L63.9593 23.8964C63.4953 24.7283 62.8074 25.0802 62.0235 25.0802C60.7596 25.0802 59.7678 24.2003 59.7678 22.6965C59.7678 21.1927 60.7596 20.3128 62.0235 20.3128C62.8074 20.3128 63.4953 20.6807 63.9593 21.4966L65.895 20.4568C65.2711 19.0489 63.8473 18.265 62.0395 18.265C59.2398 18.265 57.24 20.1048 57.24 22.6965C57.24 25.2882 59.2398 27.128 62.0395 27.128ZM71.3848 27.128C74.1205 27.128 76.1042 25.2882 76.1042 22.6965C76.1042 20.1048 74.1205 18.265 71.3848 18.265C68.6491 18.265 66.6494 20.1048 66.6494 22.6965C66.6494 25.2882 68.6491 27.128 71.3848 27.128ZM71.3848 25.0802C70.1369 25.0802 69.1771 24.1843 69.1771 22.6965C69.1771 21.2087 70.1369 20.3128 71.3848 20.3128C72.6327 20.3128 73.5765 21.2087 73.5765 22.6965C73.5765 24.1843 72.6327 25.0802 71.3848 25.0802ZM83.748 18.393L81.2843 24.2483L78.9006 18.393H76.3249L79.9405 27H82.5162L86.1477 18.393H83.748ZM95.4294 22.7285C95.4294 19.9608 93.4777 18.265 90.95 18.265C88.3263 18.265 86.3585 20.1208 86.3585 22.6965C86.3585 25.2562 88.2943 27.128 91.2699 27.128C92.8217 27.128 94.0216 26.648 94.8215 25.7361L93.4937 24.2963C92.9017 24.8563 92.2458 25.1282 91.3339 25.1282C90.0221 25.1282 89.1102 24.4723 88.8702 23.4004H95.3814C95.3974 23.1924 95.4294 22.9205 95.4294 22.7285ZM90.966 20.1528C92.0858 20.1528 92.9017 20.8567 93.0777 21.9446H88.8382C89.0142 20.8407 89.8301 20.1528 90.966 20.1528ZM99.5414 19.5289V18.393H97.1576V27H99.6534V22.9365C99.6534 21.2887 100.565 20.5368 101.941 20.5368C102.133 20.5368 102.293 20.5528 102.501 20.5688V18.265C101.173 18.265 100.149 18.697 99.5414 19.5289Z" fill="#E16639"/>
<path d="M211.743 27H216.83C220.494 27 223.005 24.7923 223.005 21.4007C223.005 18.0091 220.494 15.8013 216.83 15.8013H211.743V27ZM214.334 24.8723V17.9291H216.702C218.926 17.9291 220.382 19.2569 220.382 21.4007C220.382 23.5444 218.926 24.8723 216.702 24.8723H214.334ZM233.282 22.7285C233.282 19.9608 231.33 18.265 228.802 18.265C226.178 18.265 224.211 20.1208 224.211 22.6965C224.211 25.2562 226.146 27.128 229.122 27.128C230.674 27.128 231.874 26.648 232.674 25.7361L231.346 24.2963C230.754 24.8563 230.098 25.1282 229.186 25.1282C227.874 25.1282 226.962 24.4723 226.722 23.4004H233.234C233.25 23.1924 233.282 22.9205 233.282 22.7285ZM228.818 20.1528C229.938 20.1528 230.754 20.8567 230.93 21.9446H226.69C226.866 20.8407 227.682 20.1528 228.818 20.1528ZM237.745 18.217C237.745 17.3691 238.145 16.9692 238.881 16.9692C239.265 16.9692 239.617 17.0812 239.889 17.2731L240.545 15.4654C240.081 15.1454 239.345 15.0014 238.641 15.0014C236.498 15.0014 235.314 16.2653 235.314 18.201V18.585H233.986V20.5048H235.314V27H237.809V20.5048H239.953V18.585H237.745V18.217ZM243.792 17.1932C244.72 17.1932 245.344 16.5852 245.344 15.7533C245.344 14.9854 244.72 14.4095 243.792 14.4095C242.864 14.4095 242.24 15.0174 242.24 15.8013C242.24 16.5852 242.864 17.1932 243.792 17.1932ZM242.544 27H245.04V18.393H242.544V27ZM252.654 18.265C251.486 18.265 250.479 18.665 249.807 19.4009V18.393H247.423V27H249.919V22.7445C249.919 21.1607 250.782 20.4248 251.982 20.4248C253.086 20.4248 253.726 21.0647 253.726 22.4565V27H256.222V22.0726C256.222 19.4489 254.686 18.265 252.654 18.265ZM267.075 22.7285C267.075 19.9608 265.124 18.265 262.596 18.265C259.972 18.265 258.005 20.1208 258.005 22.6965C258.005 25.2562 259.94 27.128 262.916 27.128C264.468 27.128 265.668 26.648 266.468 25.7361L265.14 24.2963C264.548 24.8563 263.892 25.1282 262.98 25.1282C261.668 25.1282 260.756 24.4723 260.516 23.4004H267.027C267.043 23.1924 267.075 22.9205 267.075 22.7285ZM262.612 20.1528C263.732 20.1528 264.548 20.8567 264.724 21.9446H260.484C260.66 20.8407 261.476 20.1528 262.612 20.1528Z" fill="#E16639"/>
<path d="M517.328 27H522.415C526.079 27 528.591 24.7923 528.591 21.4007C528.591 18.0091 526.079 15.8013 522.415 15.8013H517.328V27ZM519.92 24.8723V17.9291H522.287C524.511 17.9291 525.967 19.2569 525.967 21.4007C525.967 23.5444 524.511 24.8723 522.287 24.8723H519.92ZM538.867 22.7285C538.867 19.9608 536.915 18.265 534.387 18.265C531.764 18.265 529.796 20.1208 529.796 22.6965C529.796 25.2562 531.732 27.128 534.707 27.128C536.259 27.128 537.459 26.648 538.259 25.7361L536.931 24.2963C536.339 24.8563 535.683 25.1282 534.771 25.1282C533.459 25.1282 532.547 24.4723 532.308 23.4004H538.819C538.835 23.1924 538.867 22.9205 538.867 22.7285ZM534.403 20.1528C535.523 20.1528 536.339 20.8567 536.515 21.9446H532.276C532.451 20.8407 533.267 20.1528 534.403 20.1528ZM540.595 27H543.091V15.1294H540.595V27ZM546.721 17.1932C547.649 17.1932 548.273 16.5852 548.273 15.7533C548.273 14.9854 547.649 14.4095 546.721 14.4095C545.793 14.4095 545.17 15.0174 545.17 15.8013C545.17 16.5852 545.793 17.1932 546.721 17.1932ZM545.474 27H547.969V18.393H545.474V27ZM556.495 18.393L554.032 24.2483L551.648 18.393H549.072L552.688 27H555.264L558.895 18.393H556.495ZM568.177 22.7285C568.177 19.9608 566.225 18.265 563.697 18.265C561.074 18.265 559.106 20.1208 559.106 22.6965C559.106 25.2562 561.042 27.128 564.017 27.128C565.569 27.128 566.769 26.648 567.569 25.7361L566.241 24.2963C565.649 24.8563 564.993 25.1282 564.081 25.1282C562.769 25.1282 561.858 24.4723 561.618 23.4004H568.129C568.145 23.1924 568.177 22.9205 568.177 22.7285ZM563.713 20.1528C564.833 20.1528 565.649 20.8567 565.825 21.9446H561.586C561.762 20.8407 562.577 20.1528 563.713 20.1528ZM572.289 19.5289V18.393H569.905V27H572.401V22.9365C572.401 21.2887 573.313 20.5368 574.688 20.5368C574.88 20.5368 575.04 20.5528 575.248 20.5688V18.265C573.921 18.265 572.897 18.697 572.289 19.5289Z" fill="#E16639"/>
<path d="M342.671 27H347.758C351.422 27 353.934 24.7923 353.934 21.4007C353.934 18.0091 351.422 15.8013 347.758 15.8013H342.671V27ZM345.263 24.8723V17.9291H347.63C349.854 17.9291 351.31 19.2569 351.31 21.4007C351.31 23.5444 349.854 24.8723 347.63 24.8723H345.263ZM364.21 22.7285C364.21 19.9608 362.258 18.265 359.73 18.265C357.107 18.265 355.139 20.1208 355.139 22.6965C355.139 25.2562 357.075 27.128 360.05 27.128C361.602 27.128 362.802 26.648 363.602 25.7361L362.274 24.2963C361.682 24.8563 361.026 25.1282 360.114 25.1282C358.803 25.1282 357.891 24.4723 357.651 23.4004H364.162C364.178 23.1924 364.21 22.9205 364.21 22.7285ZM359.746 20.1528C360.866 20.1528 361.682 20.8567 361.858 21.9446H357.619C357.795 20.8407 358.611 20.1528 359.746 20.1528ZM371.925 18.393L369.461 24.2483L367.078 18.393H364.502L368.118 27H370.693L374.325 18.393H371.925ZM383.607 22.7285C383.607 19.9608 381.655 18.265 379.127 18.265C376.503 18.265 374.536 20.1208 374.536 22.6965C374.536 25.2562 376.471 27.128 379.447 27.128C380.999 27.128 382.199 26.648 382.999 25.7361L381.671 24.2963C381.079 24.8563 380.423 25.1282 379.511 25.1282C378.199 25.1282 377.287 24.4723 377.047 23.4004H383.559C383.575 23.1924 383.607 22.9205 383.607 22.7285ZM379.143 20.1528C380.263 20.1528 381.079 20.8567 381.255 21.9446H377.015C377.191 20.8407 378.007 20.1528 379.143 20.1528ZM385.335 27H387.83V15.1294H385.335V27ZM394.309 27.128C397.045 27.128 399.028 25.2882 399.028 22.6965C399.028 20.1048 397.045 18.265 394.309 18.265C391.573 18.265 389.573 20.1048 389.573 22.6965C389.573 25.2882 391.573 27.128 394.309 27.128ZM394.309 25.0802C393.061 25.0802 392.101 24.1843 392.101 22.6965C392.101 21.2087 393.061 20.3128 394.309 20.3128C395.557 20.3128 396.501 21.2087 396.501 22.6965C396.501 24.1843 395.557 25.0802 394.309 25.0802ZM405.851 18.265C404.699 18.265 403.771 18.633 403.147 19.3849V18.393H400.763V30.1036H403.259V26.0881C403.899 26.792 404.779 27.128 405.851 27.128C408.266 27.128 410.138 25.4002 410.138 22.6965C410.138 19.9928 408.266 18.265 405.851 18.265ZM405.419 25.0802C404.171 25.0802 403.227 24.1843 403.227 22.6965C403.227 21.2087 404.171 20.3128 405.419 20.3128C406.666 20.3128 407.61 21.2087 407.61 22.6965C407.61 24.1843 406.666 25.0802 405.419 25.0802Z" fill="#E16639"/>
<path d="M367.594 93.75H385.406V97.3125H367.594V93.75ZM371.156 100.875H381.844V104.438H371.156V100.875ZM376.5 54.5625C371.776 54.5625 367.245 56.4392 363.905 59.7797C360.564 63.1202 358.687 67.6508 358.687 72.375C358.567 74.9638 359.063 77.5441 360.134 79.9038C361.206 82.2635 362.822 84.3351 364.85 85.9481C366.632 87.6047 367.594 88.5487 367.594 90.1875H371.156C371.156 86.91 369.179 85.0753 367.255 83.3119C365.59 82.037 364.264 80.3733 363.391 78.4666C362.518 76.5599 362.127 74.4683 362.25 72.375C362.25 68.5957 363.751 64.9711 366.424 62.2987C369.096 59.6263 372.721 58.125 376.5 58.125C380.279 58.125 383.904 59.6263 386.576 62.2987C389.249 64.9711 390.75 68.5957 390.75 72.375C390.871 74.4698 390.477 76.5624 389.601 78.4692C388.725 80.3761 387.395 82.0389 385.727 83.3119C383.821 85.0931 381.844 86.8744 381.844 90.1875H385.406C385.406 88.5487 386.35 87.6047 388.149 85.9303C390.176 84.32 391.792 82.2515 392.863 79.8949C393.935 77.5383 394.431 74.961 394.312 72.375C394.312 70.0358 393.852 67.7196 392.956 65.5585C392.061 63.3973 390.749 61.4337 389.095 59.7797C387.441 58.1256 385.478 56.8136 383.316 55.9184C381.155 55.0232 378.839 54.5625 376.5 54.5625V54.5625Z" fill="#3A3652"/>
<path fill-rule="evenodd" clip-rule="evenodd" d="M530 82H523.952C523.365 83.0168 522.459 83.8114 521.374 84.2607C520.29 84.71 519.087 84.7888 517.953 84.4849C516.819 84.1811 515.817 83.5115 515.102 82.5801C514.387 81.6486 514 80.5074 514 79.3333C514 78.1593 514.387 77.018 515.102 76.0866C515.817 75.1552 516.819 74.4856 517.953 74.1817C519.087 73.8779 520.29 73.9567 521.374 74.406C522.459 74.8553 523.365 75.6499 523.952 76.6667H530V63.3333C530 61.9188 530.562 60.5623 531.562 59.5621C532.562 58.5619 533.919 58 535.333 58H556.667C558.081 58 559.438 58.5619 560.438 59.5621C561.438 60.5623 562 61.9188 562 63.3333V100.667C562 102.081 561.438 103.438 560.438 104.438C559.438 105.438 558.081 106 556.667 106H535.333C533.919 106 532.562 105.438 531.562 104.438C530.562 103.438 530 102.081 530 100.667V82ZM535.333 82V100.667H556.667V63.3333H535.333V76.6667H541.381C541.968 75.6499 542.875 74.8553 543.959 74.406C545.044 73.9567 546.247 73.8779 547.381 74.1817C548.515 74.4856 549.517 75.1552 550.231 76.0866C550.946 77.018 551.334 78.1593 551.334 79.3333C551.334 80.5074 550.946 81.6486 550.231 82.5801C549.517 83.5115 548.515 84.1811 547.381 84.4849C546.247 84.7888 545.044 84.71 543.959 84.2607C542.875 83.8114 541.968 83.0168 541.381 82H535.333Z" fill="#3A3652"/>
<path d="M90.9613 88.4135C93.9266 84.6556 95.2547 79.9965 94.6799 75.3683C94.1052 70.7401 91.6699 66.4841 87.8614 63.4517C84.0529 60.4194 79.1519 58.8343 74.1391 59.0137C69.1262 59.1931 64.3712 61.1237 60.8252 64.4192C57.2792 67.7147 55.2038 72.1322 55.0142 76.7877C54.8247 81.4433 56.5349 85.9937 59.8028 89.5285C63.0706 93.0633 67.6551 95.3219 72.6391 95.8524C77.623 96.3828 82.6389 95.1461 86.6831 92.3895H86.6801C86.7719 92.5032 86.8699 92.6113 86.9802 92.7166L98.7704 103.666C99.3446 104.2 100.124 104.5 100.936 104.5C101.748 104.5 102.527 104.201 103.102 103.668C103.677 103.134 104 102.411 104 101.656C104 100.902 103.678 100.178 103.104 99.6446L91.3134 88.6951C91.204 88.5921 91.0862 88.4971 90.9613 88.4107V88.4135ZM91.7514 77.481C91.7514 79.5352 91.3157 81.5692 90.4693 83.467C89.6228 85.3648 88.3822 87.0892 86.8181 88.5417C85.2541 89.9943 83.3973 91.1465 81.3538 91.9326C79.3103 92.7187 77.1201 93.1233 74.9083 93.1233C72.6964 93.1233 70.5062 92.7187 68.4627 91.9326C66.4192 91.1465 64.5624 89.9943 62.9984 88.5417C61.4343 87.0892 60.1937 85.3648 59.3472 83.467C58.5008 81.5692 58.0651 79.5352 58.0651 77.481C58.0651 73.3324 59.8397 69.3538 62.9984 66.4203C66.1571 63.4868 70.4412 61.8388 74.9083 61.8388C79.3753 61.8388 83.6594 63.4868 86.8181 66.4203C89.9768 69.3538 91.7514 73.3324 91.7514 77.481V77.481Z" fill="#3A3652"/>
<path d="M246.412 68.4112C246.698 68.6982 246.859 69.087 246.859 69.4923C246.859 69.8975 246.698 70.2863 246.412 70.5733L243.218 73.7706L237.093 67.6456L240.287 64.4483C240.575 64.1613 240.964 64 241.37 64C241.776 64 242.165 64.1613 242.453 64.4483L246.412 68.4081V68.4112ZM241.053 75.9327L234.928 69.8077L214.063 90.6756C213.895 90.8441 213.768 91.0496 213.693 91.2758L211.227 98.6687C211.183 98.8035 211.176 98.948 211.209 99.0862C211.242 99.2244 211.312 99.3507 211.413 99.4512C211.513 99.5516 211.639 99.6221 211.778 99.6548C211.916 99.6875 212.06 99.6812 212.195 99.6365L219.588 97.1711C219.814 97.0969 220.019 96.9711 220.188 96.8036L241.053 75.9358V75.9327Z" fill="#3A3652"/>
</svg>
