<svg width="498" height="136" viewBox="0 0 498 136" fill="none" xmlns="http://www.w3.org/2000/svg">
<g clip-path="url(#clip0_136_615)">
<path d="M27.328 43H32.416C36.08 43 38.592 40.792 38.592 37.4C38.592 34.008 36.08 31.8 32.416 31.8H27.328V43ZM29.92 40.872V33.928H32.288C34.512 33.928 35.968 35.256 35.968 37.4C35.968 39.544 34.512 40.872 32.288 40.872H29.92ZM41.6687 33.192C42.5967 33.192 43.2207 32.584 43.2207 31.752C43.2207 30.984 42.5967 30.408 41.6687 30.408C40.7407 30.408 40.1167 31.016 40.1167 31.8C40.1167 32.584 40.7407 33.192 41.6687 33.192ZM40.4207 43H42.9167V34.392H40.4207V43ZM48.1792 43.128C50.7552 43.128 52.2432 41.992 52.2432 40.392C52.2432 37 47.0432 38.424 47.0432 36.952C47.0432 36.504 47.5232 36.152 48.6432 36.152C49.4272 36.152 50.2752 36.312 51.1232 36.792L51.9552 35.016C51.1392 34.536 49.8272 34.264 48.6432 34.264C46.1312 34.264 44.6592 35.416 44.6592 37.048C44.6592 40.488 49.8592 39.048 49.8592 40.456C49.8592 40.936 49.4272 41.24 48.2752 41.24C47.2192 41.24 46.0512 40.904 45.2832 40.408L44.4512 42.2C45.2512 42.728 46.7232 43.128 48.1792 43.128ZM57.9932 43.128C59.8012 43.128 61.2252 42.328 61.8492 40.952L59.9132 39.896C59.4492 40.728 58.7612 41.08 57.9772 41.08C56.7132 41.08 55.7212 40.2 55.7212 38.696C55.7212 37.192 56.7132 36.312 57.9772 36.312C58.7612 36.312 59.4492 36.68 59.9132 37.496L61.8492 36.456C61.2252 35.048 59.8012 34.264 57.9932 34.264C55.1932 34.264 53.1932 36.104 53.1932 38.696C53.1932 41.288 55.1932 43.128 57.9932 43.128ZM67.323 43.128C70.059 43.128 72.043 41.288 72.043 38.696C72.043 36.104 70.059 34.264 67.323 34.264C64.587 34.264 62.587 36.104 62.587 38.696C62.587 41.288 64.587 43.128 67.323 43.128ZM67.323 41.08C66.075 41.08 65.115 40.184 65.115 38.696C65.115 37.208 66.075 36.312 67.323 36.312C68.571 36.312 69.515 37.208 69.515 38.696C69.515 40.184 68.571 41.08 67.323 41.08ZM79.671 34.392L77.207 40.248L74.823 34.392H72.247L75.863 43H78.439L82.071 34.392H79.671ZM91.3371 38.728C91.3371 35.96 89.3851 34.264 86.8571 34.264C84.2331 34.264 82.2651 36.12 82.2651 38.696C82.2651 41.256 84.2011 43.128 87.1771 43.128C88.7291 43.128 89.9291 42.648 90.7291 41.736L89.4011 40.296C88.8091 40.856 88.1531 41.128 87.2411 41.128C85.9291 41.128 85.0171 40.472 84.7771 39.4H91.2891C91.3051 39.192 91.3371 38.92 91.3371 38.728ZM86.8731 36.152C87.9931 36.152 88.8091 36.856 88.9851 37.944H84.7451C84.9211 36.84 85.7371 36.152 86.8731 36.152ZM95.4328 35.528V34.392H93.0488V43H95.5448V38.936C95.5448 37.288 96.4568 36.536 97.8328 36.536C98.0248 36.536 98.1848 36.552 98.3928 36.568V34.264C97.0648 34.264 96.0408 34.696 95.4328 35.528Z" fill="#E16639"/>
<path d="M162.781 43H167.869C171.533 43 174.045 40.792 174.045 37.4C174.045 34.008 171.533 31.8 167.869 31.8H162.781V43ZM165.373 40.872V33.928H167.741C169.965 33.928 171.421 35.256 171.421 37.4C171.421 39.544 169.965 40.872 167.741 40.872H165.373ZM184.306 38.728C184.306 35.96 182.354 34.264 179.826 34.264C177.202 34.264 175.234 36.12 175.234 38.696C175.234 41.256 177.17 43.128 180.146 43.128C181.698 43.128 182.898 42.648 183.698 41.736L182.37 40.296C181.778 40.856 181.122 41.128 180.21 41.128C178.898 41.128 177.986 40.472 177.746 39.4H184.258C184.274 39.192 184.306 38.92 184.306 38.728ZM179.842 36.152C180.962 36.152 181.778 36.856 181.954 37.944H177.714C177.89 36.84 178.706 36.152 179.842 36.152ZM188.754 34.216C188.754 33.368 189.154 32.968 189.89 32.968C190.274 32.968 190.626 33.08 190.898 33.272L191.554 31.464C191.09 31.144 190.354 31 189.65 31C187.506 31 186.322 32.264 186.322 34.2V34.584H184.994V36.504H186.322V43H188.818V36.504H190.962V34.584H188.754V34.216ZM194.784 33.192C195.712 33.192 196.336 32.584 196.336 31.752C196.336 30.984 195.712 30.408 194.784 30.408C193.856 30.408 193.232 31.016 193.232 31.8C193.232 32.584 193.856 33.192 194.784 33.192ZM193.536 43H196.032V34.392H193.536V43ZM203.631 34.264C202.463 34.264 201.455 34.664 200.783 35.4V34.392H198.399V43H200.895V38.744C200.895 37.16 201.759 36.424 202.959 36.424C204.063 36.424 204.703 37.064 204.703 38.456V43H207.199V38.072C207.199 35.448 205.663 34.264 203.631 34.264ZM218.037 38.728C218.037 35.96 216.085 34.264 213.557 34.264C210.933 34.264 208.965 36.12 208.965 38.696C208.965 41.256 210.901 43.128 213.877 43.128C215.429 43.128 216.629 42.648 217.429 41.736L216.101 40.296C215.509 40.856 214.853 41.128 213.941 41.128C212.629 41.128 211.717 40.472 211.477 39.4H217.989C218.005 39.192 218.037 38.92 218.037 38.728ZM213.573 36.152C214.693 36.152 215.509 36.856 215.685 37.944H211.445C211.621 36.84 212.437 36.152 213.573 36.152Z" fill="#E16639"/>
<path d="M274.967 43H280.055C283.719 43 286.231 40.792 286.231 37.4C286.231 34.008 283.719 31.8 280.055 31.8H274.967V43ZM277.559 40.872V33.928H279.927C282.151 33.928 283.607 35.256 283.607 37.4C283.607 39.544 282.151 40.872 279.927 40.872H277.559ZM296.492 38.728C296.492 35.96 294.54 34.264 292.012 34.264C289.388 34.264 287.42 36.12 287.42 38.696C287.42 41.256 289.356 43.128 292.332 43.128C293.884 43.128 295.084 42.648 295.884 41.736L294.556 40.296C293.964 40.856 293.308 41.128 292.396 41.128C291.084 41.128 290.172 40.472 289.932 39.4H296.444C296.46 39.192 296.492 38.92 296.492 38.728ZM292.028 36.152C293.148 36.152 293.964 36.856 294.14 37.944H289.9C290.076 36.84 290.892 36.152 292.028 36.152ZM304.191 34.392L301.727 40.248L299.343 34.392H296.767L300.383 43H302.959L306.591 34.392H304.191ZM315.857 38.728C315.857 35.96 313.905 34.264 311.377 34.264C308.753 34.264 306.785 36.12 306.785 38.696C306.785 41.256 308.721 43.128 311.697 43.128C313.249 43.128 314.449 42.648 315.249 41.736L313.921 40.296C313.329 40.856 312.673 41.128 311.761 41.128C310.449 41.128 309.537 40.472 309.297 39.4H315.809C315.825 39.192 315.857 38.92 315.857 38.728ZM311.393 36.152C312.513 36.152 313.329 36.856 313.505 37.944H309.265C309.441 36.84 310.257 36.152 311.393 36.152ZM317.569 43H320.065V31.128H317.569V43ZM326.528 43.128C329.264 43.128 331.248 41.288 331.248 38.696C331.248 36.104 329.264 34.264 326.528 34.264C323.792 34.264 321.792 36.104 321.792 38.696C321.792 41.288 323.792 43.128 326.528 43.128ZM326.528 41.08C325.28 41.08 324.32 40.184 324.32 38.696C324.32 37.208 325.28 36.312 326.528 36.312C327.776 36.312 328.72 37.208 328.72 38.696C328.72 40.184 327.776 41.08 326.528 41.08ZM338.054 34.264C336.902 34.264 335.974 34.632 335.35 35.384V34.392H332.966V46.104H335.462V42.088C336.102 42.792 336.982 43.128 338.054 43.128C340.47 43.128 342.342 41.4 342.342 38.696C342.342 35.992 340.47 34.264 338.054 34.264ZM337.622 41.08C336.374 41.08 335.43 40.184 335.43 38.696C335.43 37.208 336.374 36.312 337.622 36.312C338.87 36.312 339.814 37.208 339.814 38.696C339.814 40.184 338.87 41.08 337.622 41.08Z" fill="#E16639"/>
<path d="M393.328 43H398.416C402.08 43 404.592 40.792 404.592 37.4C404.592 34.008 402.08 31.8 398.416 31.8H393.328V43ZM395.92 40.872V33.928H398.288C400.512 33.928 401.968 35.256 401.968 37.4C401.968 39.544 400.512 40.872 398.288 40.872H395.92ZM414.853 38.728C414.853 35.96 412.901 34.264 410.373 34.264C407.749 34.264 405.781 36.12 405.781 38.696C405.781 41.256 407.717 43.128 410.693 43.128C412.245 43.128 413.445 42.648 414.245 41.736L412.917 40.296C412.325 40.856 411.669 41.128 410.757 41.128C409.445 41.128 408.533 40.472 408.293 39.4H414.805C414.821 39.192 414.853 38.92 414.853 38.728ZM410.389 36.152C411.509 36.152 412.325 36.856 412.501 37.944H408.261C408.437 36.84 409.253 36.152 410.389 36.152ZM416.564 43H419.06V31.128H416.564V43ZM422.675 33.192C423.603 33.192 424.227 32.584 424.227 31.752C424.227 30.984 423.603 30.408 422.675 30.408C421.747 30.408 421.123 31.016 421.123 31.8C421.123 32.584 421.747 33.192 422.675 33.192ZM421.427 43H423.923V34.392H421.427V43ZM432.433 34.392L429.969 40.248L427.585 34.392H425.009L428.625 43H431.201L434.833 34.392H432.433ZM444.1 38.728C444.1 35.96 442.148 34.264 439.62 34.264C436.996 34.264 435.028 36.12 435.028 38.696C435.028 41.256 436.964 43.128 439.94 43.128C441.492 43.128 442.692 42.648 443.492 41.736L442.164 40.296C441.572 40.856 440.916 41.128 440.004 41.128C438.692 41.128 437.78 40.472 437.54 39.4H444.052C444.068 39.192 444.1 38.92 444.1 38.728ZM439.636 36.152C440.756 36.152 441.572 36.856 441.748 37.944H437.508C437.684 36.84 438.5 36.152 439.636 36.152ZM448.195 35.528V34.392H445.811V43H448.307V38.936C448.307 37.288 449.219 36.536 450.595 36.536C450.787 36.536 450.947 36.552 451.155 36.568V34.264C449.827 34.264 448.803 34.696 448.195 35.528Z" fill="#E16639"/>
<path d="M72.75 94.75L81.75 103.75" stroke="#3A3652" stroke-width="4.5" stroke-linecap="round" stroke-linejoin="round"/>
<path d="M61.5 97.75C69.3701 97.75 75.75 91.3701 75.75 83.5C75.75 75.6299 69.3701 69.25 61.5 69.25C53.6299 69.25 47.25 75.6299 47.25 83.5C47.25 91.3701 53.6299 97.75 61.5 97.75Z" stroke="#3A3652" stroke-width="4.5" stroke-linecap="round" stroke-linejoin="round"/>
<path d="M166 103C166.159 103.019 166.321 103.019 166.48 103L174.48 101C174.835 100.916 175.16 100.736 175.42 100.48L200 75.82C200.745 75.0706 201.163 74.0567 201.163 73C201.163 71.9433 200.745 70.9295 200 70.18L196.84 67C196.469 66.6281 196.027 66.3331 195.542 66.1318C195.056 65.9305 194.536 65.8269 194.01 65.8269C193.484 65.8269 192.964 65.9305 192.478 66.1318C191.993 66.3331 191.552 66.6281 191.18 67L166.6 91.58C166.342 91.8412 166.156 92.1652 166.06 92.52L164.06 100.52C163.988 100.779 163.969 101.049 164.004 101.316C164.039 101.582 164.127 101.838 164.264 102.07C164.4 102.301 164.581 102.503 164.797 102.663C165.013 102.823 165.259 102.937 165.52 103C165.679 103.019 165.841 103.019 166 103ZM194 69.82L197.18 73L194 76.18L190.84 73L194 69.82ZM169.82 94.02L188 75.82L191.18 79L172.98 97.2L168.76 98.24L169.82 94.02Z" fill="#3A3652"/>
<path d="M293.5 97H308.5V100H293.5V97ZM296.5 103H305.5V106H296.5V103ZM301 64C297.022 64 293.206 65.5804 290.393 68.3934C287.58 71.2064 286 75.0218 286 79C285.899 81.18 286.316 83.3529 287.218 85.34C288.121 87.3272 289.482 89.0716 291.19 90.43C292.69 91.825 293.5 92.62 293.5 94H296.5C296.5 91.24 294.835 89.695 293.215 88.21C291.813 87.1364 290.696 85.7354 289.961 84.1298C289.226 82.5241 288.896 80.7628 289 79C289 75.8174 290.264 72.7652 292.515 70.5147C294.765 68.2643 297.817 67 301 67C304.183 67 307.235 68.2643 309.485 70.5147C311.736 72.7652 313 75.8174 313 79C313.102 80.7641 312.77 82.5262 312.032 84.132C311.295 85.7377 310.175 87.138 308.77 88.21C307.165 89.71 305.5 91.21 305.5 94H308.5C308.5 92.62 309.295 91.825 310.81 90.415C312.517 89.059 313.877 87.3171 314.78 85.3326C315.682 83.3481 316.1 81.1777 316 79C316 77.0302 315.612 75.0796 314.858 73.2597C314.104 71.4399 312.999 69.7863 311.607 68.3934C310.214 67.0005 308.56 65.8956 306.74 65.1418C304.92 64.388 302.97 64 301 64V64Z" fill="#3A3652"/>
<path fill-rule="evenodd" clip-rule="evenodd" d="M414 85H409.464C409.024 85.7626 408.344 86.3586 407.531 86.6955C406.717 87.0325 405.815 87.0916 404.965 86.8637C404.114 86.6358 403.363 86.1336 402.826 85.435C402.29 84.7365 402 83.8805 402 83C402 82.1195 402.29 81.2635 402.826 80.565C403.363 79.8664 404.114 79.3642 404.965 79.1363C405.815 78.9084 406.717 78.9675 407.531 79.3045C408.344 79.6414 409.024 80.2374 409.464 81H414V71C414 69.9391 414.421 68.9217 415.172 68.1716C415.922 67.4214 416.939 67 418 67H434C435.061 67 436.078 67.4214 436.828 68.1716C437.579 68.9217 438 69.9391 438 71V99C438 100.061 437.579 101.078 436.828 101.828C436.078 102.579 435.061 103 434 103H418C416.939 103 415.922 102.579 415.172 101.828C414.421 101.078 414 100.061 414 99V85ZM418 85V99H434V71H418V81H422.536C422.976 80.2374 423.656 79.6414 424.469 79.3045C425.283 78.9675 426.185 78.9084 427.035 79.1363C427.886 79.3642 428.637 79.8664 429.173 80.565C429.71 81.2635 430 82.1195 430 83C430 83.8805 429.71 84.7365 429.173 85.435C428.637 86.1336 427.886 86.6358 427.035 86.8637C426.185 87.0916 425.283 87.0325 424.469 86.6955C423.656 86.3586 422.976 85.7626 422.536 85H418Z" fill="#3A3652"/>
</g>
<rect x="1" y="1" width="496" height="134" stroke="#CCDACF" stroke-width="2"/>
<defs>
<clipPath id="clip0_136_615">
<rect width="498" height="136" fill="white"/>
</clipPath>
</defs>
</svg>
