<svg width="118" height="111" viewBox="0 0 118 111" fill="none" xmlns="http://www.w3.org/2000/svg">
<ellipse cx="58.636" cy="55.1067" rx="58.636" ry="54.8933" fill="#E16639"/>
<path d="M36.9656 52.0639V54.871C37.4522 54.871 37.9574 54.8897 38.4814 54.9271C39.0241 54.9458 39.52 55.0487 39.9691 55.2359C40.4183 55.4043 40.7832 55.685 41.0639 56.078C41.3633 56.471 41.513 57.0417 41.513 57.7903C41.513 58.7447 41.2042 59.5026 40.5867 60.064C39.9691 60.6067 39.2112 60.878 38.313 60.878C37.7329 60.878 37.2276 60.7751 36.7972 60.5693C36.3855 60.3634 36.0393 60.0921 35.7586 59.7552C35.4779 59.3997 35.2627 58.988 35.113 58.5201C34.9633 58.0336 34.879 57.5283 34.8603 57.0043H31.0708C31.0521 58.1458 31.2112 59.1564 31.548 60.0359C31.9036 60.9155 32.3995 61.664 33.0358 62.2816C33.672 62.8804 34.4393 63.3389 35.3375 63.657C36.2545 63.9751 37.265 64.1342 38.3691 64.1342C39.3235 64.1342 40.2405 63.9939 41.12 63.7131C41.9996 63.4324 42.7762 63.0207 43.4499 62.478C44.1236 61.9354 44.6569 61.2617 45.0499 60.457C45.4616 59.6523 45.6674 58.7353 45.6674 57.7061C45.6674 56.5833 45.3587 55.6195 44.7411 54.8148C44.1236 54.0101 43.2721 53.4861 42.1867 53.2429V53.1867C43.1037 52.9247 43.7867 52.4288 44.2359 51.699C44.7037 50.9692 44.9376 50.1271 44.9376 49.1727C44.9376 48.2931 44.7411 47.5165 44.3481 46.8428C43.9552 46.1691 43.4405 45.5984 42.8043 45.1305C42.1867 44.6627 41.485 44.3165 40.699 44.0919C39.913 43.8486 39.127 43.727 38.3411 43.727C37.3305 43.727 36.4136 43.8954 35.5902 44.2323C34.7668 44.5504 34.0556 45.0089 33.4568 45.6077C32.8767 46.2065 32.4182 46.927 32.0814 47.7691C31.7632 48.5925 31.5854 49.5095 31.548 50.52H35.3375C35.3188 49.5095 35.5621 48.6767 36.0674 48.0218C36.5913 47.3481 37.3586 47.0112 38.3691 47.0112C39.099 47.0112 39.7446 47.2358 40.306 47.6849C40.8674 48.1341 41.1481 48.7797 41.1481 49.6218C41.1481 50.1832 41.0078 50.6323 40.7271 50.9692C40.4651 51.306 40.1189 51.568 39.6884 51.7551C39.2767 51.9236 38.8276 52.0265 38.3411 52.0639C37.8545 52.1013 37.396 52.1013 36.9656 52.0639ZM54.9213 49.1165V55.9376H49.7563L54.8371 49.1165H54.9213ZM54.9213 59.2219V63.7693H58.7108V59.2219H61.3213V55.9376H58.7108V44.12H55.1458L46.6124 55.5727V59.2219H54.9213ZM81.2138 58.6605C81.2138 58.3423 81.2232 57.9868 81.2419 57.5938C81.2793 57.2008 81.3635 56.8359 81.4945 56.499C81.6255 56.1622 81.8127 55.8815 82.056 55.6569C82.3179 55.4324 82.6735 55.3201 83.1226 55.3201C83.5343 55.3201 83.8525 55.4511 84.077 55.7131C84.3203 55.9563 84.4981 56.2558 84.6104 56.6113C84.7226 56.9482 84.7881 57.3131 84.8069 57.7061C84.8443 58.0803 84.863 58.4078 84.863 58.6885C84.863 58.988 84.8443 59.3342 84.8069 59.7271C84.7881 60.1014 84.7133 60.4663 84.5823 60.8219C84.47 61.1587 84.2829 61.4488 84.0209 61.6921C83.7776 61.9354 83.4408 62.057 83.0103 62.057C82.5612 62.057 82.215 61.9354 81.9717 61.6921C81.7285 61.4488 81.5507 61.1587 81.4384 60.8219C81.3261 60.4663 81.2606 60.0921 81.2419 59.6991C81.2232 59.3061 81.2138 58.9599 81.2138 58.6605ZM78.3507 58.6324C78.3507 59.3997 78.4255 60.1201 78.5752 60.7938C78.7436 61.4675 79.0056 62.057 79.3612 62.5623C79.7355 63.0488 80.2127 63.4324 80.7928 63.7131C81.3916 63.9939 82.1214 64.1342 82.9823 64.1342C83.8057 64.1342 84.5168 64.0032 85.1156 63.7412C85.7145 63.4605 86.201 63.0769 86.5753 62.5903C86.9683 62.1038 87.2583 61.533 87.4455 60.878C87.6326 60.2231 87.7262 59.5119 87.7262 58.7447C87.7262 57.9774 87.6513 57.2569 87.5016 56.5833C87.3519 55.9096 87.0899 55.3294 86.7156 54.8429C86.3601 54.3376 85.8922 53.9446 85.3121 53.6639C84.732 53.3645 84.0022 53.2148 83.1226 53.2148C82.2992 53.2148 81.5881 53.3552 80.9893 53.6359C80.3904 53.9166 79.8945 54.3002 79.5015 54.7867C79.1086 55.2733 78.8185 55.8441 78.6314 56.499C78.4442 57.154 78.3507 57.8651 78.3507 58.6324ZM80.5121 43.5024L68.8909 64.3588H71.333L82.8981 43.5024H80.5121ZM66.7295 49.3411C66.7295 49.0229 66.7388 48.658 66.7576 48.2463C66.795 47.8346 66.8792 47.451 67.0102 47.0954C67.1412 46.7399 67.3283 46.4405 67.5716 46.1972C67.8336 45.9539 68.1892 45.8323 68.6383 45.8323C69.05 45.8323 69.3681 45.9633 69.5927 46.2253C69.836 46.4873 70.0137 46.8054 70.126 47.1797C70.2383 47.5539 70.3038 47.9469 70.3225 48.3586C70.3599 48.7516 70.3786 49.0884 70.3786 49.3692C70.3786 49.6686 70.3599 50.0054 70.3225 50.3797C70.3038 50.7352 70.2289 51.0814 70.0979 51.4183C69.9857 51.7364 69.7985 52.0078 69.5365 52.2323C69.2933 52.4569 68.9564 52.5692 68.526 52.5692C68.0769 52.5692 67.7307 52.4569 67.4874 52.2323C67.2441 52.0078 67.0663 51.7364 66.9541 51.4183C66.8418 51.0814 66.7763 50.7259 66.7576 50.3516C66.7388 49.9773 66.7295 49.6405 66.7295 49.3411ZM63.8663 49.2849C63.8663 50.0522 63.9412 50.7727 64.0909 51.4464C64.2593 52.1013 64.5213 52.6721 64.8768 53.1587C65.2511 53.6265 65.7283 54.0008 66.3084 54.2815C66.9073 54.5435 67.6371 54.6745 68.4979 54.6745C69.3213 54.6745 70.0324 54.5435 70.6313 54.2815C71.2301 54.0195 71.7167 53.6546 72.0909 53.1867C72.4839 52.7189 72.774 52.1668 72.9611 51.5306C73.1483 50.8756 73.2418 50.1645 73.2418 49.3972C73.2418 48.63 73.167 47.9001 73.0173 47.2077C72.8676 46.5153 72.6056 45.9165 72.2313 45.4112C71.8757 44.8872 71.4079 44.4755 70.8278 44.1761C70.2477 43.8767 69.5178 43.727 68.6383 43.727C67.8149 43.727 67.1038 43.8767 66.5049 44.1761C65.9061 44.4568 65.4102 44.8498 65.0172 45.3551C64.6242 45.8603 64.3341 46.4498 64.147 47.1235C63.9599 47.7972 63.8663 48.5177 63.8663 49.2849Z" fill="white"/>
</svg>
