<svg width="118" height="110" viewBox="0 0 118 110" fill="none" xmlns="http://www.w3.org/2000/svg">
<ellipse cx="58.636" cy="54.8933" rx="58.636" ry="54.8933" fill="#E16639"/>
<path d="M46.3707 64V44.3507H43.1987C43.0864 45.0992 42.8525 45.7261 42.4969 46.2314C42.1414 46.7367 41.7016 47.1484 41.1776 47.4665C40.6724 47.7659 40.0922 47.9811 39.4373 48.1121C38.801 48.2244 38.1367 48.2712 37.4443 48.2525V51.256H42.3847V64H46.3707ZM52.0034 51.9016H55.821C55.821 51.3777 55.8678 50.8537 55.9613 50.3297C56.0736 49.787 56.2514 49.3004 56.4947 48.87C56.7379 48.4209 57.0561 48.0653 57.4491 47.8034C57.8608 47.5227 58.3567 47.3823 58.9368 47.3823C59.7976 47.3823 60.4994 47.6536 61.0421 48.1963C61.6035 48.7203 61.8842 49.4595 61.8842 50.4139C61.8842 51.0127 61.7438 51.5461 61.4631 52.0139C61.2011 52.4818 60.8643 52.9028 60.4526 53.2771C60.0596 53.6514 59.6198 53.9976 59.1333 54.3157C58.6467 54.6151 58.1882 54.9145 57.7578 55.214C56.9157 55.7941 56.111 56.3648 55.3438 56.9262C54.5952 57.4877 53.9402 58.1052 53.3788 58.7789C52.8174 59.4339 52.3683 60.1824 52.0315 61.0245C51.7133 61.8666 51.5543 62.8585 51.5543 64H65.9825V60.5754H56.6912C57.1777 59.9017 57.7391 59.3122 58.3754 58.807C59.0116 58.3017 59.6666 57.8339 60.3403 57.4034C61.014 56.9543 61.6783 56.5052 62.3333 56.0561C63.007 55.6069 63.6058 55.111 64.1298 54.5683C64.6538 54.0069 65.0749 53.3707 65.393 52.6595C65.7111 51.9484 65.8702 51.097 65.8702 50.1051C65.8702 49.1507 65.6831 48.2899 65.3088 47.5227C64.9532 46.7554 64.4667 46.1098 63.8491 45.5858C63.2316 45.0618 62.5111 44.6595 61.6877 44.3788C60.883 44.0981 60.0315 43.9577 59.1333 43.9577C57.9543 43.9577 56.9064 44.1636 55.9894 44.5753C55.0911 44.9682 54.3426 45.5296 53.7438 46.2595C53.1449 46.9706 52.6958 47.8127 52.3964 48.7858C52.097 49.7402 51.966 50.7788 52.0034 51.9016ZM86.0153 58.8912C86.0153 58.573 86.0247 58.2175 86.0434 57.8245C86.0808 57.4315 86.165 57.0666 86.296 56.7298C86.427 56.3929 86.6142 56.1122 86.8574 55.8876C87.1194 55.6631 87.475 55.5508 87.9241 55.5508C88.3358 55.5508 88.654 55.6818 88.8785 55.9438C89.1218 56.1871 89.2996 56.4865 89.4119 56.842C89.5241 57.1789 89.5896 57.5438 89.6083 57.9368C89.6458 58.3111 89.6645 58.6385 89.6645 58.9193C89.6645 59.2187 89.6458 59.5649 89.6083 59.9579C89.5896 60.3321 89.5148 60.697 89.3838 61.0526C89.2715 61.3894 89.0844 61.6795 88.8224 61.9228C88.5791 62.1661 88.2423 62.2877 87.8118 62.2877C87.3627 62.2877 87.0165 62.1661 86.7732 61.9228C86.53 61.6795 86.3522 61.3894 86.2399 61.0526C86.1276 60.697 86.0621 60.3228 86.0434 59.9298C86.0247 59.5368 86.0153 59.1906 86.0153 58.8912ZM83.1521 58.8631C83.1521 59.6304 83.227 60.3508 83.3767 61.0245C83.5451 61.6982 83.8071 62.2877 84.1627 62.793C84.537 63.2795 85.0142 63.6632 85.5943 63.9439C86.1931 64.2246 86.9229 64.3649 87.7838 64.3649C88.6072 64.3649 89.3183 64.2339 89.9171 63.9719C90.516 63.6912 91.0025 63.3076 91.3768 62.821C91.7698 62.3345 92.0598 61.7637 92.247 61.1087C92.4341 60.4538 92.5277 59.7426 92.5277 58.9754C92.5277 58.2081 92.4528 57.4877 92.3031 56.814C92.1534 56.1403 91.8914 55.5602 91.5171 55.0736C91.1616 54.5683 90.6937 54.1753 90.1136 53.8946C89.5335 53.5952 88.8037 53.4455 87.9241 53.4455C87.1007 53.4455 86.3896 53.5859 85.7908 53.8666C85.1919 54.1473 84.696 54.5309 84.303 55.0175C83.91 55.504 83.62 56.0748 83.4329 56.7298C83.2457 57.3847 83.1521 58.0959 83.1521 58.8631ZM85.3136 43.7331L73.6924 64.5895H76.1345L87.6996 43.7331H85.3136ZM71.531 49.5718C71.531 49.2537 71.5403 48.8887 71.5591 48.477C71.5965 48.0653 71.6807 47.6817 71.8117 47.3262C71.9427 46.9706 72.1298 46.6712 72.3731 46.4279C72.6351 46.1846 72.9906 46.063 73.4398 46.063C73.8515 46.063 74.1696 46.194 74.3942 46.456C74.6374 46.718 74.8152 47.0361 74.9275 47.4104C75.0398 47.7846 75.1053 48.1776 75.124 48.5893C75.1614 48.9823 75.1801 49.3192 75.1801 49.5999C75.1801 49.8993 75.1614 50.2361 75.124 50.6104C75.1053 50.966 75.0304 51.3122 74.8994 51.649C74.7872 51.9671 74.6 52.2385 74.338 52.463C74.0948 52.6876 73.7579 52.7999 73.3275 52.7999C72.8784 52.7999 72.5322 52.6876 72.2889 52.463C72.0456 52.2385 71.8678 51.9671 71.7555 51.649C71.6433 51.3122 71.5778 50.9566 71.5591 50.5823C71.5403 50.2081 71.531 49.8712 71.531 49.5718ZM68.6678 49.5157C68.6678 50.2829 68.7427 51.0034 68.8924 51.6771C69.0608 52.3321 69.3228 52.9028 69.6783 53.3894C70.0526 53.8572 70.5298 54.2315 71.1099 54.5122C71.7088 54.7742 72.4386 54.9052 73.2994 54.9052C74.1228 54.9052 74.8339 54.7742 75.4328 54.5122C76.0316 54.2502 76.5182 53.8853 76.8924 53.4174C77.2854 52.9496 77.5755 52.3976 77.7626 51.7613C77.9498 51.1063 78.0433 50.3952 78.0433 49.6279C78.0433 48.8607 77.9685 48.1308 77.8188 47.4384C77.6691 46.746 77.4071 46.1472 77.0328 45.6419C76.6772 45.1179 76.2094 44.7062 75.6293 44.4068C75.0491 44.1074 74.3193 43.9577 73.4398 43.9577C72.6164 43.9577 71.9053 44.1074 71.3064 44.4068C70.7076 44.6875 70.2117 45.0805 69.8187 45.5858C69.4257 46.0911 69.1356 46.6805 68.9485 47.3542C68.7614 48.0279 68.6678 48.7484 68.6678 49.5157Z" fill="white"/>
</svg>
