<svg width="118" height="110" viewBox="0 0 118 110" fill="none" xmlns="http://www.w3.org/2000/svg">
<ellipse cx="58.636" cy="54.8933" rx="58.636" ry="54.8933" fill="#E16639"/>
<path d="M26.6808 49.6841C26.6808 49.2349 26.7556 48.842 26.9053 48.5051C27.0738 48.1683 27.2983 47.8876 27.579 47.663C27.8597 47.4384 28.1779 47.27 28.5334 47.1577C28.9077 47.0267 29.2913 46.9612 29.6843 46.9612C30.3019 46.9612 30.7978 47.0548 31.1721 47.2419C31.565 47.4291 31.8645 47.663 32.0703 47.9437C32.2949 48.2244 32.4446 48.5238 32.5194 48.842C32.5943 49.1414 32.6317 49.4221 32.6317 49.6841C32.6317 50.5262 32.351 51.1718 31.7896 51.6209C31.2282 52.0513 30.5264 52.2666 29.6843 52.2666C28.8796 52.2666 28.1779 52.0513 27.579 51.6209C26.9802 51.1718 26.6808 50.5262 26.6808 49.6841ZM23.0597 49.3192C23.0597 50.2923 23.303 51.1437 23.7895 51.8736C24.2761 52.6034 24.9966 53.0993 25.9509 53.3613V53.4174C24.772 53.6981 23.855 54.2596 23.2 55.1017C22.5638 55.9438 22.2457 56.9917 22.2457 58.2456C22.2457 59.3122 22.4515 60.2292 22.8632 60.9965C23.2936 61.7637 23.855 62.4 24.5474 62.9053C25.2585 63.4105 26.0539 63.7754 26.9334 64C27.8317 64.2433 28.758 64.3649 29.7124 64.3649C30.6294 64.3649 31.5276 64.2433 32.4072 64C33.2867 63.738 34.0727 63.3544 34.7651 62.8491C35.4575 62.3438 36.0095 61.7076 36.4212 60.9403C36.8516 60.1731 37.0668 59.2655 37.0668 58.2175C37.0668 56.9824 36.7487 55.9438 36.1124 55.1017C35.4762 54.2408 34.5686 53.6794 33.3896 53.4174V53.3613C34.344 53.0432 35.0551 52.5192 35.523 51.7894C36.0095 51.0595 36.2528 50.2081 36.2528 49.2349C36.2528 48.7484 36.1405 48.2057 35.916 47.6069C35.6914 46.9893 35.3171 46.4185 34.7931 45.8946C34.2879 45.3519 33.6142 44.8934 32.7721 44.5191C31.93 44.1448 30.9007 43.9577 29.6843 43.9577C28.8796 43.9577 28.0843 44.07 27.2983 44.2946C26.5124 44.5191 25.8012 44.856 25.165 45.3051C24.5474 45.7542 24.0422 46.3156 23.6492 46.9893C23.2562 47.663 23.0597 48.4396 23.0597 49.3192ZM26.2317 58.0491C26.2317 57.0385 26.5685 56.2713 27.2422 55.7473C27.9159 55.2046 28.7393 54.9332 29.7124 54.9332C30.1802 54.9332 30.6106 55.0081 31.0036 55.1578C31.4153 55.3075 31.7709 55.5227 32.0703 55.8034C32.3884 56.0841 32.6317 56.421 32.8001 56.814C32.9873 57.1882 33.0808 57.6093 33.0808 58.0771C33.0808 58.5637 32.9966 59.0128 32.8282 59.4245C32.6598 59.8362 32.4165 60.1918 32.0984 60.4912C31.799 60.7719 31.4434 60.9965 31.0317 61.1649C30.6387 61.3146 30.1989 61.3894 29.7124 61.3894C29.2445 61.3894 28.7954 61.3146 28.365 61.1649C27.9346 60.9965 27.5603 60.7719 27.2422 60.4912C26.9428 60.1918 26.6995 59.8362 26.5124 59.4245C26.3252 59.0128 26.2317 58.5543 26.2317 58.0491ZM38.9381 54.6245V58.0491H47.3873V54.6245H38.9381ZM49.92 51.9016H53.7376C53.7376 51.3777 53.7844 50.8537 53.878 50.3297C53.9902 49.787 54.168 49.3004 54.4113 48.87C54.6546 48.4209 54.9727 48.0653 55.3657 47.8034C55.7774 47.5227 56.2733 47.3823 56.8534 47.3823C57.7143 47.3823 58.416 47.6536 58.9587 48.1963C59.5201 48.7203 59.8008 49.4595 59.8008 50.4139C59.8008 51.0127 59.6605 51.5461 59.3798 52.0139C59.1178 52.4818 58.7809 52.9028 58.3692 53.2771C57.9763 53.6514 57.5365 53.9976 57.0499 54.3157C56.5634 54.6151 56.1049 54.9145 55.6745 55.214C54.8324 55.7941 54.0277 56.3648 53.2604 56.9262C52.5119 57.4877 51.8569 58.1052 51.2955 58.7789C50.7341 59.4339 50.2849 60.1824 49.9481 61.0245C49.63 61.8666 49.4709 62.8585 49.4709 64H63.8991V60.5754H54.6078C55.0944 59.9017 55.6558 59.3122 56.292 58.807C56.9283 58.3017 57.5833 57.8339 58.257 57.4034C58.9306 56.9543 59.595 56.5052 60.25 56.0561C60.9236 55.6069 61.5225 55.111 62.0465 54.5683C62.5704 54.0069 62.9915 53.3707 63.3096 52.6595C63.6278 51.9484 63.7868 51.097 63.7868 50.1051C63.7868 49.1507 63.5997 48.2899 63.2254 47.5227C62.8699 46.7554 62.3833 46.1098 61.7658 45.5858C61.1482 45.0618 60.4277 44.6595 59.6043 44.3788C58.7997 44.0981 57.9482 43.9577 57.0499 43.9577C55.871 43.9577 54.823 44.1636 53.906 44.5753C53.0078 44.9682 52.2592 45.5296 51.6604 46.2595C51.0616 46.9706 50.6124 47.8127 50.313 48.7858C50.0136 49.7402 49.8826 50.7788 49.92 51.9016ZM78.5144 47.6349V44.3507H67.5388L65.602 55.214H69.195C69.588 54.6713 70.009 54.2783 70.4582 54.035C70.9073 53.773 71.4874 53.642 72.1985 53.642C72.7412 53.642 73.2184 53.7356 73.6301 53.9227C74.0418 54.1098 74.3974 54.3718 74.6968 54.7087C74.9962 55.0455 75.2208 55.4385 75.3705 55.8876C75.5202 56.3368 75.5951 56.814 75.5951 57.3192C75.5951 57.8058 75.5108 58.283 75.3424 58.7508C75.1927 59.2 74.9682 59.6023 74.6687 59.9579C74.388 60.2947 74.0325 60.5754 73.6021 60.8C73.1904 61.0058 72.7225 61.1087 72.1985 61.1087C71.3003 61.1087 70.5611 60.8468 69.981 60.3228C69.4008 59.7801 69.064 59.0596 68.9704 58.1613H64.9844C65.0031 59.1906 65.209 60.0982 65.602 60.8842C66.0137 61.6514 66.5564 62.2971 67.2301 62.821C67.9038 63.345 68.671 63.738 69.5318 64C70.4114 64.2433 71.3284 64.3649 72.2827 64.3649C73.2746 64.3836 74.2103 64.2246 75.0898 63.8877C75.9693 63.5322 76.7366 63.0362 77.3916 62.4C78.0653 61.7637 78.5986 61.0152 78.9916 60.1543C79.3846 59.2748 79.5811 58.3298 79.5811 57.3192C79.5811 56.4023 79.4407 55.5414 79.16 54.7368C78.898 53.9134 78.505 53.2022 77.981 52.6034C77.4758 52.0046 76.8489 51.5274 76.1003 51.1718C75.3518 50.8162 74.491 50.6385 73.5178 50.6385C72.7319 50.6385 72.0301 50.7601 71.4126 51.0034C70.795 51.2279 70.2149 51.6116 69.6722 52.1543L69.6161 52.0981L70.402 47.6349H78.5144ZM99.5297 58.8912C99.5297 58.573 99.5391 58.2175 99.5578 57.8245C99.5952 57.4315 99.6794 57.0666 99.8104 56.7298C99.9414 56.3929 100.129 56.1122 100.372 55.8876C100.634 55.6631 100.989 55.5508 101.439 55.5508C101.85 55.5508 102.168 55.6818 102.393 55.9438C102.636 56.1871 102.814 56.4865 102.926 56.842C103.039 57.1789 103.104 57.5438 103.123 57.9368C103.16 58.3111 103.179 58.6385 103.179 58.9193C103.179 59.2187 103.16 59.5649 103.123 59.9579C103.104 60.3321 103.029 60.697 102.898 61.0526C102.786 61.3894 102.599 61.6795 102.337 61.9228C102.093 62.1661 101.757 62.2877 101.326 62.2877C100.877 62.2877 100.531 62.1661 100.288 61.9228C100.044 61.6795 99.8666 61.3894 99.7543 61.0526C99.642 60.697 99.5765 60.3228 99.5578 59.9298C99.5391 59.5368 99.5297 59.1906 99.5297 58.8912ZM96.6665 58.8631C96.6665 59.6304 96.7414 60.3508 96.8911 61.0245C97.0595 61.6982 97.3215 62.2877 97.6771 62.793C98.0513 63.2795 98.5285 63.6632 99.1087 63.9439C99.7075 64.2246 100.437 64.3649 101.298 64.3649C102.122 64.3649 102.833 64.2339 103.432 63.9719C104.03 63.6912 104.517 63.3076 104.891 62.821C105.284 62.3345 105.574 61.7637 105.761 61.1087C105.948 60.4538 106.042 59.7426 106.042 58.9754C106.042 58.2081 105.967 57.4877 105.817 56.814C105.668 56.1403 105.406 55.5602 105.032 55.0736C104.676 54.5683 104.208 54.1753 103.628 53.8946C103.048 53.5952 102.318 53.4455 101.439 53.4455C100.615 53.4455 99.904 53.5859 99.3052 53.8666C98.7063 54.1473 98.2104 54.5309 97.8174 55.0175C97.4244 55.504 97.1344 56.0748 96.9472 56.7298C96.7601 57.3847 96.6665 58.0959 96.6665 58.8631ZM98.828 43.7331L87.2068 64.5895H89.6489L101.214 43.7331H98.828ZM85.0454 49.5718C85.0454 49.2537 85.0547 48.8887 85.0734 48.477C85.1109 48.0653 85.1951 47.6817 85.3261 47.3262C85.4571 46.9706 85.6442 46.6712 85.8875 46.4279C86.1495 46.1846 86.505 46.063 86.9542 46.063C87.3659 46.063 87.684 46.194 87.9085 46.456C88.1518 46.718 88.3296 47.0361 88.4419 47.4104C88.5542 47.7846 88.6197 48.1776 88.6384 48.5893C88.6758 48.9823 88.6945 49.3192 88.6945 49.5999C88.6945 49.8993 88.6758 50.2361 88.6384 50.6104C88.6197 50.966 88.5448 51.3122 88.4138 51.649C88.3015 51.9671 88.1144 52.2385 87.8524 52.463C87.6091 52.6876 87.2723 52.7999 86.8419 52.7999C86.3927 52.7999 86.0465 52.6876 85.8033 52.463C85.56 52.2385 85.3822 51.9671 85.2699 51.649C85.1576 51.3122 85.0921 50.9566 85.0734 50.5823C85.0547 50.2081 85.0454 49.8712 85.0454 49.5718ZM82.1822 49.5157C82.1822 50.2829 82.257 51.0034 82.4067 51.6771C82.5752 52.3321 82.8372 52.9028 83.1927 53.3894C83.567 53.8572 84.0442 54.2315 84.6243 54.5122C85.2231 54.7742 85.953 54.9052 86.8138 54.9052C87.6372 54.9052 88.3483 54.7742 88.9472 54.5122C89.546 54.2502 90.0325 53.8853 90.4068 53.4174C90.7998 52.9496 91.0899 52.3976 91.277 51.7613C91.4641 51.1063 91.5577 50.3952 91.5577 49.6279C91.5577 48.8607 91.4829 48.1308 91.3331 47.4384C91.1834 46.746 90.9214 46.1472 90.5472 45.6419C90.1916 45.1179 89.7238 44.7062 89.1436 44.4068C88.5635 44.1074 87.8337 43.9577 86.9542 43.9577C86.1308 43.9577 85.4196 44.1074 84.8208 44.4068C84.222 44.6875 83.7261 45.0805 83.3331 45.5858C82.9401 46.0911 82.65 46.6805 82.4629 47.3542C82.2757 48.0279 82.1822 48.7484 82.1822 49.5157Z" fill="white"/>
</svg>
