<svg width="118" height="110" viewBox="0 0 118 110" fill="none" xmlns="http://www.w3.org/2000/svg">
<ellipse cx="58.636" cy="54.8933" rx="58.636" ry="54.8933" fill="#E16639"/>
<path d="M44.125 49.3472V56.1683H38.9601L44.0408 49.3472H44.125ZM44.125 59.4526V64H47.9145V59.4526H50.5251V56.1683H47.9145V44.3507H44.3496L35.8162 55.8034V59.4526H44.125ZM55.5403 54.0911C55.5403 53.7543 55.5403 53.3519 55.5403 52.8841C55.559 52.3976 55.5964 51.9016 55.6525 51.3964C55.7087 50.8911 55.8023 50.3952 55.9333 49.9086C56.0642 49.4034 56.242 48.9542 56.4666 48.5613C56.7099 48.1683 57.0093 47.8501 57.3648 47.6069C57.7391 47.3636 58.1976 47.2419 58.7403 47.2419C59.283 47.2419 59.7415 47.3636 60.1157 47.6069C60.49 47.8501 60.7988 48.1683 61.0421 48.5613C61.2853 48.9542 61.4631 49.4034 61.5754 49.9086C61.7064 50.3952 61.8 50.8911 61.8561 51.3964C61.931 51.9016 61.9684 52.3976 61.9684 52.8841C61.9871 53.3519 61.9965 53.7543 61.9965 54.0911C61.9965 54.6525 61.9778 55.3356 61.9403 56.1403C61.9029 56.9262 61.7813 57.6935 61.5754 58.4421C61.3883 59.1719 61.0701 59.7988 60.621 60.3228C60.1906 60.8468 59.5637 61.1087 58.7403 61.1087C57.9356 61.1087 57.3181 60.8468 56.8876 60.3228C56.4572 59.7988 56.1391 59.1719 55.9333 58.4421C55.7461 57.6935 55.6338 56.9262 55.5964 56.1403C55.559 55.3356 55.5403 54.6525 55.5403 54.0911ZM51.5543 54.0911C51.5543 56.0561 51.7414 57.7029 52.1157 59.0315C52.5087 60.3415 53.0326 61.3894 53.6876 62.1754C54.3426 62.9614 55.1005 63.5228 55.9613 63.8596C56.8409 64.1965 57.7672 64.3649 58.7403 64.3649C59.7321 64.3649 60.6584 64.1965 61.5193 63.8596C62.3988 63.5228 63.1661 62.9614 63.821 62.1754C64.4947 61.3894 65.0187 60.3415 65.393 59.0315C65.786 57.7029 65.9825 56.0561 65.9825 54.0911C65.9825 52.1823 65.786 50.5823 65.393 49.2911C65.0187 47.9811 64.4947 46.9332 63.821 46.1472C63.1661 45.3612 62.3988 44.7998 61.5193 44.463C60.6584 44.1261 59.7321 43.9577 58.7403 43.9577C57.7672 43.9577 56.8409 44.1261 55.9613 44.463C55.1005 44.7998 54.3426 45.3612 53.6876 46.1472C53.0326 46.9332 52.5087 47.9811 52.1157 49.2911C51.7414 50.5823 51.5543 52.1823 51.5543 54.0911ZM86.0153 58.8912C86.0153 58.573 86.0247 58.2175 86.0434 57.8245C86.0808 57.4315 86.165 57.0666 86.296 56.7298C86.427 56.3929 86.6142 56.1122 86.8574 55.8876C87.1194 55.6631 87.475 55.5508 87.9241 55.5508C88.3358 55.5508 88.654 55.6818 88.8785 55.9438C89.1218 56.1871 89.2996 56.4865 89.4119 56.842C89.5241 57.1789 89.5896 57.5438 89.6083 57.9368C89.6458 58.3111 89.6645 58.6385 89.6645 58.9193C89.6645 59.2187 89.6458 59.5649 89.6083 59.9579C89.5896 60.3321 89.5148 60.697 89.3838 61.0526C89.2715 61.3894 89.0844 61.6795 88.8224 61.9228C88.5791 62.1661 88.2423 62.2877 87.8118 62.2877C87.3627 62.2877 87.0165 62.1661 86.7732 61.9228C86.53 61.6795 86.3522 61.3894 86.2399 61.0526C86.1276 60.697 86.0621 60.3228 86.0434 59.9298C86.0247 59.5368 86.0153 59.1906 86.0153 58.8912ZM83.1521 58.8631C83.1521 59.6304 83.227 60.3508 83.3767 61.0245C83.5451 61.6982 83.8071 62.2877 84.1627 62.793C84.537 63.2795 85.0142 63.6632 85.5943 63.9439C86.1931 64.2246 86.9229 64.3649 87.7838 64.3649C88.6072 64.3649 89.3183 64.2339 89.9171 63.9719C90.516 63.6912 91.0025 63.3076 91.3768 62.821C91.7698 62.3345 92.0598 61.7637 92.247 61.1087C92.4341 60.4538 92.5277 59.7426 92.5277 58.9754C92.5277 58.2081 92.4528 57.4877 92.3031 56.814C92.1534 56.1403 91.8914 55.5602 91.5171 55.0736C91.1616 54.5683 90.6937 54.1753 90.1136 53.8946C89.5335 53.5952 88.8037 53.4455 87.9241 53.4455C87.1007 53.4455 86.3896 53.5859 85.7908 53.8666C85.1919 54.1473 84.696 54.5309 84.303 55.0175C83.91 55.504 83.62 56.0748 83.4329 56.7298C83.2457 57.3847 83.1521 58.0959 83.1521 58.8631ZM85.3136 43.7331L73.6924 64.5895H76.1345L87.6996 43.7331H85.3136ZM71.531 49.5718C71.531 49.2537 71.5403 48.8887 71.5591 48.477C71.5965 48.0653 71.6807 47.6817 71.8117 47.3262C71.9427 46.9706 72.1298 46.6712 72.3731 46.4279C72.6351 46.1846 72.9906 46.063 73.4398 46.063C73.8515 46.063 74.1696 46.194 74.3942 46.456C74.6374 46.718 74.8152 47.0361 74.9275 47.4104C75.0398 47.7846 75.1053 48.1776 75.124 48.5893C75.1614 48.9823 75.1801 49.3192 75.1801 49.5999C75.1801 49.8993 75.1614 50.2361 75.124 50.6104C75.1053 50.966 75.0304 51.3122 74.8994 51.649C74.7872 51.9671 74.6 52.2385 74.338 52.463C74.0948 52.6876 73.7579 52.7999 73.3275 52.7999C72.8784 52.7999 72.5322 52.6876 72.2889 52.463C72.0456 52.2385 71.8678 51.9671 71.7555 51.649C71.6433 51.3122 71.5778 50.9566 71.5591 50.5823C71.5403 50.2081 71.531 49.8712 71.531 49.5718ZM68.6678 49.5157C68.6678 50.2829 68.7427 51.0034 68.8924 51.6771C69.0608 52.3321 69.3228 52.9028 69.6783 53.3894C70.0526 53.8572 70.5298 54.2315 71.1099 54.5122C71.7088 54.7742 72.4386 54.9052 73.2994 54.9052C74.1228 54.9052 74.8339 54.7742 75.4328 54.5122C76.0316 54.2502 76.5182 53.8853 76.8924 53.4174C77.2854 52.9496 77.5755 52.3976 77.7626 51.7613C77.9498 51.1063 78.0433 50.3952 78.0433 49.6279C78.0433 48.8607 77.9685 48.1308 77.8188 47.4384C77.6691 46.746 77.4071 46.1472 77.0328 45.6419C76.6772 45.1179 76.2094 44.7062 75.6293 44.4068C75.0491 44.1074 74.3193 43.9577 73.4398 43.9577C72.6164 43.9577 71.9053 44.1074 71.3064 44.4068C70.7076 44.6875 70.2117 45.0805 69.8187 45.5858C69.4257 46.0911 69.1356 46.6805 68.9485 47.3542C68.7614 48.0279 68.6678 48.7484 68.6678 49.5157Z" fill="white"/>
</svg>
