<svg width="764" height="396" viewBox="0 0 764 396" fill="none" xmlns="http://www.w3.org/2000/svg">
<path d="M441.321 111.265L443.812 108.714C446.016 106.457 445.939 103.727 443.601 101.334L443.591 101.323C441.264 98.9407 438.593 98.8775 436.399 101.124L433.908 103.675L441.321 111.265ZM441.413 109.466L435.665 103.58L437.17 102.039C438.85 100.319 440.807 100.408 442.656 102.302L442.666 102.312C444.505 104.195 444.598 106.205 442.918 107.925L441.413 109.466ZM442.645 97.1165C442.958 96.7956 442.953 96.2854 442.645 95.9698C442.331 95.6489 441.838 95.6489 441.525 95.9698C441.217 96.2854 441.212 96.7956 441.525 97.1165C441.833 97.4321 442.337 97.4321 442.645 97.1165ZM448.444 103.97L449.338 103.055L443.996 97.5846L443.102 98.4999L448.444 103.97ZM452.126 100.2L453.041 99.2636L449.661 91.7839L448.731 92.736L451.644 98.7481L451.623 98.7692L445.757 95.7815L444.817 96.7441L452.126 100.2ZM457.868 94.5307C459.034 93.3367 459.209 91.7271 458.5 90.6435L458.459 90.5804L457.581 91.4799L457.612 91.543C457.915 92.1689 457.776 93.0053 457.098 93.6996C456.148 94.6727 454.899 94.6359 453.779 93.5313L457.627 89.5915L457.298 89.2549C455.695 87.6138 453.723 87.4139 452.264 88.9077C450.805 90.4016 450.995 92.5319 452.649 94.2256L452.654 94.2309C454.334 95.9509 456.332 96.1034 457.868 94.5307ZM453.05 89.723C453.831 88.9235 454.894 88.8341 456.019 89.8072L453.096 92.8001C452.197 91.6798 452.274 90.5173 453.05 89.723ZM461.027 91.0864L461.92 90.1712L458.581 86.7522C457.826 85.979 457.78 85.0059 458.474 84.2958C458.689 84.0749 458.905 83.9065 459.003 83.8592L458.134 82.9703C458.052 83.0334 457.893 83.1438 457.739 83.3016C457.112 83.9434 456.994 84.8323 457.41 85.616L457.39 85.6371L456.527 84.7534L455.684 85.616L461.027 91.0864ZM468.243 87.5896C469.691 86.1063 469.789 84.3442 468.551 83.0765L463.358 77.7587L462.464 78.6739L463.368 79.5997L463.347 79.6207C462.423 79.3472 461.416 79.5365 460.661 80.3098C459.305 81.6984 459.454 83.755 461.113 85.454L461.118 85.4593C462.787 87.1688 464.791 87.3371 466.137 85.959C466.902 85.1752 467.138 84.1548 466.866 83.2238L466.887 83.2027L467.57 83.9023C468.397 84.7492 468.381 85.8275 467.441 86.7901C466.712 87.537 465.967 87.8158 465.412 87.5948L465.346 87.5685L464.447 88.489L464.503 88.5259C465.469 89.1571 466.923 88.9414 468.243 87.5896ZM465.541 84.9491C464.59 85.9222 463.245 85.7644 462.032 84.523L462.027 84.5177C460.841 83.3027 460.676 81.914 461.627 80.9409C462.531 80.0152 463.923 80.1677 465.099 81.3723L465.104 81.3775C466.291 82.5926 466.45 84.018 465.541 84.9491ZM464.178 75.0666C464.492 74.7457 464.487 74.2355 464.178 73.9199C463.865 73.5991 463.372 73.5991 463.059 73.9199C462.75 74.2355 462.745 74.7457 463.059 75.0666C463.367 75.3822 463.87 75.3822 464.178 75.0666ZM469.978 81.9204L470.872 81.0051L465.529 75.5347L464.636 76.45L469.978 81.9204ZM472.155 79.6912L473.049 78.7759L469.905 75.5568C468.996 74.6258 468.944 73.4476 469.787 72.5849C470.609 71.7433 471.492 71.817 472.36 72.7059L475.669 76.0933L476.562 75.1781L473.095 71.6276C471.878 70.381 470.439 70.2968 469.268 71.4961C468.456 72.3272 468.277 73.2582 468.487 74.063L468.467 74.084L467.706 73.3055L466.813 74.2208L472.155 79.6912ZM481.929 73.5749C483.378 72.0915 483.476 70.3294 482.238 69.0618L477.044 63.7439L476.15 64.6592L477.055 65.5849L477.034 65.606C476.109 65.3324 475.103 65.5218 474.347 66.295C472.991 67.6837 473.14 69.7403 474.799 71.4393L474.805 71.4446C476.474 73.1541 478.477 73.3224 479.823 71.9443C480.589 71.1605 480.825 70.1401 480.553 69.2091L480.573 69.188L481.256 69.8876C482.083 70.7345 482.068 71.8128 481.128 72.7753C480.399 73.5223 479.654 73.801 479.099 73.5801L479.032 73.5538L478.133 74.4743L478.19 74.5111C479.155 75.1423 480.609 74.9267 481.929 73.5749ZM479.227 70.9343C478.277 71.9074 476.931 71.7496 475.719 70.5083L475.714 70.503C474.527 69.288 474.363 67.8993 475.313 66.9262C476.217 66.0005 477.609 66.153 478.786 67.3575L478.791 67.3628C479.977 68.5779 480.137 70.0033 479.227 70.9343Z" fill="#2F3441"/>
<path d="M664.4 72.4244C665.951 74.013 668.058 74.2865 669.758 73.124L669.82 73.0819L668.885 72.1246L668.823 72.1562C667.523 72.8242 666.291 72.6138 665.253 71.5513C663.779 70.0417 663.994 67.8535 665.797 66.0073L665.803 66.002C667.606 64.1557 669.727 63.9401 671.206 65.455C672.249 66.5227 672.455 67.8062 671.843 69.0212L671.766 69.1738L672.701 70.1311L672.742 70.068C673.862 68.3427 673.6 66.1598 672.059 64.5818C669.994 62.4673 667.184 62.6409 664.852 65.0289L664.847 65.0342C662.515 67.4222 662.34 70.3152 664.4 72.4244ZM670.687 78.8195C672.161 80.3292 674.226 80.2555 675.931 78.5092L675.942 78.4987C677.647 76.7524 677.704 74.6431 676.229 73.1335C674.755 71.6239 672.695 71.6923 670.995 73.4333L670.985 73.4438C669.284 75.1849 669.202 77.2994 670.687 78.8195ZM671.483 78.0148C670.538 77.0469 670.64 75.6688 671.899 74.3801L671.909 74.3696C673.157 73.0914 674.508 72.9915 675.438 73.9435C676.383 74.9114 676.281 76.279 675.027 77.5624L675.017 77.5729C673.764 78.8564 672.423 78.9773 671.483 78.0148ZM674.23 82.2375L675.124 83.1527L678.268 79.9336C679.177 79.0026 680.327 78.95 681.17 79.8126C681.992 80.6542 681.92 81.5589 681.052 82.4479L677.744 85.8353L678.637 86.7506L682.105 83.2001C683.322 81.9534 683.404 80.4807 682.233 79.2814C681.422 78.4503 680.512 78.2662 679.726 78.4819L679.706 78.4608L680.466 77.6823L679.572 76.7671L674.23 82.2375ZM681.349 89.5268L682.263 90.4631L689.568 87.002L688.638 86.0499L682.766 89.0323L682.746 89.0113L685.664 83.0044L684.724 82.0418L681.349 89.5268ZM686.885 95.4064C688.051 96.6004 689.623 96.7793 690.681 96.0534L690.743 96.0113L689.865 95.1119L689.803 95.1434C689.192 95.4538 688.375 95.3117 687.697 94.6174C686.746 93.6443 686.782 92.3661 687.861 91.2195L691.709 95.1592L692.037 94.8226C693.64 93.1814 693.835 91.1616 692.376 89.6678C690.918 88.1739 688.837 88.3685 687.183 90.0623L687.178 90.0675C685.498 91.7875 685.349 93.8337 686.885 95.4064ZM691.58 90.4725C692.361 91.2721 692.448 92.3609 691.498 93.5128L688.575 90.5199C689.669 89.5994 690.805 89.6783 691.58 90.4725ZM690.249 98.6403L691.143 99.5555L694.482 96.1365C695.237 95.3633 696.187 95.3159 696.88 96.026C697.096 96.247 697.261 96.4679 697.307 96.5678L698.175 95.6789C698.113 95.5947 698.005 95.4317 697.851 95.2739C697.225 94.6321 696.357 94.5112 695.591 94.9372L695.571 94.9162L696.434 94.0325L695.591 93.1699L690.249 98.6403ZM693.664 106.029C695.112 107.513 696.833 107.613 698.071 106.345L703.265 101.027L702.371 100.112L701.467 101.038L701.446 101.017C701.713 100.07 701.528 99.039 700.773 98.2657C699.417 96.8771 697.409 97.0296 695.749 98.7286L695.744 98.7339C694.075 100.443 693.91 102.495 695.256 103.873C696.022 104.657 697.018 104.899 697.927 104.62L697.948 104.641L697.265 105.34C696.438 106.187 695.385 106.172 694.445 105.209C693.715 104.462 693.443 103.699 693.659 103.131L693.684 103.063L692.785 102.142L692.749 102.2C692.133 103.189 692.344 104.678 693.664 106.029ZM696.242 103.263C695.292 102.29 695.446 100.912 696.659 99.6702L696.664 99.6649C697.85 98.4498 699.206 98.2815 700.157 99.2546C701.061 100.18 700.912 101.606 699.736 102.81L699.73 102.816C698.544 104.031 697.152 104.194 696.242 103.263ZM705.894 101.868C706.207 102.189 706.705 102.183 707.013 101.868C707.327 101.547 707.327 101.042 707.013 100.721C706.705 100.406 706.207 100.4 705.894 100.721C705.585 101.037 705.585 101.552 705.894 101.868ZM699.2 107.806L700.094 108.722L705.436 103.251L704.543 102.336L699.2 107.806ZM701.377 110.036L702.271 110.951L705.415 107.732C706.324 106.801 707.475 106.748 708.317 107.611C709.139 108.452 709.067 109.357 708.199 110.246L704.891 113.633L705.785 114.549L709.252 110.998C710.47 109.751 710.552 108.279 709.38 107.079C708.569 106.248 707.66 106.064 706.874 106.28L706.853 106.259L707.613 105.48L706.72 104.565L701.377 110.036ZM707.35 120.044C708.799 121.528 710.52 121.627 711.758 120.36L716.951 115.042L716.057 114.127L715.153 115.052L715.133 115.031C715.4 114.085 715.215 113.054 714.46 112.28C713.104 110.892 711.095 111.044 709.436 112.743L709.431 112.749C707.761 114.458 707.597 116.51 708.943 117.888C709.708 118.671 710.705 118.913 711.614 118.635L711.635 118.656L710.951 119.355C710.124 120.202 709.071 120.186 708.131 119.224C707.402 118.477 707.13 117.714 707.345 117.146L707.371 117.078L706.472 116.157L706.436 116.215C705.82 117.204 706.03 118.692 707.35 120.044ZM709.929 117.277C708.979 116.304 709.133 114.926 710.345 113.685L710.35 113.68C711.537 112.465 712.893 112.296 713.843 113.269C714.747 114.195 714.599 115.621 713.422 116.825L713.417 116.83C712.23 118.045 710.838 118.208 709.929 117.277Z" fill="#2F3441"/>
<rect width="272.269" height="272.269" rx="9.41081" transform="matrix(0.698683 0.715432 -0.698683 0.715432 573.294 5.21177)" fill="#C6C9BC"/>
<path d="M61.5961 116.579L55.4653 110.177L57.2359 108.329C57.7229 107.82 58.2024 107.466 58.6746 107.265C59.1394 107.057 59.6078 106.984 60.08 107.046C60.5522 107.092 61.0206 107.265 61.4854 107.566C61.9502 107.851 62.4187 108.24 62.8909 108.733C63.3778 109.241 63.743 109.731 63.9864 110.201C64.2299 110.655 64.3885 111.083 64.4623 111.483C64.5361 111.884 64.5398 112.257 64.4734 112.604C64.4143 112.943 64.3221 113.255 64.1967 113.54C64.0639 113.818 63.92 114.06 63.7651 114.268C63.6028 114.468 63.4626 114.63 63.3446 114.754L61.5961 116.579ZM53.5287 110.351L61.4301 118.602L64.1414 115.77C64.798 115.085 65.2738 114.395 65.5689 113.702C65.864 113.009 65.9931 112.319 65.9563 111.633C65.912 110.94 65.7091 110.251 65.3476 109.565C64.9787 108.872 64.4623 108.178 63.7983 107.485C62.5294 106.16 61.2567 105.517 59.9804 105.555C58.7041 105.594 57.4573 106.249 56.24 107.52L53.5287 110.351ZM63.3754 102.472L62.2245 101.271L61.2838 102.253L62.4347 103.455L63.3754 102.472ZM63.4639 104.529L69.1852 110.504L70.1259 109.521L64.4045 103.547L63.4639 104.529ZM74.2244 105.242L70.5946 97.0832L69.6097 98.1116L72.819 104.722L72.7968 104.745L66.4226 101.44L65.3713 102.537L73.2174 106.293L74.2244 105.242ZM77.8064 94.3829L74.5196 97.8149C74.3131 97.5684 74.1545 97.3026 74.0438 97.0176C73.9258 96.7248 73.863 96.4282 73.8557 96.1278C73.8483 95.8273 73.8999 95.5346 74.0106 95.2495C74.1213 94.9491 74.2983 94.6717 74.5418 94.4175C74.7779 94.171 75.0361 93.9938 75.3164 93.886C75.5968 93.7627 75.8808 93.7049 76.1685 93.7126C76.4563 93.7049 76.7403 93.7627 77.0207 93.886C77.3084 94.0015 77.5703 94.1671 77.8064 94.3829ZM80.3074 95.0993L79.3778 96.07C79.6729 96.5476 79.7836 97.0176 79.7098 97.4798C79.6434 97.9343 79.411 98.3696 79.0126 98.7856C78.7027 99.1091 78.3818 99.3364 78.0498 99.4674C77.7178 99.5983 77.3932 99.6523 77.076 99.6292C76.7514 99.5983 76.4452 99.502 76.1575 99.3403C75.8624 99.1708 75.5931 98.9512 75.3496 98.6816L79.6323 94.2095C79.3003 93.832 78.9019 93.4854 78.4372 93.1695C77.9797 92.8459 77.4854 92.6225 76.9543 92.4993C76.4304 92.3683 75.8956 92.3722 75.3496 92.5108C74.8037 92.6341 74.2762 92.9615 73.7671 93.4931C73.3761 93.9014 73.0884 94.3559 72.904 94.8566C72.7269 95.3497 72.6494 95.862 72.6716 96.3936C72.7011 96.9174 72.8302 97.4374 73.0589 97.9536C73.2876 98.4697 73.6196 98.9551 74.0549 99.4096C74.5049 99.8487 74.9697 100.203 75.4492 100.473C75.9361 100.735 76.4268 100.885 76.9211 100.923C77.4154 100.962 77.9023 100.885 78.3818 100.692C78.8687 100.492 79.3409 100.153 79.7983 99.6754C80.4475 98.9974 80.8238 98.2656 80.9271 97.4798C81.0304 96.694 80.8238 95.9005 80.3074 95.0993ZM77.4942 89.8786L83.2155 95.8529L84.1561 94.8706L81.6109 92.2128C81.242 91.8276 80.9543 91.4501 80.7477 91.0804C80.5337 90.7029 80.4083 90.3254 80.3714 89.9479C80.3345 89.5704 80.3973 89.1891 80.5596 88.8039C80.7219 88.4187 80.9912 88.0296 81.3674 87.6368L80.3714 86.5967C79.8476 87.1129 79.5304 87.6599 79.4197 88.2376C79.3091 88.8154 79.3718 89.4664 79.6079 90.1906L79.5857 90.2137L78.3795 88.9541L77.4942 89.8786ZM91.132 86.5694L85.8976 81.1035L85.0123 82.028L85.8312 82.8831L85.8202 82.8947C85.3332 82.7406 84.8611 82.7406 84.4037 82.8947C83.9389 83.041 83.5257 83.303 83.1642 83.6804C82.6699 84.1966 82.349 84.732 82.2015 85.2867C82.0465 85.8337 82.0133 86.3691 82.1019 86.8929C82.183 87.4091 82.3601 87.9021 82.633 88.3721C82.8986 88.8343 83.2011 89.2426 83.5405 89.597C83.9315 90.0053 84.3557 90.3404 84.8131 90.6023C85.2705 90.8489 85.739 90.9991 86.2186 91.053C86.6907 91.0992 87.1629 91.0376 87.6351 90.8681C88.1072 90.6986 88.5573 90.3905 88.9852 89.9437C89.354 89.5585 89.6196 89.1116 89.7819 88.6032C89.9442 88.0793 89.9295 87.5478 89.7377 87.0085L89.7598 86.9854L90.1361 87.3783C90.4533 87.7095 90.7115 88.0485 90.9107 88.3952C91.1173 88.7342 91.2427 89.0731 91.287 89.4121C91.3386 89.7588 91.3091 90.0977 91.1984 90.429C91.0951 90.768 90.8886 91.0992 90.5787 91.4228C90.4238 91.5846 90.243 91.7348 90.0365 91.8735C89.8373 92.0198 89.627 92.1315 89.4057 92.2086C89.1917 92.2779 88.9741 92.3049 88.7528 92.2895C88.5388 92.2664 88.3433 92.1701 88.1662 92.0006L87.2256 92.9828C87.5502 93.291 87.8933 93.4797 88.2548 93.549C88.6163 93.6184 88.9741 93.6068 89.3282 93.5144C89.6897 93.4142 90.0365 93.2524 90.3685 93.029C90.7078 92.7979 91.0103 92.5437 91.2759 92.2664C92.1907 91.3111 92.6297 90.3674 92.5928 89.4352C92.5559 88.503 92.069 87.5478 91.132 86.5694ZM88.2216 89.0308C87.9117 89.3543 87.5908 89.5585 87.2588 89.6432C86.9194 89.7202 86.5837 89.7164 86.2518 89.6316C85.9124 89.5392 85.5878 89.3851 85.2779 89.1694C84.9681 88.9537 84.684 88.711 84.4258 88.4414C84.1528 88.1564 83.9204 87.8521 83.7286 87.5285C83.5442 87.1972 83.4224 86.8621 83.3634 86.5232C83.3118 86.1765 83.3376 85.8337 83.4409 85.4947C83.5368 85.148 83.736 84.8168 84.0385 84.5009C84.3336 84.1928 84.6434 83.9925 84.9681 83.9C85.2927 83.8076 85.6173 83.7999 85.9419 83.8769C86.2665 83.9385 86.5801 84.0656 86.8825 84.2582C87.185 84.4508 87.4617 84.6781 87.7125 84.94C87.9781 85.2174 88.2105 85.5294 88.4097 85.876C88.6163 86.215 88.7601 86.5655 88.8413 86.9276C88.9151 87.282 88.9077 87.6441 88.8192 88.0138C88.7306 88.3682 88.5314 88.7072 88.2216 89.0308ZM87.3462 77.4415L86.1953 76.2397L85.2547 77.222L86.4056 78.4238L87.3462 77.4415ZM87.4347 79.4985L93.1561 85.4728L94.0967 84.4905L88.3754 78.5162L87.4347 79.4985ZM89.8954 76.9289L95.6168 82.9032L96.5574 81.921L93.326 78.5467C93.0678 78.2771 92.8649 77.9959 92.7174 77.7032C92.5698 77.395 92.485 77.083 92.4628 76.7672C92.4407 76.4513 92.4887 76.1393 92.6067 75.8311C92.7321 75.5153 92.9387 75.2071 93.2264 74.9067C93.5879 74.5292 93.9753 74.3404 94.3884 74.3404C94.8015 74.3404 95.1852 74.5253 95.5393 74.8951L99.4125 78.9396L100.353 77.9574L96.5906 74.0284C96.2808 73.7049 95.9672 73.4468 95.65 73.2542C95.3327 73.0462 95.0044 72.9268 94.6651 72.896C94.3257 72.8652 93.9789 72.9268 93.6248 73.0809C93.2707 73.2349 92.9055 73.5084 92.5292 73.9013C91.6808 74.7873 91.4079 75.7965 91.7103 76.9289L91.6882 76.952L90.7808 76.0045L89.8954 76.9289ZM106.278 70.7542L101.043 65.2883L100.158 66.2128L100.977 67.0679L100.966 67.0795C100.479 66.9254 100.007 66.9254 99.5491 67.0795C99.0844 67.2259 98.6712 67.4878 98.3097 67.8653C97.8154 68.3814 97.4945 68.9168 97.3469 69.4715C97.192 70.0185 97.1588 70.5539 97.2473 71.0778C97.3285 71.5939 97.5056 72.087 97.7785 72.5569C98.0441 73.0191 98.3466 73.4274 98.686 73.7818C99.077 74.1901 99.5012 74.5252 99.9586 74.7871C100.416 75.0337 100.884 75.1839 101.364 75.2378C101.836 75.284 102.308 75.2224 102.781 75.0529C103.253 74.8834 103.703 74.5753 104.131 74.1285C104.5 73.7433 104.765 73.2965 104.927 72.788C105.09 72.2641 105.075 71.7326 104.883 71.1933L104.905 71.1702L105.282 71.5631C105.599 71.8944 105.857 72.2333 106.056 72.58C106.263 72.919 106.388 73.2579 106.432 73.5969C106.484 73.9436 106.455 74.2825 106.344 74.6138C106.241 74.9528 106.034 75.284 105.724 75.6076C105.569 75.7694 105.389 75.9196 105.182 76.0583C104.983 76.2047 104.772 76.3164 104.551 76.3934C104.337 76.4627 104.12 76.4897 103.898 76.4743C103.684 76.4512 103.489 76.3549 103.312 76.1854L102.371 77.1676C102.696 77.4758 103.039 77.6645 103.4 77.7339C103.762 77.8032 104.12 77.7916 104.474 77.6992C104.835 77.599 105.182 77.4373 105.514 77.2139C105.853 76.9827 106.156 76.7285 106.421 76.4512C107.336 75.4959 107.775 74.5522 107.738 73.62C107.701 72.6879 107.214 71.7326 106.278 70.7542ZM103.367 73.2156C103.057 73.5391 102.736 73.7433 102.404 73.828C102.065 73.9051 101.729 73.9012 101.397 73.8165C101.058 73.724 100.733 73.5699 100.423 73.3542C100.114 73.1385 99.8295 72.8959 99.5713 72.6262C99.2983 72.3412 99.0659 72.0369 98.8741 71.7133C98.6897 71.3821 98.5679 71.0469 98.5089 70.708C98.4573 70.3613 98.4831 70.0185 98.5864 69.6795C98.6823 69.3328 98.8815 69.0016 99.184 68.6857C99.4791 68.3776 99.7889 68.1773 100.114 68.0848C100.438 67.9924 100.763 67.9847 101.087 68.0617C101.412 68.1233 101.726 68.2505 102.028 68.4431C102.331 68.6356 102.607 68.8629 102.858 69.1248C103.124 69.4022 103.356 69.7142 103.555 70.0609C103.762 70.3998 103.906 70.7503 103.987 71.1124C104.061 71.4668 104.053 71.8289 103.965 72.1987C103.876 72.553 103.677 72.892 103.367 73.2156Z" fill="#2F3441"/>
<path d="M285.472 65.3451L286.524 66.4429C286.885 65.9421 287.129 65.426 287.254 64.8944C287.387 64.3551 287.416 63.8236 287.342 63.2997C287.269 62.7758 287.103 62.2635 286.844 61.7628C286.586 61.262 286.251 60.796 285.837 60.3645C285.232 59.7328 284.583 59.286 283.89 59.0241C283.211 58.7621 282.525 58.662 281.831 58.7236C281.145 58.793 280.467 59.0087 279.795 59.3708C279.131 59.7251 278.511 60.2028 277.936 60.8037C277.361 61.4046 276.896 62.044 276.542 62.7219C276.195 63.4076 275.988 64.1009 275.922 64.8019C275.856 65.503 275.944 66.204 276.188 66.9051C276.438 67.5984 276.87 68.2648 277.482 68.9042C278.493 69.9597 279.566 70.5028 280.703 70.5336C281.839 70.5644 282.956 70.1137 284.056 69.1816L283.004 68.0838C282.658 68.3996 282.289 68.6461 281.898 68.8233C281.507 69.0005 281.108 69.093 280.703 69.1007C280.312 69.1084 279.921 69.0313 279.53 68.8696C279.153 68.7078 278.792 68.4458 278.445 68.0838C277.973 67.5907 277.656 67.0746 277.493 66.5353C277.331 65.996 277.287 65.4568 277.361 64.9175C277.449 64.3782 277.641 63.8467 277.936 63.3228C278.239 62.7912 278.615 62.2905 279.065 61.8206C279.478 61.3892 279.928 61.0271 280.415 60.7343C280.902 60.4416 281.4 60.2528 281.909 60.1681C282.433 60.0834 282.949 60.1219 283.458 60.2837C283.975 60.4531 284.469 60.7844 284.941 61.2774C285.494 61.8552 285.83 62.4985 285.948 63.2073C286.074 63.9237 285.915 64.6363 285.472 65.3451ZM285.83 71.2889C286.177 70.9268 286.528 70.6533 286.882 70.4684C287.251 70.2835 287.608 70.1795 287.955 70.1564C288.302 70.1333 288.63 70.1834 288.94 70.3066C289.257 70.4376 289.538 70.6302 289.781 70.8844C290.025 71.1386 290.205 71.4275 290.323 71.7511C290.449 72.0823 290.5 72.429 290.478 72.7911C290.456 73.1532 290.353 73.523 290.168 73.9005C289.999 74.2779 289.74 74.6477 289.394 75.0098C289.047 75.3719 288.689 75.6454 288.32 75.8303C287.966 76.0151 287.616 76.1192 287.269 76.1423C286.93 76.1577 286.601 76.0999 286.284 75.9689C285.974 75.8457 285.698 75.6569 285.454 75.4027C285.211 75.1485 285.026 74.8557 284.901 74.5245C284.783 74.2009 284.731 73.8619 284.746 73.5076C284.768 73.1455 284.864 72.7757 285.034 72.3982C285.218 72.0207 285.484 71.6509 285.83 71.2889ZM284.834 70.2488C284.414 70.688 284.082 71.1579 283.838 71.6586C283.595 72.1594 283.455 72.6755 283.418 73.2071C283.388 73.731 283.47 74.2548 283.661 74.7787C283.861 75.2948 284.185 75.7879 284.635 76.2578C285.093 76.7355 285.565 77.0744 286.052 77.2747C286.553 77.475 287.055 77.5598 287.557 77.529C288.066 77.4904 288.56 77.3441 289.04 77.0898C289.519 76.8356 289.969 76.4889 290.39 76.0498C290.81 75.6107 291.142 75.1408 291.386 74.64C291.637 74.1316 291.777 73.6154 291.806 73.0916C291.843 72.56 291.766 72.0323 291.574 71.5084C291.389 70.9923 291.068 70.4954 290.611 70.0177C290.161 69.5478 289.685 69.2127 289.183 69.0124C288.682 68.8121 288.176 68.7312 287.667 68.7697C287.166 68.8005 286.671 68.9469 286.184 69.2088C285.705 69.4631 285.255 69.8097 284.834 70.2488ZM294.428 74.2806L288.706 80.2549L289.647 81.2372L292.879 77.8629C293.137 77.5933 293.406 77.3814 293.686 77.2273C293.981 77.0733 294.28 76.9847 294.583 76.9615C294.885 76.9384 295.184 76.9885 295.479 77.1118C295.782 77.2427 296.077 77.4584 296.364 77.7589C296.726 78.1364 296.907 78.5408 296.907 78.9722C296.907 79.4037 296.73 79.8043 296.375 80.174L292.502 84.2185L293.443 85.2008L297.205 81.2718C297.515 80.9483 297.762 80.6209 297.947 80.2896C298.146 79.9583 298.26 79.6155 298.29 79.2611C298.319 78.9068 298.26 78.5447 298.113 78.1749C297.965 77.8051 297.703 77.4238 297.327 77.0309C296.479 76.1449 295.512 75.8599 294.428 76.1758L294.406 76.1526L295.313 75.2051L294.428 74.2806ZM297.497 89.4341L305.31 85.6439L304.325 84.6154L297.995 87.9666L297.973 87.9435L301.138 81.2874L300.087 80.1896L296.49 88.3826L297.497 89.4341ZM307.896 93.1745L304.609 89.7424C304.845 89.5267 305.1 89.3611 305.373 89.2455C305.653 89.1223 305.937 89.0568 306.225 89.0491C306.513 89.0414 306.793 89.0953 307.066 89.2109C307.354 89.3264 307.619 89.5113 307.863 89.7656C308.099 90.0121 308.268 90.2817 308.372 90.5745C308.49 90.8672 308.545 91.1638 308.538 91.4642C308.545 91.7647 308.49 92.0613 308.372 92.354C308.261 92.6545 308.102 92.928 307.896 93.1745ZM307.21 95.7861L306.28 94.8154C305.823 95.1236 305.373 95.2391 304.93 95.1621C304.495 95.0927 304.078 94.8501 303.68 94.4341C303.37 94.1105 303.152 93.7754 303.027 93.4287C302.901 93.082 302.85 92.7431 302.872 92.4118C302.901 92.0728 302.993 91.7531 303.148 91.4527C303.311 91.1445 303.521 90.8633 303.779 90.6091L308.062 95.0812C308.423 94.7345 308.755 94.3185 309.058 93.8332C309.368 93.3555 309.582 92.8394 309.7 92.2847C309.825 91.7377 309.821 91.1792 309.689 90.6091C309.571 90.039 309.257 89.4882 308.748 88.9567C308.357 88.5484 307.922 88.2479 307.442 88.0553C306.97 87.8704 306.479 87.7895 305.97 87.8126C305.469 87.8435 304.971 87.9783 304.476 88.2171C303.982 88.4559 303.517 88.8026 303.082 89.2571C302.661 89.727 302.322 90.2124 302.064 90.7131C301.813 91.2216 301.669 91.7339 301.632 92.25C301.595 92.7662 301.669 93.2746 301.854 93.7754C302.045 94.2838 302.37 94.7769 302.827 95.2545C303.477 95.9325 304.178 96.3254 304.93 96.4332C305.683 96.5411 306.442 96.3254 307.21 95.7861ZM312.209 92.8485L306.488 98.8228L307.429 99.805L309.974 97.1472C310.343 96.762 310.704 96.4616 311.059 96.2459C311.42 96.0225 311.782 95.8915 312.143 95.853C312.505 95.8145 312.87 95.8799 313.239 96.0494C313.607 96.2189 313.98 96.5001 314.356 96.893L315.352 95.853C314.858 95.306 314.334 94.9748 313.781 94.8592C313.228 94.7436 312.604 94.8091 311.911 95.0556L311.888 95.0325L313.095 93.773L312.209 92.8485ZM315.378 107.089L320.613 101.624L319.728 100.699L318.909 101.554L318.898 101.543C319.045 101.034 319.045 100.541 318.898 100.064C318.757 99.5782 318.507 99.1468 318.145 98.7693C317.651 98.2531 317.138 97.918 316.607 97.7639C316.083 97.6021 315.57 97.5675 315.069 97.6599C314.574 97.7447 314.102 97.9296 313.652 98.2146C313.209 98.4919 312.818 98.8078 312.479 99.1622C312.088 99.5705 311.767 100.013 311.516 100.491C311.28 100.969 311.136 101.458 311.085 101.959C311.04 102.452 311.099 102.945 311.262 103.438C311.424 103.931 311.719 104.401 312.147 104.848C312.516 105.233 312.944 105.51 313.431 105.68C313.932 105.849 314.442 105.834 314.958 105.633L314.98 105.656L314.604 106.049C314.287 106.381 313.962 106.65 313.63 106.858C313.305 107.074 312.981 107.205 312.656 107.251C312.324 107.305 312 107.274 311.682 107.159C311.358 107.051 311.04 106.835 310.731 106.512C310.576 106.35 310.432 106.161 310.299 105.945C310.159 105.737 310.052 105.518 309.978 105.287C309.912 105.063 309.886 104.836 309.901 104.605C309.923 104.381 310.015 104.177 310.177 103.992L309.237 103.01C308.942 103.349 308.761 103.707 308.694 104.085C308.628 104.462 308.639 104.836 308.728 105.206C308.823 105.583 308.978 105.945 309.192 106.292C309.414 106.646 309.657 106.962 309.923 107.24C310.838 108.195 311.741 108.653 312.634 108.615C313.527 108.576 314.442 108.068 315.378 107.089ZM313.021 104.05C312.711 103.727 312.516 103.392 312.435 103.045C312.361 102.691 312.365 102.34 312.446 101.993C312.534 101.639 312.682 101.3 312.889 100.976C313.095 100.653 313.327 100.356 313.586 100.087C313.859 99.8016 314.15 99.5589 314.46 99.3586C314.777 99.166 315.098 99.0389 315.423 98.9773C315.755 98.9233 316.083 98.9503 316.408 99.0582C316.74 99.1583 317.057 99.3663 317.359 99.6822C317.654 99.9903 317.846 100.314 317.935 100.653C318.023 100.992 318.031 101.331 317.957 101.67C317.898 102.009 317.776 102.336 317.592 102.652C317.407 102.968 317.19 103.257 316.939 103.519C316.673 103.796 316.374 104.039 316.042 104.247C315.718 104.462 315.382 104.613 315.035 104.697C314.696 104.774 314.349 104.767 313.995 104.674C313.656 104.582 313.331 104.374 313.021 104.05ZM324.12 103.136L325.271 101.934L324.33 100.952L323.179 102.154L324.12 103.136ZM322.15 103.229L316.429 109.203L317.369 110.185L323.091 104.211L322.15 103.229ZM324.611 105.798L318.889 111.772L319.83 112.755L323.061 109.38C323.32 109.111 323.589 108.899 323.869 108.745C324.164 108.591 324.463 108.502 324.766 108.479C325.068 108.456 325.367 108.506 325.662 108.629C325.964 108.76 326.26 108.976 326.547 109.276C326.909 109.654 327.09 110.058 327.09 110.49C327.09 110.921 326.913 111.322 326.558 111.692L322.685 115.736L323.626 116.718L327.388 112.789C327.698 112.466 327.945 112.138 328.13 111.807C328.329 111.476 328.443 111.133 328.473 110.779C328.502 110.424 328.443 110.062 328.296 109.692C328.148 109.323 327.886 108.941 327.51 108.548C326.662 107.662 325.695 107.377 324.611 107.693L324.589 107.67L325.496 106.723L324.611 105.798ZM330.524 122.905L335.758 117.439L334.873 116.514L334.054 117.369L334.043 117.358C334.191 116.849 334.191 116.356 334.043 115.879C333.903 115.393 333.652 114.962 333.291 114.584C332.796 114.068 332.284 113.733 331.752 113.579C331.229 113.417 330.716 113.383 330.214 113.475C329.72 113.56 329.248 113.745 328.798 114.03C328.355 114.307 327.964 114.623 327.625 114.977C327.234 115.386 326.913 115.829 326.662 116.306C326.426 116.784 326.282 117.273 326.23 117.774C326.186 118.267 326.245 118.76 326.407 119.253C326.57 119.746 326.865 120.216 327.293 120.663C327.661 121.048 328.089 121.325 328.576 121.495C329.078 121.664 329.587 121.649 330.103 121.449L330.126 121.472L329.749 121.865C329.432 122.196 329.107 122.465 328.775 122.673C328.451 122.889 328.126 123.02 327.802 123.066C327.47 123.12 327.145 123.089 326.828 122.974C326.503 122.866 326.186 122.65 325.876 122.327C325.721 122.165 325.577 121.976 325.444 121.761C325.304 121.553 325.197 121.333 325.124 121.102C325.057 120.878 325.031 120.651 325.046 120.42C325.068 120.197 325.16 119.993 325.323 119.808L324.382 118.825C324.087 119.164 323.906 119.523 323.84 119.9C323.773 120.278 323.785 120.651 323.873 121.021C323.969 121.398 324.124 121.761 324.338 122.107C324.559 122.462 324.803 122.777 325.068 123.055C325.983 124.01 326.887 124.468 327.779 124.43C328.672 124.391 329.587 123.883 330.524 122.905ZM328.167 119.865C327.857 119.542 327.661 119.207 327.58 118.86C327.507 118.506 327.51 118.155 327.591 117.808C327.68 117.454 327.827 117.115 328.034 116.792C328.241 116.468 328.473 116.171 328.731 115.902C329.004 115.617 329.296 115.374 329.605 115.174C329.923 114.981 330.244 114.854 330.568 114.792C330.9 114.739 331.229 114.765 331.553 114.873C331.885 114.973 332.202 115.181 332.505 115.497C332.8 115.806 332.992 116.129 333.08 116.468C333.169 116.807 333.176 117.146 333.102 117.485C333.043 117.824 332.922 118.151 332.737 118.467C332.553 118.783 332.335 119.072 332.084 119.334C331.819 119.611 331.52 119.854 331.188 120.062C330.863 120.278 330.528 120.428 330.181 120.513C329.842 120.59 329.495 120.582 329.141 120.489C328.801 120.397 328.477 120.189 328.167 119.865Z" fill="#2F3441"/>
<rect width="276.921" height="276.921" rx="9.79751" transform="matrix(0.69165 0.722233 -0.69165 0.722233 191.532 0)" fill="#E16639" fill-opacity="0.53"/>
<path opacity="0.5" d="M60.616 225.744V222.528H63.368C63.944 222.528 64.376 222.656 64.664 222.912C64.952 223.157 65.096 223.557 65.096 224.112C65.096 224.688 64.952 225.104 64.664 225.36C64.376 225.616 63.944 225.744 63.368 225.744H60.616ZM58.104 220.576V232H60.616V227.536H63.128C63.7573 227.536 64.2107 227.675 64.488 227.952C64.7653 228.229 64.9467 228.667 65.032 229.264C65.096 229.723 65.144 230.203 65.176 230.704C65.208 231.205 65.2933 231.637 65.432 232H67.944C67.8267 231.84 67.736 231.648 67.672 231.424C67.6187 231.189 67.576 230.944 67.544 230.688C67.5227 230.432 67.5067 230.181 67.496 229.936C67.4853 229.691 67.4747 229.477 67.464 229.296C67.4427 229.008 67.4 228.72 67.336 228.432C67.2827 228.144 67.192 227.883 67.064 227.648C66.936 227.403 66.7707 227.195 66.568 227.024C66.3653 226.843 66.1093 226.709 65.8 226.624V226.592C66.44 226.336 66.8987 225.963 67.176 225.472C67.464 224.981 67.608 224.4 67.608 223.728C67.608 223.291 67.528 222.885 67.368 222.512C67.2187 222.128 66.9947 221.792 66.696 221.504C66.408 221.216 66.056 220.992 65.64 220.832C65.2347 220.661 64.776 220.576 64.264 220.576H58.104ZM75.0662 226.976H71.3702C71.3808 226.816 71.4128 226.635 71.4662 226.432C71.5302 226.229 71.6315 226.037 71.7702 225.856C71.9195 225.675 72.1115 225.525 72.3462 225.408C72.5915 225.28 72.8955 225.216 73.2582 225.216C73.8128 225.216 74.2235 225.365 74.4902 225.664C74.7675 225.963 74.9595 226.4 75.0662 226.976ZM71.3702 228.416H77.3382C77.3808 227.776 77.3275 227.163 77.1782 226.576C77.0288 225.989 76.7835 225.467 76.4422 225.008C76.1115 224.549 75.6848 224.187 75.1622 223.92C74.6395 223.643 74.0262 223.504 73.3222 223.504C72.6928 223.504 72.1168 223.616 71.5942 223.84C71.0822 224.064 70.6395 224.373 70.2662 224.768C69.8928 225.152 69.6048 225.611 69.4022 226.144C69.1995 226.677 69.0982 227.253 69.0982 227.872C69.0982 228.512 69.1942 229.099 69.3862 229.632C69.5888 230.165 69.8715 230.624 70.2342 231.008C70.5968 231.392 71.0395 231.691 71.5622 231.904C72.0848 232.107 72.6715 232.208 73.3222 232.208C74.2608 232.208 75.0608 231.995 75.7222 231.568C76.3835 231.141 76.8742 230.432 77.1942 229.44H75.1942C75.1195 229.696 74.9168 229.941 74.5862 230.176C74.2555 230.4 73.8608 230.512 73.4022 230.512C72.7622 230.512 72.2715 230.347 71.9302 230.016C71.5888 229.685 71.4022 229.152 71.3702 228.416ZM80.5329 229.312H78.3729C78.3943 229.867 78.5169 230.331 78.7409 230.704C78.9756 231.067 79.2689 231.36 79.6209 231.584C79.9836 231.808 80.3943 231.968 80.8529 232.064C81.3116 232.16 81.7809 232.208 82.2609 232.208C82.7303 232.208 83.1889 232.16 83.6369 232.064C84.0956 231.979 84.5009 231.824 84.8529 231.6C85.2049 231.376 85.4876 231.083 85.7009 230.72C85.9249 230.347 86.0369 229.888 86.0369 229.344C86.0369 228.96 85.9623 228.64 85.8129 228.384C85.6636 228.117 85.4663 227.899 85.2209 227.728C84.9756 227.547 84.6929 227.403 84.3729 227.296C84.0636 227.189 83.7436 227.099 83.4129 227.024C83.0929 226.949 82.7783 226.88 82.4689 226.816C82.1596 226.752 81.8823 226.683 81.6369 226.608C81.4023 226.523 81.2103 226.416 81.0609 226.288C80.9116 226.16 80.8369 225.995 80.8369 225.792C80.8369 225.621 80.8796 225.488 80.9649 225.392C81.0503 225.285 81.1516 225.205 81.2689 225.152C81.3969 225.099 81.5356 225.067 81.6849 225.056C81.8343 225.035 81.9729 225.024 82.1009 225.024C82.5063 225.024 82.8583 225.104 83.1569 225.264C83.4556 225.413 83.6209 225.707 83.6529 226.144H85.8129C85.7703 225.632 85.6369 225.211 85.4129 224.88C85.1996 224.539 84.9276 224.267 84.5969 224.064C84.2663 223.861 83.8876 223.717 83.4609 223.632C83.0449 223.547 82.6129 223.504 82.1649 223.504C81.7169 223.504 81.2796 223.547 80.8529 223.632C80.4263 223.707 80.0423 223.845 79.7009 224.048C79.3596 224.24 79.0823 224.507 78.8689 224.848C78.6663 225.189 78.5649 225.627 78.5649 226.16C78.5649 226.523 78.6396 226.832 78.7889 227.088C78.9383 227.333 79.1356 227.541 79.3809 227.712C79.6263 227.872 79.9036 228.005 80.2129 228.112C80.5329 228.208 80.8583 228.293 81.1889 228.368C81.9996 228.539 82.6289 228.709 83.0769 228.88C83.5356 229.051 83.7649 229.307 83.7649 229.648C83.7649 229.851 83.7169 230.021 83.6209 230.16C83.5249 230.288 83.4023 230.395 83.2529 230.48C83.1143 230.555 82.9543 230.613 82.7729 230.656C82.6023 230.688 82.4369 230.704 82.2769 230.704C82.0529 230.704 81.8343 230.677 81.6209 230.624C81.4183 230.571 81.2369 230.491 81.0769 230.384C80.9169 230.267 80.7836 230.123 80.6769 229.952C80.5809 229.771 80.5329 229.557 80.5329 229.312ZM93.022 226.976H89.326C89.3366 226.816 89.3686 226.635 89.422 226.432C89.486 226.229 89.5873 226.037 89.726 225.856C89.8753 225.675 90.0673 225.525 90.302 225.408C90.5473 225.28 90.8513 225.216 91.214 225.216C91.7686 225.216 92.1793 225.365 92.446 225.664C92.7233 225.963 92.9153 226.4 93.022 226.976ZM89.326 228.416H95.294C95.3366 227.776 95.2833 227.163 95.134 226.576C94.9846 225.989 94.7393 225.467 94.398 225.008C94.0673 224.549 93.6406 224.187 93.118 223.92C92.5953 223.643 91.982 223.504 91.278 223.504C90.6486 223.504 90.0726 223.616 89.55 223.84C89.038 224.064 88.5953 224.373 88.222 224.768C87.8486 225.152 87.5606 225.611 87.358 226.144C87.1553 226.677 87.054 227.253 87.054 227.872C87.054 228.512 87.15 229.099 87.342 229.632C87.5446 230.165 87.8273 230.624 88.19 231.008C88.5526 231.392 88.9953 231.691 89.518 231.904C90.0406 232.107 90.6273 232.208 91.278 232.208C92.2166 232.208 93.0166 231.995 93.678 231.568C94.3393 231.141 94.83 230.432 95.15 229.44H93.15C93.0753 229.696 92.8726 229.941 92.542 230.176C92.2113 230.4 91.8166 230.512 91.358 230.512C90.718 230.512 90.2273 230.347 89.886 230.016C89.5446 229.685 89.358 229.152 89.326 228.416ZM96.6328 226.272C96.6648 225.739 96.7981 225.296 97.0328 224.944C97.2674 224.592 97.5661 224.309 97.9288 224.096C98.2914 223.883 98.6968 223.733 99.1448 223.648C99.6034 223.552 100.062 223.504 100.521 223.504C100.937 223.504 101.358 223.536 101.785 223.6C102.211 223.653 102.601 223.765 102.953 223.936C103.305 224.107 103.593 224.347 103.817 224.656C104.041 224.955 104.153 225.355 104.153 225.856V230.16C104.153 230.533 104.174 230.891 104.217 231.232C104.259 231.573 104.334 231.829 104.441 232H102.137C102.094 231.872 102.057 231.744 102.025 231.616C102.003 231.477 101.987 231.339 101.977 231.2C101.614 231.573 101.187 231.835 100.697 231.984C100.206 232.133 99.7048 232.208 99.1928 232.208C98.7981 232.208 98.4301 232.16 98.0888 232.064C97.7474 231.968 97.4488 231.819 97.1928 231.616C96.9368 231.413 96.7341 231.157 96.5848 230.848C96.4461 230.539 96.3768 230.171 96.3768 229.744C96.3768 229.275 96.4568 228.891 96.6168 228.592C96.7874 228.283 97.0008 228.037 97.2568 227.856C97.5234 227.675 97.8221 227.541 98.1528 227.456C98.4941 227.36 98.8354 227.285 99.1768 227.232C99.5181 227.179 99.8541 227.136 100.185 227.104C100.515 227.072 100.809 227.024 101.065 226.96C101.321 226.896 101.523 226.805 101.673 226.688C101.822 226.56 101.891 226.379 101.881 226.144C101.881 225.899 101.838 225.707 101.753 225.568C101.678 225.419 101.571 225.307 101.433 225.232C101.305 225.147 101.15 225.093 100.969 225.072C100.798 225.04 100.611 225.024 100.409 225.024C99.9608 225.024 99.6088 225.12 99.3528 225.312C99.0968 225.504 98.9474 225.824 98.9048 226.272H96.6328ZM101.881 227.952C101.785 228.037 101.662 228.107 101.513 228.16C101.374 228.203 101.219 228.24 101.049 228.272C100.889 228.304 100.718 228.331 100.537 228.352C100.355 228.373 100.174 228.4 99.9928 228.432C99.8221 228.464 99.6514 228.507 99.4808 228.56C99.3208 228.613 99.1768 228.688 99.0488 228.784C98.9314 228.869 98.8354 228.981 98.7608 229.12C98.6861 229.259 98.6488 229.435 98.6488 229.648C98.6488 229.851 98.6861 230.021 98.7608 230.16C98.8354 230.299 98.9368 230.411 99.0648 230.496C99.1928 230.571 99.3421 230.624 99.5128 230.656C99.6834 230.688 99.8594 230.704 100.041 230.704C100.489 230.704 100.835 230.629 101.081 230.48C101.326 230.331 101.507 230.155 101.625 229.952C101.742 229.739 101.811 229.525 101.833 229.312C101.865 229.099 101.881 228.928 101.881 228.8V227.952ZM106.004 223.728V232H108.276V228.272C108.276 227.899 108.313 227.552 108.388 227.232C108.462 226.912 108.585 226.635 108.756 226.4C108.937 226.155 109.172 225.963 109.46 225.824C109.748 225.685 110.1 225.616 110.516 225.616C110.654 225.616 110.798 225.627 110.948 225.648C111.097 225.659 111.225 225.675 111.332 225.696V223.584C111.15 223.531 110.985 223.504 110.836 223.504C110.548 223.504 110.27 223.547 110.004 223.632C109.737 223.717 109.486 223.84 109.252 224C109.017 224.149 108.809 224.336 108.628 224.56C108.446 224.773 108.302 225.008 108.196 225.264H108.164V223.728H106.004ZM117.66 226.64H119.884C119.852 226.107 119.724 225.648 119.5 225.264C119.276 224.869 118.983 224.544 118.62 224.288C118.268 224.021 117.863 223.824 117.404 223.696C116.956 223.568 116.487 223.504 115.996 223.504C115.324 223.504 114.727 223.616 114.204 223.84C113.682 224.064 113.239 224.379 112.876 224.784C112.514 225.179 112.236 225.653 112.044 226.208C111.863 226.752 111.772 227.344 111.772 227.984C111.772 228.603 111.874 229.173 112.076 229.696C112.279 230.208 112.562 230.651 112.924 231.024C113.287 231.397 113.724 231.691 114.236 231.904C114.759 232.107 115.33 232.208 115.948 232.208C117.047 232.208 117.948 231.92 118.652 231.344C119.356 230.768 119.783 229.931 119.932 228.832H117.74C117.666 229.344 117.479 229.755 117.18 230.064C116.892 230.363 116.476 230.512 115.932 230.512C115.58 230.512 115.282 230.432 115.036 230.272C114.791 230.112 114.594 229.909 114.444 229.664C114.306 229.408 114.204 229.125 114.14 228.816C114.076 228.507 114.044 228.203 114.044 227.904C114.044 227.595 114.076 227.285 114.14 226.976C114.204 226.656 114.311 226.368 114.46 226.112C114.62 225.845 114.823 225.632 115.068 225.472C115.314 225.301 115.618 225.216 115.98 225.216C116.951 225.216 117.511 225.691 117.66 226.64ZM121.303 220.576V232H123.575V227.664C123.575 226.821 123.714 226.219 123.991 225.856C124.268 225.483 124.716 225.296 125.335 225.296C125.879 225.296 126.258 225.467 126.471 225.808C126.684 226.139 126.791 226.645 126.791 227.328V232H129.063V226.912C129.063 226.4 129.015 225.936 128.919 225.52C128.834 225.093 128.679 224.736 128.455 224.448C128.231 224.149 127.922 223.92 127.527 223.76C127.143 223.589 126.647 223.504 126.039 223.504C125.612 223.504 125.175 223.616 124.727 223.84C124.279 224.053 123.911 224.4 123.623 224.88H123.575V220.576H121.303Z" fill="black"/>
<path opacity="0.5" d="M216.816 228.208H214.384C214.373 228.912 214.501 229.52 214.768 230.032C215.035 230.544 215.392 230.965 215.84 231.296C216.299 231.627 216.821 231.867 217.408 232.016C218.005 232.176 218.619 232.256 219.248 232.256C220.027 232.256 220.709 232.165 221.296 231.984C221.893 231.803 222.389 231.552 222.784 231.232C223.189 230.901 223.493 230.512 223.696 230.064C223.899 229.616 224 229.131 224 228.608C224 227.968 223.861 227.445 223.584 227.04C223.317 226.624 222.997 226.293 222.624 226.048C222.251 225.803 221.872 225.627 221.488 225.52C221.115 225.403 220.821 225.323 220.608 225.28C219.893 225.099 219.312 224.949 218.864 224.832C218.427 224.715 218.08 224.597 217.824 224.48C217.579 224.363 217.413 224.235 217.328 224.096C217.243 223.957 217.2 223.776 217.2 223.552C217.2 223.307 217.253 223.104 217.36 222.944C217.467 222.784 217.6 222.651 217.76 222.544C217.931 222.437 218.117 222.363 218.32 222.32C218.523 222.277 218.725 222.256 218.928 222.256C219.237 222.256 219.52 222.283 219.776 222.336C220.043 222.389 220.277 222.48 220.48 222.608C220.683 222.736 220.843 222.912 220.96 223.136C221.088 223.36 221.163 223.643 221.184 223.984H223.616C223.616 223.323 223.488 222.763 223.232 222.304C222.987 221.835 222.651 221.451 222.224 221.152C221.797 220.853 221.307 220.64 220.752 220.512C220.208 220.373 219.637 220.304 219.04 220.304C218.528 220.304 218.016 220.373 217.504 220.512C216.992 220.651 216.533 220.864 216.128 221.152C215.723 221.44 215.392 221.803 215.136 222.24C214.891 222.667 214.768 223.173 214.768 223.76C214.768 224.283 214.864 224.731 215.056 225.104C215.259 225.467 215.52 225.771 215.84 226.016C216.16 226.261 216.523 226.464 216.928 226.624C217.333 226.773 217.749 226.901 218.176 227.008C218.592 227.125 219.003 227.232 219.408 227.328C219.813 227.424 220.176 227.536 220.496 227.664C220.816 227.792 221.072 227.952 221.264 228.144C221.467 228.336 221.568 228.587 221.568 228.896C221.568 229.184 221.493 229.424 221.344 229.616C221.195 229.797 221.008 229.941 220.784 230.048C220.56 230.155 220.32 230.229 220.064 230.272C219.808 230.304 219.568 230.32 219.344 230.32C219.013 230.32 218.693 230.283 218.384 230.208C218.075 230.123 217.803 230 217.568 229.84C217.344 229.669 217.163 229.451 217.024 229.184C216.885 228.917 216.816 228.592 216.816 228.208ZM229.422 233.024L232.878 223.728H230.526L228.718 229.392H228.686L226.814 223.728H224.398L227.294 231.488C227.358 231.648 227.39 231.819 227.39 232C227.39 232.245 227.315 232.469 227.166 232.672C227.027 232.875 226.809 232.992 226.51 233.024C226.286 233.035 226.062 233.029 225.838 233.008C225.614 232.987 225.395 232.965 225.182 232.944V234.816C225.417 234.837 225.646 234.853 225.87 234.864C226.105 234.885 226.339 234.896 226.574 234.896C227.353 234.896 227.961 234.752 228.398 234.464C228.835 234.176 229.177 233.696 229.422 233.024ZM233.726 223.728V232H235.998V227.664C235.998 226.821 236.137 226.219 236.414 225.856C236.691 225.483 237.139 225.296 237.758 225.296C238.302 225.296 238.681 225.467 238.894 225.808C239.107 226.139 239.214 226.645 239.214 227.328V232H241.486V226.912C241.486 226.4 241.438 225.936 241.342 225.52C241.257 225.093 241.102 224.736 240.878 224.448C240.654 224.149 240.345 223.92 239.95 223.76C239.566 223.589 239.07 223.504 238.462 223.504C237.982 223.504 237.513 223.616 237.054 223.84C236.595 224.053 236.222 224.4 235.934 224.88H235.886V223.728H233.726ZM246.178 223.728V221.248H243.906V223.728H242.53V225.248H243.906V230.128C243.906 230.544 243.975 230.88 244.114 231.136C244.252 231.392 244.439 231.589 244.674 231.728C244.919 231.867 245.196 231.957 245.506 232C245.826 232.053 246.162 232.08 246.514 232.08C246.738 232.08 246.967 232.075 247.202 232.064C247.436 232.053 247.65 232.032 247.842 232V230.24C247.735 230.261 247.623 230.277 247.506 230.288C247.388 230.299 247.266 230.304 247.138 230.304C246.754 230.304 246.498 230.24 246.37 230.112C246.242 229.984 246.178 229.728 246.178 229.344V225.248H247.842V223.728H246.178ZM249.01 220.576V232H251.282V227.664C251.282 226.821 251.421 226.219 251.698 225.856C251.975 225.483 252.423 225.296 253.042 225.296C253.586 225.296 253.965 225.467 254.178 225.808C254.391 226.139 254.498 226.645 254.498 227.328V232H256.77V226.912C256.77 226.4 256.722 225.936 256.626 225.52C256.541 225.093 256.386 224.736 256.162 224.448C255.938 224.149 255.629 223.92 255.234 223.76C254.85 223.589 254.354 223.504 253.746 223.504C253.319 223.504 252.882 223.616 252.434 223.84C251.986 224.053 251.618 224.4 251.33 224.88H251.282V220.576H249.01ZM264.15 226.976H260.454C260.464 226.816 260.496 226.635 260.55 226.432C260.614 226.229 260.715 226.037 260.854 225.856C261.003 225.675 261.195 225.525 261.43 225.408C261.675 225.28 261.979 225.216 262.342 225.216C262.896 225.216 263.307 225.365 263.574 225.664C263.851 225.963 264.043 226.4 264.15 226.976ZM260.454 228.416H266.422C266.464 227.776 266.411 227.163 266.262 226.576C266.112 225.989 265.867 225.467 265.526 225.008C265.195 224.549 264.768 224.187 264.246 223.92C263.723 223.643 263.11 223.504 262.406 223.504C261.776 223.504 261.2 223.616 260.678 223.84C260.166 224.064 259.723 224.373 259.35 224.768C258.976 225.152 258.688 225.611 258.486 226.144C258.283 226.677 258.182 227.253 258.182 227.872C258.182 228.512 258.278 229.099 258.47 229.632C258.672 230.165 258.955 230.624 259.318 231.008C259.68 231.392 260.123 231.691 260.646 231.904C261.168 232.107 261.755 232.208 262.406 232.208C263.344 232.208 264.144 231.995 264.806 231.568C265.467 231.141 265.958 230.432 266.278 229.44H264.278C264.203 229.696 264 229.941 263.67 230.176C263.339 230.4 262.944 230.512 262.486 230.512C261.846 230.512 261.355 230.347 261.014 230.016C260.672 229.685 260.486 229.152 260.454 228.416ZM269.616 229.312H267.456C267.478 229.867 267.6 230.331 267.824 230.704C268.059 231.067 268.352 231.36 268.704 231.584C269.067 231.808 269.478 231.968 269.936 232.064C270.395 232.16 270.864 232.208 271.344 232.208C271.814 232.208 272.272 232.16 272.72 232.064C273.179 231.979 273.584 231.824 273.936 231.6C274.288 231.376 274.571 231.083 274.784 230.72C275.008 230.347 275.12 229.888 275.12 229.344C275.12 228.96 275.046 228.64 274.896 228.384C274.747 228.117 274.55 227.899 274.304 227.728C274.059 227.547 273.776 227.403 273.456 227.296C273.147 227.189 272.827 227.099 272.496 227.024C272.176 226.949 271.862 226.88 271.552 226.816C271.243 226.752 270.966 226.683 270.72 226.608C270.486 226.523 270.294 226.416 270.144 226.288C269.995 226.16 269.92 225.995 269.92 225.792C269.92 225.621 269.963 225.488 270.048 225.392C270.134 225.285 270.235 225.205 270.352 225.152C270.48 225.099 270.619 225.067 270.768 225.056C270.918 225.035 271.056 225.024 271.184 225.024C271.59 225.024 271.942 225.104 272.24 225.264C272.539 225.413 272.704 225.707 272.736 226.144H274.896C274.854 225.632 274.72 225.211 274.496 224.88C274.283 224.539 274.011 224.267 273.68 224.064C273.35 223.861 272.971 223.717 272.544 223.632C272.128 223.547 271.696 223.504 271.248 223.504C270.8 223.504 270.363 223.547 269.936 223.632C269.51 223.707 269.126 223.845 268.784 224.048C268.443 224.24 268.166 224.507 267.952 224.848C267.75 225.189 267.648 225.627 267.648 226.16C267.648 226.523 267.723 226.832 267.872 227.088C268.022 227.333 268.219 227.541 268.464 227.712C268.71 227.872 268.987 228.005 269.296 228.112C269.616 228.208 269.942 228.293 270.272 228.368C271.083 228.539 271.712 228.709 272.16 228.88C272.619 229.051 272.848 229.307 272.848 229.648C272.848 229.851 272.8 230.021 272.704 230.16C272.608 230.288 272.486 230.395 272.336 230.48C272.198 230.555 272.038 230.613 271.856 230.656C271.686 230.688 271.52 230.704 271.36 230.704C271.136 230.704 270.918 230.677 270.704 230.624C270.502 230.571 270.32 230.491 270.16 230.384C270 230.267 269.867 230.123 269.76 229.952C269.664 229.771 269.616 229.557 269.616 229.312ZM278.873 222.448V220.576H276.601V222.448H278.873ZM276.601 223.728V232H278.873V223.728H276.601ZM282.51 229.312H280.35C280.371 229.867 280.494 230.331 280.718 230.704C280.952 231.067 281.246 231.36 281.598 231.584C281.96 231.808 282.371 231.968 282.83 232.064C283.288 232.16 283.758 232.208 284.238 232.208C284.707 232.208 285.166 232.16 285.614 232.064C286.072 231.979 286.478 231.824 286.83 231.6C287.182 231.376 287.464 231.083 287.678 230.72C287.902 230.347 288.014 229.888 288.014 229.344C288.014 228.96 287.939 228.64 287.79 228.384C287.64 228.117 287.443 227.899 287.198 227.728C286.952 227.547 286.67 227.403 286.35 227.296C286.04 227.189 285.72 227.099 285.39 227.024C285.07 226.949 284.755 226.88 284.446 226.816C284.136 226.752 283.859 226.683 283.614 226.608C283.379 226.523 283.187 226.416 283.038 226.288C282.888 226.16 282.814 225.995 282.814 225.792C282.814 225.621 282.856 225.488 282.942 225.392C283.027 225.285 283.128 225.205 283.246 225.152C283.374 225.099 283.512 225.067 283.662 225.056C283.811 225.035 283.95 225.024 284.078 225.024C284.483 225.024 284.835 225.104 285.134 225.264C285.432 225.413 285.598 225.707 285.63 226.144H287.79C287.747 225.632 287.614 225.211 287.39 224.88C287.176 224.539 286.904 224.267 286.574 224.064C286.243 223.861 285.864 223.717 285.438 223.632C285.022 223.547 284.59 223.504 284.142 223.504C283.694 223.504 283.256 223.547 282.83 223.632C282.403 223.707 282.019 223.845 281.678 224.048C281.336 224.24 281.059 224.507 280.846 224.848C280.643 225.189 280.542 225.627 280.542 226.16C280.542 226.523 280.616 226.832 280.766 227.088C280.915 227.333 281.112 227.541 281.358 227.712C281.603 227.872 281.88 228.005 282.19 228.112C282.51 228.208 282.835 228.293 283.166 228.368C283.976 228.539 284.606 228.709 285.054 228.88C285.512 229.051 285.742 229.307 285.742 229.648C285.742 229.851 285.694 230.021 285.598 230.16C285.502 230.288 285.379 230.395 285.23 230.48C285.091 230.555 284.931 230.613 284.75 230.656C284.579 230.688 284.414 230.704 284.254 230.704C284.03 230.704 283.811 230.677 283.598 230.624C283.395 230.571 283.214 230.491 283.054 230.384C282.894 230.267 282.76 230.123 282.654 229.952C282.558 229.771 282.51 229.557 282.51 229.312Z" fill="black"/>
<path d="M54.9795 179.339V170.929H57.0727C57.7953 170.929 58.3996 171.035 58.8855 171.247C59.3839 171.446 59.7826 171.739 60.0816 172.125C60.3806 172.512 60.5924 172.979 60.717 173.527C60.8541 174.063 60.9226 174.667 60.9226 175.34C60.9226 176.075 60.8292 176.698 60.6423 177.209C60.4554 177.72 60.2062 178.137 59.8947 178.461C59.5832 178.773 59.2281 178.997 58.8294 179.134C58.4307 179.271 58.0196 179.339 57.5959 179.339H54.9795ZM52.0453 168.462V181.806H57.8015C58.8232 181.806 59.7078 181.638 60.4554 181.302C61.2154 180.953 61.8446 180.479 62.343 179.881C62.8538 179.283 63.2338 178.573 63.483 177.751C63.7322 176.929 63.8568 176.031 63.8568 175.06C63.8568 173.951 63.701 172.985 63.3896 172.163C63.0905 171.34 62.6669 170.655 62.1187 170.107C61.583 169.559 60.9413 169.148 60.1937 168.874C59.4586 168.599 58.6612 168.462 57.8015 168.462H52.0453ZM68.4305 170.649V168.462H65.7766V170.649H68.4305ZM65.7766 172.144V181.806H68.4305V172.144H65.7766ZM72.6603 178.667H70.1373C70.1622 179.315 70.3055 179.856 70.5671 180.293C70.8412 180.716 71.1839 181.059 71.595 181.32C72.0187 181.582 72.4983 181.769 73.0341 181.881C73.5699 181.993 74.1181 182.049 74.6787 182.049C75.227 182.049 75.7627 181.993 76.286 181.881C76.8218 181.781 77.2952 181.601 77.7064 181.339C78.1175 181.078 78.4477 180.735 78.6969 180.311C78.9585 179.875 79.0894 179.339 79.0894 178.704C79.0894 178.255 79.0022 177.882 78.8277 177.583C78.6533 177.271 78.4228 177.016 78.1362 176.816C77.8497 176.605 77.5195 176.436 77.1457 176.312C76.7844 176.187 76.4106 176.081 76.0244 175.994C75.6506 175.907 75.283 175.826 74.9217 175.751C74.5604 175.676 74.2364 175.595 73.9499 175.508C73.6758 175.408 73.4515 175.284 73.2771 175.134C73.1026 174.985 73.0154 174.792 73.0154 174.555C73.0154 174.356 73.0653 174.2 73.1649 174.088C73.2646 173.963 73.383 173.87 73.52 173.807C73.6695 173.745 73.8315 173.708 74.0059 173.695C74.1804 173.67 74.3423 173.658 74.4919 173.658C74.9653 173.658 75.3765 173.751 75.7253 173.938C76.0742 174.113 76.2673 174.455 76.3047 174.966H78.8277C78.7779 174.368 78.6221 173.876 78.3605 173.49C78.1113 173.091 77.7936 172.773 77.4074 172.537C77.0211 172.3 76.5788 172.132 76.0804 172.032C75.5945 171.932 75.0899 171.882 74.5666 171.882C74.0433 171.882 73.5325 171.932 73.0341 172.032C72.5357 172.119 72.0872 172.281 71.6885 172.518C71.2898 172.742 70.9658 173.054 70.7167 173.452C70.4799 173.851 70.3616 174.362 70.3616 174.985C70.3616 175.408 70.4488 175.77 70.6232 176.069C70.7976 176.355 71.0281 176.598 71.3147 176.798C71.6013 176.985 71.9252 177.14 72.2865 177.265C72.6603 177.377 73.0403 177.477 73.4266 177.564C74.3735 177.763 75.1086 177.963 75.6319 178.162C76.1676 178.361 76.4355 178.66 76.4355 179.059C76.4355 179.296 76.3795 179.495 76.2673 179.657C76.1552 179.807 76.0119 179.931 75.8375 180.031C75.6755 180.118 75.4886 180.187 75.2768 180.236C75.0774 180.274 74.8843 180.293 74.6974 180.293C74.4358 180.293 74.1804 180.261 73.9312 180.199C73.6945 180.137 73.4826 180.043 73.2958 179.919C73.1089 179.782 72.9531 179.614 72.8285 179.414C72.7164 179.202 72.6603 178.953 72.6603 178.667ZM87.3055 175.546H89.9033C89.8659 174.923 89.7164 174.387 89.4548 173.938C89.1931 173.477 88.8505 173.097 88.4269 172.798C88.0157 172.487 87.5423 172.256 87.0065 172.107C86.4832 171.957 85.935 171.882 85.3619 171.882C84.5769 171.882 83.8792 172.013 83.2687 172.275C82.6582 172.537 82.1411 172.904 81.7175 173.378C81.2939 173.839 80.9699 174.393 80.7457 175.041C80.5339 175.676 80.4279 176.368 80.4279 177.115C80.4279 177.838 80.5463 178.505 80.783 179.115C81.0198 179.713 81.3499 180.23 81.7736 180.666C82.1972 181.102 82.708 181.445 83.3061 181.694C83.9166 181.931 84.5832 182.049 85.3058 182.049C86.5891 182.049 87.6419 181.713 88.4643 181.04C89.2866 180.367 89.785 179.389 89.9594 178.106H87.399C87.3118 178.704 87.0937 179.184 86.7449 179.545C86.4085 179.894 85.9225 180.068 85.2871 180.068C84.876 180.068 84.5271 179.975 84.2405 179.788C83.954 179.601 83.7235 179.364 83.549 179.078C83.3871 178.779 83.2687 178.449 83.1939 178.087C83.1192 177.726 83.0818 177.371 83.0818 177.022C83.0818 176.661 83.1192 176.299 83.1939 175.938C83.2687 175.564 83.3933 175.228 83.5677 174.929C83.7546 174.617 83.9913 174.368 84.2779 174.181C84.5645 173.982 84.9196 173.882 85.3432 173.882C86.477 173.882 87.1311 174.437 87.3055 175.546ZM93.8978 176.985C93.8978 176.598 93.9352 176.218 94.0099 175.845C94.0847 175.471 94.2093 175.141 94.3837 174.854C94.5706 174.567 94.8136 174.337 95.1126 174.163C95.4116 173.976 95.7854 173.882 96.2339 173.882C96.6825 173.882 97.0562 173.976 97.3553 174.163C97.6668 174.337 97.9097 174.567 98.0841 174.854C98.271 175.141 98.4019 175.471 98.4766 175.845C98.5514 176.218 98.5888 176.598 98.5888 176.985C98.5888 177.371 98.5514 177.751 98.4766 178.125C98.4019 178.486 98.271 178.816 98.0841 179.115C97.9097 179.402 97.6668 179.632 97.3553 179.807C97.0562 179.981 96.6825 180.068 96.2339 180.068C95.7854 180.068 95.4116 179.981 95.1126 179.807C94.8136 179.632 94.5706 179.402 94.3837 179.115C94.2093 178.816 94.0847 178.486 94.0099 178.125C93.9352 177.751 93.8978 177.371 93.8978 176.985ZM91.2439 176.985C91.2439 177.757 91.3623 178.455 91.599 179.078C91.8358 179.701 92.1722 180.236 92.6082 180.685C93.0443 181.121 93.5676 181.458 94.1781 181.694C94.7886 181.931 95.4739 182.049 96.2339 182.049C96.994 182.049 97.6792 181.931 98.2897 181.694C98.9127 181.458 99.4422 181.121 99.8783 180.685C100.314 180.236 100.651 179.701 100.888 179.078C101.124 178.455 101.243 177.757 101.243 176.985C101.243 176.212 101.124 175.514 100.888 174.891C100.651 174.256 100.314 173.72 99.8783 173.284C99.4422 172.836 98.9127 172.493 98.2897 172.256C97.6792 172.007 96.994 171.882 96.2339 171.882C95.4739 171.882 94.7886 172.007 94.1781 172.256C93.5676 172.493 93.0443 172.836 92.6082 173.284C92.1722 173.72 91.8358 174.256 91.599 174.891C91.3623 175.514 91.2439 176.212 91.2439 176.985ZM108.398 181.806L111.668 172.144H109.033L106.996 178.741H106.959L104.921 172.144H102.137L105.445 181.806H108.398ZM119.35 175.938H115.033C115.046 175.751 115.083 175.539 115.145 175.303C115.22 175.066 115.338 174.842 115.5 174.63C115.675 174.418 115.899 174.244 116.173 174.106C116.46 173.957 116.815 173.882 117.238 173.882C117.886 173.882 118.366 174.057 118.677 174.406C119.001 174.754 119.226 175.265 119.35 175.938ZM115.033 177.62H122.004C122.054 176.872 121.992 176.156 121.817 175.471C121.643 174.786 121.356 174.175 120.957 173.639C120.571 173.103 120.073 172.68 119.462 172.368C118.852 172.044 118.135 171.882 117.313 171.882C116.578 171.882 115.905 172.013 115.295 172.275C114.697 172.537 114.18 172.898 113.744 173.359C113.307 173.807 112.971 174.343 112.734 174.966C112.498 175.589 112.379 176.262 112.379 176.985C112.379 177.732 112.491 178.417 112.716 179.04C112.952 179.663 113.283 180.199 113.706 180.648C114.13 181.096 114.647 181.445 115.257 181.694C115.868 181.931 116.553 182.049 117.313 182.049C118.41 182.049 119.344 181.8 120.116 181.302C120.889 180.803 121.462 179.975 121.836 178.816H119.5C119.413 179.115 119.176 179.402 118.79 179.676C118.403 179.937 117.942 180.068 117.407 180.068C116.659 180.068 116.086 179.875 115.687 179.489C115.288 179.103 115.07 178.48 115.033 177.62ZM123.662 172.144V181.806H126.316V177.452C126.316 177.016 126.36 176.611 126.447 176.237C126.534 175.863 126.678 175.539 126.877 175.265C127.089 174.979 127.363 174.754 127.699 174.592C128.036 174.43 128.447 174.349 128.933 174.349C129.095 174.349 129.263 174.362 129.437 174.387C129.612 174.399 129.761 174.418 129.886 174.443V171.976C129.674 171.914 129.481 171.882 129.307 171.882C128.97 171.882 128.646 171.932 128.335 172.032C128.023 172.132 127.73 172.275 127.456 172.462C127.182 172.636 126.939 172.854 126.727 173.116C126.516 173.365 126.347 173.639 126.223 173.938H126.185V172.144H123.662Z" fill="#2F3441"/>
<path d="M224.349 179.339V170.929H226.443C227.165 170.929 227.769 171.035 228.255 171.247C228.754 171.446 229.152 171.739 229.451 172.125C229.75 172.512 229.962 172.979 230.087 173.527C230.224 174.063 230.292 174.667 230.292 175.34C230.292 176.075 230.199 176.698 230.012 177.209C229.825 177.72 229.576 178.137 229.265 178.461C228.953 178.773 228.598 178.997 228.199 179.134C227.801 179.271 227.389 179.339 226.966 179.339H224.349ZM221.415 168.462V181.806H227.171C228.193 181.806 229.078 181.638 229.825 181.302C230.585 180.953 231.214 180.479 231.713 179.881C232.224 179.283 232.604 178.573 232.853 177.751C233.102 176.929 233.227 176.031 233.227 175.06C233.227 173.951 233.071 172.985 232.759 172.163C232.46 171.34 232.037 170.655 231.489 170.107C230.953 169.559 230.311 169.148 229.564 168.874C228.828 168.599 228.031 168.462 227.171 168.462H221.415ZM241.576 175.938H237.258C237.271 175.751 237.308 175.539 237.371 175.303C237.445 175.066 237.564 174.842 237.726 174.63C237.9 174.418 238.124 174.244 238.398 174.106C238.685 173.957 239.04 173.882 239.464 173.882C240.112 173.882 240.591 174.057 240.903 174.406C241.227 174.754 241.451 175.265 241.576 175.938ZM237.258 177.62H244.229C244.279 176.872 244.217 176.156 244.043 175.471C243.868 174.786 243.582 174.175 243.183 173.639C242.797 173.103 242.298 172.68 241.688 172.368C241.077 172.044 240.361 171.882 239.538 171.882C238.803 171.882 238.131 172.013 237.52 172.275C236.922 172.537 236.405 172.898 235.969 173.359C235.533 173.807 235.196 174.343 234.96 174.966C234.723 175.589 234.605 176.262 234.605 176.985C234.605 177.732 234.717 178.417 234.941 179.04C235.178 179.663 235.508 180.199 235.931 180.648C236.355 181.096 236.872 181.445 237.483 181.694C238.093 181.931 238.778 182.049 239.538 182.049C240.635 182.049 241.569 181.8 242.342 181.302C243.114 180.803 243.687 179.975 244.061 178.816H241.725C241.638 179.115 241.401 179.402 241.015 179.676C240.629 179.937 240.168 180.068 239.632 180.068C238.884 180.068 238.311 179.875 237.912 179.489C237.514 179.103 237.296 178.48 237.258 177.62ZM246.467 173.92V181.806H249.121V173.92H250.952V172.144H249.121V171.565C249.121 171.166 249.196 170.886 249.345 170.724C249.507 170.549 249.769 170.462 250.13 170.462C250.467 170.462 250.791 170.481 251.102 170.518V168.537C250.878 168.525 250.647 168.512 250.41 168.5C250.174 168.475 249.937 168.462 249.7 168.462C248.616 168.462 247.806 168.736 247.271 169.285C246.735 169.833 246.467 170.537 246.467 171.397V172.144H244.879V173.92H246.467ZM254.924 170.649V168.462H252.27V170.649H254.924ZM252.27 172.144V181.806H254.924V172.144H252.27ZM257.098 172.144V181.806H259.752V176.742C259.752 175.757 259.914 175.053 260.238 174.63C260.562 174.194 261.085 173.976 261.808 173.976C262.443 173.976 262.886 174.175 263.135 174.574C263.384 174.96 263.509 175.552 263.509 176.349V181.806H266.163V175.863C266.163 175.265 266.107 174.723 265.994 174.237C265.895 173.739 265.714 173.322 265.452 172.985C265.191 172.636 264.829 172.368 264.368 172.181C263.92 171.982 263.341 171.882 262.63 171.882C262.07 171.882 261.521 172.013 260.986 172.275C260.45 172.524 260.014 172.929 259.677 173.49H259.621V172.144H257.098ZM274.765 175.938H270.448C270.46 175.751 270.498 175.539 270.56 175.303C270.635 175.066 270.753 174.842 270.915 174.63C271.089 174.418 271.314 174.244 271.588 174.106C271.874 173.957 272.229 173.882 272.653 173.882C273.301 173.882 273.781 174.057 274.092 174.406C274.416 174.754 274.64 175.265 274.765 175.938ZM270.448 177.62H277.419C277.469 176.872 277.406 176.156 277.232 175.471C277.057 174.786 276.771 174.175 276.372 173.639C275.986 173.103 275.488 172.68 274.877 172.368C274.267 172.044 273.55 171.882 272.728 171.882C271.993 171.882 271.32 172.013 270.709 172.275C270.111 172.537 269.594 172.898 269.158 173.359C268.722 173.807 268.386 174.343 268.149 174.966C267.912 175.589 267.794 176.262 267.794 176.985C267.794 177.732 267.906 178.417 268.13 179.04C268.367 179.663 268.697 180.199 269.121 180.648C269.544 181.096 270.062 181.445 270.672 181.694C271.283 181.931 271.968 182.049 272.728 182.049C273.824 182.049 274.759 181.8 275.531 181.302C276.304 180.803 276.877 179.975 277.251 178.816H274.914C274.827 179.115 274.591 179.402 274.204 179.676C273.818 179.937 273.357 180.068 272.821 180.068C272.074 180.068 271.501 179.875 271.102 179.489C270.703 179.103 270.485 178.48 270.448 177.62Z" fill="#2F3441"/>
<path opacity="0.5" d="M448.104 222.576V234H450.616V222.576H448.104ZM458.539 229.84C458.539 230.181 458.507 230.512 458.443 230.832C458.379 231.152 458.272 231.44 458.123 231.696C457.974 231.941 457.771 232.139 457.515 232.288C457.27 232.437 456.96 232.512 456.587 232.512C456.235 232.512 455.931 232.437 455.675 232.288C455.43 232.128 455.222 231.925 455.051 231.68C454.891 231.424 454.774 231.136 454.699 230.816C454.624 230.496 454.587 230.176 454.587 229.856C454.587 229.515 454.619 229.189 454.683 228.88C454.758 228.56 454.87 228.277 455.019 228.032C455.179 227.787 455.387 227.589 455.643 227.44C455.899 227.291 456.214 227.216 456.587 227.216C456.96 227.216 457.27 227.291 457.515 227.44C457.76 227.589 457.958 227.787 458.107 228.032C458.267 228.267 458.379 228.544 458.443 228.864C458.507 229.173 458.539 229.499 458.539 229.84ZM458.571 232.944V234H460.731V222.576H458.459V226.736H458.427C458.171 226.331 457.819 226.027 457.371 225.824C456.934 225.611 456.47 225.504 455.979 225.504C455.371 225.504 454.838 225.627 454.379 225.872C453.92 226.107 453.536 226.421 453.227 226.816C452.928 227.211 452.699 227.669 452.539 228.192C452.39 228.704 452.315 229.237 452.315 229.792C452.315 230.368 452.39 230.923 452.539 231.456C452.699 231.989 452.928 232.464 453.227 232.88C453.536 233.285 453.926 233.611 454.395 233.856C454.864 234.091 455.408 234.208 456.027 234.208C456.571 234.208 457.056 234.112 457.483 233.92C457.92 233.717 458.272 233.392 458.539 232.944H458.571ZM468.101 228.976H464.405C464.415 228.816 464.447 228.635 464.501 228.432C464.565 228.229 464.666 228.037 464.805 227.856C464.954 227.675 465.146 227.525 465.381 227.408C465.626 227.28 465.93 227.216 466.293 227.216C466.847 227.216 467.258 227.365 467.525 227.664C467.802 227.963 467.994 228.4 468.101 228.976ZM464.405 230.416H470.373C470.415 229.776 470.362 229.163 470.213 228.576C470.063 227.989 469.818 227.467 469.477 227.008C469.146 226.549 468.719 226.187 468.197 225.92C467.674 225.643 467.061 225.504 466.357 225.504C465.727 225.504 465.151 225.616 464.629 225.84C464.117 226.064 463.674 226.373 463.301 226.768C462.927 227.152 462.639 227.611 462.437 228.144C462.234 228.677 462.133 229.253 462.133 229.872C462.133 230.512 462.229 231.099 462.421 231.632C462.623 232.165 462.906 232.624 463.269 233.008C463.631 233.392 464.074 233.691 464.597 233.904C465.119 234.107 465.706 234.208 466.357 234.208C467.295 234.208 468.095 233.995 468.757 233.568C469.418 233.141 469.909 232.432 470.229 231.44H468.229C468.154 231.696 467.951 231.941 467.621 232.176C467.29 232.4 466.895 232.512 466.437 232.512C465.797 232.512 465.306 232.347 464.965 232.016C464.623 231.685 464.437 231.152 464.405 230.416ZM471.709 228.272C471.741 227.739 471.874 227.296 472.109 226.944C472.343 226.592 472.642 226.309 473.005 226.096C473.367 225.883 473.773 225.733 474.221 225.648C474.679 225.552 475.138 225.504 475.597 225.504C476.013 225.504 476.434 225.536 476.861 225.6C477.287 225.653 477.677 225.765 478.029 225.936C478.381 226.107 478.669 226.347 478.893 226.656C479.117 226.955 479.229 227.355 479.229 227.856V232.16C479.229 232.533 479.25 232.891 479.293 233.232C479.335 233.573 479.41 233.829 479.517 234H477.213C477.17 233.872 477.133 233.744 477.101 233.616C477.079 233.477 477.063 233.339 477.053 233.2C476.69 233.573 476.263 233.835 475.773 233.984C475.282 234.133 474.781 234.208 474.269 234.208C473.874 234.208 473.506 234.16 473.165 234.064C472.823 233.968 472.525 233.819 472.269 233.616C472.013 233.413 471.81 233.157 471.661 232.848C471.522 232.539 471.453 232.171 471.453 231.744C471.453 231.275 471.533 230.891 471.693 230.592C471.863 230.283 472.077 230.037 472.333 229.856C472.599 229.675 472.898 229.541 473.229 229.456C473.57 229.36 473.911 229.285 474.253 229.232C474.594 229.179 474.93 229.136 475.261 229.104C475.591 229.072 475.885 229.024 476.141 228.96C476.397 228.896 476.599 228.805 476.749 228.688C476.898 228.56 476.967 228.379 476.957 228.144C476.957 227.899 476.914 227.707 476.829 227.568C476.754 227.419 476.647 227.307 476.509 227.232C476.381 227.147 476.226 227.093 476.045 227.072C475.874 227.04 475.687 227.024 475.485 227.024C475.037 227.024 474.685 227.12 474.429 227.312C474.173 227.504 474.023 227.824 473.981 228.272H471.709ZM476.957 229.952C476.861 230.037 476.738 230.107 476.589 230.16C476.45 230.203 476.295 230.24 476.125 230.272C475.965 230.304 475.794 230.331 475.613 230.352C475.431 230.373 475.25 230.4 475.069 230.432C474.898 230.464 474.727 230.507 474.557 230.56C474.397 230.613 474.253 230.688 474.125 230.784C474.007 230.869 473.911 230.981 473.837 231.12C473.762 231.259 473.725 231.435 473.725 231.648C473.725 231.851 473.762 232.021 473.837 232.16C473.911 232.299 474.013 232.411 474.141 232.496C474.269 232.571 474.418 232.624 474.589 232.656C474.759 232.688 474.935 232.704 475.117 232.704C475.565 232.704 475.911 232.629 476.157 232.48C476.402 232.331 476.583 232.155 476.701 231.952C476.818 231.739 476.887 231.525 476.909 231.312C476.941 231.099 476.957 230.928 476.957 230.8V229.952ZM483.956 225.728V223.248H481.684V225.728H480.308V227.248H481.684V232.128C481.684 232.544 481.754 232.88 481.892 233.136C482.031 233.392 482.218 233.589 482.452 233.728C482.698 233.867 482.975 233.957 483.284 234C483.604 234.053 483.94 234.08 484.292 234.08C484.516 234.08 484.746 234.075 484.98 234.064C485.215 234.053 485.428 234.032 485.62 234V232.24C485.514 232.261 485.402 232.277 485.284 232.288C485.167 232.299 485.044 232.304 484.916 232.304C484.532 232.304 484.276 232.24 484.148 232.112C484.02 231.984 483.956 231.728 483.956 231.344V227.248H485.62V225.728H483.956ZM489.122 224.448V222.576H486.85V224.448H489.122ZM486.85 225.728V234H489.122V225.728H486.85ZM493.011 229.872C493.011 229.541 493.043 229.216 493.107 228.896C493.171 228.576 493.278 228.293 493.427 228.048C493.587 227.803 493.795 227.605 494.051 227.456C494.307 227.296 494.627 227.216 495.011 227.216C495.395 227.216 495.715 227.296 495.971 227.456C496.238 227.605 496.446 227.803 496.595 228.048C496.755 228.293 496.867 228.576 496.931 228.896C496.995 229.216 497.027 229.541 497.027 229.872C497.027 230.203 496.995 230.528 496.931 230.848C496.867 231.157 496.755 231.44 496.595 231.696C496.446 231.941 496.238 232.139 495.971 232.288C495.715 232.437 495.395 232.512 495.011 232.512C494.627 232.512 494.307 232.437 494.051 232.288C493.795 232.139 493.587 231.941 493.427 231.696C493.278 231.44 493.171 231.157 493.107 230.848C493.043 230.528 493.011 230.203 493.011 229.872ZM490.739 229.872C490.739 230.533 490.841 231.131 491.043 231.664C491.246 232.197 491.534 232.656 491.907 233.04C492.281 233.413 492.729 233.701 493.251 233.904C493.774 234.107 494.361 234.208 495.011 234.208C495.662 234.208 496.249 234.107 496.771 233.904C497.305 233.701 497.758 233.413 498.131 233.04C498.505 232.656 498.793 232.197 498.995 231.664C499.198 231.131 499.299 230.533 499.299 229.872C499.299 229.211 499.198 228.613 498.995 228.08C498.793 227.536 498.505 227.077 498.131 226.704C497.758 226.32 497.305 226.027 496.771 225.824C496.249 225.611 495.662 225.504 495.011 225.504C494.361 225.504 493.774 225.611 493.251 225.824C492.729 226.027 492.281 226.32 491.907 226.704C491.534 227.077 491.246 227.536 491.043 228.08C490.841 228.613 490.739 229.211 490.739 229.872ZM500.861 225.728V234H503.133V229.664C503.133 228.821 503.271 228.219 503.549 227.856C503.826 227.483 504.274 227.296 504.893 227.296C505.437 227.296 505.815 227.467 506.029 227.808C506.242 228.139 506.349 228.645 506.349 229.328V234H508.621V228.912C508.621 228.4 508.573 227.936 508.477 227.52C508.391 227.093 508.237 226.736 508.013 226.448C507.789 226.149 507.479 225.92 507.085 225.76C506.701 225.589 506.205 225.504 505.597 225.504C505.117 225.504 504.647 225.616 504.189 225.84C503.73 226.053 503.357 226.4 503.069 226.88H503.021V225.728H500.861Z" fill="black"/>
<path opacity="0.5" d="M627.632 227.688V237H630.144V227.688H633.568V225.576H624.208V227.688H627.632ZM638.516 231.976H634.82C634.831 231.816 634.863 231.635 634.916 231.432C634.98 231.229 635.082 231.037 635.22 230.856C635.37 230.675 635.562 230.525 635.796 230.408C636.042 230.28 636.346 230.216 636.708 230.216C637.263 230.216 637.674 230.365 637.94 230.664C638.218 230.963 638.41 231.4 638.516 231.976ZM634.82 233.416H640.788C640.831 232.776 640.778 232.163 640.628 231.576C640.479 230.989 640.234 230.467 639.892 230.008C639.562 229.549 639.135 229.187 638.612 228.92C638.09 228.643 637.476 228.504 636.772 228.504C636.143 228.504 635.567 228.616 635.044 228.84C634.532 229.064 634.09 229.373 633.716 229.768C633.343 230.152 633.055 230.611 632.852 231.144C632.65 231.677 632.548 232.253 632.548 232.872C632.548 233.512 632.644 234.099 632.836 234.632C633.039 235.165 633.322 235.624 633.684 236.008C634.047 236.392 634.49 236.691 635.012 236.904C635.535 237.107 636.122 237.208 636.772 237.208C637.711 237.208 638.511 236.995 639.172 236.568C639.834 236.141 640.324 235.432 640.644 234.44H638.644C638.57 234.696 638.367 234.941 638.036 235.176C637.706 235.4 637.311 235.512 636.852 235.512C636.212 235.512 635.722 235.347 635.38 235.016C635.039 234.685 634.852 234.152 634.82 233.416ZM643.98 234.312H641.82C641.842 234.867 641.964 235.331 642.188 235.704C642.423 236.067 642.716 236.36 643.068 236.584C643.431 236.808 643.842 236.968 644.3 237.064C644.759 237.16 645.228 237.208 645.708 237.208C646.178 237.208 646.636 237.16 647.084 237.064C647.543 236.979 647.948 236.824 648.3 236.6C648.652 236.376 648.935 236.083 649.148 235.72C649.372 235.347 649.484 234.888 649.484 234.344C649.484 233.96 649.41 233.64 649.26 233.384C649.111 233.117 648.914 232.899 648.668 232.728C648.423 232.547 648.14 232.403 647.82 232.296C647.511 232.189 647.191 232.099 646.86 232.024C646.54 231.949 646.226 231.88 645.916 231.816C645.607 231.752 645.33 231.683 645.084 231.608C644.85 231.523 644.658 231.416 644.508 231.288C644.359 231.16 644.284 230.995 644.284 230.792C644.284 230.621 644.327 230.488 644.412 230.392C644.498 230.285 644.599 230.205 644.716 230.152C644.844 230.099 644.983 230.067 645.132 230.056C645.282 230.035 645.42 230.024 645.548 230.024C645.954 230.024 646.306 230.104 646.604 230.264C646.903 230.413 647.068 230.707 647.1 231.144H649.26C649.218 230.632 649.084 230.211 648.86 229.88C648.647 229.539 648.375 229.267 648.044 229.064C647.714 228.861 647.335 228.717 646.908 228.632C646.492 228.547 646.06 228.504 645.612 228.504C645.164 228.504 644.727 228.547 644.3 228.632C643.874 228.707 643.49 228.845 643.148 229.048C642.807 229.24 642.53 229.507 642.316 229.848C642.114 230.189 642.012 230.627 642.012 231.16C642.012 231.523 642.087 231.832 642.236 232.088C642.386 232.333 642.583 232.541 642.828 232.712C643.074 232.872 643.351 233.005 643.66 233.112C643.98 233.208 644.306 233.293 644.636 233.368C645.447 233.539 646.076 233.709 646.524 233.88C646.983 234.051 647.212 234.307 647.212 234.648C647.212 234.851 647.164 235.021 647.068 235.16C646.972 235.288 646.85 235.395 646.7 235.48C646.562 235.555 646.402 235.613 646.22 235.656C646.05 235.688 645.884 235.704 645.724 235.704C645.5 235.704 645.282 235.677 645.068 235.624C644.866 235.571 644.684 235.491 644.524 235.384C644.364 235.267 644.231 235.123 644.124 234.952C644.028 234.771 643.98 234.557 643.98 234.312ZM653.778 228.728V226.248H651.506V228.728H650.13V230.248H651.506V235.128C651.506 235.544 651.576 235.88 651.714 236.136C651.853 236.392 652.04 236.589 652.274 236.728C652.52 236.867 652.797 236.957 653.106 237C653.426 237.053 653.762 237.08 654.114 237.08C654.338 237.08 654.568 237.075 654.802 237.064C655.037 237.053 655.25 237.032 655.442 237V235.24C655.336 235.261 655.224 235.277 655.106 235.288C654.989 235.299 654.866 235.304 654.738 235.304C654.354 235.304 654.098 235.24 653.97 235.112C653.842 234.984 653.778 234.728 653.778 234.344V230.248H655.442V228.728H653.778ZM658.944 227.448V225.576H656.672V227.448H658.944ZM656.672 228.728V237H658.944V228.728H656.672ZM660.817 228.728V237H663.089V232.664C663.089 231.821 663.228 231.219 663.505 230.856C663.782 230.483 664.23 230.296 664.849 230.296C665.393 230.296 665.772 230.467 665.985 230.808C666.198 231.139 666.305 231.645 666.305 232.328V237H668.577V231.912C668.577 231.4 668.529 230.936 668.433 230.52C668.348 230.093 668.193 229.736 667.969 229.448C667.745 229.149 667.436 228.92 667.041 228.76C666.657 228.589 666.161 228.504 665.553 228.504C665.073 228.504 664.604 228.616 664.145 228.84C663.686 229.053 663.313 229.4 663.025 229.88H662.977V228.728H660.817ZM674.242 235.048C673.89 235.048 673.596 234.973 673.362 234.824C673.127 234.675 672.935 234.483 672.786 234.248C672.647 234.013 672.546 233.752 672.482 233.464C672.428 233.165 672.402 232.867 672.402 232.568C672.402 232.259 672.434 231.965 672.498 231.688C672.572 231.4 672.684 231.149 672.834 230.936C672.994 230.712 673.186 230.536 673.41 230.408C673.644 230.28 673.922 230.216 674.242 230.216C674.615 230.216 674.924 230.285 675.17 230.424C675.415 230.563 675.612 230.749 675.762 230.984C675.911 231.219 676.018 231.491 676.082 231.8C676.146 232.099 676.178 232.419 676.178 232.76C676.178 233.059 676.135 233.347 676.05 233.624C675.975 233.891 675.858 234.131 675.698 234.344C675.538 234.557 675.335 234.728 675.09 234.856C674.844 234.984 674.562 235.048 674.242 235.048ZM678.338 236.472V228.728H676.178V229.832H676.146C675.868 229.352 675.522 229.011 675.106 228.808C674.7 228.605 674.226 228.504 673.682 228.504C673.106 228.504 672.594 228.616 672.146 228.84C671.708 229.064 671.34 229.368 671.042 229.752C670.743 230.125 670.514 230.563 670.354 231.064C670.204 231.555 670.13 232.067 670.13 232.6C670.13 233.165 670.194 233.704 670.322 234.216C670.46 234.717 670.674 235.16 670.962 235.544C671.25 235.917 671.618 236.216 672.066 236.44C672.514 236.653 673.047 236.76 673.666 236.76C674.167 236.76 674.642 236.659 675.09 236.456C675.548 236.243 675.9 235.917 676.146 235.48H676.178V236.568C676.188 237.155 676.044 237.64 675.746 238.024C675.458 238.408 674.994 238.6 674.354 238.6C673.948 238.6 673.591 238.515 673.282 238.344C672.972 238.184 672.764 237.891 672.658 237.464H670.402C670.434 237.933 670.562 238.333 670.786 238.664C671.02 239.005 671.308 239.283 671.65 239.496C672.002 239.709 672.386 239.864 672.802 239.96C673.228 240.067 673.644 240.12 674.05 240.12C674.999 240.12 675.756 239.992 676.322 239.736C676.887 239.48 677.319 239.165 677.618 238.792C677.916 238.429 678.108 238.035 678.194 237.608C678.29 237.181 678.338 236.803 678.338 236.472Z" fill="black"/>
<path d="M454.459 179.339V170.929H456.552C457.275 170.929 457.879 171.035 458.365 171.247C458.863 171.446 459.262 171.739 459.561 172.125C459.86 172.512 460.072 172.979 460.196 173.527C460.333 174.063 460.402 174.667 460.402 175.34C460.402 176.075 460.309 176.698 460.122 177.209C459.935 177.72 459.686 178.137 459.374 178.461C459.063 178.773 458.707 178.997 458.309 179.134C457.91 179.271 457.499 179.339 457.075 179.339H454.459ZM451.525 168.462V181.806H457.281C458.303 181.806 459.187 181.638 459.935 181.302C460.695 180.953 461.324 180.479 461.822 179.881C462.333 179.283 462.713 178.573 462.962 177.751C463.212 176.929 463.336 176.031 463.336 175.06C463.336 173.951 463.18 172.985 462.869 172.163C462.57 171.34 462.146 170.655 461.598 170.107C461.062 169.559 460.421 169.148 459.673 168.874C458.938 168.599 458.141 168.462 457.281 168.462H451.525ZM471.685 175.938H467.368C467.38 175.751 467.418 175.539 467.48 175.303C467.555 175.066 467.673 174.842 467.835 174.63C468.01 174.418 468.234 174.244 468.508 174.106C468.794 173.957 469.15 173.882 469.573 173.882C470.221 173.882 470.701 174.057 471.012 174.406C471.336 174.754 471.56 175.265 471.685 175.938ZM467.368 177.62H474.339C474.389 176.872 474.326 176.156 474.152 175.471C473.978 174.786 473.691 174.175 473.292 173.639C472.906 173.103 472.408 172.68 471.797 172.368C471.187 172.044 470.47 171.882 469.648 171.882C468.913 171.882 468.24 172.013 467.63 172.275C467.031 172.537 466.514 172.898 466.078 173.359C465.642 173.807 465.306 174.343 465.069 174.966C464.832 175.589 464.714 176.262 464.714 176.985C464.714 177.732 464.826 178.417 465.05 179.04C465.287 179.663 465.617 180.199 466.041 180.648C466.465 181.096 466.982 181.445 467.592 181.694C468.203 181.931 468.888 182.049 469.648 182.049C470.744 182.049 471.679 181.8 472.451 181.302C473.224 180.803 473.797 179.975 474.171 178.816H471.835C471.747 179.115 471.511 179.402 471.124 179.676C470.738 179.937 470.277 180.068 469.741 180.068C468.994 180.068 468.421 179.875 468.022 179.489C467.623 179.103 467.405 178.48 467.368 177.62ZM481.342 181.806L484.613 172.144H481.978L479.941 178.741H479.903L477.866 172.144H475.081L478.389 181.806H481.342ZM492.295 175.938H487.978C487.99 175.751 488.028 175.539 488.09 175.303C488.165 175.066 488.283 174.842 488.445 174.63C488.619 174.418 488.844 174.244 489.118 174.106C489.404 173.957 489.759 173.882 490.183 173.882C490.831 173.882 491.311 174.057 491.622 174.406C491.946 174.754 492.17 175.265 492.295 175.938ZM487.978 177.62H494.949C494.999 176.872 494.936 176.156 494.762 175.471C494.588 174.786 494.301 174.175 493.902 173.639C493.516 173.103 493.018 172.68 492.407 172.368C491.797 172.044 491.08 171.882 490.258 171.882C489.523 171.882 488.85 172.013 488.239 172.275C487.641 172.537 487.124 172.898 486.688 173.359C486.252 173.807 485.916 174.343 485.679 174.966C485.442 175.589 485.324 176.262 485.324 176.985C485.324 177.732 485.436 178.417 485.66 179.04C485.897 179.663 486.227 180.199 486.651 180.648C487.074 181.096 487.592 181.445 488.202 181.694C488.813 181.931 489.498 182.049 490.258 182.049C491.354 182.049 492.289 181.8 493.061 181.302C493.834 180.803 494.407 179.975 494.781 178.816H492.444C492.357 179.115 492.121 179.402 491.734 179.676C491.348 179.937 490.887 180.068 490.351 180.068C489.604 180.068 489.031 179.875 488.632 179.489C488.233 179.103 488.015 178.48 487.978 177.62ZM496.682 168.462V181.806H499.336V168.462H496.682ZM503.865 176.985C503.865 176.598 503.902 176.218 503.977 175.845C504.052 175.471 504.176 175.141 504.351 174.854C504.537 174.567 504.78 174.337 505.079 174.163C505.378 173.976 505.752 173.882 506.201 173.882C506.649 173.882 507.023 173.976 507.322 174.163C507.634 174.337 507.877 174.567 508.051 174.854C508.238 175.141 508.369 175.471 508.443 175.845C508.518 176.218 508.556 176.598 508.556 176.985C508.556 177.371 508.518 177.751 508.443 178.125C508.369 178.486 508.238 178.816 508.051 179.115C507.877 179.402 507.634 179.632 507.322 179.807C507.023 179.981 506.649 180.068 506.201 180.068C505.752 180.068 505.378 179.981 505.079 179.807C504.78 179.632 504.537 179.402 504.351 179.115C504.176 178.816 504.052 178.486 503.977 178.125C503.902 177.751 503.865 177.371 503.865 176.985ZM501.211 176.985C501.211 177.757 501.329 178.455 501.566 179.078C501.803 179.701 502.139 180.236 502.575 180.685C503.011 181.121 503.534 181.458 504.145 181.694C504.755 181.931 505.441 182.049 506.201 182.049C506.961 182.049 507.646 181.931 508.257 181.694C508.88 181.458 509.409 181.121 509.845 180.685C510.281 180.236 510.618 179.701 510.854 179.078C511.091 178.455 511.209 177.757 511.209 176.985C511.209 176.212 511.091 175.514 510.854 174.891C510.618 174.256 510.281 173.72 509.845 173.284C509.409 172.836 508.88 172.493 508.257 172.256C507.646 172.007 506.961 171.882 506.201 171.882C505.441 171.882 504.755 172.007 504.145 172.256C503.534 172.493 503.011 172.836 502.575 173.284C502.139 173.72 501.803 174.256 501.566 174.891C501.329 175.514 501.211 176.212 501.211 176.985ZM517.897 180.068C517.474 180.068 517.112 179.981 516.813 179.807C516.514 179.632 516.271 179.408 516.084 179.134C515.91 178.847 515.779 178.517 515.692 178.143C515.617 177.77 515.58 177.39 515.58 177.003C515.58 176.605 515.617 176.218 515.692 175.845C515.767 175.471 515.891 175.141 516.066 174.854C516.253 174.567 516.489 174.337 516.776 174.163C517.075 173.976 517.442 173.882 517.879 173.882C518.302 173.882 518.657 173.976 518.944 174.163C519.243 174.337 519.486 174.574 519.673 174.873C519.86 175.159 519.99 175.489 520.065 175.863C520.152 176.237 520.196 176.617 520.196 177.003C520.196 177.39 520.159 177.77 520.084 178.143C520.009 178.517 519.878 178.847 519.691 179.134C519.517 179.408 519.28 179.632 518.981 179.807C518.695 179.981 518.333 180.068 517.897 180.068ZM513.019 172.144V185.189H515.673V180.61H515.711C516.035 181.084 516.446 181.445 516.944 181.694C517.455 181.931 518.009 182.049 518.607 182.049C519.318 182.049 519.934 181.912 520.458 181.638C520.993 181.364 521.436 180.997 521.785 180.536C522.146 180.075 522.414 179.545 522.588 178.947C522.763 178.349 522.85 177.726 522.85 177.078C522.85 176.393 522.763 175.739 522.588 175.116C522.414 174.48 522.146 173.926 521.785 173.452C521.423 172.979 520.968 172.599 520.42 172.312C519.872 172.026 519.218 171.882 518.458 171.882C517.86 171.882 517.312 172.001 516.813 172.238C516.315 172.474 515.904 172.854 515.58 173.378H515.542V172.144H513.019Z" fill="#2F3441"/>
<path d="M632.224 179.533V171.123H634.317C635.04 171.123 635.644 171.229 636.13 171.441C636.628 171.64 637.027 171.933 637.326 172.319C637.625 172.705 637.837 173.173 637.961 173.721C638.098 174.256 638.167 174.861 638.167 175.534C638.167 176.269 638.073 176.892 637.887 177.402C637.7 177.913 637.45 178.331 637.139 178.655C636.827 178.966 636.472 179.19 636.074 179.327C635.675 179.465 635.264 179.533 634.84 179.533H632.224ZM629.29 168.656V182H635.046C636.067 182 636.952 181.832 637.7 181.495C638.46 181.147 639.089 180.673 639.587 180.075C640.098 179.477 640.478 178.767 640.727 177.944C640.976 177.122 641.101 176.225 641.101 175.253C641.101 174.144 640.945 173.179 640.634 172.356C640.335 171.534 639.911 170.849 639.363 170.301C638.827 169.752 638.186 169.341 637.438 169.067C636.703 168.793 635.905 168.656 635.046 168.656H629.29ZM649.45 176.132H645.133C645.145 175.945 645.183 175.733 645.245 175.496C645.32 175.259 645.438 175.035 645.6 174.823C645.774 174.612 645.999 174.437 646.273 174.3C646.559 174.151 646.914 174.076 647.338 174.076C647.986 174.076 648.466 174.25 648.777 174.599C649.101 174.948 649.325 175.459 649.45 176.132ZM645.133 177.814H652.104C652.154 177.066 652.091 176.35 651.917 175.664C651.742 174.979 651.456 174.369 651.057 173.833C650.671 173.297 650.173 172.873 649.562 172.562C648.952 172.238 648.235 172.076 647.413 172.076C646.678 172.076 646.005 172.207 645.394 172.469C644.796 172.73 644.279 173.092 643.843 173.553C643.407 174.001 643.071 174.537 642.834 175.16C642.597 175.783 642.479 176.456 642.479 177.178C642.479 177.926 642.591 178.611 642.815 179.234C643.052 179.857 643.382 180.393 643.806 180.841C644.229 181.29 644.747 181.639 645.357 181.888C645.968 182.125 646.653 182.243 647.413 182.243C648.509 182.243 649.444 181.994 650.216 181.495C650.989 180.997 651.562 180.168 651.936 179.01H649.599C649.512 179.309 649.276 179.595 648.889 179.869C648.503 180.131 648.042 180.262 647.506 180.262C646.759 180.262 646.186 180.069 645.787 179.683C645.388 179.296 645.17 178.673 645.133 177.814ZM653.837 168.656V182H656.491V168.656H653.837ZM661.393 170.843V168.656H658.74V170.843H661.393ZM658.74 172.338V182H661.393V172.338H658.74ZM668.913 182L672.183 172.338H669.548L667.511 178.935H667.473L665.436 172.338H662.652L665.96 182H668.913ZM679.865 176.132H675.548C675.56 175.945 675.598 175.733 675.66 175.496C675.735 175.259 675.853 175.035 676.015 174.823C676.19 174.612 676.414 174.437 676.688 174.3C676.975 174.151 677.33 174.076 677.753 174.076C678.401 174.076 678.881 174.25 679.192 174.599C679.516 174.948 679.741 175.459 679.865 176.132ZM675.548 177.814H682.519C682.569 177.066 682.507 176.35 682.332 175.664C682.158 174.979 681.871 174.369 681.472 173.833C681.086 173.297 680.588 172.873 679.977 172.562C679.367 172.238 678.65 172.076 677.828 172.076C677.093 172.076 676.42 172.207 675.81 172.469C675.212 172.73 674.695 173.092 674.258 173.553C673.822 174.001 673.486 174.537 673.249 175.16C673.012 175.783 672.894 176.456 672.894 177.178C672.894 177.926 673.006 178.611 673.231 179.234C673.467 179.857 673.797 180.393 674.221 180.841C674.645 181.29 675.162 181.639 675.772 181.888C676.383 182.125 677.068 182.243 677.828 182.243C678.924 182.243 679.859 181.994 680.631 181.495C681.404 180.997 681.977 180.168 682.351 179.01H680.015C679.927 179.309 679.691 179.595 679.304 179.869C678.918 180.131 678.457 180.262 677.921 180.262C677.174 180.262 676.601 180.069 676.202 179.683C675.803 179.296 675.585 178.673 675.548 177.814ZM684.177 172.338V182H686.831V177.645C686.831 177.209 686.875 176.804 686.962 176.431C687.049 176.057 687.193 175.733 687.392 175.459C687.604 175.172 687.878 174.948 688.214 174.786C688.551 174.624 688.962 174.543 689.448 174.543C689.61 174.543 689.778 174.556 689.952 174.58C690.127 174.593 690.276 174.612 690.401 174.636V172.17C690.189 172.107 689.996 172.076 689.821 172.076C689.485 172.076 689.161 172.126 688.85 172.226C688.538 172.325 688.245 172.469 687.971 172.655C687.697 172.83 687.454 173.048 687.242 173.31C687.031 173.559 686.862 173.833 686.738 174.132H686.7V172.338H684.177Z" fill="#2F3441"/>
</svg>
