<svg width="565" height="289" viewBox="0 0 565 289" fill="none" xmlns="http://www.w3.org/2000/svg">
<path d="M329.815 81.4744L331.75 79.5393C333.462 77.8276 333.402 75.7567 331.587 73.9413L331.579 73.9333C329.771 72.1258 327.697 72.0779 325.993 73.7817L324.058 75.7168L329.815 81.4744ZM329.887 80.1099L325.422 75.645L326.591 74.4759C327.896 73.1712 329.416 73.239 330.853 74.6754L330.861 74.6834C332.289 76.1118 332.361 77.636 331.056 78.9408L329.887 80.1099ZM330.844 70.742C331.087 70.4987 331.083 70.1116 330.844 69.8722C330.601 69.6288 330.217 69.6288 329.974 69.8722C329.735 70.1116 329.731 70.4987 329.974 70.742C330.214 70.9814 330.605 70.9814 330.844 70.742ZM335.349 75.9411L336.043 75.2468L331.893 71.0972L331.199 71.7914L335.349 75.9411ZM338.209 73.081L338.919 72.3708L336.294 66.6969L335.571 67.4191L337.834 71.9798L337.818 71.9957L333.261 69.7294L332.531 70.4595L338.209 73.081ZM342.669 68.7805C343.575 67.8748 343.71 66.6539 343.16 65.8319L343.128 65.784L342.445 66.4663L342.469 66.5142C342.705 66.989 342.597 67.6234 342.07 68.1501C341.332 68.8883 340.363 68.8603 339.493 68.0224L342.481 65.0339L342.226 64.7785C340.981 63.5336 339.449 63.382 338.316 64.5152C337.183 65.6484 337.33 67.2643 338.615 68.5491L338.619 68.5531C339.924 69.8579 341.476 69.9736 342.669 68.7805ZM338.926 65.1336C339.533 64.5272 340.359 64.4593 341.232 65.1975L338.962 67.4678C338.264 66.6179 338.324 65.7361 338.926 65.1336ZM345.122 66.1679L345.816 65.4736L343.223 62.8801C342.636 62.2935 342.6 61.5554 343.139 61.0167C343.306 60.8491 343.474 60.7215 343.55 60.6856L342.875 60.0112C342.812 60.0591 342.688 60.1429 342.568 60.2626C342.081 60.7494 341.99 61.4237 342.313 62.0182L342.297 62.0342L341.627 61.3639L340.972 62.0182L345.122 66.1679ZM350.727 63.5153C351.852 62.3901 351.928 61.0534 350.966 60.0918L346.933 56.0579L346.238 56.7522L346.941 57.4544L346.925 57.4704C346.206 57.2629 345.424 57.4065 344.838 57.9931C343.784 59.0464 343.9 60.6066 345.189 61.8953L345.193 61.8993C346.49 63.1961 348.046 63.3238 349.091 62.2784C349.686 61.6839 349.869 60.9098 349.658 60.2036L349.674 60.1876L350.204 60.7183C350.847 61.3607 350.835 62.1786 350.105 62.9088C349.538 63.4754 348.959 63.6869 348.529 63.5193L348.477 63.4993L347.778 64.1976L347.822 64.2255C348.572 64.7043 349.702 64.5407 350.727 63.5153ZM348.628 61.5123C347.89 62.2504 346.845 62.1307 345.903 61.1891L345.899 61.1851C344.977 60.2634 344.85 59.21 345.588 58.4719C346.29 57.7696 347.371 57.8853 348.285 58.7991L348.289 58.8031C349.211 59.7248 349.335 60.8061 348.628 61.5123ZM347.57 54.0158C347.814 53.7724 347.81 53.3854 347.57 53.146C347.327 52.9026 346.944 52.9026 346.7 53.146C346.461 53.3854 346.457 53.7724 346.7 54.0158C346.94 54.2552 347.331 54.2552 347.57 54.0158ZM352.075 59.2148L352.769 58.5206L348.62 54.3709L347.925 55.0652L352.075 59.2148ZM353.766 57.5238L354.46 56.8296L352.018 54.3877C351.312 53.6814 351.272 52.7877 351.926 52.1333C352.565 51.4949 353.251 51.5508 353.926 52.2251L356.495 54.7947L357.189 54.1004L354.496 51.4071C353.55 50.4615 352.433 50.3976 351.523 51.3074C350.893 51.9378 350.753 52.644 350.917 53.2545L350.901 53.2705L350.311 52.6799L349.616 53.3742L353.766 57.5238ZM361.358 52.8842C362.483 51.759 362.559 50.4224 361.598 49.4608L357.564 45.4269L356.869 46.1211L357.572 46.8234L357.556 46.8393C356.837 46.6318 356.055 46.7755 355.469 47.362C354.415 48.4154 354.531 49.9755 355.82 51.2643L355.824 51.2683C357.121 52.565 358.677 52.6927 359.722 51.6473C360.317 51.0528 360.5 50.2787 360.289 49.5725L360.305 49.5565L360.835 50.0872C361.478 50.7296 361.466 51.5476 360.736 52.2777C360.169 52.8443 359.591 53.0558 359.16 52.8882L359.108 52.8683L358.41 53.5665L358.453 53.5945C359.204 54.0733 360.333 53.9097 361.358 52.8842ZM359.259 50.8812C358.521 51.6194 357.476 51.4997 356.534 50.558L356.53 50.554C355.608 49.6324 355.481 48.579 356.219 47.8408C356.921 47.1386 358.003 47.2543 358.916 48.168L358.92 48.172C359.842 49.0937 359.966 50.175 359.259 50.8812Z" fill="#2F3441"/>
<path d="M491.97 52.2215C493.175 53.4265 494.811 53.634 496.132 52.7522L496.18 52.7203L495.453 51.9941L495.406 52.018C494.396 52.5247 493.438 52.3651 492.632 51.5592C491.487 50.414 491.655 48.7542 493.055 47.3537L493.059 47.3497C494.46 45.9492 496.108 45.7856 497.257 46.9347C498.067 47.7447 498.226 48.7182 497.752 49.6399L497.692 49.7557L498.418 50.4818L498.45 50.434C499.32 49.1252 499.116 47.4694 497.919 46.2724C496.315 44.6684 494.133 44.8 492.321 46.6115L492.317 46.6155C490.506 48.427 490.37 50.6215 491.97 52.2215ZM496.853 57.0726C497.998 58.2177 499.602 58.1619 500.927 56.8372L500.935 56.8292C502.26 55.5045 502.303 53.9045 501.158 52.7594C500.013 51.6142 498.413 51.6661 497.092 52.9868L497.085 52.9948C495.764 54.3155 495.7 55.9195 496.853 57.0726ZM497.472 56.4621C496.737 55.7279 496.817 54.6826 497.795 53.705L497.803 53.697C498.772 52.7274 499.822 52.6516 500.544 53.3738C501.278 54.108 501.198 55.1454 500.225 56.119L500.217 56.1269C499.243 57.1005 498.202 57.1923 497.472 56.4621ZM499.605 59.6653L500.3 60.3596L502.742 57.9177C503.448 57.2114 504.342 57.1715 504.996 57.8259C505.634 58.4643 505.579 59.1506 504.904 59.8249L502.335 62.3945L503.029 63.0888L505.722 60.3955C506.668 59.4499 506.732 58.3326 505.822 57.4229C505.191 56.7925 504.485 56.6528 503.875 56.8164L503.859 56.8005L504.449 56.2099L503.755 55.5157L499.605 59.6653ZM505.135 65.1947L505.845 65.9049L511.519 63.2795L510.797 62.5573L506.236 64.8196L506.22 64.8037L508.486 60.2471L507.756 59.5169L505.135 65.1947ZM509.435 69.6548C510.341 70.5605 511.562 70.6962 512.384 70.1455L512.432 70.1136L511.749 69.4313L511.702 69.4553C511.227 69.6907 510.592 69.5829 510.066 69.0563C509.328 68.3181 509.355 67.3485 510.193 66.4787L513.182 69.4672L513.437 69.2119C514.682 67.967 514.834 66.4348 513.701 65.3016C512.567 64.1685 510.951 64.3161 509.667 65.6009L509.663 65.6049C508.358 66.9096 508.242 68.4617 509.435 69.6548ZM513.082 65.9121C513.689 66.5186 513.756 67.3445 513.018 68.2184L510.748 65.948C511.598 65.2498 512.48 65.3096 513.082 65.9121ZM512.048 72.1078L512.742 72.8021L515.336 70.2086C515.922 69.6221 516.66 69.5861 517.199 70.1248C517.367 70.2924 517.494 70.46 517.53 70.5358L518.205 69.8615C518.157 69.7976 518.073 69.6739 517.953 69.5542C517.466 69.0674 516.792 68.9757 516.198 69.2989L516.182 69.2829L516.852 68.6126L516.198 67.9582L512.048 72.1078ZM514.701 77.7131C515.826 78.8382 517.162 78.9141 518.124 77.9525L522.158 73.9185L521.464 73.2243L520.761 73.9265L520.745 73.9105C520.953 73.1923 520.809 72.4103 520.223 71.8238C519.169 70.7704 517.609 70.8861 516.32 72.1749L516.316 72.1789C515.02 73.4756 514.892 75.0317 515.937 76.0771C516.532 76.6717 517.306 76.8552 518.012 76.6437L518.028 76.6597L517.498 77.1904C516.855 77.8328 516.037 77.8208 515.307 77.0906C514.74 76.524 514.529 75.9455 514.697 75.5145L514.716 75.4627L514.018 74.7644L513.99 74.8083C513.512 75.5584 513.675 76.6876 514.701 77.7131ZM516.704 75.6143C515.965 74.8761 516.085 73.8307 517.027 72.8891L517.031 72.8851C517.952 71.9634 519.006 71.8357 519.744 72.5739C520.446 73.2761 520.33 74.3574 519.417 75.2711L519.413 75.2751C518.491 76.1968 517.41 76.3205 516.704 75.6143ZM524.2 74.5561C524.443 74.7995 524.83 74.7955 525.07 74.5561C525.313 74.3127 525.313 73.9297 525.07 73.6863C524.83 73.4469 524.443 73.4429 524.2 73.6863C523.961 73.9257 523.961 74.3167 524.2 74.5561ZM519.001 79.0609L519.695 79.7551L523.845 75.6055L523.151 74.9112L519.001 79.0609ZM520.692 80.7519L521.386 81.4461L523.828 79.0042C524.534 78.298 525.428 78.2581 526.083 78.9125C526.721 79.5509 526.665 80.2371 525.991 80.9115L523.421 83.481L524.115 84.1753L526.809 81.482C527.754 80.5364 527.818 79.4192 526.908 78.5095C526.278 77.879 525.572 77.7394 524.961 77.903L524.945 77.887L525.536 77.2965L524.842 76.6022L520.692 80.7519ZM525.332 88.3441C526.457 89.4693 527.793 89.5451 528.755 88.5835L532.789 84.5496L532.095 83.8553L531.392 84.5576L531.376 84.5416C531.584 83.8234 531.44 83.0413 530.854 82.4548C529.8 81.4014 528.24 81.5171 526.952 82.8059L526.948 82.8099C525.651 84.1067 525.523 85.6628 526.568 86.7082C527.163 87.3027 527.937 87.4862 528.643 87.2748L528.659 87.2907L528.129 87.8214C527.486 88.4638 526.668 88.4518 525.938 87.7217C525.371 87.1551 525.16 86.5765 525.328 86.1456L525.348 86.0937L524.649 85.3955L524.621 85.4394C524.143 86.1895 524.306 87.3187 525.332 88.3441ZM527.335 86.2453C526.596 85.5072 526.716 84.4618 527.658 83.5201L527.662 83.5162C528.583 82.5945 529.637 82.4668 530.375 83.2049C531.077 83.9072 530.962 84.9885 530.048 85.9022L530.044 85.9062C529.122 86.8279 528.041 86.9516 527.335 86.2453Z" fill="#2F3441"/>
<rect x="426.594" y="5.05591" width="195.736" height="195.736" rx="7.22274" transform="rotate(45 426.594 5.05591)" fill="#FFAFA3"/>
<path d="M43.7504 79.9217L45.7651 77.907C47.5472 76.1249 47.4848 73.969 45.5948 72.079L45.5865 72.0707C43.7047 70.1889 41.5446 70.139 39.7709 71.9128L37.7562 73.9275L43.7504 79.9217ZM43.8252 78.501L39.1769 73.8527L40.394 72.6356C41.7523 71.2772 43.335 71.3479 44.8304 72.8433L44.8387 72.8516C46.3259 74.3387 46.4007 75.9256 45.0423 77.2839L43.8252 78.501ZM44.8213 68.7483C45.0747 68.4949 45.0705 68.092 44.8213 67.8427C44.5679 67.5893 44.1691 67.5893 43.9157 67.8427C43.6665 68.092 43.6623 68.4949 43.9157 68.7483C44.165 68.9975 44.5721 68.9975 44.8213 68.7483ZM49.5112 74.1609L50.234 73.4381L45.9138 69.118L45.191 69.8408L49.5112 74.1609ZM52.4887 71.1834L53.2281 70.444L50.4948 64.537L49.743 65.2888L52.0983 70.0369L52.0816 70.0535L47.3378 67.694L46.5776 68.4542L52.4887 71.1834ZM57.1321 66.7062C58.075 65.7632 58.2163 64.4921 57.643 63.6364L57.6098 63.5865L56.8994 64.2969L56.9244 64.3467C57.1695 64.841 57.0573 65.5015 56.509 66.0499C55.7405 66.8183 54.7311 66.7893 53.8255 65.9169L56.9368 62.8056L56.671 62.5397C55.3749 61.2437 53.7798 61.0858 52.6001 62.2656C51.4203 63.4453 51.574 65.1277 52.9116 66.4653L52.9158 66.4694C54.2741 67.8278 55.89 67.9482 57.1321 66.7062ZM53.2356 62.9094C53.867 62.278 54.7269 62.2074 55.6366 62.9759L53.273 65.3395C52.5461 64.4547 52.6084 63.5367 53.2356 62.9094ZM59.6859 63.9862L60.4087 63.2634L57.7086 60.5633C57.098 59.9526 57.0606 59.1841 57.6214 58.6234C57.7959 58.4489 57.9703 58.316 58.0493 58.2786L57.3472 57.5765C57.2808 57.6264 57.152 57.7136 57.0274 57.8382C56.5206 58.345 56.4251 59.0471 56.7615 59.666L56.7449 59.6826L56.047 58.9848L55.3658 59.666L59.6859 63.9862ZM65.5215 61.2246C66.6929 60.0532 66.7718 58.6616 65.7707 57.6605L61.571 53.4608L60.8482 54.1836L61.5793 54.9147L61.5627 54.9313C60.815 54.7153 60.0008 54.8648 59.3902 55.4755C58.2935 56.5721 58.414 58.1963 59.7557 59.5381L59.7599 59.5422C61.1099 60.8923 62.73 61.0252 63.8183 59.9368C64.4373 59.3179 64.6284 58.512 64.4082 57.7768L64.4248 57.7602L64.9773 58.3126C65.6461 58.9814 65.6336 59.833 64.8734 60.5932C64.2836 61.183 63.6813 61.4032 63.2326 61.2287L63.1786 61.208L62.4517 61.9349L62.4974 61.964C63.2783 62.4625 64.4539 62.2922 65.5215 61.2246ZM63.3365 59.1393C62.568 59.9078 61.4796 59.7831 60.4993 58.8028L60.4951 58.7987C59.5356 57.8391 59.4026 56.7424 60.1711 55.9739C60.9022 55.2428 62.028 55.3633 62.9792 56.3146L62.9834 56.3187C63.943 57.2783 64.0717 58.404 63.3365 59.1393ZM62.2348 51.3348C62.4882 51.0814 62.4841 50.6784 62.2348 50.4292C61.9814 50.1758 61.5827 50.1758 61.3293 50.4292C61.08 50.6784 61.0759 51.0814 61.3293 51.3348C61.5785 51.584 61.9856 51.584 62.2348 51.3348ZM66.9247 56.7474L67.6475 56.0246L63.3273 51.7045L62.6045 52.4273L66.9247 56.7474ZM68.6851 54.987L69.4079 54.2642L66.8657 51.7219C66.1304 50.9867 66.0889 50.0562 66.7702 49.3749C67.4348 48.7103 68.1493 48.7684 68.8513 49.4705L71.5265 52.1456L72.2493 51.4228L69.4453 48.6189C68.4608 47.6344 67.2977 47.5679 66.3506 48.515C65.6943 49.1714 65.5489 49.9066 65.7192 50.5422L65.7026 50.5588L65.0878 49.944L64.365 50.6668L68.6851 54.987ZM76.5894 50.1567C77.7608 48.9853 77.8397 47.5937 76.8386 46.5926L72.6389 42.3929L71.9161 43.1157L72.6472 43.8468L72.6306 43.8634C71.8829 43.6474 71.0687 43.7969 70.4581 44.4076C69.3614 45.5042 69.4819 47.1284 70.8236 48.4702L70.8278 48.4743C72.1778 49.8244 73.7979 49.9573 74.8862 48.869C75.5052 48.25 75.6963 47.4441 75.4761 46.7089L75.4927 46.6923L76.0452 47.2447C76.714 47.9135 76.7015 48.7651 75.9413 49.5253C75.3515 50.1151 74.7491 50.3353 74.3005 50.1608L74.2465 50.1401L73.5196 50.867L73.5653 50.8961C74.3462 51.3946 75.5218 51.2243 76.5894 50.1567ZM74.4044 48.0714C73.6359 48.8399 72.5475 48.7153 71.5672 47.7349L71.563 47.7308C70.6035 46.7712 70.4705 45.6745 71.239 44.906C71.9701 44.1749 73.0959 44.2954 74.0471 45.2467L74.0513 45.2508C75.0108 46.2104 75.1396 47.3361 74.4044 48.0714Z" fill="#2F3441"/>
<path d="M211.648 49.3703C212.902 50.6248 214.606 50.8408 215.981 49.9227L216.03 49.8895L215.274 49.1335L215.225 49.1584C214.174 49.686 213.177 49.5198 212.337 48.6807C211.145 47.4885 211.32 45.7604 212.778 44.3024L212.782 44.2982C214.24 42.8402 215.956 42.6699 217.152 43.8662C217.995 44.7095 218.161 45.723 217.667 46.6826L217.605 46.8031L218.361 47.5591L218.394 47.5093C219.3 46.1468 219.088 44.4229 217.842 43.1767C216.172 41.5067 213.899 41.6438 212.013 43.5297L212.009 43.5339C210.123 45.4198 209.982 47.7045 211.648 49.3703ZM216.732 54.4207C217.924 55.6129 219.594 55.5547 220.973 54.1756L220.981 54.1673C222.36 52.7882 222.406 51.1224 221.214 49.9302C220.022 48.738 218.356 48.792 216.981 50.167L216.973 50.1753C215.598 51.5503 215.531 53.2202 216.732 54.4207ZM217.375 53.7851C216.611 53.0208 216.694 51.9324 217.712 50.9147L217.72 50.9064C218.73 49.897 219.822 49.8181 220.574 50.5699C221.338 51.3343 221.255 52.4143 220.242 53.4279L220.233 53.4362C219.22 54.4498 218.136 54.5453 217.375 53.7851ZM219.597 57.1199L220.32 57.8427L222.862 55.3005C223.597 54.5652 224.528 54.5237 225.209 55.205C225.874 55.8696 225.816 56.5841 225.114 57.2861L222.438 59.9613L223.161 60.6841L225.965 57.8801C226.95 56.8956 227.016 55.7325 226.069 54.7854C225.413 54.1291 224.677 53.9837 224.042 54.154L224.025 54.1374L224.64 53.5226L223.917 52.7998L219.597 57.1199ZM225.354 62.8765L226.093 63.616L232 60.8826L231.248 60.1308L226.5 62.4861L226.483 62.4694L228.843 57.7256L228.083 56.9654L225.354 62.8765ZM229.831 67.5199C230.774 68.4628 232.045 68.6041 232.901 68.0308L232.95 67.9976L232.24 67.2872L232.19 67.3122C231.696 67.5573 231.035 67.4451 230.487 66.8968C229.719 66.1283 229.748 65.1189 230.62 64.2133L233.731 67.3246L233.997 67.0588C235.293 65.7627 235.451 64.1676 234.271 62.9879C233.092 61.8081 231.409 61.9618 230.072 63.2994L230.068 63.3036C228.709 64.6619 228.589 66.2778 229.831 67.5199ZM233.628 63.6234C234.259 64.2548 234.33 65.1147 233.561 66.0244L231.197 63.6608C232.082 62.9339 233 62.9962 233.628 63.6234ZM232.551 70.0737L233.274 70.7965L235.974 68.0964C236.584 67.4858 237.353 67.4484 237.914 68.0092C238.088 68.1837 238.221 68.3581 238.258 68.4371L238.96 67.7351C238.911 67.6686 238.823 67.5398 238.699 67.4152C238.192 66.9084 237.49 66.8129 236.871 67.1493L236.854 67.1327L237.552 66.4349L236.871 65.7536L232.551 70.0737ZM235.312 75.9093C236.484 77.0807 237.875 77.1596 238.877 76.1585L243.076 71.9588L242.353 71.236L241.622 71.9671L241.606 71.9505C241.822 71.2028 241.672 70.3886 241.062 69.778C239.965 68.6813 238.341 68.8018 236.999 70.1435L236.995 70.1477C235.645 71.4977 235.512 73.1178 236.6 74.2061C237.219 74.8251 238.025 75.0162 238.76 74.796L238.777 74.8126L238.224 75.3651C237.556 76.0339 236.704 76.0214 235.944 75.2612C235.354 74.6714 235.134 74.0691 235.308 73.6204L235.329 73.5664L234.602 72.8395L234.573 72.8852C234.074 73.6661 234.245 74.8417 235.312 75.9093ZM237.398 73.7243C236.629 72.9558 236.754 71.8674 237.734 70.8871L237.738 70.8829C238.698 69.9234 239.795 69.7904 240.563 70.5589C241.294 71.29 241.174 72.4158 240.222 73.367L240.218 73.3712C239.259 74.3308 238.133 74.4595 237.398 73.7243ZM245.202 72.6226C245.456 72.876 245.859 72.8719 246.108 72.6226C246.361 72.3692 246.361 71.9705 246.108 71.7171C245.859 71.4678 245.456 71.4637 245.202 71.7171C244.953 71.9663 244.953 72.3734 245.202 72.6226ZM239.79 77.3125L240.512 78.0353L244.833 73.7151L244.11 72.9923L239.79 77.3125ZM241.55 79.073L242.273 79.7957L244.815 77.2535C245.55 76.5182 246.481 76.4767 247.162 77.158C247.827 77.8226 247.769 78.5371 247.067 79.2391L244.391 81.9143L245.114 82.6371L247.918 79.8331C248.903 78.8486 248.969 77.6855 248.022 76.7384C247.366 76.0821 246.63 75.9367 245.995 76.107L245.978 76.0904L246.593 75.4756L245.87 74.7528L241.55 79.073ZM246.38 86.9772C247.552 88.1486 248.943 88.2275 249.944 87.2264L254.144 83.0267L253.421 82.3039L252.69 83.035L252.674 83.0184C252.89 82.2707 252.74 81.4565 252.129 80.8459C251.033 79.7492 249.409 79.8697 248.067 81.2114L248.063 81.2156C246.713 82.5656 246.58 84.1857 247.668 85.274C248.287 85.893 249.093 86.0841 249.828 85.8639L249.845 85.8805L249.292 86.433C248.623 87.1018 247.772 87.0893 247.012 86.3291C246.422 85.7393 246.202 85.1369 246.376 84.6883L246.397 84.6343L245.67 83.9074L245.641 83.9531C245.142 84.734 245.313 85.9096 246.38 86.9772ZM248.466 84.7922C247.697 84.0237 247.822 82.9353 248.802 81.955L248.806 81.9508C249.766 80.9913 250.862 80.8583 251.631 81.6268C252.362 82.3579 252.242 83.4837 251.29 84.4349L251.286 84.4391C250.327 85.3986 249.201 85.5274 248.466 84.7922Z" fill="#2F3441"/>
<rect x="144.094" width="203.779" height="203.779" rx="7.51953" transform="rotate(45 144.094 0)" fill="#A3FFDE"/>
<path opacity="0.5" d="M63.1933 163.761H64.6491V160.714H66.2235L67.826 163.761H69.485L67.7075 160.494C68.6555 160.149 69.2424 159.264 69.2424 158.169V158.158C69.2424 156.583 68.1815 155.618 66.4435 155.618H63.1933V163.761ZM64.6491 159.563V156.798H66.263C67.1771 156.798 67.7527 157.317 67.7527 158.169V158.18C67.7527 159.055 67.211 159.563 66.2912 159.563H64.6491ZM72.9429 163.879C74.5059 163.879 75.3862 162.954 75.5724 162.034L75.5893 161.972H74.2746L74.2633 162.012C74.1279 162.412 73.6708 162.785 72.9711 162.785C72.057 162.785 71.4814 162.164 71.4588 161.114H75.6458V160.663C75.6458 158.857 74.5849 157.655 72.8752 157.655C71.1654 157.655 70.0651 158.897 70.0651 160.781V160.787C70.0651 162.689 71.1485 163.879 72.9429 163.879ZM72.8921 158.756C73.6369 158.756 74.1786 159.23 74.2802 160.178H71.4758C71.5886 159.258 72.1473 158.756 72.8921 158.756ZM78.9626 163.879C80.4297 163.879 81.4736 163.123 81.4736 161.995V161.989C81.4736 161.12 80.994 160.635 79.7582 160.358L78.7594 160.138C78.1387 159.997 77.9074 159.771 77.9074 159.427V159.422C77.9074 158.981 78.2967 158.694 78.9174 158.694C79.572 158.694 79.9557 159.044 80.0178 159.523L80.0234 159.568H81.3325L81.3269 159.506C81.2761 158.474 80.4071 157.655 78.9174 157.655C77.4729 157.655 76.5193 158.395 76.5193 159.489V159.495C76.5193 160.381 77.0948 160.939 78.2403 161.193L79.2334 161.413C79.8541 161.555 80.0629 161.758 80.0629 162.119V162.124C80.0629 162.565 79.651 162.841 78.9682 162.841C78.2572 162.841 77.8679 162.536 77.7607 162.023L77.7494 161.972H76.3669L76.3726 162.023C76.4967 163.135 77.3939 163.879 78.9626 163.879ZM85.0726 163.879C86.6356 163.879 87.5159 162.954 87.7021 162.034L87.719 161.972H86.4043L86.393 162.012C86.2575 162.412 85.8005 162.785 85.1008 162.785C84.1867 162.785 83.6111 162.164 83.5885 161.114H87.7755V160.663C87.7755 158.857 86.7146 157.655 85.0049 157.655C83.2951 157.655 82.1948 158.897 82.1948 160.781V160.787C82.1948 162.689 83.2782 163.879 85.0726 163.879ZM85.0218 158.756C85.7666 158.756 86.3083 159.23 86.4099 160.178H83.6055C83.7183 159.258 84.2769 158.756 85.0218 158.756ZM90.5224 163.862C91.3123 163.862 91.9782 163.467 92.3224 162.841H92.3563V163.761H93.7613V159.647C93.7613 158.445 92.7964 157.655 91.3011 157.655C89.7831 157.655 88.8634 158.451 88.7787 159.512L88.7731 159.58H90.0766L90.0879 159.529C90.1781 159.089 90.5844 158.778 91.2503 158.778C91.9613 158.778 92.3563 159.145 92.3563 159.749V160.161L90.7932 160.257C89.343 160.347 88.5192 160.985 88.5192 162.045V162.057C88.5192 163.123 89.3261 163.862 90.5224 163.862ZM89.9186 162V161.995C89.9186 161.521 90.2966 161.222 90.9907 161.176L92.3563 161.092V161.543C92.3563 162.254 91.7468 162.79 90.9399 162.79C90.3249 162.79 89.9186 162.491 89.9186 162ZM94.9677 163.761H96.3728V160.257C96.3728 159.416 96.8524 158.902 97.648 158.902C97.885 158.902 98.0995 158.936 98.218 158.981V157.712C98.1107 157.684 97.9471 157.655 97.7722 157.655C97.0668 157.655 96.5421 158.079 96.3615 158.778H96.3333V157.78H94.9677V163.761ZM101.428 163.879C102.94 163.879 103.95 162.931 104.057 161.684L104.063 161.645H102.737L102.725 161.696C102.596 162.322 102.144 162.745 101.433 162.745C100.547 162.745 99.9717 162.023 99.9717 160.776V160.77C99.9717 159.546 100.542 158.795 101.428 158.795C102.172 158.795 102.601 159.264 102.72 159.845L102.731 159.896H104.057L104.051 159.85C103.967 158.654 102.985 157.655 101.411 157.655C99.667 157.655 98.5385 158.852 98.5385 160.759V160.765C98.5385 162.683 99.6501 163.879 101.428 163.879ZM105.015 163.761H106.42V160.313C106.42 159.444 106.939 158.84 107.735 158.84C108.542 158.84 109.005 159.393 109.005 160.313V163.761H110.41V160.037C110.41 158.592 109.586 157.655 108.299 157.655C107.402 157.655 106.764 158.067 106.454 158.784H106.42V155.618H105.015V163.761Z" fill="black"/>
<path opacity="0.5" d="M183.785 163.902C185.771 163.902 186.967 162.937 186.967 161.419V161.413C186.967 160.144 186.228 159.455 184.535 159.106L183.655 158.925C182.673 158.722 182.227 158.383 182.227 157.808V157.802C182.227 157.153 182.82 156.707 183.774 156.702C184.688 156.702 185.314 157.125 185.41 157.836L185.421 157.904H186.815L186.809 157.808C186.725 156.414 185.562 155.477 183.785 155.477C182.03 155.477 180.772 156.448 180.766 157.881V157.887C180.766 159.1 181.556 159.845 183.158 160.178L184.033 160.358C185.083 160.578 185.506 160.906 185.506 161.515V161.521C185.506 162.22 184.863 162.677 183.836 162.677C182.814 162.677 182.098 162.243 181.99 161.543L181.979 161.476H180.585L180.591 161.56C180.687 163.022 181.917 163.902 183.785 163.902ZM188.789 165.747C190.036 165.747 190.736 165.279 191.193 163.964L193.343 157.78H191.864L190.459 162.565H190.42L189.02 157.78H187.485L189.635 163.767L189.551 164.009C189.37 164.511 189.071 164.664 188.535 164.664C188.337 164.664 188.174 164.635 188.067 164.613V165.685C188.236 165.713 188.518 165.747 188.789 165.747ZM194.064 163.761H195.469V160.291C195.469 159.427 195.982 158.84 196.789 158.84C197.59 158.84 197.985 159.32 197.985 160.172V163.761H199.39V159.89C199.39 158.502 198.64 157.655 197.325 157.655C196.417 157.655 195.807 158.073 195.497 158.716H195.469V157.78H194.064V163.761ZM202.814 163.879C203.097 163.879 203.345 163.851 203.509 163.829V162.773C203.413 162.779 203.305 162.796 203.17 162.796C202.656 162.796 202.397 162.61 202.397 162.023V158.863H203.509V157.78H202.397V156.262H200.969V157.78H200.123V158.863H200.969V162.141C200.969 163.372 201.562 163.879 202.814 163.879ZM204.585 163.761H205.99V160.313C205.99 159.444 206.509 158.84 207.305 158.84C208.112 158.84 208.575 159.393 208.575 160.313V163.761H209.98V160.037C209.98 158.592 209.156 157.655 207.869 157.655C206.972 157.655 206.334 158.067 206.024 158.784H205.99V155.618H204.585V163.761ZM213.816 163.879C215.379 163.879 216.259 162.954 216.445 162.034L216.462 161.972H215.147L215.136 162.012C215.001 162.412 214.543 162.785 213.844 162.785C212.93 162.785 212.354 162.164 212.332 161.114H216.518V160.663C216.518 158.857 215.458 157.655 213.748 157.655C212.038 157.655 210.938 158.897 210.938 160.781V160.787C210.938 162.689 212.021 163.879 213.816 163.879ZM213.765 158.756C214.51 158.756 215.051 159.23 215.153 160.178H212.348C212.461 159.258 213.02 158.756 213.765 158.756ZM219.835 163.879C221.302 163.879 222.346 163.123 222.346 161.995V161.989C222.346 161.12 221.867 160.635 220.631 160.358L219.632 160.138C219.011 159.997 218.78 159.771 218.78 159.427V159.422C218.78 158.981 219.169 158.694 219.79 158.694C220.445 158.694 220.828 159.044 220.89 159.523L220.896 159.568H222.205L222.2 159.506C222.149 158.474 221.28 157.655 219.79 157.655C218.346 157.655 217.392 158.395 217.392 159.489V159.495C217.392 160.381 217.968 160.939 219.113 161.193L220.106 161.413C220.727 161.555 220.936 161.758 220.936 162.119V162.124C220.936 162.565 220.524 162.841 219.841 162.841C219.13 162.841 218.741 162.536 218.633 162.023L218.622 161.972H217.24L217.245 162.023C217.369 163.135 218.267 163.879 219.835 163.879ZM224.061 156.922C224.501 156.922 224.839 156.572 224.839 156.154C224.839 155.726 224.501 155.381 224.061 155.381C223.62 155.381 223.276 155.726 223.276 156.154C223.276 156.572 223.62 156.922 224.061 156.922ZM223.355 163.761H224.76V157.78H223.355V163.761ZM228.365 163.879C229.832 163.879 230.876 163.123 230.876 161.995V161.989C230.876 161.12 230.396 160.635 229.161 160.358L228.162 160.138C227.541 159.997 227.31 159.771 227.31 159.427V159.422C227.31 158.981 227.699 158.694 228.32 158.694C228.974 158.694 229.358 159.044 229.42 159.523L229.426 159.568H230.735L230.729 159.506C230.678 158.474 229.809 157.655 228.32 157.655C226.875 157.655 225.922 158.395 225.922 159.489V159.495C225.922 160.381 226.497 160.939 227.643 161.193L228.636 161.413C229.256 161.555 229.465 161.758 229.465 162.119V162.124C229.465 162.565 229.053 162.841 228.371 162.841C227.66 162.841 227.27 162.536 227.163 162.023L227.152 161.972H225.769L225.775 162.023C225.899 163.135 226.796 163.879 228.365 163.879Z" fill="black"/>
<path opacity="0.5" d="M333.685 167.011H335.141V158.869H333.685V167.011ZM338.728 167.13C339.592 167.13 340.252 166.701 340.591 165.995H340.624V167.011H342.029V158.869H340.624V162.057H340.591C340.252 161.34 339.569 160.906 338.723 160.906C337.222 160.906 336.257 162.085 336.257 164.015V164.02C336.257 165.945 337.216 167.13 338.728 167.13ZM339.152 165.945C338.249 165.945 337.69 165.211 337.69 164.02V164.015C337.69 162.824 338.254 162.091 339.152 162.091C340.015 162.091 340.624 162.847 340.624 164.015V164.02C340.624 165.194 340.021 165.945 339.152 165.945ZM345.911 167.13C347.474 167.13 348.354 166.204 348.54 165.284L348.557 165.222H347.242L347.231 165.262C347.095 165.662 346.638 166.035 345.939 166.035C345.025 166.035 344.449 165.414 344.426 164.365H348.613V163.913C348.613 162.108 347.553 160.906 345.843 160.906C344.133 160.906 343.033 162.147 343.033 164.032V164.037C343.033 165.939 344.116 167.13 345.911 167.13ZM345.86 162.006C346.605 162.006 347.146 162.48 347.248 163.428H344.443C344.556 162.508 345.115 162.006 345.86 162.006ZM351.36 167.113C352.15 167.113 352.816 166.718 353.16 166.091H353.194V167.011H354.599V162.898C354.599 161.696 353.634 160.906 352.139 160.906C350.621 160.906 349.701 161.701 349.617 162.762L349.611 162.83H350.915L350.926 162.779C351.016 162.339 351.422 162.029 352.088 162.029C352.799 162.029 353.194 162.395 353.194 162.999V163.411L351.631 163.507C350.181 163.597 349.357 164.235 349.357 165.296V165.307C349.357 166.373 350.164 167.113 351.36 167.113ZM350.757 165.251V165.245C350.757 164.771 351.135 164.472 351.829 164.427L353.194 164.342V164.794C353.194 165.504 352.585 166.041 351.778 166.041C351.163 166.041 350.757 165.741 350.757 165.251ZM358.029 167.13C358.311 167.13 358.559 167.101 358.723 167.079V166.024C358.627 166.029 358.52 166.046 358.384 166.046C357.871 166.046 357.611 165.86 357.611 165.273V162.113H358.723V161.03H357.611V159.512H356.184V161.03H355.337V162.113H356.184V165.392C356.184 166.622 356.776 167.13 358.029 167.13ZM360.505 160.172C360.945 160.172 361.284 159.822 361.284 159.405C361.284 158.976 360.945 158.632 360.505 158.632C360.065 158.632 359.721 158.976 359.721 159.405C359.721 159.822 360.065 160.172 360.505 160.172ZM359.8 167.011H361.205V161.03H359.8V167.011ZM365.12 167.13C366.875 167.13 368.014 165.962 368.014 164.02V164.009C368.014 162.079 366.858 160.906 365.114 160.906C363.376 160.906 362.225 162.091 362.225 164.009V164.02C362.225 165.956 363.359 167.13 365.12 167.13ZM365.125 165.995C364.228 165.995 363.658 165.279 363.658 164.02V164.009C363.658 162.768 364.239 162.045 365.114 162.045C366.006 162.045 366.581 162.762 366.581 164.009V164.02C366.581 165.273 366.011 165.995 365.125 165.995ZM368.989 167.011H370.394V163.541C370.394 162.677 370.908 162.091 371.715 162.091C372.516 162.091 372.911 162.57 372.911 163.422V167.011H374.316V163.14C374.316 161.752 373.566 160.906 372.251 160.906C371.342 160.906 370.733 161.323 370.423 161.966H370.394V161.03H368.989V167.011Z" fill="black"/>
<path opacity="0.5" d="M483.021 164.122H484.471V157.204H486.903V155.98H480.583V157.204H483.021V164.122ZM489.063 164.241C490.626 164.241 491.506 163.315 491.692 162.395L491.709 162.333H490.395L490.383 162.373C490.248 162.773 489.791 163.146 489.091 163.146C488.177 163.146 487.601 162.525 487.579 161.476H491.766V161.024C491.766 159.219 490.705 158.017 488.995 158.017C487.285 158.017 486.185 159.258 486.185 161.143V161.148C486.185 163.05 487.268 164.241 489.063 164.241ZM489.012 159.117C489.757 159.117 490.299 159.591 490.4 160.539H487.596C487.709 159.619 488.267 159.117 489.012 159.117ZM495.083 164.241C496.55 164.241 497.594 163.484 497.594 162.356V162.35C497.594 161.481 497.114 160.996 495.878 160.719L494.879 160.499C494.259 160.358 494.027 160.133 494.027 159.788V159.783C494.027 159.343 494.417 159.055 495.037 159.055C495.692 159.055 496.076 159.405 496.138 159.884L496.143 159.929H497.452L497.447 159.867C497.396 158.835 496.527 158.017 495.037 158.017C493.593 158.017 492.639 158.756 492.639 159.85V159.856C492.639 160.742 493.215 161.301 494.36 161.555L495.353 161.775C495.974 161.916 496.183 162.119 496.183 162.48V162.486C496.183 162.926 495.771 163.202 495.088 163.202C494.377 163.202 493.988 162.898 493.881 162.384L493.869 162.333H492.487L492.492 162.384C492.617 163.496 493.514 164.241 495.083 164.241ZM500.786 164.241C501.068 164.241 501.317 164.212 501.48 164.19V163.135C501.384 163.14 501.277 163.157 501.142 163.157C500.628 163.157 500.369 162.971 500.369 162.384V159.224H501.48V158.141H500.369V156.623H498.941V158.141H498.095V159.224H498.941V162.503C498.941 163.733 499.534 164.241 500.786 164.241ZM503.262 157.283C503.702 157.283 504.041 156.933 504.041 156.516C504.041 156.087 503.702 155.743 503.262 155.743C502.822 155.743 502.478 156.087 502.478 156.516C502.478 156.933 502.822 157.283 503.262 157.283ZM502.557 164.122H503.962V158.141H502.557V164.122ZM505.23 164.122H506.636V160.652C506.636 159.788 507.149 159.202 507.956 159.202C508.757 159.202 509.152 159.681 509.152 160.533V164.122H510.557V160.251C510.557 158.863 509.807 158.017 508.492 158.017C507.583 158.017 506.974 158.434 506.664 159.077H506.636V158.141H505.23V164.122ZM514.455 166.216C516.188 166.216 517.277 165.307 517.277 163.953V158.141H515.872V159.156H515.838C515.499 158.468 514.845 158.017 513.998 158.017C512.486 158.017 511.51 159.179 511.51 161.069V161.075C511.51 162.937 512.475 164.088 513.976 164.088C514.833 164.088 515.51 163.682 515.843 163.044H515.872V163.908C515.872 164.669 515.369 165.155 514.455 165.155C513.722 165.155 513.242 164.895 513.09 164.551L513.073 164.506H511.69L511.702 164.557C511.871 165.493 512.87 166.216 514.455 166.216ZM514.416 163.005C513.513 163.005 512.943 162.277 512.943 161.098V161.092C512.943 159.929 513.513 159.202 514.416 159.202C515.285 159.202 515.877 159.941 515.877 161.098V161.103C515.877 162.266 515.29 163.005 514.416 163.005Z" fill="black"/>
<path d="M64.999 144.26H67.9727C70.4104 144.26 71.8437 142.747 71.8437 140.169V140.157C71.8437 137.584 70.3991 136.117 67.9727 136.117H64.999V144.26ZM66.4548 143.029V137.347H67.8204C69.4398 137.347 70.3596 138.346 70.3596 140.163V140.174C70.3596 142.031 69.4568 143.029 67.8204 143.029H66.4548ZM73.6764 137.42C74.1166 137.42 74.4551 137.071 74.4551 136.653C74.4551 136.224 74.1166 135.88 73.6764 135.88C73.2363 135.88 72.8921 136.224 72.8921 136.653C72.8921 137.071 73.2363 137.42 73.6764 137.42ZM72.9711 144.26H74.3761V138.278H72.9711V144.26ZM77.9807 144.378C79.4478 144.378 80.4918 143.622 80.4918 142.493V142.488C80.4918 141.619 80.0121 141.133 78.7764 140.857L77.7776 140.637C77.1569 140.496 76.9255 140.27 76.9255 139.926V139.92C76.9255 139.48 77.3149 139.192 77.9356 139.192C78.5901 139.192 78.9739 139.542 79.0359 140.022L79.0416 140.067H80.3507L80.345 140.005C80.2943 138.972 79.4253 138.154 77.9356 138.154C76.491 138.154 75.5374 138.893 75.5374 139.988V139.994C75.5374 140.88 76.113 141.438 77.2585 141.692L78.2516 141.912C78.8723 142.053 79.0811 142.256 79.0811 142.617V142.623C79.0811 143.063 78.6691 143.34 77.9864 143.34C77.2754 143.34 76.886 143.035 76.7788 142.522L76.7675 142.471H75.3851L75.3907 142.522C75.5148 143.633 76.412 144.378 77.9807 144.378ZM84.102 144.378C85.6143 144.378 86.6243 143.43 86.7315 142.183L86.7372 142.143H85.4111L85.3998 142.194C85.27 142.821 84.8186 143.244 84.1076 143.244C83.2217 143.244 82.6462 142.522 82.6462 141.274V141.269C82.6462 140.044 83.2161 139.294 84.102 139.294C84.8468 139.294 85.2757 139.762 85.3942 140.343L85.4055 140.394H86.7315L86.7259 140.349C86.6412 139.153 85.6594 138.154 84.0851 138.154C82.3415 138.154 81.2129 139.35 81.2129 141.258V141.263C81.2129 143.182 82.3245 144.378 84.102 144.378ZM90.2966 144.378C92.0515 144.378 93.1914 143.21 93.1914 141.269V141.258C93.1914 139.328 92.0346 138.154 90.291 138.154C88.553 138.154 87.4019 139.339 87.4019 141.258V141.269C87.4019 143.204 88.5361 144.378 90.2966 144.378ZM90.3023 143.244C89.4051 143.244 88.8351 142.527 88.8351 141.269V141.258C88.8351 140.016 89.4163 139.294 90.291 139.294C91.1825 139.294 91.7581 140.011 91.7581 141.258V141.269C91.7581 142.522 91.1882 143.244 90.3023 143.244ZM95.5658 144.26H97.112L99.2167 138.278H97.7496L96.3671 142.956H96.3333L94.9451 138.278H93.4498L95.5658 144.26ZM102.353 144.378C103.916 144.378 104.796 143.453 104.982 142.533L104.999 142.471H103.685L103.673 142.51C103.538 142.911 103.081 143.283 102.381 143.283C101.467 143.283 100.891 142.663 100.869 141.613H105.056V141.162C105.056 139.356 103.995 138.154 102.285 138.154C100.575 138.154 99.4751 139.395 99.4751 141.28V141.286C99.4751 143.187 100.559 144.378 102.353 144.378ZM102.302 139.254C103.047 139.254 103.589 139.728 103.69 140.676H100.886C100.999 139.757 101.557 139.254 102.302 139.254ZM106.037 144.26H107.442V140.755C107.442 139.915 107.921 139.401 108.717 139.401C108.954 139.401 109.168 139.435 109.287 139.48V138.21C109.18 138.182 109.016 138.154 108.841 138.154C108.136 138.154 107.611 138.577 107.43 139.277H107.402V138.278H106.037V144.26Z" fill="#2F3441"/>
<path d="M189.591 144.26H192.565C195.003 144.26 196.436 142.747 196.436 140.169V140.157C196.436 137.584 194.991 136.117 192.565 136.117H189.591V144.26ZM191.047 143.029V137.347H192.413C194.032 137.347 194.952 138.346 194.952 140.163V140.174C194.952 142.031 194.049 143.029 192.413 143.029H191.047ZM200.153 144.378C201.716 144.378 202.597 143.453 202.783 142.533L202.8 142.471H201.485L201.474 142.51C201.338 142.911 200.881 143.283 200.182 143.283C199.267 143.283 198.692 142.663 198.669 141.613H202.856V141.162C202.856 139.356 201.795 138.154 200.086 138.154C198.376 138.154 197.276 139.395 197.276 141.28V141.286C197.276 143.187 198.359 144.378 200.153 144.378ZM200.103 139.254C200.847 139.254 201.389 139.728 201.491 140.676H198.686C198.799 139.757 199.358 139.254 200.103 139.254ZM204.226 144.26H205.631V139.362H206.805V138.278H205.603V137.748C205.603 137.262 205.857 137.009 206.404 137.009C206.557 137.009 206.715 137.02 206.828 137.037V136.055C206.653 136.021 206.354 135.999 206.077 135.999C204.779 135.999 204.226 136.54 204.226 137.708V138.278H203.408V139.362H204.226V144.26ZM208.548 137.42C208.988 137.42 209.326 137.071 209.326 136.653C209.326 136.224 208.988 135.88 208.548 135.88C208.107 135.88 207.763 136.224 207.763 136.653C207.763 137.071 208.107 137.42 208.548 137.42ZM207.842 144.26H209.247V138.278H207.842V144.26ZM210.516 144.26H211.921V140.789C211.921 139.926 212.434 139.339 213.241 139.339C214.042 139.339 214.437 139.819 214.437 140.671V144.26H215.843V140.389C215.843 139 215.092 138.154 213.777 138.154C212.869 138.154 212.259 138.572 211.949 139.215H211.921V138.278H210.516V144.26ZM219.673 144.378C221.236 144.378 222.116 143.453 222.302 142.533L222.319 142.471H221.005L220.993 142.51C220.858 142.911 220.401 143.283 219.701 143.283C218.787 143.283 218.211 142.663 218.189 141.613H222.376V141.162C222.376 139.356 221.315 138.154 219.605 138.154C217.895 138.154 216.795 139.395 216.795 141.28V141.286C216.795 143.187 217.878 144.378 219.673 144.378ZM219.622 139.254C220.367 139.254 220.909 139.728 221.01 140.676H218.206C218.319 139.757 218.877 139.254 219.622 139.254Z" fill="#2F3441"/>
<path d="M333.437 144.26H336.41C338.848 144.26 340.281 142.747 340.281 140.169V140.157C340.281 137.584 338.837 136.117 336.41 136.117H333.437V144.26ZM334.892 143.029V137.347H336.258C337.877 137.347 338.797 138.346 338.797 140.163V140.174C338.797 142.031 337.894 143.029 336.258 143.029H334.892ZM343.999 144.378C345.562 144.378 346.442 143.453 346.628 142.533L346.645 142.471H345.33L345.319 142.51C345.184 142.911 344.727 143.283 344.027 143.283C343.113 143.283 342.537 142.663 342.515 141.613H346.702V141.162C346.702 139.356 345.641 138.154 343.931 138.154C342.221 138.154 341.121 139.395 341.121 141.28V141.286C341.121 143.187 342.204 144.378 343.999 144.378ZM343.948 139.254C344.693 139.254 345.234 139.728 345.336 140.676H342.532C342.644 139.757 343.203 139.254 343.948 139.254ZM349.07 144.26H350.617L352.721 138.278H351.254L349.872 142.956H349.838L348.45 138.278H346.954L349.07 144.26ZM355.858 144.378C357.421 144.378 358.301 143.453 358.487 142.533L358.504 142.471H357.189L357.178 142.51C357.043 142.911 356.585 143.283 355.886 143.283C354.972 143.283 354.396 142.663 354.374 141.613H358.56V141.162C358.56 139.356 357.5 138.154 355.79 138.154C354.08 138.154 352.98 139.395 352.98 141.28V141.286C352.98 143.187 354.063 144.378 355.858 144.378ZM355.807 139.254C356.552 139.254 357.093 139.728 357.195 140.676H354.39C354.503 139.757 355.062 139.254 355.807 139.254ZM359.581 144.26H360.986V136.117H359.581V144.26ZM364.901 144.378C366.656 144.378 367.795 143.21 367.795 141.269V141.258C367.795 139.328 366.639 138.154 364.895 138.154C363.157 138.154 362.006 139.339 362.006 141.258V141.269C362.006 143.204 363.14 144.378 364.901 144.378ZM364.906 143.244C364.009 143.244 363.439 142.527 363.439 141.269V141.258C363.439 140.016 364.02 139.294 364.895 139.294C365.787 139.294 366.362 140.011 366.362 141.258V141.269C366.362 142.522 365.792 143.244 364.906 143.244ZM368.77 146.234H370.176V143.249H370.204C370.542 143.949 371.225 144.378 372.077 144.378C373.578 144.378 374.537 143.193 374.537 141.274V141.269C374.537 139.339 373.578 138.154 372.06 138.154C371.202 138.154 370.548 138.594 370.204 139.311H370.176V138.278H368.77V146.234ZM371.643 143.193C370.774 143.193 370.164 142.443 370.164 141.274V141.269C370.164 140.095 370.774 139.339 371.643 139.339C372.54 139.339 373.104 140.073 373.104 141.269V141.274C373.104 142.454 372.54 143.193 371.643 143.193Z" fill="#2F3441"/>
<path d="M482.473 143.898H485.447C487.885 143.898 489.318 142.386 489.318 139.807V139.796C489.318 137.223 487.873 135.756 485.447 135.756H482.473V143.898ZM483.929 142.668V136.986H485.295C486.914 136.986 487.834 137.985 487.834 139.802V139.813C487.834 141.67 486.931 142.668 485.295 142.668H483.929ZM493.035 144.017C494.598 144.017 495.479 143.092 495.665 142.172L495.682 142.11H494.367L494.356 142.149C494.22 142.55 493.763 142.922 493.064 142.922C492.149 142.922 491.574 142.302 491.551 141.252H495.738V140.801C495.738 138.995 494.677 137.793 492.968 137.793C491.258 137.793 490.158 139.034 490.158 140.919V140.925C490.158 142.826 491.241 144.017 493.035 144.017ZM492.985 138.893C493.729 138.893 494.271 139.367 494.373 140.315H491.568C491.681 139.396 492.24 138.893 492.985 138.893ZM496.758 143.898H498.163V135.756H496.758V143.898ZM500.177 137.059C500.617 137.059 500.956 136.71 500.956 136.292C500.956 135.863 500.617 135.519 500.177 135.519C499.737 135.519 499.392 135.863 499.392 136.292C499.392 136.71 499.737 137.059 500.177 137.059ZM499.471 143.898H500.877V137.917H499.471V143.898ZM503.759 143.898H505.305L507.41 137.917H505.943L504.56 142.595H504.526L503.138 137.917H501.643L503.759 143.898ZM510.546 144.017C512.109 144.017 512.989 143.092 513.176 142.172L513.192 142.11H511.878L511.866 142.149C511.731 142.55 511.274 142.922 510.574 142.922C509.66 142.922 509.084 142.302 509.062 141.252H513.249V140.801C513.249 138.995 512.188 137.793 510.478 137.793C508.769 137.793 507.668 139.034 507.668 140.919V140.925C507.668 142.826 508.752 144.017 510.546 144.017ZM510.495 138.893C511.24 138.893 511.782 139.367 511.883 140.315H509.079C509.192 139.396 509.75 138.893 510.495 138.893ZM514.23 143.898H515.635V140.394C515.635 139.554 516.114 139.04 516.91 139.04C517.147 139.04 517.361 139.074 517.48 139.119V137.849C517.373 137.821 517.209 137.793 517.034 137.793C516.329 137.793 515.804 138.216 515.623 138.916H515.595V137.917H514.23V143.898Z" fill="#2F3441"/>
</svg>
