<svg width="881" height="208" viewBox="0 0 881 208" fill="none" xmlns="http://www.w3.org/2000/svg">
<rect x="1" y="1" width="879" height="206" stroke="#CCDACF" stroke-width="2"/>
<path d="M107.383 81.2H111.271V98H107.383V81.2ZM99.7511 98H95.8631V81.2H99.7511V98ZM107.671 91.112H99.4631V87.824H107.671V91.112ZM121.126 98.192C119.75 98.192 118.526 97.904 117.454 97.328C116.398 96.752 115.558 95.968 114.934 94.976C114.326 93.968 114.022 92.824 114.022 91.544C114.022 90.248 114.326 89.104 114.934 88.112C115.558 87.104 116.398 86.32 117.454 85.76C118.526 85.184 119.75 84.896 121.126 84.896C122.486 84.896 123.702 85.184 124.774 85.76C125.846 86.32 126.686 87.096 127.294 88.088C127.902 89.08 128.206 90.232 128.206 91.544C128.206 92.824 127.902 93.968 127.294 94.976C126.686 95.968 125.846 96.752 124.774 97.328C123.702 97.904 122.486 98.192 121.126 98.192ZM121.126 95.12C121.75 95.12 122.31 94.976 122.806 94.688C123.302 94.4 123.694 93.992 123.982 93.464C124.27 92.92 124.414 92.28 124.414 91.544C124.414 90.792 124.27 90.152 123.982 89.624C123.694 89.096 123.302 88.688 122.806 88.4C122.31 88.112 121.75 87.968 121.126 87.968C120.502 87.968 119.942 88.112 119.446 88.4C118.95 88.688 118.55 89.096 118.246 89.624C117.958 90.152 117.814 90.792 117.814 91.544C117.814 92.28 117.958 92.92 118.246 93.464C118.55 93.992 118.95 94.4 119.446 94.688C119.942 94.976 120.502 95.12 121.126 95.12ZM133.309 98L128.653 85.088H132.181L136.045 96.2H134.365L138.397 85.088H141.565L145.477 96.2H143.797L147.781 85.088H151.093L146.413 98H142.789L139.357 88.472H140.461L136.909 98H133.309ZM176.166 84.896C177.19 84.896 178.094 85.104 178.878 85.52C179.678 85.92 180.302 86.544 180.75 87.392C181.214 88.224 181.446 89.296 181.446 90.608V98H177.702V91.184C177.702 90.144 177.486 89.376 177.054 88.88C176.622 88.384 176.014 88.136 175.23 88.136C174.686 88.136 174.198 88.264 173.766 88.52C173.334 88.76 172.998 89.128 172.758 89.624C172.518 90.12 172.398 90.752 172.398 91.52V98H168.654V91.184C168.654 90.144 168.438 89.376 168.006 88.88C167.59 88.384 166.99 88.136 166.206 88.136C165.662 88.136 165.174 88.264 164.742 88.52C164.31 88.76 163.974 89.128 163.734 89.624C163.494 90.12 163.374 90.752 163.374 91.52V98H159.63V85.088H163.206V88.616L162.534 87.584C162.982 86.704 163.614 86.04 164.43 85.592C165.262 85.128 166.206 84.896 167.262 84.896C168.446 84.896 169.478 85.2 170.358 85.808C171.254 86.4 171.846 87.312 172.134 88.544L170.814 88.184C171.246 87.176 171.934 86.376 172.878 85.784C173.838 85.192 174.934 84.896 176.166 84.896ZM184.802 98V85.088H188.546V98H184.802ZM186.674 83.288C185.986 83.288 185.426 83.088 184.994 82.688C184.562 82.288 184.346 81.792 184.346 81.2C184.346 80.608 184.562 80.112 184.994 79.712C185.426 79.312 185.986 79.112 186.674 79.112C187.362 79.112 187.922 79.304 188.354 79.688C188.786 80.056 189.002 80.536 189.002 81.128C189.002 81.752 188.786 82.272 188.354 82.688C187.938 83.088 187.378 83.288 186.674 83.288ZM198.093 102.848C196.877 102.848 195.701 102.696 194.565 102.392C193.445 102.104 192.509 101.664 191.757 101.072L193.245 98.384C193.789 98.832 194.477 99.184 195.309 99.44C196.157 99.712 196.989 99.848 197.805 99.848C199.133 99.848 200.093 99.552 200.685 98.96C201.293 98.368 201.597 97.488 201.597 96.32V94.376L201.837 91.136L201.789 87.872V85.088H205.341V95.84C205.341 98.24 204.717 100.008 203.469 101.144C202.221 102.28 200.429 102.848 198.093 102.848ZM197.517 97.376C196.317 97.376 195.229 97.12 194.253 96.608C193.293 96.08 192.517 95.352 191.925 94.424C191.349 93.48 191.061 92.384 191.061 91.136C191.061 89.872 191.349 88.776 191.925 87.848C192.517 86.904 193.293 86.176 194.253 85.664C195.229 85.152 196.317 84.896 197.517 84.896C198.605 84.896 199.565 85.12 200.397 85.568C201.229 86 201.877 86.68 202.341 87.608C202.805 88.52 203.037 89.696 203.037 91.136C203.037 92.56 202.805 93.736 202.341 94.664C201.877 95.576 201.229 96.256 200.397 96.704C199.565 97.152 198.605 97.376 197.517 97.376ZM198.261 94.304C198.917 94.304 199.501 94.176 200.013 93.92C200.525 93.648 200.925 93.272 201.213 92.792C201.501 92.312 201.645 91.76 201.645 91.136C201.645 90.496 201.501 89.944 201.213 89.48C200.925 89 200.525 88.632 200.013 88.376C199.501 88.104 198.917 87.968 198.261 87.968C197.605 87.968 197.021 88.104 196.509 88.376C195.997 88.632 195.589 89 195.285 89.48C194.997 89.944 194.853 90.496 194.853 91.136C194.853 91.76 194.997 92.312 195.285 92.792C195.589 93.272 195.997 93.648 196.509 93.92C197.021 94.176 197.605 94.304 198.261 94.304ZM216.674 84.896C217.698 84.896 218.61 85.104 219.41 85.52C220.226 85.92 220.866 86.544 221.33 87.392C221.794 88.224 222.026 89.296 222.026 90.608V98H218.282V91.184C218.282 90.144 218.05 89.376 217.586 88.88C217.138 88.384 216.498 88.136 215.666 88.136C215.074 88.136 214.538 88.264 214.058 88.52C213.594 88.76 213.226 89.136 212.954 89.648C212.698 90.16 212.57 90.816 212.57 91.616V98H208.826V80.192H212.57V88.664L211.73 87.584C212.194 86.72 212.858 86.056 213.722 85.592C214.586 85.128 215.57 84.896 216.674 84.896ZM230.699 98.192C229.179 98.192 227.995 97.808 227.147 97.04C226.299 96.256 225.875 95.096 225.875 93.56V82.232H229.619V93.512C229.619 94.056 229.763 94.48 230.051 94.784C230.339 95.072 230.731 95.216 231.227 95.216C231.819 95.216 232.323 95.056 232.739 94.736L233.747 97.376C233.363 97.648 232.899 97.856 232.355 98C231.827 98.128 231.275 98.192 230.699 98.192ZM223.883 88.256V85.376H232.835V88.256H223.883ZM245.598 98L240.942 85.088H244.47L248.334 96.2H246.654L250.686 85.088H253.854L257.766 96.2H256.086L260.07 85.088H263.382L258.702 98H255.078L251.646 88.472H252.75L249.198 98H245.598ZM271.179 98.192C269.707 98.192 268.411 97.904 267.291 97.328C266.187 96.752 265.331 95.968 264.723 94.976C264.115 93.968 263.811 92.824 263.811 91.544C263.811 90.248 264.107 89.104 264.699 88.112C265.307 87.104 266.131 86.32 267.171 85.76C268.211 85.184 269.387 84.896 270.699 84.896C271.963 84.896 273.099 85.168 274.107 85.712C275.131 86.24 275.939 87.008 276.531 88.016C277.123 89.008 277.419 90.2 277.419 91.592C277.419 91.736 277.411 91.904 277.395 92.096C277.379 92.272 277.363 92.44 277.347 92.6H266.859V90.416H275.379L273.939 91.064C273.939 90.392 273.803 89.808 273.531 89.312C273.259 88.816 272.883 88.432 272.403 88.16C271.923 87.872 271.363 87.728 270.723 87.728C270.083 87.728 269.515 87.872 269.019 88.16C268.539 88.432 268.163 88.824 267.891 89.336C267.619 89.832 267.483 90.424 267.483 91.112V91.688C267.483 92.392 267.635 93.016 267.939 93.56C268.259 94.088 268.699 94.496 269.259 94.784C269.835 95.056 270.507 95.192 271.275 95.192C271.963 95.192 272.563 95.088 273.075 94.88C273.603 94.672 274.083 94.36 274.515 93.944L276.507 96.104C275.915 96.776 275.171 97.296 274.275 97.664C273.379 98.016 272.347 98.192 271.179 98.192ZM294.556 84.896C295.58 84.896 296.492 85.104 297.292 85.52C298.108 85.92 298.748 86.544 299.212 87.392C299.676 88.224 299.908 89.296 299.908 90.608V98H296.164V91.184C296.164 90.144 295.932 89.376 295.468 88.88C295.02 88.384 294.38 88.136 293.548 88.136C292.956 88.136 292.42 88.264 291.94 88.52C291.476 88.76 291.108 89.136 290.836 89.648C290.58 90.16 290.452 90.816 290.452 91.616V98H286.708V80.192H290.452V88.664L289.612 87.584C290.076 86.72 290.74 86.056 291.604 85.592C292.468 85.128 293.452 84.896 294.556 84.896ZM309.804 98.192C308.332 98.192 307.036 97.904 305.916 97.328C304.812 96.752 303.956 95.968 303.348 94.976C302.74 93.968 302.436 92.824 302.436 91.544C302.436 90.248 302.732 89.104 303.324 88.112C303.932 87.104 304.756 86.32 305.796 85.76C306.836 85.184 308.012 84.896 309.324 84.896C310.588 84.896 311.724 85.168 312.732 85.712C313.756 86.24 314.564 87.008 315.156 88.016C315.748 89.008 316.044 90.2 316.044 91.592C316.044 91.736 316.036 91.904 316.02 92.096C316.004 92.272 315.988 92.44 315.972 92.6H305.484V90.416H314.004L312.564 91.064C312.564 90.392 312.428 89.808 312.156 89.312C311.884 88.816 311.508 88.432 311.028 88.16C310.548 87.872 309.988 87.728 309.348 87.728C308.708 87.728 308.14 87.872 307.644 88.16C307.164 88.432 306.788 88.824 306.516 89.336C306.244 89.832 306.108 90.424 306.108 91.112V91.688C306.108 92.392 306.26 93.016 306.564 93.56C306.884 94.088 307.324 94.496 307.884 94.784C308.46 95.056 309.132 95.192 309.9 95.192C310.588 95.192 311.188 95.088 311.7 94.88C312.228 94.672 312.708 94.36 313.14 93.944L315.132 96.104C314.54 96.776 313.796 97.296 312.9 97.664C312.004 98.016 310.972 98.192 309.804 98.192ZM318.537 98V80.192H322.281V98H318.537ZM333.387 98.192C332.299 98.192 331.347 97.952 330.531 97.472C329.715 96.992 329.075 96.264 328.611 95.288C328.163 94.296 327.939 93.048 327.939 91.544C327.939 90.024 328.155 88.776 328.587 87.8C329.019 86.824 329.643 86.096 330.459 85.616C331.275 85.136 332.251 84.896 333.387 84.896C334.603 84.896 335.691 85.176 336.651 85.736C337.627 86.28 338.395 87.048 338.955 88.04C339.531 89.032 339.819 90.2 339.819 91.544C339.819 92.904 339.531 94.08 338.955 95.072C338.395 96.064 337.627 96.832 336.651 97.376C335.691 97.92 334.603 98.192 333.387 98.192ZM325.755 102.656V85.088H329.331V87.728L329.259 91.568L329.499 95.384V102.656H325.755ZM332.739 95.12C333.363 95.12 333.915 94.976 334.395 94.688C334.891 94.4 335.283 93.992 335.571 93.464C335.875 92.92 336.027 92.28 336.027 91.544C336.027 90.792 335.875 90.152 335.571 89.624C335.283 89.096 334.891 88.688 334.395 88.4C333.915 88.112 333.363 87.968 332.739 87.968C332.115 87.968 331.555 88.112 331.059 88.4C330.563 88.688 330.171 89.096 329.883 89.624C329.595 90.152 329.451 90.792 329.451 91.544C329.451 92.28 329.595 92.92 329.883 93.464C330.171 93.992 330.563 94.4 331.059 94.688C331.555 94.976 332.115 95.12 332.739 95.12ZM356.971 84.896C357.995 84.896 358.907 85.104 359.707 85.52C360.523 85.92 361.163 86.544 361.627 87.392C362.091 88.224 362.323 89.296 362.323 90.608V98H358.579V91.184C358.579 90.144 358.347 89.376 357.883 88.88C357.435 88.384 356.795 88.136 355.963 88.136C355.371 88.136 354.835 88.264 354.355 88.52C353.891 88.76 353.523 89.136 353.251 89.648C352.995 90.16 352.867 90.816 352.867 91.616V98H349.123V80.192H352.867V88.664L352.027 87.584C352.491 86.72 353.155 86.056 354.019 85.592C354.883 85.128 355.867 84.896 356.971 84.896ZM372.218 98.192C370.746 98.192 369.45 97.904 368.33 97.328C367.226 96.752 366.37 95.968 365.762 94.976C365.154 93.968 364.85 92.824 364.85 91.544C364.85 90.248 365.146 89.104 365.738 88.112C366.346 87.104 367.17 86.32 368.21 85.76C369.25 85.184 370.426 84.896 371.738 84.896C373.002 84.896 374.138 85.168 375.146 85.712C376.17 86.24 376.978 87.008 377.57 88.016C378.162 89.008 378.458 90.2 378.458 91.592C378.458 91.736 378.45 91.904 378.434 92.096C378.418 92.272 378.402 92.44 378.386 92.6H367.898V90.416H376.418L374.978 91.064C374.978 90.392 374.842 89.808 374.57 89.312C374.298 88.816 373.922 88.432 373.442 88.16C372.962 87.872 372.402 87.728 371.762 87.728C371.122 87.728 370.554 87.872 370.058 88.16C369.578 88.432 369.202 88.824 368.93 89.336C368.658 89.832 368.522 90.424 368.522 91.112V91.688C368.522 92.392 368.674 93.016 368.978 93.56C369.298 94.088 369.738 94.496 370.298 94.784C370.874 95.056 371.546 95.192 372.314 95.192C373.002 95.192 373.602 95.088 374.114 94.88C374.642 94.672 375.122 94.36 375.554 93.944L377.546 96.104C376.954 96.776 376.21 97.296 375.314 97.664C374.418 98.016 373.386 98.192 372.218 98.192ZM388.519 98V95.48L388.279 94.928V90.416C388.279 89.616 388.031 88.992 387.535 88.544C387.055 88.096 386.311 87.872 385.303 87.872C384.615 87.872 383.935 87.984 383.263 88.208C382.607 88.416 382.047 88.704 381.583 89.072L380.239 86.456C380.943 85.96 381.791 85.576 382.783 85.304C383.775 85.032 384.783 84.896 385.807 84.896C387.775 84.896 389.303 85.36 390.391 86.288C391.479 87.216 392.023 88.664 392.023 90.632V98H388.519ZM384.583 98.192C383.575 98.192 382.711 98.024 381.991 97.688C381.271 97.336 380.719 96.864 380.335 96.272C379.951 95.68 379.759 95.016 379.759 94.28C379.759 93.512 379.943 92.84 380.311 92.264C380.695 91.688 381.295 91.24 382.111 90.92C382.927 90.584 383.991 90.416 385.303 90.416H388.735V92.6H385.711C384.831 92.6 384.223 92.744 383.887 93.032C383.567 93.32 383.407 93.68 383.407 94.112C383.407 94.592 383.591 94.976 383.959 95.264C384.343 95.536 384.863 95.672 385.519 95.672C386.143 95.672 386.703 95.528 387.199 95.24C387.695 94.936 388.055 94.496 388.279 93.92L388.855 95.648C388.583 96.48 388.087 97.112 387.367 97.544C386.647 97.976 385.719 98.192 384.583 98.192ZM395.412 98V80.192H399.156V98H395.412ZM408.871 98.192C407.351 98.192 406.167 97.808 405.319 97.04C404.471 96.256 404.047 95.096 404.047 93.56V82.232H407.791V93.512C407.791 94.056 407.935 94.48 408.223 94.784C408.511 95.072 408.903 95.216 409.399 95.216C409.991 95.216 410.495 95.056 410.911 94.736L411.919 97.376C411.535 97.648 411.071 97.856 410.527 98C409.999 98.128 409.447 98.192 408.871 98.192ZM402.055 88.256V85.376H411.007V88.256H402.055ZM421.869 84.896C422.893 84.896 423.805 85.104 424.605 85.52C425.421 85.92 426.061 86.544 426.525 87.392C426.989 88.224 427.221 89.296 427.221 90.608V98H423.477V91.184C423.477 90.144 423.245 89.376 422.781 88.88C422.333 88.384 421.693 88.136 420.861 88.136C420.269 88.136 419.733 88.264 419.253 88.52C418.789 88.76 418.421 89.136 418.149 89.648C417.893 90.16 417.765 90.816 417.765 91.616V98H414.021V80.192H417.765V88.664L416.925 87.584C417.389 86.72 418.053 86.056 418.917 85.592C419.781 85.128 420.765 84.896 421.869 84.896ZM432.012 102.848C431.34 102.848 430.676 102.744 430.02 102.536C429.364 102.328 428.828 102.04 428.412 101.672L429.78 99.008C430.068 99.264 430.396 99.464 430.764 99.608C431.148 99.752 431.524 99.824 431.892 99.824C432.42 99.824 432.836 99.696 433.14 99.44C433.46 99.2 433.748 98.792 434.004 98.216L434.676 96.632L434.964 96.224L439.596 85.088H443.196L437.364 98.792C436.948 99.832 436.468 100.648 435.924 101.24C435.396 101.832 434.804 102.248 434.148 102.488C433.508 102.728 432.796 102.848 432.012 102.848ZM434.22 98.504L428.46 85.088H432.324L436.788 95.888L434.22 98.504ZM459.441 98V95.48L459.201 94.928V90.416C459.201 89.616 458.953 88.992 458.457 88.544C457.977 88.096 457.233 87.872 456.225 87.872C455.537 87.872 454.857 87.984 454.185 88.208C453.529 88.416 452.969 88.704 452.505 89.072L451.161 86.456C451.865 85.96 452.713 85.576 453.705 85.304C454.697 85.032 455.705 84.896 456.729 84.896C458.697 84.896 460.225 85.36 461.313 86.288C462.401 87.216 462.945 88.664 462.945 90.632V98H459.441ZM455.505 98.192C454.497 98.192 453.633 98.024 452.913 97.688C452.193 97.336 451.641 96.864 451.257 96.272C450.873 95.68 450.681 95.016 450.681 94.28C450.681 93.512 450.865 92.84 451.233 92.264C451.617 91.688 452.217 91.24 453.033 90.92C453.849 90.584 454.913 90.416 456.225 90.416H459.657V92.6H456.633C455.753 92.6 455.145 92.744 454.809 93.032C454.489 93.32 454.329 93.68 454.329 94.112C454.329 94.592 454.513 94.976 454.881 95.264C455.265 95.536 455.785 95.672 456.441 95.672C457.065 95.672 457.625 95.528 458.121 95.24C458.617 94.936 458.977 94.496 459.201 93.92L459.777 95.648C459.505 96.48 459.009 97.112 458.289 97.544C457.569 97.976 456.641 98.192 455.505 98.192ZM474.181 84.896C475.205 84.896 476.117 85.104 476.917 85.52C477.733 85.92 478.373 86.544 478.837 87.392C479.301 88.224 479.533 89.296 479.533 90.608V98H475.789V91.184C475.789 90.144 475.557 89.376 475.093 88.88C474.645 88.384 474.005 88.136 473.173 88.136C472.581 88.136 472.045 88.264 471.565 88.52C471.101 88.76 470.733 89.136 470.461 89.648C470.205 90.16 470.077 90.816 470.077 91.616V98H466.333V85.088H469.909V88.664L469.237 87.584C469.701 86.72 470.365 86.056 471.229 85.592C472.093 85.128 473.077 84.896 474.181 84.896ZM488.565 98.192C487.349 98.192 486.253 97.92 485.277 97.376C484.301 96.816 483.525 96.04 482.949 95.048C482.389 94.056 482.109 92.888 482.109 91.544C482.109 90.184 482.389 89.008 482.949 88.016C483.525 87.024 484.301 86.256 485.277 85.712C486.253 85.168 487.349 84.896 488.565 84.896C489.653 84.896 490.605 85.136 491.421 85.616C492.237 86.096 492.869 86.824 493.317 87.8C493.765 88.776 493.989 90.024 493.989 91.544C493.989 93.048 493.773 94.296 493.341 95.288C492.909 96.264 492.285 96.992 491.469 97.472C490.669 97.952 489.701 98.192 488.565 98.192ZM489.213 95.12C489.821 95.12 490.373 94.976 490.869 94.688C491.365 94.4 491.757 93.992 492.045 93.464C492.349 92.92 492.501 92.28 492.501 91.544C492.501 90.792 492.349 90.152 492.045 89.624C491.757 89.096 491.365 88.688 490.869 88.4C490.373 88.112 489.821 87.968 489.213 87.968C488.589 87.968 488.029 88.112 487.533 88.4C487.037 88.688 486.637 89.096 486.333 89.624C486.045 90.152 485.901 90.792 485.901 91.544C485.901 92.28 486.045 92.92 486.333 93.464C486.637 93.992 487.037 94.4 487.533 94.688C488.029 94.976 488.589 95.12 489.213 95.12ZM492.597 98V95.36L492.669 91.52L492.429 87.704V80.192H496.173V98H492.597ZM506.435 98V85.088H510.179V98H506.435ZM508.307 83.288C507.619 83.288 507.059 83.088 506.627 82.688C506.195 82.288 505.979 81.792 505.979 81.2C505.979 80.608 506.195 80.112 506.627 79.712C507.059 79.312 507.619 79.112 508.307 79.112C508.995 79.112 509.555 79.304 509.987 79.688C510.419 80.056 510.635 80.536 510.635 81.128C510.635 81.752 510.419 82.272 509.987 82.688C509.571 83.088 509.011 83.288 508.307 83.288ZM521.502 84.896C522.526 84.896 523.438 85.104 524.238 85.52C525.054 85.92 525.694 86.544 526.158 87.392C526.622 88.224 526.854 89.296 526.854 90.608V98H523.11V91.184C523.11 90.144 522.878 89.376 522.414 88.88C521.966 88.384 521.326 88.136 520.494 88.136C519.902 88.136 519.366 88.264 518.886 88.52C518.422 88.76 518.054 89.136 517.782 89.648C517.526 90.16 517.398 90.816 517.398 91.616V98H513.654V85.088H517.23V88.664L516.558 87.584C517.022 86.72 517.686 86.056 518.55 85.592C519.414 85.128 520.398 84.896 521.502 84.896ZM536.413 102.848C535.197 102.848 534.021 102.696 532.885 102.392C531.765 102.104 530.829 101.664 530.077 101.072L531.565 98.384C532.109 98.832 532.797 99.184 533.629 99.44C534.477 99.712 535.309 99.848 536.125 99.848C537.453 99.848 538.413 99.552 539.005 98.96C539.613 98.368 539.917 97.488 539.917 96.32V94.376L540.157 91.136L540.109 87.872V85.088H543.661V95.84C543.661 98.24 543.037 100.008 541.789 101.144C540.541 102.28 538.749 102.848 536.413 102.848ZM535.837 97.376C534.637 97.376 533.549 97.12 532.573 96.608C531.613 96.08 530.837 95.352 530.245 94.424C529.669 93.48 529.381 92.384 529.381 91.136C529.381 89.872 529.669 88.776 530.245 87.848C530.837 86.904 531.613 86.176 532.573 85.664C533.549 85.152 534.637 84.896 535.837 84.896C536.925 84.896 537.885 85.12 538.717 85.568C539.549 86 540.197 86.68 540.661 87.608C541.125 88.52 541.357 89.696 541.357 91.136C541.357 92.56 541.125 93.736 540.661 94.664C540.197 95.576 539.549 96.256 538.717 96.704C537.885 97.152 536.925 97.376 535.837 97.376ZM536.581 94.304C537.237 94.304 537.821 94.176 538.333 93.92C538.845 93.648 539.245 93.272 539.533 92.792C539.821 92.312 539.965 91.76 539.965 91.136C539.965 90.496 539.821 89.944 539.533 89.48C539.245 89 538.845 88.632 538.333 88.376C537.821 88.104 537.237 87.968 536.581 87.968C535.925 87.968 535.341 88.104 534.829 88.376C534.317 88.632 533.909 89 533.605 89.48C533.317 89.944 533.173 90.496 533.173 91.136C533.173 91.76 533.317 92.312 533.605 92.792C533.909 93.272 534.317 93.648 534.829 93.92C535.341 94.176 535.925 94.304 536.581 94.304ZM547.146 98V85.088H550.722V88.736L550.218 87.68C550.602 86.768 551.218 86.08 552.066 85.616C552.914 85.136 553.946 84.896 555.162 84.896V88.352C555.002 88.336 554.858 88.328 554.73 88.328C554.602 88.312 554.466 88.304 554.322 88.304C553.298 88.304 552.466 88.6 551.826 89.192C551.202 89.768 550.89 90.672 550.89 91.904V98H547.146ZM563.702 98.192C562.23 98.192 560.934 97.904 559.814 97.328C558.71 96.752 557.854 95.968 557.246 94.976C556.638 93.968 556.334 92.824 556.334 91.544C556.334 90.248 556.63 89.104 557.222 88.112C557.83 87.104 558.654 86.32 559.694 85.76C560.734 85.184 561.91 84.896 563.222 84.896C564.486 84.896 565.622 85.168 566.63 85.712C567.654 86.24 568.462 87.008 569.054 88.016C569.646 89.008 569.942 90.2 569.942 91.592C569.942 91.736 569.934 91.904 569.918 92.096C569.902 92.272 569.886 92.44 569.87 92.6H559.382V90.416H567.902L566.462 91.064C566.462 90.392 566.326 89.808 566.054 89.312C565.782 88.816 565.406 88.432 564.926 88.16C564.446 87.872 563.886 87.728 563.246 87.728C562.606 87.728 562.038 87.872 561.542 88.16C561.062 88.432 560.686 88.824 560.414 89.336C560.142 89.832 560.006 90.424 560.006 91.112V91.688C560.006 92.392 560.158 93.016 560.462 93.56C560.782 94.088 561.222 94.496 561.782 94.784C562.358 95.056 563.03 95.192 563.798 95.192C564.486 95.192 565.086 95.088 565.598 94.88C566.126 94.672 566.606 94.36 567.038 93.944L569.03 96.104C568.438 96.776 567.694 97.296 566.798 97.664C565.902 98.016 564.87 98.192 563.702 98.192ZM577.979 98.192C576.763 98.192 575.667 97.92 574.691 97.376C573.715 96.816 572.939 96.04 572.363 95.048C571.803 94.056 571.523 92.888 571.523 91.544C571.523 90.184 571.803 89.008 572.363 88.016C572.939 87.024 573.715 86.256 574.691 85.712C575.667 85.168 576.763 84.896 577.979 84.896C579.067 84.896 580.019 85.136 580.835 85.616C581.651 86.096 582.283 86.824 582.731 87.8C583.179 88.776 583.403 90.024 583.403 91.544C583.403 93.048 583.187 94.296 582.755 95.288C582.323 96.264 581.699 96.992 580.883 97.472C580.083 97.952 579.115 98.192 577.979 98.192ZM578.627 95.12C579.235 95.12 579.787 94.976 580.283 94.688C580.779 94.4 581.171 93.992 581.459 93.464C581.763 92.92 581.915 92.28 581.915 91.544C581.915 90.792 581.763 90.152 581.459 89.624C581.171 89.096 580.779 88.688 580.283 88.4C579.787 88.112 579.235 87.968 578.627 87.968C578.003 87.968 577.443 88.112 576.947 88.4C576.451 88.688 576.051 89.096 575.747 89.624C575.459 90.152 575.315 90.792 575.315 91.544C575.315 92.28 575.459 92.92 575.747 93.464C576.051 93.992 576.451 94.4 576.947 94.688C577.443 94.976 578.003 95.12 578.627 95.12ZM582.011 98V95.36L582.083 91.52L581.843 87.704V80.192H585.587V98H582.011ZM589.052 98V85.088H592.796V98H589.052ZM590.924 83.288C590.236 83.288 589.676 83.088 589.244 82.688C588.812 82.288 588.596 81.792 588.596 81.2C588.596 80.608 588.812 80.112 589.244 79.712C589.676 79.312 590.236 79.112 590.924 79.112C591.612 79.112 592.172 79.304 592.604 79.688C593.036 80.056 593.252 80.536 593.252 81.128C593.252 81.752 593.036 82.272 592.604 82.688C592.188 83.088 591.628 83.288 590.924 83.288ZM602.679 98.192C601.207 98.192 599.911 97.904 598.791 97.328C597.687 96.752 596.831 95.968 596.223 94.976C595.615 93.968 595.311 92.824 595.311 91.544C595.311 90.248 595.607 89.104 596.199 88.112C596.807 87.104 597.631 86.32 598.671 85.76C599.711 85.184 600.887 84.896 602.199 84.896C603.463 84.896 604.599 85.168 605.607 85.712C606.631 86.24 607.439 87.008 608.031 88.016C608.623 89.008 608.919 90.2 608.919 91.592C608.919 91.736 608.911 91.904 608.895 92.096C608.879 92.272 608.863 92.44 608.847 92.6H598.359V90.416H606.879L605.439 91.064C605.439 90.392 605.303 89.808 605.031 89.312C604.759 88.816 604.383 88.432 603.903 88.16C603.423 87.872 602.863 87.728 602.223 87.728C601.583 87.728 601.015 87.872 600.519 88.16C600.039 88.432 599.663 88.824 599.391 89.336C599.119 89.832 598.983 90.424 598.983 91.112V91.688C598.983 92.392 599.135 93.016 599.439 93.56C599.759 94.088 600.199 94.496 600.759 94.784C601.335 95.056 602.007 95.192 602.775 95.192C603.463 95.192 604.063 95.088 604.575 94.88C605.103 94.672 605.583 94.36 606.015 93.944L608.007 96.104C607.415 96.776 606.671 97.296 605.775 97.664C604.879 98.016 603.847 98.192 602.679 98.192ZM619.26 84.896C620.284 84.896 621.196 85.104 621.996 85.52C622.812 85.92 623.452 86.544 623.916 87.392C624.38 88.224 624.612 89.296 624.612 90.608V98H620.868V91.184C620.868 90.144 620.636 89.376 620.172 88.88C619.724 88.384 619.084 88.136 618.252 88.136C617.66 88.136 617.124 88.264 616.644 88.52C616.18 88.76 615.812 89.136 615.54 89.648C615.284 90.16 615.156 90.816 615.156 91.616V98H611.412V85.088H614.988V88.664L614.316 87.584C614.78 86.72 615.444 86.056 616.308 85.592C617.172 85.128 618.156 84.896 619.26 84.896ZM633.285 98.192C631.765 98.192 630.581 97.808 629.733 97.04C628.885 96.256 628.461 95.096 628.461 93.56V82.232H632.205V93.512C632.205 94.056 632.349 94.48 632.637 94.784C632.925 95.072 633.317 95.216 633.813 95.216C634.405 95.216 634.909 95.056 635.325 94.736L636.333 97.376C635.949 97.648 635.485 97.856 634.941 98C634.413 98.128 633.861 98.192 633.285 98.192ZM626.469 88.256V85.376H635.421V88.256H626.469ZM637.721 92.744V89.744H644.513V92.744H637.721ZM653.933 98.192C652.541 98.192 651.301 97.912 650.213 97.352C649.125 96.776 648.269 95.984 647.645 94.976C647.037 93.968 646.733 92.824 646.733 91.544C646.733 90.248 647.037 89.104 647.645 88.112C648.269 87.104 649.125 86.32 650.213 85.76C651.301 85.184 652.541 84.896 653.933 84.896C655.293 84.896 656.477 85.184 657.485 85.76C658.493 86.32 659.237 87.128 659.717 88.184L656.813 89.744C656.477 89.136 656.053 88.688 655.541 88.4C655.045 88.112 654.501 87.968 653.909 87.968C653.269 87.968 652.693 88.112 652.181 88.4C651.669 88.688 651.261 89.096 650.957 89.624C650.669 90.152 650.525 90.792 650.525 91.544C650.525 92.296 650.669 92.936 650.957 93.464C651.261 93.992 651.669 94.4 652.181 94.688C652.693 94.976 653.269 95.12 653.909 95.12C654.501 95.12 655.045 94.984 655.541 94.712C656.053 94.424 656.477 93.968 656.813 93.344L659.717 94.928C659.237 95.968 658.493 96.776 657.485 97.352C656.477 97.912 655.293 98.192 653.933 98.192ZM667.852 98.192C666.476 98.192 665.252 97.904 664.18 97.328C663.124 96.752 662.284 95.968 661.66 94.976C661.052 93.968 660.748 92.824 660.748 91.544C660.748 90.248 661.052 89.104 661.66 88.112C662.284 87.104 663.124 86.32 664.18 85.76C665.252 85.184 666.476 84.896 667.852 84.896C669.212 84.896 670.428 85.184 671.5 85.76C672.572 86.32 673.412 87.096 674.02 88.088C674.628 89.08 674.932 90.232 674.932 91.544C674.932 92.824 674.628 93.968 674.02 94.976C673.412 95.968 672.572 96.752 671.5 97.328C670.428 97.904 669.212 98.192 667.852 98.192ZM667.852 95.12C668.476 95.12 669.036 94.976 669.532 94.688C670.028 94.4 670.42 93.992 670.708 93.464C670.996 92.92 671.14 92.28 671.14 91.544C671.14 90.792 670.996 90.152 670.708 89.624C670.42 89.096 670.028 88.688 669.532 88.4C669.036 88.112 668.476 87.968 667.852 87.968C667.228 87.968 666.668 88.112 666.172 88.4C665.676 88.688 665.276 89.096 664.972 89.624C664.684 90.152 664.54 90.792 664.54 91.544C664.54 92.28 664.684 92.92 664.972 93.464C665.276 93.992 665.676 94.4 666.172 94.688C666.668 94.976 667.228 95.12 667.852 95.12ZM685.283 84.896C686.307 84.896 687.219 85.104 688.019 85.52C688.835 85.92 689.475 86.544 689.939 87.392C690.403 88.224 690.635 89.296 690.635 90.608V98H686.891V91.184C686.891 90.144 686.659 89.376 686.195 88.88C685.747 88.384 685.107 88.136 684.275 88.136C683.683 88.136 683.147 88.264 682.667 88.52C682.203 88.76 681.835 89.136 681.563 89.648C681.307 90.16 681.179 90.816 681.179 91.616V98H677.435V85.088H681.011V88.664L680.339 87.584C680.803 86.72 681.467 86.056 682.331 85.592C683.195 85.128 684.179 84.896 685.283 84.896ZM698.373 98.192C697.269 98.192 696.205 98.064 695.181 97.808C694.173 97.536 693.373 97.2 692.781 96.8L694.029 94.112C694.621 94.48 695.317 94.784 696.117 95.024C696.933 95.248 697.733 95.36 698.517 95.36C699.381 95.36 699.989 95.256 700.341 95.048C700.709 94.84 700.893 94.552 700.893 94.184C700.893 93.88 700.749 93.656 700.461 93.512C700.189 93.352 699.821 93.232 699.357 93.152C698.893 93.072 698.381 92.992 697.821 92.912C697.277 92.832 696.725 92.728 696.165 92.6C695.605 92.456 695.093 92.248 694.629 91.976C694.165 91.704 693.789 91.336 693.501 90.872C693.229 90.408 693.093 89.808 693.093 89.072C693.093 88.256 693.325 87.536 693.789 86.912C694.269 86.288 694.957 85.8 695.853 85.448C696.749 85.08 697.821 84.896 699.069 84.896C699.949 84.896 700.845 84.992 701.757 85.184C702.669 85.376 703.429 85.656 704.037 86.024L702.789 88.688C702.165 88.32 701.533 88.072 700.893 87.944C700.269 87.8 699.661 87.728 699.069 87.728C698.237 87.728 697.629 87.84 697.245 88.064C696.861 88.288 696.669 88.576 696.669 88.928C696.669 89.248 696.805 89.488 697.077 89.648C697.365 89.808 697.741 89.936 698.205 90.032C698.669 90.128 699.173 90.216 699.717 90.296C700.277 90.36 700.837 90.464 701.397 90.608C701.957 90.752 702.461 90.96 702.909 91.232C703.373 91.488 703.749 91.848 704.037 92.312C704.325 92.76 704.469 93.352 704.469 94.088C704.469 94.888 704.229 95.6 703.749 96.224C703.269 96.832 702.573 97.312 701.661 97.664C700.765 98.016 699.669 98.192 698.373 98.192ZM713.019 98.192C711.627 98.192 710.387 97.912 709.299 97.352C708.211 96.776 707.355 95.984 706.731 94.976C706.123 93.968 705.819 92.824 705.819 91.544C705.819 90.248 706.123 89.104 706.731 88.112C707.355 87.104 708.211 86.32 709.299 85.76C710.387 85.184 711.627 84.896 713.019 84.896C714.379 84.896 715.563 85.184 716.571 85.76C717.579 86.32 718.323 87.128 718.803 88.184L715.899 89.744C715.563 89.136 715.139 88.688 714.627 88.4C714.131 88.112 713.587 87.968 712.995 87.968C712.355 87.968 711.779 88.112 711.267 88.4C710.755 88.688 710.347 89.096 710.043 89.624C709.755 90.152 709.611 90.792 709.611 91.544C709.611 92.296 709.755 92.936 710.043 93.464C710.347 93.992 710.755 94.4 711.267 94.688C711.779 94.976 712.355 95.12 712.995 95.12C713.587 95.12 714.131 94.984 714.627 94.712C715.139 94.424 715.563 93.968 715.899 93.344L718.803 94.928C718.323 95.968 717.579 96.776 716.571 97.352C715.563 97.912 714.379 98.192 713.019 98.192ZM720.888 98V85.088H724.632V98H720.888ZM722.76 83.288C722.072 83.288 721.512 83.088 721.08 82.688C720.648 82.288 720.432 81.792 720.432 81.2C720.432 80.608 720.648 80.112 721.08 79.712C721.512 79.312 722.072 79.112 722.76 79.112C723.448 79.112 724.008 79.304 724.44 79.688C724.872 80.056 725.088 80.536 725.088 81.128C725.088 81.752 724.872 82.272 724.44 82.688C724.024 83.088 723.464 83.288 722.76 83.288ZM734.251 98.192C732.875 98.192 731.651 97.904 730.579 97.328C729.523 96.752 728.683 95.968 728.059 94.976C727.451 93.968 727.147 92.824 727.147 91.544C727.147 90.248 727.451 89.104 728.059 88.112C728.683 87.104 729.523 86.32 730.579 85.76C731.651 85.184 732.875 84.896 734.251 84.896C735.611 84.896 736.827 85.184 737.899 85.76C738.971 86.32 739.811 87.096 740.419 88.088C741.027 89.08 741.331 90.232 741.331 91.544C741.331 92.824 741.027 93.968 740.419 94.976C739.811 95.968 738.971 96.752 737.899 97.328C736.827 97.904 735.611 98.192 734.251 98.192ZM734.251 95.12C734.875 95.12 735.435 94.976 735.931 94.688C736.427 94.4 736.819 93.992 737.107 93.464C737.395 92.92 737.539 92.28 737.539 91.544C737.539 90.792 737.395 90.152 737.107 89.624C736.819 89.096 736.427 88.688 735.931 88.4C735.435 88.112 734.875 87.968 734.251 87.968C733.627 87.968 733.067 88.112 732.571 88.4C732.075 88.688 731.675 89.096 731.371 89.624C731.083 90.152 730.939 90.792 730.939 91.544C730.939 92.28 731.083 92.92 731.371 93.464C731.675 93.992 732.075 94.4 732.571 94.688C733.067 94.976 733.627 95.12 734.251 95.12ZM749.281 98.192C748.209 98.192 747.249 97.984 746.401 97.568C745.569 97.152 744.921 96.52 744.457 95.672C743.993 94.808 743.761 93.712 743.761 92.384V85.088H747.505V91.832C747.505 92.904 747.729 93.696 748.177 94.208C748.641 94.704 749.289 94.952 750.121 94.952C750.697 94.952 751.209 94.832 751.657 94.592C752.105 94.336 752.457 93.952 752.713 93.44C752.969 92.912 753.097 92.256 753.097 91.472V85.088H756.841V98H753.289V94.448L753.937 95.48C753.505 96.376 752.865 97.056 752.017 97.52C751.185 97.968 750.273 98.192 749.281 98.192ZM764.654 98.192C763.55 98.192 762.486 98.064 761.462 97.808C760.454 97.536 759.654 97.2 759.062 96.8L760.31 94.112C760.902 94.48 761.598 94.784 762.398 95.024C763.214 95.248 764.014 95.36 764.798 95.36C765.662 95.36 766.27 95.256 766.622 95.048C766.99 94.84 767.174 94.552 767.174 94.184C767.174 93.88 767.03 93.656 766.742 93.512C766.47 93.352 766.102 93.232 765.638 93.152C765.174 93.072 764.662 92.992 764.102 92.912C763.558 92.832 763.006 92.728 762.446 92.6C761.886 92.456 761.374 92.248 760.91 91.976C760.446 91.704 760.07 91.336 759.782 90.872C759.51 90.408 759.374 89.808 759.374 89.072C759.374 88.256 759.606 87.536 760.07 86.912C760.55 86.288 761.238 85.8 762.134 85.448C763.03 85.08 764.102 84.896 765.35 84.896C766.23 84.896 767.126 84.992 768.038 85.184C768.95 85.376 769.71 85.656 770.318 86.024L769.07 88.688C768.446 88.32 767.814 88.072 767.174 87.944C766.55 87.8 765.942 87.728 765.35 87.728C764.518 87.728 763.91 87.84 763.526 88.064C763.142 88.288 762.95 88.576 762.95 88.928C762.95 89.248 763.086 89.488 763.358 89.648C763.646 89.808 764.022 89.936 764.486 90.032C764.95 90.128 765.454 90.216 765.998 90.296C766.558 90.36 767.118 90.464 767.678 90.608C768.238 90.752 768.742 90.96 769.19 91.232C769.654 91.488 770.03 91.848 770.318 92.312C770.606 92.76 770.75 93.352 770.75 94.088C770.75 94.888 770.51 95.6 770.03 96.224C769.55 96.832 768.854 97.312 767.942 97.664C767.046 98.016 765.95 98.192 764.654 98.192ZM64.4069 127.192C63.3189 127.192 62.3669 126.952 61.5509 126.472C60.7349 125.992 60.0949 125.264 59.6309 124.288C59.1829 123.296 58.9589 122.048 58.9589 120.544C58.9589 119.024 59.1749 117.776 59.6069 116.8C60.0389 115.824 60.6629 115.096 61.4789 114.616C62.2949 114.136 63.2709 113.896 64.4069 113.896C65.6229 113.896 66.7109 114.176 67.6709 114.736C68.6469 115.28 69.4149 116.048 69.9749 117.04C70.5509 118.032 70.8389 119.2 70.8389 120.544C70.8389 121.904 70.5509 123.08 69.9749 124.072C69.4149 125.064 68.6469 125.832 67.6709 126.376C66.7109 126.92 65.6229 127.192 64.4069 127.192ZM56.7749 131.656V114.088H60.3509V116.728L60.2789 120.568L60.5189 124.384V131.656H56.7749ZM63.7589 124.12C64.3829 124.12 64.9349 123.976 65.4149 123.688C65.9109 123.4 66.3029 122.992 66.5909 122.464C66.8949 121.92 67.0469 121.28 67.0469 120.544C67.0469 119.792 66.8949 119.152 66.5909 118.624C66.3029 118.096 65.9109 117.688 65.4149 117.4C64.9349 117.112 64.3829 116.968 63.7589 116.968C63.1349 116.968 62.5749 117.112 62.0789 117.4C61.5829 117.688 61.1909 118.096 60.9029 118.624C60.6149 119.152 60.4709 119.792 60.4709 120.544C60.4709 121.28 60.6149 121.92 60.9029 122.464C61.1909 122.992 61.5829 123.4 62.0789 123.688C62.5749 123.976 63.1349 124.12 63.7589 124.12ZM79.7532 127.192C78.2812 127.192 76.9852 126.904 75.8652 126.328C74.7612 125.752 73.9052 124.968 73.2972 123.976C72.6892 122.968 72.3852 121.824 72.3852 120.544C72.3852 119.248 72.6812 118.104 73.2732 117.112C73.8812 116.104 74.7052 115.32 75.7452 114.76C76.7852 114.184 77.9612 113.896 79.2732 113.896C80.5372 113.896 81.6732 114.168 82.6812 114.712C83.7052 115.24 84.5132 116.008 85.1052 117.016C85.6972 118.008 85.9932 119.2 85.9932 120.592C85.9932 120.736 85.9852 120.904 85.9692 121.096C85.9532 121.272 85.9372 121.44 85.9212 121.6H75.4332V119.416H83.9532L82.5132 120.064C82.5132 119.392 82.3772 118.808 82.1052 118.312C81.8332 117.816 81.4572 117.432 80.9772 117.16C80.4972 116.872 79.9372 116.728 79.2972 116.728C78.6572 116.728 78.0892 116.872 77.5932 117.16C77.1132 117.432 76.7372 117.824 76.4652 118.336C76.1932 118.832 76.0572 119.424 76.0572 120.112V120.688C76.0572 121.392 76.2092 122.016 76.5132 122.56C76.8332 123.088 77.2732 123.496 77.8332 123.784C78.4092 124.056 79.0812 124.192 79.8492 124.192C80.5372 124.192 81.1372 124.088 81.6492 123.88C82.1772 123.672 82.6572 123.36 83.0892 122.944L85.0812 125.104C84.4892 125.776 83.7452 126.296 82.8492 126.664C81.9532 127.016 80.9212 127.192 79.7532 127.192ZM94.6298 127.192C93.2538 127.192 92.0298 126.904 90.9578 126.328C89.9018 125.752 89.0618 124.968 88.4378 123.976C87.8298 122.968 87.5258 121.824 87.5258 120.544C87.5258 119.248 87.8298 118.104 88.4378 117.112C89.0618 116.104 89.9018 115.32 90.9578 114.76C92.0298 114.184 93.2538 113.896 94.6298 113.896C95.9898 113.896 97.2058 114.184 98.2778 114.76C99.3498 115.32 100.19 116.096 100.798 117.088C101.406 118.08 101.71 119.232 101.71 120.544C101.71 121.824 101.406 122.968 100.798 123.976C100.19 124.968 99.3498 125.752 98.2778 126.328C97.2058 126.904 95.9898 127.192 94.6298 127.192ZM94.6298 124.12C95.2538 124.12 95.8138 123.976 96.3098 123.688C96.8058 123.4 97.1978 122.992 97.4858 122.464C97.7738 121.92 97.9178 121.28 97.9178 120.544C97.9178 119.792 97.7738 119.152 97.4858 118.624C97.1978 118.096 96.8058 117.688 96.3098 117.4C95.8138 117.112 95.2538 116.968 94.6298 116.968C94.0058 116.968 93.4458 117.112 92.9498 117.4C92.4538 117.688 92.0538 118.096 91.7498 118.624C91.4618 119.152 91.3178 119.792 91.3178 120.544C91.3178 121.28 91.4618 121.92 91.7498 122.464C92.0538 122.992 92.4538 123.4 92.9498 123.688C93.4458 123.976 94.0058 124.12 94.6298 124.12ZM111.844 127.192C110.756 127.192 109.804 126.952 108.988 126.472C108.172 125.992 107.532 125.264 107.068 124.288C106.62 123.296 106.396 122.048 106.396 120.544C106.396 119.024 106.612 117.776 107.044 116.8C107.476 115.824 108.1 115.096 108.916 114.616C109.732 114.136 110.708 113.896 111.844 113.896C113.06 113.896 114.148 114.176 115.108 114.736C116.084 115.28 116.852 116.048 117.412 117.04C117.988 118.032 118.276 119.2 118.276 120.544C118.276 121.904 117.988 123.08 117.412 124.072C116.852 125.064 116.084 125.832 115.108 126.376C114.148 126.92 113.06 127.192 111.844 127.192ZM104.212 131.656V114.088H107.788V116.728L107.716 120.568L107.956 124.384V131.656H104.212ZM111.196 124.12C111.82 124.12 112.372 123.976 112.852 123.688C113.348 123.4 113.74 122.992 114.028 122.464C114.332 121.92 114.484 121.28 114.484 120.544C114.484 119.792 114.332 119.152 114.028 118.624C113.74 118.096 113.348 117.688 112.852 117.4C112.372 117.112 111.82 116.968 111.196 116.968C110.572 116.968 110.012 117.112 109.516 117.4C109.02 117.688 108.628 118.096 108.34 118.624C108.052 119.152 107.908 119.792 107.908 120.544C107.908 121.28 108.052 121.92 108.34 122.464C108.628 122.992 109.02 123.4 109.516 123.688C110.012 123.976 110.572 124.12 111.196 124.12ZM120.783 127V109.192H124.527V127H120.783ZM134.409 127.192C132.937 127.192 131.641 126.904 130.521 126.328C129.417 125.752 128.561 124.968 127.953 123.976C127.345 122.968 127.041 121.824 127.041 120.544C127.041 119.248 127.337 118.104 127.929 117.112C128.537 116.104 129.361 115.32 130.401 114.76C131.441 114.184 132.617 113.896 133.929 113.896C135.193 113.896 136.329 114.168 137.337 114.712C138.361 115.24 139.169 116.008 139.761 117.016C140.353 118.008 140.649 119.2 140.649 120.592C140.649 120.736 140.641 120.904 140.625 121.096C140.609 121.272 140.593 121.44 140.577 121.6H130.089V119.416H138.609L137.169 120.064C137.169 119.392 137.033 118.808 136.761 118.312C136.489 117.816 136.113 117.432 135.633 117.16C135.153 116.872 134.593 116.728 133.953 116.728C133.313 116.728 132.745 116.872 132.249 117.16C131.769 117.432 131.393 117.824 131.121 118.336C130.849 118.832 130.713 119.424 130.713 120.112V120.688C130.713 121.392 130.865 122.016 131.169 122.56C131.489 123.088 131.929 123.496 132.489 123.784C133.065 124.056 133.737 124.192 134.505 124.192C135.193 124.192 135.793 124.088 136.305 123.88C136.833 123.672 137.313 123.36 137.745 122.944L139.737 125.104C139.145 125.776 138.401 126.296 137.505 126.664C136.609 127.016 135.577 127.192 134.409 127.192ZM157.571 127.192C156.435 127.192 155.459 126.952 154.643 126.472C153.827 125.992 153.203 125.264 152.771 124.288C152.339 123.296 152.123 122.048 152.123 120.544C152.123 119.024 152.347 117.776 152.795 116.8C153.259 115.824 153.899 115.096 154.715 114.616C155.531 114.136 156.483 113.896 157.571 113.896C158.787 113.896 159.875 114.168 160.835 114.712C161.811 115.256 162.579 116.024 163.139 117.016C163.715 118.008 164.003 119.184 164.003 120.544C164.003 121.888 163.715 123.056 163.139 124.048C162.579 125.04 161.811 125.816 160.835 126.376C159.875 126.92 158.787 127.192 157.571 127.192ZM149.939 127V109.192H153.683V116.704L153.443 120.52L153.515 124.36V127H149.939ZM156.923 124.12C157.547 124.12 158.099 123.976 158.579 123.688C159.075 123.4 159.467 122.992 159.755 122.464C160.059 121.92 160.211 121.28 160.211 120.544C160.211 119.792 160.059 119.152 159.755 118.624C159.467 118.096 159.075 117.688 158.579 117.4C158.099 117.112 157.547 116.968 156.923 116.968C156.299 116.968 155.739 117.112 155.243 117.4C154.747 117.688 154.355 118.096 154.067 118.624C153.779 119.152 153.635 119.792 153.635 120.544C153.635 121.28 153.779 121.92 154.067 122.464C154.355 122.992 154.747 123.4 155.243 123.688C155.739 123.976 156.299 124.12 156.923 124.12ZM172.917 127.192C171.445 127.192 170.149 126.904 169.029 126.328C167.925 125.752 167.069 124.968 166.461 123.976C165.853 122.968 165.549 121.824 165.549 120.544C165.549 119.248 165.845 118.104 166.437 117.112C167.045 116.104 167.869 115.32 168.909 114.76C169.949 114.184 171.125 113.896 172.437 113.896C173.701 113.896 174.837 114.168 175.845 114.712C176.869 115.24 177.677 116.008 178.269 117.016C178.861 118.008 179.157 119.2 179.157 120.592C179.157 120.736 179.149 120.904 179.133 121.096C179.117 121.272 179.101 121.44 179.085 121.6H168.597V119.416H177.117L175.677 120.064C175.677 119.392 175.541 118.808 175.269 118.312C174.997 117.816 174.621 117.432 174.141 117.16C173.661 116.872 173.101 116.728 172.461 116.728C171.821 116.728 171.253 116.872 170.757 117.16C170.277 117.432 169.901 117.824 169.629 118.336C169.357 118.832 169.221 119.424 169.221 120.112V120.688C169.221 121.392 169.373 122.016 169.677 122.56C169.997 123.088 170.437 123.496 170.997 123.784C171.573 124.056 172.245 124.192 173.013 124.192C173.701 124.192 174.301 124.088 174.813 123.88C175.341 123.672 175.821 123.36 176.253 122.944L178.245 125.104C177.653 125.776 176.909 126.296 176.013 126.664C175.117 127.016 174.085 127.192 172.917 127.192ZM186.93 127.192C185.41 127.192 184.226 126.808 183.378 126.04C182.53 125.256 182.106 124.096 182.106 122.56V111.232H185.85V122.512C185.85 123.056 185.994 123.48 186.282 123.784C186.57 124.072 186.962 124.216 187.458 124.216C188.05 124.216 188.554 124.056 188.97 123.736L189.978 126.376C189.594 126.648 189.13 126.856 188.586 127C188.058 127.128 187.506 127.192 186.93 127.192ZM180.114 117.256V114.376H189.066V117.256H180.114ZM197.078 127.192C195.558 127.192 194.374 126.808 193.526 126.04C192.678 125.256 192.254 124.096 192.254 122.56V111.232H195.998V122.512C195.998 123.056 196.142 123.48 196.43 123.784C196.718 124.072 197.11 124.216 197.606 124.216C198.198 124.216 198.702 124.056 199.118 123.736L200.126 126.376C199.742 126.648 199.278 126.856 198.734 127C198.206 127.128 197.654 127.192 197.078 127.192ZM190.262 117.256V114.376H199.214V117.256H190.262ZM208.238 127.192C206.766 127.192 205.47 126.904 204.35 126.328C203.246 125.752 202.39 124.968 201.782 123.976C201.174 122.968 200.87 121.824 200.87 120.544C200.87 119.248 201.166 118.104 201.758 117.112C202.366 116.104 203.19 115.32 204.23 114.76C205.27 114.184 206.446 113.896 207.758 113.896C209.022 113.896 210.158 114.168 211.166 114.712C212.19 115.24 212.998 116.008 213.59 117.016C214.182 118.008 214.478 119.2 214.478 120.592C214.478 120.736 214.47 120.904 214.454 121.096C214.438 121.272 214.422 121.44 214.406 121.6H203.918V119.416H212.438L210.998 120.064C210.998 119.392 210.862 118.808 210.59 118.312C210.318 117.816 209.942 117.432 209.462 117.16C208.982 116.872 208.422 116.728 207.782 116.728C207.142 116.728 206.574 116.872 206.078 117.16C205.598 117.432 205.222 117.824 204.95 118.336C204.678 118.832 204.542 119.424 204.542 120.112V120.688C204.542 121.392 204.694 122.016 204.998 122.56C205.318 123.088 205.758 123.496 206.318 123.784C206.894 124.056 207.566 124.192 208.334 124.192C209.022 124.192 209.622 124.088 210.134 123.88C210.662 123.672 211.142 123.36 211.574 122.944L213.566 125.104C212.974 125.776 212.23 126.296 211.334 126.664C210.438 127.016 209.406 127.192 208.238 127.192ZM216.97 127V114.088H220.546V117.736L220.042 116.68C220.426 115.768 221.042 115.08 221.89 114.616C222.738 114.136 223.77 113.896 224.986 113.896V117.352C224.826 117.336 224.682 117.328 224.554 117.328C224.426 117.312 224.29 117.304 224.146 117.304C223.122 117.304 222.29 117.6 221.65 118.192C221.026 118.768 220.714 119.672 220.714 120.904V127H216.97ZM239.551 127.192C238.479 127.192 237.519 126.984 236.671 126.568C235.839 126.152 235.191 125.52 234.727 124.672C234.263 123.808 234.031 122.712 234.031 121.384V114.088H237.775V120.832C237.775 121.904 237.999 122.696 238.447 123.208C238.911 123.704 239.559 123.952 240.391 123.952C240.967 123.952 241.479 123.832 241.927 123.592C242.375 123.336 242.727 122.952 242.983 122.44C243.239 121.912 243.367 121.256 243.367 120.472V114.088H247.111V127H243.559V123.448L244.207 124.48C243.775 125.376 243.135 126.056 242.287 126.52C241.455 126.968 240.543 127.192 239.551 127.192ZM258.428 113.896C259.452 113.896 260.364 114.104 261.164 114.52C261.98 114.92 262.62 115.544 263.084 116.392C263.548 117.224 263.78 118.296 263.78 119.608V127H260.036V120.184C260.036 119.144 259.804 118.376 259.34 117.88C258.892 117.384 258.252 117.136 257.42 117.136C256.828 117.136 256.292 117.264 255.812 117.52C255.348 117.76 254.98 118.136 254.708 118.648C254.452 119.16 254.324 119.816 254.324 120.616V127H250.58V114.088H254.156V117.664L253.484 116.584C253.948 115.72 254.612 115.056 255.476 114.592C256.34 114.128 257.324 113.896 258.428 113.896ZM272.811 127.192C271.595 127.192 270.499 126.92 269.523 126.376C268.547 125.816 267.771 125.04 267.195 124.048C266.635 123.056 266.355 121.888 266.355 120.544C266.355 119.184 266.635 118.008 267.195 117.016C267.771 116.024 268.547 115.256 269.523 114.712C270.499 114.168 271.595 113.896 272.811 113.896C273.899 113.896 274.851 114.136 275.667 114.616C276.483 115.096 277.115 115.824 277.563 116.8C278.011 117.776 278.235 119.024 278.235 120.544C278.235 122.048 278.019 123.296 277.587 124.288C277.155 125.264 276.531 125.992 275.715 126.472C274.915 126.952 273.947 127.192 272.811 127.192ZM273.459 124.12C274.067 124.12 274.619 123.976 275.115 123.688C275.611 123.4 276.003 122.992 276.291 122.464C276.595 121.92 276.747 121.28 276.747 120.544C276.747 119.792 276.595 119.152 276.291 118.624C276.003 118.096 275.611 117.688 275.115 117.4C274.619 117.112 274.067 116.968 273.459 116.968C272.835 116.968 272.275 117.112 271.779 117.4C271.283 117.688 270.883 118.096 270.579 118.624C270.291 119.152 270.147 119.792 270.147 120.544C270.147 121.28 270.291 121.92 270.579 122.464C270.883 122.992 271.283 123.4 271.779 123.688C272.275 123.976 272.835 124.12 273.459 124.12ZM276.843 127V124.36L276.915 120.52L276.675 116.704V109.192H280.419V127H276.843ZM290.292 127.192C288.82 127.192 287.524 126.904 286.404 126.328C285.3 125.752 284.444 124.968 283.836 123.976C283.228 122.968 282.924 121.824 282.924 120.544C282.924 119.248 283.22 118.104 283.812 117.112C284.42 116.104 285.244 115.32 286.284 114.76C287.324 114.184 288.5 113.896 289.812 113.896C291.076 113.896 292.212 114.168 293.22 114.712C294.244 115.24 295.052 116.008 295.644 117.016C296.236 118.008 296.532 119.2 296.532 120.592C296.532 120.736 296.524 120.904 296.508 121.096C296.492 121.272 296.476 121.44 296.46 121.6H285.972V119.416H294.492L293.052 120.064C293.052 119.392 292.916 118.808 292.644 118.312C292.372 117.816 291.996 117.432 291.516 117.16C291.036 116.872 290.476 116.728 289.836 116.728C289.196 116.728 288.628 116.872 288.132 117.16C287.652 117.432 287.276 117.824 287.004 118.336C286.732 118.832 286.596 119.424 286.596 120.112V120.688C286.596 121.392 286.748 122.016 287.052 122.56C287.372 123.088 287.812 123.496 288.372 123.784C288.948 124.056 289.62 124.192 290.388 124.192C291.076 124.192 291.676 124.088 292.188 123.88C292.716 123.672 293.196 123.36 293.628 122.944L295.62 125.104C295.028 125.776 294.284 126.296 293.388 126.664C292.492 127.016 291.46 127.192 290.292 127.192ZM299.025 127V114.088H302.601V117.736L302.097 116.68C302.481 115.768 303.097 115.08 303.945 114.616C304.793 114.136 305.825 113.896 307.041 113.896V117.352C306.881 117.336 306.737 117.328 306.609 117.328C306.481 117.312 306.345 117.304 306.201 117.304C305.177 117.304 304.345 117.6 303.705 118.192C303.081 118.768 302.769 119.672 302.769 120.904V127H299.025ZM313.705 127.192C312.601 127.192 311.537 127.064 310.513 126.808C309.505 126.536 308.705 126.2 308.113 125.8L309.361 123.112C309.953 123.48 310.649 123.784 311.449 124.024C312.265 124.248 313.065 124.36 313.849 124.36C314.713 124.36 315.321 124.256 315.673 124.048C316.041 123.84 316.225 123.552 316.225 123.184C316.225 122.88 316.081 122.656 315.793 122.512C315.521 122.352 315.153 122.232 314.689 122.152C314.225 122.072 313.713 121.992 313.153 121.912C312.609 121.832 312.057 121.728 311.497 121.6C310.937 121.456 310.425 121.248 309.961 120.976C309.497 120.704 309.121 120.336 308.833 119.872C308.561 119.408 308.425 118.808 308.425 118.072C308.425 117.256 308.657 116.536 309.121 115.912C309.601 115.288 310.289 114.8 311.185 114.448C312.081 114.08 313.153 113.896 314.401 113.896C315.281 113.896 316.177 113.992 317.089 114.184C318.001 114.376 318.761 114.656 319.369 115.024L318.121 117.688C317.497 117.32 316.865 117.072 316.225 116.944C315.601 116.8 314.993 116.728 314.401 116.728C313.569 116.728 312.961 116.84 312.577 117.064C312.193 117.288 312.001 117.576 312.001 117.928C312.001 118.248 312.137 118.488 312.409 118.648C312.697 118.808 313.073 118.936 313.537 119.032C314.001 119.128 314.505 119.216 315.049 119.296C315.609 119.36 316.169 119.464 316.729 119.608C317.289 119.752 317.793 119.96 318.241 120.232C318.705 120.488 319.081 120.848 319.369 121.312C319.657 121.76 319.801 122.352 319.801 123.088C319.801 123.888 319.561 124.6 319.081 125.224C318.601 125.832 317.905 126.312 316.993 126.664C316.097 127.016 315.001 127.192 313.705 127.192ZM327.391 127.192C325.871 127.192 324.687 126.808 323.839 126.04C322.991 125.256 322.567 124.096 322.567 122.56V111.232H326.311V122.512C326.311 123.056 326.455 123.48 326.743 123.784C327.031 124.072 327.423 124.216 327.919 124.216C328.511 124.216 329.015 124.056 329.431 123.736L330.439 126.376C330.055 126.648 329.591 126.856 329.047 127C328.519 127.128 327.967 127.192 327.391 127.192ZM320.575 117.256V114.376H329.527V117.256H320.575ZM340.461 127V124.48L340.221 123.928V119.416C340.221 118.616 339.973 117.992 339.477 117.544C338.997 117.096 338.253 116.872 337.245 116.872C336.557 116.872 335.877 116.984 335.205 117.208C334.549 117.416 333.989 117.704 333.525 118.072L332.181 115.456C332.885 114.96 333.733 114.576 334.725 114.304C335.717 114.032 336.725 113.896 337.749 113.896C339.717 113.896 341.245 114.36 342.333 115.288C343.421 116.216 343.965 117.664 343.965 119.632V127H340.461ZM336.525 127.192C335.517 127.192 334.653 127.024 333.933 126.688C333.213 126.336 332.661 125.864 332.277 125.272C331.893 124.68 331.701 124.016 331.701 123.28C331.701 122.512 331.885 121.84 332.253 121.264C332.637 120.688 333.237 120.24 334.053 119.92C334.869 119.584 335.933 119.416 337.245 119.416H340.677V121.6H337.653C336.773 121.6 336.165 121.744 335.829 122.032C335.509 122.32 335.349 122.68 335.349 123.112C335.349 123.592 335.533 123.976 335.901 124.264C336.285 124.536 336.805 124.672 337.461 124.672C338.085 124.672 338.645 124.528 339.141 124.24C339.637 123.936 339.997 123.496 340.221 122.92L340.797 124.648C340.525 125.48 340.029 126.112 339.309 126.544C338.589 126.976 337.661 127.192 336.525 127.192ZM355.201 113.896C356.225 113.896 357.137 114.104 357.937 114.52C358.753 114.92 359.393 115.544 359.857 116.392C360.321 117.224 360.553 118.296 360.553 119.608V127H356.809V120.184C356.809 119.144 356.577 118.376 356.113 117.88C355.665 117.384 355.025 117.136 354.193 117.136C353.601 117.136 353.065 117.264 352.585 117.52C352.121 117.76 351.753 118.136 351.481 118.648C351.225 119.16 351.097 119.816 351.097 120.616V127H347.353V114.088H350.929V117.664L350.257 116.584C350.721 115.72 351.385 115.056 352.249 114.592C353.113 114.128 354.097 113.896 355.201 113.896ZM369.585 127.192C368.369 127.192 367.273 126.92 366.297 126.376C365.321 125.816 364.545 125.04 363.969 124.048C363.409 123.056 363.129 121.888 363.129 120.544C363.129 119.184 363.409 118.008 363.969 117.016C364.545 116.024 365.321 115.256 366.297 114.712C367.273 114.168 368.369 113.896 369.585 113.896C370.673 113.896 371.625 114.136 372.441 114.616C373.257 115.096 373.889 115.824 374.337 116.8C374.785 117.776 375.009 119.024 375.009 120.544C375.009 122.048 374.793 123.296 374.361 124.288C373.929 125.264 373.305 125.992 372.489 126.472C371.689 126.952 370.721 127.192 369.585 127.192ZM370.233 124.12C370.841 124.12 371.393 123.976 371.889 123.688C372.385 123.4 372.777 122.992 373.065 122.464C373.369 121.92 373.521 121.28 373.521 120.544C373.521 119.792 373.369 119.152 373.065 118.624C372.777 118.096 372.385 117.688 371.889 117.4C371.393 117.112 370.841 116.968 370.233 116.968C369.609 116.968 369.049 117.112 368.553 117.4C368.057 117.688 367.657 118.096 367.353 118.624C367.065 119.152 366.921 119.792 366.921 120.544C366.921 121.28 367.065 121.92 367.353 122.464C367.657 122.992 368.057 123.4 368.553 123.688C369.049 123.976 369.609 124.12 370.233 124.12ZM373.617 127V124.36L373.689 120.52L373.449 116.704V109.192H377.193V127H373.617ZM393.599 127.192C392.223 127.192 390.999 126.904 389.927 126.328C388.871 125.752 388.031 124.968 387.407 123.976C386.799 122.968 386.495 121.824 386.495 120.544C386.495 119.248 386.799 118.104 387.407 117.112C388.031 116.104 388.871 115.32 389.927 114.76C390.999 114.184 392.223 113.896 393.599 113.896C394.959 113.896 396.175 114.184 397.247 114.76C398.319 115.32 399.159 116.096 399.767 117.088C400.375 118.08 400.679 119.232 400.679 120.544C400.679 121.824 400.375 122.968 399.767 123.976C399.159 124.968 398.319 125.752 397.247 126.328C396.175 126.904 394.959 127.192 393.599 127.192ZM393.599 124.12C394.223 124.12 394.783 123.976 395.279 123.688C395.775 123.4 396.167 122.992 396.455 122.464C396.743 121.92 396.887 121.28 396.887 120.544C396.887 119.792 396.743 119.152 396.455 118.624C396.167 118.096 395.775 117.688 395.279 117.4C394.783 117.112 394.223 116.968 393.599 116.968C392.975 116.968 392.415 117.112 391.919 117.4C391.423 117.688 391.023 118.096 390.719 118.624C390.431 119.152 390.287 119.792 390.287 120.544C390.287 121.28 390.431 121.92 390.719 122.464C391.023 122.992 391.423 123.4 391.919 123.688C392.415 123.976 392.975 124.12 393.599 124.12ZM403.181 127V114.088H406.757V117.736L406.253 116.68C406.637 115.768 407.253 115.08 408.101 114.616C408.949 114.136 409.981 113.896 411.197 113.896V117.352C411.037 117.336 410.893 117.328 410.765 117.328C410.637 117.312 410.501 117.304 410.357 117.304C409.333 117.304 408.501 117.6 407.861 118.192C407.237 118.768 406.925 119.672 406.925 120.904V127H403.181ZM419.402 131.848C418.186 131.848 417.01 131.696 415.874 131.392C414.754 131.104 413.818 130.664 413.066 130.072L414.554 127.384C415.098 127.832 415.786 128.184 416.618 128.44C417.466 128.712 418.298 128.848 419.114 128.848C420.442 128.848 421.402 128.552 421.994 127.96C422.602 127.368 422.906 126.488 422.906 125.32V123.376L423.146 120.136L423.098 116.872V114.088H426.65V124.84C426.65 127.24 426.026 129.008 424.778 130.144C423.53 131.28 421.738 131.848 419.402 131.848ZM418.826 126.376C417.626 126.376 416.538 126.12 415.562 125.608C414.602 125.08 413.826 124.352 413.234 123.424C412.658 122.48 412.37 121.384 412.37 120.136C412.37 118.872 412.658 117.776 413.234 116.848C413.826 115.904 414.602 115.176 415.562 114.664C416.538 114.152 417.626 113.896 418.826 113.896C419.914 113.896 420.874 114.12 421.706 114.568C422.538 115 423.186 115.68 423.65 116.608C424.114 117.52 424.346 118.696 424.346 120.136C424.346 121.56 424.114 122.736 423.65 123.664C423.186 124.576 422.538 125.256 421.706 125.704C420.874 126.152 419.914 126.376 418.826 126.376ZM419.57 123.304C420.226 123.304 420.81 123.176 421.322 122.92C421.834 122.648 422.234 122.272 422.522 121.792C422.81 121.312 422.954 120.76 422.954 120.136C422.954 119.496 422.81 118.944 422.522 118.48C422.234 118 421.834 117.632 421.322 117.376C420.81 117.104 420.226 116.968 419.57 116.968C418.914 116.968 418.33 117.104 417.818 117.376C417.306 117.632 416.898 118 416.594 118.48C416.306 118.944 416.162 119.496 416.162 120.136C416.162 120.76 416.306 121.312 416.594 121.792C416.898 122.272 417.306 122.648 417.818 122.92C418.33 123.176 418.914 123.304 419.57 123.304ZM438.054 127V124.48L437.814 123.928V119.416C437.814 118.616 437.566 117.992 437.07 117.544C436.59 117.096 435.846 116.872 434.838 116.872C434.15 116.872 433.47 116.984 432.798 117.208C432.142 117.416 431.582 117.704 431.118 118.072L429.774 115.456C430.478 114.96 431.326 114.576 432.318 114.304C433.31 114.032 434.318 113.896 435.342 113.896C437.31 113.896 438.838 114.36 439.926 115.288C441.014 116.216 441.558 117.664 441.558 119.632V127H438.054ZM434.118 127.192C433.11 127.192 432.246 127.024 431.526 126.688C430.806 126.336 430.254 125.864 429.87 125.272C429.486 124.68 429.294 124.016 429.294 123.28C429.294 122.512 429.478 121.84 429.846 121.264C430.23 120.688 430.83 120.24 431.646 119.92C432.462 119.584 433.526 119.416 434.838 119.416H438.27V121.6H435.246C434.366 121.6 433.758 121.744 433.422 122.032C433.102 122.32 432.942 122.68 432.942 123.112C432.942 123.592 433.126 123.976 433.494 124.264C433.878 124.536 434.398 124.672 435.054 124.672C435.678 124.672 436.238 124.528 436.734 124.24C437.23 123.936 437.59 123.496 437.814 122.92L438.39 124.648C438.118 125.48 437.622 126.112 436.902 126.544C436.182 126.976 435.254 127.192 434.118 127.192ZM452.795 113.896C453.819 113.896 454.731 114.104 455.531 114.52C456.347 114.92 456.987 115.544 457.451 116.392C457.915 117.224 458.147 118.296 458.147 119.608V127H454.403V120.184C454.403 119.144 454.171 118.376 453.707 117.88C453.259 117.384 452.619 117.136 451.787 117.136C451.195 117.136 450.659 117.264 450.179 117.52C449.715 117.76 449.347 118.136 449.075 118.648C448.819 119.16 448.691 119.816 448.691 120.616V127H444.947V114.088H448.523V117.664L447.851 116.584C448.315 115.72 448.979 115.056 449.843 114.592C450.707 114.128 451.691 113.896 452.795 113.896ZM461.541 127V114.088H465.285V127H461.541ZM463.413 112.288C462.725 112.288 462.165 112.088 461.733 111.688C461.301 111.288 461.085 110.792 461.085 110.2C461.085 109.608 461.301 109.112 461.733 108.712C462.165 108.312 462.725 108.112 463.413 108.112C464.101 108.112 464.661 108.304 465.093 108.688C465.525 109.056 465.741 109.536 465.741 110.128C465.741 110.752 465.525 111.272 465.093 111.688C464.677 112.088 464.117 112.288 463.413 112.288ZM474.999 127.192C473.607 127.192 472.367 126.912 471.279 126.352C470.191 125.776 469.335 124.984 468.711 123.976C468.103 122.968 467.799 121.824 467.799 120.544C467.799 119.248 468.103 118.104 468.711 117.112C469.335 116.104 470.191 115.32 471.279 114.76C472.367 114.184 473.607 113.896 474.999 113.896C476.359 113.896 477.543 114.184 478.551 114.76C479.559 115.32 480.303 116.128 480.783 117.184L477.879 118.744C477.543 118.136 477.119 117.688 476.607 117.4C476.111 117.112 475.567 116.968 474.975 116.968C474.335 116.968 473.759 117.112 473.247 117.4C472.735 117.688 472.327 118.096 472.023 118.624C471.735 119.152 471.591 119.792 471.591 120.544C471.591 121.296 471.735 121.936 472.023 122.464C472.327 122.992 472.735 123.4 473.247 123.688C473.759 123.976 474.335 124.12 474.975 124.12C475.567 124.12 476.111 123.984 476.607 123.712C477.119 123.424 477.543 122.968 477.879 122.344L480.783 123.928C480.303 124.968 479.559 125.776 478.551 126.352C477.543 126.912 476.359 127.192 474.999 127.192ZM495.976 127.192C494.584 127.192 493.344 126.912 492.256 126.352C491.168 125.776 490.312 124.984 489.688 123.976C489.08 122.968 488.776 121.824 488.776 120.544C488.776 119.248 489.08 118.104 489.688 117.112C490.312 116.104 491.168 115.32 492.256 114.76C493.344 114.184 494.584 113.896 495.976 113.896C497.336 113.896 498.52 114.184 499.528 114.76C500.536 115.32 501.28 116.128 501.76 117.184L498.856 118.744C498.52 118.136 498.096 117.688 497.584 117.4C497.088 117.112 496.544 116.968 495.952 116.968C495.312 116.968 494.736 117.112 494.224 117.4C493.712 117.688 493.304 118.096 493 118.624C492.712 119.152 492.568 119.792 492.568 120.544C492.568 121.296 492.712 121.936 493 122.464C493.304 122.992 493.712 123.4 494.224 123.688C494.736 123.976 495.312 124.12 495.952 124.12C496.544 124.12 497.088 123.984 497.584 123.712C498.096 123.424 498.52 122.968 498.856 122.344L501.76 123.928C501.28 124.968 500.536 125.776 499.528 126.352C498.52 126.912 497.336 127.192 495.976 127.192ZM509.895 127.192C508.519 127.192 507.295 126.904 506.223 126.328C505.167 125.752 504.327 124.968 503.703 123.976C503.095 122.968 502.791 121.824 502.791 120.544C502.791 119.248 503.095 118.104 503.703 117.112C504.327 116.104 505.167 115.32 506.223 114.76C507.295 114.184 508.519 113.896 509.895 113.896C511.255 113.896 512.471 114.184 513.543 114.76C514.615 115.32 515.455 116.096 516.063 117.088C516.671 118.08 516.975 119.232 516.975 120.544C516.975 121.824 516.671 122.968 516.063 123.976C515.455 124.968 514.615 125.752 513.543 126.328C512.471 126.904 511.255 127.192 509.895 127.192ZM509.895 124.12C510.519 124.12 511.079 123.976 511.575 123.688C512.071 123.4 512.463 122.992 512.751 122.464C513.039 121.92 513.183 121.28 513.183 120.544C513.183 119.792 513.039 119.152 512.751 118.624C512.463 118.096 512.071 117.688 511.575 117.4C511.079 117.112 510.519 116.968 509.895 116.968C509.271 116.968 508.711 117.112 508.215 117.4C507.719 117.688 507.319 118.096 507.015 118.624C506.727 119.152 506.583 119.792 506.583 120.544C506.583 121.28 506.727 121.92 507.015 122.464C507.319 122.992 507.719 123.4 508.215 123.688C508.711 123.976 509.271 124.12 509.895 124.12ZM523.822 127.192C522.718 127.192 521.654 127.064 520.63 126.808C519.622 126.536 518.822 126.2 518.23 125.8L519.478 123.112C520.07 123.48 520.766 123.784 521.566 124.024C522.382 124.248 523.182 124.36 523.966 124.36C524.83 124.36 525.438 124.256 525.79 124.048C526.158 123.84 526.342 123.552 526.342 123.184C526.342 122.88 526.198 122.656 525.91 122.512C525.638 122.352 525.27 122.232 524.806 122.152C524.342 122.072 523.83 121.992 523.27 121.912C522.726 121.832 522.174 121.728 521.614 121.6C521.054 121.456 520.542 121.248 520.078 120.976C519.614 120.704 519.238 120.336 518.95 119.872C518.678 119.408 518.542 118.808 518.542 118.072C518.542 117.256 518.774 116.536 519.238 115.912C519.718 115.288 520.406 114.8 521.302 114.448C522.198 114.08 523.27 113.896 524.518 113.896C525.398 113.896 526.294 113.992 527.206 114.184C528.118 114.376 528.878 114.656 529.486 115.024L528.238 117.688C527.614 117.32 526.982 117.072 526.342 116.944C525.718 116.8 525.11 116.728 524.518 116.728C523.686 116.728 523.078 116.84 522.694 117.064C522.31 117.288 522.118 117.576 522.118 117.928C522.118 118.248 522.254 118.488 522.526 118.648C522.814 118.808 523.19 118.936 523.654 119.032C524.118 119.128 524.622 119.216 525.166 119.296C525.726 119.36 526.286 119.464 526.846 119.608C527.406 119.752 527.91 119.96 528.358 120.232C528.822 120.488 529.198 120.848 529.486 121.312C529.774 121.76 529.918 122.352 529.918 123.088C529.918 123.888 529.678 124.6 529.198 125.224C528.718 125.832 528.022 126.312 527.11 126.664C526.214 127.016 525.118 127.192 523.822 127.192ZM548.764 113.896C549.788 113.896 550.692 114.104 551.476 114.52C552.276 114.92 552.9 115.544 553.348 116.392C553.812 117.224 554.044 118.296 554.044 119.608V127H550.3V120.184C550.3 119.144 550.084 118.376 549.652 117.88C549.22 117.384 548.612 117.136 547.828 117.136C547.284 117.136 546.796 117.264 546.364 117.52C545.932 117.76 545.596 118.128 545.356 118.624C545.116 119.12 544.996 119.752 544.996 120.52V127H541.252V120.184C541.252 119.144 541.036 118.376 540.604 117.88C540.188 117.384 539.588 117.136 538.804 117.136C538.26 117.136 537.772 117.264 537.34 117.52C536.908 117.76 536.572 118.128 536.332 118.624C536.092 119.12 535.972 119.752 535.972 120.52V127H532.228V114.088H535.804V117.616L535.132 116.584C535.58 115.704 536.212 115.04 537.028 114.592C537.86 114.128 538.804 113.896 539.86 113.896C541.044 113.896 542.076 114.2 542.956 114.808C543.852 115.4 544.444 116.312 544.732 117.544L543.412 117.184C543.844 116.176 544.532 115.376 545.476 114.784C546.436 114.192 547.532 113.896 548.764 113.896ZM563.902 127.192C562.43 127.192 561.134 126.904 560.014 126.328C558.91 125.752 558.054 124.968 557.446 123.976C556.838 122.968 556.534 121.824 556.534 120.544C556.534 119.248 556.83 118.104 557.422 117.112C558.03 116.104 558.854 115.32 559.894 114.76C560.934 114.184 562.11 113.896 563.422 113.896C564.686 113.896 565.822 114.168 566.83 114.712C567.854 115.24 568.662 116.008 569.254 117.016C569.846 118.008 570.142 119.2 570.142 120.592C570.142 120.736 570.134 120.904 570.118 121.096C570.102 121.272 570.086 121.44 570.07 121.6H559.582V119.416H568.102L566.662 120.064C566.662 119.392 566.526 118.808 566.254 118.312C565.982 117.816 565.606 117.432 565.126 117.16C564.646 116.872 564.086 116.728 563.446 116.728C562.806 116.728 562.238 116.872 561.742 117.16C561.262 117.432 560.886 117.824 560.614 118.336C560.342 118.832 560.206 119.424 560.206 120.112V120.688C560.206 121.392 560.358 122.016 560.662 122.56C560.982 123.088 561.422 123.496 561.982 123.784C562.558 124.056 563.23 124.192 563.998 124.192C564.686 124.192 565.286 124.088 565.798 123.88C566.326 123.672 566.806 123.36 567.238 122.944L569.23 125.104C568.638 125.776 567.894 126.296 566.998 126.664C566.102 127.016 565.07 127.192 563.902 127.192ZM577.914 127.192C576.394 127.192 575.21 126.808 574.362 126.04C573.514 125.256 573.09 124.096 573.09 122.56V111.232H576.834V122.512C576.834 123.056 576.978 123.48 577.266 123.784C577.554 124.072 577.946 124.216 578.442 124.216C579.034 124.216 579.538 124.056 579.954 123.736L580.962 126.376C580.578 126.648 580.114 126.856 579.57 127C579.042 127.128 578.49 127.192 577.914 127.192ZM571.098 117.256V114.376H580.05V117.256H571.098ZM583.064 127V114.088H586.808V127H583.064ZM584.936 112.288C584.248 112.288 583.688 112.088 583.256 111.688C582.824 111.288 582.608 110.792 582.608 110.2C582.608 109.608 582.824 109.112 583.256 108.712C583.688 108.312 584.248 108.112 584.936 108.112C585.624 108.112 586.184 108.304 586.616 108.688C587.048 109.056 587.264 109.536 587.264 110.128C587.264 110.752 587.048 111.272 586.616 111.688C586.2 112.088 585.64 112.288 584.936 112.288ZM596.523 127.192C595.131 127.192 593.891 126.912 592.803 126.352C591.715 125.776 590.859 124.984 590.235 123.976C589.627 122.968 589.323 121.824 589.323 120.544C589.323 119.248 589.627 118.104 590.235 117.112C590.859 116.104 591.715 115.32 592.803 114.76C593.891 114.184 595.131 113.896 596.523 113.896C597.883 113.896 599.067 114.184 600.075 114.76C601.083 115.32 601.827 116.128 602.307 117.184L599.403 118.744C599.067 118.136 598.643 117.688 598.131 117.4C597.635 117.112 597.091 116.968 596.499 116.968C595.859 116.968 595.283 117.112 594.771 117.4C594.259 117.688 593.851 118.096 593.547 118.624C593.259 119.152 593.115 119.792 593.115 120.544C593.115 121.296 593.259 121.936 593.547 122.464C593.851 122.992 594.259 123.4 594.771 123.688C595.283 123.976 595.859 124.12 596.499 124.12C597.091 124.12 597.635 123.984 598.131 123.712C598.643 123.424 599.067 122.968 599.403 122.344L602.307 123.928C601.827 124.968 601.083 125.776 600.075 126.352C599.067 126.912 597.883 127.192 596.523 127.192ZM618.891 127.192C617.803 127.192 616.851 126.952 616.035 126.472C615.219 125.992 614.579 125.264 614.115 124.288C613.667 123.296 613.443 122.048 613.443 120.544C613.443 119.024 613.659 117.776 614.091 116.8C614.523 115.824 615.147 115.096 615.963 114.616C616.779 114.136 617.755 113.896 618.891 113.896C620.107 113.896 621.195 114.176 622.155 114.736C623.131 115.28 623.899 116.048 624.459 117.04C625.035 118.032 625.323 119.2 625.323 120.544C625.323 121.904 625.035 123.08 624.459 124.072C623.899 125.064 623.131 125.832 622.155 126.376C621.195 126.92 620.107 127.192 618.891 127.192ZM611.259 131.656V114.088H614.835V116.728L614.763 120.568L615.003 124.384V131.656H611.259ZM618.243 124.12C618.867 124.12 619.419 123.976 619.899 123.688C620.395 123.4 620.787 122.992 621.075 122.464C621.379 121.92 621.531 121.28 621.531 120.544C621.531 119.792 621.379 119.152 621.075 118.624C620.787 118.096 620.395 117.688 619.899 117.4C619.419 117.112 618.867 116.968 618.243 116.968C617.619 116.968 617.059 117.112 616.563 117.4C616.067 117.688 615.675 118.096 615.387 118.624C615.099 119.152 614.955 119.792 614.955 120.544C614.955 121.28 615.099 121.92 615.387 122.464C615.675 122.992 616.067 123.4 616.563 123.688C617.059 123.976 617.619 124.12 618.243 124.12ZM627.83 127V114.088H631.406V117.736L630.902 116.68C631.286 115.768 631.902 115.08 632.75 114.616C633.598 114.136 634.63 113.896 635.846 113.896V117.352C635.686 117.336 635.542 117.328 635.414 117.328C635.286 117.312 635.15 117.304 635.006 117.304C633.982 117.304 633.15 117.6 632.51 118.192C631.886 118.768 631.574 119.672 631.574 120.904V127H627.83ZM644.122 127.192C642.746 127.192 641.522 126.904 640.45 126.328C639.394 125.752 638.554 124.968 637.93 123.976C637.322 122.968 637.018 121.824 637.018 120.544C637.018 119.248 637.322 118.104 637.93 117.112C638.554 116.104 639.394 115.32 640.45 114.76C641.522 114.184 642.746 113.896 644.122 113.896C645.482 113.896 646.698 114.184 647.77 114.76C648.842 115.32 649.682 116.096 650.29 117.088C650.898 118.08 651.202 119.232 651.202 120.544C651.202 121.824 650.898 122.968 650.29 123.976C649.682 124.968 648.842 125.752 647.77 126.328C646.698 126.904 645.482 127.192 644.122 127.192ZM644.122 124.12C644.746 124.12 645.306 123.976 645.802 123.688C646.298 123.4 646.69 122.992 646.978 122.464C647.266 121.92 647.41 121.28 647.41 120.544C647.41 119.792 647.266 119.152 646.978 118.624C646.69 118.096 646.298 117.688 645.802 117.4C645.306 117.112 644.746 116.968 644.122 116.968C643.498 116.968 642.938 117.112 642.442 117.4C641.946 117.688 641.546 118.096 641.242 118.624C640.954 119.152 640.81 119.792 640.81 120.544C640.81 121.28 640.954 121.92 641.242 122.464C641.546 122.992 641.946 123.4 642.442 123.688C642.938 123.976 643.498 124.12 644.122 124.12ZM659.249 127.192C658.033 127.192 656.937 126.92 655.961 126.376C654.985 125.816 654.209 125.04 653.633 124.048C653.073 123.056 652.793 121.888 652.793 120.544C652.793 119.184 653.073 118.008 653.633 117.016C654.209 116.024 654.985 115.256 655.961 114.712C656.937 114.168 658.033 113.896 659.249 113.896C660.337 113.896 661.289 114.136 662.105 114.616C662.921 115.096 663.553 115.824 664.001 116.8C664.449 117.776 664.673 119.024 664.673 120.544C664.673 122.048 664.457 123.296 664.025 124.288C663.593 125.264 662.969 125.992 662.153 126.472C661.353 126.952 660.385 127.192 659.249 127.192ZM659.897 124.12C660.505 124.12 661.057 123.976 661.553 123.688C662.049 123.4 662.441 122.992 662.729 122.464C663.033 121.92 663.185 121.28 663.185 120.544C663.185 119.792 663.033 119.152 662.729 118.624C662.441 118.096 662.049 117.688 661.553 117.4C661.057 117.112 660.505 116.968 659.897 116.968C659.273 116.968 658.713 117.112 658.217 117.4C657.721 117.688 657.321 118.096 657.017 118.624C656.729 119.152 656.585 119.792 656.585 120.544C656.585 121.28 656.729 121.92 657.017 122.464C657.321 122.992 657.721 123.4 658.217 123.688C658.713 123.976 659.273 124.12 659.897 124.12ZM663.281 127V124.36L663.353 120.52L663.113 116.704V109.192H666.857V127H663.281ZM675.77 127.192C674.698 127.192 673.738 126.984 672.89 126.568C672.058 126.152 671.41 125.52 670.946 124.672C670.482 123.808 670.25 122.712 670.25 121.384V114.088H673.994V120.832C673.994 121.904 674.218 122.696 674.666 123.208C675.13 123.704 675.778 123.952 676.61 123.952C677.186 123.952 677.698 123.832 678.146 123.592C678.594 123.336 678.946 122.952 679.202 122.44C679.458 121.912 679.586 121.256 679.586 120.472V114.088H683.33V127H679.778V123.448L680.426 124.48C679.994 125.376 679.354 126.056 678.506 126.52C677.674 126.968 676.762 127.192 675.77 127.192ZM693.038 127.192C691.646 127.192 690.406 126.912 689.318 126.352C688.23 125.776 687.374 124.984 686.75 123.976C686.142 122.968 685.838 121.824 685.838 120.544C685.838 119.248 686.142 118.104 686.75 117.112C687.374 116.104 688.23 115.32 689.318 114.76C690.406 114.184 691.646 113.896 693.038 113.896C694.398 113.896 695.582 114.184 696.59 114.76C697.598 115.32 698.342 116.128 698.822 117.184L695.918 118.744C695.582 118.136 695.158 117.688 694.646 117.4C694.15 117.112 693.606 116.968 693.014 116.968C692.374 116.968 691.798 117.112 691.286 117.4C690.774 117.688 690.366 118.096 690.062 118.624C689.774 119.152 689.63 119.792 689.63 120.544C689.63 121.296 689.774 121.936 690.062 122.464C690.366 122.992 690.774 123.4 691.286 123.688C691.798 123.976 692.374 124.12 693.014 124.12C693.606 124.12 694.15 123.984 694.646 123.712C695.158 123.424 695.582 122.968 695.918 122.344L698.822 123.928C698.342 124.968 697.598 125.776 696.59 126.352C695.582 126.912 694.398 127.192 693.038 127.192ZM706.446 127.192C704.926 127.192 703.742 126.808 702.894 126.04C702.046 125.256 701.622 124.096 701.622 122.56V111.232H705.366V122.512C705.366 123.056 705.51 123.48 705.798 123.784C706.086 124.072 706.478 124.216 706.974 124.216C707.566 124.216 708.07 124.056 708.486 123.736L709.494 126.376C709.11 126.648 708.646 126.856 708.102 127C707.574 127.128 707.022 127.192 706.446 127.192ZM699.63 117.256V114.376H708.582V117.256H699.63ZM715.939 127.192C714.835 127.192 713.771 127.064 712.747 126.808C711.739 126.536 710.939 126.2 710.347 125.8L711.595 123.112C712.187 123.48 712.883 123.784 713.683 124.024C714.499 124.248 715.299 124.36 716.083 124.36C716.947 124.36 717.555 124.256 717.907 124.048C718.275 123.84 718.459 123.552 718.459 123.184C718.459 122.88 718.315 122.656 718.027 122.512C717.755 122.352 717.387 122.232 716.923 122.152C716.459 122.072 715.947 121.992 715.387 121.912C714.843 121.832 714.291 121.728 713.731 121.6C713.171 121.456 712.659 121.248 712.195 120.976C711.731 120.704 711.355 120.336 711.067 119.872C710.795 119.408 710.659 118.808 710.659 118.072C710.659 117.256 710.891 116.536 711.355 115.912C711.835 115.288 712.523 114.8 713.419 114.448C714.315 114.08 715.387 113.896 716.635 113.896C717.515 113.896 718.411 113.992 719.323 114.184C720.235 114.376 720.995 114.656 721.603 115.024L720.355 117.688C719.731 117.32 719.099 117.072 718.459 116.944C717.835 116.8 717.227 116.728 716.635 116.728C715.803 116.728 715.195 116.84 714.811 117.064C714.427 117.288 714.235 117.576 714.235 117.928C714.235 118.248 714.371 118.488 714.643 118.648C714.931 118.808 715.307 118.936 715.771 119.032C716.235 119.128 716.739 119.216 717.283 119.296C717.843 119.36 718.403 119.464 718.963 119.608C719.523 119.752 720.027 119.96 720.475 120.232C720.939 120.488 721.315 120.848 721.603 121.312C721.891 121.76 722.035 122.352 722.035 123.088C722.035 123.888 721.795 124.6 721.315 125.224C720.835 125.832 720.139 126.312 719.227 126.664C718.331 127.016 717.235 127.192 715.939 127.192ZM731.142 127V109.192H734.886V127H731.142ZM746.281 127V124.48L746.041 123.928V119.416C746.041 118.616 745.793 117.992 745.297 117.544C744.817 117.096 744.073 116.872 743.065 116.872C742.377 116.872 741.697 116.984 741.025 117.208C740.369 117.416 739.809 117.704 739.345 118.072L738.001 115.456C738.705 114.96 739.553 114.576 740.545 114.304C741.537 114.032 742.545 113.896 743.569 113.896C745.537 113.896 747.065 114.36 748.153 115.288C749.241 116.216 749.785 117.664 749.785 119.632V127H746.281ZM742.345 127.192C741.337 127.192 740.473 127.024 739.753 126.688C739.033 126.336 738.481 125.864 738.097 125.272C737.713 124.68 737.521 124.016 737.521 123.28C737.521 122.512 737.705 121.84 738.073 121.264C738.457 120.688 739.057 120.24 739.873 119.92C740.689 119.584 741.753 119.416 743.065 119.416H746.497V121.6H743.473C742.593 121.6 741.985 121.744 741.649 122.032C741.329 122.32 741.169 122.68 741.169 123.112C741.169 123.592 741.353 123.976 741.721 124.264C742.105 124.536 742.625 124.672 743.281 124.672C743.905 124.672 744.465 124.528 744.961 124.24C745.457 123.936 745.817 123.496 746.041 122.92L746.617 124.648C746.345 125.48 745.849 126.112 745.129 126.544C744.409 126.976 743.481 127.192 742.345 127.192ZM760.805 127.192C759.669 127.192 758.693 126.952 757.877 126.472C757.061 125.992 756.437 125.264 756.005 124.288C755.573 123.296 755.357 122.048 755.357 120.544C755.357 119.024 755.581 117.776 756.029 116.8C756.493 115.824 757.133 115.096 757.949 114.616C758.765 114.136 759.717 113.896 760.805 113.896C762.021 113.896 763.109 114.168 764.069 114.712C765.045 115.256 765.813 116.024 766.373 117.016C766.949 118.008 767.237 119.184 767.237 120.544C767.237 121.888 766.949 123.056 766.373 124.048C765.813 125.04 765.045 125.816 764.069 126.376C763.109 126.92 762.021 127.192 760.805 127.192ZM753.173 127V109.192H756.917V116.704L756.677 120.52L756.749 124.36V127H753.173ZM760.157 124.12C760.781 124.12 761.333 123.976 761.813 123.688C762.309 123.4 762.701 122.992 762.989 122.464C763.293 121.92 763.445 121.28 763.445 120.544C763.445 119.792 763.293 119.152 762.989 118.624C762.701 118.096 762.309 117.688 761.813 117.4C761.333 117.112 760.781 116.968 760.157 116.968C759.533 116.968 758.973 117.112 758.477 117.4C757.981 117.688 757.589 118.096 757.301 118.624C757.013 119.152 756.869 119.792 756.869 120.544C756.869 121.28 757.013 121.92 757.301 122.464C757.589 122.992 757.981 123.4 758.477 123.688C758.973 123.976 759.533 124.12 760.157 124.12ZM776.152 127.192C774.68 127.192 773.384 126.904 772.264 126.328C771.16 125.752 770.304 124.968 769.696 123.976C769.088 122.968 768.784 121.824 768.784 120.544C768.784 119.248 769.08 118.104 769.672 117.112C770.28 116.104 771.104 115.32 772.144 114.76C773.184 114.184 774.36 113.896 775.672 113.896C776.936 113.896 778.072 114.168 779.08 114.712C780.104 115.24 780.912 116.008 781.504 117.016C782.096 118.008 782.392 119.2 782.392 120.592C782.392 120.736 782.384 120.904 782.368 121.096C782.352 121.272 782.336 121.44 782.32 121.6H771.832V119.416H780.352L778.912 120.064C778.912 119.392 778.776 118.808 778.504 118.312C778.232 117.816 777.856 117.432 777.376 117.16C776.896 116.872 776.336 116.728 775.696 116.728C775.056 116.728 774.488 116.872 773.992 117.16C773.512 117.432 773.136 117.824 772.864 118.336C772.592 118.832 772.456 119.424 772.456 120.112V120.688C772.456 121.392 772.608 122.016 772.912 122.56C773.232 123.088 773.672 123.496 774.232 123.784C774.808 124.056 775.48 124.192 776.248 124.192C776.936 124.192 777.536 124.088 778.048 123.88C778.576 123.672 779.056 123.36 779.488 122.944L781.48 125.104C780.888 125.776 780.144 126.296 779.248 126.664C778.352 127.016 777.32 127.192 776.152 127.192ZM784.884 127V109.192H788.628V127H784.884ZM796.447 127.192C795.343 127.192 794.279 127.064 793.255 126.808C792.247 126.536 791.447 126.2 790.855 125.8L792.103 123.112C792.695 123.48 793.391 123.784 794.191 124.024C795.007 124.248 795.807 124.36 796.591 124.36C797.455 124.36 798.063 124.256 798.415 124.048C798.783 123.84 798.967 123.552 798.967 123.184C798.967 122.88 798.823 122.656 798.535 122.512C798.263 122.352 797.895 122.232 797.431 122.152C796.967 122.072 796.455 121.992 795.895 121.912C795.351 121.832 794.799 121.728 794.239 121.6C793.679 121.456 793.167 121.248 792.703 120.976C792.239 120.704 791.863 120.336 791.575 119.872C791.303 119.408 791.167 118.808 791.167 118.072C791.167 117.256 791.399 116.536 791.863 115.912C792.343 115.288 793.031 114.8 793.927 114.448C794.823 114.08 795.895 113.896 797.143 113.896C798.023 113.896 798.919 113.992 799.831 114.184C800.743 114.376 801.503 114.656 802.111 115.024L800.863 117.688C800.239 117.32 799.607 117.072 798.967 116.944C798.343 116.8 797.735 116.728 797.143 116.728C796.311 116.728 795.703 116.84 795.319 117.064C794.935 117.288 794.743 117.576 794.743 117.928C794.743 118.248 794.879 118.488 795.151 118.648C795.439 118.808 795.815 118.936 796.279 119.032C796.743 119.128 797.247 119.216 797.791 119.296C798.351 119.36 798.911 119.464 799.471 119.608C800.031 119.752 800.535 119.96 800.983 120.232C801.447 120.488 801.823 120.848 802.111 121.312C802.399 121.76 802.543 122.352 802.543 123.088C802.543 123.888 802.303 124.6 801.823 125.224C801.343 125.832 800.647 126.312 799.735 126.664C798.839 127.016 797.743 127.192 796.447 127.192ZM808.028 121.168C808.028 120.608 808.116 120.112 808.292 119.68C808.484 119.248 808.716 118.864 808.988 118.528C809.276 118.192 809.58 117.88 809.9 117.592C810.22 117.304 810.516 117.032 810.788 116.776C811.076 116.504 811.308 116.224 811.484 115.936C811.676 115.648 811.772 115.328 811.772 114.976C811.772 114.4 811.532 113.936 811.052 113.584C810.588 113.232 809.964 113.056 809.18 113.056C808.428 113.056 807.756 113.216 807.164 113.536C806.572 113.84 806.084 114.272 805.7 114.832L802.796 113.128C803.436 112.152 804.324 111.376 805.46 110.8C806.596 110.208 807.972 109.912 809.588 109.912C810.788 109.912 811.844 110.088 812.756 110.44C813.668 110.776 814.38 111.272 814.892 111.928C815.42 112.584 815.684 113.392 815.684 114.352C815.684 114.976 815.588 115.528 815.396 116.008C815.204 116.488 814.956 116.904 814.652 117.256C814.348 117.608 814.02 117.936 813.668 118.24C813.332 118.544 813.012 118.84 812.708 119.128C812.404 119.416 812.148 119.72 811.94 120.04C811.748 120.36 811.652 120.736 811.652 121.168H808.028ZM809.852 127.192C809.18 127.192 808.628 126.976 808.196 126.544C807.764 126.112 807.548 125.6 807.548 125.008C807.548 124.4 807.764 123.896 808.196 123.496C808.628 123.08 809.18 122.872 809.852 122.872C810.54 122.872 811.092 123.08 811.508 123.496C811.94 123.896 812.156 124.4 812.156 125.008C812.156 125.6 811.94 126.112 811.508 126.544C811.092 126.976 810.54 127.192 809.852 127.192Z" fill="#E16639"/>
</svg>
