<svg width="269" height="88" viewBox="0 0 269 88" fill="none" xmlns="http://www.w3.org/2000/svg">
<rect x="0.5" y="0.5" width="268" height="80" fill="white" stroke="black"/>
<ellipse cx="37.1613" cy="50.5" rx="10.1613" ry="10.5" fill="#E8178A"/>
<path d="M27.996 24H34.152V22.416H29.94V15.6H27.996V24ZM41.3833 20.796C41.3833 18.72 39.9193 17.448 38.0233 17.448C36.0553 17.448 34.5793 18.84 34.5793 20.772C34.5793 22.692 36.0313 24.096 38.2633 24.096C39.4273 24.096 40.3273 23.736 40.9273 23.052L39.9313 21.972C39.4873 22.392 38.9953 22.596 38.3113 22.596C37.3273 22.596 36.6433 22.104 36.4633 21.3H41.3473C41.3593 21.144 41.3833 20.94 41.3833 20.796ZM38.0353 18.864C38.8753 18.864 39.4873 19.392 39.6193 20.208H36.4393C36.5713 19.38 37.1833 18.864 38.0353 18.864ZM47.5136 17.544V18.372C47.0216 17.748 46.2776 17.448 45.3776 17.448C43.5896 17.448 42.1496 18.684 42.1496 20.568C42.1496 22.452 43.5896 23.688 45.3776 23.688C46.2176 23.688 46.9256 23.424 47.4176 22.884V23.16C47.4176 24.324 46.8416 24.924 45.5216 24.924C44.6936 24.924 43.7936 24.636 43.2416 24.192L42.4976 25.536C43.2536 26.124 44.4416 26.424 45.6656 26.424C47.9936 26.424 49.2896 25.32 49.2896 22.92V17.544H47.5136ZM45.7496 22.152C44.7656 22.152 44.0456 21.516 44.0456 20.568C44.0456 19.62 44.7656 18.984 45.7496 18.984C46.7336 18.984 47.4416 19.62 47.4416 20.568C47.4416 21.516 46.7336 22.152 45.7496 22.152ZM57.356 20.796C57.356 18.72 55.892 17.448 53.996 17.448C52.028 17.448 50.552 18.84 50.552 20.772C50.552 22.692 52.004 24.096 54.236 24.096C55.4 24.096 56.3 23.736 56.9 23.052L55.904 21.972C55.46 22.392 54.968 22.596 54.284 22.596C53.3 22.596 52.616 22.104 52.436 21.3H57.32C57.332 21.144 57.356 20.94 57.356 20.796ZM54.008 18.864C54.848 18.864 55.46 19.392 55.592 20.208H52.412C52.544 19.38 53.156 18.864 54.008 18.864ZM62.5263 17.448C61.6503 17.448 60.8943 17.748 60.3903 18.3V17.544H58.6023V24H60.4743V20.808C60.4743 19.62 61.1223 19.068 62.0223 19.068C62.8503 19.068 63.3303 19.548 63.3303 20.592V24H65.2023V20.304C65.2023 18.336 64.0503 17.448 62.5263 17.448ZM71.6735 15.096V18.228C71.2055 17.7 70.5335 17.448 69.7415 17.448C67.9175 17.448 66.5135 18.744 66.5135 20.772C66.5135 22.8 67.9175 24.096 69.7415 24.096C70.6055 24.096 71.2895 23.82 71.7575 23.256V24H73.5455V15.096H71.6735ZM70.0655 22.56C69.1295 22.56 68.4095 21.888 68.4095 20.772C68.4095 19.656 69.1295 18.984 70.0655 18.984C70.9895 18.984 71.7095 19.656 71.7095 20.772C71.7095 21.888 70.9895 22.56 70.0655 22.56Z" fill="black"/>
<path d="M85.436 55L83.552 52.3C84.644 51.832 85.28 50.908 85.28 49.648C85.28 47.764 83.876 46.6 81.632 46.6H77.996V55H79.94V52.66H81.632H81.728L83.348 55H85.436ZM83.312 49.648C83.312 50.56 82.712 51.112 81.524 51.112H79.94V48.184H81.524C82.712 48.184 83.312 48.724 83.312 49.648ZM89.7602 55.096C91.8122 55.096 93.3002 53.716 93.3002 51.772C93.3002 49.828 91.8122 48.448 89.7602 48.448C87.7082 48.448 86.2082 49.828 86.2082 51.772C86.2082 53.716 87.7082 55.096 89.7602 55.096ZM89.7602 53.56C88.8242 53.56 88.1042 52.888 88.1042 51.772C88.1042 50.656 88.8242 49.984 89.7602 49.984C90.6962 49.984 91.4042 50.656 91.4042 51.772C91.4042 52.888 90.6962 53.56 89.7602 53.56ZM99.1835 48.544V51.736C99.1835 52.924 98.5595 53.476 97.6955 53.476C96.8675 53.476 96.3875 52.996 96.3875 51.916V48.544H94.5155V52.192C94.5155 54.184 95.6555 55.096 97.2755 55.096C98.0675 55.096 98.7875 54.796 99.2795 54.232V55H101.056V48.544H99.1835ZM106.714 48.448C105.838 48.448 105.082 48.748 104.578 49.3V48.544H102.79V55H104.662V51.808C104.662 50.62 105.31 50.068 106.21 50.068C107.038 50.068 107.518 50.548 107.518 51.592V55H109.39V51.304C109.39 49.336 108.238 48.448 106.714 48.448ZM115.861 46.096V49.228C115.393 48.7 114.721 48.448 113.929 48.448C112.105 48.448 110.701 49.744 110.701 51.772C110.701 53.8 112.105 55.096 113.929 55.096C114.793 55.096 115.477 54.82 115.945 54.256V55H117.733V46.096H115.861ZM114.253 53.56C113.317 53.56 112.597 52.888 112.597 51.772C112.597 50.656 113.317 49.984 114.253 49.984C115.177 49.984 115.897 50.656 115.897 51.772C115.897 52.888 115.177 53.56 114.253 53.56ZM122.084 46.6V48.16H123.764V55H125.708V46.6H122.084Z" fill="black"/>
<path d="M208.436 56L206.552 53.3C207.644 52.832 208.28 51.908 208.28 50.648C208.28 48.764 206.876 47.6 204.632 47.6H200.996V56H202.94V53.66H204.632H204.728L206.348 56H208.436ZM206.312 50.648C206.312 51.56 205.712 52.112 204.524 52.112H202.94V49.184H204.524C205.712 49.184 206.312 49.724 206.312 50.648ZM212.76 56.096C214.812 56.096 216.3 54.716 216.3 52.772C216.3 50.828 214.812 49.448 212.76 49.448C210.708 49.448 209.208 50.828 209.208 52.772C209.208 54.716 210.708 56.096 212.76 56.096ZM212.76 54.56C211.824 54.56 211.104 53.888 211.104 52.772C211.104 51.656 211.824 50.984 212.76 50.984C213.696 50.984 214.404 51.656 214.404 52.772C214.404 53.888 213.696 54.56 212.76 54.56ZM222.184 49.544V52.736C222.184 53.924 221.56 54.476 220.696 54.476C219.868 54.476 219.388 53.996 219.388 52.916V49.544H217.516V53.192C217.516 55.184 218.656 56.096 220.276 56.096C221.068 56.096 221.788 55.796 222.28 55.232V56H224.056V49.544H222.184ZM229.714 49.448C228.838 49.448 228.082 49.748 227.578 50.3V49.544H225.79V56H227.662V52.808C227.662 51.62 228.31 51.068 229.21 51.068C230.038 51.068 230.518 51.548 230.518 52.592V56H232.39V52.304C232.39 50.336 231.238 49.448 229.714 49.448ZM238.861 47.096V50.228C238.393 49.7 237.721 49.448 236.929 49.448C235.105 49.448 233.701 50.744 233.701 52.772C233.701 54.8 235.105 56.096 236.929 56.096C237.793 56.096 238.477 55.82 238.945 55.256V56H240.733V47.096H238.861ZM237.253 54.56C236.317 54.56 235.597 53.888 235.597 52.772C235.597 51.656 236.317 50.984 237.253 50.984C238.177 50.984 238.897 51.656 238.897 52.772C238.897 53.888 238.177 54.56 237.253 54.56ZM248.132 54.416L250.064 52.592C251.24 51.5 251.468 50.756 251.468 49.94C251.468 48.416 250.22 47.456 248.348 47.456C246.836 47.456 245.66 48.068 245.012 49.016L246.428 49.928C246.836 49.364 247.448 49.088 248.168 49.088C249.056 49.088 249.512 49.472 249.512 50.132C249.512 50.54 249.38 50.972 248.636 51.68L245.396 54.74V56H251.744V54.416H248.132Z" fill="black"/>
<ellipse cx="172.161" cy="50.5" rx="10.1613" ry="10.5" fill="#E88817"/>
</svg>
