<svg width="821" height="114" viewBox="0 0 821 114" fill="none" xmlns="http://www.w3.org/2000/svg">
<path d="M559.908 79V39.2817H564.334V74.6877H588.449V79H559.908ZM658.03 79V43.5939H644.186V39.2817H676.811V43.5939H662.456V79H658.03ZM707.438 79.3972C703.845 79.3972 700.686 78.6217 697.963 77.0708C695.277 75.4821 693.159 73.3449 691.608 70.6591C690.095 67.9356 689.338 64.8338 689.338 61.3537V39.2817H693.764V61.07C693.764 63.7557 694.369 66.1577 695.58 68.276C696.79 70.3565 698.436 72.002 700.516 73.2125C702.597 74.3851 704.904 74.9714 707.438 74.9714C710.162 74.9714 712.564 74.3851 714.644 73.2125C716.763 72.002 718.408 70.3565 719.581 68.276C720.791 66.1577 721.397 63.7557 721.397 61.07V39.2817H725.652V61.4105C725.652 64.8527 724.877 67.9356 723.326 70.6591C721.813 73.3449 719.694 75.4821 716.971 77.0708C714.247 78.6217 711.07 79.3972 707.438 79.3972ZM757.008 79.5674C754.587 79.5674 752.317 79.2837 750.199 78.7163C748.081 78.1489 746.133 77.3167 744.355 76.2197C742.577 75.0849 740.969 73.6664 739.532 71.9642L742.369 68.3895C744.525 70.8861 746.813 72.6829 749.234 73.7799C751.655 74.8769 754.303 75.4253 757.178 75.4253C759.41 75.4253 761.415 75.1416 763.193 74.5742C765.008 73.969 766.446 73.1179 767.505 72.0209C768.602 70.8861 769.15 69.5622 769.15 68.0491C769.15 66.9521 768.867 66.0632 768.299 65.3823C767.77 64.6636 767.051 64.0773 766.143 63.6233C765.273 63.1316 764.271 62.7344 763.136 62.4318C762.039 62.1292 760.904 61.8833 759.731 61.6942C758.597 61.4672 757.519 61.2591 756.497 61.07C754.341 60.6917 752.336 60.2378 750.483 59.7082C748.667 59.1787 747.078 58.5167 745.716 57.7223C744.355 56.8901 743.296 55.8499 742.539 54.6016C741.82 53.3533 741.461 51.8402 741.461 50.0624C741.461 48.3601 741.839 46.8092 742.596 45.4096C743.39 44.01 744.487 42.8185 745.887 41.835C747.324 40.8515 748.989 40.1139 750.88 39.6221C752.771 39.1304 754.814 38.8845 757.008 38.8845C759.391 38.8845 761.547 39.1682 763.476 39.7356C765.405 40.2652 767.127 41.0595 768.64 42.1187C770.153 43.14 771.458 44.4072 772.555 45.9203L769.547 49.1545C768.526 47.8306 767.372 46.7147 766.086 45.8068C764.8 44.899 763.382 44.1992 761.831 43.7074C760.318 43.2157 758.691 42.9698 756.951 42.9698C754.871 42.9698 753.017 43.2535 751.391 43.8209C749.802 44.3883 748.516 45.1638 747.532 46.1473C746.587 47.1308 746.114 48.3034 746.114 49.6652C746.114 50.8378 746.397 51.8213 746.965 52.6157C747.57 53.41 748.421 54.072 749.518 54.6016C750.615 55.0933 751.901 55.5284 753.376 55.9066C754.852 56.2471 756.516 56.5497 758.37 56.8145C760.337 57.1549 762.247 57.5521 764.1 58.006C765.954 58.4599 767.618 59.0841 769.094 59.8785C770.569 60.635 771.723 61.6374 772.555 62.8857C773.387 64.0962 773.803 65.6471 773.803 67.5384C773.803 69.9215 773.103 72.0209 771.704 73.8366C770.342 75.6523 768.394 77.0708 765.859 78.0922C763.363 79.0757 760.412 79.5674 757.008 79.5674Z" fill="#251D16"/>
<g clip-path="url(#clip0_163_652)">
<path d="M642.275 64.0175C642.101 63.7101 641.866 63.4416 641.585 63.2284C641.303 63.0153 640.981 62.862 640.637 62.778C638.325 62.2171 635.921 62.1418 633.577 62.5567C634.573 58.1744 633.931 54.7439 633.267 52.752C633.068 52.1252 632.642 51.5949 632.074 51.2637C631.506 50.9325 630.835 50.824 630.191 50.9592C627.908 51.476 625.749 52.4387 623.839 53.7922C622.488 50.5522 620.313 47.7216 617.531 45.581C617.071 45.2362 616.512 45.0498 615.937 45.0498C615.363 45.0498 614.804 45.2362 614.344 45.581C611.562 47.7216 609.387 50.5522 608.036 53.7922C606.126 52.4387 603.967 51.476 601.684 50.9592C601.04 50.824 600.369 50.9325 599.801 51.2637C599.233 51.5949 598.807 52.1252 598.608 52.752C597.944 54.7439 597.302 58.1744 598.298 62.5567C595.954 62.1418 593.55 62.2171 591.237 62.778C590.894 62.862 590.572 63.0153 590.29 63.2284C590.009 63.4416 589.774 63.7101 589.6 64.0175C589.249 64.6355 589.153 65.3663 589.334 66.0537C590.087 68.7096 592.388 73.8001 599.36 77.8282C606.332 81.8563 612.595 81.8785 615.937 81.8785C619.279 81.8785 625.499 81.8785 632.515 77.8282C639.531 73.7779 641.788 68.7096 642.541 66.0537C642.722 65.3663 642.626 64.6355 642.275 64.0175ZM630.567 52.7077C630.778 52.6583 631 52.6901 631.188 52.7967C631.377 52.9033 631.519 53.077 631.585 53.2831C632.227 55.2751 632.869 58.8163 631.519 63.3756C631.497 63.4199 631.497 63.4641 631.475 63.5084C630.944 65.2599 630.201 66.9397 629.261 68.5104C627.368 71.7559 624.847 74.5923 621.847 76.8544L621.294 77.2528C623.529 74.3091 625.676 69.7941 625.676 63.2871C625.698 60.6429 625.295 58.0123 624.481 55.4964C626.288 54.144 628.363 53.1932 630.567 52.7077V52.7077ZM615.406 46.9975C615.56 46.8825 615.746 46.8204 615.937 46.8204C616.129 46.8204 616.315 46.8825 616.469 46.9975C618.704 48.6796 623.905 53.593 623.905 63.2871C623.905 68.3997 622.489 72.782 619.722 76.3453C618.659 77.7402 617.382 78.9579 615.937 79.9529C614.493 78.9579 613.216 77.7402 612.153 76.3453C609.386 72.782 607.97 68.3997 607.97 63.2871C607.97 53.593 613.171 48.6796 615.406 46.9975V46.9975ZM600.29 53.2831C600.356 53.077 600.498 52.9033 600.686 52.7967C600.875 52.6901 601.097 52.6583 601.308 52.7077C603.512 53.1932 605.587 54.144 607.394 55.4964C606.58 58.0123 606.177 60.6429 606.199 63.2871C606.199 69.7941 608.346 74.3091 610.581 77.2528L610.028 76.8544C607.028 74.5923 604.507 71.7559 602.614 68.5104C601.674 66.9322 600.931 65.2449 600.4 63.4863L600.356 63.3756C599.006 58.8163 599.648 55.2751 600.29 53.2831V53.2831ZM591.038 65.5667C591.008 65.4558 591 65.3398 591.015 65.2258C591.031 65.1118 591.069 65.002 591.127 64.9028C591.249 64.7048 591.437 64.556 591.658 64.4822C594.016 63.937 596.467 63.9295 598.829 64.4601C599.403 66.1775 600.152 67.8314 601.064 69.3957C603.919 74.3534 608.08 77.8946 611.445 79.9308C607.493 79.5438 603.673 78.3055 600.245 76.3011C593.805 72.5828 591.724 67.9792 591.038 65.5667ZM640.837 65.5667C640.151 67.9792 638.07 72.5828 631.629 76.3011C628.202 78.3055 624.382 79.5438 620.43 79.9308C623.795 77.8946 627.955 74.3534 630.811 69.3957C631.723 67.8314 632.472 66.1775 633.046 64.4601C635.408 63.9295 637.859 63.937 640.217 64.4822C640.438 64.556 640.626 64.7048 640.748 64.9028C640.806 65.002 640.844 65.1118 640.859 65.2258C640.875 65.3398 640.867 65.4558 640.837 65.5667V65.5667Z" fill="#E16639"/>
</g>
<path d="M289.908 79V39.2817H294.334V74.6877H318.449V79H289.908ZM388.03 79V43.5939H374.186V39.2817H406.811V43.5939H392.456V79H388.03ZM437.438 79.3972C433.845 79.3972 430.686 78.6217 427.963 77.0708C425.277 75.4821 423.159 73.3449 421.608 70.6591C420.095 67.9356 419.338 64.8338 419.338 61.3537V39.2817H423.764V61.07C423.764 63.7557 424.369 66.1577 425.58 68.276C426.79 70.3565 428.436 72.002 430.516 73.2125C432.597 74.3851 434.904 74.9714 437.438 74.9714C440.162 74.9714 442.564 74.3851 444.644 73.2125C446.763 72.002 448.408 70.3565 449.581 68.276C450.791 66.1577 451.397 63.7557 451.397 61.07V39.2817H455.652V61.4105C455.652 64.8527 454.877 67.9356 453.326 70.6591C451.813 73.3449 449.694 75.4821 446.971 77.0708C444.247 78.6217 441.07 79.3972 437.438 79.3972ZM487.008 79.5674C484.587 79.5674 482.317 79.2837 480.199 78.7163C478.081 78.1489 476.133 77.3167 474.355 76.2197C472.577 75.0849 470.969 73.6664 469.532 71.9642L472.369 68.3895C474.525 70.8861 476.813 72.6829 479.234 73.7799C481.655 74.8769 484.303 75.4253 487.178 75.4253C489.41 75.4253 491.415 75.1416 493.193 74.5742C495.008 73.969 496.446 73.1179 497.505 72.0209C498.602 70.8861 499.15 69.5622 499.15 68.0491C499.15 66.9521 498.867 66.0632 498.299 65.3823C497.77 64.6636 497.051 64.0773 496.143 63.6233C495.273 63.1316 494.271 62.7344 493.136 62.4318C492.039 62.1292 490.904 61.8833 489.731 61.6942C488.597 61.4672 487.519 61.2591 486.497 61.07C484.341 60.6917 482.336 60.2378 480.483 59.7082C478.667 59.1787 477.078 58.5167 475.716 57.7223C474.355 56.8901 473.296 55.8499 472.539 54.6016C471.82 53.3533 471.461 51.8402 471.461 50.0624C471.461 48.3601 471.839 46.8092 472.596 45.4096C473.39 44.01 474.487 42.8185 475.887 41.835C477.324 40.8515 478.989 40.1139 480.88 39.6221C482.771 39.1304 484.814 38.8845 487.008 38.8845C489.391 38.8845 491.547 39.1682 493.476 39.7356C495.405 40.2652 497.127 41.0595 498.64 42.1187C500.153 43.14 501.458 44.4072 502.555 45.9203L499.547 49.1545C498.526 47.8306 497.372 46.7147 496.086 45.8068C494.8 44.899 493.382 44.1992 491.831 43.7074C490.318 43.2157 488.691 42.9698 486.951 42.9698C484.871 42.9698 483.017 43.2535 481.391 43.8209C479.802 44.3883 478.516 45.1638 477.532 46.1473C476.587 47.1308 476.114 48.3034 476.114 49.6652C476.114 50.8378 476.397 51.8213 476.965 52.6157C477.57 53.41 478.421 54.072 479.518 54.6016C480.615 55.0933 481.901 55.5284 483.376 55.9066C484.852 56.2471 486.516 56.5497 488.37 56.8145C490.337 57.1549 492.247 57.5521 494.1 58.006C495.954 58.4599 497.618 59.0841 499.094 59.8785C500.569 60.635 501.723 61.6374 502.555 62.8857C503.387 64.0962 503.803 65.6471 503.803 67.5384C503.803 69.9215 503.103 72.0209 501.704 73.8366C500.342 75.6523 498.394 77.0708 495.859 78.0922C493.363 79.0757 490.412 79.5674 487.008 79.5674Z" fill="#251D16"/>
<g clip-path="url(#clip1_163_652)">
<path d="M372.276 64.0175C372.101 63.7101 371.866 63.4416 371.585 63.2284C371.303 63.0153 370.981 62.862 370.638 62.778C368.325 62.2171 365.921 62.1418 363.577 62.5567C364.573 58.1744 363.932 54.7439 363.268 52.752C363.068 52.1252 362.643 51.5949 362.074 51.2637C361.506 50.9325 360.835 50.824 360.191 50.9592C357.908 51.476 355.749 52.4387 353.839 53.7922C352.488 50.5522 350.314 47.7216 347.531 45.581C347.072 45.2362 346.512 45.0498 345.938 45.0498C345.363 45.0498 344.804 45.2362 344.344 45.581C341.562 47.7216 339.387 50.5522 338.036 53.7922C336.126 52.4387 333.968 51.476 331.684 50.9592C331.041 50.824 330.37 50.9325 329.801 51.2637C329.233 51.5949 328.808 52.1252 328.608 52.752C327.944 54.7439 327.302 58.1744 328.298 62.5567C325.955 62.1418 323.551 62.2171 321.238 62.778C320.895 62.862 320.572 63.0153 320.291 63.2284C320.009 63.4416 319.774 63.7101 319.6 64.0175C319.249 64.6355 319.154 65.3663 319.334 66.0537C320.087 68.7096 322.389 73.8001 329.36 77.8282C336.332 81.8563 342.596 81.8785 345.938 81.8785C349.28 81.8785 355.499 81.8785 362.515 77.8282C369.531 73.7779 371.789 68.7096 372.541 66.0537C372.722 65.3663 372.626 64.6355 372.276 64.0175ZM360.567 52.7077C360.778 52.6583 361 52.6901 361.189 52.7967C361.377 52.9033 361.519 53.077 361.585 53.2831C362.227 55.2751 362.869 58.8163 361.519 63.3756C361.497 63.4199 361.497 63.4641 361.475 63.5084C360.944 65.2599 360.201 66.9397 359.262 68.5104C357.368 71.7559 354.847 74.5923 351.847 76.8544L351.294 77.2528C353.529 74.3091 355.676 69.7941 355.676 63.2871C355.698 60.6429 355.295 58.0123 354.481 55.4964C356.288 54.144 358.363 53.1932 360.567 52.7077V52.7077ZM345.407 46.9975C345.56 46.8825 345.746 46.8204 345.938 46.8204C346.129 46.8204 346.316 46.8825 346.469 46.9975C348.704 48.6796 353.905 53.593 353.905 63.2871C353.905 68.3997 352.489 72.782 349.722 76.3453C348.659 77.7402 347.382 78.9579 345.938 79.9529C344.493 78.9579 343.216 77.7402 342.153 76.3453C339.386 72.782 337.97 68.3997 337.97 63.2871C337.97 53.593 343.171 48.6796 345.407 46.9975V46.9975ZM330.29 53.2831C330.356 53.077 330.498 52.9033 330.687 52.7967C330.875 52.6901 331.097 52.6583 331.308 52.7077C333.512 53.1932 335.587 54.144 337.395 55.4964C336.581 58.0123 336.177 60.6429 336.199 63.2871C336.199 69.7941 338.346 74.3091 340.582 77.2528L340.028 76.8544C337.028 74.5923 334.508 71.7559 332.614 68.5104C331.674 66.9322 330.931 65.2449 330.401 63.4863L330.356 63.3756C329.006 58.8163 329.648 55.2751 330.29 53.2831V53.2831ZM321.039 65.5667C321.008 65.4558 321.001 65.3398 321.016 65.2258C321.031 65.1118 321.069 65.002 321.127 64.9028C321.25 64.7048 321.437 64.556 321.658 64.4822C324.017 63.937 326.467 63.9295 328.829 64.4601C329.403 66.1775 330.152 67.8314 331.065 69.3957C333.92 74.3534 338.081 77.8946 341.445 79.9308C337.493 79.5438 333.673 78.3055 330.246 76.3011C323.805 72.5828 321.725 67.9792 321.039 65.5667ZM370.837 65.5667C370.151 67.9792 368.07 72.5828 361.63 76.3011C358.203 78.3055 354.382 79.5438 350.431 79.9308C353.795 77.8946 357.956 74.3534 360.811 69.3957C361.723 67.8314 362.472 66.1775 363.046 64.4601C365.408 63.9295 367.859 63.937 370.217 64.4822C370.438 64.556 370.626 64.7048 370.748 64.9028C370.807 65.002 370.844 65.1118 370.86 65.2258C370.875 65.3398 370.867 65.4558 370.837 65.5667V65.5667Z" fill="#251D16"/>
</g>
<rect width="250" height="114" fill="black" fill-opacity="0.44"/>
<rect width="250" height="114" fill="black" fill-opacity="0.8"/>
<path d="M15.9083 79V39.2817H20.334V74.6877H44.4487V79H15.9083ZM114.03 79V43.5939H100.186V39.2817H132.811V43.5939H118.456V79H114.03ZM163.438 79.3972C159.845 79.3972 156.686 78.6217 153.963 77.0708C151.277 75.4821 149.159 73.3449 147.608 70.6591C146.095 67.9356 145.338 64.8338 145.338 61.3537V39.2817H149.764V61.07C149.764 63.7557 150.369 66.1577 151.58 68.276C152.79 70.3565 154.436 72.002 156.516 73.2125C158.597 74.3851 160.904 74.9714 163.438 74.9714C166.162 74.9714 168.564 74.3851 170.644 73.2125C172.763 72.002 174.408 70.3565 175.581 68.276C176.791 66.1577 177.397 63.7557 177.397 61.07V39.2817H181.652V61.4105C181.652 64.8527 180.877 67.9356 179.326 70.6591C177.813 73.3449 175.694 75.4821 172.971 77.0708C170.247 78.6217 167.07 79.3972 163.438 79.3972ZM213.008 79.5674C210.587 79.5674 208.317 79.2837 206.199 78.7163C204.081 78.1489 202.133 77.3167 200.355 76.2197C198.577 75.0849 196.969 73.6664 195.532 71.9642L198.369 68.3895C200.525 70.8861 202.813 72.6829 205.234 73.7799C207.655 74.8769 210.303 75.4253 213.178 75.4253C215.41 75.4253 217.415 75.1416 219.193 74.5742C221.008 73.969 222.446 73.1179 223.505 72.0209C224.602 70.8861 225.15 69.5622 225.15 68.0491C225.15 66.9521 224.867 66.0632 224.299 65.3823C223.77 64.6636 223.051 64.0773 222.143 63.6233C221.273 63.1316 220.271 62.7344 219.136 62.4318C218.039 62.1292 216.904 61.8833 215.731 61.6942C214.597 61.4672 213.519 61.2591 212.497 61.07C210.341 60.6917 208.336 60.2378 206.483 59.7082C204.667 59.1787 203.078 58.5167 201.716 57.7223C200.355 56.8901 199.296 55.8499 198.539 54.6016C197.82 53.3533 197.461 51.8402 197.461 50.0624C197.461 48.3601 197.839 46.8092 198.596 45.4096C199.39 44.01 200.487 42.8185 201.887 41.835C203.324 40.8515 204.989 40.1139 206.88 39.6221C208.771 39.1304 210.814 38.8845 213.008 38.8845C215.391 38.8845 217.547 39.1682 219.476 39.7356C221.405 40.2652 223.127 41.0595 224.64 42.1187C226.153 43.14 227.458 44.4072 228.555 45.9203L225.547 49.1545C224.526 47.8306 223.372 46.7147 222.086 45.8068C220.8 44.899 219.382 44.1992 217.831 43.7074C216.318 43.2157 214.691 42.9698 212.951 42.9698C210.871 42.9698 209.017 43.2535 207.391 43.8209C205.802 44.3883 204.516 45.1638 203.532 46.1473C202.587 47.1308 202.114 48.3034 202.114 49.6652C202.114 50.8378 202.397 51.8213 202.965 52.6157C203.57 53.41 204.421 54.072 205.518 54.6016C206.615 55.0933 207.901 55.5284 209.376 55.9066C210.852 56.2471 212.516 56.5497 214.37 56.8145C216.337 57.1549 218.247 57.5521 220.1 58.006C221.954 58.4599 223.618 59.0841 225.094 59.8785C226.569 60.635 227.723 61.6374 228.555 62.8857C229.387 64.0962 229.803 65.6471 229.803 67.5384C229.803 69.9215 229.103 72.0209 227.704 73.8366C226.342 75.6523 224.394 77.0708 221.859 78.0922C219.363 79.0757 216.412 79.5674 213.008 79.5674Z" fill="white"/>
<g clip-path="url(#clip2_163_652)">
<path d="M98.2755 64.0175C98.1015 63.7101 97.8664 63.4416 97.5847 63.2284C97.3031 63.0153 96.9808 62.862 96.6377 62.778C94.3249 62.2171 91.9208 62.1418 89.5774 62.5567C90.5734 58.1744 89.9315 54.7439 89.2675 52.752C89.0678 52.1252 88.6426 51.5949 88.0742 51.2637C87.5059 50.9325 86.8349 50.824 86.1911 50.9592C83.9078 51.476 81.7492 52.4387 79.839 53.7922C78.488 50.5522 76.3135 47.7216 73.5313 45.581C73.0715 45.2362 72.5124 45.0498 71.9377 45.0498C71.363 45.0498 70.8039 45.2362 70.3442 45.581C67.5619 47.7216 65.3874 50.5522 64.0364 53.7922C62.1263 52.4387 59.9676 51.476 57.6843 50.9592C57.0405 50.824 56.3695 50.9325 55.8012 51.2637C55.2328 51.5949 54.8076 52.1252 54.6079 52.752C53.9439 54.7439 53.302 58.1744 54.298 62.5567C51.9546 62.1418 49.5506 62.2171 47.2377 62.778C46.8946 62.862 46.5723 63.0153 46.2907 63.2284C46.009 63.4416 45.7739 63.7101 45.5999 64.0175C45.249 64.6355 45.1536 65.3663 45.3343 66.0537C46.0868 68.7096 48.3886 73.8001 55.3604 77.8282C62.3321 81.8563 68.5957 81.8785 71.9377 81.8785C75.2797 81.8785 81.499 81.8785 88.515 77.8282C95.5311 73.7779 97.7886 68.7096 98.5411 66.0537C98.7218 65.3663 98.6265 64.6355 98.2755 64.0175ZM86.5674 52.7077C86.7783 52.6583 87.0001 52.6901 87.1887 52.7967C87.3773 52.9033 87.5189 53.077 87.5855 53.2831C88.2273 55.2751 88.8692 58.8163 87.5191 63.3756C87.4969 63.4199 87.4969 63.4641 87.4748 63.5084C86.9442 65.2599 86.2009 66.9397 85.2615 68.5104C83.3679 71.7559 80.8475 74.5923 77.8471 76.8544L77.2938 77.2528C79.5292 74.3091 81.6761 69.7941 81.6761 63.2871C81.6984 60.6429 81.2948 58.0123 80.4809 55.4964C82.288 54.144 84.3631 53.1932 86.5674 52.7077V52.7077ZM71.4065 46.9975C71.5598 46.8825 71.7462 46.8204 71.9377 46.8204C72.1293 46.8204 72.3156 46.8825 72.4689 46.9975C74.7043 48.6796 79.9054 53.593 79.9054 63.2871C79.9054 68.3997 78.489 72.782 75.7224 76.3453C74.6593 77.7402 73.3819 78.9579 71.9377 79.9529C70.4935 78.9579 69.2161 77.7402 68.153 76.3453C65.3865 72.782 63.97 68.3997 63.97 63.2871C63.97 53.593 69.1711 48.6796 71.4065 46.9975V46.9975ZM56.2899 53.2831C56.3565 53.077 56.4981 52.9033 56.6867 52.7967C56.8753 52.6901 57.0971 52.6583 57.308 52.7077C59.5123 53.1932 61.5874 54.144 63.3945 55.4964C62.5806 58.0123 62.177 60.6429 62.1994 63.2871C62.1994 69.7941 64.3462 74.3091 66.5816 77.2528L66.0283 76.8544C63.0279 74.5923 60.5075 71.7559 58.6139 68.5104C57.6741 66.9322 56.9308 65.2449 56.4006 63.4863L56.3563 63.3756C55.0063 58.8163 55.6481 55.2751 56.2899 53.2831V53.2831ZM47.0385 65.5667C47.0083 65.4558 47.0005 65.3398 47.0157 65.2258C47.0309 65.1118 47.0688 65.002 47.127 64.9028C47.2495 64.7048 47.4375 64.556 47.6582 64.4822C50.0166 63.937 52.4675 63.9295 54.8292 64.4601C55.4033 66.1775 56.1523 67.8314 57.0646 69.3957C59.9197 74.3534 64.0806 77.8946 67.4448 79.9308C63.4934 79.5438 59.6728 78.3055 56.2457 76.3011C49.8051 72.5828 47.7246 67.9792 47.0385 65.5667ZM96.8369 65.5667C96.1508 67.9792 94.0703 72.5828 87.6297 76.3011C84.2026 78.3055 80.382 79.5438 76.4306 79.9308C79.7948 77.8946 83.9557 74.3534 86.8108 69.3957C87.7231 67.8314 88.4722 66.1775 89.0462 64.4601C91.4079 63.9295 93.8588 63.937 96.2172 64.4822C96.4379 64.556 96.6259 64.7048 96.7484 64.9028C96.8066 65.002 96.8445 65.1118 96.8597 65.2258C96.8749 65.3398 96.8671 65.4558 96.8369 65.5667V65.5667Z" fill="white"/>
</g>
<defs>
<clipPath id="clip0_163_652">
<rect width="56.6595" height="56.6595" fill="white" transform="translate(589.245 34.748)"/>
</clipPath>
<clipPath id="clip1_163_652">
<rect width="56.6595" height="56.6595" fill="white" transform="translate(319.245 34.748)"/>
</clipPath>
<clipPath id="clip2_163_652">
<rect width="56.6595" height="56.6595" fill="white" transform="translate(45.245 34.748)"/>
</clipPath>
</defs>
</svg>
